<svg xmlns="http://www.w3.org/2000/svg" width="1050" height="809.692" viewBox="0 0 1050 809.692">
  <g id="Group_258" data-name="Group 258" transform="translate(-729 -252)">
    <g id="Group_275" data-name="Group 275">
      <g id="BPR_aman_cepat_terpercaya" data-name="BPR aman, cepat, terpercaya" transform="translate(729 252)">
        <path id="Path_1" data-name="Path 1" d="M85.749,373.849C114.681,186.062,214.65,50.507,331.993,45.07,394.028,42.2,459.306,76.156,506.834,195c84.961,212.44-5.221,359.242-68.093,429-30.4,33.731-57.71,74.4-81.316,120.638-42.468,83.184-124.167,186.551-221.467,24.59C65.435,651.834,66.478,498.934,85.749,373.849Z" transform="translate(-74.5 -44.904)" fill="#e9be4e" opacity="0.41"/>
        <rect id="Rectangle_4" data-name="Rectangle 4" width="845.65" height="307.43" transform="translate(204.35 495.328)" fill="#e9be4e"/>
        <path id="Path_2" data-name="Path 2" d="M433.47,495.52,205.35,652.12V561.43l96.01-65.91Z" transform="translate(-0.25 -0.145)" fill="#e61030" opacity="0.3"/>
        <path id="Path_3" data-name="Path 3" d="M658.91,495.52,445.54,642l-7.64,5.25L211.09,802.95h-5.74V716.19L351.5,615.87l4.89-3.36L526.81,495.52Z" transform="translate(-0.344 -0.192)" fill="#e61030" opacity="0.3"/>
        <path id="Path_4" data-name="Path 4" d="M304.706,695.109l-2.276-2.853c.226-.18,23.036-18.169,59.47-28.459a188.159,188.159,0,0,1,64.991-6.724c27.148,1.975,54.142,9.987,80.231,23.815l-1.709,3.225c-58.041-30.765-109.54-26.119-142.521-16.8C327.159,677.4,304.927,694.933,304.706,695.109Z" transform="translate(-74.769 -45.056)" fill="#f2f2f2"/>
        <path id="Path_5" data-name="Path 5" d="M525.243,693.683c-10.891-1.882-25.3-2.669-35.686-.665L503.7,681.167l3.29-18.155C510.393,673.023,518.214,685.155,525.243,693.683Z" transform="translate(-74.909 -45.056)" fill="#f2f2f2"/>
        <path id="Path_6" data-name="Path 6" d="M678,730.78a189.385,189.385,0,0,1-51.552-7.212c-36.434-10.289-59.244-28.279-59.471-28.459l2.276-2.853c.221.176,22.564,17.77,58.336,27.841,32.95,9.278,84.4,13.886,142.372-16.846l1.709,3.225c-26.089,13.828-53.082,21.84-80.23,23.815Q684.731,730.781,678,730.78Z" transform="translate(-75.082 -45.065)" fill="#f2f2f2"/>
        <path id="Path_7" data-name="Path 7" d="M789.794,693.683c-7.028,8.531-14.848,20.663-18.248,30.675L768.255,706.2,754.11,694.351C764.492,696.355,778.9,695.568,789.794,693.683Z" transform="translate(-75.169 -45.096)" fill="#f2f2f2"/>
        <path id="Path_8" data-name="Path 8" d="M843.843,695.109l-2.277-2.853c.226-.18,23.037-18.169,59.471-28.459a188.221,188.221,0,0,1,64.991-6.724c27.148,1.975,54.141,9.987,80.23,23.815l-1.709,3.225c-58.04-30.764-109.54-26.12-142.521-16.8C866.3,677.4,844.063,694.933,843.843,695.109Z" transform="translate(-75.5 -45.056)" fill="#f2f2f2"/>
        <path id="Path_9" data-name="Path 9" d="M1064.38,693.683c-10.891-1.882-25.3-2.669-35.686-.665l14.146-11.851,3.29-18.155C1049.53,673.023,1057.35,685.155,1064.38,693.683Z" transform="translate(-75.5 -45.056)" fill="#f2f2f2"/>
        <rect id="Rectangle_5" data-name="Rectangle 5" width="59.296" height="1.824" transform="translate(701.814 579.311)" fill="#e61030"/>
        <rect id="Rectangle_6" data-name="Rectangle 6" width="59.296" height="1.824" transform="translate(701.814 597.551)" fill="#e61030"/>
        <rect id="Rectangle_7" data-name="Rectangle 7" width="59.296" height="1.824" transform="translate(701.814 615.792)" fill="#e61030"/>
        <rect id="Rectangle_8" data-name="Rectangle 8" width="59.296" height="1.824" transform="translate(435.708 686.901)" fill="#e61030"/>
        <rect id="Rectangle_9" data-name="Rectangle 9" width="59.296" height="1.824" transform="translate(435.708 705.146)" fill="#e61030"/>
        <rect id="Rectangle_10" data-name="Rectangle 10" width="59.296" height="1.824" transform="translate(435.708 723.391)" fill="#e61030"/>
        <rect id="Rectangle_11" data-name="Rectangle 11" width="59.296" height="1.824" transform="translate(976.108 686.901)" fill="#e61030"/>
        <rect id="Rectangle_12" data-name="Rectangle 12" width="59.296" height="1.824" transform="translate(976.108 705.146)" fill="#e61030"/>
        <rect id="Rectangle_13" data-name="Rectangle 13" width="59.296" height="1.824" transform="translate(976.108 723.391)" fill="#e61030"/>
        <circle id="Ellipse_2" data-name="Ellipse 2" cx="11.859" cy="11.859" r="11.859" transform="translate(454.861 647.709)" fill="#e61030"/>
        <circle id="Ellipse_3" data-name="Ellipse 3" cx="11.859" cy="11.859" r="11.859" transform="translate(720.066 631.292)" fill="#e61030"/>
        <circle id="Ellipse_4" data-name="Ellipse 4" cx="11.859" cy="11.859" r="11.859" transform="translate(993.441 647.709)" fill="#e61030"/>
        <path id="Path_10" data-name="Path 10" d="M422.581,457.872l-17.664-18.938,18.938-17.664,17.664,18.938Zm-14.848-18.84,14.946,16.024L438.7,440.11l-14.946-16.024Z" transform="translate(-74.826 -44.997)" fill="#3f3d56"/>
        <path id="Path_11" data-name="Path 11" d="M847.581,235.872l-17.664-18.938,18.938-17.664,17.664,18.938Zm-14.848-18.84,14.946,16.024L863.7,218.11l-14.946-16.024Z" transform="translate(-75.245 -44.942)" fill="#3f3d56"/>
        <path id="Path_12" data-name="Path 12" d="M1064.5,541.96h-25.9v-25.9h25.9Zm-23.9-1.992h21.913V518.055H1040.6Z" transform="translate(-75.5 -45.019)" fill="#3f3d56"/>
        <circle id="Ellipse_5" data-name="Ellipse 5" cx="13.221" cy="13.221" r="13.221" transform="translate(592.649 572.482)" fill="#e61030"/>
        <path id="Path_13" data-name="Path 13" d="M680.95,668.943a38.2,38.2,0,1,1,38.2-38.2,38.2,38.2,0,0,1-38.2,38.2Zm0-73.452a35.257,35.257,0,1,0,35.257,35.257A35.257,35.257,0,0,0,680.95,595.49Z" transform="translate(-75.083 -45.047)" fill="#f2f2f2"/>
        <rect id="Rectangle_18" data-name="Rectangle 18" width="2" height="51.93" transform="translate(660.803 409.063)" fill="#3f3d56"/>
        <path id="Path_30" data-name="Path 30" d="M807,442c2.107,5.68,5.7,12.727,9.512,17.095L807,455.654l-9.51,3.44C801.3,454.727,804.895,447.68,807,442Z" transform="translate(-145.201 -45)" fill="#3f3d56"/>
        <rect id="Rectangle_19" data-name="Rectangle 19" width="2" height="51.93" transform="translate(491.031 364.074)" fill="#3f3d56"/>
        <path id="Path_31" data-name="Path 31" d="M567,397c2.107,5.68,5.7,12.727,9.512,17.095L567,410.654l-9.51,3.44C561.3,409.727,564.895,402.68,567,397Z" transform="translate(-74.968 -44.989)" fill="#3f3d56"/>
        <rect id="Rectangle_20" data-name="Rectangle 20" width="2" height="51.93" transform="translate(762.715 324.084)" fill="#3f3d56"/>
        <path id="Path_32" data-name="Path 32" d="M899,357c2.107,5.68,5.7,12.727,9.512,17.095L899,370.654l-9.51,3.44C893.3,369.727,896.895,362.68,899,357Z" transform="translate(-135.29 -44.98)" fill="#3f3d56"/>
        <text id="CEPAT" transform="translate(469 295)" fill="#e61030" font-size="34" font-family="Montserrat-Bold, Montserrat" font-weight="700"><tspan x="-58.48" y="33">CEPAT</tspan></text>
        <text id="AMAN" transform="translate(628 339)" fill="#e61030" font-size="34" font-family="Montserrat-Bold, Montserrat" font-weight="700"><tspan x="-56.015" y="33">AMAN</tspan></text>
        <text id="TERPERCAYA" transform="translate(701 258)" fill="#e61030" font-size="34" font-family="Montserrat-Bold, Montserrat" font-weight="700"><tspan x="-118.881" y="33">TERPERCAYA</tspan></text>
      </g>
      <g id="freepik--Character--inject-183" transform="translate(751.119 282.317)">
        <path id="Path_1276" data-name="Path 1276" d="M68.7,93.893v.592c-.473,2.82-3.945,14.773-5.6,14.871s-5.621-1.972-5.463-3.629S62.471,90.8,62.471,90.8s.888-1.972,4.6-1.558C69.374,89.573,68.7,93.893,68.7,93.893Z" transform="translate(285.825 -71.188)" fill="#ffbe9d"/>
        <path id="Path_1277" data-name="Path 1277" d="M71.763,90.654a1.144,1.144,0,0,1,0,.592c-.493,2.84-3.945,14.773-5.6,14.891s-5.641-1.972-5.483-3.629S65.55,87.616,65.55,87.616s.888-1.972,4.6-1.558C72.433,86.354,71.763,90.654,71.763,90.654Z" transform="translate(276.77 -74.28)" fill="#ffbe9d"/>
        <path id="Path_1278" data-name="Path 1278" d="M75.04,88.583v.592c-.473,2.82-3.945,14.773-5.6,14.871s-5.641-1.972-5.483-3.629,4.891-14.891,4.891-14.891.868-1.972,4.6-1.558C75.73,84.264,75.04,88.583,75.04,88.583Z" transform="translate(267.024 -76.312)" fill="#ffbe9d"/>
        <path id="Path_1279" data-name="Path 1279" d="M78.292,86.561a1.144,1.144,0,0,1,0,.592c-.473,2.84-3.945,14.773-5.6,14.891s-5.641-1.972-5.483-3.629,4.872-14.891,4.872-14.891.888-1.972,4.615-1.578C78.963,82.261,78.292,86.561,78.292,86.561Z" transform="translate(257.361 -78.274)" fill="#ffbe9d"/>
        <path id="Path_1280" data-name="Path 1280" d="M61,101.42a23.668,23.668,0,0,0,2.189-5.68A24,24,0,0,0,64.649,90a23.669,23.669,0,0,0-2.189,5.68A24,24,0,0,0,61,101.42Z" transform="translate(283.332 -70.391)" fill="#eb996e"/>
        <path id="Path_1281" data-name="Path 1281" d="M63.79,102.929a48.383,48.383,0,0,0,3-8.106,46.863,46.863,0,0,0,2.229-8.363,49.308,49.308,0,0,0-2.978,8.126A49.824,49.824,0,0,0,63.79,102.929Z" transform="translate(273.461 -73.833)" fill="#eb996e"/>
        <g id="Group_245" data-name="Group 245" transform="translate(330.23 10.023)" opacity="0.78">
          <path id="Path_1282" data-name="Path 1282" d="M67.35,101.609a45.639,45.639,0,0,0,3-8.106,46.407,46.407,0,0,0,2.229-8.363A49.311,49.311,0,0,0,69.6,93.266a49.822,49.822,0,0,0-2.248,8.343Z" transform="translate(-67.35 -85.14)" fill="#eb996e"/>
        </g>
        <path id="Path_1283" data-name="Path 1283" d="M84.937,115.471c.2-.71,6.489-24.911,6.489-24.911H60.855C59.711,92.532,57.64,111.9,57.64,111.9l1.519,6.351s21.1,9.369,21.7,9.408S84.937,115.471,84.937,115.471Z" transform="translate(263.181 -69.847)" fill="#ffbe9d"/>
        <path id="Path_1284" data-name="Path 1284" d="M65.629,114.549l-3.688-9.566a17.475,17.475,0,0,1,.2-13.017L63.46,88.79l23.274,7.889s-4.4,7.889-10.453,4.458l5.207,8.008Z" transform="translate(261.681 -71.568)" fill="#ffbe9d"/>
        <path id="Path_1285" data-name="Path 1285" d="M76.71,109.9a20.744,20.744,0,0,0-.631-3.037,11.1,11.1,0,0,0-4.872-6.252l-2.229-1.321,2.544.434,5.917,1.026h-.118a6.667,6.667,0,0,0,6.035-3.669,5.567,5.567,0,0,0,.178-.533l.394.651c-6.667-1.972-12.662-3.767-16.923-5.345-2.11-.789-3.826-1.46-4.97-1.972a6.429,6.429,0,0,1-1.755-.907,65.922,65.922,0,0,1,7,2.13c4.28,1.361,10.3,3.077,16.982,4.99l.513.158-.118.513a4.4,4.4,0,0,1-.256.769,6.726,6.726,0,0,1-3.018,3.333,9.448,9.448,0,0,1-3.945.986h-.118L71.4,100.705l.316-.888a11.262,11.262,0,0,1,4.891,6.962,5.7,5.7,0,0,1,.1,3.116Z" transform="translate(264.624 -71.393)" fill="#eb996e"/>
        <path id="Path_1286" data-name="Path 1286" d="M58.144,97.665c.217,0,0,1.223.473,2.8a2.13,2.13,0,0,0,1.972,1.519A3.175,3.175,0,0,0,63,100.012c1.124-2.485,2.268-4.793,2.939-6.43s.966-2.761,1.144-2.722a5.917,5.917,0,0,1-.375,2.978,55.347,55.347,0,0,1-2.682,6.706,4.122,4.122,0,0,1-3.57,2.426,2.919,2.919,0,0,1-2.7-2.308,4.911,4.911,0,0,1,0-2.288C57.947,97.922,58.065,97.645,58.144,97.665Z" transform="translate(287.529 -69.556)" fill="#eb996e"/>
        <path id="Path_1287" data-name="Path 1287" d="M130.975,216.021c.2,0,1.479-3.747,4.458-9.467a29.585,29.585,0,0,1,6.8-8.816,18.243,18.243,0,0,1,5.641-3.235,32.188,32.188,0,0,1,6.923-1.519c4.852-.611,9.7-.927,13.806-2.7a18.5,18.5,0,0,0,10.887-14.891,10.97,10.97,0,0,0,0-2.091c0-.493,0-.73-.1-.73s0,1.006-.335,2.781a19.034,19.034,0,0,1-2.643,7.022,17.87,17.87,0,0,1-8.284,7.14c-3.945,1.637-8.6,1.972-13.511,2.544a32.664,32.664,0,0,0-7.14,1.6,19.073,19.073,0,0,0-5.917,3.452,29.407,29.407,0,0,0-6.844,9.211,62.7,62.7,0,0,0-2.978,7.1A14.24,14.24,0,0,0,130.975,216.021Z" transform="translate(30.422 9.895)" fill="#263238"/>
        <path id="Path_1288" data-name="Path 1288" d="M247.541,136.026a35.266,35.266,0,0,0-40.611,7.712c-4.99,5.523-8.264,12.7-14.359,16.982-7.495,5.227-17.376,4.813-26.508,5.089s-19.447,2.15-24.418,9.862c-2.308,3.59-3.077,7.889-4.319,12.012s-3.254,8.284-7.022,10.3a26.509,26.509,0,0,1-9.25,1.972c-3.136.414-6.528,1.42-8.2,4.1a106.172,106.172,0,0,0,19.171,33.786l6.41-3.294c-.158,2.525-.335,5.069-.493,7.613a57.2,57.2,0,0,1,15.4,12.524q5.917-7.219,11.834-14.457c3.471-4.2,7.12-8.56,12.071-10.848,4.6-2.13,9.862-2.248,14.852-2.82s10.355-1.834,13.806-5.542c2.781-3.018,3.945-7.219,6.371-10.532a16.37,16.37,0,0,1,14.674-6.43" transform="translate(-1.827 -28.884)" fill="#263238"/>
        <path id="Path_1289" data-name="Path 1289" d="M195.663,169.48c.907,3.945-1.972,7.889-5.542,9.467a26.607,26.607,0,0,1-11.637,1.617,25.088,25.088,0,0,0-11.617,1.755c-5.917,2.919-8.678,9.862-13.806,13.905a17.475,17.475,0,0,1-28.086-11.163,17.554,17.554,0,0,0,21.183.118c4.793-3.747,7.515-9.98,12.978-12.623s11.834-.927,17.751-.414,13.353-1.183,15.128-6.923l1.282.217Z" transform="translate(25.969 2.748)" fill="#e61030"/>
        <g id="Group_246" data-name="Group 246" transform="translate(212.329 167.692)" opacity="0.3">
          <path id="Path_1290" data-name="Path 1290" d="M133.656,175.671c.3.454-4.142,3.945-4.122,3.412,0,0-3-1.676-3.471-3.353a5.759,5.759,0,0,1,.868-5.266,8.087,8.087,0,0,0,4.359-5.384h1.341l1.026,10.591" transform="translate(-125.773 -165.08)"/>
        </g>
        <path id="Path_1291" data-name="Path 1291" d="M131.053,168.65a11.3,11.3,0,0,0,.454,4.3,21.559,21.559,0,0,0,1.243,4.162,25.479,25.479,0,0,0-.828-4.241C131.349,170.563,131.132,168.65,131.053,168.65Z" transform="translate(77.148 6.084)" fill="#fafafa"/>
        <path id="Path_1292" data-name="Path 1292" d="M138.437,168.29a40.451,40.451,0,0,1,3.432,4.556,28.7,28.7,0,0,1,2.13,5.286,4.458,4.458,0,0,0-.237-1.676,14.337,14.337,0,0,0-1.538-3.807,16.923,16.923,0,0,0-2.485-3.274A6.094,6.094,0,0,0,138.437,168.29Z" transform="translate(51.243 5.733)" fill="#fafafa"/>
        <path id="Path_1293" data-name="Path 1293" d="M144.55,175.12a5.8,5.8,0,0,0,1.085,1.46,20.613,20.613,0,0,0,3.235,2.958,20.357,20.357,0,0,0,3.767,2.229,5.346,5.346,0,0,0,1.7.611,54.167,54.167,0,0,1-5.227-3.175,49.937,49.937,0,0,1-4.556-4.083Z" transform="translate(28.858 12.375)" fill="#fafafa"/>
        <path id="Path_1294" data-name="Path 1294" d="M156.412,186.606c.118,0-.118-2.15-.138-4.773a41.856,41.856,0,0,0,0-4.773,20.965,20.965,0,0,0-.335,4.773,15.463,15.463,0,0,0,.473,4.773Z" transform="translate(4.334 14.261)" fill="#fafafa"/>
        <path id="Path_1295" data-name="Path 1295" d="M252.225,383.56,179.86,356.341l10.079-32.011,78.3,18.126Z" transform="translate(-154.693 157.458)" fill="#ffbe9d"/>
        <path id="Path_1296" data-name="Path 1296" d="M248.825,363.367l-2.13-.631s-25.5,31.794-32.484,30.1l22.13-71.774,23.668,8.343a42.978,42.978,0,0,0-11.183,33.964Z" transform="translate(-214.21 154.278)" fill="#e61030"/>
        <g id="Group_247" data-name="Group 247" transform="translate(30.058 485.533)" opacity="0.6">
          <path id="Path_1297" data-name="Path 1297" d="M225.032,329.288a3.1,3.1,0,0,0-2.722-3.057,2.959,2.959,0,0,0-3.057,2.682,3.215,3.215,0,0,0,2.9,3.215c1.5,0,3.156-1.657,2.86-3.136" transform="translate(-219.252 -326.229)" fill="#fff"/>
        </g>
        <g id="Group_248" data-name="Group 248" transform="translate(0 475.338)" opacity="0.6">
          <path id="Path_1298" data-name="Path 1298" d="M245.47,321.06l5.661,1.972-23.274,68.046s-2.387,2.761-4.517,1.716Z" transform="translate(-223.34 -321.06)" fill="#fff"/>
        </g>
        <path id="Path_1299" data-name="Path 1299" d="M222.791,346.082c-.355-.118,0-1.972-.572-3.945s-1.775-3.452-1.538-3.728,2.091.868,2.781,3.392S222.988,346.26,222.791,346.082Z" transform="translate(-190.583 171.109)" fill="#263238"/>
        <path id="Path_1300" data-name="Path 1300" d="M227.742,348.722c-.355,0-.493-1.716-1.6-3.373s-2.584-2.465-2.465-2.82,2.17,0,3.53,2.13S228.077,348.821,227.742,348.722Z" transform="translate(-200.977 175.037)" fill="#263238"/>
        <path id="Path_1301" data-name="Path 1301" d="M226.421,346.455c0-.335,1.972-.3,3.55,1.2s1.972,3.373,1.578,3.432-1.065-1.282-2.426-2.485S226.342,346.81,226.421,346.455Z" transform="translate(-209.972 178.804)" fill="#263238"/>
        <path id="Path_1302" data-name="Path 1302" d="M157.125,432.3l-21.1,74.4L103.3,499.325l11.558-79.545Z" transform="translate(107.425 250.268)" fill="#ffbe9d"/>
        <path id="Path_1303" data-name="Path 1303" d="M137.219,462.974l-.454,2.189s33.806,22.761,32.682,29.861L96.1,478.931l6.351-24.2a42.938,42.938,0,0,0,34.772,8.244Z" transform="translate(109.284 284.252)" fill="#e61030"/>
        <g id="Group_249" data-name="Group 249" transform="translate(214.63 748.429)" opacity="0.6">
          <path id="Path_1304" data-name="Path 1304" d="M128.45,459.52a3.077,3.077,0,0,0-2.82,2.978,2.978,2.978,0,0,0,2.919,2.82,3.215,3.215,0,0,0,2.959-3.156,3.037,3.037,0,0,0-3.353-2.6" transform="translate(-125.63 -459.52)" fill="#fff"/>
        </g>
        <g id="Group_250" data-name="Group 250" transform="translate(205.38 757.364)" opacity="0.6">
          <path id="Path_1305" data-name="Path 1305" d="M96.058,469.868,97.6,464.05,167.338,481.7s2.959,2.15,1.972,4.359Z" transform="translate(-96.058 -464.05)" fill="#fff"/>
        </g>
        <path id="Path_1306" data-name="Path 1306" d="M120.166,460.481c0,.355-1.972.138-3.945.888s-3.274,1.972-3.59,1.854.69-2.17,3.156-3.037S120.324,460.185,120.166,460.481Z" transform="translate(126.081 289.191)" fill="#263238"/>
        <path id="Path_1307" data-name="Path 1307" d="M114.979,462.737c0,.375-1.676.631-3.235,1.972s-2.248,2.761-2.6,2.663-.138-2.17,1.834-3.669S114.979,462.4,114.979,462.737Z" transform="translate(138.329 291.807)" fill="#263238"/>
        <path id="Path_1308" data-name="Path 1308" d="M105.932,470.543c-.335,0-.434-1.972.907-3.669s3.2-2.17,3.274-1.834-1.164,1.144-2.268,2.6S106.307,470.582,105.932,470.543Z" transform="translate(149.664 294.178)" fill="#263238"/>
        <path id="Path_1309" data-name="Path 1309" d="M170.538,277.21s2.7,142.009-11.223,237.983L127.284,619.214l-43.392-8.757s16.647-107.71,18.974-151.673.69-205.124.69-205.124Z" transform="translate(132.079 88.742)" fill="#263238"/>
        <path id="Path_1310" data-name="Path 1310" d="M312.757,265.693l-42.09,162.383a60.61,60.61,0,0,1-75.955,42.9L98.6,442.4l13.806-41.419,89.919,15.069,12.051-93.706S231.1,252.36,253.389,252.38C258.2,252.38,312.757,265.693,312.757,265.693Z" transform="translate(-38.937 87.498)" fill="#263238"/>
        <path id="Path_1311" data-name="Path 1311" d="M84.605,103.85l.177,8.816s3.57,68.164,3.373,78.361-34.4,68.7-34.4,68.7l20.867,34.181,47.139-84.811a18.658,18.658,0,0,0,2.229-11.4l-11.262-90.609-.3-2.387" transform="translate(238.129 -56.924)" fill="#ffbe9d"/>
        <path id="Path_1312" data-name="Path 1312" d="M196.969,149.1l-36.705,48.579c-6.923,9.152-18.836,14.339-29.427,18.718h0c-26.331,1.282-58.283-2.189-71.4,19.211A14.655,14.655,0,0,0,57.88,247.56c5.68,18.639,24.457,80.689,25.167,88.617,0,0-8.185,8.442-6.351,13.649s8.8,2.978,8.8,2.978l86.586,25.64s3.945-1.972,3.53-4.852a138.83,138.83,0,0,0-6.213-18.718,65.344,65.344,0,0,1-1.815-41.064,145.6,145.6,0,0,0,3.945-16.39l2.13-30.926c12.031-20.019,38.954-49.309,52.76-90.116Z" transform="translate(128.96 -12.926)" fill="#e61030"/>
        <path id="Path_1313" data-name="Path 1313" d="M96.323,168.471a30.216,30.216,0,0,1,27.159-33.826c16.094-1.538,30.414,10.453,32.84,26.449,2.11,14.023,3.945,28.185,3.945,33.313-.2,15.5-9.27,21.538-12.958,23.353a20.115,20.115,0,0,1-4.063,1.026h0a.118.118,0,0,0,0,.118l3.452,17.751c1.558,11.657-4.951,22.071-16.587,23.767s-20.828-7.258-22.6-18.935Z" transform="translate(118.505 -27.11)" fill="#ffbe9d"/>
        <path id="Path_1314" data-name="Path 1314" d="M109.162,153.549c-.256.355-2.308-.749-4.931-.355s-4.359,1.972-4.674,1.7,0-.73.809-1.46a6.607,6.607,0,0,1,3.688-1.755,6.39,6.39,0,0,1,3.945.671C108.925,152.839,109.3,153.372,109.162,153.549Z" transform="translate(162.982 -10.491)" fill="#263238"/>
        <path id="Path_1315" data-name="Path 1315" d="M121.01,156.1c-.256.355-2.308-.73-4.931-.335s-4.339,1.972-4.674,1.7,0-.75.809-1.479a6.745,6.745,0,0,1,3.688-1.755,6.666,6.666,0,0,1,3.945.671C120.774,155.414,121.148,155.947,121.01,156.1Z" transform="translate(127.781 -7.997)" fill="#263238"/>
        <path id="Path_1316" data-name="Path 1316" d="M107.833,172.155a17.571,17.571,0,0,1,4.142-1.381c.671-.177,1.282-.394,1.321-.868a3.531,3.531,0,0,0-.73-1.972l-2.722-4.813a87.456,87.456,0,0,1-6.41-12.7,92.012,92.012,0,0,1,7.416,12.169c.907,1.7,1.795,3.294,2.643,4.852a3.945,3.945,0,0,1,.73,2.584,1.736,1.736,0,0,1-.966,1.124,5.227,5.227,0,0,1-1.1.335,16.508,16.508,0,0,1-4.319.671Z" transform="translate(150.051 -11.642)" fill="#263238"/>
        <path id="Path_1317" data-name="Path 1317" d="M128.136,178.961s-10,2.308-23.786-3.471c0,0,5.917,12.82,24.713,8.264Z" transform="translate(133.416 12.734)" fill="#eb996e"/>
        <path id="Path_1318" data-name="Path 1318" d="M114.22,165.371a4.793,4.793,0,0,0-4.5-1.144,4.359,4.359,0,0,0-2.742,1.972,2.821,2.821,0,0,0,.237,3.175,3.235,3.235,0,0,0,3.57.355,10.06,10.06,0,0,0,3.077-2.485,3.471,3.471,0,0,0,.631-.888.927.927,0,0,0-.158-.986" transform="translate(143.467 1.631)" fill="#ff725e"/>
        <path id="Path_1319" data-name="Path 1319" d="M105.993,162.93c.434,0,.848,2.761,3.59,4.438s5.72.907,5.8,1.3-.592.651-1.972.868a7.041,7.041,0,0,1-4.813-.927,6.193,6.193,0,0,1-2.82-3.728C105.6,163.7,105.8,162.95,105.993,162.93Z" transform="translate(144.416 0.522)" fill="#263238"/>
        <path id="Path_1320" data-name="Path 1320" d="M124.1,151.482c-.158.749-2.84.789-5.917,1.617s-5.384,1.972-5.917,1.44c-.217-.276.118-1.006,1.006-1.854a10.2,10.2,0,0,1,4.221-2.189,10,10,0,0,1,4.734-.138C123.5,150.654,124.155,151.127,124.1,151.482Z" transform="translate(122.901 -11.916)" fill="#263238"/>
        <path id="Path_1321" data-name="Path 1321" d="M109.786,149.528c-.375.671-2.288.316-4.457.611s-3.945.986-4.477.414c-.217-.276,0-.907.71-1.6a6.232,6.232,0,0,1,3.452-1.5,6.075,6.075,0,0,1,3.728.69C109.609,148.581,109.944,149.212,109.786,149.528Z" transform="translate(159.715 -14.577)" fill="#263238"/>
        <path id="Path_1322" data-name="Path 1322" d="M172.871,283.29a21.7,21.7,0,0,0,21.7-21.873A125.028,125.028,0,0,0,190.5,234.4l-33.53,7.436h0L148.1,227.157s-18.7-36.331-36.409-38.717c-15.976-2.17-24.852,9.29-21.479,25.187s27.021,46.784,47.336,59.328a69.131,69.131,0,0,0,35.325,10.335Z" transform="translate(97.202 25.07)" fill="#e61030"/>
        <path id="Path_1323" data-name="Path 1323" d="M88.073,221.2a6.37,6.37,0,0,0,.71,1.2q.769,1.183,2.308,3.314a109.767,109.767,0,0,0,9.448,11.44,80.869,80.869,0,0,0,17.041,13.9,60.058,60.058,0,0,0,25.483,8.56,47.793,47.793,0,0,0,14-.868,26.587,26.587,0,0,0,11.834-5.523,21.084,21.084,0,0,0,6.272-10.039,29.921,29.921,0,0,0,1.065-10.256,57.652,57.652,0,0,0-3.175-14.5c-.572-1.657-1.045-2.919-1.361-3.787a7.67,7.67,0,0,0-.552-1.3,7.083,7.083,0,0,0,.355,1.361c.3.986.69,2.268,1.164,3.945a61.143,61.143,0,0,1,2.86,14.4,30,30,0,0,1-1.183,9.98,20.118,20.118,0,0,1-6.055,9.566,26.252,26.252,0,0,1-11.44,5.266,47.686,47.686,0,0,1-13.688.809,59.8,59.8,0,0,1-25.088-8.343,83.292,83.292,0,0,1-17.021-13.609,133.138,133.138,0,0,1-9.645-11.163l-2.446-3.2A7.889,7.889,0,0,0,88.073,221.2Z" transform="translate(118.273 49.547)" fill="#263238"/>
        <path id="Path_1324" data-name="Path 1324" d="M129.53,217.845a9.7,9.7,0,0,0,4.043,4.773,9.862,9.862,0,0,0,5.917,2.288c0-.3-2.544-1.183-5.246-3.136S129.786,217.668,129.53,217.845Z" transform="translate(73.326 53.908)" fill="#263238"/>
        <path id="Path_1325" data-name="Path 1325" d="M109.286,228.777a16,16,0,0,0-.3-6.686,16.212,16.212,0,0,0-1.972-6.39,34.715,34.715,0,0,0,1.065,6.568,34.122,34.122,0,0,0,1.2,6.509Z" transform="translate(147.71 51.832)" fill="#263238"/>
        <path id="Path_1326" data-name="Path 1326" d="M108.037,231.376a22.919,22.919,0,0,0,4.2-15.976c-.3,0-.434,3.728-1.6,8.126S107.761,231.238,108.037,231.376Z" transform="translate(142.884 51.541)" fill="#263238"/>
        <path id="Path_1327" data-name="Path 1327" d="M108.17,198a36.863,36.863,0,0,0,2.939,5.286c1.972,3.2,4.635,7.574,7.672,12.367s5.917,9.132,7.889,12.229a38.64,38.64,0,0,0,3.55,4.911,35.282,35.282,0,0,0-2.919-5.286c-1.972-3.215-4.635-7.594-7.692-12.386s-5.917-9.132-7.889-12.229A35.642,35.642,0,0,0,108.17,198Z" transform="translate(124.724 34.622)" fill="#263238"/>
        <path id="Path_1328" data-name="Path 1328" d="M84.126,255.663a8.8,8.8,0,0,0,.966-1.972,57.2,57.2,0,0,0,1.972-5.917,74.258,74.258,0,0,0-.138-40.334,54.235,54.235,0,0,0-1.972-5.917,11.4,11.4,0,0,0-.966-1.972c-.178,0,.986,3.077,2.268,8.087a82.188,82.188,0,0,1,.158,39.96C85.112,252.665,83.948,255.663,84.126,255.663Z" transform="translate(212.89 36.129)" fill="#263238"/>
        <path id="Path_1329" data-name="Path 1329" d="M93.71,241.322a12.35,12.35,0,0,0,1.46,1.972,57.485,57.485,0,0,0,4.536,5.03,73.7,73.7,0,0,0,7.574,6.627,86.442,86.442,0,0,0,10.375,6.667,87.519,87.519,0,0,0,11.321,4.911,74.946,74.946,0,0,0,9.724,2.6,54.158,54.158,0,0,0,6.706.966,10.826,10.826,0,0,0,2.485,0c0-.2-3.511-.493-9.033-1.755a87.219,87.219,0,0,1-9.566-2.781,82.835,82.835,0,0,1-21.439-11.44,86.391,86.391,0,0,1-7.633-6.39C96.037,243.945,93.868,241.2,93.71,241.322Z" transform="translate(135.575 76.742)" fill="#263238"/>
        <path id="Path_1330" data-name="Path 1330" d="M133.348,237.74a26.215,26.215,0,0,0-3.392,6.41,25.858,25.858,0,0,0-2.446,6.844,26.135,26.135,0,0,0,3.392-6.43,26.468,26.468,0,0,0,2.446-6.824Z" transform="translate(83.452 73.263)" fill="#263238"/>
        <path id="Path_1331" data-name="Path 1331" d="M104.444,395.914c.276,0,6.824-26.646,14.635-59.644s13.925-59.8,13.649-59.861-6.824,26.627-14.635,59.624S104.168,395.914,104.444,395.914Z" transform="translate(129.574 110.863)" fill="#455a64"/>
        <path id="Path_1332" data-name="Path 1332" d="M117.949,259.155a5.917,5.917,0,0,0,1.183,1.262,27.213,27.213,0,0,0,3.787,2.86,30.591,30.591,0,0,0,30.039,1.341,26.386,26.386,0,0,0,3.945-2.5c.888-.671,1.321-1.1,1.282-1.164a49.871,49.871,0,0,1-5.621,3.018,32.051,32.051,0,0,1-29.348-1.322C119.882,260.713,118.087,259,117.949,259.155Z" transform="translate(77.471 94.076)" fill="#455a64"/>
        <path id="Path_1333" data-name="Path 1333" d="M96.83,319.726a6.627,6.627,0,0,0,1.874-1.6,21.42,21.42,0,0,0,3.629-5.661,78.594,78.594,0,0,0,3.294-9.349l3.57-11.538c2.525-8.225,4.734-15.66,6.292-21.065.71-2.544,1.321-4.694,1.795-6.41a10.613,10.613,0,0,0,.513-2.406,12.23,12.23,0,0,0-.888,2.288c-.572,1.677-1.282,3.807-2.11,6.312-1.736,5.345-4.063,12.761-6.588,20.966-1.223,4.1-2.406,8.008-3.491,11.578a89.274,89.274,0,0,1-3.077,9.329A25.168,25.168,0,0,1,96.83,319.726Z" transform="translate(159.516 96.56)" fill="#455a64"/>
        <path id="Path_1334" data-name="Path 1334" d="M104.842,263.62c.118,0-.394-.966-1.815-.888a2.584,2.584,0,0,0-1.972,1.183,2.664,2.664,0,0,0,3.175,3.748,2.564,2.564,0,0,0,1.5-1.854,1.751,1.751,0,0,0-.592-1.972,3.274,3.274,0,0,1,0,1.736,2.13,2.13,0,0,1-1.144,1.164,1.637,1.637,0,0,1-1.716-.592,1.657,1.657,0,0,1-.316-1.795,1.972,1.972,0,0,1,1.341-.947C104.152,263.265,104.744,263.738,104.842,263.62Z" transform="translate(163.81 97.559)" fill="#455a64"/>
        <path id="Path_1335" data-name="Path 1335" d="M105.563,268.751a.894.894,0,0,0-.631-.355,2.229,2.229,0,0,0-1.874.651,2.387,2.387,0,0,0-.217,2.978,2.939,2.939,0,0,0,3.452,1.144,3.57,3.57,0,0,0,2.308-2.781,3.708,3.708,0,0,0-.572-2.86,1.972,1.972,0,0,0-1.755-.927c-.533,0-.651.395-.611.414a5.379,5.379,0,0,0,.611,0,1.854,1.854,0,0,1,1.164.947,3.1,3.1,0,0,1-1.479,4.24,1.972,1.972,0,0,1-2.327-.69,1.558,1.558,0,0,1,0-1.972,1.972,1.972,0,0,1,1.3-.75C105.366,268.751,105.563,268.83,105.563,268.751Z" transform="translate(157.607 101.324)" fill="#455a64"/>
        <path id="Path_1336" data-name="Path 1336" d="M85.892,266.15a10.453,10.453,0,0,0-1.164,4.043,23.373,23.373,0,0,0,.848,10.1,23.667,23.667,0,0,0,5.01,8.816,10.2,10.2,0,0,0,3.254,2.663c.118-.138-1.1-1.164-2.7-3.136A26.8,26.8,0,0,1,86.562,280a26.153,26.153,0,0,1-1.1-9.724C85.635,267.827,86.069,266.209,85.892,266.15Z" transform="translate(207.751 100.887)" fill="#455a64"/>
        <path id="Path_1337" data-name="Path 1337" d="M147.87,334.69a62.849,62.849,0,0,0,7.515,8.244,60.257,60.257,0,0,0,8.264,7.534,62.235,62.235,0,0,0-7.534-8.244A60.826,60.826,0,0,0,147.87,334.69Z" transform="translate(12.994 167.532)" fill="#455a64"/>
        <path id="Path_1338" data-name="Path 1338" d="M156.455,351.689a65.76,65.76,0,0,0-3.945-15.779,32.841,32.841,0,0,0,1.44,8.027,32.367,32.367,0,0,0,2.5,7.751Z" transform="translate(11.037 168.718)" fill="#455a64"/>
        <g id="Group_251" data-name="Group 251" transform="translate(226.07 293.311)" opacity="0.3">
          <path id="Path_1339" data-name="Path 1339" d="M152.608,237.863A20.769,20.769,0,0,1,142,250.919a30.453,30.453,0,0,1-16.923,2.978A40.394,40.394,0,0,1,91.84,228.77c8.8,6.114,18.52,11.834,29.053,14.378a42.07,42.07,0,0,0,32.031-4.674" transform="translate(-91.84 -228.77)"/>
        </g>
        <path id="Path_1340" data-name="Path 1340" d="M131.8,191.625l-6.548-5.917a2.446,2.446,0,0,0-1.972-.907c-.986.138-1.381,1.341-1.42,2.327a8.816,8.816,0,0,0,3.116,6.982" transform="translate(96.14 21.786)" fill="#ffbe9d"/>
        <path id="Path_1341" data-name="Path 1341" d="M125.6,194.3c.118-.118-.848-.927-1.7-2.643a8.995,8.995,0,0,1-.907-3.175,5.918,5.918,0,0,1,0-1.874c.138-.611.493-1.1.947-1.124a2.594,2.594,0,0,1,1.519.868L127,187.716l2.643,2.268a19.438,19.438,0,0,0,2.6,1.972,13.642,13.642,0,0,0-2.11-2.426l-2.5-2.426-1.5-1.42a3.2,3.2,0,0,0-2.268-1.144,1.834,1.834,0,0,0-1.322.73,3.333,3.333,0,0,0-.532,1.183,5.918,5.918,0,0,0,0,2.209,8.678,8.678,0,0,0,1.183,3.412C124.357,193.771,125.54,194.4,125.6,194.3Z" transform="translate(95.599 21.534)" fill="#eb996e"/>
        <path id="Path_1342" data-name="Path 1342" d="M145.9,195.723,175.126,236l-32.386,7-13.254-36.942-22.859,2.919L92.09,204.4l12.465-11.223,18.264-5.345a21.124,21.124,0,0,1,23.076,7.889Z" transform="translate(111.535 23.901)" fill="#ffbe9d"/>
        <path id="Path_1343" data-name="Path 1343" d="M92.07,193.327a3.335,3.335,0,0,0,.947-.2l2.643-.75c2.288-.671,5.6-1.657,9.724-2.781a66.617,66.617,0,0,1,6.765-1.519,26.153,26.153,0,0,1,7.889,0,18.106,18.106,0,0,1,7.889,3.215,27.614,27.614,0,0,1,6.213,6.9,274.827,274.827,0,0,0,19.29,27.258c2.7,3.314,4.97,5.917,6.588,7.712a15.248,15.248,0,0,0,1.972,1.972,3.787,3.787,0,0,0,.69.651,27.136,27.136,0,0,0-2.268-2.919c-1.5-1.854-3.688-4.536-6.311-7.889a325.764,325.764,0,0,1-19.013-27.376,28.067,28.067,0,0,0-6.469-7.14,19.034,19.034,0,0,0-8.363-3.333,26.606,26.606,0,0,0-8.126,0,57.628,57.628,0,0,0-6.824,1.676c-4.1,1.2-7.4,2.308-9.645,3.1l-2.584.927A5.721,5.721,0,0,0,92.07,193.327Z" transform="translate(124.02 23.753)" fill="#eb996e"/>
        <path id="Path_1344" data-name="Path 1344" d="M113.969,195.26a23.864,23.864,0,0,0,1.479,5.325,24.359,24.359,0,0,0,1.755,5.227,17.928,17.928,0,0,0-3.235-10.552Z" transform="translate(126.302 31.958)" fill="#eb996e"/>
        <path id="Path_1345" data-name="Path 1345" d="M115.163,198.859a44.436,44.436,0,0,0,12.5-.158c3.452-.375,6.489-1.164,8.619-.71a10.276,10.276,0,0,1,3.235,1.321c.138,0-.749-1.44-3.1-1.972s-5.523,0-8.876.394C120.745,198.406,115.183,198.484,115.163,198.859Z" transform="translate(101.617 33.763)" fill="#eb996e"/>
        <path id="Path_1346" data-name="Path 1346" d="M138.781,184.76a4.852,4.852,0,0,1,0,5.562c-1.972,2.781-3.531,2.959-3.531,2.959l.75,3.156-4.635,1.676-2.229-6.686Z" transform="translate(73.937 21.748)" fill="#ffbe9d"/>
        <path id="Path_1347" data-name="Path 1347" d="M139.2,184.76a14.572,14.572,0,0,0-2.722,1.578c-1.736,1.1-4.26,2.722-7.2,4.714l-.3.2.118.335,2.189,6.686.158.513.493-.177h0l4.615-1.677.434-.158-.118-.414c-.256-1.1-.513-2.15-.769-3.156l-.394.572a4.872,4.872,0,0,0,2.15-1.3,11.447,11.447,0,0,0,1.4-1.6,4.931,4.931,0,0,0,1.1-3.333,3.827,3.827,0,0,0-1.183-2.761,9.623,9.623,0,0,1,.611,2.781,4.438,4.438,0,0,1-1.144,2.84,11.573,11.573,0,0,1-1.361,1.44,4.339,4.339,0,0,1-1.7,1.006l-.493.118.1.454c.237,1.006.473,2.071.71,3.156l.316-.572-4.635,1.637h0l.651.316-2.248-6.667-.2.533c2.742-1.972,5.029-3.649,6.706-4.911A27.611,27.611,0,0,0,139.2,184.76Z" transform="translate(73.513 21.748)" fill="#eb996e"/>
        <path id="Path_1348" data-name="Path 1348" d="M140.862,199.43s-5.562,1.854-6.173,2.781,3.1,113.765,3.1,113.765l9.586-11.124Z" transform="translate(55.406 36.012)" fill="#263238"/>
        <path id="Path_1349" data-name="Path 1349" d="M127.794,196.61l32.9,101.694-39.684,9.29L114.5,202.172l5.878.927Z" transform="translate(81.768 33.27)" fill="#455a64"/>
        <path id="Path_1350" data-name="Path 1350" d="M116.2,259.715a17.751,17.751,0,0,0,2.209-2.584c1.321-1.677,3.175-4.122,5.385-7.061l-.256.178,12.5-2.308c6.785-1.282,12.9-2.5,17.337-3.432,2.209-.473,3.945-.868,5.227-1.164a7.025,7.025,0,0,0,1.972-.572,8.164,8.164,0,0,0-1.972.178c-1.243.178-3.057.454-5.286.828-4.458.769-10.611,1.874-17.4,3.156l-12.485,2.446h-.178l-.1.138c-2.13,3-3.945,5.5-5.108,7.278A15.562,15.562,0,0,0,116.2,259.715Z" transform="translate(78.53 78.152)" fill="#fafafa"/>
        <path id="Path_1351" data-name="Path 1351" d="M119.91,245.605a11.2,11.2,0,0,0,1.736-1.972c1.026-1.361,2.465-3.333,4.181-5.72l-.276.178,10.986-1.972c5.68-1.085,10.808-2.11,14.516-2.919a34.992,34.992,0,0,0,5.917-1.5,37.1,37.1,0,0,0-6.075.789c-3.747.611-8.9,1.538-14.576,2.6l-10.947,2.17H125.2l-.1.138c-1.637,2.446-2.978,4.477-3.945,5.917A10.414,10.414,0,0,0,119.91,245.605Z" transform="translate(74.82 67.39)" fill="#fafafa"/>
        <path id="Path_1352" data-name="Path 1352" d="M123.74,229.748a35.225,35.225,0,0,0,4.28-5.128l-.276.178c2.623-.434,5.917-1.026,9.369-1.676,4.379-.848,8.343-1.657,11.2-2.288a21.7,21.7,0,0,0,4.576-1.243,22.252,22.252,0,0,0-4.714.533c-2.9.454-6.883,1.144-11.262,1.972-3.491.651-6.726,1.3-9.309,1.854h-.178v.138A35.5,35.5,0,0,0,123.74,229.748Z" transform="translate(71.345 55.615)" fill="#fafafa"/>
        <path id="Path_1353" data-name="Path 1353" d="M127.11,216.143a20.491,20.491,0,0,0,3.156-3.629l-.256.158c2.091-.316,4.753-.789,7.653-1.341a76.113,76.113,0,0,0,12.248-2.84,78.9,78.9,0,0,0-12.426,1.834c-2.919.552-5.562,1.1-7.633,1.558h-.158V212a19.209,19.209,0,0,0-2.584,4.142Z" transform="translate(67.679 44.822)" fill="#fafafa"/>
        <path id="Path_1354" data-name="Path 1354" d="M114.5,257.46a203.318,203.318,0,0,0,19.96-4.142,202.743,202.743,0,0,0,19.723-5.148,201.712,201.712,0,0,0-19.98,4.142,199.47,199.47,0,0,0-19.7,5.148Z" transform="translate(88.277 83.404)" fill="#263238"/>
        <path id="Path_1355" data-name="Path 1355" d="M151.8,262l11.972-13.826-39.684,9.29L114.5,268.584Z" transform="translate(78.691 83.404)" fill="#455a64"/>
        <path id="Path_1356" data-name="Path 1356" d="M138.7,310.142l40.492,5.562V199.71l-4.635,2.229Z" transform="translate(15.537 36.285)" fill="#ff725e"/>
        <g id="Group_252" data-name="Group 252" transform="translate(154.237 235.995)" opacity="0.4">
          <path id="Path_1357" data-name="Path 1357" d="M138.7,310.142l40.492,5.562V199.71l-4.635,2.229Z" transform="translate(-138.7 -199.71)" fill="#e61030"/>
        </g>
        <path id="Path_1358" data-name="Path 1358" d="M138.745,238.39a22.257,22.257,0,0,0,2.485.73,26.588,26.588,0,0,1,6.371,2.84,17.2,17.2,0,0,1,6.745,7.534,13.55,13.55,0,0,1-.138,11.952,5.128,5.128,0,0,1-2.17,2.091,1.972,1.972,0,0,1-2.367-.493,3.827,3.827,0,0,1-.552-2.663,8.028,8.028,0,0,1,.927-2.682,9.408,9.408,0,0,1,8.244-4.872,8.481,8.481,0,0,1,5.917,2.86c1.124,1.2,1.538,1.972,1.617,1.972s0-.217-.237-.631a9.861,9.861,0,0,0-1.085-1.637,8.679,8.679,0,0,0-6.292-3.314,10.138,10.138,0,0,0-9.092,5.148,6.055,6.055,0,0,0-.335,6.41,2.939,2.939,0,0,0,3.57.828A6.054,6.054,0,0,0,155,261.94a14.339,14.339,0,0,0,.118-12.86,17.751,17.751,0,0,0-7.238-7.751,22.859,22.859,0,0,0-6.667-2.6A8.461,8.461,0,0,0,138.745,238.39Z" transform="translate(28.786 73.894)" fill="#fafafa"/>
        <path id="Path_1359" data-name="Path 1359" d="M138.607,230.194a6.331,6.331,0,0,0,2.584,1.854A15.68,15.68,0,0,0,156,231.2c1.657-1.085,2.426-1.972,2.347-2.13a22.084,22.084,0,0,0-2.7,1.5,18.342,18.342,0,0,1-7,1.972,18.046,18.046,0,0,1-7.16-1.085A23.371,23.371,0,0,0,138.607,230.194Z" transform="translate(36.557 64.833)" fill="#fafafa"/>
        <path id="Path_1360" data-name="Path 1360" d="M140.888,215.384a23.038,23.038,0,0,1,2.6,3.945,10.887,10.887,0,0,1,1.026,4.872,2.939,2.939,0,0,1-1.144,2.268,2.347,2.347,0,0,1-2.564-.158,2.465,2.465,0,0,1-1.065-2.406,3.629,3.629,0,0,1,1.2-2.387,5.464,5.464,0,0,1,4.576-.986,10.512,10.512,0,0,1,3.175,1.282c.71.414,1.1.651,1.164.592s-.276-.394-.947-.927a9.053,9.053,0,0,0-3.215-1.657,6.075,6.075,0,0,0-5.365.986,4.6,4.6,0,0,0-1.6,3,3.511,3.511,0,0,0,1.479,3.353,3.353,3.353,0,0,0,3.708.158,3.767,3.767,0,0,0,1.5-3.077,10.572,10.572,0,0,0-1.3-5.246,10.947,10.947,0,0,0-2.17-2.9C141.4,215.562,140.927,215.325,140.888,215.384Z" transform="translate(44.848 51.517)" fill="#fafafa"/>
        <path id="Path_1361" data-name="Path 1361" d="M138.7,287.535l36.173,20.394,40.492-102.01-12.051-6.489Z" transform="translate(-20.635 36.012)" fill="#e61030"/>
        <path id="Path_1362" data-name="Path 1362" d="M144.81,280.691l7.1,9.586,64.614-88.1-8.2-5.562Z" transform="translate(-33.846 33.27)" fill="#ff725e"/>
        <path id="Path_1363" data-name="Path 1363" d="M166,208.567a1.716,1.716,0,0,0-.533-.493,4.735,4.735,0,0,0-1.972-.71,10.907,10.907,0,0,0-7.2,1.716,16.173,16.173,0,0,0-6.726,8.659,13.669,13.669,0,0,0-.73,6.568,7.594,7.594,0,0,0,4.142,5.759,9.546,9.546,0,0,0,7.12.493,12.88,12.88,0,0,0,5.463-3.728,16.251,16.251,0,0,0,4.083-10.2,10.769,10.769,0,0,0-2.426-6.982,7.891,7.891,0,0,0-1.479-1.381c-.394-.256-.611-.375-.631-.335a21.887,21.887,0,0,1,1.795,1.972,10.808,10.808,0,0,1,1.972,6.726,15.779,15.779,0,0,1-4.063,9.586,11.657,11.657,0,0,1-5.069,3.392,8.442,8.442,0,0,1-6.331-.454,6.548,6.548,0,0,1-3.629-5.01,13.2,13.2,0,0,1,.631-6.095,15.917,15.917,0,0,1,6.233-8.343,11.005,11.005,0,0,1,6.745-1.972,6.862,6.862,0,0,1,2.6.828Z" transform="translate(5.317 43.66)" fill="#fafafa"/>
        <path id="Path_1364" data-name="Path 1364" d="M170.134,247.042a3.541,3.541,0,0,0,.848,1.282,7.652,7.652,0,0,0,3.609,1.972,9.467,9.467,0,0,0,6.154-.513,13.549,13.549,0,0,0,5.72-4.911,16.193,16.193,0,0,0,2.761-7,11.578,11.578,0,0,0-.809-6.114,9.11,9.11,0,0,0-2.426-3.353c-.75-.651-1.243-.868-1.282-.809a13,13,0,0,1,3.037,4.438,11.242,11.242,0,0,1,.552,5.7,16.114,16.114,0,0,1-2.643,6.647,12.978,12.978,0,0,1-5.266,4.615,8.935,8.935,0,0,1-5.6.671A9.428,9.428,0,0,1,170.134,247.042Z" transform="translate(-56.606 63.389)" fill="#fafafa"/>
        <path id="Path_1365" data-name="Path 1365" d="M169.537,231.433a2.14,2.14,0,0,0-.513-.493,4.694,4.694,0,0,0-1.972-.73,11.065,11.065,0,0,0-7.2,1.736,16.213,16.213,0,0,0-6.726,8.639,13.806,13.806,0,0,0-.73,6.568,7.633,7.633,0,0,0,4.142,5.779,9.526,9.526,0,0,0,7.12.473,12.7,12.7,0,0,0,5.463-3.728,16.153,16.153,0,0,0,4.083-10.177,10.868,10.868,0,0,0-2.426-7,7.689,7.689,0,0,0-1.479-1.361c-.394-.276-.611-.375-.631-.355a24.662,24.662,0,0,1,1.795,1.972,10.729,10.729,0,0,1,1.972,6.726,15.779,15.779,0,0,1-4.063,9.566,11.676,11.676,0,0,1-5.069,3.412,8.521,8.521,0,0,1-6.331-.454,6.607,6.607,0,0,1-3.629-5.01,13.155,13.155,0,0,1,.631-6.095,15.778,15.778,0,0,1,6.233-8.343,11.183,11.183,0,0,1,6.745-1.972,6.844,6.844,0,0,1,2.584.848Z" transform="translate(-5.261 65.882)" fill="#fafafa"/>
        <g id="Group_253" data-name="Group 253" transform="translate(110.964 229.88)" opacity="0.2">
          <path id="Path_1366" data-name="Path 1366" d="M144.81,280.691l7.1,9.586,64.614-88.1-8.2-5.562Z" transform="translate(-144.81 -196.61)" fill="#e61030"/>
        </g>
        <path id="Path_1367" data-name="Path 1367" d="M159.952,190.482a3.806,3.806,0,0,0-3.787-.769,11.439,11.439,0,0,0-3.491,1.972L129.4,209.042l5.7,3.254A25.64,25.64,0,0,1,148,200.462" transform="translate(53.121 26.361)" fill="#455a64"/>
        <path id="Path_1368" data-name="Path 1368" d="M133.713,210.651a19.723,19.723,0,0,1,6.943-12.544,34,34,0,0,0,6.43-5.384,2.564,2.564,0,0,0,.572-2.5,1.972,1.972,0,0,0-1.972-.927,5.66,5.66,0,0,0-2.189.927,47.692,47.692,0,0,0-11.1,8.146,16.291,16.291,0,0,0-4.793,12.5" transform="translate(68.906 26.133)" fill="#263238"/>
        <path id="Path_1369" data-name="Path 1369" d="M141.932,135.809c8.639,2.248,19.566,11.144,15.5,23.944-10.611-2.6-20.2-10.276-28.816-17-1.834,9.862-3.077,14.733-8.047,23.846-1.972,3.491-18.067,17.633-20.355,18.737s-3.491-9.645-1.361-13.806C98.856,171.587,108.974,127.269,141.932,135.809Z" transform="translate(117.195 -26.912)" fill="#263238"/>
        <path id="Path_1370" data-name="Path 1370" d="M153.612,137.334a47.336,47.336,0,0,0-28.619,15.483,67.494,67.494,0,0,0-13.412,32.031c-9.487-11.972-5.917-33.747,3.945-43.392s26.114-10.71,38.125-4.142" transform="translate(105.515 -28.437)" fill="#e61030"/>
        <path id="Path_1371" data-name="Path 1371" d="M118.04,158.536a3.254,3.254,0,0,0-.473,1.045,6.291,6.291,0,0,0,0,3.274,8.619,8.619,0,0,0,2.82,4.359,15.778,15.778,0,0,0,6.213,2.939,58.007,58.007,0,0,0,8.166,1.4,30.374,30.374,0,0,0,9.546-.454,19.723,19.723,0,0,0,9.388-4.872,23.135,23.135,0,0,0,5.483-9.862,93.534,93.534,0,0,1,3.511-10.572A18.836,18.836,0,0,1,169.045,138a29.112,29.112,0,0,1,16.43-4.911,80.014,80.014,0,0,1,11.834.868l3.215.434a4.832,4.832,0,0,0,1.124,0,4.5,4.5,0,0,0-1.085-.3l-3.2-.611a66.523,66.523,0,0,0-11.834-1.2,29.7,29.7,0,0,0-16.982,4.852,19.605,19.605,0,0,0-6.706,8.166,87.985,87.985,0,0,0-3.59,10.67,22.426,22.426,0,0,1-5.207,9.526,18.777,18.777,0,0,1-8.9,4.655,40.531,40.531,0,0,1-17.317-.73,15.326,15.326,0,0,1-6.035-2.663,8.3,8.3,0,0,1-2.781-4.043,6.923,6.923,0,0,1,.02-4.181Z" transform="translate(35.191 -29.285)" fill="#263238"/>
        <path id="Path_1372" data-name="Path 1372" d="M151.478,154.128a31.952,31.952,0,0,1-5.4,19.151c-3.945,5.424-11.085,8.915-17.652,7.357l5.187-5.68a12.288,12.288,0,0,1-12.682-.769,46,46,0,0,0,28.855-22.347" transform="translate(78.281 -10.262)" fill="#263238"/>
        <path id="Path_1373" data-name="Path 1373" d="M131.7,142.16a18.027,18.027,0,0,0-2.584,4.221,51.123,51.123,0,0,0-4.083,11.223,51.7,51.7,0,0,0-1.44,11.834,17.871,17.871,0,0,0,.394,4.931,103.69,103.69,0,0,1,1.972-16.568,107.024,107.024,0,0,1,5.74-15.641Z" transform="translate(92.893 -19.674)" fill="#263238"/>
        <path id="Path_1374" data-name="Path 1374" d="M129.188,144.1a14.338,14.338,0,0,0-.907,4.122,67.669,67.669,0,0,0-.69,10.177,69.072,69.072,0,0,0,.751,10.17,15.6,15.6,0,0,0,.925,4.11c.316,0-.651-6.41-.651-14.3S129.5,144.139,129.188,144.1Z" transform="translate(87.317 -17.788)" fill="#263238"/>
        <path id="Path_1375" data-name="Path 1375" d="M119.33,139.3a14.081,14.081,0,0,0,2.229.513c1.381.276,3.274.71,5.325,1.321s3.945,1.262,5.187,1.775a15.5,15.5,0,0,0,2.15.789,9.743,9.743,0,0,0-1.972-1.065,43.119,43.119,0,0,0-5.187-1.972,42.647,42.647,0,0,0-5.385-1.223,13.412,13.412,0,0,0-2.347-.138Z" transform="translate(98.713 -22.458)" fill="#fafafa"/>
        <path id="Path_1376" data-name="Path 1376" d="M113.29,134.736a25.1,25.1,0,0,0,2.485.454,41.3,41.3,0,0,1,5.917,1.558,42.446,42.446,0,0,1,5.582,2.387,20.021,20.021,0,0,0,2.248,1.164,3.788,3.788,0,0,0-.533-.414c-.355-.237-.907-.611-1.578-1.006a33.2,33.2,0,0,0-5.582-2.525,31.914,31.914,0,0,0-5.917-1.44,17.606,17.606,0,0,0-1.854-.2C113.527,134.7,113.29,134.7,113.29,134.736Z" transform="translate(115.324 -26.924)" fill="#fafafa"/>
        <path id="Path_1377" data-name="Path 1377" d="M107.39,133.27c0,.118,2.288.888,5.108,1.972a38.227,38.227,0,0,1,3.531,1.6,9.29,9.29,0,0,0,1.44.73,14.042,14.042,0,0,0-4.813-2.7c-1.42-.572-2.742-1.006-3.688-1.3A5.916,5.916,0,0,0,107.39,133.27Z" transform="translate(139.015 -28.318)" fill="#fafafa"/>
        <path id="Path_1378" data-name="Path 1378" d="M123.37,147.219a4.537,4.537,0,0,0,2.091.572,4.891,4.891,0,0,0,2.17-.1,8.62,8.62,0,0,0-2.13-.316,7.454,7.454,0,0,0-2.13-.158Z" transform="translate(97.335 -14.772)" fill="#fafafa"/>
        <path id="Path_1379" data-name="Path 1379" d="M126.49,148.98a2.82,2.82,0,0,0,1.4.237c.789,0,1.42,0,1.42-.158s-.631-.217-1.4-.237S126.51,148.861,126.49,148.98Z" transform="translate(89.501 -13.2)" fill="#fafafa"/>
        <path id="Path_1380" data-name="Path 1380" d="M128.11,147.108a4.3,4.3,0,0,0,1.775,0,4.123,4.123,0,0,0,1.716-.375,3.649,3.649,0,0,0-1.755,0A3.944,3.944,0,0,0,128.11,147.108Z" transform="translate(84.016 -15.332)" fill="#fafafa"/>
        <g id="Group_254" data-name="Group 254" transform="translate(212.687 128.355)" opacity="0.3">
          <path id="Path_1381" data-name="Path 1381" d="M129.684,172.481a63.115,63.115,0,0,1,3.531-23.668,3.412,3.412,0,0,0,.138-2.959,2.288,2.288,0,0,0-3.511.217,6.489,6.489,0,0,0-1.026,3.945,2.6,2.6,0,0,0-1.262-2.189,25.187,25.187,0,0,0,1.972,23.806" transform="translate(-125.452 -145.136)"/>
        </g>
        <rect id="Rectangle_253" data-name="Rectangle 253" width="59.644" height="29.092" rx="2.24" transform="matrix(-0.883, -0.469, 0.469, -0.883, 348.763, 53.681)" fill="#263238"/>
        <path id="Path_1382" data-name="Path 1382" d="M55.861,101.116l1.834-3.471a.986.986,0,0,1,1.341-.375l.631.335a.986.986,0,0,0,1.321-.375l3.669-6.765a.986.986,0,0,0-.434-1.321l-.631-.335a.986.986,0,0,1-.434-1.3l.572-1.2,1.617-3.037a3.116,3.116,0,0,1,4.181-1.282l43.786,23.274a3.077,3.077,0,0,1,1.282,4.181l-9.487,17.869a3.077,3.077,0,0,1-4.181,1.282L57.143,105.3a3.077,3.077,0,0,1-1.282-4.181Z" transform="translate(243.876 -78.529)" fill="#fafafa"/>
        <path id="Path_1383" data-name="Path 1383" d="M83.166,93.348a.158.158,0,0,0,.2,0,.178.178,0,0,0,0-.2.139.139,0,1,0-.2.2Z" transform="translate(220.949 -67.368)" fill="#263238"/>
        <path id="Path_1384" data-name="Path 1384" d="M82.924,93.464a.138.138,0,0,0,.2,0,.139.139,0,1,0-.2-.2.138.138,0,0,0,0,.2Z" transform="translate(221.665 -67.248)" fill="#263238"/>
        <path id="Path_1385" data-name="Path 1385" d="M82.694,93.6a.158.158,0,0,0,.2,0,.139.139,0,1,0-.2-.2.158.158,0,0,0,0,.2Z" transform="translate(222.329 -67.125)" fill="#263238"/>
        <path id="Path_1386" data-name="Path 1386" d="M80.693,92.088V91.91H80.2l.3.394v-.1Zm0,0-.118-.138h.138Z" transform="translate(229.399 -68.534)" fill="#263238"/>
        <path id="Path_1387" data-name="Path 1387" d="M80.262,92v.177a.256.256,0,0,0,0,.335.237.237,0,0,0,.316-.118l.1-.178Zm.217.355a.118.118,0,0,1-.178,0,.138.138,0,0,1,0-.2h0l.256.138Z" transform="translate(229.435 -68.447)" fill="#263238"/>
        <path id="Path_1388" data-name="Path 1388" d="M80.458,92.27v.178a.217.217,0,0,0,0,.316.2.2,0,0,0,.3-.118v-.178Zm.237.335a.138.138,0,0,1-.2,0,.1.1,0,0,1,0-.177h0l.237.138Z" transform="translate(228.983 -68.184)" fill="#263238"/>
        <path id="Path_1389" data-name="Path 1389" d="M80.954,93.094l-.237-.138h.256l-.138-.217.237.118h0L80.7,92.64h0l.158.276H80.54l.375.217Z" transform="translate(228.369 -67.824)" fill="#263238"/>
        <path id="Path_1390" data-name="Path 1390" d="M81.052,92.9a.275.275,0,0,0-.316.434.271.271,0,1,0,.316-.434Zm-.2.335a.158.158,0,0,1,0-.177.146.146,0,1,1,.256.138.158.158,0,0,1-.256.039Z" transform="translate(227.995 -67.596)" fill="#263238"/>
        <path id="Path_1391" data-name="Path 1391" d="M81.12,93.485v-.118h.118l-.394-.217v.178a.148.148,0,0,0,.178.237v.158Zm-.276-.256h.138s-.158.059-.158,0Z" transform="translate(227.71 -67.328)" fill="#263238"/>
        <path id="Path_1392" data-name="Path 1392" d="M81.314,93.793h0l.158-.3-.394-.217-.158.3h0v-.217h0v.178h0v-.178h0Z" transform="translate(227.219 -67.202)" fill="#263238"/>
        <path id="Path_1393" data-name="Path 1393" d="M81.09,93.729v-.1h0Z" transform="translate(227.168 -66.862)" fill="#263238"/>
        <path id="Path_1394" data-name="Path 1394" d="M78.374,83.6a.552.552,0,0,0-.769.69h.2a.316.316,0,0,1,0-.3.3.3,0,0,1,.434-.118.316.316,0,0,1,.138.434.394.394,0,0,1-.237.158v.2a.493.493,0,0,0,.355-.276.533.533,0,0,0-.118-.789Z" transform="translate(236.689 -76.674)" fill="#263238"/>
        <path id="Path_1395" data-name="Path 1395" d="M77.868,84.749l.394.217.1-.177h0a.276.276,0,0,0,.217-.158.237.237,0,0,0,0-.355.341.341,0,0,0-.355.177v-.079a.591.591,0,0,1,.158-.158L78.066,84a.552.552,0,0,0-.237.237C77.632,84.473,77.671,84.651,77.868,84.749Zm.3,0h0v-.138H78.3a.1.1,0,0,1,0,.158.138.138,0,0,1-.237-.118Z" transform="translate(236.385 -76.225)" fill="#263238"/>
        <path id="Path_1396" data-name="Path 1396" d="M78.034,84.795h.178a.217.217,0,0,1,.3,0l.316.177v-.2l-.671-.355-.118.178h0a.217.217,0,0,0,0,.2Z" transform="translate(235.608 -75.817)" fill="#263238"/>
        <path id="Path_1397" data-name="Path 1397" d="M78.152,85.211l.947.513v-.2h0a.316.316,0,0,0,.2-.158.375.375,0,0,0-.158-.533.414.414,0,0,0-.552.138.394.394,0,0,0,0,.256l-.335-.178Zm.71,0c-.118,0-.158-.178,0-.276a.2.2,0,1,1,0,.276Z" transform="translate(234.799 -75.464)" fill="#263238"/>
        <path id="Path_1398" data-name="Path 1398" d="M79.036,85.365h-.178a.434.434,0,0,1,0,.276c0,.1,0,.118-.118.1s.217-.414,0-.552-.276,0-.394.2a.73.73,0,0,0,0,.3h.178a.4.4,0,0,1,0-.217.1.1,0,0,1,.138-.1c.039.02-.237.414,0,.572s.276,0,.394-.217A.592.592,0,0,0,79.036,85.365Z" transform="translate(234.724 -75.125)" fill="#263238"/>
        <path id="Path_1399" data-name="Path 1399" d="M65.354,95.557l.118-.237H65.3l-.355.671h.177l.118-.237.552.316.118-.217Z" transform="translate(274.303 -65.218)" fill="#263238"/>
        <path id="Path_1400" data-name="Path 1400" d="M65.807,95.757a.434.434,0,0,0-.611.217.454.454,0,0,0,.158.631.473.473,0,0,0,.631-.217.454.454,0,0,0-.178-.631Zm-.335.631a.256.256,0,0,1,0-.335.217.217,0,0,1,.316,0,.237.237,0,0,1,.118.316.256.256,0,0,1-.434.02Z" transform="translate(273.791 -64.846)" fill="#263238"/>
        <path id="Path_1401" data-name="Path 1401" d="M65.824,96.347l.118-.237h-.158l-.375.671h.177l.118-.237.592.316v-.217Z" transform="translate(272.985 -64.45)" fill="#263238"/>
        <path id="Path_1402" data-name="Path 1402" d="M66.032,97.113l.177-.316h.177l.118-.217h-.927l-.118.217.572.611.118-.217Zm-.118-.138-.2-.237h.3Z" transform="translate(272.679 -63.993)" fill="#263238"/>
        <path id="Path_1403" data-name="Path 1403" d="M65.838,96.86l-.118.217.592.3-.2.375h.178l.3-.572Z" transform="translate(272.083 -63.721)" fill="#263238"/>
        <path id="Path_1404" data-name="Path 1404" d="M64.418,96.039l.237.118h0l-.217-.118a.927.927,0,0,0,0-.592h-.02a.809.809,0,0,1,0,.513l-.533-.276c0-.256.118-.513-.138-.671a.454.454,0,0,0-.631.256l-.237-.138h0l.237.138a.789.789,0,0,0-.1.473h.02a1.006,1.006,0,0,1,0-.434l.533.3c0,.256-.118.533.138.671A.494.494,0,0,0,64.418,96.039Zm-.749-.533-.513-.276c.138-.2.3-.237.414-.158a.4.4,0,0,1,.118.434Zm.2.651c-.158,0-.138-.256,0-.454l.493.256c-.2.217-.355.256-.473.2Z" transform="translate(279.618 -65.563)" fill="#263238"/>
        <path id="Path_1405" data-name="Path 1405" d="M63.43,96.134l1.42.749v-.138l-1.3-.69.2-.335h-.138Z" transform="translate(278.338 -64.83)" fill="#263238"/>
        <path id="Path_1406" data-name="Path 1406" d="M64.433,97.691c.256.138.513,0,.71-.335s.138-.631-.118-.769a.394.394,0,0,0-.493,0,.375.375,0,0,0-.2-.394c-.237-.118-.473,0-.651.3s-.118.572.118.69a.355.355,0,0,0,.434,0A.394.394,0,0,0,64.433,97.691Zm0-.158c-.177,0-.2-.3,0-.552s.335-.335.513-.237.2.3,0,.552S64.65,97.632,64.433,97.534Zm-.177-.611c-.118.217-.3.3-.454.217s-.178-.276,0-.493.276-.3.434-.217.2.276.059.493Z" transform="translate(277.63 -64.414)" fill="#263238"/>
        <path id="Path_1407" data-name="Path 1407" d="M65.048,97.072c-.434-.256-.848-.158-1.006.178a.733.733,0,0,0,.414.947.707.707,0,0,0,1.026-.177A.661.661,0,0,0,65.048,97.072Zm-.513.986c-.394-.217-.493-.493-.375-.749s.434-.3.809,0,.513.493.375.73-.434.118-.809-.079Z" transform="translate(276.542 -63.656)" fill="#263238"/>
        <path id="Path_1408" data-name="Path 1408" d="M64.149,97.973h.138v-.138a.118.118,0,0,0-.158,0,.1.1,0,0,0,.02.138Z" transform="translate(277.224 -62.802)" fill="#263238"/>
        <path id="Path_1409" data-name="Path 1409" d="M65.331,99.287h.138L66,98.321h-.1L65,98.6a.572.572,0,0,1-.454,0c-.158,0-.2-.256,0-.473a.572.572,0,0,1,.375-.316V97.67a.71.71,0,0,0-.473.394c-.158.276-.118.552.138.671a.592.592,0,0,0,.552,0l.749-.217Z" transform="translate(275.372 -62.933)" fill="#263238"/>
        <path id="Path_1410" data-name="Path 1410" d="M65.851,98.485c-.454-.237-.848-.138-1.026.177s0,.71.414.966a.707.707,0,0,0,1.026-.177C66.443,99.135,66.245,98.741,65.851,98.485Zm-.533.986c-.375-.2-.493-.493-.355-.73s.434-.316.809,0,.493.473.375.73-.493.158-.888,0Z" transform="translate(274.24 -62.269)" fill="#263238"/>
        <rect id="Rectangle_254" data-name="Rectangle 254" width="20.611" height="5.404" rx="1.26" transform="translate(353.683 29.167) rotate(118.26)" fill="#ff725e"/>
        <g id="Group_255" data-name="Group 255" transform="translate(339.164 26.608)" opacity="0.3">
          <rect id="Rectangle_255" data-name="Rectangle 255" width="20.611" height="5.404" rx="1.26" transform="translate(14.519 2.559) rotate(118.26)"/>
        </g>
        <rect id="Rectangle_256" data-name="Rectangle 256" width="20.611" height="5.404" rx="1.26" transform="translate(354.044 28.461) rotate(118.26)" fill="#e83225"/>
        <path id="Path_1411" data-name="Path 1411" d="M61.271,98.654a.473.473,0,0,0,.651-.276l.138-.276.335.2v-.177l-1.124-.592-.237.434A.6.6,0,0,0,61.271,98.654Zm0-.178c-.158,0-.2-.237,0-.434l.138-.276.513.276-.138.256c-.118.158-.276.276-.434.158Z" transform="translate(285.566 -63.07)" fill="#fff"/>
        <path id="Path_1412" data-name="Path 1412" d="M61.99,99.04l.335-.592h.335V98.29h-1.4v.158l.868,1.124v-.177Zm0-.118-.414-.533h.69Z" transform="translate(284.807 -62.331)" fill="#fff"/>
        <path id="Path_1413" data-name="Path 1413" d="M62.646,99.556l.394.217v-.158l-.375-.217-.493-.848-.1.178.394.69H61.68v.158Z" transform="translate(283.599 -62.078)" fill="#fff"/>
        <path id="Path_1414" data-name="Path 1414" d="M72.666,101.347l-.178.237a1.1,1.1,0,0,1-.73.335,1.006,1.006,0,0,1-.572,0l-.631-.355-1.538-.828-1.854-1.006-.493-.276a1.4,1.4,0,0,1-.454-.375,1.085,1.085,0,0,1,0-1.144c.809-1.519,1.716-3.156,2.643-4.891a1.124,1.124,0,0,1,1.2-.552,1.1,1.1,0,0,1,.316.138l.316.158.611.335L73.672,94.4l1.1.592a1.341,1.341,0,0,1,.454.355,1.3,1.3,0,0,1,.217.513,1.242,1.242,0,0,1,0,.533c0,.158-.158.316-.237.473l-.493.888c-.592,1.144-1.085,1.972-1.44,2.7l-.394.73v.2h0v-.177l.414-.73,1.46-2.682.493-.888a3.787,3.787,0,0,0,.237-.493.947.947,0,0,0,0-.572,1.065,1.065,0,0,0-.217-.533,1.144,1.144,0,0,0-.493-.375l-1.085-.611-2.367-1.262-.611-.335L70.4,92.55a1.006,1.006,0,0,0-.335-.138,1.223,1.223,0,0,0-1.3.592c-.927,1.736-1.815,3.373-2.643,4.891a1.183,1.183,0,0,0,0,1.223,1.3,1.3,0,0,0,.473.394l.513.276,1.854,1.006,1.538.809a6.649,6.649,0,0,0,.631.335.946.946,0,0,0,.592.118,1.1,1.1,0,0,0,.73-.355A1.026,1.026,0,0,0,72.666,101.347Z" transform="translate(262.692 -68.069)" fill="#ff725e"/>
        <path id="Path_1415" data-name="Path 1415" d="M68.349,97.828h0V97.69l.394-.533.907-1.637h0l-.256-.178L67.54,93.982h0l.237-.454V93.41h0v.118l-.237.434h0l1.834,1.361.237.2h0c-.355.651-.671,1.223-.888,1.657l-.276.493v.138Z" transform="translate(265.431 -67.076)" fill="#ff725e"/>
        <path id="Path_1416" data-name="Path 1416" d="M70.67,94.757h0v.118l-.276.493-.927,1.716h0l-1.026-.335a2.82,2.82,0,0,0-.533-.178h0L68.993,94.6l.335-.592V93.83h0l-.1.158-.335.611-1.1,1.972h0l.533.177,1.006.355h0l.927-1.657.276-.493v-.138h0Z" transform="translate(263.919 -66.667)" fill="#ff725e"/>
        <path id="Path_1417" data-name="Path 1417" d="M67.293,95.169h0a.3.3,0,0,1,0-.158.217.217,0,0,1,0-.217.276.276,0,0,1,.276,0,.256.256,0,0,1,.138.256.3.3,0,0,1-.138.2h-.237a.3.3,0,0,0,.177,0,.217.217,0,0,0,.158-.217.256.256,0,0,0-.138-.276.276.276,0,0,0-.316,0,.3.3,0,0,0,0,.237.237.237,0,0,0,0,.158Z" transform="translate(268.065 -65.817)" fill="#ff725e"/>
        <path id="Path_1418" data-name="Path 1418" d="M67.67,95.931h0a.573.573,0,0,1,0-.158.276.276,0,0,1,0-.217.259.259,0,0,1,.394.256.256.256,0,0,1-.138.2h-.158a.177.177,0,0,0,.177,0,.276.276,0,0,0,0-.493.256.256,0,0,0-.316,0,.237.237,0,0,0,0,.256.237.237,0,0,0,0,.158Z" transform="translate(266.879 -65.08)" fill="#ff725e"/>
        <path id="Path_1419" data-name="Path 1419" d="M69.324,96.154a.75.75,0,1,0-.3-1.026A.769.769,0,0,0,69.324,96.154Z" transform="translate(261.892 -65.777)" fill="#ff725e"/>
        <path id="Path_1420" data-name="Path 1420" d="M69.21,95.139l.513.256v-.118l-.414-.217h0Z" transform="translate(262.065 -65.471)" fill="#fff"/>
        <rect id="Rectangle_257" data-name="Rectangle 257" width="21.558" height="13.688" rx="1.6" transform="translate(331.991 16.08) rotate(118.26)" fill="#e83225"/>
        <path id="Path_1421" data-name="Path 1421" d="M74.807,87.834a.4.4,0,0,0,.434-.237l.256-.454-.888-.473-.237.434c-.118.217,0,.375,0,.454a.237.237,0,0,0,.256,0,.256.256,0,0,0,.178.276Zm-.158-.888.217.118-.118.2s-.118.138-.2,0,0,0,0-.2Zm.256.671V87.38l.118-.237.217.118-.118.237C75.043,87.617,74.984,87.656,74.905,87.617Z" transform="translate(246.212 -73.629)" fill="#fff"/>
        <path id="Path_1422" data-name="Path 1422" d="M75.261,87.961l.217-.414h.237V87.33h-1.1v.2l.671.888L75.4,88.2Zm-.138-.158-.256-.316h.414Z" transform="translate(245.423 -72.987)" fill="#fff"/>
        <path id="Path_1423" data-name="Path 1423" d="M74.9,88.478l.888.473v-.178l-.3-.73.533.3.118-.2-.907-.493v.177l.3.73-.533-.3Z" transform="translate(244.422 -72.676)" fill="#fff"/>
        <path id="Path_1424" data-name="Path 1424" d="M75.84,88.772h.2l.217.118.118-.2-.907-.493v.217l.414.217-.631.177-.118.217.592-.138.276.651.138-.237Z" transform="translate(243.739 -72.142)" fill="#fff"/>
        <path id="Path_1425" data-name="Path 1425" d="M73.123,88.433v-.158l.217.118h-.217l.256-.473h0l-.769.138v.1l.749-.138-.178.355-.2-.1h.177v.158Z" transform="translate(251.703 -72.414)" fill="#fff"/>
        <path id="Path_1426" data-name="Path 1426" d="M73.126,88.888a.353.353,0,0,0,.414-.513h0a.473.473,0,0,1,0,.316.217.217,0,0,1-.276.118.24.24,0,0,1,0-.316h-.414l.118-.434h0l-.276.533h.414C72.968,88.691,72.968,88.829,73.126,88.888Z" transform="translate(251.345 -72.278)" fill="#fff"/>
        <path id="Path_1427" data-name="Path 1427" d="M73.424,89.209a.353.353,0,0,0,.414-.513h0a.414.414,0,0,1,0,.3q-.118.217-.3.118a.324.324,0,0,1,0-.355v-.178l-.434-.177-.237.454h0l.2-.375h.276V88.6C73.227,88.992,73.286,89.149,73.424,89.209Z" transform="translate(250.691 -71.947)" fill="#fff"/>
        <path id="Path_1428" data-name="Path 1428" d="M73.551,89.566a.276.276,0,0,0,.394-.138c.118-.217,0-.414-.217-.552a.414.414,0,0,0-.631.138.512.512,0,0,0,0,.217h0a.2.2,0,0,1,0-.177.335.335,0,0,1,.493-.118h0a.335.335,0,0,0-.276.177.3.3,0,0,0,.237.454Zm0,0a.2.2,0,0,1,0-.3c0-.138.2-.178.3-.118s.138.158,0,.316a.2.2,0,0,1-.237.02Z" transform="translate(250.17 -71.574)" fill="#fff"/>
        <path id="Path_1429" data-name="Path 1429" d="M74.221,90.49l-.138-.335h-.1l-.178-.375h0l.138.316-.394.118h.414l.2.414Z" transform="translate(248.79 -70.605)" fill="#fff"/>
        <path id="Path_1430" data-name="Path 1430" d="M74.351,90.868l-.138-.335h.355v-.1h-.454l-.177-.394h0l.138.316h.059l.2.414Z" transform="translate(248.324 -70.352)" fill="#fff"/>
        <path id="Path_1431" data-name="Path 1431" d="M74.521,91.14l-.138-.335h-.1l-.178-.394h0l.138.316H73.89v.1H74.3l.2.414Z" transform="translate(247.819 -69.993)" fill="#fff"/>
        <path id="Path_1432" data-name="Path 1432" d="M74.671,91.44l-.138-.335h-.1l-.177-.375h0l.158.316h.059l.2.414Z" transform="translate(247.333 -69.681)" fill="#fff"/>
        <path id="Path_1433" data-name="Path 1433" d="M75.281,92.55l-.158-.335h-.1l-.178-.394h0l.138.3h.1l.177.414Z" transform="translate(245.58 -68.622)" fill="#fff"/>
        <path id="Path_1434" data-name="Path 1434" d="M75.451,92.86l-.158-.335h-.1l-.178-.394h0l.138.316h.1l.177.414Z" transform="translate(245.074 -68.32)" fill="#fff"/>
        <path id="Path_1435" data-name="Path 1435" d="M75.621,93.228l-.158-.335h.355v-.1h-.454l-.178-.394h0l.138.316h.1l.177.414Z" transform="translate(244.569 -68.058)" fill="#fff"/>
        <path id="Path_1436" data-name="Path 1436" d="M75.791,93.48l-.158-.316h-.1l-.178-.394h0l.138.3H75.16v.1h.434l.178.414Z" transform="translate(244.064 -67.698)" fill="#fff"/>
        <path id="Path_1437" data-name="Path 1437" d="M75.79,94.007l.828.454v-.1l-.749-.394.118-.2h0Z" transform="translate(242.191 -66.726)" fill="#fff"/>
        <path id="Path_1438" data-name="Path 1438" d="M76.389,94.848a.3.3,0,0,0,.394-.177.592.592,0,0,0,0-.355h-.1a.335.335,0,0,1,0,.3.2.2,0,0,1-.276.118.244.244,0,0,1,0-.3h-.394L76.172,94h0l-.276.533h.414a.276.276,0,0,0,.079.316Z" transform="translate(241.789 -66.502)" fill="#fff"/>
        <path id="Path_1439" data-name="Path 1439" d="M76.7,95.151v-.158l.217.118h0l-.217-.118.256-.473h0l-.769.138h0l.749-.138-.177.355h-.02v.158Z" transform="translate(241.062 -65.996)" fill="#fff"/>
        <path id="Path_1440" data-name="Path 1440" d="M76.865,95.628h0l.316-.572h0l-.513.158a.355.355,0,0,1-.256,0,.2.2,0,0,1,0-.276.316.316,0,0,1,.217-.178h0a.375.375,0,0,0-.276.217.256.256,0,0,0,0,.394.335.335,0,0,0,.316,0l.434-.138Z" transform="translate(240.702 -65.763)" fill="#fff"/>
        <path id="Path_1441" data-name="Path 1441" d="M71.8,88.143a.237.237,0,0,0-.316.1s0,.138,0,.2h0a.118.118,0,0,1,0-.118.138.138,0,0,1,.2,0,.118.118,0,0,1,0,.178.138.138,0,0,1-.1,0h0a.257.257,0,0,0,.158-.138.237.237,0,0,0,.059-.217Z" transform="translate(255.532 -72.222)" fill="#fff"/>
        <path id="Path_1442" data-name="Path 1442" d="M71.885,88.6V88.42H71.53l.3.394h0Zm0,0-.118-.138h.178Z" transform="translate(255.209 -71.928)" fill="#fff"/>
        <path id="Path_1443" data-name="Path 1443" d="M71.94,88.905v-.118h.118l-.394-.217v.178a.148.148,0,0,0,.177.237v.158Zm-.256-.256h.02c-.1,0-.059.059-.02,0Z" transform="translate(254.996 -71.782)" fill="#fff"/>
        <path id="Path_1444" data-name="Path 1444" d="M71.939,88.9h0a.374.374,0,0,1,0,.138h0v-.316c0-.079-.158,0-.217.1a.374.374,0,0,0,0,.158h0a.276.276,0,0,1,0-.118v.316c0,.079.158,0,.217,0a.73.73,0,0,0,0-.276Z" transform="translate(254.898 -71.661)" fill="#fff"/>
        <path id="Path_1445" data-name="Path 1445" d="M71.92,89.335l.394.217h-.178l.079-.355h.158l-.394-.217h.138v.178h-.158Z" transform="translate(254.069 -71.383)" fill="#fff"/>
        <path id="Path_1446" data-name="Path 1446" d="M72.418,89.28a.237.237,0,0,0-.316,0,.256.256,0,0,0,0,.335.246.246,0,0,0,.316-.335Zm-.178.335a.138.138,0,0,1,0-.2.158.158,0,0,1,.2,0,.118.118,0,0,1,0,.178.138.138,0,0,1-.2.02Z" transform="translate(253.729 -71.15)" fill="#fff"/>
        <path id="Path_1447" data-name="Path 1447" d="M72.11,89.45h0l.335.178-.118.2h0l.158-.3Z" transform="translate(253.583 -70.926)" fill="#fff"/>
        <path id="Path_1448" data-name="Path 1448" d="M72.3,89.62V89.8a.217.217,0,0,0,0,.316.237.237,0,0,0,.316-.1v-.178Zm.217.335a.138.138,0,1,1-.237-.118h0l.237.138Z" transform="translate(253.218 -70.761)" fill="#fff"/>
        <path id="Path_1449" data-name="Path 1449" d="M72.636,90.284h0l.237-.178-.394-.217-.158.3h0v-.2h.1l-.1.178h0v-.178h.1Z" transform="translate(252.781 -70.498)" fill="#fff"/>
        <path id="Path_1450" data-name="Path 1450" d="M72.938,90.455v-.138h0l-.394-.217v.178a.158.158,0,0,0,0,.237.118.118,0,0,0,.158,0v.138Zm-.276-.256Z" transform="translate(252.381 -70.294)" fill="#fff"/>
        <path id="Path_1451" data-name="Path 1451" d="M71.673,88.627H71.5a.237.237,0,0,1,0,.2.118.118,0,0,1-.178,0l-.375-.2.1-.2H70.9l-.237.434.473.256A.276.276,0,0,0,71.574,89a.316.316,0,0,0,.1-.375Z" transform="translate(257.215 -71.918)" fill="#fff"/>
        <path id="Path_1452" data-name="Path 1452" d="M71.035,88.855a.118.118,0,0,0-.158,0,.112.112,0,1,0,.158.158A.138.138,0,0,0,71.035,88.855Z" transform="translate(257.518 -71.534)" fill="#fff"/>
        <path id="Path_1453" data-name="Path 1453" d="M70.98,89.983l.868.158.118-.178-.434-.454.611.118v-.2l-.631-.651v.178l.434.454h-.631v.158l.434.454h-.631Z" transform="translate(256.153 -71.578)" fill="#fff"/>
        <path id="Path_1454" data-name="Path 1454" d="M71.368,89.43H71.21v.138a.1.1,0,0,0,.158,0A.138.138,0,0,0,71.368,89.43Zm.158.118v.158l.592.316v-.177Z" transform="translate(255.726 -70.946)" fill="#fff"/>
        <path id="Path_1455" data-name="Path 1455" d="M71.449,89.59l-.1.177.809.414v-.158Z" transform="translate(255.408 -70.79)" fill="#fff"/>
        <path id="Path_1456" data-name="Path 1456" d="M71.4,89.75v.178l.789.434v-.177Z" transform="translate(255.279 -70.634)" fill="#fff"/>
        <path id="Path_1457" data-name="Path 1457" d="M71.658,89.934a.1.1,0,0,0-.138,0,.118.118,0,0,0,0,.158.138.138,0,0,0,.158,0,.1.1,0,0,0-.02-.158Zm.158.118v.158l.572.316v-.158Z" transform="translate(254.903 -70.483)" fill="#fff"/>
        <path id="Path_1458" data-name="Path 1458" d="M71.768,90.762l.335.177v-.158h0a.207.207,0,0,0,.178-.138.475.475,0,0,0,0-.3c0-.039-.217,0-.316.138v-.059a.533.533,0,0,1,.158-.138V90.17a.434.434,0,0,0-.2.217C71.532,90.525,71.532,90.663,71.768,90.762Zm.237,0h0v-.118h.138c.039,0,0,0,0,.118s-.059-.079-.138-.1Z" transform="translate(254.753 -70.226)" fill="#fff"/>
        <path id="Path_1459" data-name="Path 1459" d="M72.086,91.506l.316.177v-.158l-.316-.178a.138.138,0,0,1,0-.177.187.187,0,0,1,.237,0l.276.158v-.178l-.316-.158a.138.138,0,0,1,0-.2H72.5l.276.158V90.8L72.2,90.48v.158h0a.263.263,0,0,0-.178.375.316.316,0,0,0-.2.158C71.869,91.348,71.909,91.506,72.086,91.506Z" transform="translate(253.843 -69.925)" fill="#fff"/>
        <path id="Path_1460" data-name="Path 1460" d="M72.695,91.3h-.158a.355.355,0,0,1,0,.237h-.118c-.118,0,.2-.355,0-.473s-.237,0-.335.158a.612.612,0,0,0,0,.256h.138a.236.236,0,0,1,0-.177h0s-.178.335,0,.473.237,0,.316-.178a.611.611,0,0,0,.158-.3Z" transform="translate(253.452 -69.404)" fill="#fff"/>
        <path id="Path_1461" data-name="Path 1461" d="M74.527,94.537a.375.375,0,0,0-.552.118c-.118.177,0,.394.2.533a.469.469,0,0,0,.572-.118C74.842,94.951,74.783,94.675,74.527,94.537Zm-.256.473c-.158,0-.2-.2-.158-.276s.158-.118.316,0,.217.2.177.276S74.448,95.109,74.27,95.01Z" transform="translate(247.695 -66.053)" fill="#fff"/>
        <path id="Path_1462" data-name="Path 1462" d="M74.534,95.593a.3.3,0,0,0,.414-.138.375.375,0,0,0-.2-.533.394.394,0,0,0-.611.158.533.533,0,0,0,0,.237H74.3a.473.473,0,0,1,0-.158.237.237,0,0,1,.335,0s-.118,0-.177.158a.256.256,0,0,0,.079.276Zm0-.158a.138.138,0,0,1,0-.177s.118-.118.178,0,0,0,0,.2a.118.118,0,0,1-.079-.02Z" transform="translate(247.096 -65.689)" fill="#fff"/>
        <path id="Path_1463" data-name="Path 1463" d="M74.18,95.22v.158l1.2.177v-.138Z" transform="translate(246.602 -65.316)" fill="#fff"/>
        <path id="Path_1464" data-name="Path 1464" d="M74.784,96.218h.158l.3-.552h-.118l-.434.138h-.177c-.039,0,0,0,0-.177a.237.237,0,0,1,.158-.118V95.35a.355.355,0,0,0-.3.217v.394c0,.059.138,0,.3,0h.256Z" transform="translate(246.373 -65.189)" fill="#fff"/>
        <path id="Path_1465" data-name="Path 1465" d="M75.272,96.491v-.118h.158v-.158h-.158l.217-.394H74.7V96h.631v.217h-.138v.158h.138v.118Z" transform="translate(245.471 -64.732)" fill="#fff"/>
        <g id="Group_256" data-name="Group 256" transform="translate(315.518 22.727)" opacity="0.2">
          <path id="Path_1466" data-name="Path 1466" d="M76.734,93.965a1.341,1.341,0,0,1-.2-1.7,1.2,1.2,0,0,1,.394-.434.986.986,0,0,1,1.321,0,1.479,1.479,0,0,1,.3,1.124,1.519,1.519,0,0,1-.493,1.1,1.006,1.006,0,0,1-1.124,0Z" transform="translate(-76.322 -91.581)" fill="#fff"/>
        </g>
        <g id="Group_257" data-name="Group 257" transform="translate(310.022 9.82)" opacity="0.2">
          <path id="Path_1467" data-name="Path 1467" d="M73.325,103.169l9.546-17.751a.71.71,0,0,1,.966-.3l3.175,1.815A5.917,5.917,0,0,1,85.474,91.3a25.029,25.029,0,0,1-4.28,3.53A9.408,9.408,0,0,0,77.7,99.066a17.277,17.277,0,0,0-.355,5.246,9.863,9.863,0,0,1-.2,1.716l-3.531-1.972a.73.73,0,0,1-.3-.888Z" transform="translate(-73.274 -85.037)" fill="#fff"/>
        </g>
        <path id="Path_1468" data-name="Path 1468" d="M77.314,121.174l-8.008-6.509A17.416,17.416,0,0,1,62.955,103.3L62.6,99.932,86.564,95.06s2.248,7.278-6.8,9.093c8.027,3.471,11.025,10.749,13.215,18.619Z" transform="translate(251.851 -65.471)" fill="#ffbe9d"/>
        <path id="Path_1469" data-name="Path 1469" d="M89.894,110.568a25.554,25.554,0,0,0-2.091-2.327,11.124,11.124,0,0,0-7.337-2.959H77.882l2.426-.888,5.6-1.972h-.118a6.667,6.667,0,0,0,3.491-6.233,3.628,3.628,0,0,0-.118-.572l.69.375c-6.745,1.676-12.86,3.077-17.337,3.945-2.229.375-3.945.651-5.306.789a5.918,5.918,0,0,1-1.972,0,69.031,69.031,0,0,1,7.1-1.657c4.418-.966,10.473-2.485,17.219-4.162l.513-.138.158.513a3.944,3.944,0,0,1,.178.769,6.726,6.726,0,0,1-1.045,4.4,9.112,9.112,0,0,1-3,2.9h0l-5.641,1.972-.158-.907a11.262,11.262,0,0,1,7.732,3.511,6.173,6.173,0,0,1,1.6,2.643Z" transform="translate(249.172 -65.753)" fill="#eb996e"/>
      </g>
    </g>
  </g>
</svg>
