<svg xmlns="http://www.w3.org/2000/svg" width="44" height="64" viewBox="0 0 44 64">
  <path id="FontAwsome_award_" data-name="FontAwsome (award)" d="M11.126,45.321c-1-1.086-.477-.78-2.878-1.481a8.056,8.056,0,0,1-2.914-1.665l-5.2,13.9A1.981,1.981,0,0,0,1.9,58.833l6.037-.251,4.152,4.785a1.764,1.764,0,0,0,3.028-.62l5.964-15.952a7.793,7.793,0,0,1-4.046,1.2A7.975,7.975,0,0,1,11.126,45.321ZM43.86,56.079l-5.2-13.9a8.038,8.038,0,0,1-2.914,1.665c-2.414.7-1.885.4-2.878,1.481a7.978,7.978,0,0,1-5.915,2.671,7.8,7.8,0,0,1-4.046-1.2l5.964,15.952a1.764,1.764,0,0,0,3.028.62l4.154-4.785,6.037.251A1.982,1.982,0,0,0,43.86,56.079ZM30.133,42.492c1.751-1.944,1.951-1.776,4.445-2.517a4.9,4.9,0,0,0,3.262-3.622c.857-3.55.635-3.121,2.973-5.719a5.517,5.517,0,0,0,1.194-4.947c-.856-3.547-.857-3.052,0-6.6a5.517,5.517,0,0,0-1.194-4.947c-2.339-2.6-2.116-2.17-2.973-5.719a4.9,4.9,0,0,0-3.262-3.622c-3.195-.951-2.81-.7-5.15-3.3A4.308,4.308,0,0,0,24.971.167c-3.193.95-2.748.951-5.947,0a4.306,4.306,0,0,0-4.456,1.326c-2.339,2.6-1.954,2.35-5.149,3.3A4.9,4.9,0,0,0,6.157,8.416c-.856,3.549-.635,3.121-2.973,5.719A5.514,5.514,0,0,0,1.99,19.083c.856,3.545.857,3.05,0,6.6a5.52,5.52,0,0,0,1.194,4.949c2.339,2.6,2.116,2.169,2.973,5.719a4.9,4.9,0,0,0,3.262,3.622c2.564.762,2.756.642,4.443,2.517a4.276,4.276,0,0,0,5.7.727,4.229,4.229,0,0,1,4.873,0A4.275,4.275,0,0,0,30.133,42.492Zm-18.945-20.5c0-6.629,4.84-12,10.81-12s10.81,5.374,10.81,12-4.84,12-10.81,12-10.81-5.374-10.81-12Z" transform="translate(0.002 0.008)" fill="#e83225"/>
</svg>
