<svg xmlns="http://www.w3.org/2000/svg" width="46.986" height="44" viewBox="0 0 46.986 44">
  <path id="FontAwsome_hand-holding-usd_" data-name="FontAwsome (hand-holding-usd)" d="M22.111,12.4l4.427,1.229a.721.721,0,0,1-.2,1.418h-2.9a2.339,2.339,0,0,1-.913-.189,1.122,1.122,0,0,0-1.248.172l-1.55,1.5a.993.993,0,0,0-.184.229,1.027,1.027,0,0,0-.109.746.979.979,0,0,0,.426.607,6.6,6.6,0,0,0,2.815.988v1.521A1.4,1.4,0,0,0,24.085,22H25.5a1.4,1.4,0,0,0,1.418-1.375V19.112A4.866,4.866,0,0,0,31.283,13.7a5.1,5.1,0,0,0-3.8-4.1L23.059,8.37a.721.721,0,0,1,.2-1.418h2.9a2.339,2.339,0,0,1,.916.189A1.122,1.122,0,0,0,28.33,6.97l1.55-1.5a.962.962,0,0,0,.177-.223,1.027,1.027,0,0,0,.112-.747.98.98,0,0,0-.425-.609A6.6,6.6,0,0,0,26.928,2.9V1.375A1.4,1.4,0,0,0,25.511,0H24.094a1.4,1.4,0,0,0-1.417,1.375V2.888A4.868,4.868,0,0,0,18.312,8.3,5.1,5.1,0,0,0,22.111,12.4Zm24,15.8a2.6,2.6,0,0,0-3.475,0L35.1,34.547a5.028,5.028,0,0,1-3.263,1.2H22.187a1.377,1.377,0,0,1,0-2.75h6.386a2.744,2.744,0,0,0,2.712-2.286,2.821,2.821,0,0,0,.038-.469,2.683,2.683,0,0,0-2.61-2.745H15.662a9.3,9.3,0,0,0-6.044,2.259L5.824,33H1.305A1.341,1.341,0,0,0,0,34.375v8.25A1.341,1.341,0,0,0,1.305,44h29.1a5.057,5.057,0,0,0,3.263-1.2L46.006,32.4a2.846,2.846,0,0,0,.1-4.2Z" fill="#e83225"/>
</svg>
