<svg xmlns="http://www.w3.org/2000/svg" xmlns:xlink="http://www.w3.org/1999/xlink" width="240" height="240" viewBox="0 0 240 240">
  <defs>
    <linearGradient id="linear-gradient" x1="-0.396" y1="1" x2="-0.396" gradientUnits="objectBoundingBox">
      <stop offset="0" stop-color="gray" stop-opacity="0.251"/>
      <stop offset="0.535" stop-color="gray" stop-opacity="0.122"/>
      <stop offset="1" stop-color="gray" stop-opacity="0.102"/>
    </linearGradient>
  </defs>
  <g id="Group_16" data-name="Group 16" transform="translate(360 -1515)">
    <circle id="Ellipse_1" data-name="Ellipse 1" cx="120" cy="120" r="120" transform="translate(-360 1515)" fill="none"/>
    <g id="Group_96" data-name="Group 96" transform="translate(-320 1560)">
      <path id="Path_721" data-name="Path 721" d="M429.666,617.089h-4.823v37.472s31.13,9.267,61.384,0V617.089Z" transform="translate(-379.711 -511.522)" fill="#e9be4e"/>
      <ellipse id="Ellipse_158" data-name="Ellipse 158" cx="30.253" cy="4.231" rx="30.253" ry="4.231" transform="translate(45.132 101.537)" fill="#3f3d56"/>
      <ellipse id="Ellipse_159" data-name="Ellipse 159" cx="30.253" cy="4.231" rx="30.253" ry="4.231" transform="translate(45.132 101.537)" fill="#e61030" opacity="0.1"/>
      <path id="Path_722" data-name="Path 722" d="M583.639,140.533c-7.632,25.926-33.773,41.983-33.773,41.983s-13.767-25.978-6.135-51.9S577.5,88.629,577.5,88.629,591.271,114.607,583.639,140.533Z" transform="translate(-473.086 -79.737)" fill="#e9be4e"/>
      <path id="Path_723" data-name="Path 723" d="M395.435,140.533c7.632,25.926,33.773,41.983,33.773,41.983s13.767-25.978,6.135-51.9S401.57,88.629,401.57,88.629,387.8,114.607,395.435,140.533Z" transform="translate(-354.311 -79.737)" fill="#e61030" opacity="0.4"/>
      <path id="Path_724" data-name="Path 724" d="M250.465,251.187c20.942,18.734,23.5,47.534,23.5,47.534s-31.4-1.575-52.338-20.31-23.5-47.534-23.5-47.534S229.523,232.453,250.465,251.187Z" transform="translate(-198.127 -195.963)" fill="#e9be4e"/>
      <path id="Path_725" data-name="Path 725" d="M602.594,251.187c-20.942,18.734-23.5,47.534-23.5,47.534s31.4-1.575,52.338-20.31,23.5-47.534,23.5-47.534S623.536,232.453,602.594,251.187Z" transform="translate(-503.256 -195.963)" fill="#e9be4e"/>
      <ellipse id="Ellipse_160" data-name="Ellipse 160" cx="9.646" cy="8.864" rx="9.646" ry="8.864" transform="translate(66.178 0)" fill="#e61030"/>
      <path id="Path_726" data-name="Path 726" d="M266.039,379.129a7.389,7.389,0,0,0,3.06,3.668,6.7,6.7,0,0,0,.583-4.591,7.389,7.389,0,0,0-3.06-3.668A6.7,6.7,0,0,0,266.039,379.129Z" transform="translate(-252.358 -313.343)" fill="#e61030"/>
      <path id="Path_727" data-name="Path 727" d="M330.21,452.952a6.692,6.692,0,0,0,.478,4.6,7.427,7.427,0,0,0,3.144-3.608,6.692,6.692,0,0,0-.478-4.6A7.427,7.427,0,0,0,330.21,452.952Z" transform="translate(-303.727 -374.464)" fill="#e61030"/>
      <path id="Path_728" data-name="Path 728" d="M216.039,499.129a7.389,7.389,0,0,0,3.06,3.668,6.7,6.7,0,0,0,.583-4.591,7.389,7.389,0,0,0-3.06-3.668A6.7,6.7,0,0,0,216.039,499.129Z" transform="translate(-212.311 -411.39)" fill="#e61030"/>
      <path id="Path_729" data-name="Path 729" d="M664.6,150.423c-1.141,4.2-5.773,6.759-10.346,5.711s-7.356-5.3-6.216-9.507,5.772-6.761,10.345-5.713,7.358,5.306,6.217,9.509Z" transform="translate(-558.268 -122.265)" fill="#e61030"/>
      <path id="Path_730" data-name="Path 730" d="M676.794,159.617c.17-1.044-.7-1.605-1.878-1.98l.384-1.414-.937-.215-.374,1.377c-.246-.056-.5-.11-.751-.162l.376-1.386-.936-.215-.384,1.414c-.2-.043-.4-.085-.6-.129v0l-1.292-.3-.249.919s.7.146.68.155a.469.469,0,0,1,.437.5l-.437,1.611a.824.824,0,0,1,.1.029l-.1-.023-.613,2.257a.322.322,0,0,1-.168.184.368.368,0,0,1-.261.02c.009.012-.681-.156-.681-.156l-.465.985,1.219.279c.227.052.449.107.668.158l-.388,1.43.936.215.384-1.415c.256.064.5.123.747.178l-.383,1.409.937.215.388-1.428c1.6.278,2.8.166,3.3-1.162a1.47,1.47,0,0,0-.861-2.088A1.421,1.421,0,0,0,676.794,159.617Zm-2.14,2.758c-.289,1.069-2.248.491-2.883.346l.514-1.9C672.92,160.972,674.956,161.261,674.654,162.375Zm.29-2.774c-.264.972-1.894.478-2.423.357l.466-1.719C673.515,158.361,675.218,158.588,674.943,159.6Z" transform="translate(-574.982 -134.475)" fill="#fff"/>
      <path id="Path_731" data-name="Path 731" d="M864.6,270.423c-1.141,4.2-5.773,6.76-10.346,5.711s-7.356-5.3-6.216-9.507,5.772-6.761,10.345-5.713S865.738,266.219,864.6,270.423Z" transform="translate(-718.455 -220.313)" fill="#e61030"/>
      <path id="Path_732" data-name="Path 732" d="M876.794,279.617c.17-1.044-.695-1.605-1.878-1.98l.384-1.414-.937-.215-.374,1.377c-.246-.056-.5-.11-.751-.162l.376-1.386-.936-.215-.384,1.414c-.2-.043-.4-.085-.6-.129v0l-1.292-.3-.249.919s.7.146.68.155a.469.469,0,0,1,.436.5l-.437,1.611a.826.826,0,0,1,.1.029l-.1-.023-.613,2.257a.322.322,0,0,1-.168.184.368.368,0,0,1-.261.02c.009.013-.681-.156-.681-.156l-.465.985,1.219.279c.227.052.449.107.668.158l-.388,1.43.936.215.384-1.415c.256.064.5.123.747.178l-.383,1.409.937.215.388-1.428c1.6.278,2.8.166,3.3-1.162a1.47,1.47,0,0,0-.861-2.088A1.421,1.421,0,0,0,876.794,279.617Zm-2.14,2.758c-.29,1.069-2.248.491-2.883.346l.514-1.9C872.92,280.972,874.956,281.261,874.654,282.375Zm.29-2.774c-.264.972-1.894.478-2.423.357l.466-1.719C873.515,278.361,875.218,278.588,874.943,279.6Z" transform="translate(-735.168 -232.523)" fill="#fff"/>
      <path id="Path_733" data-name="Path 733" d="M232.68,260.223c.911,4.25-2.1,8.373-6.724,9.211s-9.112-1.929-10.024-6.178,2.1-8.374,6.722-9.212S231.768,255.972,232.68,260.223Z" transform="translate(-212.257 -214.769)" fill="#e61030"/>
      <path id="Path_734" data-name="Path 734" d="M244.305,272.1c-.329-1.011-1.372-1.182-2.615-1.059l-.307-1.43-.947.172.3,1.392c-.249.045-.5.1-.754.146l-.3-1.4-.947.171.306,1.43c-.2.041-.4.081-.6.117v0l-1.306.236.2.93s.7-.139.688-.125a.51.51,0,0,1,.627.283l.349,1.629a.849.849,0,0,1,.1-.012l-.1.018.489,2.282a.3.3,0,0,1-.067.233.348.348,0,0,1-.227.12c.014.008-.689.125-.689.125l.035,1.074,1.233-.223c.229-.041.456-.079.678-.117l.311,1.446.946-.171-.307-1.431c.261-.042.513-.086.758-.13l.305,1.424.947-.172L243.1,277.6c1.574-.372,2.61-.943,2.454-2.342a1.591,1.591,0,0,0-1.745-1.554A1.31,1.31,0,0,0,244.305,272.1Zm-.662,3.333c.232,1.081-1.808,1.323-2.45,1.439l-.411-1.916C241.425,274.837,243.4,274.3,243.643,275.43Zm-1.02-2.624c.211.983-1.493,1.173-2.028,1.27l-.373-1.738C240.757,272.241,242.4,271.781,242.623,272.806Z" transform="translate(-229.366 -227.609)" fill="#fff"/>
      <path id="Path_735" data-name="Path 735" d="M428.68,134.223c.911,4.25-2.1,8.373-6.724,9.211s-9.112-1.929-10.024-6.178,2.1-8.374,6.722-9.212S427.768,129.972,428.68,134.223Z" transform="translate(-369.24 -111.819)" fill="#e61030"/>
      <path id="Path_736" data-name="Path 736" d="M440.305,146.1c-.329-1.011-1.372-1.182-2.615-1.059l-.307-1.43-.947.172.3,1.392c-.249.045-.5.1-.754.146l-.3-1.4-.947.171.306,1.43c-.2.041-.4.081-.6.117v0l-1.306.236.2.93s.7-.139.688-.125a.51.51,0,0,1,.627.283l.349,1.629a.84.84,0,0,1,.1-.012l-.1.018.489,2.282a.3.3,0,0,1-.067.233.348.348,0,0,1-.227.12c.014.008-.689.125-.689.125l.035,1.074,1.233-.223c.229-.041.456-.079.678-.117l.311,1.446.946-.171-.307-1.431c.261-.042.513-.086.758-.13l.305,1.424.947-.172L439.1,151.6c1.574-.372,2.61-.943,2.453-2.342a1.591,1.591,0,0,0-1.745-1.554A1.31,1.31,0,0,0,440.305,146.1Zm-.662,3.333c.232,1.081-1.808,1.323-2.45,1.439l-.411-1.916C437.425,148.837,439.4,148.3,439.643,149.43Zm-1.02-2.624c.211.983-1.493,1.173-2.028,1.27l-.373-1.738C436.757,146.241,438.4,145.781,438.623,146.806Z" transform="translate(-386.349 -124.659)" fill="#fff"/>
      <path id="Path_737" data-name="Path 737" d="M808.333,486.943l.931,2.432-.715,4.085a18.507,18.507,0,0,0-.972,4.839c.108,1.58,0,3.752,0,3.752s-2.591,4.345-.432,6.122a.829.829,0,0,0,1.271-.04,11.594,11.594,0,0,0,1.083.483l-1.814,6.47-1.727,3.16a16.5,16.5,0,0,0-5.074,8.887,31.221,31.221,0,0,1-2.292,5.211,1.674,1.674,0,0,1-.133.162,6.67,6.67,0,0,1-.383-.633l-1.619,3.95a41.893,41.893,0,0,0,5.506,2.37c2.267.691,4.859-.1,5.614-.987s-1.512-1.876-3.131-2.469a2.551,2.551,0,0,1-1.449-1.6c-.021-.193-.038-.411-.045-.645a5.41,5.41,0,0,1,1.17-3.782,55.048,55.048,0,0,0,4.643-7.208,35.542,35.542,0,0,0,3.455-3.851l3.887-5.964c2.156,2.246,4.318,7.544,4.318,7.544l.864,4.839s2.807,6.912,3.671,7.6c.024.019.048.041.072.064l.022.022.052.055.021.024c.022.026.045.053.067.082l.016.022.052.072.024.036.046.071.021.034q.031.051.061.1l.021.039.042.078.024.046.043.086.018.036q.029.059.057.121l.021.047.038.087.021.049.047.114.012.028q.025.062.05.126l.018.047.037.1.016.042.05.139.007.019.043.123.014.041.037.112.009.029q.023.07.045.139l.009.028.034.11.012.04.031.1.009.03.035.119.016.057.016.057.02.07.005.019c.025.091.048.177.068.255l.026.1.012.047,0,.013a3.994,3.994,0,0,1-.451-.319,10.363,10.363,0,0,1,0,1.975,4.409,4.409,0,0,0,.972,2.37s9.717-2.172,10.257-3.654-1.727-1.284-2.375-1.086-3.887-.395-4.319-1.086a1.929,1.929,0,0,0-.29-.353.654.654,0,0,0-.749-.114l-.024-.025-.029-.031-.019-.022-.035-.042,0,0c-.024-.03-.047-.062-.071-.095l-.026-.036q-.065-.094-.131-.2l-.008-.014a23.824,23.824,0,0,1-1.6-4.074l0-.013-.014-.046-.005-.017,0-.012-.007-.023,0-.005,0-.006-2.483-7.406c.756-2.666,0-3.95,0-3.95l-1.4-6.023-.792-2.728a.5.5,0,0,0,.036-.037,41.249,41.249,0,0,1-1.467-7.9q-.031-.265-.059-.518l2.39,1.012s3.239,4.542,5.29,2.37-4.1-4.049-4.1-4.049l-3.878-2.365-.009-.1-.432-2.962s-1.188-3.555-.648-5.925a2.351,2.351,0,0,0-1.493-2.919,1.541,1.541,0,0,0-.219-.06,4.159,4.159,0,0,1-1.813-1.276,7,7,0,0,0-1.682-1.3,1.522,1.522,0,0,0,.706-.962,2.668,2.668,0,0,0-.233-1.355,11.746,11.746,0,0,1,.765-1.439h.017q.068-.106.131-.2a4.452,4.452,0,0,0,4.144-4.265,3.992,3.992,0,0,0-.582-2.072c.484-.154.948-.349.773-.806-.118-.309-.434-.51-.68-.747-.65-.629-.849-1.572-1.529-2.174a2.353,2.353,0,0,0-.673-.41,3.877,3.877,0,0,0-2.375-.271c-.989.167-1.91.567-2.876.824a23.675,23.675,0,0,0-2.55.661,6.026,6.026,0,0,0-3.1,2.9c-.566,1.1-.829,2.328-1.449,3.409a3.655,3.655,0,0,1-3.09,2.012,2.891,2.891,0,0,0-1.024.023,1.219,1.219,0,0,0-.6.5c-.732,1.1-.262,2.571-.844,3.739a7.645,7.645,0,0,1-2.131,2.068c-.765.65-1.423,1.622-1.062,2.518a1.928,1.928,0,0,0,1.106,1,2.971,2.971,0,0,0,.807.272,8.955,8.955,0,0,0,2.213.006c2-.129,4.18-.06,5.766-1.178a9.995,9.995,0,0,0,1.678-1.7A11.694,11.694,0,0,0,808.333,486.943Zm2.875,6.21c.162.246.327.491.5.732,1.587,2.24-.566,5.3-.566,5.3a5.534,5.534,0,0,0-1.249,1.3,7.841,7.841,0,0,1,.493-2.786A15.974,15.974,0,0,0,811.208,493.153Z" transform="translate(-677.242 -388.982)" fill="url(#linear-gradient)"/>
      <path id="Path_738" data-name="Path 738" d="M850.649,586l-.844,4.822a18.078,18.078,0,0,0-.949,4.726c.105,1.543,0,3.665,0,3.665s-2.531,4.244-.422,5.98,2.742-5.5,2.742-5.5-.316-3.086.422-4.726a18.772,18.772,0,0,0,.844-5.208Z" transform="translate(-718.307 -486.119)" fill="#ffcdd3"/>
      <path id="Path_739" data-name="Path 739" d="M850.649,586l-.844,4.822a18.078,18.078,0,0,0-.949,4.726c.105,1.543,0,3.665,0,3.665s-2.531,4.244-.422,5.98,2.742-5.5,2.742-5.5-.316-3.086.422-4.726a18.772,18.772,0,0,0,.844-5.208Z" transform="translate(-718.307 -486.119)" opacity="0.05"/>
      <path id="Path_740" data-name="Path 740" d="M886.322,676.645l1.459,5.021,1.371,5.883s.738,1.254,0,3.858l2.425,7.233s1.371,4.629,2.215,4.726-.844,3.665-.844,3.665l-2.32-1.254s-.633-2.893-1.476-3.568-3.585-7.426-3.585-7.426l-.844-4.726s-2.636-6.462-4.956-8.005A8.142,8.142,0,0,1,876.709,678Z" transform="translate(-741.625 -560.183)" fill="#ffcdd3"/>
      <path id="Path_741" data-name="Path 741" d="M876.709,678a8.142,8.142,0,0,0,3.058,4.051c2.32,1.543,4.956,8.005,4.956,8.005l.844,4.726s2.742,6.751,3.585,7.426c.619.5,1.125,2.186,1.35,3.051.082.313.127.518.127.518l2.32,1.254s1.687-3.569.844-3.665c-.131-.014-.274-.139-.424-.338a20.964,20.964,0,0,1-1.791-4.388l-2.425-7.233c.738-2.6,0-3.858,0-3.858l-1.371-5.883-1.458-5.021Z" transform="translate(-741.625 -560.185)" opacity="0.05"/>
      <path id="Path_742" data-name="Path 742" d="M808.9,711.29l.844,1.833,3.8-.386a7.391,7.391,0,0,1-.194-1.514,5.284,5.284,0,0,1,1.143-3.694,53.769,53.769,0,0,0,4.534-7.041,34.729,34.729,0,0,0,3.374-3.761l5.279-8.1-.164-.726,1.424-1.206h-8.858l-2.109,7.523-1.687,3.086a16.119,16.119,0,0,0-4.956,8.68,30.493,30.493,0,0,1-2.239,5.089A1.439,1.439,0,0,1,808.9,711.29Z" transform="translate(-687.318 -568.395)" fill="#ffcdd3"/>
      <path id="Path_743" data-name="Path 743" d="M946,823.1c.082.313.127.518.127.518l2.32,1.254s1.687-3.569.844-3.665c-.131-.014-.274-.139-.424-.338a.525.525,0,0,0-.27.6,1.419,1.419,0,0,0,.167.412c.316.482-1.054,1.254-1.054,1.254C947.244,823.681,946.494,823.394,946,823.1Z" transform="translate(-797.12 -678.025)" opacity="0.1"/>
      <path id="Path_744" data-name="Path 744" d="M947.057,822.135a.548.548,0,0,1,.309-.622.653.653,0,0,1,.734.11,1.9,1.9,0,0,1,.284.345c.422.675,3.585,1.254,4.218,1.061s2.847-.386,2.32,1.061-10.018,3.569-10.018,3.569a4.306,4.306,0,0,1-.949-2.315,10.143,10.143,0,0,0,0-1.929s1.476,1.254,2.214.386c0,0,1.371-.772,1.054-1.254A1.417,1.417,0,0,1,947.057,822.135Z" transform="translate(-795.478 -678.496)" fill="#dce6f2"/>
      <path id="Path_745" data-name="Path 745" d="M808.9,819.654l.844,1.833,3.8-.386a7.387,7.387,0,0,1-.194-1.514.52.52,0,0,0-.392-.259.547.547,0,0,0-.455.148c-.2.193-.394.4-.541.564-.422.482-1.793.193-1.793.193-.355.108-.777-.361-1.079-.794A1.431,1.431,0,0,1,808.9,819.654Z" transform="translate(-687.318 -676.76)" opacity="0.1"/>
      <path id="Path_746" data-name="Path 746" d="M804.76,818.134a.549.549,0,0,1,.506-.14.5.5,0,0,1,.377.34,2.679,2.679,0,0,0,1.529,1.907c1.582.579,3.8,1.543,3.058,2.411s-3.269,1.64-5.483.964a40.928,40.928,0,0,1-5.378-2.315l1.582-3.858s.844,1.64,1.476,1.447c0,0,1.371.289,1.793-.193C804.366,818.53,804.564,818.327,804.76,818.134Z" transform="translate(-679.68 -675.225)" fill="#dce6f2"/>
      <path id="Path_747" data-name="Path 747" d="M870.425,514.073s-2.531,3.183-1.9,5.4-5.062-1.447-5.062-1.447a7.328,7.328,0,0,0,2.425-6.365Z" transform="translate(-731.018 -425.382)" fill="#ffcdd3"/>
      <path id="Path_748" data-name="Path 748" d="M856.1,569.872a15.559,15.559,0,0,0,9.28,1.35l-.105-.675.219.019c4.031.326,4.948-.791,4.948-.791a40.3,40.3,0,0,1-1.433-7.716c-.044-.382-.084-.747-.121-1.09-.083-.774-.146-1.426-.186-1.867-.035-.388-.053-.611-.053-.611l-.422-2.893s-1.16-3.472-.633-5.787a2.3,2.3,0,0,0-1.458-2.851,1.5,1.5,0,0,0-.214-.058,4.061,4.061,0,0,1-1.77-1.246,7.167,7.167,0,0,0-2.958-1.846c-.53-.176-.981-.364-.981-.364-.738-.772-2.742-.289-2.742-.289-2.425,1.447-1.16,6.173-1.16,6.173l1.008,2.635a18.985,18.985,0,0,0,2.286,4.145c1.55,2.187-.553,5.179-.553,5.179C855.784,563.7,856.1,569.872,856.1,569.872Z" transform="translate(-725.023 -450.993)" fill="#0065b3"/>
      <path id="Path_749" data-name="Path 749" d="M901.871,645.615l.378,5.179c4.031.326,4.948-.791,4.948-.791a40.3,40.3,0,0,1-1.433-7.716c-.044-.382-.084-.747-.121-1.09Z" transform="translate(-761.778 -531.22)" fill="#464353" opacity="0.05"/>
      <path id="Path_750" data-name="Path 750" d="M864.116,573.418s1.9,3.279,2.531,4.726.633.964.949,1.447a31.912,31.912,0,0,0,3.691,2.6l3.418,1.447c-.144-1.246-.249-2.322-.307-2.957l-3.216-1.962s-2.214-1.254-2.32-2.893a18.68,18.68,0,0,0-1.476-4.629s-2.742-2.7-3.9-1.447S864.116,573.418,864.116,573.418Z" transform="translate(-730.719 -472.575)" opacity="0.1"/>
      <path id="Path_751" data-name="Path 751" d="M867.385,568.564a18.678,18.678,0,0,1,1.476,4.629c.105,1.64,2.32,2.893,2.32,2.893l6.96,4.244s6.011,1.832,4.007,3.954-5.167-2.315-5.167-2.315l-5.694-2.411a31.912,31.912,0,0,1-3.691-2.6c-.316-.482-.316,0-.949-1.447s-2.531-4.726-2.531-4.726-1.793-2.411-.633-3.665S867.385,568.564,867.385,568.564Z" transform="translate(-730.719 -470.421)" fill="#ffcdd3"/>
      <path id="Path_752" data-name="Path 752" d="M864.709,562.686a25.847,25.847,0,0,1-2.531-1.929.634.634,0,0,0-.74-.08,3.6,3.6,0,0,1-1.567.237c-.461-.036-.91-.012-.857.229.105.482-.316-2.508-.316-2.508l1.793-.579,2.32,1.157Z" transform="translate(-727.2 -463.289)" opacity="0.1"/>
      <path id="Path_753" data-name="Path 753" d="M864.709,561.631a25.849,25.849,0,0,1-2.531-1.929.634.634,0,0,0-.74-.08,3.6,3.6,0,0,1-1.567.237c-.461-.036-.91-.012-.857.229.105.482-.316-2.508-.316-2.508l1.793-.579,2.32,1.157Z" transform="translate(-727.2 -462.427)" fill="#464353"/>
      <path id="Path_754" data-name="Path 754" d="M904.253,582.716a2.8,2.8,0,0,1-2.383-.145" transform="translate(-761.778 -483.319)" opacity="0.1"/>
      <path id="Path_755" data-name="Path 755" d="M875.91,512.255c.079-.577-.7.621-.791-.048l4.534,2.411s-.259.326-.59.841a5.083,5.083,0,0,1-.517.027C877.182,515.486,876.751,513.119,875.91,512.255Z" transform="translate(-740.352 -425.734)" opacity="0.1"/>
      <ellipse id="Ellipse_161" data-name="Ellipse 161" cx="4.587" cy="4.195" rx="4.587" ry="4.195" transform="translate(133.713 81.168)" fill="#ffcdd3"/>
      <path id="Path_756" data-name="Path 756" d="M820.366,478.587a1.991,1.991,0,0,1-.165.776,2.328,2.328,0,0,1-.951.671,3.426,3.426,0,0,0-1.37,4.015,3.287,3.287,0,0,1,.3,1.557c-.178.9-1.3,1.368-2.3,1.448a11.585,11.585,0,0,0-2.973.265c-1.566.559-2.255,2.239-3.587,3.177-1.548,1.092-3.681,1.024-5.631,1.151a8.746,8.746,0,0,1-2.161-.006,2.162,2.162,0,0,1-1.657-1.143c-.353-.875.29-1.824,1.037-2.459a7.467,7.467,0,0,0,2.081-2.02c.568-1.141.109-2.582.824-3.652a1.19,1.19,0,0,1,.582-.488,2.822,2.822,0,0,1,1-.023,3.57,3.57,0,0,0,3.018-1.965c.6-1.056.862-2.25,1.415-3.329a5.886,5.886,0,0,1,3.025-2.829,23.131,23.131,0,0,1,2.491-.646c.943-.251,1.843-.642,2.809-.8a3.381,3.381,0,0,1,2.766.569c.665.587.858,1.509,1.494,2.123.24.232.548.428.664.73.274.714-1.055.775-1.5,1.061a2.643,2.643,0,0,0-1.218,1.823Z" transform="translate(-680.008 -393.15)" opacity="0.1"/>
      <path id="Path_757" data-name="Path 757" d="M819.306,478.06a1.99,1.99,0,0,1-.165.776,2.327,2.327,0,0,1-.951.671,3.426,3.426,0,0,0-1.37,4.015,3.288,3.288,0,0,1,.3,1.557c-.178.9-1.3,1.368-2.3,1.448a11.584,11.584,0,0,0-2.973.265c-1.566.559-2.256,2.239-3.587,3.177-1.548,1.092-3.681,1.024-5.631,1.151a8.748,8.748,0,0,1-2.161-.006,2.162,2.162,0,0,1-1.657-1.143c-.353-.875.29-1.824,1.037-2.459a7.467,7.467,0,0,0,2.081-2.02c.568-1.141.109-2.582.824-3.652a1.19,1.19,0,0,1,.582-.488,2.822,2.822,0,0,1,1-.023,3.57,3.57,0,0,0,3.018-1.965c.6-1.056.862-2.25,1.415-3.329A5.886,5.886,0,0,1,811.8,473.2a23.131,23.131,0,0,1,2.491-.646c.943-.251,1.843-.642,2.809-.8a3.381,3.381,0,0,1,2.766.569c.665.587.858,1.509,1.494,2.123.24.232.548.428.664.73.274.714-1.055.775-1.5,1.061A2.643,2.643,0,0,0,819.306,478.06Z" transform="translate(-679.159 -392.719)" fill="#e61030"/>
    </g>
  </g>
</svg>
