<svg xmlns="http://www.w3.org/2000/svg" xmlns:xlink="http://www.w3.org/1999/xlink" width="240" height="240" viewBox="0 0 240 240">
  <defs>
    <linearGradient id="linear-gradient" x1="0.5" y1="1" x2="0.5" gradientUnits="objectBoundingBox">
      <stop offset="0" stop-color="gray" stop-opacity="0.251"/>
      <stop offset="0.54" stop-color="gray" stop-opacity="0.122"/>
      <stop offset="1" stop-color="gray" stop-opacity="0.102"/>
    </linearGradient>
  </defs>
  <g id="Group_40" data-name="Group 40" transform="translate(-228 -2742)">
    <g id="Group_27" data-name="Group 27" transform="translate(588 1227)">
      <circle id="Ellipse_1" data-name="Ellipse 1" cx="120" cy="120" r="120" transform="translate(-360 1515)" fill="none"/>
    </g>
    <g id="Group_54" data-name="Group 54" transform="translate(255 2787)">
      <path id="Path_367" data-name="Path 367" d="M294.964,84.574c-.032.161-.063.322-.1.482a53.78,53.78,0,0,1-5.659,15.6c-.09.161-.181.322-.273.483a44.511,44.511,0,0,1-6.38,8.557,19.531,19.531,0,0,1-4.583,3.74,24.767,24.767,0,0,1-8.157,2.372c-2.934.472-5.908.867-8.874,1.293q-1.581.223-3.143.472c-2.866.451-5.711.972-8.488,1.664a47.766,47.766,0,0,0-9.9,3.541q-.377.181-.744.384c-.245.13-.492.262-.734.4s-.48.268-.717.406c-.123.071-.245.141-.366.215s-.24.139-.358.212c-.354.21-.7.425-1.049.643l-.014.009c-.23.143-.457.29-.681.436-1.285.829-2.542,1.694-3.8,2.565l-.79.543-1.225.842c-.239.165-.482.329-.722.492-.17.119-.341.239-.526.362-.893.6-1.8,1.184-2.726,1.743-.22.134-.441.268-.664.4a36.711,36.711,0,0,1-5.864,2.81l-.027.011a25.532,25.532,0,0,1-3.114.934c-.608.141-1.218.257-1.835.346a18.521,18.521,0,0,1-4.975.074c-3.249-.4-6.293-1.725-9.54-2.172-6.685-.905-13.178,2.011-19.464,4.3q-2.319.842-4.671,1.577c-1.043.328-2.089.637-3.143.936a111.972,111.972,0,0,1-19.711,3.673,52.257,52.257,0,0,1-8.373.2,29,29,0,0,1-3.142-.362,17.545,17.545,0,0,1-14.382-10.717,30.51,30.51,0,0,1-2.54-8.063c-.065-.382-.123-.766-.17-1.15q-.128-.985-.191-1.98a30.022,30.022,0,0,1,1.172-10.473c1.124-3.787,3-7.422,3.823-11.239q.051-.243.1-.483a17.709,17.709,0,0,0,.25-1.754c.421-4.689-1.193-9.26-2.458-13.845-.044-.159-.089-.32-.131-.482q-.2-.764-.392-1.526a33.752,33.752,0,0,1-.453-14.877c.032-.161.072-.322.109-.482a22.366,22.366,0,0,1,3.854-8.387A31.181,31.181,0,0,1,136.28,52.6q2.005-1.394,4.147-2.605,1.533-.869,3.142-1.646A58.722,58.722,0,0,1,171.663,42.6c.511.024,1.022.053,1.533.092s1.07.087,1.6.139a109.274,109.274,0,0,1,18.357,3.9c2.022.57,4.041,1.155,6.058,1.729.9.253,1.794.507,2.692.753,4.4,1.207,8.859,2.3,13.377,3.117q1.569.288,3.142.525a84.812,84.812,0,0,0,10.987.99q2.145.045,4.291-.04,1.084-.042,2.169-.125c7.47-.559,14.69-2.431,21.922-4.18q1.569-.38,3.143-.749c1.377-.322,2.753-.634,4.136-.921a37.048,37.048,0,0,1,24.285,2.945,11.521,11.521,0,0,1,4.751,3.44,11.263,11.263,0,0,1,1.6,5.395c.295,2.668.487,5.371.56,8.089,0,.159,0,.32.01.482A77.026,77.026,0,0,1,294.964,84.574Z" transform="translate(-111.33 -41.305)" fill="#e61030" opacity="0.1"/>
      <path id="Path_368" data-name="Path 368" d="M247.46,101.005H246.9v.483h.637Zm-6.377,0a.033.033,0,0,0,0,.013c-.015.132-.032.264-.049.4v.072h4.872v-.029l.341-.454Zm-13.058,0v-15.6h5.6c-.06-.042-.121-.085-.184-.125l-.082-.056-.106-.069c-.061-.038-.123-.076-.187-.112s-.1-.062-.158-.092l-.037-.022h-4.85v-.86l-.131.054-.138.069h-.01l-.029.016-.087.049-.087.049c-.085.049-.17.1-.256.159l-.082.058-.17.116c-.22.156-.436.319-.659.471-.056.038-.112.076-.17.11-.121.076-.245.148-.373.214a1.379,1.379,0,0,1-.17.078l-.092.038-.085.031h0a3.8,3.8,0,0,1-.613.17V101h-8.4a.2.2,0,0,0,.017.051c.046.145.092.288.136.433h8.263v16.72h.128l.148.009.267.016.428.054.2.02.213.024h.032l.377.049.08.011.182.027.261.04h0l.625-.029h0l.085.016a.559.559,0,0,1,.106.018V101.489h13.006v-.072c.017-.134.034-.266.049-.4a.033.033,0,0,1,0-.013Zm19.435,0H246.9v.483h.637Zm-6.728,0c-.02.161-.039.322-.06.483h5.433l.37-.483Zm-12.707,0v-15.6h5.6c-.06-.042-.121-.085-.184-.125l-.082-.056-.106-.069c-.061-.038-.123-.076-.187-.112s-.1-.062-.158-.092l-.037-.022h-4.85v-.86l-.131.054-.138.069h-.01l-.029.016-.087.049-.087.049c-.085.049-.17.1-.256.159l-.082.058-.17.116c-.22.156-.436.319-.659.471-.056.038-.112.076-.17.11-.121.076-.245.148-.373.214a1.38,1.38,0,0,1-.17.078l-.092.038-.085.031h0a3.8,3.8,0,0,1-.613.17V101h-8.4a.2.2,0,0,0,.017.051c.046.143.094.288.138.433h8.261V118.2h.128l.148.009.267.016.428.056.2.02.213.024h.032l.377.049.08.011.182.027.261.04h0l.625-.029h0l.085.016a.559.559,0,0,1,.106.018V101.489h12.665c.02-.161.039-.322.06-.483Zm42.513-32.484h35.345c0-.161,0-.322-.01-.482H270.537V49.1q-1.574.362-3.143.749v18.19H228.953l-.1-.092.147-.138h0l14.3-13.653q-2.147.087-4.291.04L228.023,64.685V53.209q-1.574-.237-3.142-.525V64.156L208.818,48.814c-2.017-.574-4.036-1.159-6.058-1.729l21.846,20.862-.1.092H184.4V43.2q-.8-.08-1.6-.139c-.511-.04-1.022-.069-1.533-.092V68.039h-28.1V48.718q-1.591.775-3.142,1.646V68.039H134.759c-.037.159-.077.32-.109.482h15.375v16.4h-14.53c.043.161.087.322.131.482h14.4v15.6H137.834q-.046.241-.1.483h12.288V145.1c1.022.168,2.08.286,3.142.362V101.489h28.095v40.1c1.055-.3,2.1-.608,3.143-.936V101.489h40.478v35.039a25.537,25.537,0,0,0,3.114-.934l.027-.011V101.489h39.369v16.434q1.567-.244,3.143-.469V101.489h27.994c.092-.161.182-.322.273-.483H270.537v-15.6h33.926c.036-.159.066-.32.1-.482H270.537Zm-117.371,0h28.095v16.4H153.167Zm0,32.484v-15.6h28.095v15.6ZM184.4,68.521h40.478v16.4H184.4Zm0,32.484v-15.6h40.478v15.6Zm82.989,0H228.025v-15.6h39.369Zm0-16.081H228.025V68.961l.552-.44h38.817Zm-26.311,16.081a.033.033,0,0,0,0,.013c-.015.132-.032.264-.049.4v.072h4.872v-.029l.341-.454Zm6.377,0H246.9v.483h.637Zm-19.435,0v-15.6h5.6c-.06-.042-.121-.085-.184-.125l-.082-.056-.106-.069c-.061-.038-.123-.076-.187-.112s-.1-.062-.158-.092l-.037-.022h-4.85v-.86l-.131.054-.138.069h-.01l-.029.016-.087.049-.087.049c-.085.049-.17.1-.256.159l-.082.058-.17.116c-.22.156-.436.319-.659.471-.056.038-.112.076-.17.11-.121.076-.245.148-.373.214a1.379,1.379,0,0,1-.17.078l-.092.038-.085.031h0a3.8,3.8,0,0,1-.613.17V101h-8.4a.2.2,0,0,0,.017.051c.046.145.092.288.136.433h8.263v16.72h.128l.148.009.267.016.428.054.2.02.213.024h.032l.377.049.08.011.182.027.261.04h0l.625-.029h0l.085.016a.559.559,0,0,1,.106.018V101.489h13.006v-.072c.017-.134.034-.266.049-.4a.033.033,0,0,1,0-.013Z" transform="translate(-120.929 -41.656)" fill="#e61030" opacity="0.1"/>
      <path id="Path_369" data-name="Path 369" d="M317.569,117.086h.244a.522.522,0,0,1-.3-.422h0c0-.333.469-.6,1.041-.6h7.285c.572,0,1.039.272,1.039.6h0c0,.331-.467.6-1.039.6H325.6a.517.517,0,0,1,.3.42c0,.284-.341.523-.8.587h2.1c.571,0,1.039.272,1.039.6s-.469.6-1.039.6H319.91c-.571,0-1.039-.273-1.039-.6,0-.284.341-.521.8-.587h-2.1c-.572,0-1.039-.272-1.039-.6S317,117.086,317.569,117.086Z" transform="translate(-271.823 -101.514)" fill="#6c63ff" opacity="0.1"/>
      <path id="Path_370" data-name="Path 370" d="M781.009,148.856h.244a.522.522,0,0,1-.3-.422h0c0-.333.467-.6,1.039-.6h7.285c.572,0,1.041.272,1.041.6h0c0,.331-.469.6-1.041.6h-.242a.522.522,0,0,1,.3.422c0,.284-.341.523-.8.587h2.1c.572,0,1.039.272,1.039.6s-.467.6-1.039.6h-7.285c-.572,0-1.041-.273-1.041-.6,0-.284.341-.523.8-.587h-2.1c-.571,0-1.039-.272-1.039-.6S780.438,148.856,781.009,148.856Z" transform="translate(-656.31 -127.533)" fill="#6c63ff" opacity="0.1"/>
      <path id="Path_371" data-name="Path 371" d="M251.931,284.816h.242a.521.521,0,0,1-.3-.422h0c0-.331.469-.6,1.039-.6H260.2c.571,0,1.039.273,1.039.6h0c0,.333-.469.6-1.039.6h-.244a.515.515,0,0,1,.3.42c0,.284-.341.523-.8.587h2.1c.572,0,1.041.273,1.041.6s-.469.6-1.041.6h-7.278c-.572,0-1.039-.272-1.039-.6,0-.282.341-.521.8-.587h-2.1c-.572,0-1.041-.272-1.041-.6S251.365,284.816,251.931,284.816Z" transform="translate(-217.366 -238.879)" fill="#6c63ff" opacity="0.1"/>
      <path id="Path_531" data-name="Path 531" d="M23,18.359c6.479-.075,11.532,16.21,11.285,36.374S28.587,91.3,22.107,91.379,10.575,75.169,10.822,55,16.522,18.434,23,18.359Z" transform="translate(77.778 113.812) rotate(-78.45)" fill="#6c63ff" opacity="0.1"/>
      <path id="Path_372" data-name="Path 372" d="M828.56,378.84s1.937-10.1,9.333-9.167c0,0,5.111.373,6.162,3.928v7.859Z" transform="translate(-696.622 -309.165)" fill="#e61030"/>
      <path id="Path_373" data-name="Path 373" d="M650.309,379.312l-65.858-5.8L576,375.382l.528,12.536.576.074.656,18.826,64.624,12.348,6.869-6.175V392.584l.879-.549Z" transform="translate(-477.87 -305.893)" fill="#e61030"/>
      <path id="Path_374" data-name="Path 374" d="M976.677,405.56l-.177,12.723-7.131,3.555-.089-13.286Z" transform="translate(-804.15 -332.14)" opacity="0.05"/>
      <path id="Path_375" data-name="Path 375" d="M972.96,478.94l.087,20.022-6.867,6.175.441-23.2Z" transform="translate(-801.578 -392.236)" fill="#e61030" opacity="0.05"/>
      <path id="Path_376" data-name="Path 376" d="M582.759,454.767l65.774,8.528.034-1.618L582.71,454.13Z" transform="translate(-483.437 -371.918)" opacity="0.05"/>
      <path id="Path_377" data-name="Path 377" d="M974.246,479.675v-.735L967.73,482v1.622Z" transform="translate(-802.864 -392.236)" opacity="0.05"/>
      <path id="Path_378" data-name="Path 378" d="M575.48,375.382l8.452-1.872,65.858,5.8-7.4,2.992Z" transform="translate(-477.439 -305.893)" fill="#efc6cd"/>
      <path id="Path_379" data-name="Path 379" d="M946.852,407.55l3.232.224-5.356,1.7L942,409.27Z" transform="translate(-781.517 -333.77)" opacity="0.1"/>
      <path id="Path_380" data-name="Path 380" d="M946.852,406.72l3.232.224-5.356,1.705L942,408.44Z" transform="translate(-781.517 -333.09)" fill="#fff"/>
      <path id="Path_381" data-name="Path 381" d="M1022.32,444.485c.128-.058.262.052.4.08.078.016.158,0,.237.016.158.022.315.134.467.078" transform="translate(-857.372 -370.47)" fill="#d3dae1"/>
      <path id="Path_382" data-name="Path 382" d="M1021.34,445.054c.126-.058.262.051.4.08.078.014.158,0,.237.014.158.024.315.136.467.08" transform="translate(-856.559 -370.936)" fill="#d3dae1"/>
      <path id="Path_383" data-name="Path 383" d="M1019.08,446.194c.128-.058.264.051.4.078.077.016.158,0,.235.016.16.024.317.136.467.078" transform="translate(-854.684 -371.869)" fill="#d3dae1"/>
      <path id="Path_384" data-name="Path 384" d="M864.852,398.21l3.232.226-5.356,1.7L860,399.93Z" transform="translate(-713.487 -326.121)" opacity="0.1"/>
      <path id="Path_385" data-name="Path 385" d="M864.852,397.39l3.232.224-5.356,1.7L860,399.11Z" transform="translate(-713.487 -325.449)" fill="#fff"/>
      <path id="Path_386" data-name="Path 386" d="M940.32,435.154c.128-.058.262.051.4.08.078.014.158,0,.237.014.158.024.315.136.467.08" transform="translate(-789.342 -362.828)" fill="#d3dae1"/>
      <path id="Path_387" data-name="Path 387" d="M939.34,435.724c.126-.058.262.051.4.078.078.016.158,0,.237.016.158.024.315.136.467.078" transform="translate(-788.529 -363.295)" fill="#d3dae1"/>
      <path id="Path_388" data-name="Path 388" d="M937.08,436.855c.128-.058.264.052.4.08.077.016.158,0,.235.016.16.022.317.136.467.078" transform="translate(-786.654 -364.221)" fill="#d3dae1"/>
      <path id="Path_389" data-name="Path 389" d="M904.182,402.88l3.234.224-5.356,1.705-2.729-.21Z" transform="translate(-746.117 -329.946)" opacity="0.1"/>
      <path id="Path_390" data-name="Path 390" d="M904.182,402.06l3.234.224-5.356,1.7-2.729-.21Z" transform="translate(-746.117 -329.274)" fill="#fff"/>
      <path id="Path_391" data-name="Path 391" d="M979.65,439.824c.128-.058.264.051.4.078.077.016.157,0,.235.016.158.022.317.136.467.078" transform="translate(-821.971 -366.653)" fill="#d3dae1"/>
      <path id="Path_392" data-name="Path 392" d="M978.67,440.385c.128-.058.264.053.4.08.077.016.157,0,.235.016.158.022.317.136.467.078" transform="translate(-821.158 -367.112)" fill="#d3dae1"/>
      <path id="Path_393" data-name="Path 393" d="M976.42,441.524c.126-.058.262.051.4.08.078.014.158,0,.237.014.158.024.315.136.467.08" transform="translate(-819.292 -368.045)" fill="#d3dae1"/>
      <ellipse id="Ellipse_74" data-name="Ellipse 74" cx="34.495" cy="7.545" rx="34.495" ry="7.545" transform="translate(50.4 128.175)" fill="#6c63ff" opacity="0.1"/>
      <path id="Path_394" data-name="Path 394" d="M453.514,265.546a25.7,25.7,0,0,0-1.825-6.715l.111-1.159s.024-.579-.012-1.448a6.98,6.98,0,0,1,.2-1.608,3.474,3.474,0,0,0-.448-2.353c-.075-.114.037-2.317-.634-3.4s-5.142-3.09-5.142-3.09-.24-.534-.579-1.159l.031-.063a6.8,6.8,0,0,0-1.022-1.465c-.274-.311-.538-.489-.751-.4a6.864,6.864,0,0,1-.2-.918c.044.013.09.025.135.034a1.31,1.31,0,0,0,.562.014,1.708,1.708,0,0,0,.923-.869,14.342,14.342,0,0,0,2.353-6.117,4.127,4.127,0,0,0-.06-1.351,4.712,4.712,0,0,0-.4-.987,7.971,7.971,0,0,0-1.124-1.761,6.307,6.307,0,0,0-3.021-1.758,9.862,9.862,0,0,0-3.9-.31c-.341.042-.681.1-1.022.125a9.993,9.993,0,0,1-1.3-.024l-2.23-.138-.01-.036-.371-.024a1.047,1.047,0,0,0,.182.967,1.7,1.7,0,0,1,.376.934,1.957,1.957,0,0,1-.431.905.914.914,0,0,0-.138.947.532.532,0,0,0,.09.105,1.075,1.075,0,0,0,.819.232h.051a6.142,6.142,0,0,0-1.13,3.57,6.055,6.055,0,0,0,3.082,5.319c.032.118.065.239.1.362a11.755,11.755,0,0,1,.358,3.914l-.039.091-.024-.1s-2.627,1.894-3.407,2.4a5.287,5.287,0,0,0-1.6,2.665c-.037.463-1.267,7.453-1.267,7.453a17.934,17.934,0,0,0-.617,2.158l-1.569,1.465a22.711,22.711,0,0,1-4.174.078l.027.192a13.372,13.372,0,0,0-2.515-.362,2.523,2.523,0,0,0-1.363.194l-.032.016-.026.013a5.157,5.157,0,0,0-1.431.427c-.055.024-.1.047-.152.071l.01-.237-3.5-.192-1.789-.386s-.634-.543-1.007-.463-1.155-.463-1.155-.463a3.1,3.1,0,0,0-.576-.38c-.06-.438-.1-.7-.1-.7s-1.392-5.869-2.435-9.32a8,8,0,0,0-2.3-3.934c-.264-.489-.438-.8-.438-.8a3.6,3.6,0,0,0-.9-1.4c-.026-.043-.044-.065-.055-.065a.189.189,0,0,0-.1.016,12.219,12.219,0,0,1-.015-5.185,5.869,5.869,0,0,0,1.966-4.41V234.5a5.915,5.915,0,0,0-1.266-3.675l-.058-.069a.463.463,0,0,0,.044-.038,1,1,0,0,0,.322-.934,6.555,6.555,0,0,0-.463-.95,6.474,6.474,0,0,1-.189-.775,2.43,2.43,0,0,0-.537-.994l.026.072a3.125,3.125,0,0,0-2.85-1.017c-.768.13-1.484.511-2.256.628-.554.083-1.118.029-1.675.089a4.155,4.155,0,0,0-1.486.456.857.857,0,0,0-.315.246,1.379,1.379,0,0,0-.157.465,6.168,6.168,0,0,1-1.223,1.868,4.545,4.545,0,0,0-.825,2.415,2,2,0,0,0,.06.661c.037.129.1.25.123.38a2.753,2.753,0,0,1-.206,1.189,2.45,2.45,0,0,0,.121,1.51c.673,1.6,2.883,2.134,3.343,3.814a4.21,4.21,0,0,0,1.106.362c.031.167.058.335.08.505a.126.126,0,0,0-.029.018,3.728,3.728,0,0,0-.745,1.81l-.072.062c-.244.214-1.077.931-1.83,1.483-.894.657-2.385,2.859-3.428,3.516s-1.9,4.707-1.676,6.179,1.155,5.6.782,7.106.559,8.38.559,8.38a9.105,9.105,0,0,1,1.826.576l-.019.3-.056.905s-1.688,6.488-1.043,11.483-.3,5.509-.3,5.509.2,2.214-.3,2.987a6.76,6.76,0,0,0-.6,2.471s-.049,3.811.049,4.888.148,3.04-.2,3.5a14.119,14.119,0,0,0-.944,4.426c.049.927-1.242,3.04-.547,5.768a2.069,2.069,0,0,1-2.044,2.781s.349,4.164,1.094,5.355l.109.17c-.019.069-.037.141-.058.219-.281,1.086-.666,2.8-.4,3.215.4.619.6.514.6.514l.148,2.781s2.981,2.677,5.268,2.576,1.838-2.576,1.838-2.576l-1.947-5.366-.066-.181,2.164-4.345s.6-1.9.744-2.574.957-3.043.957-3.043,2.044-5.149,2.087-5.768.2-3.963.6-4.634a44.726,44.726,0,0,0,1.491-4.526l.027.025a1.592,1.592,0,0,1,.371,1.519,12.889,12.889,0,0,0-.1,2.985,21.531,21.531,0,0,1-.3,2.576,58.5,58.5,0,0,0,.1,9.73,29.252,29.252,0,0,1,.256,4.868c-.233,1.023-.438,2.294-.058,2.444a22.637,22.637,0,0,0,3.927.206s1.39-.516,3.28,1.287,7.7-.514,7.7-.514,1.789-.516-1.739-2.008a29.216,29.216,0,0,1-5.09-2.477c.024-.049.049-.1.072-.15,0,0-1.441-1.448-.249-4.015a11.769,11.769,0,0,0,1.143-4.738l.2-8.652-.6-11.485-.462-12.053.082-.029c.078,2.216.486,7.491,2.617,6.468,2.683-1.287.4-4.634.4-4.634l-1.2-2.495.359-.13-1.348-4.627a11.085,11.085,0,0,1-.051-2.728,11.48,11.48,0,0,0-.031-1.593,25.4,25.4,0,0,1,3.758-.6,31.408,31.408,0,0,0,3.147.114c-.257.214-.463.425-.463.425l3.2,2.292s1.087-.632,1.314-1.3a1.39,1.39,0,0,0,.6-.34c.034.791.232,1.647.92,1.667a1.131,1.131,0,0,0,.5-.1l5.24-1.1-.45,2.985.313.592c-.158,2.518-.341,5.192-.5,7.544l-.073.514.037.009c-.249,3.621-.448,6.363-.448,6.363a3.246,3.246,0,0,1,1.307-1.4l.034,5.373s.262,8.5.262,9.654.036,3.746.036,3.746.56,3.166.894,4.209a49.244,49.244,0,0,1,.6,5.793s.784,1.312.448,1.81,1.3,1.582,1.3,1.582a6.975,6.975,0,0,0-1.119,2.511c-.008.116.1.239.293.362-.061.052-.124.105-.194.156a3.243,3.243,0,0,1-2.259.485c-2.908-.272-4.958,2.587-3.169,3.166s7.155.7,7.155.7,1.625-1.077,2.9-.592c-.019,1.133.034,2.172.043,2.31l-.015.013a11.769,11.769,0,0,1-3.636,2.478c-2.044.733-2.5,3.708.148,4.093a22.8,22.8,0,0,0,6.522-.463,11.807,11.807,0,0,1,3.54-1.93c1.528-.348,2.833-1.121,2.573-2.047-.17-.592-.608-2.143-.9-3.186q-.026-.094-.051-.181c.046-.109.092-.221.135-.337,0,0-.782-4.325-.148-5.406s.3-11.9.3-11.9-1.082-2.741-.521-4.4-.894-4.017-.894-4.017.158-4.723.584-7.355l.056-.326a13.467,13.467,0,0,0,2.078-.853s.373-5.949.6-7.3c.022-.127.053-.331.09-.6l.17-.954h0l.2-1.086h0l.681-3.7,1.23-1.691,3.169-3.44A11.52,11.52,0,0,0,453.514,265.546Zm-48.867-21.241-.024.018a.332.332,0,0,1-.009-.04A.153.153,0,0,0,404.647,244.306Zm31.308,4.216-.123.284.448-.474-.608.724.2-.456Zm-3.026,6.644c-.118.331-.244.69-.375,1.063l.24-.762Z" transform="translate(-330.843 -191.616)" fill="url(#linear-gradient)"/>
      <path id="Path_395" data-name="Path 395" d="M595.615,441.429s-.417,2.953.835,2.991,2.089-2.277,2.089-2.277l-.511-1.852Z" transform="translate(-503.306 -367.048)" fill="#585b8a"/>
      <path id="Path_396" data-name="Path 396" d="M595.615,441.429s-.417,2.953.835,2.991,2.089-2.277,2.089-2.277l-.511-1.852Z" transform="translate(-503.306 -367.048)" opacity="0.2"/>
      <path id="Path_397" data-name="Path 397" d="M402.342,754.454c-2.228.1-5.135-2.572-5.135-2.572l-.145-2.779s-.193.1-.581-.514c-.261-.415.114-2.133.388-3.213.133-.529.242-.905.242-.905L402,745.86l.233.657,1.9,5.362S404.568,754.351,402.342,754.454Z" transform="translate(-338.08 -616.161)" fill="#0065b3"/>
      <path id="Path_398" data-name="Path 398" d="M491.477,729.411s-5.665,2.315-7.5.514-3.2-1.287-3.2-1.287a21.5,21.5,0,0,1-3.826-.206c-.371-.15-.17-1.437.061-2.462.157-.708.327-1.293.327-1.293s5.568-2.008,6.44-.773a4.3,4.3,0,0,0,.928.941,26.375,26.375,0,0,0,5.077,2.558C493.22,728.9,491.477,729.411,491.477,729.411Z" transform="translate(-404.75 -598.99)" fill="#0065b3"/>
      <path id="Path_399" data-name="Path 399" d="M526.5,496.35l1.549,3.293s2.228,3.345-.387,4.631-2.566-7.408-2.566-7.408Z" transform="translate(-444.86 -412.959)" fill="#ffd6d6"/>
      <path id="Path_400" data-name="Path 400" d="M495.25,338.61s1.7.824,2.712,4.271,2.373,9.314,2.373,9.314a75.566,75.566,0,0,1,.773,8.284,11.344,11.344,0,0,0,.049,2.726l1.307,4.631-2.615.978-4.019-16.362Z" transform="translate(-420.096 -283.775)" fill="#dce6f2"/>
      <path id="Path_401" data-name="Path 401" d="M495.25,338.61s1.7.824,2.712,4.271,2.373,9.314,2.373,9.314a75.566,75.566,0,0,1,.773,8.284,11.344,11.344,0,0,0,.049,2.726l1.307,4.631-2.615.978-4.019-16.362Z" transform="translate(-420.096 -283.775)" opacity="0.05"/>
      <path id="Path_402" data-name="Path 402" d="M404.3,745.878l.233.657-.286.581c-1.114.514-3.874.1-3.874.1s-.511-.69-1.21-1.825c.133-.529.242-.905.242-.905Z" transform="translate(-340.376 -616.178)" opacity="0.1"/>
      <path id="Path_403" data-name="Path 403" d="M486.118,725.088c-1.412,3.4-6.213,2.138-7.547,1.713-.22-.071-.341-.118-.341-.118s.009-.277.012-.713c.157-.708.327-1.293.327-1.293s5.568-2.008,6.44-.773a4.3,4.3,0,0,0,.928.941A1.733,1.733,0,0,0,486.118,725.088Z" transform="translate(-405.975 -598.99)" opacity="0.1"/>
      <path id="Path_404" data-name="Path 404" d="M414.849,505.635c-1.162,2.571.244,4.013.244,4.013-1.412,3.4-6.213,2.138-7.547,1.711-.22-.069-.341-.116-.341-.116a33.289,33.289,0,0,0-.242-5.25,59.885,59.885,0,0,1-.1-9.723,21.946,21.946,0,0,0,.29-2.574,13.322,13.322,0,0,1,.1-2.983,1.609,1.609,0,0,0-.361-1.517l-.026-.027a44.712,44.712,0,0,1-1.453,4.526c-.388.666-.532,4.013-.581,4.631s-2.034,5.764-2.034,5.764-.773,2.366-.918,3.034-.727,2.574-.727,2.574l-2.334,4.786c-1.114.514-3.874.1-3.874.1s-.532-.724-1.259-1.9-1.065-5.349-1.065-5.349a2.046,2.046,0,0,0,1.985-2.779c-.678-2.726.581-4.837.533-5.764a14.425,14.425,0,0,1,.92-4.424c.339-.463.29-2.419.193-3.5s-.048-4.888-.048-4.888a6.877,6.877,0,0,1,.581-2.469c.484-.771.291-2.985.291-2.985s.918-.514.29-5.505,1.022-11.474,1.022-11.474l.056-.905.089-1.466s13.849-.927,14.963.2a3.914,3.914,0,0,1,.707,1.077,11.211,11.211,0,0,1,.8,2.739l.581,15.591.581,11.474-.194,8.644A12.1,12.1,0,0,1,414.849,505.635Z" transform="translate(-334.95 -383.858)" fill="#464353"/>
      <path id="Path_405" data-name="Path 405" d="M479.378,538.42l-1.453,33.444-1.745,3.049c-.22-.069-.341-.116-.341-.116a33.288,33.288,0,0,0-.242-5.25,59.889,59.889,0,0,1-.1-9.723,21.946,21.946,0,0,0,.29-2.574,13.322,13.322,0,0,1,.1-2.983,1.609,1.609,0,0,0-.361-1.517l.024-.181Z" transform="translate(-403.585 -447.413)" opacity="0.1"/>
      <path id="Path_406" data-name="Path 406" d="M406.675,731.443s3.777-1.595,4.358-1.086-4.453,1.285-4.453,1.285Z" transform="translate(-346.532 -604.521)" opacity="0.1"/>
      <path id="Path_407" data-name="Path 407" d="M499.488,713.5c-.145.052-3.825,1.448-3.486,2.933S499.488,713.5,499.488,713.5Z" transform="translate(-420.702 -590.798)" opacity="0.1"/>
      <path id="Path_408" data-name="Path 408" d="M449.07,284.424s1.233,3.164.581,4.787,7.045,4.4,7.045,4.4-2.25-6.175-.072-9.649S449.07,284.424,449.07,284.424Z" transform="translate(-381.783 -237.846)" fill="#ffd6d6"/>
      <path id="Path_409" data-name="Path 409" d="M657.138,770.73a11.434,11.434,0,0,0-3.45,1.93,21.672,21.672,0,0,1-6.356.463c-2.579-.386-2.141-3.358-.145-4.091a11.566,11.566,0,0,0,3.545-2.475c.327-.32.521-.543.521-.543l7.229-1.544s.117.429.281,1.021c.29,1.045.717,2.594.881,3.184C659.9,769.611,658.627,770.383,657.138,770.73Z" transform="translate(-544.783 -632.541)" fill="#0065b3"/>
      <path id="Path_410" data-name="Path 410" d="M629.527,739.833s-3.051.348-4.322-.424-3.087.463-3.087.463-5.23-.116-6.973-.7.254-3.44,3.087-3.164a3.1,3.1,0,0,0,2.2-.485,2.478,2.478,0,0,0,.959-1.528l6.133.386.852,2.31Z" transform="translate(-519.024 -607.587)" fill="#0065b3"/>
      <path id="Path_411" data-name="Path 411" d="M657.408,737.749s-7.128-1.238-8.038-2.221a2.478,2.478,0,0,0,.959-1.528l6.133.386.852,2.31Z" transform="translate(-547.959 -607.587)" opacity="0.1"/>
      <path id="Path_412" data-name="Path 412" d="M634.52,513.061l.073,11.305s.254,8.49.254,9.649.036,3.742.036,3.742.545,3.164.872,4.207a50.1,50.1,0,0,1,.581,5.793s.763,1.313.436,1.81,1.271,1.582,1.271,1.582a6.949,6.949,0,0,0-1.089,2.509c-.066,1,8.133,2.428,8.133,2.428l-3.194-34.807-2.544-8.72Z" transform="translate(-535.639 -426.235)" fill="#575988"/>
      <path id="Path_413" data-name="Path 413" d="M634.52,513.061l.073,11.305s.254,8.49.254,9.649.036,3.742.036,3.742.545,3.164.872,4.207a50.1,50.1,0,0,1,.581,5.793s.763,1.313.436,1.81,1.271,1.582,1.271,1.582a6.949,6.949,0,0,0-1.089,2.509c-.066,1,8.133,2.428,8.133,2.428l-3.194-34.807-2.544-8.72Z" transform="translate(-535.639 -426.235)" fill="#464353" opacity="0.801"/>
      <path id="Path_414" data-name="Path 414" d="M684.041,765.5c-2.373,6.012-8.017,1.372-8.017,1.372s0-.116-.014-.315c.327-.32.521-.543.521-.543l7.229-1.544S683.877,764.908,684.041,765.5Z" transform="translate(-570.061 -632.541)" opacity="0.1"/>
      <path id="Path_415" data-name="Path 415" d="M656.936,552.942c-2.326,6.336-8.1,1.582-8.1,1.582a23.545,23.545,0,0,1,.182-4.785c.365-1.5-.4-6.021-.4-6.021a34.293,34.293,0,0,0-.835-4.939,9.322,9.322,0,0,1-.363-2.933,5.938,5.938,0,0,0-.182-2.239,15.929,15.929,0,0,1-.511-2.933,32.847,32.847,0,0,0-.327-4.669l-1.126-5.974L643.24,507.8l.635-.116,11.385-2.122s2.143,11.586,1.416,12.774a5.222,5.222,0,0,0-.409,1.566c-.416,2.629-.571,7.348-.571,7.348s1.416,2.353.872,4.013.511,4.4.511,4.4.327,10.806-.291,11.887S656.936,552.942,656.936,552.942Z" transform="translate(-542.873 -420.502)" fill="#464353"/>
      <path id="Path_416" data-name="Path 416" d="M675.931,296.09s-10.314,7.717-7.99,3.858c1.252-2.078,1.022-4.725.532-6.724a16.514,16.514,0,0,0-1.022-2.949s8.763-3.961,7.6-.411a7.037,7.037,0,0,0-.341,2.578A7.156,7.156,0,0,0,675.931,296.09Z" transform="translate(-562.959 -242.644)" fill="#d28690"/>
      <path id="Path_417" data-name="Path 417" d="M582.246,425.846s-4.358-1.338-5.084-.025.218,4.193,1.533,4.656,4.334-1.57,4.334-1.57Z" transform="translate(-487.844 -354.725)" fill="#d28690"/>
      <path id="Path_418" data-name="Path 418" d="M607.087,416l-1.816,1.776a21.63,21.63,0,0,1-4.068.076s.836,5.943-.363,6.676l7.336-1.582Z" transform="translate(-507.697 -347.155)" fill="#585b8a"/>
      <path id="Path_419" data-name="Path 419" d="M607.087,416l-1.816,1.776a21.63,21.63,0,0,1-4.068.076s.836,5.943-.363,6.676l7.336-1.582Z" transform="translate(-507.697 -347.155)" fill="#464353" opacity="0.801"/>
      <path id="Path_420" data-name="Path 420" d="M447.532,247.847a5.63,5.63,0,0,1-5.452,5.793c-2.8-1.428-5.452-2.591-5.452-5.793a5.889,5.889,0,0,1,2.66-5.207,5.177,5.177,0,0,1,5.576,0,5.889,5.889,0,0,1,2.66,5.207Z" transform="translate(-371.458 -204.512)" opacity="0.1"/>
      <path id="Path_421" data-name="Path 421" d="M447.649,248.087a5.7,5.7,0,0,1-4.509,5.7,5.41,5.41,0,0,1-6.055-3.748,5.953,5.953,0,0,1,2.442-6.98,5.226,5.226,0,0,1,6.889,1.366A6.02,6.02,0,0,1,447.649,248.087Z" transform="translate(-371.575 -204.907)" fill="#ffd6d6"/>
      <path id="Path_422" data-name="Path 422" d="M442.575,462.485a12.076,12.076,0,0,1-1.688.931s-2.76-.425-3.159.076-3.918.7-3.918.7-5.375-.27-6.174-1a3.235,3.235,0,0,0-.816-.514l.089-1.466s13.849-.927,14.963.2a3.916,3.916,0,0,1,.7,1.077Z" transform="translate(-363.324 -383.882)" opacity="0.1"/>
      <path id="Path_423" data-name="Path 423" d="M428.128,336.455c-.109.655-2.361,1.658-2.361,1.658s-2.76-.424-3.159.078-3.918.7-3.918.7-5.375-.272-6.174-1a6.686,6.686,0,0,0-2.579-1.086s-.908-6.868-.543-8.373-.545-5.636-.763-7.1.617-5.518,1.634-6.173,2.47-2.857,3.341-3.512c.734-.552,1.545-1.267,1.782-1.483l.07-.062a3.786,3.786,0,0,1,.727-1.81c.581-.614,5.918,3.9,5.918,3.9s.037.348.4-.308c.082-.147.785.932.908,1.389,0,0,2.9,5.4,3.087,6.517s.944,4.747,1.089,5.634c.037.228.1,1.028.17,2.1.014.21.026.433.041.664.107,1.778.223,4.048.293,5.764,0,.2.015.384.02.565Q428.166,335.478,428.128,336.455Z" transform="translate(-348.204 -258.889)" fill="#dce6f2"/>
      <path id="Path_424" data-name="Path 424" d="M415,387.21s2,2.585,2.651,2.585S415,387.21,415,387.21Z" transform="translate(-353.517 -323.577)" opacity="0.1"/>
      <path id="Path_425" data-name="Path 425" d="M425.7,417.91s-3.269,3.782-2.833,4.477S425.7,417.91,425.7,417.91Z" transform="translate(-360.009 -348.719)" opacity="0.1"/>
      <path id="Path_426" data-name="Path 426" d="M425.62,432.945s3.748-4.361,3.918-5.865Z" transform="translate(-362.328 -356.229)" opacity="0.1"/>
      <path id="Path_427" data-name="Path 427" d="M453.33,439.787s4.322-2.431,4.685-4.361S453.33,439.787,453.33,439.787Z" transform="translate(-385.317 -362.763)" opacity="0.1"/>
      <path id="Path_428" data-name="Path 428" d="M482.6,329.3l-.6,1.542,1,.5.981,2.915s2.705,5.75,2.6,8.74a56.234,56.234,0,0,0,.491,7.486l1.561-.308-.736-8.8a13.332,13.332,0,0,0-.951-3.948c-1.247-3.034-3.567-8.635-3.714-8.635-.2,0-.06.078-.06.078Z" transform="translate(-409.103 -275.741)" opacity="0.1"/>
      <path id="Path_429" data-name="Path 429" d="M483.45,328.451l-.6,1.544,1,.5.98,2.915s2.705,5.75,2.6,8.74a56.234,56.234,0,0,0,.491,7.486l1.562-.308-.738-8.8a13.281,13.281,0,0,0-.949-3.948c-1.247-3.036-3.567-8.635-3.712-8.635-.2,0-.061.078-.061.078Z" transform="translate(-409.808 -275.045)" fill="#464353"/>
      <path id="Path_430" data-name="Path 430" d="M572.583,431.695a13.177,13.177,0,0,1-3.307-1.448l-.307-.181.037-2.989a4.838,4.838,0,0,1,.555-.3c.968-.449,2.952-1.059,3.947.905C574.853,430.317,573.546,431.764,572.583,431.695Z" transform="translate(-481.256 -355.609)" fill="#ffd6d6"/>
      <path id="Path_431" data-name="Path 431" d="M446.273,244.337a.78.78,0,0,1-.254.11c-.632.147-1.351-.431-1.893-.06a1.5,1.5,0,0,0-.451,1.117q-.116,1.086-.232,2.158a2.806,2.806,0,0,1-.15.744,1.734,1.734,0,0,1-1.671.945.959.959,0,0,1-.721-.253c-.118-.127-.181-.3-.31-.42-.852-.759-1.111,1.1-.886,1.629.361.864,1.644,1.7,1.106,2.793a1.018,1.018,0,0,1-.4.422,5.917,5.917,0,0,1-.262-10.961A5.252,5.252,0,0,1,446.273,244.337Z" transform="translate(-371.432 -204.819)" opacity="0.1"/>
      <path id="Path_432" data-name="Path 432" d="M431.908,236.83c.128.114.193.291.31.418a.961.961,0,0,0,.721.253,1.726,1.726,0,0,0,1.67-.947,2.718,2.718,0,0,0,.152-.742l.232-2.158a1.5,1.5,0,0,1,.451-1.117c.542-.362,1.261.206,1.893.06a.986.986,0,0,0,.681-1.133,6.54,6.54,0,0,0-.45-.949,6.522,6.522,0,0,1-.186-.773,2.865,2.865,0,0,0-3.254-1.959c-.75.132-1.446.512-2.2.628-.538.083-1.089.029-1.632.091a3.94,3.94,0,0,0-1.448.454.849.849,0,0,0-.307.246,1.416,1.416,0,0,0-.153.463,6.222,6.222,0,0,1-1.193,1.868,4.63,4.63,0,0,0-.808,2.41,2.048,2.048,0,0,0,.058.661c.036.127.092.25.119.38a2.8,2.8,0,0,1-.2,1.188,2.513,2.513,0,0,0,.119,1.51c.654,1.6,2.809,2.133,3.257,3.811a3.414,3.414,0,0,0,1.268.362,1.2,1.2,0,0,0,1.118-.606c.537-1.086-.745-1.93-1.106-2.792C430.8,237.927,431.049,236.07,431.908,236.83Z" transform="translate(-362.893 -192.978)" fill="#353045"/>
      <path id="Path_433" data-name="Path 433" d="M675.093,289.864a7.037,7.037,0,0,0-.341,2.578c-.262.237-.549-.473-.852-.29-.831.51-1.792,1.725-2.821,1.725a5.382,5.382,0,0,1-2.567-.654,16.509,16.509,0,0,0-1.022-2.949S676.255,286.314,675.093,289.864Z" transform="translate(-562.992 -242.644)" opacity="0.1"/>
      <path id="Path_434" data-name="Path 434" d="M666.593,256.521a5.677,5.677,0,1,1-5.666-6.021A5.852,5.852,0,0,1,666.593,256.521Z" transform="translate(-552.846 -211.616)" fill="#d28690"/>
      <path id="Path_435" data-name="Path 435" d="M652.205,322.966s-1.066,1.235-1.211,1.336-3.237,13.94-3.291,14.1-3.682,12.656-3.682,12.656l-5.811,3.036.486-15.283,4.259-12.6s1.406-1.7,1.84-2.315,5.859-4.323,5.859-4.323l.927,2.029Z" transform="translate(-538.7 -268.182)" fill="#f0f3f7"/>
      <path id="Path_436" data-name="Path 436" d="M682.789,323.309l-6.682,5.083L676,325.6c.436-.617,5.859-4.321,5.859-4.321Z" transform="translate(-570.052 -269.583)" opacity="0.1"/>
      <path id="Path_437" data-name="Path 437" d="M683.656,321.6l-6.682,5.083-.1-2.79c.436-.619,5.859-4.323,5.859-4.323Z" transform="translate(-570.774 -268.182)" fill="#f0f3f7"/>
      <path id="Path_438" data-name="Path 438" d="M635.48,336.59l.223,1.242-1.494,1.613,1.193-2.837S632.846,338.5,632.08,339a5.217,5.217,0,0,0-1.562,2.663c-.029.463-1.235,7.448-1.235,7.448s-.908,2.585-.652,3.318-1.38,23.849-1.38,23.849a3.271,3.271,0,0,1,2.184-1.78l-.583-13.661s.709-9.088.744-9.2l1.653-5.384Z" transform="translate(-529.608 -282.121)" fill="#464353"/>
      <path id="Path_439" data-name="Path 439" d="M639.791,344.3l-.116,2.534a64.55,64.55,0,0,1-2.16,6.309c-.543.887-2.2,6.175-2.2,6.175l-.932,9.186-1.6.773L632,367.736l1.308-8.871s2.469-7.486,2.833-8.259l1.821-4.077Z" transform="translate(-533.548 -288.435)" opacity="0.1"/>
      <path id="Path_440" data-name="Path 440" d="M638.906,343.45l-.114,2.534a64.172,64.172,0,0,1-2.162,6.309,65.3,65.3,0,0,0-2.2,6.175l-.927,9.184-1.6.771-.8-1.542,1.308-8.871s2.469-7.488,2.831-8.259l1.835-4.071Z" transform="translate(-532.81 -287.739)" fill="#0065b3"/>
      <path id="Path_441" data-name="Path 441" d="M566.31,446.5l3.123,2.3s2.2-1.312.92-2.162a5.448,5.448,0,0,0-2.833-.978C567.107,445.66,566.31,446.5,566.31,446.5Z" transform="translate(-479.05 -371.446)" fill="#d28690"/>
      <path id="Path_442" data-name="Path 442" d="M578.9,425.469a.519.519,0,0,0-.227.436c0,.7.075,2.569.63,1.727.681-1.03.557-1.955,1.6-1.287a6.292,6.292,0,0,1,1.67,1.629l-.29-2.212S580.138,424.64,578.9,425.469Z" transform="translate(-489.304 -354.66)" fill="#d28690"/>
      <path id="Path_443" data-name="Path 443" d="M659.353,518.294a5.221,5.221,0,0,0-.409,1.566,11.8,11.8,0,0,1-11.028-2.261,62.162,62.162,0,0,1-1.38-6.173,21.37,21.37,0,0,1,.017-3.784l11.385-2.122S660.08,517.1,659.353,518.294Z" transform="translate(-545.546 -420.469)" opacity="0.1"/>
      <path id="Path_444" data-name="Path 444" d="M665.843,331.238a12.734,12.734,0,0,0-.181,3.049l-2.615,13.121s-1.271,10.111-1.489,11.461-.581,7.294-.581,7.294a11.752,11.752,0,0,1-13.118-1.389,62.287,62.287,0,0,1-1.38-6.175c-.365-2.292.709-11.474,1.216-15.553.152-1.207.254-1.968.254-1.968l1.906-7.526s2.343-6.349,3.215-8.2a46.047,46.047,0,0,1,4.375-6.012c.434-.293,1.13.742,1.646,1.685.39.713.681,1.376.681,1.376s4.358,2.006,5.01,3.078.545,3.28.618,3.4A3.571,3.571,0,0,1,665.843,331.238Z" transform="translate(-545.499 -267.953)" fill="#464353"/>
      <path id="Path_445" data-name="Path 445" d="M662.589,327.266s.327,2.046-.511,2.663c-.809.6-6.833,13.185-7.208,13.97.152-1.209.254-1.97.254-1.97l1.906-7.524s2.344-6.349,3.215-8.2a45.726,45.726,0,0,1,4.377-6.012c.434-.293,1.128.742,1.644,1.685C665.487,323.594,663.864,326.842,662.589,327.266Z" transform="translate(-552.522 -268.649)" opacity="0.1"/>
      <path id="Path_446" data-name="Path 446" d="M661.723,326.416s.325,2.046-.511,2.663S654.38,342.261,654,343.047c.152-1.207.254-1.968.254-1.968l1.906-7.526s2.343-6.349,3.215-8.2a46.047,46.047,0,0,1,4.375-6.012c.434-.293,1.13.742,1.646,1.685C664.62,322.742,663,325.992,661.723,326.416Z" transform="translate(-551.8 -267.953)" fill="#464353"/>
      <path id="Path_447" data-name="Path 447" d="M596.029,409.162l-2.049,11.331v0l-.2,1.084v0l-.441,2.439-1.883-.424-.877-.2-12.142-2.734-.893-.2-2.038-.458.4-2.813.165-1.169,1.47-10.373Z" transform="translate(-477.095 -331.137)" fill="#e9be4e"/>
      <path id="Path_448" data-name="Path 448" d="M664.426,511.92s-4.83,1.852-3.777,4.051,7.808-1.7,7.808-1.7Z" transform="translate(-557.192 -425.71)" fill="#d28690"/>
      <path id="Path_449" data-name="Path 449" d="M703.8,599.1a5.471,5.471,0,0,0,.908,2.817C705.434,602.61,703.8,599.1,703.8,599.1Z" transform="translate(-593.116 -497.108)" opacity="0.1"/>
      <path id="Path_450" data-name="Path 450" d="M675.24,637.68a6.41,6.41,0,0,0,4.32,3.59C683.01,642.313,675.24,637.68,675.24,637.68Z" transform="translate(-569.422 -528.704)" opacity="0.1"/>
      <path id="Path_451" data-name="Path 451" d="M671.96,256.592a6.1,6.1,0,0,1-2.84,5.219,3.067,3.067,0,0,1-.852-.755,1.22,1.22,0,0,1-.291-1.133c.119-.306.434-.5.511-.816a1.274,1.274,0,0,0-.027-.583c-.063-.3-.123-.6-.184-.894-.053-.253-.146-.552-.383-.614s-.434.148-.62.3a1.853,1.853,0,0,1-1.874.328c-.547-.313-.393-1.361-.482-1.928a.345.345,0,0,0-.119-.255.469.469,0,0,0-.247-.018.727.727,0,0,1-.617-.581,5.307,5.307,0,0,1-.1-.932,1.061,1.061,0,0,0-.392-.806,1.148,1.148,0,0,0-.646-.112l-1.068.013a5.48,5.48,0,0,1,6.325-2.14,6,6,0,0,1,3.9,5.709Z" transform="translate(-558.213 -211.687)" opacity="0.1"/>
      <path id="Path_452" data-name="Path 452" d="M662.606,249.976c.186-.156.39-.362.62-.3s.329.362.382.612l.184.892a1.287,1.287,0,0,1,.029.585c-.087.319-.4.511-.521.816a1.22,1.22,0,0,0,.291,1.131,3.039,3.039,0,0,0,1.753,1.113,1.214,1.214,0,0,0,.547.013,1.658,1.658,0,0,0,.9-.867,14.556,14.556,0,0,0,2.293-6.113,4.161,4.161,0,0,0-.058-1.349,4.687,4.687,0,0,0-.388-.987,8.023,8.023,0,0,0-1.1-1.761,6.136,6.136,0,0,0-2.944-1.754,9.4,9.4,0,0,0-3.8-.317c-.341.042-.668.1-1,.125a9.5,9.5,0,0,1-1.264-.022l-2.508-.159a1.087,1.087,0,0,0,.17.967,1.794,1.794,0,0,1,.368.934,1.971,1.971,0,0,1-.421.905.936.936,0,0,0-.135.947.92.92,0,0,0,.852.3l1.264-.014a1.146,1.146,0,0,1,.642.118,1.064,1.064,0,0,1,.392.806,5.644,5.644,0,0,0,.1.932c.087.3.322.585.617.581a.434.434,0,0,1,.247.02.341.341,0,0,1,.119.253c.089.567-.075,1.613.482,1.928A1.87,1.87,0,0,0,662.606,249.976Z" transform="translate(-553.394 -204.343)" fill="#663d5c"/>
      <path id="Path_453" data-name="Path 453" d="M685.171,353.395a2.775,2.775,0,0,0-2.922,1.982c-.681,2.062-1.818,5.782-1.533,7.252.4,2.084.872,5.558.872,5.558s2.07,1.267,1.022,2.545a7.448,7.448,0,0,0-1.344,3.088,3.126,3.126,0,0,0-1.634,1.93c-.29,1.313-2.252,3.125-2.252,3.125L674.44,382s4.866,5.25,5.847,5.518l3.014-3.744,3.559-5.016,3.087-3.44a11.956,11.956,0,0,0,.363-5.25,26.307,26.307,0,0,0-1.78-6.715l.109-1.159S688.972,353.9,685.171,353.395Z" transform="translate(-568.758 -295.87)" opacity="0.1"/>
      <path id="Path_454" data-name="Path 454" d="M686.88,353.4a2.776,2.776,0,0,0-2.918,1.982c-.681,2.062-1.818,5.782-1.533,7.252.4,2.084.871,5.558.871,5.558s2.07,1.267,1.022,2.545a7.433,7.433,0,0,0-1.343,3.088,3.131,3.131,0,0,0-1.635,1.93c-.291,1.312-2.251,3.125-2.251,3.125L676.15,382s4.866,5.25,5.847,5.518l3.014-3.744,3.55-5.016,3.087-3.44a11.923,11.923,0,0,0,.363-5.25,26.424,26.424,0,0,0-1.779-6.715l.109-1.159S690.68,353.9,686.88,353.4Z" transform="translate(-570.177 -295.872)" fill="#464353"/>
      <path id="Path_455" data-name="Path 455" d="M721.28,418.34s3.087,4.012,4.4,3.125S721.28,418.34,721.28,418.34Z" transform="translate(-607.618 -349.071)" opacity="0.1"/>
      <path id="Path_456" data-name="Path 456" d="M728.1,401.28c.327.116,3.015,4.091,4.4,3.621S728.1,401.28,728.1,401.28Z" transform="translate(-613.276 -335.1)" opacity="0.1"/>
      <path id="Path_457" data-name="Path 457" d="M732.58,439a2.075,2.075,0,0,0,2.4,1.968C737.192,440.658,732.58,439,732.58,439Z" transform="translate(-616.993 -365.991)" opacity="0.1"/>
      <path id="Path_458" data-name="Path 458" d="M615.188,301.83l-1.2,2.837,1.5-1.613Z" transform="translate(-509.388 -247.189)" opacity="0.1"/>
      <path id="Path_459" data-name="Path 459" d="M615.188,300.98l-1.2,2.837,1.5-1.613Z" transform="translate(-509.388 -246.493)" fill="#f0f3f7"/>
      <path id="Path_460" data-name="Path 460" d="M580.382,467.592l-.893-.2-1.639-3.271.165-1.169Z" transform="translate(-479.405 -379.141)" opacity="0.3"/>
      <path id="Path_461" data-name="Path 461" d="M667.377,487.65l-.2,1.084v0l-2.324,2.015-.877-.2Z" transform="translate(-550.862 -399.369)" opacity="0.3"/>
      <path id="Path_462" data-name="Path 462" d="M437.753,363.908c-.45.08-.886.152-1.285.206-2.215.31-7.482-2.469-7.482-2.469s-6.428-5.712-8.28-11.114,2.215-6.213,2.215-6.213c1.533-.927,4.867,1.658,5.339,2.084a3.331,3.331,0,0,1,.835,2.2c-.037.7,1.09,1.582,1.09,1.582a34.691,34.691,0,0,0,2.4,3.936,2.047,2.047,0,0,1,.726,1.39c.145.657,1.416,1.2,1.961,1.157s1.193.194,1.193.5c0,.248.533.371.971.411C437.562,359.558,437.69,362.151,437.753,363.908Z" transform="translate(-357.851 -288.287)" opacity="0.1"/>
      <path id="Path_463" data-name="Path 463" d="M439.151,360.551c-.341.058-.668.11-.974.154-2.215.31-7.481-2.469-7.481-2.469s-6.428-5.712-8.28-11.114,2.215-6.213,2.215-6.213c1.533-.927,4.866,1.658,5.337,2.084a3.342,3.342,0,0,1,.836,2.2c-.036.7,1.089,1.582,1.089,1.582a34.691,34.691,0,0,0,2.4,3.936,2.056,2.056,0,0,1,.727,1.39c.147.657,1.416,1.195,1.961,1.157s1.193.194,1.193.5c0,.181.3.3.641.362.014.21.026.433.041.664C438.965,356.565,439.081,358.835,439.151,360.551Z" transform="translate(-359.269 -285.495)" opacity="0.1"/>
      <path id="Path_464" data-name="Path 464" d="M569.563,428.84l-.138,3.469h-.148l-.307-.181.037-2.989A4.838,4.838,0,0,1,569.563,428.84Z" transform="translate(-481.256 -357.671)" opacity="0.1"/>
      <path id="Path_465" data-name="Path 465" d="M422.921,342.612s-4.067.811-2.215,6.213,8.28,11.115,8.28,11.115,5.266,2.777,7.482,2.469,5.591-1.119,6.027-1,3.378.116,3.378.116l.145-3.621-3.407-.194-1.743-.386s-.618-.543-.981-.463-1.124-.463-1.124-.463a2.123,2.123,0,0,0-1.022-.5c-.44,0-1.271-.116-1.271-.424s-.654-.543-1.193-.5-1.825-.5-1.975-1.166a2.048,2.048,0,0,0-.726-1.388,34.7,34.7,0,0,1-2.4-3.937s-1.126-.887-1.09-1.58a3.348,3.348,0,0,0-.835-2.2C427.783,344.27,424.444,341.687,422.921,342.612Z" transform="translate(-357.85 -286.89)" fill="#dce6f2"/>
      <path id="Path_466" data-name="Path 466" d="M491.477,412.15s-1.562,1.66-1.164,1.968Z" transform="translate(-415.946 -344.002)" opacity="0.1"/>
      <path id="Path_467" data-name="Path 467" d="M499.557,419.4s-2.034,1.66-1.489,1.776S499.557,419.4,499.557,419.4Z" transform="translate(-422.357 -349.94)" opacity="0.1"/>
      <path id="Path_468" data-name="Path 468" d="M487,433c.291.156,4.612,2.9,6.247,2.857Z" transform="translate(-413.251 -361.078)" opacity="0.1"/>
      <path id="Path_469" data-name="Path 469" d="M456.016,313.914s-.763,2.663-1.055,2.663c-.228,0-4.061-3.3-5.661-4.685l.07-.062a3.777,3.777,0,0,1,.726-1.81C450.677,309.407,456.016,313.914,456.016,313.914Z" transform="translate(-381.974 -260.314)" opacity="0.1"/>
      <path id="Path_470" data-name="Path 470" d="M455.156,312.2s-.762,2.663-1.053,2.663c-.23,0-4.063-3.3-5.663-4.685l.07-.062a3.786,3.786,0,0,1,.727-1.81C449.818,307.7,455.156,312.2,455.156,312.2Z" transform="translate(-381.26 -258.914)" fill="#dce6f2"/>
      <g id="Group_53" data-name="Group 53" transform="translate(63.611 35.75)" opacity="0.15">
        <path id="Path_471" data-name="Path 471" d="M427.49,282.54h0c.511,1.24,1.918,1.841,2.734,2.83C429.739,284.155,428.32,283.559,427.49,282.54Z" transform="translate(-427.49 -273.606)"/>
        <path id="Path_472" data-name="Path 472" d="M447.159,293.586a1.2,1.2,0,0,1-1.118.606,3.108,3.108,0,0,1-1.121-.3,2.384,2.384,0,0,1,.29.655,3.4,3.4,0,0,0,1.267.362,1.193,1.193,0,0,0,1.118-.606,1.623,1.623,0,0,0-.411-1.76A1.214,1.214,0,0,1,447.159,293.586Z" transform="translate(-441.951 -281.796)"/>
        <path id="Path_473" data-name="Path 473" d="M458.631,235.907a6.367,6.367,0,0,0-.45-.949,6.224,6.224,0,0,1-.186-.775,2.445,2.445,0,0,0-.523-.994,2.407,2.407,0,0,1,.087.273,6.548,6.548,0,0,0,.191.778,6.369,6.369,0,0,1,.45.949.986.986,0,0,1-.681,1.133c-.63.147-1.349-.433-1.891-.06a1.489,1.489,0,0,0-.453,1.115q-.114,1.086-.232,2.16a2.729,2.729,0,0,1-.15.742,1.733,1.733,0,0,1-1.671.947.966.966,0,0,1-.719-.253,5.012,5.012,0,0,0-.312-.42c-.852-.76-1.111,1.1-.886,1.629a3.3,3.3,0,0,0,.416.664c-.187-.6.075-2.317.906-1.58a4.642,4.642,0,0,1,.31.42.972.972,0,0,0,.721.253,1.733,1.733,0,0,0,1.671-.947,2.729,2.729,0,0,0,.15-.744q.116-1.086.232-2.158a1.494,1.494,0,0,1,.451-1.115c.543-.373,1.262.206,1.893.058a.984.984,0,0,0,.676-1.128Z" transform="translate(-447.101 -233.19)"/>
      </g>
      <path id="Path_474" data-name="Path 474" d="M666.059,254.253a1.242,1.242,0,0,1-.547-.014,3.038,3.038,0,0,1-1.751-1.112,1.216,1.216,0,0,1-.291-1.133c.119-.306.433-.5.511-.816a1.286,1.286,0,0,0-.029-.585l-.184-.892c-.053-.253-.145-.552-.382-.612s-.434.147-.62.3a1.85,1.85,0,0,1-1.874.328c-.545-.315-.394-1.361-.482-1.928a.346.346,0,0,0-.119-.253.458.458,0,0,0-.249-.02.729.729,0,0,1-.617-.581,5.451,5.451,0,0,1-.1-.932,1.066,1.066,0,0,0-.393-.806,1.162,1.162,0,0,0-.642-.118l-1.264.014c-.312,0-.682-.022-.852-.3a.947.947,0,0,1,.135-.947,1.922,1.922,0,0,0,.421-.905,1.76,1.76,0,0,0-.368-.934,1.728,1.728,0,0,1-.215-.518l-.363-.024a1.094,1.094,0,0,0,.17.967,1.785,1.785,0,0,1,.368.932,1.971,1.971,0,0,1-.421.905.931.931,0,0,0-.133.947.919.919,0,0,0,.852.3l1.264-.016a1.16,1.16,0,0,1,.642.119,1.06,1.06,0,0,1,.394.806,5.3,5.3,0,0,0,.1.932c.085.3.322.585.617.579a.471.471,0,0,1,.247.02.348.348,0,0,1,.119.255c.089.565-.075,1.613.482,1.928a1.843,1.843,0,0,0,1.874-.328c.186-.156.392-.362.622-.3s.329.362.38.612l.186.894a1.284,1.284,0,0,1,.027.585c-.085.317-.4.511-.52.815a1.219,1.219,0,0,0,.291,1.133,3.037,3.037,0,0,0,1.763,1.112,1.242,1.242,0,0,0,.547.014,1.3,1.3,0,0,0,.709-.572A.921.921,0,0,1,666.059,254.253Z" transform="translate(-553.199 -204.221)" opacity="0.1"/>
      <ellipse id="Ellipse_75" data-name="Ellipse 75" cx="4.118" cy="0.672" rx="4.118" ry="0.672" transform="translate(30.584 128.64)" fill="#6c63ff" opacity="0.1"/>
      <ellipse id="Ellipse_76" data-name="Ellipse 76" cx="4.118" cy="0.672" rx="4.118" ry="0.672" transform="translate(174.357 111.178)" fill="#6c63ff" opacity="0.1"/>
      <ellipse id="Ellipse_77" data-name="Ellipse 77" cx="11.925" cy="1.944" rx="11.925" ry="1.944" transform="translate(124.57 136.969)" fill="#6c63ff" opacity="0.1"/>
      <ellipse id="Ellipse_78" data-name="Ellipse 78" cx="9.302" cy="1.517" rx="9.302" ry="1.517" transform="translate(161.095 129.16)" fill="#6c63ff" opacity="0.1"/>
      <ellipse id="Ellipse_79" data-name="Ellipse 79" cx="15.774" cy="2.572" rx="15.774" ry="2.572" transform="translate(153.091 143.22)" fill="#6c63ff" opacity="0.1"/>
      <ellipse id="Ellipse_80" data-name="Ellipse 80" cx="11.925" cy="1.944" rx="11.925" ry="1.944" transform="translate(5.152 146.111)" fill="#6c63ff" opacity="0.1"/>
      <path id="Path_475" data-name="Path 475" d="M252.638,631.85a1.418,1.418,0,0,1-.215,1.629c-.681.981-1.244,1.81-1.022,2.415,0,0,1.022-1.81,1.874-1.843S253.56,632.943,252.638,631.85Z" transform="translate(-217.749 -523.929)" fill="#e9be4e"/>
      <path id="Path_476" data-name="Path 476" d="M252.786,631.85a.744.744,0,0,1,.1.2c.818,1.021,1.252,1.971.467,1.991-.731.022-1.608,1.412-1.818,1.763a.706.706,0,0,0,.024.08s1.022-1.81,1.874-1.843S253.707,632.943,252.786,631.85Z" transform="translate(-217.897 -523.929)" opacity="0.1"/>
      <path id="Path_477" data-name="Path 477" d="M263.469,635.746a.843.843,0,0,1-.055.413c-.029,0-.055-.181-.055-.413s.031-.119.06-.119S263.469,635.518,263.469,635.746Z" transform="translate(-227.711 -527)" fill="#ffd037"/>
      <path id="Path_478" data-name="Path 478" d="M263.952,637.207c-.187.109-.353.181-.366.147s.126-.138.315-.248.114-.029.128,0S264.141,637.1,263.952,637.207Z" transform="translate(-227.898 -528.188)" fill="#ffd037"/>
      <path id="Path_479" data-name="Path 479" d="M239.341,631.85a1.418,1.418,0,0,0,.215,1.629c.681.981,1.245,1.81,1.022,2.415,0,0-1.022-1.81-1.865-1.843S238.414,632.943,239.341,631.85Z" transform="translate(-206.916 -523.929)" fill="#e9be4e"/>
      <path id="Path_480" data-name="Path 480" d="M239.323,631.85a.82.82,0,0,0-.1.2c-.818,1.021-1.252,1.971-.467,1.991.731.022,1.608,1.412,1.819,1.763a.719.719,0,0,1-.026.08s-1.022-1.81-1.865-1.843S238.4,632.943,239.323,631.85Z" transform="translate(-206.898 -523.929)" opacity="0.1"/>
      <path id="Path_481" data-name="Path 481" d="M239.35,635.746a.855.855,0,0,0,.053.413c.029,0,.055-.181.055-.413s-.031-.119-.06-.119S239.35,635.518,239.35,635.746Z" transform="translate(-207.792 -527)" fill="#ffd037"/>
      <path id="Path_482" data-name="Path 482" d="M237.042,637.207c.189.109.353.181.368.147s-.128-.138-.317-.248-.114-.029-.128,0S236.853,637.1,237.042,637.207Z" transform="translate(-205.782 -528.188)" fill="#ffd037"/>
      <ellipse id="Ellipse_81" data-name="Ellipse 81" cx="4.878" cy="0.795" rx="4.878" ry="0.795" transform="translate(28.78 115.332)" fill="#6c63ff" opacity="0.1"/>
      <path id="Path_483" data-name="Path 483" d="M241.947,647.982l-.024.2-.032.286-.014.12-.032.286-.015.12-.032.286-.373,3.259c-.032.29-.479.516-1.022.516H238.47c-.538,0-.985-.226-1.022-.516l-.373-3.259-.032-.286-.014-.12-.034-.286-.014-.12-.032-.286-.024-.2c-.019-.165.223-.3.528-.3h3.968C241.724,647.68,241.966,647.818,241.947,647.982Z" transform="translate(-205.779 -536.893)" fill="#65617d"/>
      <path id="Path_484" data-name="Path 484" d="M187.935,614.76l-.032.286h-4.91l-.032-.286Z" transform="translate(-151.79 -503.468)" fill="#9d9cb5"/>
      <path id="Path_485" data-name="Path 485" d="M188.113,617l-.032.286h-4.816L183.23,617Z" transform="translate(-152.014 -505.303)" fill="#9d9cb5"/>
      <path id="Path_486" data-name="Path 486" d="M188.3,619.24l-.034.286h-4.722l-.032-.286Z" transform="translate(-152.246 -507.137)" fill="#9d9cb5"/>
      <path id="Path_487" data-name="Path 487" d="M1082.4,618s-.583,2.882,2.009,3.222l.16-.32S1082.557,618.894,1082.4,618Z" transform="translate(-907.167 -512.586)" fill="#6c63ff"/>
      <path id="Path_488" data-name="Path 488" d="M1089.28,614.3l-.6.136-.06.014a5.948,5.948,0,0,1-1.588-4.482,7.728,7.728,0,0,0,.768,1.291A7.9,7.9,0,0,1,1089.28,614.3Z" transform="translate(-911.057 -506.01)" fill="#6c63ff"/>
      <path id="Path_489" data-name="Path 489" d="M1094.458,609.775a.359.359,0,0,1-.324.045c-1.547-.384-1.022-5.741-1.022-5.741.085.042.17.724.535,1.6C1094.269,607.228,1094.956,609.388,1094.458,609.775Z" transform="translate(-916.033 -501.186)" fill="#6c63ff"/>
      <path id="Path_490" data-name="Path 490" d="M1108.653,618s.1,2.882-2.491,3.222L1106,620.9S1108.492,618.894,1108.653,618Z" transform="translate(-926.796 -512.586)" fill="#6c63ff"/>
      <path id="Path_491" data-name="Path 491" d="M1103.911,610a5.405,5.405,0,0,1-2.068,4.482l-.061-.014-.6-.136a8,8,0,0,1,1.48-3.041A6.754,6.754,0,0,1,1103.911,610Z" transform="translate(-922.797 -506.035)" fill="#6c63ff"/>
      <path id="Path_492" data-name="Path 492" d="M1099.979,609.5a.95.95,0,0,1-.341.281h0a.636.636,0,0,1-.128.045c-.38.094-.511-.2-.491-.693a13.434,13.434,0,0,1,1.022-3.557,4.461,4.461,0,0,1,.971-1.49S1100.99,608.259,1099.979,609.5Z" transform="translate(-921.003 -501.195)" fill="#6c63ff"/>
      <path id="Path_493" data-name="Path 493" d="M1098.009,593.7s-1.728,6.517-.24,7.491S1098.39,594.276,1098.009,593.7Z" transform="translate(-919.466 -492.686)" fill="#6c63ff"/>
      <path id="Path_494" data-name="Path 494" d="M1082.4,618s-.583,2.882,2.009,3.222l.16-.32S1082.557,618.894,1082.4,618Z" transform="translate(-907.167 -512.586)" fill="#e83225" opacity="0.798"/>
      <path id="Path_495" data-name="Path 495" d="M1089.28,614.3l-.6.136-.06.014a5.948,5.948,0,0,1-1.588-4.482,7.728,7.728,0,0,0,.768,1.291A7.9,7.9,0,0,1,1089.28,614.3Z" transform="translate(-911.057 -506.01)" fill="#e83225" opacity="0.798"/>
      <path id="Path_496" data-name="Path 496" d="M1094.458,609.775a.359.359,0,0,1-.324.045c-1.547-.384-1.022-5.741-1.022-5.741.085.042.17.724.535,1.6C1094.269,607.228,1094.956,609.388,1094.458,609.775Z" transform="translate(-916.033 -501.186)" fill="#e83225" opacity="0.798"/>
      <path id="Path_497" data-name="Path 497" d="M1108.653,618s.1,2.882-2.491,3.222L1106,620.9S1108.492,618.894,1108.653,618Z" transform="translate(-926.796 -512.586)" fill="#e83225" opacity="0.798"/>
      <path id="Path_498" data-name="Path 498" d="M1103.911,610a5.405,5.405,0,0,1-2.068,4.482l-.061-.014-.6-.136a8,8,0,0,1,1.48-3.041A6.754,6.754,0,0,1,1103.911,610Z" transform="translate(-922.797 -506.035)" fill="#e83225" opacity="0.798"/>
      <path id="Path_499" data-name="Path 499" d="M1099.979,609.5a.95.95,0,0,1-.341.281h0a.636.636,0,0,1-.128.045c-.38.094-.511-.2-.491-.693a13.434,13.434,0,0,1,1.022-3.557,4.461,4.461,0,0,1,.971-1.49S1100.99,608.259,1099.979,609.5Z" transform="translate(-921.003 -501.195)" fill="#e83225" opacity="0.798"/>
      <path id="Path_500" data-name="Path 500" d="M1098.009,593.7s-1.728,6.517-.24,7.491S1098.39,594.276,1098.009,593.7Z" transform="translate(-919.466 -492.686)" fill="#e83225" opacity="0.798"/>
      <path id="Path_501" data-name="Path 501" d="M1082.6,618s-.341,2.882,2.249,3.222l.16-.32S1082.758,618.894,1082.6,618Z" transform="translate(-907.368 -512.586)" fill="#e9be4e"/>
      <path id="Path_502" data-name="Path 502" d="M1089.5,614.327l-.6.136-.06.014A5.619,5.619,0,0,1,1087,610s.474.543,1.009,1.291A7.786,7.786,0,0,1,1089.5,614.327Z" transform="translate(-911.032 -506.035)" fill="#e9be4e"/>
      <path id="Path_503" data-name="Path 503" d="M1094.432,620.141l-.6.136c-.571-.532-.8-1.923-.879-3.177A7.9,7.9,0,0,1,1094.432,620.141Z" transform="translate(-915.969 -511.849)" opacity="0.1"/>
      <path id="Path_504" data-name="Path 504" d="M1095.011,609.775a.362.362,0,0,1-.325.045c-1.547-.384-1.264-5.741-1.264-5.741a7.6,7.6,0,0,1,.775,1.6C1094.822,607.228,1095.506,609.388,1095.011,609.775Z" transform="translate(-916.343 -501.186)" fill="#e9be4e"/>
      <path id="Path_505" data-name="Path 505" d="M1109.839,618s.341,2.882-2.249,3.222l-.16-.32S1109.679,618.894,1109.839,618Z" transform="translate(-927.982 -512.586)" fill="#e9be4e"/>
      <path id="Path_506" data-name="Path 506" d="M1105.081,610a5.612,5.612,0,0,1-1.828,4.482l-.06-.014-.6-.136a7.975,7.975,0,0,1,1.482-3.041C1104.607,610.543,1105.081,610,1105.081,610Z" transform="translate(-923.967 -506.035)" fill="#e9be4e"/>
      <path id="Path_507" data-name="Path 507" d="M1104.072,617.1a6.2,6.2,0,0,1-.768,3.058.89.89,0,0,1-.111.119l-.6-.136A7.876,7.876,0,0,1,1104.072,617.1Z" transform="translate(-923.967 -511.849)" opacity="0.1"/>
      <path id="Path_508" data-name="Path 508" d="M1101.391,609.5a.933.933,0,0,1-.341.281h0a.656.656,0,0,1-.126.045c-.382.094-.511-.2-.492-.693a13.565,13.565,0,0,1,1.022-3.557,7.111,7.111,0,0,1,.731-1.49S1102.4,608.259,1101.391,609.5Z" transform="translate(-922.174 -501.195)" fill="#e9be4e"/>
      <path id="Path_509" data-name="Path 509" d="M1098.438,617.031a.392.392,0,0,1-.245-.083c-.728-.482-.743-2.288-.569-4.008C1098.249,614.484,1098.934,616.644,1098.438,617.031Z" transform="translate(-919.771 -508.443)" opacity="0.1"/>
      <path id="Path_510" data-name="Path 510" d="M1101.4,616.245c-.083.194-.2.3-.341.281h0a.443.443,0,0,1-.206-.083,1.163,1.163,0,0,1-.412-.565,13.563,13.563,0,0,1,1.022-3.557A10.722,10.722,0,0,1,1101.4,616.245Z" transform="translate(-922.183 -507.935)" opacity="0.1"/>
      <path id="Path_511" data-name="Path 511" d="M1098.9,593.7s-1.486,6.517,0,7.491S1099.286,594.276,1098.9,593.7Z" transform="translate(-920.362 -492.686)" fill="#e9be4e"/>
      <path id="Path_512" data-name="Path 512" d="M1034.626,597.61h-6.186V598.7h.944l.024.129.378,2.113h3.6l.378-2.113.022-.129h.843Z" transform="translate(-853.231 -489.423)" fill="#4b4770"/>
      <path id="Path_513" data-name="Path 513" d="M1034.626,597.61h-6.186V598.7h.944l.024.129.378,2.113h3.6l.378-2.113.022-.129h.843Z" transform="translate(-853.231 -489.423)" opacity="0.1"/>
      <path id="Path_514" data-name="Path 514" d="M1039.481,601.14l-.1.578L1039,603.83h-3.6l-.378-2.113-.1-.578Z" transform="translate(-858.607 -492.314)" fill="#4b4770"/>
      <path id="Path_515" data-name="Path 515" d="M1039.481,601.14l-.1.578h-4.353l-.1-.578Z" transform="translate(-858.607 -492.314)" opacity="0.1"/>
      <rect id="Rectangle_107" data-name="Rectangle 107" width="6.186" height="1.088" transform="translate(175.449 108.187)" fill="#4b4770"/>
      <path id="Path_516" data-name="Path 516" d="M141.732,730.066a3.227,3.227,0,0,0-.388.778c-.024.067-.048.145-.072.219a.713.713,0,0,0-.135-.051,1.768,1.768,0,0,0-.608-.054c0-.085.01-.181.012-.266.026-.954-.08-2.283-.937-1.72-.821.543-.235,1.448.295,2.028.046.051.092.1.136.143-.484.362-.576,1.218-.656,2.107a5,5,0,0,1-1.262,2.413c-.048.056-.09.107-.133.154a1.655,1.655,0,0,0-1.371-.375c-.019-.078-.041-.159-.063-.244-.382-1.465-1.174-4-2.184-4.557l.133-.181c.429-.6.913-1.483.2-1.709s-.779.768-.739,1.513q.01.141.02.266a1.023,1.023,0,0,0-.746.387l-.111-.139c-.579-.724-1.641-1.877-1.963-1.007-.3.811.635,1.865,1.293,2.475l.041.038c-.441,1.9,1.486,3.454,2.523,4.133l.135.087a17.14,17.14,0,0,0-2.315,5.152l4.007.76s2.658-2.437,2.317-4.725h.027c2.656-.565,3.259-3.574,2.845-5.36l.048-.02a3.033,3.033,0,0,0,1.23-.988C144.052,730.229,142.5,728.991,141.732,730.066Z" transform="translate(-117.985 -603.262)" fill="#6c63ff"/>
      <path id="Path_517" data-name="Path 517" d="M141.732,730.066a3.227,3.227,0,0,0-.388.778c-.024.067-.048.145-.072.219a.713.713,0,0,0-.135-.051,1.768,1.768,0,0,0-.608-.054c0-.085.01-.181.012-.266.026-.954-.08-2.283-.937-1.72-.821.543-.235,1.448.295,2.028.046.051.092.1.136.143-.484.362-.576,1.218-.656,2.107a5,5,0,0,1-1.262,2.413c-.048.056-.09.107-.133.154a1.655,1.655,0,0,0-1.371-.375c-.019-.078-.041-.159-.063-.244-.382-1.465-1.174-4-2.184-4.557l.133-.181c.429-.6.913-1.483.2-1.709s-.779.768-.739,1.513q.01.141.02.266a1.023,1.023,0,0,0-.746.387l-.111-.139c-.579-.724-1.641-1.877-1.963-1.007-.3.811.635,1.865,1.293,2.475l.041.038c-.441,1.9,1.486,3.454,2.523,4.133l.135.087a17.14,17.14,0,0,0-2.315,5.152l4.007.76s2.658-2.437,2.317-4.725h.027c2.656-.565,3.259-3.574,2.845-5.36l.048-.02a3.033,3.033,0,0,0,1.23-.988C144.052,730.229,142.5,728.991,141.732,730.066Z" transform="translate(-117.985 -603.262)" fill="#e83225" opacity="0.8"/>
      <path id="Path_518" data-name="Path 518" d="M134.95,734.666l-.469,1.448s-.261-.2-.589-.5c-.658-.61-1.593-1.664-1.293-2.475.322-.871,1.383.279,1.963,1.006C134.8,734.432,134.95,734.666,134.95,734.666Z" transform="translate(-119.18 -606.623)" fill="#e9be4e"/>
      <path id="Path_519" data-name="Path 519" d="M149.809,730.475a6.813,6.813,0,0,1-.457.572q-.06-.381-.083-.768c-.039-.746.036-1.736.739-1.513S150.239,729.879,149.809,730.475Z" transform="translate(-133.051 -603.274)" fill="#e9be4e"/>
      <path id="Path_520" data-name="Path 520" d="M181.45,731.229c-.014.48-.058.864-.058.864a6.084,6.084,0,0,1-.584-.556c-.53-.585-1.116-1.486-.295-2.028C181.362,728.945,181.467,730.275,181.45,731.229Z" transform="translate(-158.64 -603.798)" fill="#e9be4e"/>
      <path id="Path_521" data-name="Path 521" d="M193.514,735.544a3.033,3.033,0,0,1-1.23.988,3.536,3.536,0,0,1-.412.159l-.552-.824a6.1,6.1,0,0,1,.228-.8,3.23,3.23,0,0,1,.388-.778C192.7,733.214,194.257,734.452,193.514,735.544Z" transform="translate(-167.944 -607.485)" fill="#e9be4e"/>
      <path id="Path_522" data-name="Path 522" d="M141.14,740.11c.233.29.388.514.388.514l-.469,1.448s-.261-.2-.589-.5a2.933,2.933,0,0,1,.528-1.28C141.044,740.229,141.094,740.168,141.14,740.11Z" transform="translate(-125.757 -612.591)" opacity="0.1"/>
      <path id="Path_523" data-name="Path 523" d="M149.85,737.465a6.81,6.81,0,0,1-.457.572q-.06-.381-.083-.768A.906.906,0,0,1,149.85,737.465Z" transform="translate(-133.091 -610.265)" opacity="0.1"/>
      <path id="Path_524" data-name="Path 524" d="M144.685,744.432l-1.165.543s-.254-.13-.62-.373c-1.225-.8-3.687-2.815-2.044-5.19s3.027,1.885,3.578,3.968C144.6,744.014,144.685,744.432,144.685,744.432Z" transform="translate(-125.623 -611.446)" fill="#e9be4e"/>
      <path id="Path_525" data-name="Path 525" d="M184.18,739.928a.934.934,0,0,1,.642-.308c-.014.48-.058.864-.058.864A6.086,6.086,0,0,1,184.18,739.928Z" transform="translate(-162.021 -612.189)" opacity="0.1"/>
      <path id="Path_526" data-name="Path 526" d="M192.3,741.925a3.547,3.547,0,0,1-.412.159l-.552-.824a6.1,6.1,0,0,1,.228-.8A2.173,2.173,0,0,1,192.3,741.925Z" transform="translate(-167.961 -612.877)" opacity="0.1"/>
      <path id="Path_527" data-name="Path 527" d="M168.591,747.772c-.063.014-.129.027-.2.038-3.906.63-1.288-1.609-1.288-1.609s.17-.181.414-.454a4.992,4.992,0,0,0,1.262-2.413c.123-1.345.264-2.607,1.758-2.238C172.008,741.461,172.289,746.984,168.591,747.772Z" transform="translate(-147.144 -613.344)" fill="#e9be4e"/>
      <rect id="Rectangle_108" data-name="Rectangle 108" width="7.464" height="2.085" transform="translate(13.91 144.763)" fill="#d4dfec"/>
      <rect id="Rectangle_109" data-name="Rectangle 109" width="9.752" height="7.278" transform="translate(12.724 137.985)" fill="#d4dfec"/>
      <rect id="Rectangle_110" data-name="Rectangle 110" width="7.464" height="2.085" transform="translate(13.91 144.763)" opacity="0.1"/>
      <rect id="Rectangle_111" data-name="Rectangle 111" width="9.752" height="7.278" transform="translate(12.724 137.985)" opacity="0.1"/>
      <rect id="Rectangle_112" data-name="Rectangle 112" width="7.464" height="2.085" transform="translate(14.401 144.763)" fill="#d4dfec"/>
      <path id="Path_528" data-name="Path 528" d="M157.053,764.51c.17.623.252,1.05.252,1.05l-1.165.543a7.235,7.235,0,0,1-.62-.373A3.012,3.012,0,0,1,157.053,764.51Z" transform="translate(-138.243 -632.573)" opacity="0.1"/>
      <path id="Path_529" data-name="Path 529" d="M168.591,769.106c-.063.014-.129.027-.2.038-3.906.63-1.288-1.609-1.288-1.609s.17-.181.414-.454A2.8,2.8,0,0,1,168.591,769.106Z" transform="translate(-147.144 -634.678)" opacity="0.1"/>
      <path id="Path_530" data-name="Path 530" d="M142.72,771.923s2.187-8.328,5.256-5.759-1.249,6.517-1.249,6.517Z" transform="translate(-127.624 -633.525)" fill="#e9be4e"/>
      <ellipse id="Ellipse_82" data-name="Ellipse 82" cx="0.245" cy="0.261" rx="0.245" ry="0.261" transform="translate(15.955 129.011)" opacity="0.1"/>
      <ellipse id="Ellipse_83" data-name="Ellipse 83" cx="0.245" cy="0.261" rx="0.245" ry="0.261" transform="translate(15.934 130.228)" opacity="0.1"/>
      <ellipse id="Ellipse_84" data-name="Ellipse 84" cx="0.245" cy="0.261" rx="0.245" ry="0.261" transform="translate(23.05 129.25)" opacity="0.1"/>
      <ellipse id="Ellipse_85" data-name="Ellipse 85" cx="0.245" cy="0.261" rx="0.245" ry="0.261" transform="translate(17.326 135.487)" opacity="0.1"/>
      <ellipse id="Ellipse_86" data-name="Ellipse 86" cx="0.245" cy="0.261" rx="0.245" ry="0.261" transform="translate(22.539 131.27)" opacity="0.1"/>
      <ellipse id="Ellipse_87" data-name="Ellipse 87" cx="0.245" cy="0.261" rx="0.245" ry="0.261" transform="translate(20.004 133.966)" opacity="0.1"/>
      <ellipse id="Ellipse_88" data-name="Ellipse 88" cx="0.245" cy="0.261" rx="0.245" ry="0.261" transform="translate(16.793 129.532)" opacity="0.1"/>
      <ellipse id="Ellipse_89" data-name="Ellipse 89" cx="0.245" cy="0.261" rx="0.245" ry="0.261" transform="translate(22.376 130.032)" opacity="0.1"/>
      <ellipse id="Ellipse_90" data-name="Ellipse 90" cx="0.245" cy="0.261" rx="0.245" ry="0.261" transform="translate(21.537 132.052)" opacity="0.1"/>
      <ellipse id="Ellipse_91" data-name="Ellipse 91" cx="0.245" cy="0.261" rx="0.245" ry="0.261" transform="translate(18.962 135.291)" opacity="0.1"/>
      <ellipse id="Ellipse_92" data-name="Ellipse 92" cx="0.245" cy="0.261" rx="0.245" ry="0.261" transform="translate(18.43 134.009)" opacity="0.1"/>
      <ellipse id="Ellipse_93" data-name="Ellipse 93" cx="0.245" cy="0.261" rx="0.245" ry="0.261" transform="translate(17.161 131.118)" opacity="0.1"/>
      <rect id="Rectangle_113" data-name="Rectangle 113" width="7.464" height="0.762" transform="translate(14.401 144.763)" opacity="0.1"/>
      <rect id="Rectangle_114" data-name="Rectangle 114" width="9.752" height="7.278" transform="translate(13.215 137.985)" fill="#d4dfec"/>
      <ellipse id="Ellipse_94" data-name="Ellipse 94" cx="0.245" cy="0.261" rx="0.245" ry="0.261" transform="translate(19.289 136.464)" opacity="0.1"/>
      <ellipse id="Ellipse_95" data-name="Ellipse 95" cx="0.245" cy="0.261" rx="0.245" ry="0.261" transform="translate(17.817 136.79)" opacity="0.1"/>
      <ellipse id="Ellipse_96" data-name="Ellipse 96" cx="1.782" cy="1.894" rx="1.782" ry="1.894" transform="translate(6.736 7.52)" fill="#6c63ff" opacity="0.1"/>
      <ellipse id="Ellipse_97" data-name="Ellipse 97" cx="2.385" cy="2.534" rx="2.385" ry="2.534" transform="translate(177.276 66.455)" fill="#6c63ff" opacity="0.1"/>
      <ellipse id="Ellipse_98" data-name="Ellipse 98" cx="1.741" cy="1.85" rx="1.741" ry="1.85" transform="translate(182.518 61.709)" fill="#6c63ff" opacity="0.1"/>
      <ellipse id="Ellipse_99" data-name="Ellipse 99" cx="2.385" cy="2.534" rx="2.385" ry="2.534" transform="translate(9.2)" fill="#6c63ff" opacity="0.1"/>
      <ellipse id="Ellipse_100" data-name="Ellipse 100" cx="2.385" cy="2.534" rx="2.385" ry="2.534" transform="translate(0 11.586)" fill="#6c63ff" opacity="0.1"/>
    </g>
  </g>
</svg>
