<svg xmlns="http://www.w3.org/2000/svg" width="240" height="240" viewBox="0 0 240 240">
  <g id="Group_29" data-name="Group 29" transform="translate(-228 -2742)">
    <g id="Group_27" data-name="Group 27" transform="translate(588 1227)">
      <circle id="Ellipse_1" data-name="Ellipse 1" cx="120" cy="120" r="120" transform="translate(-360 1515)" fill="none"/>
    </g>
    <g id="Group_28" data-name="Group 28" transform="translate(255 2787)">
      <path id="Path_50" data-name="Path 50" d="M533.574,667.888a8.742,8.742,0,0,0-5.216-3.613,25.4,25.4,0,0,0-5.812-.342l-24.533.189a4.019,4.019,0,0,0,0,8.038l21.559-.166c1.694-.013,3.389-.044,5.084-.038.38,0,.759.021,1.139.026.092,0,.159,0,.206,0l.037.011c.2.054.4.092.6.144-.07,0,.129.126.229.169.014.027.043.075.092.149.068.128.271.517.279.5a18.031,18.031,0,0,1,.75,2.359,13.217,13.217,0,0,1,.637,3.8,4.018,4.018,0,1,0,8.036,0C536.509,675.326,535.844,671.067,533.574,667.888Z" transform="translate(-427.613 -535.186)" fill="#e6e6e6"/>
      <path id="Path_51" data-name="Path 51" d="M432.079,505.853c-.461-2.793-.913-5.588-1.383-8.379-.477-2.832-1.45-5.425-3.653-7.284-.589-.5-1.2-.96-1.812-1.422-.216-.162-.431-.325-.644-.491l-.032-.025-.089-.076c-.918-.777-1.806-1.589-2.651-2.452q-1.126-1.15-2.153-2.4-.257-.312-.507-.629l-.285-.366c-.095-.13-.268-.366-.3-.407q-.292-.413-.574-.834a39.215,39.215,0,0,1-3.312-6.057q-.137-.314-.268-.632l-.094-.258c-.186-.512-.372-1.023-.542-1.541q-.542-1.651-.933-3.35-.193-.839-.347-1.687-.08-.436-.149-.874c-.008-.048-.053-.363-.079-.541s-.056-.5-.061-.544q-.044-.441-.078-.883-.077-.995-.1-1.993-.046-1.774.064-3.547c.042-.664.1-1.327.174-1.988l.011-.1.016-.1c.054-.365.111-.73.175-1.094a40.018,40.018,0,0,1,.939-4.1q.273-.957.593-1.9.143-.418.295-.832c-.007.018.3-.758.3-.784,1.2-2.846,3.174-5.44,3.176-8.672a4.021,4.021,0,1,0-8.036,0c0,.049,0,.091,0,.132l-.052.175c-.235.51-.522,1-.78,1.493-.706,1.362-1.308,2.769-1.88,4.2a40.149,40.149,0,0,0-2.142,7.191,45.75,45.75,0,0,0-.243,16.337,42.16,42.16,0,0,0,13.838,24.7c.62.53,1.255,1.043,1.9,1.545.265.208.533.412.8.614.127.1.653.511.422.31a2.56,2.56,0,0,1,.835.952l.078.3c.09.353.176.705.247,1.063.622,3.128,1.054,6.308,1.573,9.455A4.019,4.019,0,0,0,429.272,511,4.327,4.327,0,0,0,432.079,505.853Z" transform="translate(-360.236 -364.083)" fill="#e6e6e6"/>
      <path id="Path_52" data-name="Path 52" d="M455.811,447.2a6.373,6.373,0,0,1-6.389-6.342v-4.584c-4.8.537-21.231.413-25.941-.344v4.745a6.389,6.389,0,1,1-12.777,0v-9.317a40.994,40.994,0,0,1,16.9-76.635c1.112-.087,2.23-.131,3.325-.131,3.855,0,21.25.6,25.614,1.852l9.951-9.877a1.045,1.045,0,0,1,1.143-.228,1.03,1.03,0,0,1,.649.966v1.57l1.938-1.92a1.042,1.042,0,0,1,1.142-.228,1.03,1.03,0,0,1,.65.967v17.549a40.887,40.887,0,0,1-9.811,67.283v8.332a6.373,6.373,0,0,1-6.389,6.342Zm-5.886-11.5v5.154a5.886,5.886,0,1,0,11.773,0V432.2l.143-.068a40.8,40.8,0,0,0,16.707-14.614,40.278,40.278,0,0,0-6.956-51.985l-.083-.075V347.689a.528.528,0,0,0-.337-.5.54.54,0,0,0-.6.119l-2.794,2.768V347.3a.528.528,0,0,0-.337-.5.541.541,0,0,0-.6.12l-10.165,10.088-.144-.045c-4.057-1.27-21.725-1.872-25.61-1.872-1.081,0-2.187.044-3.285.13a40.7,40.7,0,0,0-22.158,8.728,40.316,40.316,0,0,0,5.6,67.039l.13.072v9.613a5.886,5.886,0,1,0,11.773,0v-5.347l.3.056c4.233.8,22.056.922,26.364.357Z" transform="translate(-349.443 -297.312)" fill="#3f3d56"/>
      <path id="Path_53" data-name="Path 53" d="M427.322,270.321l-27.809,8.359a3.487,3.487,0,0,0,2.007,6.679l24.336-7.317.51-.153a16.962,16.962,0,0,1,2.082-7.5,1.548,1.548,0,0,0-.5-.131A1.6,1.6,0,0,0,427.322,270.321Z" transform="translate(-355 -240.4)" fill="#e61030"/>
      <path id="Path_54" data-name="Path 54" d="M402.571,288.993a1.761,1.761,0,0,1-1.667-1.206l-1.739-5.249a1.758,1.758,0,0,1,1.116-2.222l22.634-7.5a1.758,1.758,0,0,1,2.222,1.116l1.739,5.249a1.752,1.752,0,0,1-1.053,2.2l-.063.022-22.633,7.5A1.756,1.756,0,0,1,402.571,288.993Z" transform="translate(-356.532 -242.252)" fill="#e9be4e"/>
      <path id="Path_55" data-name="Path 55" d="M529.369,233.42A17.588,17.588,0,0,0,511.8,250.463c-.005.178-.007.359-.007.54a17.579,17.579,0,1,0,17.579-17.583Zm0,34.663A17.1,17.1,0,0,1,512.292,251q0-.35.015-.693a17.076,17.076,0,1,1,17.061,17.774Z" transform="translate(-440.941 -212.821)" fill="#3f3d56"/>
      <path id="Path_56" data-name="Path 56" d="M552.422,259.239a14.816,14.816,0,1,1-29.632,0c0-.47.023-.932.065-1.389a14.816,14.816,0,0,1,29.567,1.389Z" transform="translate(-449.179 -221.057)" fill="#e6e6e6"/>
      <path id="Path_57" data-name="Path 57" d="M571.375,278.248A3.528,3.528,0,0,0,570,277.161a13.339,13.339,0,0,0-2.064-.678v-4.034a5.874,5.874,0,0,1,2.936,1.339l.819-1.746a5.414,5.414,0,0,0-1.6-.987,7.849,7.849,0,0,0-2.026-.52V268.49h-1.9v2.065a5.19,5.19,0,0,0-2.072.7,4.118,4.118,0,0,0-1.4,1.376,3.459,3.459,0,0,0-.5,1.831,3.131,3.131,0,0,0,.575,1.959,3.644,3.644,0,0,0,1.431,1.135,13.226,13.226,0,0,0,2.1.7v3.866a6.274,6.274,0,0,1-3.493-1.394l-.819,1.748a6.172,6.172,0,0,0,1.868,1.06,8.578,8.578,0,0,0,2.313.482v2.027h1.9v-2.065a4.906,4.906,0,0,0,2.815-1.291,3.414,3.414,0,0,0,1.05-2.537A3.028,3.028,0,0,0,571.375,278.248Zm-5.073-2.193a3.641,3.641,0,0,1-1.263-.678,1.337,1.337,0,0,1-.447-1.05,1.69,1.69,0,0,1,.457-1.208,2.311,2.311,0,0,1,1.253-.651Zm2.825,5.345a2.149,2.149,0,0,1-1.19.62V278.7a3.325,3.325,0,0,1,1.19.6,1.17,1.17,0,0,1,.409.929A1.709,1.709,0,0,1,569.127,281.4Z" transform="translate(-478.535 -239.082)" fill="#e61030"/>
      <path id="Path_58" data-name="Path 58" d="M408.138,377.483a1.764,1.764,0,0,1-1.7-1.31l-.947-3.584a1.759,1.759,0,0,1,1.249-2.148l29.869-7.895a1.762,1.762,0,0,1,2.147,1.252l.8,3.037-.15.012a40.214,40.214,0,0,0-21.121,8.005l-.044.021-9.658,2.552A1.749,1.749,0,0,1,408.138,377.483Z" transform="translate(-361.292 -309.47)" fill="#e9be4e"/>
      <path id="Path_59" data-name="Path 59" d="M341.466,430.1a24.633,24.633,0,0,1-9.824-3.716,23.991,23.991,0,0,1-4.062-3.323,12.465,12.465,0,0,1-2.973-4.29,6.356,6.356,0,0,1,.083-4.715,6.111,6.111,0,0,1,3.307-3.3,6.308,6.308,0,0,1,4.785-.007,4.292,4.292,0,0,1,1.749,1.408,2.873,2.873,0,0,1,.455.944,1.928,1.928,0,0,1,.023.944,2.265,2.265,0,0,1-1.2,1.438,6.044,6.044,0,0,1-2.047.625,2.824,2.824,0,0,1-2.327-.39,1.173,1.173,0,0,1-.274-.4.783.783,0,0,1-.043-.366c-.008.055.035-.119.032-.112-.009.026-.049.088.008-.008a.849.849,0,0,1,.059-.091c-.019.025-.061.066.014,0a.493.493,0,0,1,.23-.142l.1-.028c.089-.024-.088,0,0,0l.105,0c.089,0-.088-.024,0,0,.033.008.066.016.1.027.071.022-.05-.052,0,0s-.059-.063,0,0a1.169,1.169,0,0,1,.09.1.592.592,0,0,0,.832,0,.6.6,0,0,0,0-.833,1.6,1.6,0,0,0-2.314.066,1.915,1.915,0,0,0,.276,2.682,3.705,3.705,0,0,0,3.053.691,7.487,7.487,0,0,0,2.579-.729,3.616,3.616,0,0,0,1.764-1.906,3.31,3.31,0,0,0-.265-2.7,5.835,5.835,0,0,0-4.793-2.82,7.485,7.485,0,0,0-5.479,1.8,7.575,7.575,0,0,0-2.483,5.043,8.638,8.638,0,0,0,1.748,5.58,21.254,21.254,0,0,0,4.214,4.359,25.73,25.73,0,0,0,10.751,5.072q.7.145,1.41.248a.608.608,0,0,0,.724-.411.593.593,0,0,0-.411-.724Z" transform="translate(-299.567 -344.386)" fill="#0065b3"/>
      <path id="Path_60" data-name="Path 60" d="M564.416,390.736q-7.7-.109-15.352.391c-1.744.114-3.252.73-3.252,1.766,0,.866,1.5,1.881,3.252,1.766q7.648-.5,15.352-.391C568.6,394.328,568.6,390.8,564.416,390.736Z" transform="translate(-466.42 -330.608)" fill="#ccc"/>
      <path id="Path_61" data-name="Path 61" d="M549.163,393.3c-.555,0-13.587-.021-13.587-1.821s13.032-1.821,13.587-1.821,13.587.021,13.587,1.821S549.718,393.3,549.163,393.3Zm-13.078-1.821c.357.546,5.147,1.319,13.078,1.319s12.721-.773,13.078-1.319c-.357-.546-5.147-1.319-13.078-1.319s-12.721.773-13.078,1.319Z" transform="translate(-458.754 -329.817)" fill="#3f3d56"/>
      <path id="Path_62" data-name="Path 62" d="M754.191,504.016c2.885-.08,6.475-.18,9.242-2.2a7.1,7.1,0,0,0,2.793-5.3,4.776,4.776,0,0,0-1.623-3.922,6.16,6.16,0,0,0-5.828-.839l2.356-17.218L759.4,474.3l-2.769,20.242,1.444-.663c1.674-.768,3.972-1.159,5.4.048a3.069,3.069,0,0,1,1.006,2.527,5.366,5.366,0,0,1-2.078,3.952c-2.153,1.573-5.015,1.776-8.261,1.866Z" transform="translate(-622.434 -393.195)" fill="#0065b3"/>
      <rect id="Rectangle_60" data-name="Rectangle 60" width="9.4" height="1.746" transform="translate(117.576 82.825)" fill="#0065b3"/>
      <path id="Path_63" data-name="Path 63" d="M426.2,418.487A1.761,1.761,0,0,1,424.469,417l-.574-3.663a1.76,1.76,0,0,1,1.465-2.009l30.519-4.783a1.76,1.76,0,0,1,2.009,1.465l.574,3.663A1.76,1.76,0,0,1,457,413.683l-30.519,4.783A1.785,1.785,0,0,1,426.2,418.487Z" transform="translate(-375.103 -342.445)" fill="#e9be4e"/>
      <ellipse id="Ellipse_13" data-name="Ellipse 13" cx="12.807" cy="12.81" rx="12.807" ry="12.81" transform="translate(25.662 7.499)" fill="#e61030"/>
      <path id="Path_64" data-name="Path 64" d="M407.173,220.616a3.037,3.037,0,0,0,1.1-.672,2.043,2.043,0,0,0,.566-1.628,1.374,1.374,0,0,0-.631-1.046,1.777,1.777,0,0,0-1.694.012l-.071-5-.5.007.084,5.879.382-.251a1.521,1.521,0,0,1,1.539-.219.883.883,0,0,1,.395.676,1.544,1.544,0,0,1-.421,1.214,4.151,4.151,0,0,1-2.27.887l.089.494A8.277,8.277,0,0,0,407.173,220.616Z" transform="translate(-361.453 -196.992)" fill="#2f2e41"/>
      <path id="Path_71" data-name="Path 71" d="M.35.344h2.7v.5H.35Z" transform="matrix(0.989, -0.15, 0.15, 0.989, 47.087, 15.055)" fill="#2f2e41"/>
      <path id="Path_72" data-name="Path 72" d="M.35.344h2.7v.5H.35Z" transform="matrix(0.989, -0.15, 0.15, 0.989, 38.645, 16.334)" fill="#2f2e41"/>
      <path id="Path_65" data-name="Path 65" d="M381.708,325.154a2.268,2.268,0,0,1-2.118-1.471l-8.83-23.654a11.689,11.689,0,0,1,6.852-15.021l7.18-2.682a2.249,2.249,0,0,1,1.727.06,2.218,2.218,0,0,1,1.174,1.252l16.357,30.891a2.261,2.261,0,0,1-1.32,2.923L382.5,325.011A2.255,2.255,0,0,1,381.708,325.154Z" transform="translate(-334.775 -249.336)" fill="#e9be4e"/>
      <path id="Path_66" data-name="Path 66" d="M420.158,282.682l16.23,21.709L425.406,282.91a2.029,2.029,0,0,0-2.6-1.217Z" transform="translate(-372.321 -248.877)" fill="#e6e6e6"/>
      <path id="Path_67" data-name="Path 67" d="M426.347,325.3l-28.978-1.867a3.486,3.486,0,0,1,.448-6.958L426.8,318.34a1.632,1.632,0,0,1,1.524,1.734l-.238,3.7a1.633,1.633,0,0,1-1.734,1.524Z" transform="translate(-352.812 -275.008)" fill="#e61030"/>
      <path id="Path_68" data-name="Path 68" d="M415.446,322.5q-.057,0-.115,0h0l-23.8-1.533a1.758,1.758,0,0,1-1.641-1.868l.407-6.319a1.758,1.758,0,0,1,1.867-1.642l23.8,1.533a1.76,1.76,0,0,1,1.641,1.868l-.407,6.319a1.763,1.763,0,0,1-1.142,1.535A1.739,1.739,0,0,1,415.446,322.5Z" transform="translate(-349.653 -271.015)" fill="#e9be4e"/>
      <path id="Path_69" data-name="Path 69" d="M337.873,163.2c1.685-1.449,4-.153,5.931-.38a4.58,4.58,0,0,0,3.681-3.638,5.67,5.67,0,0,0-2.2-5.4,8.16,8.16,0,0,0-6.17-1.547,15.427,15.427,0,0,0-6.785,2.853,30.6,30.6,0,0,0-5.384,4.564,11.776,11.776,0,0,0-3.059,5.644,7.745,7.745,0,0,0,1.069,5.766,6.079,6.079,0,0,0,2.379,1.961c.989.486,2.043.833,3,1.382,1.448.83,2.856,2.552,2.4,4.343a2.46,2.46,0,0,1-.559,1.052c-.324.36-.909-.116-.584-.477a2.074,2.074,0,0,0,.244-2.236,4.087,4.087,0,0,0-1.816-2c-1-.573-2.11-.927-3.138-1.45a6.786,6.786,0,0,1-2.489-2.063,8.4,8.4,0,0,1-1.319-5.993,11.874,11.874,0,0,1,2.881-5.948,29.657,29.657,0,0,1,5.437-4.812,17.5,17.5,0,0,1,6.994-3.24,9.376,9.376,0,0,1,6.59,1.061,6.928,6.928,0,0,1,3.351,5.261,5.585,5.585,0,0,1-2.606,5.009,4.8,4.8,0,0,1-2.865.664,21.877,21.877,0,0,0-3.218-.305,2.245,2.245,0,0,0-1.323.535c-.368.317-.807-.3-.442-.611Z" transform="translate(-299.551 -151.412)" fill="#2f2e41"/>
      <path id="Path_70" data-name="Path 70" d="M415.363,746.8h-185.4a.3.3,0,0,1,0-.6h185.4a.3.3,0,0,1,0,.6Z" transform="translate(-229.662 -596.804)" fill="#3f3d56"/>
    </g>
  </g>
</svg>
