<svg xmlns="http://www.w3.org/2000/svg" width="785" height="644.545" viewBox="0 0 785 644.545">
  <g id="Group_307" data-name="Group 307" transform="translate(-2220 -10447.118)">
    <path id="Path_3148" data-name="Path 3148" d="M297.069,140.78h3.45l-29.6,324.627a1.286,1.286,0,0,1-1.286,1.2h-2.909a1.286,1.286,0,0,1-1.286-1.407l29.428-322.355a2.236,2.236,0,0,1,2.2-2.068Z" transform="translate(2551.351 10594.6)" fill="#263238"/>
    <path id="Path_3149" data-name="Path 3149" d="M296.262,140.78H292.8l29.645,324.579a1.286,1.286,0,0,0,1.286,1.2h2.9a1.286,1.286,0,0,0,1.286-1.407L298.486,142.812a2.236,2.236,0,0,0-2.224-2.032Z" transform="translate(2556.883 10594.6)" fill="#263238"/>
    <g id="Group_306" data-name="Group 306" transform="translate(2711.731 10583.103)">
      <path id="Path_3085" data-name="Path 3085" d="M447.159,144.33H195.694a15.736,15.736,0,0,0-15.424,14.426L167.408,344.691a13.32,13.32,0,0,0,13.428,14.426H432.3a15.736,15.736,0,0,0,15.423-14.426l12.863-185.96a13.32,13.32,0,0,0-13.428-14.4Z" transform="translate(-167.362 -144.329)" fill="#fff"/>
      <g id="Group_304" data-name="Group 304" transform="translate(77.698 104.641)" opacity="0.2">
        <ellipse id="Ellipse_222" data-name="Ellipse 222" cx="27.517" cy="25.678" rx="27.517" ry="25.678" transform="translate(0 38.237) rotate(-44.01)" fill="#e61030"/>
        <ellipse id="Ellipse_223" data-name="Ellipse 223" cx="22.023" cy="20.545" rx="22.023" ry="20.545" transform="translate(7.518 38.112) rotate(-44.01)" fill="#fff"/>
        <ellipse id="Ellipse_224" data-name="Ellipse 224" cx="16.517" cy="15.411" rx="16.517" ry="15.411" transform="translate(15.044 37.978) rotate(-44.01)" fill="#e61030"/>
        <path id="Path_3087" data-name="Path 3087" d="M275.734,264.429a11.577,11.577,0,0,1-11.372,10.639,9.8,9.8,0,0,1-9.906-10.639,11.577,11.577,0,0,1,11.372-10.639,9.81,9.81,0,0,1,9.906,10.639Z" transform="translate(-227.461 -226.843)" fill="#fff"/>
        <path id="Path_3088" data-name="Path 3088" d="M269.51,263.534a5.782,5.782,0,0,1-5.686,5.314,4.893,4.893,0,0,1-4.941-5.314,5.77,5.77,0,0,1,5.686-5.313,4.893,4.893,0,0,1,4.941,5.314Z" transform="translate(-226.562 -225.948)" fill="#e61030"/>
      </g>
      <path id="Path_3089" data-name="Path 3089" d="M211.379,304.491H198.155a3.739,3.739,0,0,1-3.787-3.246,28.611,28.611,0,0,0-4.2-11.781,30.486,30.486,0,0,1-4.809-17.756,23.538,23.538,0,0,1,23.093-21.639,19.98,19.98,0,0,1,20.184,21.639,34.3,34.3,0,0,1-7.213,17.732,33.226,33.226,0,0,0-5.842,11.805,4.352,4.352,0,0,1-4.208,3.246Zm-2.933-53.183a22.312,22.312,0,0,0-21.891,20.436,29.321,29.321,0,0,0,4.616,17.046,29.609,29.609,0,0,1,4.376,12.262,2.561,2.561,0,0,0,2.6,2.2h13.224a3.114,3.114,0,0,0,2.993-2.272,34.549,34.549,0,0,1,6.011-12.238,33.131,33.131,0,0,0,7-17.07,18.778,18.778,0,0,0-18.982-20.436Z" transform="translate(-163.728 -122.955)" fill="#e61030"/>
      <path id="Path_3090" data-name="Path 3090" d="M217.527,269.472c-.673-.252-1.755-.144-3.186,2.02a34.464,34.464,0,0,0-3.727,8.956,8.415,8.415,0,0,1-1.563,0,4.881,4.881,0,0,1-3.7-1.767c1.094-1.515,1.9-4.111,1.984-8.319.072-3.7-.4-5.434-1.527-5.422-1.611,0-2.741,4.051-2.993,6.756a11.312,11.312,0,0,0,1.2,6.984,3.462,3.462,0,0,1-2.4,1.046,5.229,5.229,0,0,1-1.419-.12c-.252-4.424-1.118-7.477-2.6-9.124a4.219,4.219,0,0,0-3.606-1.491c-2.4.144-2.729,1.8-2.729,2.488,0,2.8,3.859,7.6,7.946,8.956.252,5.65-.421,14.281-2.8,27.445l-.084.493h1.07v-.361c2.128-11.709,3.09-20.833,2.849-27.3a7.214,7.214,0,0,0,1.346.084,4.484,4.484,0,0,0,2.969-1.262,5.854,5.854,0,0,0,4.292,1.984,8.848,8.848,0,0,0,1.382,0c-2.549,9.365-3.787,21.47-1.767,26.856h1.2c-2.2-4.869-.866-17.5,1.755-26.988a8.956,8.956,0,0,0,6.936-6.48C219.126,272.321,218.765,269.989,217.527,269.472Zm-25.245,1.947c0-.541.18-1.274,1.659-1.37h.276a3.21,3.21,0,0,1,2.561,1.2c1.046,1.2,2,3.534,2.32,8.042-3.342-1.455-6.768-5.578-6.756-7.874Zm12.394,6.323a9.485,9.485,0,0,1-.9-3.546c-.264-4.015,1.262-7.946,1.863-8.187,0,0,.637.421.565,4.412a16.133,16.133,0,0,1-1.467,7.321Zm12.719-3.114a7.874,7.874,0,0,1-5.578,5.6,32.3,32.3,0,0,1,3.45-8.223c.793-1.2,1.395-1.6,1.719-1.6h.132C217.611,270.686,218.008,272.441,217.395,274.629Z" transform="translate(-162.531 -119.949)" fill="#e61030"/>
      <path id="Path_3091" data-name="Path 3091" d="M209.681,303.3H195.256a1.491,1.491,0,0,1-1.515-1.611l.12-1.743a1.779,1.779,0,0,1,1.731-1.623h14.426a1.5,1.5,0,0,1,1.515,1.623l-.12,1.743a1.767,1.767,0,0,1-1.731,1.611Z" transform="translate(-162.03 -113.201)" fill="#e61030"/>
      <path id="Path_3092" data-name="Path 3092" d="M209.781,304.039H195.355a2.068,2.068,0,0,1-1.551-.661,2.092,2.092,0,0,1-.553-1.6l.12-1.743a2.4,2.4,0,0,1,2.32-2.176h14.426a2.08,2.08,0,0,1,1.551.673,2.056,2.056,0,0,1,.553,1.587l-.12,1.743A2.4,2.4,0,0,1,209.781,304.039Zm-14.149-4.977a1.2,1.2,0,0,0-1.13,1.058l-.12,1.743a.973.973,0,0,0,.24.7.9.9,0,0,0,.673.277h14.426a1.2,1.2,0,0,0,1.13-1.058l.12-1.743a.938.938,0,0,0-.24-.685.914.914,0,0,0-.673-.289Z" transform="translate(-162.13 -113.294)" fill="#e61030"/>
      <path id="Path_3093" data-name="Path 3093" d="M359.167,231.06,345.03,215.877,353.1,210.9l11.577,12.442Z" transform="translate(-131.447 -130.872)" fill="#e61030"/>
      <path id="Path_3094" data-name="Path 3094" d="M355.526,228.978l-9.2-9.882,8.992-6.756,7.537,8.09Z" transform="translate(-131.184 -130.581)" fill="#e61030"/>
      <path id="Path_3095" data-name="Path 3095" d="M366.41,199.718l-10.591,9.269a5.7,5.7,0,0,1-4.628,1.479c-2.765-.529-8.271,1.37-8.271,1.37C347.416,207.208,352.946,195.559,366.41,199.718Z" transform="translate(-131.874 -133.311)" fill="#e61030"/>
      <path id="Path_3096" data-name="Path 3096" d="M375.692,211.32s-5.35,5.325-9.954,9.942a5.686,5.686,0,0,0-1.791,4.52c.337,2.8-1.947,8.187-1.947,8.187C366.917,229.8,378.9,225.061,375.692,211.32Z" transform="translate(-128.017 -130.787)" fill="#e61030"/>
      <path id="Path_3097" data-name="Path 3097" d="M386.611,208.87c7.814-8.139,10.819-16.986,7.381-20.617s-12.382-1.286-21.025,6.011L351.533,212.3a3.943,3.943,0,0,0-.553,5.662l10.543,11.336a3.919,3.919,0,0,0,5.686-.168Z" transform="translate(-130.436 -135.791)" fill="#fff"/>
      <path id="Path_3098" data-name="Path 3098" d="M364.306,231.064h0a4.207,4.207,0,0,1-3.077-1.334L350.65,218.441a4.207,4.207,0,0,1-1.118-3.174,4.809,4.809,0,0,1,1.719-3.366l21.434-18.032c8.752-7.357,18.152-9.894,21.855-5.915s.529,13.224-7.393,21.446l-19.4,20.184A4.809,4.809,0,0,1,364.306,231.064Zm25.161-43.806c-4.22,0-10.3,2.729-16.013,7.513L352.032,212.8a3.606,3.606,0,0,0-1.3,2.525,2.993,2.993,0,0,0,.793,2.272l10.543,11.336a3.053,3.053,0,0,0,2.212.95,3.726,3.726,0,0,0,2.6-1.118l19.4-20.2c7.345-7.646,10.591-16.337,7.381-19.787a5.518,5.518,0,0,0-4.2-1.527Z" transform="translate(-130.539 -135.889)" fill="#e61030"/>
      <path id="Path_3099" data-name="Path 3099" d="M379.319,206.229a6.768,6.768,0,1,1,.649-9.87,6.984,6.984,0,0,1-.649,9.87Z" transform="translate(-126.75 -134.244)" fill="#e61030"/>
      <path id="Path_3100" data-name="Path 3100" d="M377.562,204.337a4.676,4.676,0,1,1,.469-6.828,4.809,4.809,0,0,1-.469,6.828Z" transform="translate(-126.412 -133.879)" fill="#fff" opacity="0.3"/>
      <ellipse id="Ellipse_225" data-name="Ellipse 225" cx="23.322" cy="21.759" rx="23.322" ry="21.759" transform="translate(150.183 165.313) rotate(-44.01)" fill="#e61030"/>
      <path id="Path_3102" data-name="Path 3102" d="M339.053,290.3a21.951,21.951,0,0,1-18.525,10.6,18.585,18.585,0,0,1-17.058-10.6,33.72,33.72,0,0,1,18.164-5.386,30.2,30.2,0,0,1,17.419,5.386Z" transform="translate(-139.848 -115.912)" fill="#e61030" opacity="0.6"/>
      <path id="Path_3103" data-name="Path 3103" d="M329.757,277.136a9.822,9.822,0,0,1-9.617,9.016,8.307,8.307,0,0,1-8.415-9.016,9.821,9.821,0,0,1,9.617-9.016,8.307,8.307,0,0,1,8.415,9.016Z" transform="translate(-138.186 -119.306)" fill="#e61030" opacity="0.6"/>
      <path id="Path_3105" data-name="Path 3105" d="M282.232,198.631a21.951,21.951,0,0,1,2.4,13.957,24.835,24.835,0,0,1-7.6,14.173,25.545,25.545,0,0,1-5,3.606A24.562,24.562,0,0,1,267.6,232.3l-4.2-21.1,18.874-12.6m.385-1.707L262,210.677l4.6,23.165a25.691,25.691,0,0,0,5.951-2.4,26.591,26.591,0,0,0,5.229-3.811,25.954,25.954,0,0,0,7.958-14.871,22.841,22.841,0,0,0-3.15-15.844Z" transform="translate(-148.231 -133.702)" fill="#e61030"/>
      <path id="Path_3106" data-name="Path 3106" d="M265.538,212.384,244.5,202.25a26.3,26.3,0,0,1,5.253-6.816c9.942-9.3,25.245-9.3,33.912,0a21.168,21.168,0,0,1,2.4,3.2Z" transform="translate(-151.769 -135.41)" fill="#e61030"/>
      <path id="Path_3107" data-name="Path 3107" d="M266.041,210.064l4.6,23.165a22.841,22.841,0,0,1-22.733-6.2c-6.624-7.117-7.79-18.032-2.909-27.1Z" transform="translate(-152.272 -133.09)" fill="#e0e0e0"/>
      <path id="Path_3109" data-name="Path 3109" d="M206.4,243.259l-1.2-.313a38.908,38.908,0,0,1,1.743-4.953l1.106.481a37.472,37.472,0,0,0-1.647,4.785Zm3.931-9.365-1.046-.589c.817-1.479,1.731-2.969,2.717-4.448l1,.673C212.04,230.973,211.139,232.44,210.333,233.895Zm5.674-8.511-.95-.745c1.07-1.358,2.2-2.693,3.366-3.967l.89.805c-1.13,1.25-2.26,2.573-3.306,3.907Zm6.888-7.561-.829-.878c1.286-1.2,2.609-2.4,3.931-3.426l.745.938C225.4,215.49,224.194,216.62,222.9,217.822Zm7.97-6.371-.661-1.01a42.869,42.869,0,0,1,4.52-2.621l.541,1.07a46.587,46.587,0,0,0-4.4,2.561Z" transform="translate(-159.713 -131.495)" fill="#e61030"/>
      <path id="Path_3110" data-name="Path 3110" d="M234.171,207.433l-.361-1.2a24.6,24.6,0,0,1,2.4-.661l.264,1.2C235.709,206.977,234.94,207.181,234.171,207.433Z" transform="translate(-153.93 -131.95)" fill="#e61030"/>
      <path id="Path_3111" data-name="Path 3111" d="M371.373,235.286c-.072-.805-.18-1.587-.313-2.332l1.2-.2c.144.769.252,1.587.337,2.4Z" transform="translate(-126.185 -126.456)" fill="#e61030"/>
      <path id="Path_3112" data-name="Path 3112" d="M352.1,280.469l-.613-1.034c1.274-.757,2.536-1.6,3.727-2.476l.709.974C354.7,278.834,353.413,279.687,352.1,280.469Zm7.405-5.422-.805-.9c1.106-.986,2.188-2.044,3.21-3.138l.878.817c-1.07,1.118-2.152,2.2-3.282,3.222Zm6.251-6.72-.95-.733c.9-1.2,1.767-2.4,2.573-3.667l1.022.649c-.829,1.286-1.719,2.548-2.645,3.751Zm4.941-7.73-1.07-.553c.685-1.322,1.334-2.693,1.911-4.063l1.106.457C372.059,257.856,371.4,259.251,370.7,260.6Zm3.534-8.415-1.2-.361c.457-1.431.854-2.885,1.2-4.328l1.2.264c-.325,1.431-.733,2.921-1.2,4.376Zm2.044-8.944-1.2-.168a44.306,44.306,0,0,0,.373-4.46h1.2a43.76,43.76,0,0,1-.373,4.58Z" transform="translate(-130.141 -125.271)" fill="#e61030"/>
      <path id="Path_3114" data-name="Path 3114" d="M291.936,205.963c-.769-.192-1.539-.361-2.3-.481l.192-1.2c.793.132,1.6.3,2.4.5Z" transform="translate(-142.644 -132.211)" fill="#e61030"/>
      <path id="Path_3115" data-name="Path 3115" d="M327.481,259.96l-1.2-.072c0-.685.06-1.394.06-2.1a27.74,27.74,0,0,0-.1-2.813l1.2-.084c.072.974.108,1.947.108,2.9C327.541,258.518,327.517,259.251,327.481,259.96Zm-1.827-9.906c-.276-1.587-.625-3.21-1.046-4.809l1.2-.3c.433,1.647.793,3.318,1.07,4.941Zm-2.488-9.617c-.541-1.551-1.142-3.1-1.791-4.616l1.094-.481c.673,1.551,1.286,3.126,1.827,4.712Zm-3.919-9.1c-.769-1.467-1.587-2.921-2.4-4.316l1.022-.637c.878,1.419,1.719,2.9,2.488,4.4Zm-5.205-8.415c-.986-1.346-2.02-2.657-3.077-3.883l.914-.781a49.855,49.855,0,0,1,3.138,3.955Zm-6.468-7.477a48.611,48.611,0,0,0-3.727-3.246l.733-.938a48.677,48.677,0,0,1,3.823,3.318Zm-7.79-6.011a34.862,34.862,0,0,0-4.364-2.248l.469-1.106a37.389,37.389,0,0,1,4.52,2.32Z" transform="translate(-141.475 -131.847)" fill="#e61030"/>
      <path id="Path_3117" data-name="Path 3117" d="M232.347,180.742a7.646,7.646,0,0,0-7.73-8.235,8.692,8.692,0,0,0-3.162.6,9.208,9.208,0,0,0-8.619-5.638,10.939,10.939,0,0,0-10.338,7.862,9.413,9.413,0,0,0-8.68,8.607v.637h0a4.364,4.364,0,0,0-4.316,3.967,3.678,3.678,0,0,0,3.727,4h36.124a6.66,6.66,0,0,0,6.54-6.119,5.626,5.626,0,0,0-3.546-5.686Z" transform="translate(-162.889 -139.652)" fill="#e61030" opacity="0.2"/>
      <path id="Path_3118" data-name="Path 3118" d="M360.981,180.393a6.684,6.684,0,0,0-6.756-7.213,7.406,7.406,0,0,0-2.765.541,8.066,8.066,0,0,0-7.537-4.941,9.617,9.617,0,0,0-9.016,6.876,8.223,8.223,0,0,0-7.573,7.525c0,.192,0,.373,0,.553h0a3.811,3.811,0,0,0-3.751,3.5,3.234,3.234,0,0,0,3.258,3.51h31.58a5.83,5.83,0,0,0,5.722-5.362,4.9,4.9,0,0,0-3.162-4.989Z" transform="translate(-135.785 -139.387)" fill="#e61030" opacity="0.2"/>
      <path id="Path_3119" data-name="Path 3119" d="M286.9,166.094a6.011,6.011,0,0,1,5.854-5.446,5.109,5.109,0,0,1,2.032.409,7.213,7.213,0,0,1,6.2-3.727,6.011,6.011,0,0,1,6.107,5.193,5.229,5.229,0,0,1,4.941,5.674,2.513,2.513,0,0,1,0,.421h0a2.4,2.4,0,0,1,2.464,2.645,2.885,2.885,0,0,1-2.825,2.645H287.8a3.727,3.727,0,0,1-3.763-4.039,4.4,4.4,0,0,1,2.861-3.775Z" transform="translate(-143.778 -141.702)" fill="#e61030" opacity="0.1"/>
    </g>
    <g id="freepik--Panel--inject-13" transform="translate(2423.113 10447.118)">
      <path id="Path_2813" data-name="Path 2813" d="M480.542,61.46s18.381.252,10.519,36.653-6.852,43.277-6.852,57.7a25.113,25.113,0,0,0,13.6,22.9H472.873L454.54,93.738V61.46Z" transform="translate(-220.067 -59.705)" fill="#e0e0e0"/>
      <path id="Path_2814" data-name="Path 2814" d="M523,343.283H271.28l2.248-246.259L510.615,84.63Z" transform="translate(-257.112 -55.021)" fill="#e0e0e0"/>
      <path id="Path_2815" data-name="Path 2815" d="M515.807,336.712H264.09l2.248-246.259L510.746,85.68Z" transform="translate(-258.565 -54.809)" fill="#ebebeb"/>
      <path id="Path_2816" data-name="Path 2816" d="M511.38,330.3H260.18V84.039l251.356-.589Z" transform="translate(-259.355 -55.26)" fill="#fafafa"/>
      <path id="Path_2817" data-name="Path 2817" d="M511.416,330.343c0-2.3,0-98.78-.12-246.848l.276.276-250.96.625h-.4l.313-.313V330.343l-.264-.264,251.248.264-251.248.277H260V83.771h.7l250.972-.541h.264v.264C511.585,231.563,511.416,328.047,511.416,330.343Z" transform="translate(-259.392 -55.304)" fill="#263238"/>
      <path id="Path_2818" data-name="Path 2818" d="M511.675,87.384c-12.983-15.111,2.08-26.291,7.213-26.531L279.661,60.72A20.148,20.148,0,0,0,259.79,84.306a28.65,28.65,0,0,0,.974,3.739" transform="translate(-259.494 -59.854)" fill="#f5f5f5"/>
      <path id="Path_2819" data-name="Path 2819" d="M476.487,178.755h5.049l14.173-.084v.373a15.351,15.351,0,0,1-5.782-3.306,18.862,18.862,0,0,1-4.3-6.155,41.02,41.02,0,0,1-2.585-7.862c-.325-1.407-.613-2.837-.878-4.3a22.447,22.447,0,0,1-.349-2.248,18.286,18.286,0,0,1-.168-2.308,83.3,83.3,0,0,1,.313-9.617c.24-3.27.613-6.624,1.01-10.05.817-6.84,1.839-13.969,3.053-21.278.5-3.114,1.13-6.2,1.647-9.22s.9-6.011,1.286-8.992.7-5.866,1.046-8.716c.156-1.419.349-2.825.385-4.208a25.73,25.73,0,0,0-.228-4.1,24.836,24.836,0,0,0-2.3-7.634,15,15,0,0,0-4.628-5.7,9.04,9.04,0,0,0-6.54-1.455,11.865,11.865,0,0,0-5.818,2.4,14.425,14.425,0,0,0-3.606,4.5,19.233,19.233,0,0,0-1.755,4.893,12.791,12.791,0,0,0,.95,8.151,28.225,28.225,0,0,0,2.645,4.6l.817,1.118c.18.252.264.4.264.4a4,4,0,0,1-.325-.349l-.854-1.094a24.96,24.96,0,0,1-2.765-4.58,13.007,13.007,0,0,1-1.082-8.319,19.608,19.608,0,0,1,1.755-5,14.751,14.751,0,0,1,3.715-4.664,12.478,12.478,0,0,1,6.011-2.549,9.545,9.545,0,0,1,6.9,1.515,15.436,15.436,0,0,1,4.809,5.9,25.054,25.054,0,0,1,2.308,7.754,26.942,26.942,0,0,1,.252,4.2,39.342,39.342,0,0,1-.385,4.268c-.313,2.849-.649,5.758-1.034,8.728s-.781,6.011-1.274,9.016-1.142,6.095-1.635,9.22c-1.2,7.3-2.248,14.426-3.077,21.242-.4,3.414-.769,6.756-1.022,10.026a85.357,85.357,0,0,0-.349,9.5,19.806,19.806,0,0,0,.156,2.26c.06.745.216,1.491.337,2.224.264,1.455.541,2.885.866,4.28a40.368,40.368,0,0,0,2.5,7.778,18.56,18.56,0,0,0,4.171,6.011,14.871,14.871,0,0,0,5.6,3.258l1.2.385h-1.2l-14.173-.084h-4.712Z" transform="translate(-217.971 -59.742)" fill="#263238"/>
      <path id="Path_2820" data-name="Path 2820" d="M346.191,67.09c.1.072-.625,1.022-1.334,2.777a16.148,16.148,0,0,0-.9,3.162,18.223,18.223,0,0,0-.192,4.027A17.471,17.471,0,0,0,344.568,81,15.7,15.7,0,0,0,345.939,84c.974,1.611,1.827,2.4,1.743,2.537s-.264-.168-.649-.541a9.989,9.989,0,0,1-1.467-1.767,14.017,14.017,0,0,1-1.539-3.041,15.267,15.267,0,0,1-.637-8.259,14.483,14.483,0,0,1,1.058-3.246,10.026,10.026,0,0,1,1.2-1.972C345.951,67.295,346.155,67.066,346.191,67.09Z" transform="translate(-242.595 -58.567)" fill="#263238"/>
      <path id="Path_2821" data-name="Path 2821" d="M341.771,60a25.1,25.1,0,0,0-3.174,3.883,15.892,15.892,0,0,0,4,21.47,25.689,25.689,0,0,0,4.34,2.488,5.626,5.626,0,0,1-1.322-.361,14.535,14.535,0,0,1-3.306-1.755,15.856,15.856,0,0,1-4.087-22.119,14.174,14.174,0,0,1,2.4-2.825A5.013,5.013,0,0,1,341.771,60Z" transform="translate(-244.15 -60)" fill="#263238"/>
      <path id="Path_2822" data-name="Path 2822" d="M486.649,237.727h-3.09l-8.884.06-32.7.156-107.724.1H287.49v-.3c0-30.775.084-57.246.12-76.048,0-9.377.06-16.83.084-21.975v0c0,5.145,0,12.6.084,21.975,0,18.8.072,45.273.12,76.048l-.3-.3h46.463l107.724.1,32.65.1,8.884.06h2.308Z" transform="translate(-253.835 -45.48)" fill="#263238"/>
      <rect id="Rectangle_438" data-name="Rectangle 438" width="20.088" height="20.088" transform="translate(50.161 166.076)" fill="#e61030"/>
      <rect id="Rectangle_439" data-name="Rectangle 439" width="20.088" height="34.441" transform="translate(79.601 151.723)" fill="#e61030"/>
      <rect id="Rectangle_440" data-name="Rectangle 440" width="20.088" height="50.755" transform="translate(109.162 135.41)" fill="#e61030"/>
      <rect id="Rectangle_441" data-name="Rectangle 441" width="20.088" height="68.907" transform="translate(137.821 117.257)" fill="#e61030"/>
      <rect id="Rectangle_442" data-name="Rectangle 442" width="20.088" height="92.144" transform="translate(167.141 94.02)" fill="#e61030"/>
      <rect id="Rectangle_443" data-name="Rectangle 443" width="20.088" height="108.926" transform="translate(196.245 76.288)" fill="#e61030"/>
      <path id="Path_2823" data-name="Path 2823" d="M301.22,196.163a1.273,1.273,0,0,1,.252-.2l.781-.541,3.065-2.044,11.5-7.586,39.851-26.05.469-.3v9.545l-.481-.252,15.7-10.531,55.419-37.026,16.83-11.168L449.2,107l1.2-.769.421-.24a2.632,2.632,0,0,1-.385.289l-1.2.829-4.532,3.1-16.662,11.42-55.3,37.182-15.712,10.519-.481.325v-9.617l.469.252L317.04,186.149l-11.6,7.441-3.114,1.96-.805.5Z" transform="translate(-251.059 -50.703)" fill="#263238"/>
      <path id="Path_2824" data-name="Path 2824" d="M427.386,114.57a10.3,10.3,0,0,1-.216-2.476c0-1.539-.084-3.679-.1-6.011l.313.313h-.769c-2.573,0-4.9,0-6.588-.1a12.6,12.6,0,0,1-2.729-.216,12.022,12.022,0,0,1,2.729-.228c1.683,0,4.015-.084,6.588-.084H427.7v.276c0,2.4,0,4.532-.1,6.011a10.3,10.3,0,0,1-.216,2.512Z" transform="translate(-227.594 -50.748)" fill="#263238"/>
      <path id="Path_2825" data-name="Path 2825" d="M342.071,233.443c0,.18-6.2.313-13.861.313s-13.861-.132-13.861-.313,6.2-.313,13.861-.313S342.071,233.274,342.071,233.443Z" transform="translate(-248.405 -25.003)" fill="#263238"/>
      <path id="Path_2826" data-name="Path 2826" d="M325.623,242.382a17.01,17.01,0,0,1,0-6.492A17.009,17.009,0,0,1,325.623,242.382Z" transform="translate(-246.19 -24.445)" fill="#263238"/>
      <path id="Path_2827" data-name="Path 2827" d="M366.363,244.053c0,.168-16.674.313-37.266.313s-37.266-.144-37.266-.313,16.662-.313,37.266-.313S366.363,243.872,366.363,244.053Z" transform="translate(-252.958 -22.858)" fill="#263238"/>
      <path id="Path_2828" data-name="Path 2828" d="M292.373,253.192a32.457,32.457,0,0,1,0-8.992,32.455,32.455,0,0,1,0,8.992Z" transform="translate(-252.911 -22.765)" fill="#263238"/>
      <path id="Path_2829" data-name="Path 2829" d="M314.4,252.152a24.126,24.126,0,0,1,0-7.742,24.129,24.129,0,0,1,0,7.742Z" transform="translate(-248.458 -22.723)" fill="#263238"/>
      <path id="Path_2830" data-name="Path 2830" d="M337.053,252.687a28.958,28.958,0,0,1,0-8.487A28.962,28.962,0,0,1,337.053,252.687Z" transform="translate(-243.879 -22.765)" fill="#263238"/>
      <path id="Path_2831" data-name="Path 2831" d="M354.293,252.73a30.7,30.7,0,0,1,0-8.74A30.7,30.7,0,0,1,354.293,252.73Z" transform="translate(-240.394 -22.808)" fill="#263238"/>
      <path id="Path_2832" data-name="Path 2832" d="M303.024,253.82a65.79,65.79,0,0,1-8.992.313,65.785,65.785,0,0,1-8.992-.313,63.542,63.542,0,0,1,8.992-.313,63.551,63.551,0,0,1,8.992.313Z" transform="translate(-254.33 -20.892)" fill="#263238"/>
      <path id="Path_2833" data-name="Path 2833" d="M321.44,253.813a75.665,75.665,0,0,1-13.741,0,75.662,75.662,0,0,1,13.741,0Z" transform="translate(-249.749 -20.885)" fill="#263238"/>
      <path id="Path_2834" data-name="Path 2834" d="M345.918,254.433a87.02,87.02,0,0,1-14.738,0,87.017,87.017,0,0,1,14.738,0Z" transform="translate(-245.003 -20.76)" fill="#263238"/>
      <path id="Path_2835" data-name="Path 2835" d="M365.826,253.393a99.186,99.186,0,0,1-15.736,0A99.186,99.186,0,0,1,365.826,253.393Z" transform="translate(-241.181 -20.97)" fill="#263238"/>
      <path id="Path_2836" data-name="Path 2836" d="M292.583,261.881a11.144,11.144,0,0,1,0-5.241,11.144,11.144,0,0,1,0,5.241Z" transform="translate(-252.869 -20.25)" fill="#263238"/>
      <path id="Path_2837" data-name="Path 2837" d="M312.21,261.053c0,.168-7.273.313-16.229.313s-16.241-.144-16.241-.313,7.273-.313,16.241-.313S312.21,260.908,312.21,261.053Z" transform="translate(-255.401 -19.422)" fill="#263238"/>
      <path id="Path_2838" data-name="Path 2838" d="M306.8,268.519a22.588,22.588,0,0,1,0-7.489,22.587,22.587,0,0,1,0,7.489Z" transform="translate(-249.994 -19.363)" fill="#263238"/>
      <path id="Path_2839" data-name="Path 2839" d="M279.793,269.024a25.714,25.714,0,0,1,0-7.994,25.714,25.714,0,0,1,0,7.994Z" transform="translate(-255.454 -19.363)" fill="#263238"/>
      <path id="Path_2840" data-name="Path 2840" d="M337.6,261.881a11.143,11.143,0,0,1,0-5.241A11.144,11.144,0,0,1,337.6,261.881Z" transform="translate(-243.768 -20.25)" fill="#263238"/>
      <path id="Path_2841" data-name="Path 2841" d="M379.614,261.053c0,.168-12.286.313-27.433.313s-27.421-.144-27.421-.313,12.274-.313,27.421-.313S379.614,260.908,379.614,261.053Z" transform="translate(-246.301 -19.422)" fill="#263238"/>
      <path id="Path_2842" data-name="Path 2842" d="M351.823,268.519a22.588,22.588,0,0,1,0-7.489,22.585,22.585,0,0,1,0,7.489Z" transform="translate(-240.894 -19.363)" fill="#263238"/>
      <path id="Path_2843" data-name="Path 2843" d="M371.373,268.519a22.587,22.587,0,0,1,0-7.489,22.588,22.588,0,0,1,0,7.489Z" transform="translate(-236.942 -19.363)" fill="#263238"/>
      <path id="Path_2844" data-name="Path 2844" d="M324.813,269.024a25.715,25.715,0,0,1,0-7.994,25.716,25.716,0,0,1,0,7.994Z" transform="translate(-246.353 -19.363)" fill="#263238"/>
      <path id="Path_2845" data-name="Path 2845" d="M287.211,271.563a65.59,65.59,0,0,1-12.791,0A65.59,65.59,0,0,1,287.211,271.563Z" transform="translate(-256.477 -17.297)" fill="#263238"/>
      <path id="Path_2846" data-name="Path 2846" d="M313.847,270.8a76.723,76.723,0,0,1-13.837,0A76.717,76.717,0,0,1,313.847,270.8Z" transform="translate(-251.304 -17.451)" fill="#263238"/>
      <path id="Path_2847" data-name="Path 2847" d="M332.678,270.8a59.469,59.469,0,0,1-12.178,0,59.472,59.472,0,0,1,12.178,0Z" transform="translate(-247.162 -17.451)" fill="#263238"/>
      <path id="Path_2848" data-name="Path 2848" d="M358.624,270.8a69.966,69.966,0,0,1-13.224,0A69.961,69.961,0,0,1,358.624,270.8Z" transform="translate(-242.129 -17.451)" fill="#263238"/>
      <path id="Path_2849" data-name="Path 2849" d="M379.256,270.113a72.131,72.131,0,0,1-13.416,0A72.131,72.131,0,0,1,379.256,270.113Z" transform="translate(-237.997 -17.59)" fill="#263238"/>
      <path id="Path_2850" data-name="Path 2850" d="M467.257,282.94H382.47V230.43h84.787Zm-84.739-.06h84.739V230.49H382.53Z" transform="translate(-234.635 -25.549)" fill="#263238"/>
      <path id="Path_2851" data-name="Path 2851" d="M445.3,265.783c-5.879-2.224-12.635,3.931-18.4,1.419-3.342-1.455-4.869-5.253-6.516-8.511s-4.472-6.72-8.1-6.335-6.636,4.628-10.182,3.606c-2.236-.649-3.342-3.126-3.907-5.386s-.95-4.748-2.657-6.335-5.241-1.2-5.518,1.2v27.806h66.274S447.292,266.552,445.3,265.783Z" transform="translate(-233.111 -22.95)" fill="#e61030"/>
      <path id="Path_2852" data-name="Path 2852" d="M458.644,268.188c0,.06-16.061.108-35.872.108s-35.872,0-35.872-.108,16.061-.108,35.872-.108S458.644,268.128,458.644,268.188Z" transform="translate(-233.74 -17.938)" fill="#e0e0e0"/>
      <path id="Path_2853" data-name="Path 2853" d="M458.644,258.088c0,.06-16.061.108-35.872.108s-35.872,0-35.872-.108,16.061-.108,35.872-.108S458.644,258,458.644,258.088Z" transform="translate(-233.74 -19.98)" fill="#263238"/>
      <path id="Path_2854" data-name="Path 2854" d="M458.644,248.018s-16.061.1-35.872.1-35.872,0-35.872-.1,16.061-.108,35.872-.108S458.644,247.922,458.644,248.018Z" transform="translate(-233.74 -22.015)" fill="#263238"/>
      <path id="Path_2855" data-name="Path 2855" d="M458.644,238.378s-16.061.108-35.872.108-35.872,0-35.872-.108,16.061-.108,35.872-.108S458.644,238.318,458.644,238.378Z" transform="translate(-233.74 -23.964)" fill="#263238"/>
      <path id="Path_2856" data-name="Path 2856" d="M289.031,98.292h.457a6.937,6.937,0,0,1,1.322.12,6.792,6.792,0,0,1,2,.685,6.467,6.467,0,0,1,2.128,1.827,7.549,7.549,0,0,1,1.406,3.126,7.453,7.453,0,0,1-.493,3.907,11.567,11.567,0,0,1-.974,1.923,20.339,20.339,0,0,0-1.094,1.947,16.471,16.471,0,0,0-1.467,4.46v.108h-.108l-3.138-.072-3.294-.084h-.1v-.12a9.413,9.413,0,0,0-1.358-4.4c-.349-.673-.745-1.3-1.118-1.935a18.793,18.793,0,0,1-1.034-1.863,6.119,6.119,0,0,1-.349-3.895,8.174,8.174,0,0,1,1.358-3.114,6.01,6.01,0,0,1,2.1-1.767,7.429,7.429,0,0,1,1.984-.673,7.717,7.717,0,0,1,1.31-.168h0a8.221,8.221,0,0,0-1.286.2,7.849,7.849,0,0,0-1.947.7,6.106,6.106,0,0,0-2.08,1.767,8.067,8.067,0,0,0-1.286,3.065,5.878,5.878,0,0,0,.349,3.763,19.04,19.04,0,0,0,1.034,1.839c.373.625.769,1.262,1.13,1.935a9.509,9.509,0,0,1,1.382,4.52l-.108-.132,3.294.084,3.138.084-.12.1a17.071,17.071,0,0,1,1.491-4.52,20.331,20.331,0,0,1,1.118-1.959,11.186,11.186,0,0,0,.962-1.887,7.117,7.117,0,0,0,.5-3.811A7.526,7.526,0,0,0,294.814,101a6.672,6.672,0,0,0-2.068-1.851,7.057,7.057,0,0,0-1.948-.709,8.837,8.837,0,0,0-1.31-.156h-.349Z" transform="translate(-255.016 -52.262)" fill="#263238"/>
      <path id="Path_2857" data-name="Path 2857" d="M289.4,114.995a.744.744,0,0,0,0-.108V114.6c0-.264-.072-.649-.132-1.2-.1-1-.252-2.4-.325-4.22v-2.921a4.208,4.208,0,0,1,.421-1.575,2.489,2.489,0,0,1,1.262-1.2,1.623,1.623,0,0,1,1.719.409,1.2,1.2,0,0,1,.337.878,1.574,1.574,0,0,1-.361.9,2.283,2.283,0,0,1-.793.589,4.3,4.3,0,0,1-.95.276,12.647,12.647,0,0,1-4.039,0,3.2,3.2,0,0,1-.938-.313,2.4,2.4,0,0,1-.781-.6,1.851,1.851,0,0,1-.433-.866,1.479,1.479,0,0,1,.156-.938,1.31,1.31,0,0,1,.7-.625,1.13,1.13,0,0,1,.9.084,1.647,1.647,0,0,1,.649.6,2.26,2.26,0,0,1,.3.805,9.408,9.408,0,0,1,.1,1.623v8.692a.544.544,0,0,0,0-.1v-1.5c0-1,0-2.4-.072-4.22v-2.921a9.192,9.192,0,0,0-.1-1.611,2.211,2.211,0,0,0-.288-.769,1.575,1.575,0,0,0-.625-.565,1,1,0,0,0-.829-.072,1.2,1.2,0,0,0-.637.577,1.335,1.335,0,0,0-.144.866,1.851,1.851,0,0,0,.409.829,2.873,2.873,0,0,0,1.671.878,11,11,0,0,0,2,.18,10.015,10.015,0,0,0,2-.156,3.5,3.5,0,0,0,.938-.264,2.164,2.164,0,0,0,.757-.553,1.479,1.479,0,0,0,.337-.841,1.082,1.082,0,0,0-.313-.817,1.527,1.527,0,0,0-1.611-.385,2.332,2.332,0,0,0-1.2,1.13,3.931,3.931,0,0,0-.421,1.539,12.568,12.568,0,0,1-.06,1.515,10.792,10.792,0,0,0,0,1.395c.06,1.779.2,3.222.288,4.208a9.156,9.156,0,0,0,.12,1.2v.457Z" transform="translate(-254.467 -51.281)" fill="#263238"/>
      <path id="Path_2858" data-name="Path 2858" d="M285.084,113v3.811h0l2.044,2.549H289.4l1.286-1.455.649-.721v.1c0-1.455,0-2.825.072-4.075l.132.132-4.628-.144h-1.827a1.612,1.612,0,0,1,.433,0h6.119V117.4h0l-.649.733-1.286,1.443h-2.549L285,116.919h0c0-1.094.06-2.032.084-2.825a6.505,6.505,0,0,1,0-1.094Z" transform="translate(-254.338 -49.286)" fill="#263238"/>
      <path id="Path_2859" data-name="Path 2859" d="M291.3,116.376l-.24-.108a4.807,4.807,0,0,0-.625-.276,6.131,6.131,0,0,0-2.224-.433,6.215,6.215,0,0,0-2.224.385,5.452,5.452,0,0,0-.637.264l-.24.108a.89.89,0,0,1,.216-.144l.637-.3a6.24,6.24,0,0,1,2.248-.421,6.1,6.1,0,0,1,2.248.469,5.938,5.938,0,0,1,.625.313.889.889,0,0,1,.216.144Z" transform="translate(-254.316 -48.791)" fill="#263238"/>
      <path id="Path_2860" data-name="Path 2860" d="M291.329,115.556l-.228-.12-.637-.276a6.683,6.683,0,0,0-2.224-.433,6.467,6.467,0,0,0-2.224.4,5.452,5.452,0,0,0-.637.264l-.228.1.216-.132a3.85,3.85,0,0,1,.625-.3,6.011,6.011,0,0,1,2.26-.421,6.083,6.083,0,0,1,2.236.469,4.257,4.257,0,0,1,.625.313A.889.889,0,0,1,291.329,115.556Z" transform="translate(-254.308 -48.957)" fill="#263238"/>
      <path id="Path_2861" data-name="Path 2861" d="M291.309,114.756a1.13,1.13,0,0,1-.228-.108,5.157,5.157,0,0,0-.637-.276,6.251,6.251,0,0,0-4.448,0c-.264.1-.481.192-.637.264l-.228.108.216-.144c.144-.072.361-.18.625-.289a5.867,5.867,0,0,1,2.26-.421,5.927,5.927,0,0,1,2.248.457c.264.12.481.228.625.313Z" transform="translate(-254.312 -49.107)" fill="#263238"/>
      <path id="Path_2862" data-name="Path 2862" d="M309.52,136.14s-2.4,22.18.685,34.321l29.633-1.3s-6.347-21.867-2.4-31.556Z" transform="translate(-249.562 -44.609)" fill="#ebebeb"/>
      <path id="Path_2863" data-name="Path 2863" d="M309.47,135.55s.2,23.947,1.419,31.256l30.054-1.419s-2.645-23.538-1.623-29.825Z" transform="translate(-249.392 -44.728)" fill="#e61030"/>
      <path id="Path_2864" data-name="Path 2864" d="M333.9,143.926c0,.108-4.5.469-10.062.805s-10.074.517-10.086.4,4.5-.469,10.062-.805S333.9,143.806,333.9,143.926Z" transform="translate(-248.526 -43.042)" fill="#fff"/>
      <path id="Path_2865" data-name="Path 2865" d="M333.908,148.138c0,.12-4.5.481-10.062.805s-10.086.517-10.086.409,4.5-.469,10.062-.805S333.9,147.982,333.908,148.138Z" transform="translate(-248.524 -42.194)" fill="#fff"/>
      <path id="Path_2866" data-name="Path 2866" d="M328.2,152.29a7.4,7.4,0,0,1-1.671.24c-1.034.1-2.464.2-4.051.3s-3.029.156-4.063.18a6.455,6.455,0,0,1-1.7,0,6.767,6.767,0,0,1,1.671-.24c1.046-.1,2.476-.2,4.063-.3s3.017-.168,4.063-.192a6.6,6.6,0,0,1,1.683.012Z" transform="translate(-247.926 -41.356)" fill="#fff"/>
      <path id="Path_2867" data-name="Path 2867" d="M379.612,103.263c0,.18-17.563.313-39.226.313s-39.226-.132-39.226-.313,17.563-.313,39.226-.313S379.612,103.094,379.612,103.263Z" transform="translate(-251.071 -51.318)" fill="#263238"/>
      <path id="Path_2868" data-name="Path 2868" d="M330.078,109.213c0,.18-6.588.313-14.714.313s-14.714-.132-14.714-.313,6.588-.313,14.714-.313S330.078,109.02,330.078,109.213Z" transform="translate(-251.175 -50.115)" fill="#263238"/>
      <path id="Path_2869" data-name="Path 2869" d="M340.038,109.213a51.691,51.691,0,0,1-11.348,0A51.693,51.693,0,0,1,340.038,109.213Z" transform="translate(-245.506 -50.115)" fill="#263238"/>
      <path id="Path_2870" data-name="Path 2870" d="M475.6,189.78a1.067,1.067,0,0,1,0-.276,3.473,3.473,0,0,0-.072-.805c-.06-.757-.144-1.791-.252-3.09-.18-2.753-.445-6.624-.769-11.384-.6-9.677-1.431-22.937-2.344-37.591s-1.587-27.926-2.152-37.6c-.24-4.809-.433-8.643-.577-11.4,0-1.3-.1-2.332-.12-3.1v-.805a.723.723,0,0,1,0-.276q.007.138,0,.277l.072.805c.06.757.144,1.791.24,3.09.192,2.753.457,6.624.781,11.384.6,9.617,1.431,22.937,2.332,37.591s1.6,27.926,2.152,37.591c.252,4.809.445,8.655.589,11.408,0,1.3.1,2.332.12,3.1v.805a.719.719,0,0,1,0,.276Z" transform="translate(-217.083 -55.26)" fill="#263238"/>
      <path id="Path_2871" data-name="Path 2871" d="M511.621,60.943H472.095l-95.438.012L277.9,60.643h0a23.778,23.778,0,0,0-12.55,7.826,23.141,23.141,0,0,0-4.881,10.074A24.464,24.464,0,0,0,260,85.623c.072.805.144,1.419.216,1.827a5.936,5.936,0,0,1,.084.625,15.8,15.8,0,0,1-.421-2.4,23.645,23.645,0,0,1,.361-7.141A23.237,23.237,0,0,1,265.05,68.3a24.043,24.043,0,0,1,12.719-8.03h0l98.768.12,95.39.3,28.924.168,7.862.072h2.044Z" transform="translate(-259.44 -59.945)" fill="#263238"/>
    </g>
    <g id="Cash_Payment-rafiki" data-name="Cash Payment-rafiki" transform="translate(2220 10643.792)">
      <g id="freepik--background-complete--inject-57" transform="translate(0 0)">
        <rect id="Rectangle_266" data-name="Rectangle 266" width="601.072" height="0.301" transform="translate(0 393.582)" fill="#ebebeb"/>
        <rect id="Rectangle_267" data-name="Rectangle 267" width="39.815" height="0.301" transform="translate(501.03 412.924)" fill="#ebebeb"/>
        <rect id="Rectangle_268" data-name="Rectangle 268" width="10.447" height="0.301" transform="translate(387.727 416.194)" fill="#ebebeb"/>
        <rect id="Rectangle_269" data-name="Rectangle 269" width="23.069" height="0.301" transform="translate(476.758 401.769)" fill="#ebebeb"/>
        <rect id="Rectangle_270" data-name="Rectangle 270" width="51.921" height="0.301" transform="translate(63.064 403.788)" fill="#ebebeb"/>
        <rect id="Rectangle_271" data-name="Rectangle 271" width="7.61" height="0.301" transform="translate(125.696 403.788)" fill="#ebebeb"/>
        <rect id="Rectangle_272" data-name="Rectangle 272" width="112.617" height="0.301" transform="translate(158.046 408.861)" fill="#ebebeb"/>
        <path id="Path_2638" data-name="Path 2638" d="M277.184,394.966H45.062A6.864,6.864,0,0,1,38.21,388.1V61.8A6.864,6.864,0,0,1,45.062,55H277.184a6.864,6.864,0,0,1,6.864,6.864V388.1A6.864,6.864,0,0,1,277.184,394.966ZM45.062,55.24A6.564,6.564,0,0,0,38.511,61.8V388.1a6.564,6.564,0,0,0,6.552,6.564H277.184a6.576,6.576,0,0,0,6.564-6.564V61.8a6.576,6.576,0,0,0-6.564-6.564Z" transform="translate(7.724 -55)" fill="#ebebeb"/>
        <path id="Path_2639" data-name="Path 2639" d="M493.5,394.966H261.364A6.876,6.876,0,0,1,254.5,388.1V61.8a6.876,6.876,0,0,1,6.864-6.8H493.5a6.864,6.864,0,0,1,6.84,6.8V388.1A6.864,6.864,0,0,1,493.5,394.966ZM261.364,55.24A6.576,6.576,0,0,0,254.8,61.8V388.1a6.576,6.576,0,0,0,6.564,6.564H493.5a6.576,6.576,0,0,0,6.564-6.564V61.8A6.576,6.576,0,0,0,493.5,55.24Z" transform="translate(51.446 -55)" fill="#ebebeb"/>
        <rect id="Rectangle_283" data-name="Rectangle 283" width="17.395" height="31.797" transform="translate(424.669 164.033)" fill="#e6e6e6"/>
        <rect id="Rectangle_284" data-name="Rectangle 284" width="17.395" height="31.797" transform="translate(446.272 164.033)" fill="#e6e6e6"/>
        <rect id="Rectangle_286" data-name="Rectangle 286" width="17.395" height="31.797" transform="translate(489.477 164.033)" fill="#e6e6e6"/>
        <rect id="Rectangle_287" data-name="Rectangle 287" width="17.395" height="31.797" transform="translate(424.669 205.134)" fill="#e6e6e6"/>
        <rect id="Rectangle_288" data-name="Rectangle 288" width="17.395" height="31.797" transform="translate(446.272 205.134)" fill="#e6e6e6"/>
        <rect id="Rectangle_289" data-name="Rectangle 289" width="17.395" height="31.797" transform="translate(467.874 205.134)" fill="#e6e6e6"/>
        <rect id="Rectangle_290" data-name="Rectangle 290" width="17.395" height="31.797" transform="translate(489.477 205.134)" fill="#e6e6e6"/>
        <rect id="Rectangle_291" data-name="Rectangle 291" width="17.395" height="31.797" transform="translate(424.669 246.223)" fill="#e6e6e6"/>
        <rect id="Rectangle_292" data-name="Rectangle 292" width="17.395" height="31.797" transform="translate(446.272 246.223)" fill="#e6e6e6"/>
        <rect id="Rectangle_293" data-name="Rectangle 293" width="17.395" height="31.797" transform="translate(467.874 246.223)" fill="#e6e6e6"/>
        <rect id="Rectangle_294" data-name="Rectangle 294" width="17.395" height="31.797" transform="translate(489.477 246.223)" fill="#e6e6e6"/>
        <rect id="Rectangle_295" data-name="Rectangle 295" width="17.395" height="31.797" transform="translate(424.669 287.312)" fill="#e6e6e6"/>
        <rect id="Rectangle_296" data-name="Rectangle 296" width="17.395" height="31.797" transform="translate(446.272 287.312)" fill="#e6e6e6"/>
        <rect id="Rectangle_297" data-name="Rectangle 297" width="17.395" height="31.797" transform="translate(467.874 287.312)" fill="#e6e6e6"/>
        <rect id="Rectangle_298" data-name="Rectangle 298" width="17.395" height="31.797" transform="translate(489.477 287.312)" fill="#e6e6e6"/>
        <rect id="Rectangle_299" data-name="Rectangle 299" width="202.02" height="269.052" transform="translate(146.193 123.232)" fill="#f0f0f0"/>
        <rect id="Rectangle_300" data-name="Rectangle 300" width="161.063" height="36.425" transform="translate(150.484 129.976)" fill="#e6e6e6"/>
        <rect id="Rectangle_301" data-name="Rectangle 301" width="161.063" height="36.425" transform="translate(150.484 173.578)" fill="#e6e6e6"/>
        <rect id="Rectangle_302" data-name="Rectangle 302" width="161.063" height="36.425" transform="translate(150.484 217.167)" fill="#e6e6e6"/>
        <rect id="Rectangle_303" data-name="Rectangle 303" width="161.063" height="36.425" transform="translate(150.484 260.769)" fill="#e6e6e6"/>
        <rect id="Rectangle_304" data-name="Rectangle 304" width="161.063" height="36.425" transform="translate(150.484 304.371)" fill="#e6e6e6"/>
        <rect id="Rectangle_305" data-name="Rectangle 305" width="161.063" height="36.425" transform="translate(150.484 347.973)" fill="#e6e6e6"/>
        <rect id="Rectangle_306" data-name="Rectangle 306" width="28.395" height="269.052" transform="translate(319.818 123.232)" fill="#f5f5f5"/>
        <rect id="Rectangle_307" data-name="Rectangle 307" width="17.383" height="24.235" transform="translate(164.658 142.166)" fill="#ebebeb"/>
        <rect id="Rectangle_308" data-name="Rectangle 308" width="17.383" height="24.235" transform="translate(187.775 142.166)" fill="#ebebeb"/>
        <rect id="Rectangle_309" data-name="Rectangle 309" width="17.383" height="24.235" transform="translate(210.904 142.166)" fill="#ebebeb"/>
        <rect id="Rectangle_310" data-name="Rectangle 310" width="17.383" height="24.235" transform="translate(234.021 142.166)" fill="#ebebeb"/>
        <rect id="Rectangle_311" data-name="Rectangle 311" width="17.383" height="24.235" transform="translate(257.151 142.166)" fill="#ebebeb"/>
        <rect id="Rectangle_312" data-name="Rectangle 312" width="17.383" height="24.235" transform="translate(280.28 142.166)" fill="#ebebeb"/>
        <rect id="Rectangle_313" data-name="Rectangle 313" width="17.383" height="24.235" transform="translate(163.948 185.683)" fill="#ebebeb"/>
        <rect id="Rectangle_314" data-name="Rectangle 314" width="17.383" height="24.235" transform="translate(187.066 185.683)" fill="#ebebeb"/>
        <rect id="Rectangle_315" data-name="Rectangle 315" width="17.383" height="24.235" transform="translate(210.195 185.683)" fill="#ebebeb"/>
        <rect id="Rectangle_316" data-name="Rectangle 316" width="17.383" height="24.235" transform="translate(233.324 185.683)" fill="#ebebeb"/>
        <rect id="Rectangle_317" data-name="Rectangle 317" width="17.383" height="24.235" transform="translate(256.441 185.683)" fill="#ebebeb"/>
        <rect id="Rectangle_318" data-name="Rectangle 318" width="17.383" height="24.235" transform="translate(279.571 185.683)" fill="#ebebeb"/>
        <rect id="Rectangle_319" data-name="Rectangle 319" width="17.383" height="24.235" transform="translate(163.239 229.201)" fill="#ebebeb"/>
        <rect id="Rectangle_320" data-name="Rectangle 320" width="17.383" height="24.235" transform="translate(186.368 229.201)" fill="#ebebeb"/>
        <rect id="Rectangle_321" data-name="Rectangle 321" width="17.383" height="24.235" transform="translate(209.486 229.201)" fill="#ebebeb"/>
        <rect id="Rectangle_322" data-name="Rectangle 322" width="17.383" height="24.235" transform="translate(232.615 229.201)" fill="#ebebeb"/>
        <rect id="Rectangle_323" data-name="Rectangle 323" width="17.383" height="24.235" transform="translate(255.744 229.201)" fill="#ebebeb"/>
        <rect id="Rectangle_324" data-name="Rectangle 324" width="17.383" height="24.235" transform="translate(278.861 229.201)" fill="#ebebeb"/>
        <rect id="Rectangle_325" data-name="Rectangle 325" width="17.383" height="24.235" transform="translate(162.53 272.718)" fill="#ebebeb"/>
        <rect id="Rectangle_326" data-name="Rectangle 326" width="17.383" height="24.235" transform="translate(185.659 272.718)" fill="#ebebeb"/>
        <rect id="Rectangle_327" data-name="Rectangle 327" width="17.383" height="24.235" transform="translate(208.788 272.718)" fill="#ebebeb"/>
        <rect id="Rectangle_328" data-name="Rectangle 328" width="17.383" height="24.235" transform="translate(231.906 272.718)" fill="#ebebeb"/>
        <rect id="Rectangle_329" data-name="Rectangle 329" width="17.383" height="24.235" transform="translate(255.035 272.718)" fill="#ebebeb"/>
        <rect id="Rectangle_330" data-name="Rectangle 330" width="17.383" height="24.235" transform="translate(278.152 272.718)" fill="#ebebeb"/>
        <rect id="Rectangle_331" data-name="Rectangle 331" width="17.383" height="24.235" transform="translate(161.833 316.236)" fill="#ebebeb"/>
        <rect id="Rectangle_332" data-name="Rectangle 332" width="17.383" height="24.235" transform="translate(184.95 316.236)" fill="#ebebeb"/>
        <rect id="Rectangle_333" data-name="Rectangle 333" width="17.383" height="24.235" transform="translate(208.079 316.236)" fill="#ebebeb"/>
        <rect id="Rectangle_334" data-name="Rectangle 334" width="17.383" height="24.235" transform="translate(231.208 316.236)" fill="#ebebeb"/>
        <rect id="Rectangle_335" data-name="Rectangle 335" width="17.383" height="24.235" transform="translate(254.326 316.236)" fill="#ebebeb"/>
        <rect id="Rectangle_336" data-name="Rectangle 336" width="17.383" height="24.235" transform="translate(277.455 316.236)" fill="#ebebeb"/>
        <rect id="Rectangle_337" data-name="Rectangle 337" width="17.383" height="24.235" transform="translate(161.123 359.754)" fill="#ebebeb"/>
        <rect id="Rectangle_338" data-name="Rectangle 338" width="17.383" height="24.235" transform="translate(184.253 359.754)" fill="#ebebeb"/>
        <rect id="Rectangle_339" data-name="Rectangle 339" width="17.383" height="24.235" transform="translate(207.37 359.754)" fill="#ebebeb"/>
        <rect id="Rectangle_340" data-name="Rectangle 340" width="17.383" height="24.235" transform="translate(230.499 359.754)" fill="#ebebeb"/>
        <rect id="Rectangle_341" data-name="Rectangle 341" width="17.383" height="24.235" transform="translate(253.616 359.754)" fill="#ebebeb"/>
        <rect id="Rectangle_342" data-name="Rectangle 342" width="17.383" height="24.235" transform="translate(276.746 359.754)" fill="#ebebeb"/>
        <rect id="Rectangle_343" data-name="Rectangle 343" width="202.02" height="278.585" transform="translate(63.064 113.699)" fill="#f0f0f0"/>
        <rect id="Rectangle_344" data-name="Rectangle 344" width="161.063" height="37.711" transform="translate(67.356 120.683)" fill="#e6e6e6"/>
        <rect id="Rectangle_345" data-name="Rectangle 345" width="161.063" height="37.711" transform="translate(67.356 165.824)" fill="#e6e6e6"/>
        <rect id="Rectangle_346" data-name="Rectangle 346" width="161.063" height="37.711" transform="translate(67.356 210.964)" fill="#e6e6e6"/>
        <rect id="Rectangle_347" data-name="Rectangle 347" width="161.063" height="37.711" transform="translate(67.356 256.117)" fill="#e6e6e6"/>
        <rect id="Rectangle_348" data-name="Rectangle 348" width="161.063" height="37.711" transform="translate(67.356 301.257)" fill="#e6e6e6"/>
        <rect id="Rectangle_349" data-name="Rectangle 349" width="161.063" height="37.711" transform="translate(67.356 346.398)" fill="#e6e6e6"/>
        <rect id="Rectangle_350" data-name="Rectangle 350" width="28.395" height="278.585" transform="translate(236.69 113.699)" fill="#f5f5f5"/>
        <rect id="Rectangle_351" data-name="Rectangle 351" width="17.383" height="25.089" transform="translate(81.529 133.306)" fill="#ebebeb"/>
        <rect id="Rectangle_352" data-name="Rectangle 352" width="17.383" height="25.089" transform="translate(104.647 133.306)" fill="#ebebeb"/>
        <rect id="Rectangle_353" data-name="Rectangle 353" width="17.383" height="25.089" transform="translate(127.776 133.306)" fill="#ebebeb"/>
        <rect id="Rectangle_354" data-name="Rectangle 354" width="17.383" height="25.089" transform="translate(150.893 133.306)" fill="#ebebeb"/>
        <rect id="Rectangle_355" data-name="Rectangle 355" width="17.383" height="25.089" transform="translate(174.022 133.306)" fill="#ebebeb"/>
        <rect id="Rectangle_356" data-name="Rectangle 356" width="17.383" height="25.089" transform="translate(197.152 133.306)" fill="#ebebeb"/>
        <rect id="Rectangle_357" data-name="Rectangle 357" width="17.383" height="25.089" transform="translate(80.82 178.362)" fill="#ebebeb"/>
        <rect id="Rectangle_358" data-name="Rectangle 358" width="17.383" height="25.089" transform="translate(103.949 178.362)" fill="#ebebeb"/>
        <rect id="Rectangle_359" data-name="Rectangle 359" width="17.383" height="25.089" transform="translate(127.067 178.362)" fill="#ebebeb"/>
        <rect id="Rectangle_360" data-name="Rectangle 360" width="17.383" height="25.089" transform="translate(150.196 178.362)" fill="#ebebeb"/>
        <rect id="Rectangle_361" data-name="Rectangle 361" width="17.383" height="25.089" transform="translate(173.313 178.362)" fill="#ebebeb"/>
        <rect id="Rectangle_362" data-name="Rectangle 362" width="17.383" height="25.089" transform="translate(196.442 178.362)" fill="#ebebeb"/>
        <rect id="Rectangle_363" data-name="Rectangle 363" width="17.383" height="25.089" transform="translate(80.111 223.418)" fill="#ebebeb"/>
        <rect id="Rectangle_364" data-name="Rectangle 364" width="17.383" height="25.089" transform="translate(103.24 223.418)" fill="#ebebeb"/>
        <rect id="Rectangle_365" data-name="Rectangle 365" width="17.383" height="25.089" transform="translate(126.357 223.418)" fill="#ebebeb"/>
        <rect id="Rectangle_366" data-name="Rectangle 366" width="17.383" height="25.089" transform="translate(149.487 223.418)" fill="#ebebeb"/>
        <rect id="Rectangle_367" data-name="Rectangle 367" width="17.383" height="25.089" transform="translate(172.616 223.418)" fill="#ebebeb"/>
        <rect id="Rectangle_368" data-name="Rectangle 368" width="17.383" height="25.089" transform="translate(195.733 223.418)" fill="#ebebeb"/>
        <rect id="Rectangle_369" data-name="Rectangle 369" width="17.383" height="25.089" transform="translate(79.414 268.487)" fill="#ebebeb"/>
        <rect id="Rectangle_370" data-name="Rectangle 370" width="17.383" height="25.089" transform="translate(102.531 268.487)" fill="#ebebeb"/>
        <rect id="Rectangle_371" data-name="Rectangle 371" width="17.383" height="25.089" transform="translate(125.66 268.487)" fill="#ebebeb"/>
        <rect id="Rectangle_372" data-name="Rectangle 372" width="17.383" height="25.089" transform="translate(148.777 268.487)" fill="#ebebeb"/>
        <rect id="Rectangle_373" data-name="Rectangle 373" width="17.383" height="25.089" transform="translate(171.907 268.487)" fill="#ebebeb"/>
        <rect id="Rectangle_374" data-name="Rectangle 374" width="17.383" height="25.089" transform="translate(195.036 268.487)" fill="#ebebeb"/>
        <rect id="Rectangle_375" data-name="Rectangle 375" width="17.383" height="25.089" transform="translate(78.704 313.543)" fill="#ebebeb"/>
        <rect id="Rectangle_376" data-name="Rectangle 376" width="17.383" height="25.089" transform="translate(101.822 313.543)" fill="#ebebeb"/>
        <rect id="Rectangle_377" data-name="Rectangle 377" width="17.383" height="25.089" transform="translate(124.951 313.543)" fill="#ebebeb"/>
        <rect id="Rectangle_378" data-name="Rectangle 378" width="17.383" height="25.089" transform="translate(148.08 313.543)" fill="#ebebeb"/>
        <rect id="Rectangle_379" data-name="Rectangle 379" width="17.383" height="25.089" transform="translate(171.197 313.543)" fill="#ebebeb"/>
        <rect id="Rectangle_380" data-name="Rectangle 380" width="17.383" height="25.089" transform="translate(194.327 313.543)" fill="#ebebeb"/>
        <rect id="Rectangle_381" data-name="Rectangle 381" width="17.383" height="25.089" transform="translate(77.995 358.612)" fill="#ebebeb"/>
        <rect id="Rectangle_382" data-name="Rectangle 382" width="17.383" height="25.089" transform="translate(101.124 358.612)" fill="#ebebeb"/>
        <rect id="Rectangle_383" data-name="Rectangle 383" width="17.383" height="25.089" transform="translate(124.242 358.612)" fill="#ebebeb"/>
        <rect id="Rectangle_384" data-name="Rectangle 384" width="17.383" height="25.089" transform="translate(147.371 358.612)" fill="#ebebeb"/>
        <rect id="Rectangle_385" data-name="Rectangle 385" width="17.383" height="25.089" transform="translate(170.5 358.612)" fill="#ebebeb"/>
        <rect id="Rectangle_386" data-name="Rectangle 386" width="17.383" height="25.089" transform="translate(193.617 358.612)" fill="#ebebeb"/>
        <rect id="Rectangle_387" data-name="Rectangle 387" width="4.544" height="33.528" transform="translate(124.951 0.24)" fill="#f5f5f5"/>
        <rect id="Rectangle_388" data-name="Rectangle 388" width="4.544" height="33.528" transform="translate(239.155 0.24)" fill="#f5f5f5"/>
        <rect id="Rectangle_390" data-name="Rectangle 390" width="6.371" height="48.723" transform="translate(252.835 27.313)" fill="#e6e6e6"/>
      </g>
      <g id="freepik--Shadow--inject-57" transform="translate(67.452 420.654)">
        <ellipse id="freepik--path--inject-57" cx="233.084" cy="13.608" rx="233.084" ry="13.608" fill="#f5f5f5"/>
      </g>
      <g id="freepik--Plant--inject-57" transform="translate(67.444 297.043)">
        <path id="Path_2640" data-name="Path 2640" d="M86.61,405.942s-6.792-14.822.974-29.428,10-18.032,5.061-21.038-7.213,11.685-7.213,11.685-4.159-10.1-.721-20.665,5.6-27.782.9-29.633-.9,21.47-4.977,29.428a68.522,68.522,0,0,1-3.991-17.347c-.565-8.487.313-22.035-3.4-25.51s-6.083-1.07-2.4,17.66a195.85,195.85,0,0,1,3.606,33.961s-8.066-24.572-13.476-25.245-5.4,7.213-.769,14.137,13.56,19.234,15.027,25.63c0,0-8.848-18.489-16.83-12.815s6.924,16.83,13.56,20.869S83.2,406.964,83.2,406.964Z" transform="translate(-56.103 -302.094)" fill="#0065b3"/>
        <path id="Path_2641" data-name="Path 2641" d="M86.61,405.942s-6.792-14.822.974-29.428,10-18.032,5.061-21.038-7.213,11.685-7.213,11.685-4.159-10.1-.721-20.665,5.6-27.782.9-29.633-.9,21.47-4.977,29.428a68.522,68.522,0,0,1-3.991-17.347c-.565-8.487.313-22.035-3.4-25.51s-6.083-1.07-2.4,17.66a195.85,195.85,0,0,1,3.606,33.961s-8.066-24.572-13.476-25.245-5.4,7.213-.769,14.137,13.56,19.234,15.027,25.63c0,0-8.848-18.489-16.83-12.815s6.924,16.83,13.56,20.869S83.2,406.964,83.2,406.964Z" transform="translate(-56.103 -302.094)" fill="#e61030" opacity="0.6"/>
        <path id="Path_2642" data-name="Path 2642" d="M78.549,411.032s6.612-14.919-1.322-29.4-10.218-17.9-5.313-20.965,7.357,11.577,7.357,11.577,4.051-10.158.481-20.677-5.939-27.649-1.2-29.609,1.2,21.458,5.338,29.344a68.451,68.451,0,0,0,3.775-17.4c.469-8.5-.577-22.035,3.09-25.57s6.083-1.2,2.657,17.623a195.566,195.566,0,0,0-3.21,34.009s7.766-24.68,13.224-25.485,5.482,7.213.938,14.137-13.32,19.463-14.714,25.846c0,0,8.619-18.621,16.65-13.079s-6.72,16.938-13.308,21.074-10.891,29.5-10.891,29.5Z" transform="translate(-53.428 -301.113)" fill="#0065b3"/>
        <path id="Path_2643" data-name="Path 2643" d="M78.549,411.032s6.612-14.919-1.322-29.4-10.218-17.9-5.313-20.965,7.357,11.577,7.357,11.577,4.051-10.158.481-20.677-5.939-27.649-1.2-29.609,1.2,21.458,5.338,29.344a68.451,68.451,0,0,0,3.775-17.4c.469-8.5-.577-22.035,3.09-25.57s6.083-1.2,2.657,17.623a195.566,195.566,0,0,0-3.21,34.009s7.766-24.68,13.224-25.485,5.482,7.213.938,14.137-13.32,19.463-14.714,25.846c0,0,8.619-18.621,16.65-13.079s-6.72,16.938-13.308,21.074-10.891,29.5-10.891,29.5Z" transform="translate(-53.428 -301.113)" fill="#e61030" opacity="0.7"/>
        <path id="Path_2644" data-name="Path 2644" d="M111.575,384.68H56.95l4.424,39.094h45.79Z" transform="translate(-55.932 -285.4)" fill="#e61030"/>
      </g>
      <g id="freepik--character-2--inject-57" transform="translate(215.124 58.395)">
        <path id="Path_2645" data-name="Path 2645" d="M272.581,249.339H194.85v-57.8h48.879l4.436,23.983,24.416,9.906Z" transform="translate(-175.736 -85.794)" fill="#263238"/>
        <path id="Path_2646" data-name="Path 2646" d="M272.581,249.339H194.85v-57.8h48.879l4.436,23.983,24.416,9.906Z" transform="translate(-175.736 -85.794)" fill="#fff" opacity="0.1"/>
        <path id="Path_2647" data-name="Path 2647" d="M236.921,249.339H192.85v-57.8h15.219l4.436,23.983,24.416,9.906Z" transform="translate(-176.14 -85.794)" fill="#fff" opacity="0.1"/>
        <path id="Path_2648" data-name="Path 2648" d="M239.212,201.9l-1.31-7.1H209.82l1.31,7.1Z" transform="translate(-172.71 -85.135)" opacity="0.2"/>
        <path id="Path_2649" data-name="Path 2649" d="M211.4,203.35l.938,5.073H240.42l-.938-5.073Z" transform="translate(-172.39 -83.407)" opacity="0.2"/>
        <path id="Path_2650" data-name="Path 2650" d="M209.2,211.49h36.064L269.68,221.4H233.616Z" transform="translate(-172.835 -81.761)" fill="#fff" opacity="0.3"/>
        <g id="freepik--group--inject-57" transform="translate(81.018)">
          <path id="Path_2651" data-name="Path 2651" d="M312.483,155.721c7.6,3.871,5.422,22.5-14,57.294L285.17,202.2a196.794,196.794,0,0,1,12.214-31.448C305.258,155.048,312.483,155.721,312.483,155.721Z" transform="translate(-238.496 -93.036)" fill="#0065b3"/>
          <path id="Path_2652" data-name="Path 2652" d="M312.483,155.721c7.6,3.871,5.422,22.5-14,57.294L285.17,202.2a196.794,196.794,0,0,1,12.214-31.448C305.258,155.048,312.483,155.721,312.483,155.721Z" transform="translate(-238.496 -93.036)" fill="#fff" opacity="0.4"/>
          <path id="Path_2653" data-name="Path 2653" d="M373.077,225.38H321.385c-4.917,26.868-20.316,121.921-9.269,206.612l17.479-2.176s-1.623-112.437,13.849-153.995c1.779,22.24,3.883,45.91,5.722,58.508,4.472,30.991,14.089,98.744,14.089,98.744h17.828s-3.606-64.844-5.338-95.318C373.943,304.685,373.149,232.136,373.077,225.38Z" transform="translate(-233.838 -78.954)" fill="#263238"/>
          <path id="Path_2654" data-name="Path 2654" d="M304.986,157.07c5.35-1.2,33.564-7.525,56.332-6.636,0,0,7.321,75.026,14.185,105.524l-59.542,10.435S302.594,191.74,304.049,158.2A1.2,1.2,0,0,1,304.986,157.07Z" transform="translate(-234.702 -94.121)" fill="#0065b3"/>
          <path id="Path_2655" data-name="Path 2655" d="M304.986,157.07c5.35-1.2,33.564-7.525,56.332-6.636,0,0,7.321,75.026,14.185,105.524l-59.542,10.435S302.594,191.74,304.049,158.2A1.2,1.2,0,0,1,304.986,157.07Z" transform="translate(-234.702 -94.121)" fill="#fff" opacity="0.6"/>
          <path id="Path_2658" data-name="Path 2658" d="M295.555,195.229s-3.534,9.677-6.239,9.99-20.292-29.188-20.292-29.188-2.02-5.854-5.35-7.441-13.224-7.213-15.772-5.939-1.2,11.012-1.2,13.224c0,1.947,8.415,4.809,10.94,5.289a8.511,8.511,0,0,0,4.881-.433s14.1,34.718,23.25,40.8,22.925-14.606,22.925-14.606Z" transform="translate(-246.344 -91.672)" fill="#ebb376"/>
          <path id="Path_2656" data-name="Path 2656" d="M355.978,149.58s-6.816,28.659,11.817,53l4.6,30.571,5.35,25.317-29.621,7.814-10.615-23.766-1.07,26.243L312.87,272.2l-2.561-30.054s-4.075-23.73-5.121-36.762c0,0-3.534-30.2,1.972-49.456l7.754-1.671s.433,18.4,12.214,33.167c0,0,11.18-29.465,21.326-37.807Z" transform="translate(-234.675 -94.276)" fill="#0065b3"/>
          <path id="Path_2657" data-name="Path 2657" d="M355.978,149.58s-6.816,28.659,11.817,53l4.6,30.571,5.35,25.317-29.621,7.814-10.615-23.766-1.07,26.243L312.87,272.2l-2.561-30.054s-4.075-23.73-5.121-36.762c0,0-3.534-30.2,1.972-49.456l7.754-1.671s.433,18.4,12.214,33.167c0,0,11.18-29.465,21.326-37.807Z" transform="translate(-234.675 -94.276)" fill="#e61030"/>
          <path id="Path_2661" data-name="Path 2661" d="M326.427,413.169l-10.05,1.058L314.49,392.54l10.05-1.07Z" transform="translate(-232.569 -45.38)" fill="#ebb376"/>
          <path id="Path_2662" data-name="Path 2662" d="M367.955,412.706h-9.749L357.4,390.13h9.749Z" transform="translate(-223.895 -45.65)" fill="#ebb376"/>
          <path id="Path_2663" data-name="Path 2663" d="M359.983,408h11.841a.878.878,0,0,1,.841.673l1.911,8.679a1.431,1.431,0,0,1-1.106,1.707,1.369,1.369,0,0,1-.313,0c-3.835-.06-6.624-.288-11.432-.288-2.969,0-11.9.3-16,.3s-4.616-4.039-2.945-4.412c7.513-1.635,13.163-3.907,15.568-6.011A2.4,2.4,0,0,1,359.983,408Z" transform="translate(-227.031 -42.038)" fill="#263238"/>
          <path id="Path_2664" data-name="Path 2664" d="M354.658,409.811a2.921,2.921,0,0,1-1.863-.5,1.358,1.358,0,0,1-.493-1.2.7.7,0,0,1,.4-.637c1.082-.565,4.232,1.37,4.58,1.6a.2.2,0,0,1,.108.216.252.252,0,0,1-.168.2,13.139,13.139,0,0,1-2.561.325Zm-1.443-2.032a.613.613,0,0,0-.3.072c-.06,0-.144.084-.156.264a.974.974,0,0,0,.313.829,4.7,4.7,0,0,0,3.474.18A9.617,9.617,0,0,0,353.215,407.78Z" transform="translate(-224.927 -42.167)" fill="#0065b3"/>
          <path id="Path_2665" data-name="Path 2665" d="M356.825,409.84h-.12c-1-.553-2.945-2.693-2.753-3.727a.757.757,0,0,1,.745-.6,1.274,1.274,0,0,1,.986.289c1.13.926,1.358,3.727,1.37,3.859a.253.253,0,0,1-.108.216.2.2,0,0,1-.12-.036Zm-1.959-3.955h-.12c-.289,0-.313.168-.337.228-.12.637,1.118,2.26,2.128,3.017a5.554,5.554,0,0,0-1.2-3.054A.805.805,0,0,0,354.866,405.884Z" transform="translate(-224.595 -42.543)" fill="#0065b3"/>
          <path id="Path_2666" data-name="Path 2666" d="M318.217,407.71h11.817a.877.877,0,0,1,.829.673l1.923,8.679a1.442,1.442,0,0,1-1.106,1.707h-.312c-3.835-.072-6.624-.3-11.432-.3-2.969,0-11.913.313-16,.313s-4.628-4.051-2.945-4.424c7.513-1.635,13.164-3.907,15.568-6.011A2.4,2.4,0,0,1,318.217,407.71Z" transform="translate(-235.479 -42.097)" fill="#263238"/>
          <path id="Path_2667" data-name="Path 2667" d="M312.887,409.549a2.97,2.97,0,0,1-1.875-.493,1.419,1.419,0,0,1-.481-1.2.685.685,0,0,1,.4-.637c1.082-.565,4.232,1.37,4.58,1.6a.217.217,0,0,1,.108.216.24.24,0,0,1-.18.2,11.337,11.337,0,0,1-2.549.313Zm-1.455-2.02a.481.481,0,0,0-.289.06c-.072,0-.144.084-.156.276a1,1,0,0,0,.313.83,4.808,4.808,0,0,0,3.474.168,9.618,9.618,0,0,0-3.342-1.335Z" transform="translate(-233.371 -42.217)" fill="#0065b3"/>
          <path id="Path_2668" data-name="Path 2668" d="M315.043,409.58h-.108c-1.01-.541-2.945-2.693-2.753-3.727a.757.757,0,0,1,.745-.6,1.2,1.2,0,0,1,.974.3c1.13.914,1.37,3.715,1.382,3.847a.277.277,0,0,1-.108.216.24.24,0,0,1-.132-.036Zm-1.96-3.955h-.108c-.3,0-.325.168-.337.228-.12.637,1.118,2.26,2.128,3.017a5.554,5.554,0,0,0-1.2-3.053.841.841,0,0,0-.481-.192Z" transform="translate(-233.038 -42.596)" fill="#0065b3"/>
          <path id="Path_2669" data-name="Path 2669" d="M324.54,391.47l-10.05,1.07.974,11.192,10.062-1.07Z" transform="translate(-232.569 -45.38)" opacity="0.2"/>
          <path id="Path_2670" data-name="Path 2670" d="M367.149,390.14H357.4l.421,11.637h9.761Z" transform="translate(-223.895 -45.648)" opacity="0.2"/>
          <path id="Path_2671" data-name="Path 2671" d="M310.019,402.192l21.675-3.222-.661-6.011-22.552,2.969Z" transform="translate(-233.784 -45.078)" fill="#0065b3"/>
          <path id="Path_2672" data-name="Path 2672" d="M310.019,402.192l21.675-3.222-.661-6.011-22.552,2.969Z" transform="translate(-233.784 -45.078)" fill="#fff" opacity="0.6"/>
          <path id="Path_2673" data-name="Path 2673" d="M352.373,399.4H373.4v-6.287L351.58,392.7Z" transform="translate(-225.072 -45.131)" fill="#0065b3"/>
          <path id="Path_2674" data-name="Path 2674" d="M352.373,399.4H373.4v-6.287L351.58,392.7Z" transform="translate(-225.072 -45.131)" fill="#fff" opacity="0.6"/>
          <path id="Path_2675" data-name="Path 2675" d="M338.51,270.427a138.492,138.492,0,0,0-5.77,22.432c-1.455-19.8,4.34-40.789,4.34-40.789Z" transform="translate(-228.927 -73.558)" opacity="0.2"/>
          <path id="Path_2676" data-name="Path 2676" d="M339.579,155.054c-3.751,5.193-15.472,6.011-15.472,6.011s-7.513-.445-6.492-2.981c4.039-1.575,5.65-3.955,6.011-6.636a12.345,12.345,0,0,0-.589-4.869,23.837,23.837,0,0,0-.914-2.6l11.865-13.392C333.556,137.9,333.977,151.026,339.579,155.054Z" transform="translate(-231.957 -98.115)" fill="#ebb376"/>
          <path id="Path_2677" data-name="Path 2677" d="M331.17,136.7c1.2,8.559-5.217,12.358-8.511,13.548a12.345,12.345,0,0,0-.589-4.869Z" transform="translate(-231.037 -96.88)" opacity="0.2"/>
          <path id="Path_2678" data-name="Path 2678" d="M309.926,114.179s-2.933,13.224,3.835,18.91,8.415-19.318,8.415-19.318Z" transform="translate(-233.619 -101.515)" fill="#263238"/>
          <path id="Path_2679" data-name="Path 2679" d="M333.618,145.51a12.2,12.2,0,0,1-14.293,3.775,13.572,13.572,0,0,1-7.3-6.816,11.127,11.127,0,0,1-.565-1.334c-2.945-8.415-3.09-22.841,5.927-27.649a13.224,13.224,0,0,1,19.475,11.288C337.284,134.45,337.981,140.112,333.618,145.51Z" transform="translate(-233.544 -101.891)" fill="#ebb376"/>
          <path id="Path_2680" data-name="Path 2680" d="M320.7,126.333c.132.769-.264,1.455-.781,1.515s-.986-.553-1.07-1.334.277-1.455.781-1.5S320.619,125.539,320.7,126.333Z" transform="translate(-231.69 -99.243)" fill="#263238"/>
          <path id="Path_2681" data-name="Path 2681" d="M313.315,127.083c.132.769-.277,1.455-.793,1.515s-.986-.553-1.07-1.322.277-1.467.781-1.515S313.315,126.349,313.315,127.083Z" transform="translate(-233.186 -99.092)" fill="#263238"/>
          <path id="Path_2682" data-name="Path 2682" d="M315.923,126.94a28.671,28.671,0,0,1-3.053,7.081,4.532,4.532,0,0,0,3.823.313Z" transform="translate(-232.897 -98.853)" fill="#d58745"/>
          <path id="Path_2683" data-name="Path 2683" d="M323.109,123.882a.517.517,0,0,1-.469-.132,3.691,3.691,0,0,0-3.09-1.2.469.469,0,0,1-.156-.914h0a4.6,4.6,0,0,1,3.919,1.515.457.457,0,0,1,0,.649h0a.613.613,0,0,1-.2.084Z" transform="translate(-231.643 -99.93)" fill="#263238"/>
          <path id="Path_2684" data-name="Path 2684" d="M309.718,125.24a.445.445,0,0,1-.277,0,.457.457,0,0,1-.277-.589h0a4.568,4.568,0,0,1,3.041-2.909.457.457,0,0,1,.553.337h0a.469.469,0,0,1-.349.553h0a3.7,3.7,0,0,0-2.4,2.4.505.505,0,0,1-.288.2Z" transform="translate(-233.651 -99.906)" fill="#263238"/>
          <path id="Path_2685" data-name="Path 2685" d="M325.459,113.27l-.289,4.28a3.174,3.174,0,0,1,1.8,3.907c-1.2,3.606,1.2,9.076,4.015,11.144,0,0,0-1.563,1.322-1.2s1.407,8.415-.938,12.37c0,0,3.667-3.691,5.386-12.274,1.6-7.934,1.491-14.426-.289-17.419Z" transform="translate(-230.41 -101.616)" fill="#263238"/>
          <path id="Path_2686" data-name="Path 2686" d="M338.022,129.8a9.148,9.148,0,0,1-4.809,5.157c-2.933,1.334-4.893-1.2-4.484-4.208.373-2.681,2.332-6.7,5.482-6.732S339.019,126.989,338.022,129.8Z" transform="translate(-229.702 -99.443)" fill="#ebb376"/>
          <path id="Path_2687" data-name="Path 2687" d="M328.517,119.509a28.215,28.215,0,0,0-9.81.962,16.036,16.036,0,0,1-8.547.349s-4.28-8.655,1.382-13.9,15.135-3.2,18.2-1.419-3.162,1.479-3.162,1.479,10.026,1.863,14.366,5.674,3.294,10.086,2.4,11.144-1.683-1.274-1.683-1.274a11.505,11.505,0,0,1-6.011,1.2C331.919,123.681,333.482,120.375,328.517,119.509Z" transform="translate(-233.758 -103.576)" fill="#263238"/>
          <path id="Path_2688" data-name="Path 2688" d="M316.53,136.2a25.244,25.244,0,0,1,1.731,3.33,5.51,5.51,0,0,0,.637-.168c2.909-.745,4-2.056,4.34-3.282a3.907,3.907,0,0,0,0-1.827,3.607,3.607,0,0,0-.349-.986,14.269,14.269,0,0,1-5.386,2.657Z" transform="translate(-232.157 -97.573)" fill="#263238"/>
          <path id="Path_2689" data-name="Path 2689" d="M317.35,135.927l.541.974c2.729-.721,4.556-1.6,5.193-2.645a3.607,3.607,0,0,0-.349-.986,14.269,14.269,0,0,1-5.386,2.657Z" transform="translate(-231.991 -97.573)" fill="#fff"/>
          <path id="Path_2690" data-name="Path 2690" d="M318.5,138.892c2.909-.745,4-2.056,4.34-3.282a9.545,9.545,0,0,0-3.053,1.479,3.607,3.607,0,0,0-1.286,1.8Z" transform="translate(-231.759 -97.1)" fill="#de5753"/>
          <path id="Path_2691" data-name="Path 2691" d="M336.8,147.77a32.662,32.662,0,0,1-11.144,9.112,14.425,14.425,0,0,1-2.741-6.179,25.149,25.149,0,0,0-6.4,4.352,17.5,17.5,0,0,0,2.837,7.862l6.095-4.364,7.393,5.4s9.713-6.275,11.889-12.719Z" transform="translate(-232.159 -94.642)" fill="#0065b3"/>
          <path id="Path_2692" data-name="Path 2692" d="M336.8,147.77a32.662,32.662,0,0,1-11.144,9.112,14.425,14.425,0,0,1-2.741-6.179,25.149,25.149,0,0,0-6.4,4.352,17.5,17.5,0,0,0,2.837,7.862l6.095-4.364,7.393,5.4s9.713-6.275,11.889-12.719Z" transform="translate(-232.159 -94.642)" fill="#fff" opacity="0.4"/>
          <rect id="Rectangle_391" data-name="Rectangle 391" width="12.118" height="8.295" transform="matrix(0.994, -0.107, 0.107, 0.994, 101.082, 96.622)" fill="#fff" opacity="0.6"/>
          <path id="Path_2702" data-name="Path 2702" d="M333.7,180.355l1.2,3.979a1.058,1.058,0,0,0,1.2.745h0a1.082,1.082,0,0,0,.9-.914l.637-4.616Z" transform="translate(-228.686 -88.218)" fill="#0065b3"/>
          <path id="Path_2703" data-name="Path 2703" d="M333.7,180.355l1.2,3.979a1.058,1.058,0,0,0,1.2.745h0a1.082,1.082,0,0,0,.9-.914l.637-4.616Z" transform="translate(-228.686 -88.218)" opacity="0.4"/>
          <path id="Path_2704" data-name="Path 2704" d="M354.148,189.66s-4.472,13.428-6.4,16.349-51.512,15.748-51.512,15.748-4.159-2.116-6.78-1.887-12.839,2.609-13.079,4.508,5.241,10.459,6.54,11.168,14.426-1.262,15.82-4.676c0,0,50.646-9.088,55.407-11s14.967-24.5,14.967-24.5Z" transform="translate(-240.274 -86.174)" fill="#ebb376"/>
          <path id="Path_2705" data-name="Path 2705" d="M354.633,150.421c7.67.517,14.366,17.034,13.055,30.354s-13.56,36.064-13.56,36.064l-17.119-8.415s4.28-15.231,9.16-29.657S348.839,150.025,354.633,150.421Z" transform="translate(-228.017 -94.108)" fill="#0065b3"/>
          <path id="Path_2706" data-name="Path 2706" d="M354.633,150.421c7.67.517,14.366,17.034,13.055,30.354s-13.56,36.064-13.56,36.064l-17.119-8.415s4.28-15.231,9.16-29.657S348.839,150.025,354.633,150.421Z" transform="translate(-228.017 -94.108)" fill="#fff" opacity="0.4"/>
          <path id="Path_2707" data-name="Path 2707" d="M335.31,200.387l1.9-2.777,19.992,6.756-1.034,4.965Z" transform="translate(-228.36 -84.567)" fill="#0065b3"/>
          <path id="Path_2708" data-name="Path 2708" d="M335.31,200.387l1.9-2.777,19.992,6.756-1.034,4.965Z" transform="translate(-228.36 -84.567)" fill="#fff" opacity="0.3"/>
        </g>
        <path id="Path_2709" data-name="Path 2709" d="M204.362,222.07h35.175a2.152,2.152,0,0,1,2.152,2.152v19.787H202.21v-19.8a2.152,2.152,0,0,1,2.152-2.14Z" transform="translate(-174.248 -79.623)" fill="#0065b3"/>
        <path id="Path_2710" data-name="Path 2710" d="M241.628,224.21V244H202.21V224.21a2.14,2.14,0,0,1,2.14-2.14h35.187a2.14,2.14,0,0,1,2.092,2.14Z" transform="translate(-174.248 -79.623)" fill="#fff" opacity="0.3"/>
        <path id="Path_2711" data-name="Path 2711" d="M232.011,224.21V244h-29.8V224.21a2.14,2.14,0,0,1,2.14-2.14h25.57a2.14,2.14,0,0,1,2.092,2.14Z" transform="translate(-174.248 -79.623)" fill="#fff" opacity="0.4"/>
        <rect id="Rectangle_392" data-name="Rectangle 392" width="275.195" height="206.757" transform="translate(2.897 170.265)" fill="#0065b3"/>
        <rect id="Rectangle_393" data-name="Rectangle 393" width="275.195" height="206.757" transform="translate(2.897 170.265)" fill="#fff" opacity="0.3"/>
        <rect id="Rectangle_394" data-name="Rectangle 394" width="203.787" height="206.757" transform="translate(2.897 170.265)" fill="#fff" opacity="0.4"/>
        <rect id="Rectangle_395" data-name="Rectangle 395" width="282.071" height="11.961" rx="1.56" transform="translate(0 162.655)" fill="#0065b3"/>
        <rect id="Rectangle_396" data-name="Rectangle 396" width="209.942" height="11.961" rx="1.56" transform="translate(0 162.655)" fill="#fff" opacity="0.2"/>
      </g>
      <g id="freepik--trash-bin--inject-57" transform="translate(479.836 368.613)">
        <path id="Path_2712" data-name="Path 2712" d="M450.34,394.767a3.606,3.606,0,0,0-2.873-5.133,7.646,7.646,0,0,0-2.4-8.415,1.767,1.767,0,0,0-1.046-.469,2.116,2.116,0,0,0-1.142.493l-6.7,4.809a3.978,3.978,0,0,0-1.334,1.31c-1.37,2.657,3.607,6.011,1.539,8.247-.577.625-1.515.757-2.248,1.2-1.6,1-1.791,3.186-2.524,4.917s-3.342,3.065-4.328,1.467c.733-1.659-1.491-3.077-3.282-3.294s-3.679-.313-4.676-2c-2.561,2.224-8.271-3.991-8.138-6.5-2.1.156-3.534,2.128-3.991,4.087a29.344,29.344,0,0,0-.216,6.251c-.06,4.075-1.37,8.054-1.3,12.118,0,3.162,1.274,6.672,4.171,7.946a10.821,10.821,0,0,0,4.484.6l32.975-.2a5.193,5.193,0,0,0,2.32-.385c1.491-.781,1.8-2.741,1.947-4.412l1.767-21.482Z" transform="translate(-397.83 -357.765)" fill="#0065b3"/>
        <path id="Path_2713" data-name="Path 2713" d="M450.34,394.767a3.606,3.606,0,0,0-2.873-5.133,7.646,7.646,0,0,0-2.4-8.415,1.767,1.767,0,0,0-1.046-.469,2.116,2.116,0,0,0-1.142.493l-6.7,4.809a3.978,3.978,0,0,0-1.334,1.31c-1.37,2.657,3.607,6.011,1.539,8.247-.577.625-1.515.757-2.248,1.2-1.6,1-1.791,3.186-2.524,4.917s-3.342,3.065-4.328,1.467c.733-1.659-1.491-3.077-3.282-3.294s-3.679-.313-4.676-2c-2.561,2.224-8.271-3.991-8.138-6.5-2.1.156-3.534,2.128-3.991,4.087a29.344,29.344,0,0,0-.216,6.251c-.06,4.075-1.37,8.054-1.3,12.118,0,3.162,1.274,6.672,4.171,7.946a10.821,10.821,0,0,0,4.484.6l32.975-.2a5.193,5.193,0,0,0,2.32-.385c1.491-.781,1.8-2.741,1.947-4.412l1.767-21.482Z" transform="translate(-397.83 -357.765)" fill="#e61030" opacity="0.3"/>
        <path id="Path_2714" data-name="Path 2714" d="M453.033,363.42H401.87l.421,5.169.3,3.691.781,9.617.445,5.518.589,7.345.252,3.15.084.938.3,3.7.409,5.073.252,3.15.264,3.2.3,3.7.228,2.8.252,3.15.108,1.37h46.956l.108-1.37.252-3.138.228-2.825.3-3.7.264-3.186.252-3.15.409-5.085.3-3.691.072-.938.252-3.15.6-7.345.445-5.506.769-9.617.3-3.691.421-5.169Zm3.078,3.39h0l-.986-.986h1.07Zm-.252,3.138-.1,1.2-4.58,4.58-5.253-5.253,4.7-4.7h1.106Zm-1.322,16.373-3.354,3.354-5.253-5.253,5.253-5.241,3.606,3.606Zm-48.687-3.51h0l3.606-3.606,5.253,5.241-5.253,5.253-3.342-3.354Zm43.638-5.338-5.253,5.253-5.253-5.253,5.253-5.253Zm-8.259-11.649h6.011l-3.005,3.005Zm1.3,18.6-5.241,5.253-5.205-5.253,5.253-5.241Zm-17.443,6.948,5.253-5.241,5.241,5.241-5.241,5.205Zm3.546,6.948-5.253,5.253-5.241-5.241,5.253-5.253Zm8.655-5.241,5.241,5.253-5.241,5.241-5.205-5.253Zm-6.948-10.35-5.253-5.253,5.253-5.253,5.241,5.253Zm-1.707,1.7-5.241,5.253-5.253-5.253,5.253-5.241Zm-12.178-1.7-5.241-5.253,5.241-5.253,5.253,5.253Zm0,3.4,5.253,5.241-5.253,5.205-5.241-5.253Zm5.253,19.15-5.253,5.241-5.241-5.241,5.241-5.253Zm1.7,1.7,5.253,5.253-5.241,5.253-5.277-5.277Zm1.707-1.7,5.253-5.253,5.241,5.253-5.241,5.241Zm12.2,1.7,5.241,5.253-5.241,5.253L432.08,412.2Zm6.948,6.948,5.253,5.253-3.4,3.4h-3.7l-3.4-3.4ZM439,405.279l5.253-5.253,5.253,5.253-5.253,5.241Zm0-13.909,5.253-5.241,5.253,5.241-5.277,5.205Zm3.546-20.845-5.241,5.253-5.229-5.253,4.7-4.7h1.106Zm-12.19-1.7-3.005-3.005h6.011Zm-1.707,1.7-5.241,5.253-5.253-5.253,4.7-4.7h1.106Zm-9.2-4.7-3.005,3.005-2.993-3.005Zm-9.4,0,4.7,4.7-5.253,5.253-4.568-4.58-.1-1.2,4.111-4.123Zm-4.5,0-.974.974h0l-.084-.974Zm-.325,9.076,2.573,2.573-2.176,2.188Zm1.431,17.611-.2-2.488h0l1.346,1.346-1.2,1.142Zm.252,3.162,2.585-2.6,5.253,5.253-5.253,5.241-2.116-2.116Zm.781,9.713v-.228l.12.12-.108.108Zm.914,11.192-.661-8.054,1.551-1.551,5.253,5.253-5.253,5.241-.89-.89Zm.481,6.011-.1-1.2.5-.5,1.707,1.707Zm2.116-3.4,5.241-5.253,5.253,5.253-3.4,3.4h-3.7Zm10.495,3.4,1.707-1.707,1.707,1.707Zm6.8,0-3.4-3.4,5.253-5.253,5.241,5.253-3.39,3.4Zm7.093,0,1.707-1.707,1.707,1.707Zm16.013,0H449.5l1.707-1.707.5.5Zm.493-6.011-.9.89-5.277-5.265,5.253-5.253,1.551,1.551Zm.926-11.432v.24l-.108-.108.132-.132Zm.3-3.691-2.128,2.116-5.253-5.241,5.253-5.253,2.6,2.6Zm.721-8.932-1.2-1.2,1.358-1.346Zm1.406-17.587-.385,4.809-2.2-2.2,2.585-2.585Z" transform="translate(-398.6 -361.268)" fill="#0065b3"/>
        <g id="Group_294" data-name="Group 294" transform="translate(3.27 2.152)" opacity="0.6">
          <path id="Path_2715" data-name="Path 2715" d="M453.033,363.42H401.87l.421,5.169.3,3.691.781,9.617.445,5.518.589,7.345.252,3.15.084.938.3,3.7.409,5.073.252,3.15.264,3.2.3,3.7.228,2.8.252,3.15.108,1.37h46.956l.108-1.37.252-3.138.228-2.825.3-3.7.264-3.186.252-3.15.409-5.085.3-3.691.072-.938.252-3.15.6-7.345.445-5.506.769-9.617.3-3.691.421-5.169Zm3.078,3.39h0l-.986-.986h1.07Zm-.252,3.138-.1,1.2-4.58,4.58-5.253-5.253,4.7-4.7h1.106Zm-1.322,16.373-3.354,3.354-5.253-5.253,5.253-5.241,3.606,3.606Zm-48.687-3.51h0l3.606-3.606,5.253,5.241-5.253,5.253-3.342-3.354Zm43.638-5.338-5.253,5.253-5.253-5.253,5.253-5.253Zm-8.259-11.649h6.011l-3.005,3.005Zm1.3,18.6-5.241,5.253-5.205-5.253,5.253-5.241Zm-17.443,6.948,5.253-5.241,5.241,5.241-5.241,5.205Zm3.546,6.948-5.253,5.253-5.241-5.241,5.253-5.253Zm8.655-5.241,5.241,5.253-5.241,5.241-5.205-5.253Zm-6.948-10.35-5.253-5.253,5.253-5.253,5.241,5.253Zm-1.707,1.7-5.241,5.253-5.253-5.253,5.253-5.241Zm-12.178-1.7-5.241-5.253,5.241-5.253,5.253,5.253Zm0,3.4,5.253,5.241-5.253,5.205-5.241-5.253Zm5.253,19.15-5.253,5.241-5.241-5.241,5.241-5.253Zm1.7,1.7,5.253,5.253-5.241,5.253-5.277-5.277Zm1.707-1.7,5.253-5.253,5.241,5.253-5.241,5.241Zm12.2,1.7,5.241,5.253-5.241,5.253L432.08,412.2Zm6.948,6.948,5.253,5.253-3.4,3.4h-3.7l-3.4-3.4ZM439,405.279l5.253-5.253,5.253,5.253-5.253,5.241Zm0-13.909,5.253-5.241,5.253,5.241-5.277,5.205Zm3.546-20.845-5.241,5.253-5.229-5.253,4.7-4.7h1.106Zm-12.19-1.7-3.005-3.005h6.011Zm-1.707,1.7-5.241,5.253-5.253-5.253,4.7-4.7h1.106Zm-9.2-4.7-3.005,3.005-2.993-3.005Zm-9.4,0,4.7,4.7-5.253,5.253-4.568-4.58-.1-1.2,4.111-4.123Zm-4.5,0-.974.974h0l-.084-.974Zm-.325,9.076,2.573,2.573-2.176,2.188Zm1.431,17.611-.2-2.488h0l1.346,1.346-1.2,1.142Zm.252,3.162,2.585-2.6,5.253,5.253-5.253,5.241-2.116-2.116Zm.781,9.713v-.228l.12.12-.108.108Zm.914,11.192-.661-8.054,1.551-1.551,5.253,5.253-5.253,5.241-.89-.89Zm.481,6.011-.1-1.2.5-.5,1.707,1.707Zm2.116-3.4,5.241-5.253,5.253,5.253-3.4,3.4h-3.7Zm10.495,3.4,1.707-1.707,1.707,1.707Zm6.8,0-3.4-3.4,5.253-5.253,5.241,5.253-3.39,3.4Zm7.093,0,1.707-1.707,1.707,1.707Zm16.013,0H449.5l1.707-1.707.5.5Zm.493-6.011-.9.89-5.277-5.265,5.253-5.253,1.551,1.551Zm.926-11.432v.24l-.108-.108.132-.132Zm.3-3.691-2.128,2.116-5.253-5.241,5.253-5.253,2.6,2.6Zm.721-8.932-1.2-1.2,1.358-1.346Zm1.406-17.587-.385,4.809-2.2-2.2,2.585-2.585Z" transform="translate(-401.87 -363.42)" fill="#fff"/>
        </g>
        <rect id="Rectangle_397" data-name="Rectangle 397" width="63.473" height="6.696" rx="1.64" transform="translate(63.473 6.696) rotate(180)" fill="#e61030"/>
        <rect id="Rectangle_398" data-name="Rectangle 398" width="54.325" height="6.696" rx="1.64" transform="translate(4.568 60.119)" fill="#e61030"/>
      </g>
      <g id="freepik--character-1--inject-57" transform="translate(117.666 106.034)">
        <path id="Path_2716" data-name="Path 2716" d="M178.095,210.13c4.147,1.3,4.809,25.4,4.809,25.4h-2.4s1.2-25.546-4.989-24.752Z" transform="translate(-82.188 -129.676)" fill="#263238"/>
        <path id="Path_2717" data-name="Path 2717" d="M178.095,210.13c4.147,1.3,4.809,25.4,4.809,25.4h-2.4s1.2-25.546-4.989-24.752Z" transform="translate(-82.188 -129.676)" opacity="0.2"/>
        <path id="Path_2718" data-name="Path 2718" d="M184.286,403.442l-7.586,1.334-3.114-10.338-2.837-9.485L179.5,381.9l2.537,11.408Z" transform="translate(-83.15 -94.954)" fill="#e4897b"/>
        <path id="Path_2719" data-name="Path 2719" d="M182.07,393.529l-8.451,1.118-2.849-9.593,8.728-3.114Z" transform="translate(-83.146 -94.945)" opacity="0.2"/>
        <path id="Path_2720" data-name="Path 2720" d="M141.6,406.474h-7.706l-1.262-10.855-1.142-9.894,9.136-1.515.517,11.781Z" transform="translate(-91.086 -94.487)" fill="#e4897b"/>
        <path id="Path_2721" data-name="Path 2721" d="M141.143,396.083l-8.511-.373-1.142-9.942,9.136-1.539Z" transform="translate(-91.086 -94.483)" opacity="0.2"/>
        <path id="Path_2722" data-name="Path 2722" d="M152.481,419.058a13.223,13.223,0,0,0-4.111-2.236h0s-4.472-4.436-6.624-17.792l-5.854-1.527a5.013,5.013,0,0,0-5.325,2.08,2.835,2.835,0,0,0-.373.769,33.394,33.394,0,0,0-.625,4.34c-.589,4.52-.084,14.666-.084,14.666h1.058l.421-9.208c.156-3.126,2.549.541,3.234,3.907s2.14,6.948,8.992,7.117C151.183,421.33,154.5,420.969,152.481,419.058Z" transform="translate(-91.533 -91.827)" fill="#263238"/>
        <path id="Path_2723" data-name="Path 2723" d="M194.981,418.308a13.224,13.224,0,0,0-4.111-2.236h0s-4.472-4.436-6.624-17.792l-5.854-1.527a5.013,5.013,0,0,0-5.325,2.08,2.838,2.838,0,0,0-.373.769,33.4,33.4,0,0,0-.625,4.34c-.589,4.52-.084,14.666-.084,14.666h1.058l.421-9.208c.156-3.126,2.549.541,3.234,3.907s2.14,6.948,8.992,7.117C193.683,420.58,197,420.267,194.981,418.308Z" transform="translate(-82.941 -91.979)" fill="#263238"/>
        <path id="Path_2724" data-name="Path 2724" d="M193.713,417.459l-12.466,2.188c-12.586-31.34-21.53-57.5-27.854-79.209-3.4-11.709-6.239-22.119-8.271-31.364l.373,34.117v76.853H133.209c-30.787-146.662-8.968-180.093-8.968-180.093l36.846-6.131a168.817,168.817,0,0,1,3.077,20.653l1.659,12.214,14.426,74.389Z" transform="translate(-94.068 -124.887)" fill="#0065b3"/>
        <g id="Group_295" data-name="Group 295" transform="translate(22.672 108.933)" opacity="0.4">
          <path id="Path_2725" data-name="Path 2725" d="M193.713,417.459l-12.466,2.188c-12.586-31.34-21.53-57.5-27.854-79.209-3.4-11.709-6.239-22.119-8.271-31.364l.373,34.117v76.853H133.209c-30.787-146.662-8.968-180.093-8.968-180.093l36.846-6.131a168.817,168.817,0,0,1,3.077,20.653l1.659,12.214,14.426,74.389Z" transform="translate(-116.74 -233.82)" fill="#fff"/>
        </g>
        <path id="Path_2726" data-name="Path 2726" d="M189.91,207.05l12.43-12.286s.433-3.294,1.635-4.208,9.737-4.015,10.819-3.33,2.488,7.586,1.034,8.848-9.22,2.873-10.014,2.741L192.362,214.78Z" transform="translate(-79.277 -134.325)" fill="#eec1bb"/>
        <path id="Path_2727" data-name="Path 2727" d="M153.115,185.07c5.362,2.849,24.392,29.453,27.2,30.775s24.235-16.061,24.235-16.061l3.606,6.167S190.537,230.8,180.644,229.6s-28.984-22.24-28.984-22.24Z" transform="translate(-87.009 -134.742)" fill="#263238"/>
        <path id="Path_2728" data-name="Path 2728" d="M153.115,185.07c5.362,2.849,24.392,29.453,27.2,30.775s24.235-16.061,24.235-16.061l3.606,6.167S190.537,230.8,180.644,229.6s-28.984-22.24-28.984-22.24Z" transform="translate(-87.009 -134.742)" fill="#fff" opacity="0.4"/>
        <path id="Path_2729" data-name="Path 2729" d="M194.68,198.1l1.479-1.407,3.907,6.612-1.395,2.7Z" transform="translate(-78.313 -132.393)" fill="#e61030"/>
        <path id="Path_2730" data-name="Path 2730" d="M159.286,213.128c-4.448-4.244-7.646-7.766-7.646-7.766l.337-5.289,1.671-5.133a21.1,21.1,0,0,1,5.638,18.188Z" transform="translate(-87.013 -132.746)" opacity="0.2"/>
        <path id="Path_2731" data-name="Path 2731" d="M148.59,333.286c-3.4-11.709-6.011-22.119-8.09-31.364a288.749,288.749,0,0,1,2.4-32.722S148.314,311.4,148.59,333.286Z" transform="translate(-89.265 -117.735)" opacity="0.2"/>
        <path id="Path_2732" data-name="Path 2732" d="M162.761,241.53c1.5-26.447.842-41.017.156-48.29-.757-7.754-1.947-8.042-1.947-8.042s-8.415-.817-15.712-.757a118.365,118.365,0,0,0-16.83,1.779,112.545,112.545,0,0,0-15.628,3.763q1.274,3.606,2.344,6.924c.962,2.861,1.815,5.53,2.585,8.006,1.455,4.652,2.573,8.667,3.474,12.262a134.147,134.147,0,0,1,4,27.649s-9.257,24.163-11.06,41.895l30.655,3.306,4.208-17.732,4.208,18.333,17.131-6.011Z" transform="translate(-94.864 -134.869)" fill="#263238"/>
        <path id="Path_2733" data-name="Path 2733" d="M162.761,241.53c1.5-26.447.842-41.017.156-48.29-.757-7.754-1.947-8.042-1.947-8.042s-8.415-.817-15.712-.757a118.365,118.365,0,0,0-16.83,1.779,112.545,112.545,0,0,0-15.628,3.763q1.274,3.606,2.344,6.924c.962,2.861,1.815,5.53,2.585,8.006,1.455,4.652,2.573,8.667,3.474,12.262a134.147,134.147,0,0,1,4,27.649s-9.257,24.163-11.06,41.895l30.655,3.306,4.208-17.732,4.208,18.333,17.131-6.011Z" transform="translate(-94.864 -134.869)" fill="#fff" opacity="0.4"/>
        <path id="Path_2734" data-name="Path 2734" d="M128,183.582s4.412-3.522,12.3-.709l1.07,4.015s-6.768,2.561-10.182,1.887S128,183.582,128,183.582Z" transform="translate(-91.792 -135.406)" fill="#0065b3"/>
        <path id="Path_2735" data-name="Path 2735" d="M128,183.582s4.412-3.522,12.3-.709l1.07,4.015s-6.768,2.561-10.182,1.887S128,183.582,128,183.582Z" transform="translate(-91.792 -135.406)" fill="#e61030" opacity="0.2"/>
        <path id="Path_2736" data-name="Path 2736" d="M121.451,219.281c-.409-2.02-.89-4.171-1.479-6.48-.373-1.467-.781-3.005-1.2-4.64,1.2-4.1,2.4-.9,2.4-.9a36.941,36.941,0,0,1,.277,12.021Z" transform="translate(-93.658 -130.496)" opacity="0.2"/>
        <path id="Path_2737" data-name="Path 2737" d="M141.934,188.068a9.51,9.51,0,0,0-1.2-.493c-.866-.685-1.911-2.332-1.863-6.335a32.688,32.688,0,0,1,.433-4.7l-11.132-2.08s3.8,7.5.625,13.079c-1.082.481-1.731,1.2-1.623,2.068.841,6.443,14.678,12.671,14.678,12.671S148.606,191.759,141.934,188.068Z" transform="translate(-91.962 -136.886)" fill="#eec1bb"/>
        <path id="Path_2738" data-name="Path 2738" d="M139.174,176.54a32.69,32.69,0,0,0-.433,4.7c-7.525,0-10.711-6.78-10.711-6.78Z" transform="translate(-91.786 -136.886)" opacity="0.2"/>
        <path id="Path_2739" data-name="Path 2739" d="M133.16,145.616s13.031-1.647,15.436,8.9a16.193,16.193,0,0,1-5.71,16.373Z" transform="translate(-90.749 -142.736)" fill="#263238"/>
        <path id="Path_2740" data-name="Path 2740" d="M134.132,150.276c9.689-.529,13.091,4.484,14.342,14.426,1.575,12.43-.709,21.446-12.971,19.451C118.853,181.436,118.035,151.154,134.132,150.276Z" transform="translate(-92.899 -141.783)" fill="#eec1bb"/>
        <path id="Path_2741" data-name="Path 2741" d="M138.88,162.11a20.434,20.434,0,0,0,3.041,3.859,2.657,2.657,0,0,1-2.5,1.2Z" transform="translate(-89.592 -139.383)" fill="#d4827d"/>
        <path id="Path_2742" data-name="Path 2742" d="M134.234,161.951c.06.793-.325,1.467-.854,1.515s-1.01-.565-1.07-1.37.325-1.467.854-1.515S134.174,161.157,134.234,161.951Z" transform="translate(-90.922 -139.693)" fill="#263238"/>
        <path id="Path_2743" data-name="Path 2743" d="M132.84,160.767l1.671-.817S133.766,161.477,132.84,160.767Z" transform="translate(-90.813 -139.819)" fill="#263238"/>
        <path id="Path_2744" data-name="Path 2744" d="M142.444,161.171c0,.793-.325,1.467-.854,1.515s-1.01-.577-1.07-1.37.313-1.467.854-1.515S142.384,160.377,142.444,161.171Z" transform="translate(-89.262 -139.85)" fill="#263238"/>
        <path id="Path_2745" data-name="Path 2745" d="M141,159.987l1.683-.817S141.986,160.7,141,159.987Z" transform="translate(-89.164 -139.977)" fill="#263238"/>
        <path id="Path_2746" data-name="Path 2746" d="M134.213,156.162a5.061,5.061,0,0,0-4.123,1.7" transform="translate(-91.369 -140.587)" fill="none" stroke="#263238" stroke-linecap="round" stroke-linejoin="round" stroke-width="0.686"/>
        <path id="Path_2747" data-name="Path 2747" d="M139.36,155.535a4.52,4.52,0,0,1,3.907.577" transform="translate(-89.495 -140.754)" fill="none" stroke="#263238" stroke-linecap="round" stroke-linejoin="round" stroke-width="0.686"/>
        <path id="Path_2748" data-name="Path 2748" d="M124.907,167.8s4.1-8.2,3.077-14.306c0,0,18.765-8.9,20.785,10.531,0,0,.926-17.407-15.748-16.83s-15.279,24.9-6.275,31.677C126.746,178.821,122.371,172.93,124.907,167.8Z" transform="translate(-93.375 -142.401)" fill="#263238"/>
        <path id="Path_2749" data-name="Path 2749" d="M138.332,145.334s7.958-1.96,10.218.144-13.825,16.986-22.24,18.489c0,0-2.861,9.317-.6,13.668,0,0-9.473-3.306-9.918-17.732S130.47,140.044,138.332,145.334Z" transform="translate(-94.262 -143.175)" fill="#263238"/>
        <path id="Path_2750" data-name="Path 2750" d="M126.709,166.614a4.256,4.256,0,0,0-4.809-3.606c-2.981.493-4.075,6.732,3.474,7.814C126.481,170.893,127.022,169.823,126.709,166.614Z" transform="translate(-93.482 -139.21)" fill="#eec1bb"/>
        <path id="Path_2751" data-name="Path 2751" d="M125.424,151.049s-3.306-8.415-12.178-7.814-10.218,14.426-5.554,24.644,1.551,13.548,1.551,13.548,4.953-.6,4.953-9.773a33.07,33.07,0,0,1,.3,5.866s3.306-4.664.156-13.524,6.912-4.809,6.912-4.809Z" transform="translate(-96.429 -143.204)" fill="#263238"/>
        <path id="Path_2752" data-name="Path 2752" d="M145.012,145.73s-4.208,13.524-15.472,17.575" transform="translate(-91.481 -142.694)" fill="none" stroke="#263238" stroke-linecap="round" stroke-linejoin="round" stroke-width="0.686"/>
        <path id="Path_2753" data-name="Path 2753" d="M133,169.23a7.754,7.754,0,0,0,5.554,2.248" transform="translate(-90.781 -137.944)" fill="none" stroke="#263238" stroke-linecap="round" stroke-linejoin="round" stroke-width="0.686"/>
        <path id="Path_2754" data-name="Path 2754" d="M128.307,183.4s2,4.051,8.8,6.936l2.777,4.484v-5.109a15.808,15.808,0,0,0,.721-7.021l2.26,4.268a3.606,3.606,0,0,1,2.729,2.861c.721,2.621-3.15,12.021-3.15,12.021s-12.37-4.436-15.147-10c-2.056-4.147.409-5.145.409-5.145Z" transform="translate(-92.099 -135.223)" fill="#e61030"/>
        <path id="Path_2755" data-name="Path 2755" d="M141.729,201.63a.89.89,0,1,1-.89-.89.89.89,0,0,1,.89.89Z" transform="translate(-89.376 -131.574)" fill="#263238"/>
        <path id="Path_2756" data-name="Path 2756" d="M143.529,213.2a.89.89,0,1,1-.89-.89A.89.89,0,0,1,143.529,213.2Z" transform="translate(-89.012 -129.235)" fill="#263238"/>
        <path id="Path_2757" data-name="Path 2757" d="M144.3,227.22a.89.89,0,1,1-.89-.89.89.89,0,0,1,.89.89Z" transform="translate(-88.857 -126.401)" fill="#263238"/>
        <path id="Path_2758" data-name="Path 2758" d="M144.909,241.91a.89.89,0,1,1-.89-.89A.89.89,0,0,1,144.909,241.91Z" transform="translate(-88.733 -123.432)" fill="#263238"/>
        <path id="Path_2759" data-name="Path 2759" d="M202.7,192.652a36.161,36.161,0,0,1,18.273-3.823l6.7,7.045s-5.71-1.382-18.6,1.587Z" transform="translate(-76.692 -133.993)" fill="#0065b3"/>
        <path id="Path_2760" data-name="Path 2760" d="M202.7,192.652a36.161,36.161,0,0,1,18.273-3.823l6.7,7.045s-5.71-1.382-18.6,1.587Z" transform="translate(-76.692 -133.993)" opacity="0.4"/>
        <path id="Path_2761" data-name="Path 2761" d="M202.64,192.359a36.2,36.2,0,0,1,18.032-4.809l7.069,6.672s-5.782-1.022-18.5,2.585Z" transform="translate(-76.704 -134.24)" fill="#0065b3"/>
        <path id="Path_2762" data-name="Path 2762" d="M202.64,192.359a36.2,36.2,0,0,1,18.032-4.809l7.069,6.672s-5.782-1.022-18.5,2.585Z" transform="translate(-76.704 -134.24)" opacity="0.2"/>
        <path id="Path_2763" data-name="Path 2763" d="M203.07,191.642l6.48,5.4a32.867,32.867,0,0,1,20.617-3.246l-8.139-7.153S210.2,185.27,203.07,191.642Z" transform="translate(-76.617 -134.449)" fill="#0065b3"/>
        <path id="Path_2764" data-name="Path 2764" d="M204.44,191.681l4.544,4.015s9.269-4.953,18.429-3.126L221.4,187.1S211.124,185.8,204.44,191.681Z" transform="translate(-76.34 -134.356)" opacity="0.2"/>
        <path id="Path_2765" data-name="Path 2765" d="M215.859,189.719c0,.974-1.058,1.767-2.4,1.767s-2.4-.793-2.4-1.767,1.058-1.779,2.4-1.779S215.859,188.733,215.859,189.719Z" transform="translate(-75.004 -134.161)" fill="#0065b3"/>
        <path id="Path_2766" data-name="Path 2766" d="M164.892,258.564c.445-6.7,4.592-26.447,4.592-26.447a40.57,40.57,0,0,1,5.722-3.222,31.256,31.256,0,0,1,9.485-1.815s1.887,24.92,0,27.649S164.363,266.486,164.892,258.564Z" transform="translate(-84.337 -126.249)" fill="#263238"/>
        <path id="Path_2767" data-name="Path 2767" d="M168.71,235.537s2.969-26.531,10.759-25.4c0,0-6.155,1.3-8.415,26.267Z" transform="translate(-83.563 -129.682)" fill="#263238"/>
        <path id="Path_2768" data-name="Path 2768" d="M149.648,222.589c1.382-.3,4.965-9.329,4.508-10.435S127,214.775,127,214.775l1.755,9.737Z" transform="translate(-91.994 -129.308)" fill="#0065b3"/>
        <path id="Path_2769" data-name="Path 2769" d="M149.648,222.589c1.382-.3,4.965-9.329,4.508-10.435S127,214.775,127,214.775l1.755,9.737Z" transform="translate(-91.994 -129.308)" opacity="0.2"/>
        <path id="Path_2770" data-name="Path 2770" d="M117.86,215.062s28.491-4.051,29.765-3.606,3.895,11.252,3.895,11.252-24.68,3.907-26.832,3.282S116.85,216.553,117.86,215.062Z" transform="translate(-93.866 -129.415)" fill="#0065b3"/>
        <path id="Path_2771" data-name="Path 2771" d="M109.79,232.73l14.786-9.329s1.13-3.114,2.5-3.751,10.374-1.827,11.252-.926.793,7.934-.9,8.86-9.617.817-10.362.517L110.487,240.76Z" transform="translate(-95.473 -128.004)" fill="#eec1bb"/>
        <path id="Path_2772" data-name="Path 2772" d="M115.8,189.05s9.617,14.041,8.259,26.063l-12.815,21.23,8.607-4.4,3.907,7.357s-9.918,15.279-22.54,11.673S115.8,189.05,115.8,189.05Z" transform="translate(-97.88 -133.937)" fill="#263238"/>
        <path id="Path_2773" data-name="Path 2773" d="M115.8,189.05s9.617,14.041,8.259,26.063l-12.815,21.23,8.607-4.4,3.907,7.357s-9.918,15.279-22.54,11.673S115.8,189.05,115.8,189.05Z" transform="translate(-97.88 -133.937)" fill="#fff" opacity="0.4"/>
        <path id="Path_2774" data-name="Path 2774" d="M115.41,224.542l4.917,9.124,1.094-2.609-3.907-7.417Z" transform="translate(-94.337 -126.945)" fill="#e61030"/>
      </g>
    </g>
  </g>
</svg>
