<svg xmlns="http://www.w3.org/2000/svg" width="1786" height="810.5" viewBox="0 0 1786 810.5">
  <g id="Group_85" data-name="Group 85" transform="translate(-74 -251.5)">
    <rect id="Rectangle_135" data-name="Rectangle 135" width="1786" height="810" transform="translate(74 252)" fill="none"/>
    <g id="Group_14" data-name="Group 14" transform="translate(-3)">
      <g id="Group_13" data-name="Group 13" transform="translate(-237 -1008)">
        <g id="Group_8" data-name="Group 8" transform="translate(15)">
          <g id="Group_7" data-name="Group 7" transform="translate(272 280)">
            <text id="SUKU_BUNGA" data-name="SUKU BUNGA" transform="translate(105 1179)" fill="#041546" font-size="34" font-family="SegoeUI-Bold, Segoe UI" font-weight="700"><tspan x="0" y="0">SUKU BUNGA</tspan></text>
          </g>
        </g>
        <g id="Group_10" data-name="Group 10" transform="translate(-50 -60)">
          <text id="Tabungan_Intidana" data-name="Tabungan Intidana" transform="translate(442 1536)" fill="#333" font-size="26" font-family="SegoeUI, Segoe UI"><tspan x="0" y="28">Tabungan Intidana</tspan></text>
        </g>
        <g id="Group_72" data-name="Group 72" transform="translate(250 -60)">
          <text id="_5_0_" data-name="5,0%" transform="translate(442 1536)" fill="#e83225" font-size="26" font-family="SegoeUI, Segoe UI"><tspan x="0" y="28">5,0%</tspan></text>
        </g>
      </g>
      <g id="Group_69" data-name="Group 69" transform="translate(-237 -905)">
        <g id="Group_8-2" data-name="Group 8" transform="translate(15)">
          <g id="Group_7-2" data-name="Group 7" transform="translate(272 280)">
            <text id="DEPOSITO" transform="translate(105 1179)" fill="#041546" font-size="34" font-family="SegoeUI-Bold, Segoe UI" font-weight="700"><tspan x="0" y="0">DEPOSITO</tspan></text>
          </g>
        </g>
        <g id="Group_10-2" data-name="Group 10" transform="translate(-50 -60)">
          <text id="_1_Bulan" data-name="1 Bulan" transform="translate(442 1536)" fill="#333" font-size="26" font-family="SegoeUI, Segoe UI"><tspan x="0" y="28">1 Bulan</tspan></text>
          <text id="_3_Bulan" data-name="3 Bulan" transform="translate(442 1577)" fill="#333" font-size="26" font-family="SegoeUI, Segoe UI"><tspan x="0" y="28">3 Bulan</tspan></text>
          <text id="_6_Bulan" data-name="6 Bulan" transform="translate(442 1618)" fill="#333" font-size="26" font-family="SegoeUI, Segoe UI"><tspan x="0" y="28">6 Bulan</tspan></text>
          <text id="_12_Bulan" data-name="12 Bulan" transform="translate(442 1659)" fill="#333" font-size="26" font-family="SegoeUI, Segoe UI"><tspan x="0" y="28">12 Bulan</tspan></text>
          <g id="Group_73" data-name="Group 73" transform="translate(300)">
            <text id="_6_00_" data-name="6,00%" transform="translate(442 1536)" fill="#e83225" font-size="26" font-family="SegoeUI, Segoe UI"><tspan x="0" y="28">6,00%</tspan></text>
          </g>
          <text id="_6_25_" data-name="6,25%" transform="translate(742 1577)" fill="#e83225" font-size="26" font-family="SegoeUI, Segoe UI"><tspan x="0" y="28">6,25%</tspan></text>
          <text id="_6_25_2" data-name="6,25%" transform="translate(742 1618)" fill="#e83225" font-size="26" font-family="SegoeUI, Segoe UI"><tspan x="0" y="28">6,25%</tspan></text>
          <text id="_6_50_" data-name="6,50%" transform="translate(742 1659)" fill="#e83225" font-size="26" font-family="SegoeUI, Segoe UI"><tspan x="0" y="28">6,50%</tspan></text>
        </g>
      </g>
      <g id="Group_70" data-name="Group 70" transform="translate(-237 -679)">
        <g id="Group_8-3" data-name="Group 8" transform="translate(15)">
          <g id="Group_7-3" data-name="Group 7" transform="translate(272 280)">
            <text id="JAM_KERJA" data-name="JAM KERJA" transform="translate(105 1179)" fill="#041546" font-size="34" font-family="SegoeUI-Bold, Segoe UI" font-weight="700"><tspan x="0" y="0">JAM KERJA</tspan></text>
          </g>
        </g>
        <g id="Group_10-3" data-name="Group 10" transform="translate(-50 -60)">
          <text id="Senin_-_Jumat" data-name="Senin - Jumat" transform="translate(442 1536)" fill="#333" font-size="26" font-family="SegoeUI, Segoe UI"><tspan x="0" y="28">Senin - Jumat</tspan></text>
        </g>
        <text id="_08.00-17.00_WIB" data-name="08.00-17.00 WIB" transform="translate(692 1476)" fill="#e83225" font-size="26" font-family="SegoeUI, Segoe UI"><tspan x="0" y="28">08.00-17.00 WIB</tspan></text>
      </g>
      <g id="Group_71" data-name="Group 71" transform="translate(-237 -576)">
        <g id="Group_8-4" data-name="Group 8" transform="translate(15)">
          <g id="Group_7-4" data-name="Group 7" transform="translate(272 280)">
            <text id="PELAYANAN_KAS" data-name="PELAYANAN KAS" transform="translate(105 1179)" fill="#041546" font-size="34" font-family="SegoeUI-Bold, Segoe UI" font-weight="700"><tspan x="0" y="0">PELAYANAN KAS</tspan></text>
          </g>
        </g>
        <g id="Group_10-4" data-name="Group 10" transform="translate(-50 -60)">
          <text id="Senin_-_Jumat-2" data-name="Senin - Jumat" transform="translate(442 1536)" fill="#333" font-size="26" font-family="SegoeUI, Segoe UI"><tspan x="0" y="28">Senin - Jumat</tspan></text>
        </g>
        <text id="_08.00-15.00_WIB" data-name="08.00-15.00 WIB" transform="translate(692 1476)" fill="#e83225" font-size="26" font-family="SegoeUI, Segoe UI"><tspan x="0" y="28">08.00-15.00 WIB</tspan></text>
      </g>
      <g id="Group_74" data-name="Group 74" transform="translate(737 251.5)">
        <path id="Path_532" data-name="Path 532" d="M321.941,664.229s390.906-305.3,616.045,0" transform="translate(-123.843 -36.632)" fill="#f2f2f2"/>
        <ellipse id="Ellipse_101" data-name="Ellipse 101" cx="181.051" cy="26.404" rx="181.051" ry="26.404" transform="translate(658.506 757.692)" fill="#f2f2f2"/>
        <ellipse id="Ellipse_102" data-name="Ellipse 102" cx="181.051" cy="26.404" rx="181.051" ry="26.404" transform="translate(687.897 747.79)" fill="none" stroke="#3f3d56" stroke-miterlimit="10" stroke-width="1"/>
        <path id="Path_533" data-name="Path 533" d="M959.843,539.843a19.061,19.061,0,0,0,20.364-5.233,16.211,16.211,0,0,0,1.463-19.714,18.785,18.785,0,0,0-19.4-7.817l.457,8.793-4.446-7.536a17.494,17.494,0,0,0-9.372,9.623,15.826,15.826,0,0,0-1.05,4.622C947.288,530.192,952.177,537.239,959.843,539.843Z" transform="translate(-13.903 -38.82)" fill="#ffb9b9"/>
        <path id="Path_534" data-name="Path 534" d="M977.271,643.167c-1.569-7.478,5.231-14.108,11.948-18.417s14.565-8.544,16.857-15.856c3.294-10.51-6.518-20.136-14.154-28.437A102.721,102.721,0,0,1,977.429,560.3a26.6,26.6,0,0,1-3.466-9.166c-.6-4.659,1-9.295,2.608-13.739q8.052-22.206,17.218-44.04" transform="translate(-9.333 -40.157)" fill="none" stroke="#3f3d56" stroke-miterlimit="10" stroke-width="1"/>
        <path id="Path_535" data-name="Path 535" d="M960.483,537.785a19.06,19.06,0,0,0,20.363-5.233,16.21,16.21,0,0,0,1.463-19.715,18.784,18.784,0,0,0-19.4-7.817l.457,8.793-4.446-7.536a17.493,17.493,0,0,0-9.372,9.623,15.826,15.826,0,0,0-1.05,4.622C947.927,528.134,952.817,535.181,960.483,537.785Z" transform="translate(-13.791 -39.026)" fill="none" stroke="#3f3d56" stroke-miterlimit="10" stroke-width="1"/>
        <path id="Path_536" data-name="Path 536" d="M975.023,491.618a17.9,17.9,0,0,1,13.14-10.833l1.5,8.36,2.787-8.78c7.939.11,14.892,5.011,17.2,12.121a16.524,16.524,0,0,1-7.1,19.02,19.272,19.272,0,0,1-21.522-.539,16.432,16.432,0,0,1-6-19.348Z" transform="translate(-9.316 -41.458)" fill="#ffb9b9"/>
        <path id="Path_537" data-name="Path 537" d="M975.876,488.875a17.9,17.9,0,0,1,13.14-10.833l1.5,8.36,2.787-8.78c7.94.11,14.893,5.01,17.2,12.121a16.524,16.524,0,0,1-7.1,19.02,19.272,19.272,0,0,1-21.522-.539A16.433,16.433,0,0,1,975.876,488.875Z" transform="translate(-9.167 -41.733)" fill="none" stroke="#3f3d56" stroke-miterlimit="10" stroke-width="1"/>
        <path id="Path_538" data-name="Path 538" d="M988.292,575.7c8.725,2.962,18.435-.674,22.569-8.449s1.375-17.216-6.412-21.941l-2.141,6.747-1.519-8.458a.363.363,0,0,0-.046-.017c-9.478-3.218-19.948,1.364-23.386,10.233S978.815,572.481,988.292,575.7Z" transform="translate(-8.908 -35.229)" fill="#ffb9b9"/>
        <path id="Path_539" data-name="Path 539" d="M989.031,572.919c8.725,2.961,18.435-.674,22.568-8.45s1.375-17.215-6.411-21.941l-2.141,6.747-1.519-8.458a.361.361,0,0,0-.046-.016c-9.478-3.218-19.949,1.364-23.387,10.233s1.458,18.668,10.936,21.885Z" transform="translate(-8.778 -35.508)" fill="none" stroke="#3f3d56" stroke-miterlimit="10" stroke-width="1"/>
        <path id="Path_540" data-name="Path 540" d="M970.37,600.292c1.493,7.952,8.734,13.838,17.357,14.11s16.271-5.146,18.333-12.985-2.026-15.96-9.8-19.464a19.062,19.062,0,0,0-22.373,4.961l8.134,11.457-11.114-6.081A15.875,15.875,0,0,0,970.37,600.292Z" transform="translate(-9.99 -31.452)" fill="#ffb9b9"/>
        <path id="Path_541" data-name="Path 541" d="M971.01,598.234c1.493,7.952,8.734,13.838,17.357,14.11s16.271-5.146,18.333-12.985-2.027-15.959-9.8-19.463a19.062,19.062,0,0,0-22.373,4.961l8.134,11.456-11.114-6.081A15.879,15.879,0,0,0,971.01,598.234Z" transform="translate(-9.879 -31.658)" fill="none" stroke="#3f3d56" stroke-miterlimit="10" stroke-width="1"/>
        <path id="Path_542" data-name="Path 542" d="M955.2,639.971s16.11-5.908,20.965-9.144,24.781-7.1,25.985-1.91,24.21,25.806,6.022,25.944-42.261,2.793-47.106.03S955.2,639.971,955.2,639.971Z" transform="translate(-12.607 -26.832)" fill="#656380"/>
        <path id="Path_543" data-name="Path 543" d="M1008.5,651.82c-18.188.137-42.261,2.792-47.106.03-3.691-2.1-5.161-9.652-5.653-13.134-.341.014-.538.02-.538.02s1.021,12.158,5.866,14.921,28.918.107,47.106-.03c5.25-.04,7.064-1.788,6.964-4.377C1014.406,650.814,1012.4,651.791,1008.5,651.82Z" transform="translate(-12.607 -25.597)" opacity="0.2"/>
        <rect id="Rectangle_115" data-name="Rectangle 115" width="70.539" height="173.827" rx="11.851" transform="translate(186.93 454.32)" fill="#e83225"/>
        <rect id="Rectangle_116" data-name="Rectangle 116" width="70.539" height="278.343" rx="11.851" transform="translate(320.955 349.804)" fill="#e83225"/>
        <rect id="Rectangle_117" data-name="Rectangle 117" width="70.539" height="350.954" rx="11.851" transform="translate(454.98 277.193)" fill="#e83225"/>
        <rect id="Rectangle_118" data-name="Rectangle 118" width="70.539" height="420.265" rx="11.851" transform="translate(589.005 207.882)" fill="#e83225"/>
        <rect id="Rectangle_119" data-name="Rectangle 119" width="70.539" height="541.284" rx="11.851" transform="translate(723.03 86.863)" fill="#e83225"/>
        <rect id="Rectangle_120" data-name="Rectangle 120" width="70.539" height="173.827" rx="11.851" transform="translate(196.335 445.519)" fill="none" stroke="#3f3d56" stroke-miterlimit="10" stroke-width="1"/>
        <rect id="Rectangle_121" data-name="Rectangle 121" width="70.539" height="278.343" rx="11.851" transform="translate(330.36 341.003)" fill="none" stroke="#3f3d56" stroke-miterlimit="10" stroke-width="1"/>
        <rect id="Rectangle_122" data-name="Rectangle 122" width="70.539" height="350.954" rx="11.851" transform="translate(464.385 268.391)" fill="none" stroke="#3f3d56" stroke-miterlimit="10" stroke-width="1"/>
        <rect id="Rectangle_123" data-name="Rectangle 123" width="70.539" height="420.265" rx="11.851" transform="translate(598.41 199.081)" fill="none" stroke="#3f3d56" stroke-miterlimit="10" stroke-width="1"/>
        <rect id="Rectangle_124" data-name="Rectangle 124" width="70.539" height="541.284" rx="11.851" transform="translate(732.435 78.062)" fill="none" stroke="#3f3d56" stroke-miterlimit="10" stroke-width="1"/>
        <line id="Line_1" data-name="Line 1" x1="1012.241" transform="translate(0 628.697)" fill="none" stroke="#3f3d56" stroke-miterlimit="10" stroke-width="1"/>
        <path id="Path_544" data-name="Path 544" d="M962.117,556.951s11.064,37.273-2.95,42.795-9.589-41.414-9.589-41.414Z" transform="translate(-13.71 -33.787)" fill="#a0616a"/>
        <path id="Path_545" data-name="Path 545" d="M879.751,774.056s-10.327-.69-14.014,1.38a9.439,9.439,0,0,1-7.376.69s-16.228-1.38-10.327,6.212,11.8,10.353,11.8,13.8,24.34,3.451,25.078,0,1.475-21.4,0-22.087S879.751,774.056,879.751,774.056Z" transform="translate(-31.658 -12.07)" fill="#041546"/>
        <path id="Path_546" data-name="Path 546" d="M898.932,774.056s10.326-.69,14.014,1.38a9.439,9.439,0,0,0,7.376.69s16.227-1.38,10.326,6.212-11.8,10.353-11.8,13.8-24.341,3.451-25.079,0-1.475-21.4,0-22.087S898.932,774.056,898.932,774.056Z" transform="translate(-23.547 -12.07)" fill="#041546"/>
        <path id="Path_547" data-name="Path 547" d="M849.563,550.776S844.4,659.833,847.35,665.355s13.277,98.7,11.8,104.226-8.851,28.3,0,31.751,28.029,0,28.029,0,5.163-27.609,2.951-42.1-2.951-75.236-2.951-75.236l14.752-63.5,5.163,60.05s1.475,82.138-8.851,98.7,3.688,23.468,3.688,23.468,28.028,3.451,30.979,2.761-2.213-27.609,0-39.344,7.375-77.306,11.8-93.182,29.5-104.226,11.064-122.172S849.563,550.776,849.563,550.776Z" transform="translate(-31.711 -35.204)" fill="#3f3d56"/>
        <ellipse id="Ellipse_103" data-name="Ellipse 103" cx="25.816" cy="24.158" rx="25.816" ry="24.158" transform="translate(845.881 247.07)" fill="#a0616a"/>
        <path id="Path_548" data-name="Path 548" d="M878.584,338.18S883.01,371.312,880.8,372s39.093,0,39.093,0-8.114-20.017,0-35.892Z" transform="translate(-26.065 -55.908)" fill="#a0616a"/>
        <path id="Path_549" data-name="Path 549" d="M878.584,363.13s17.977-16.566,39.23,0l1.376,4.938-11.1-.106h-29.5Z" transform="translate(-26.065 -53.939)" fill="#f2f2f2"/>
        <path id="Path_550" data-name="Path 550" d="M974.4,574.58c-1.7.318-5.878.966-11.322,1.74-18.123,2.561-50.238,6.44-51.374,3.782-1.475-3.451-6.638-15.875-10.327-10.354s-1.475,10.354-16.964,11.044c-10.541.469-25.86-.98-34.342-3.258-3.983-1.07-6.461-2.319-6.226-3.645.737-4.141,8.851-82.828,8.851-90.421s2.951-44.175,2.951-44.175l-21.2-39.033-1.667-3.072s2.213-7.593,8.851-8.973S879.99,369.58,879.99,369.58s6.638-9.663,19.177-8.973,15.49-4.141,32.455,8.973c0,0,20.652,8.283,28.028,12.424s15.49,4.141,16.227,11.044c.147,1.387-.656,4.059-2.036,7.434-5.052,12.369-17.82,34.256-19.819,37.666-.177.3-.273.456-.273.456s-.383,12.41.022,26.94v.034c.4,13.936,1.52,29.818,4.4,38.6C964.076,522.122,981.779,573.2,974.4,574.58Z" transform="translate(-34.11 -53.487)" fill="#041546"/>
        <path id="Path_551" data-name="Path 551" d="M933.518,321.762a15.97,15.97,0,0,0-2.917-6.1,31.6,31.6,0,0,0-5.259-14.2,15.228,15.228,0,0,0-4.711-5.089,14.667,14.667,0,0,0-7.412-1.729c-.471-.007-1.317.126-2.079.159-.487-.141-.98-.267-1.473-.386-.288-.6-.859-2.346-1.018-2.228l-2.151,1.6c-.91-.148-1.824-.263-2.741-.354l-1-2.675a17.915,17.915,0,0,0-1.421,2.5q-1.37-.063-2.741-.044l-1.829-1.643a2.505,2.505,0,0,1-2.017,1.849q-1.262.121-2.514.312c-.068,0-.137,0-.2,0-4.5-.1-9.346-.294-13.111,2.019a12.384,12.384,0,0,0-4.173,4.433c-.461.293-.923.584-1.372.9a11.742,11.742,0,0,0-5.57,7.457,34.942,34.942,0,0,0-1.967,12.689,18.179,18.179,0,0,0,4.947,11.753c1.931,1.941,4.386,3.375,6.319,5.314,3.981,3.993,4.727,9.561,8.132,13.786,3.6,4.468,10.176,7.409,15.949,8.252a28.037,28.037,0,0,0,19.846-4.632,11.859,11.859,0,0,0,3.379-3.315c2-3.243,1.154-7.32,1.9-11C927.7,334.481,934.736,328.691,933.518,321.762Z" transform="translate(-28.307 -60.451)" fill="#3f3d56"/>
        <path id="Path_552" data-name="Path 552" d="M841.658,558.833s11.064,37.273-2.95,42.795-9.589-41.414-9.589-41.414Z" transform="translate(-34.87 -33.598)" fill="#a0616a"/>
        <path id="Path_553" data-name="Path 553" d="M853.918,490.78s-4.839,67.2-4.094,83.394c-3.982-1.07-6.461-2.319-6.225-3.644.737-4.142,8.851-82.828,8.851-90.421s2.951-44.175,2.951-44.175L834.2,396.9c.339-1.933.546-3.072.546-3.072l10.7,21.052,15.12,3.8Z" transform="translate(-33.86 -50.127)" opacity="0.1"/>
        <path id="Path_554" data-name="Path 554" d="M839.983,390.065l-5.163,4.141s-6.638,36.583-5.9,45.555-15.49,144.949-2.951,144.949,26.553-2.071,24.341-6.9,3.684-86.652,3.684-86.652l6.643-72.1Z" transform="translate(-36.145 -50.504)" fill="#041546"/>
        <path id="Path_555" data-name="Path 555" d="M955.728,397.688c-5.052,12.369-17.82,34.256-19.819,37.666.059-8.828.1-15.074.1-15.074l15.489-29.68,3.319-2.416S955.167,391.834,955.728,397.688Z" transform="translate(-15.995 -50.692)" opacity="0.1"/>
        <path id="Path_556" data-name="Path 556" d="M956.417,564.993c-1.7.317-5.879.966-11.322,1.739-2.825-19.547-10.378-75.76-9.9-81.054.236-2.609.436-15.5.59-29.687.4,13.936,1.52,29.818,4.4,38.6C946.09,512.535,963.793,563.613,956.417,564.993Z" transform="translate(-16.124 -43.9)" opacity="0.1"/>
        <path id="Path_557" data-name="Path 557" d="M946.851,385.673l11.064,2.761s7.375,76.616,8.113,89.731,9.588,93.872,8.114,97.323-24.341,8.283-25.079,4.832-11.46-81.326-10.893-87.6-3.121-71.155-3.121-71.155Z" transform="translate(-16.146 -50.943)" fill="#041546"/>
        <path id="Path_558" data-name="Path 558" d="M196.5,377.857,330.525,273.34l135.2-71.511L599.75,132.519,733.776,11.5" transform="translate(34.517 1.102)" fill="none" stroke="#3f3d56" stroke-miterlimit="10" stroke-width="1"/>
        <ellipse id="Ellipse_104" data-name="Ellipse 104" cx="12.932" cy="12.102" rx="12.932" ry="12.102" transform="translate(214.558 372.357)" fill="#f2f2f2"/>
        <ellipse id="Ellipse_105" data-name="Ellipse 105" cx="12.932" cy="12.102" rx="12.932" ry="12.102" transform="translate(348.583 267.841)" fill="#f2f2f2"/>
        <ellipse id="Ellipse_106" data-name="Ellipse 106" cx="12.932" cy="12.102" rx="12.932" ry="12.102" transform="translate(483.783 196.33)" fill="#f2f2f2"/>
        <ellipse id="Ellipse_107" data-name="Ellipse 107" cx="12.932" cy="12.102" rx="12.932" ry="12.102" transform="translate(617.808 127.02)" fill="#f2f2f2"/>
        <ellipse id="Ellipse_108" data-name="Ellipse 108" cx="12.932" cy="12.102" rx="12.932" ry="12.102" transform="translate(751.833 6.001)" fill="#f2f2f2"/>
        <ellipse id="Ellipse_109" data-name="Ellipse 109" cx="12.932" cy="12.102" rx="12.932" ry="12.102" transform="translate(218.085 366.857)" fill="none" stroke="#3f3d56" stroke-miterlimit="10" stroke-width="1"/>
        <ellipse id="Ellipse_110" data-name="Ellipse 110" cx="12.932" cy="12.102" rx="12.932" ry="12.102" transform="translate(352.109 262.34)" fill="none" stroke="#3f3d56" stroke-miterlimit="10" stroke-width="1"/>
        <ellipse id="Ellipse_111" data-name="Ellipse 111" cx="12.932" cy="12.102" rx="12.932" ry="12.102" transform="translate(487.31 190.829)" fill="none" stroke="#3f3d56" stroke-miterlimit="10" stroke-width="1"/>
        <ellipse id="Ellipse_112" data-name="Ellipse 112" cx="12.932" cy="12.102" rx="12.932" ry="12.102" transform="translate(621.335 121.519)" fill="none" stroke="#3f3d56" stroke-miterlimit="10" stroke-width="1"/>
        <ellipse id="Ellipse_113" data-name="Ellipse 113" cx="12.932" cy="12.102" rx="12.932" ry="12.102" transform="translate(755.36 0.5)" fill="none" stroke="#3f3d56" stroke-miterlimit="10" stroke-width="1"/>
      </g>
    </g>
  </g>
</svg>
