<svg xmlns="http://www.w3.org/2000/svg" xmlns:xlink="http://www.w3.org/1999/xlink" width="240" height="240" viewBox="0 0 240 240">
  <defs>
    <linearGradient id="linear-gradient" x1="0.5" y1="1" x2="0.5" gradientUnits="objectBoundingBox">
      <stop offset="0" stop-color="gray" stop-opacity="0.251"/>
      <stop offset="0.54" stop-color="gray" stop-opacity="0.122"/>
      <stop offset="1" stop-color="gray" stop-opacity="0.102"/>
    </linearGradient>
    <linearGradient id="linear-gradient-2" x1="0" y1="0.5" x2="1" y2="0.5" xlink:href="#linear-gradient"/>
  </defs>
  <g id="Group_44" data-name="Group 44" transform="translate(-228 -2742)">
    <g id="Group_27" data-name="Group 27" transform="translate(588 1227)">
      <circle id="Ellipse_1" data-name="Ellipse 1" cx="120" cy="120" r="120" transform="translate(-360 1515)" fill="none"/>
    </g>
    <g id="Group_52" data-name="Group 52" transform="translate(255 2786.947)">
      <ellipse id="Ellipse_33" data-name="Ellipse 33" cx="27.996" cy="3.487" rx="27.996" ry="3.487" transform="translate(70.42 143.08)" fill="#6c63ff" opacity="0.1"/>
      <path id="Path_182" data-name="Path 182" d="M230.9,145.676c-4.356,10.122-13.207,16.89-22.375,21.353a76.637,76.637,0,0,1-39.349,7.387q-3.526-.262-7.028-.844a81.3,81.3,0,0,1-23.5-7.712q-3.231-1.644-6.347-3.575a80.935,80.935,0,0,1-9.916-7.3q-1.186-1.019-2.339-2.09c-.533-.495-1.061-1-1.6-1.492a20.236,20.236,0,0,0-3.6-2.757,12.164,12.164,0,0,0-1.2-.6c-4.113-1.762-8.857-1.1-13.139.277-3.254,1.036-6.424,2.467-9.683,3.488a29.058,29.058,0,0,1-4.414,1.056,20.988,20.988,0,0,1-9.921-.973l-.274-.1q-.689-.244-1.366-.534l-.274-.118q-.656-.284-1.284-.611l-.274-.14q-.656-.343-1.284-.726c-.151-.089-.3-.185-.448-.275a27.55,27.55,0,0,1-6.423-5.631c-.054-.061-.1-.124-.164-.185-.261-.318-.517-.641-.764-.971-.092-.122-.184-.244-.274-.369q-.441-.608-.851-1.239c-.041-.061-.08-.124-.12-.185a27.847,27.847,0,0,1-2.767-5.632c-.023-.061-.044-.124-.064-.185q-.328-.951-.6-1.933c-.074-.273-.144-.554-.207-.827-.021-.081-.041-.164-.059-.246A56.517,56.517,0,0,1,58,119.66v-1.45a158.569,158.569,0,0,1,1-20.149.94.94,0,0,1,.018-.137q.441-3.341,1.2-6.615a53.146,53.146,0,0,1,2.019-6.7,63.891,63.891,0,0,1,8.229-14.746c8.217-11.359,19-20.908,31.63-24.47,13.605-3.847,28.726-.161,39.7,9.677,3.346,3,6.352,6.55,10.11,8.849,3.28,2,7.12,2.831,10.633,1.256,2.9-1.293,4.793-1.948,8.053-1.751a61.047,61.047,0,0,1,19.741,4.652c.256.105.512.214.766.323a72.946,72.946,0,0,1,38.1,39.421q.294.72.569,1.451C234.162,120.833,235.75,134.4,230.9,145.676Z" transform="translate(-53.896 -43.84)" fill="#e83225" opacity="0.1"/>
      <path id="Path_183" data-name="Path 183" d="M90.824,215.373v70.019a29.058,29.058,0,0,1-4.414,1.056,20.988,20.988,0,0,1-9.921-.973l-.274-.1q-.689-.244-1.366-.534l-.274-.118q-.656-.284-1.284-.611l-.274-.14q-.656-.343-1.284-.726c-.151-.089-.3-.185-.448-.275a27.55,27.55,0,0,1-6.423-5.631c-.054-.061-.1-.124-.164-.185-.261-.318-.517-.641-.764-.971-.092-.122-.184-.244-.274-.369q-.441-.608-.851-1.239c-.041-.061-.08-.124-.12-.185a27.847,27.847,0,0,1-2.767-5.632c-.023-.061-.044-.124-.064-.185q-.328-.951-.6-1.933c-.074-.273-.144-.554-.207-.827-.021-.081-.041-.164-.059-.246A56.516,56.516,0,0,1,58,253.242v-1.45a158.569,158.569,0,0,1,1-20.149.94.94,0,0,1,.018-.137q.441-3.341,1.2-6.615H76.959v-9.518h3.348V207.73h7.187v7.643Z" transform="translate(-53.896 -177.421)" fill="#e83225" opacity="0.1"/>
      <path id="Path_184" data-name="Path 184" d="M514.53,252.392c-4.356,10.122-13.207,16.89-22.375,21.353a76.637,76.637,0,0,1-39.349,7.387q-3.526-.262-7.028-.844a81.3,81.3,0,0,1-23.5-7.712q-3.231-1.644-6.347-3.575a80.934,80.934,0,0,1-9.916-7.3q-1.186-1.019-2.339-2.09c-.533-.495-1.061-1-1.6-1.492a20.235,20.235,0,0,0-3.6-2.757,12.167,12.167,0,0,0-1.2-.6V226.109h30.44v6.377h13.359V185.842H456.8v18.652h7.778V193.45h6.426v-11.8h2.952V174.78c.256.105.512.214.766.323v6.55H477.6v11.8h6.424V204.5h9.469v42.073h15.05v-30.6h4.85C517.8,227.549,519.383,241.117,514.53,252.392Z" transform="translate(-337.529 -150.556)" fill="#e83225" opacity="0.1"/>
      <rect id="Rectangle_80" data-name="Rectangle 80" width="7.028" height="7.913" transform="translate(108.249 42.303)" fill="#6c63ff" opacity="0.1"/>
      <rect id="Rectangle_81" data-name="Rectangle 81" width="7.028" height="7.913" transform="translate(108.249 58.707)" fill="#6c63ff" opacity="0.1"/>
      <rect id="Rectangle_82" data-name="Rectangle 82" width="7.028" height="7.913" transform="translate(108.249 75.109)" fill="#6c63ff" opacity="0.1"/>
      <rect id="Rectangle_83" data-name="Rectangle 83" width="7.028" height="7.913" transform="translate(108.249 91.513)" fill="#6c63ff" opacity="0.1"/>
      <rect id="Rectangle_84" data-name="Rectangle 84" width="7.028" height="7.913" transform="translate(108.249 107.917)" fill="#6c63ff" opacity="0.1"/>
      <path id="Path_185" data-name="Path 185" d="M700,716.81v6.249q-3.526-.262-7.028-.844V716.81Z" transform="translate(-584.721 -592.49)" fill="#6c63ff" opacity="0.1"/>
      <rect id="Rectangle_85" data-name="Rectangle 85" width="24.601" height="3.584" transform="translate(62.068 85.779)" fill="#6c63ff" opacity="0.1"/>
      <rect id="Rectangle_86" data-name="Rectangle 86" width="24.601" height="3.584" transform="translate(62.068 96.664)" fill="#6c63ff" opacity="0.1"/>
      <path id="Path_186" data-name="Path 186" d="M448.676,626v3.583H430.5q-1.186-1.019-2.339-2.09c-.533-.495-1.061-1-1.6-1.492Z" transform="translate(-362.007 -518.45)" fill="#6c63ff" opacity="0.1"/>
      <path id="Path_187" data-name="Path 187" d="M519.266,685v3.584h-1.919Q514.116,686.932,511,685Z" transform="translate(-432.597 -566.555)" fill="#6c63ff" opacity="0.1"/>
      <rect id="Rectangle_87" data-name="Rectangle 87" width="4.574" height="5.15" transform="translate(127.015 63.73)" fill="#6c63ff" opacity="0.1"/>
      <rect id="Rectangle_88" data-name="Rectangle 88" width="4.574" height="5.15" transform="translate(27.95 39.727)" fill="#6c63ff" opacity="0.1"/>
      <rect id="Rectangle_89" data-name="Rectangle 89" width="4.574" height="5.15" transform="translate(27.95 51.693)" fill="#6c63ff" opacity="0.1"/>
      <rect id="Rectangle_90" data-name="Rectangle 90" width="4.574" height="5.15" transform="translate(27.95 63.66)" fill="#6c63ff" opacity="0.1"/>
      <rect id="Rectangle_91" data-name="Rectangle 91" width="4.574" height="5.15" transform="translate(27.95 75.624)" fill="#6c63ff" opacity="0.1"/>
      <rect id="Rectangle_92" data-name="Rectangle 92" width="4.574" height="5.15" transform="translate(27.95 87.591)" fill="#6c63ff" opacity="0.1"/>
      <rect id="Rectangle_93" data-name="Rectangle 93" width="4.574" height="5.15" transform="translate(27.95 99.557)" fill="#6c63ff" opacity="0.1"/>
      <rect id="Rectangle_94" data-name="Rectangle 94" width="4.574" height="5.15" transform="translate(144.483 63.73)" fill="#6c63ff" opacity="0.1"/>
      <rect id="Rectangle_95" data-name="Rectangle 95" width="4.574" height="5.15" transform="translate(127.015 76.437)" fill="#6c63ff" opacity="0.1"/>
      <rect id="Rectangle_96" data-name="Rectangle 96" width="4.574" height="5.15" transform="translate(144.483 76.437)" fill="#6c63ff" opacity="0.1"/>
      <rect id="Rectangle_97" data-name="Rectangle 97" width="4.574" height="5.15" transform="translate(127.015 89.142)" fill="#6c63ff" opacity="0.1"/>
      <rect id="Rectangle_98" data-name="Rectangle 98" width="4.574" height="5.15" transform="translate(144.483 89.142)" fill="#6c63ff" opacity="0.1"/>
      <rect id="Rectangle_99" data-name="Rectangle 99" width="4.574" height="5.15" transform="translate(127.015 101.849)" fill="#6c63ff" opacity="0.1"/>
      <rect id="Rectangle_100" data-name="Rectangle 100" width="4.574" height="5.15" transform="translate(144.483 101.849)" fill="#6c63ff" opacity="0.1"/>
      <rect id="Rectangle_101" data-name="Rectangle 101" width="4.574" height="5.15" transform="translate(127.015 114.556)" fill="#6c63ff" opacity="0.1"/>
      <rect id="Rectangle_102" data-name="Rectangle 102" width="4.574" height="5.15" transform="translate(144.483 114.556)" fill="#6c63ff" opacity="0.1"/>
      <path id="Path_188" data-name="Path 188" d="M774.41,692.222V688.9h4.574v2.849Z" transform="translate(-647.395 -561.639)" fill="#6c63ff" opacity="0.1"/>
      <path id="Path_189" data-name="Path 189" d="M64.06,336.48v2.955h17.5V336.48Zm1.558,2.77H64.334v-2.585h1.284Zm1.558,0H65.892v-2.585h1.284Zm1.558,0H67.45v-2.585h1.284Zm1.558,0H69.008v-2.585h1.284Zm1.558,0H70.566v-2.585h1.284Zm1.558,0H72.125v-2.585h1.284Zm1.558,0H73.683v-2.585h1.284Zm1.558,0H75.241v-2.585h1.284Zm1.558,0H76.8v-2.585h1.284Zm1.558,0H78.357v-2.585h1.284Zm1.64,0H79.915v-2.585h1.366Z" transform="translate(-58.962 -282.395)" fill="#6c63ff" opacity="0.1"/>
      <path id="Path_190" data-name="Path 190" d="M64.06,382.94v2.945h17.5V382.94Zm1.558,2.761H64.334v-2.576h1.284Zm1.558,0H65.892v-2.576h1.284Zm1.558,0H67.45v-2.576h1.284Zm1.558,0H69.008v-2.576h1.284Zm1.558,0H70.566v-2.576h1.284Zm1.558,0H72.125v-2.576h1.284Zm1.558,0H73.683v-2.576h1.284Zm1.558,0H75.241v-2.576h1.284Zm1.558,0H76.8v-2.576h1.284Zm1.558,0H78.357v-2.576h1.284Zm1.64,0H79.915v-2.576h1.366Z" transform="translate(-58.962 -320.276)" fill="#6c63ff" opacity="0.1"/>
      <path id="Path_191" data-name="Path 191" d="M64.06,429.39v2.945h17.5V429.39Zm1.558,2.761H64.334v-2.576h1.284Zm1.558,0H65.892v-2.576h1.284Zm1.558,0H67.45v-2.576h1.284Zm1.558,0H69.008v-2.576h1.284Zm1.558,0H70.566v-2.576h1.284Zm1.558,0H72.125v-2.576h1.284Zm1.558,0H73.683v-2.576h1.284Zm1.558,0H75.241v-2.576h1.284Zm1.558,0H76.8v-2.576h1.284Zm1.558,0H78.357v-2.576h1.284Zm1.64,0H79.915v-2.576h1.366Z" transform="translate(-58.962 -358.148)" fill="#6c63ff" opacity="0.1"/>
      <path id="Path_192" data-name="Path 192" d="M64.06,475.84v2.955h17.5V475.84Zm1.558,2.77H64.334v-2.585h1.284Zm1.558,0H65.892v-2.585h1.284Zm1.558,0H67.45v-2.585h1.284Zm1.558,0H69.008v-2.585h1.284Zm1.558,0H70.566v-2.585h1.284Zm1.558,0H72.125v-2.585h1.284Zm1.558,0H73.683v-2.585h1.284Zm1.558,0H75.241v-2.585h1.284Zm1.558,0H76.8v-2.585h1.284Zm1.558,0H78.357v-2.585h1.284Zm1.64,0H79.915v-2.585h1.366Z" transform="translate(-58.962 -396.02)" fill="#6c63ff" opacity="0.1"/>
      <path id="Path_193" data-name="Path 193" d="M64.47,522.29c.062.277.133.554.207.827v-.643h1.284v2.585h-.686c.02.061.041.124.064.185H81.9V522.29Zm3.049,2.77H66.235v-2.585h1.284Zm1.558,0H67.793v-2.585h1.284Zm1.558,0H69.351v-2.585h1.284Zm1.558,0H70.909v-2.585h1.284Zm1.558,0H72.467v-2.585h1.284Zm1.558,0H74.026v-2.585H75.31Zm1.558,0H75.584v-2.585h1.284Zm1.558,0H77.142v-2.585h1.284Zm1.558,0H78.7v-2.585h1.284Zm1.64,0H80.258v-2.585h1.366Z" transform="translate(-59.305 -433.892)" fill="#6c63ff" opacity="0.1"/>
      <path id="Path_194" data-name="Path 194" d="M86.64,568.74c.039.061.079.124.12.185h.851v1.239c.09.124.182.246.274.369v-1.607h1.284v2.585h-.52a2.369,2.369,0,0,0,.164.185H100.44v-2.955Zm4.087,2.77H89.443v-2.585h1.284Zm1.558,0H91v-2.585h1.284Zm1.558,0H92.559v-2.585h1.284Zm1.558,0H94.117v-2.585H95.4Zm1.558,0H95.676v-2.585H96.96Zm1.558,0H97.234v-2.585h1.284Zm1.64,0H98.792v-2.585h1.366Z" transform="translate(-77.839 -471.764)" fill="#6c63ff" opacity="0.1"/>
      <path id="Path_195" data-name="Path 195" d="M139,615.19c.148.094.3.185.448.275v-.09h1.284v.816l.274.14v-.957h1.284v1.568l.274.118v-1.686h1.366v2.216l.274.1v-2.5Z" transform="translate(-121.611 -509.637)" fill="#6c63ff" opacity="0.1"/>
      <path id="Path_196" data-name="Path 196" d="M450.169,197.975s-3.908-.264-3.444,2.82a.783.783,0,0,0,.346.792s.008-.229.4-.151a1.551,1.551,0,0,0,.425.024.829.829,0,0,0,.518-.242h0a3.457,3.457,0,0,0,1.527-2.534s.317-.441.3-.554l-.656.318a1.485,1.485,0,0,1,.048.981s-.021-.962-.148-.938c-.026,0-.343.185-.343.185a2.452,2.452,0,0,1,.1,1.612s.112-1.15-.217-1.544l-.464.3a2.567,2.567,0,0,1,.146,1.751,3.657,3.657,0,0,0-.244-1.677l-.42.369a2.506,2.506,0,0,1,.164,1.6s-.034-1.4-.258-1.511a2.851,2.851,0,0,0-.425.515s.292.691.112,1.054c0,0-.112-.936-.2-.94a3.3,3.3,0,0,0-.405,1.045,2.462,2.462,0,0,1,.317-1.108,1.069,1.069,0,0,0-.563.327s.057-.438.656-.476a2.808,2.808,0,0,1,.384-.5,2.16,2.16,0,0,0-.951.124.993.993,0,0,1,1.06-.227l.417-.38a3.161,3.161,0,0,0-1.119.009,1.217,1.217,0,0,1,1.222-.1l.453-.3a3.689,3.689,0,0,0-1.061-.1,1.46,1.46,0,0,1,1.192.022l.328-.164s-.492-.107-.63-.124-.151-.063-.151-.063a1.518,1.518,0,0,1,.915.115A4.254,4.254,0,0,0,450.169,197.975Z" transform="translate(-378.832 -169.463)" fill="#6c63ff" opacity="0.1"/>
      <path id="Path_197" data-name="Path 197" d="M403.693,279.075s-1.335,4.146,1.422,4.524a.617.617,0,0,0,.774-.15s-.194-.074-.015-.476a2.252,2.252,0,0,0,.139-.452,1.107,1.107,0,0,0-.057-.628h0a3.5,3.5,0,0,0-1.725-2.367s-.285-.467-.385-.486l.084.8a1.075,1.075,0,0,1,.848.227s-.82-.249-.841-.107c0,.03.061.423.061.423a1.772,1.772,0,0,1,1.4.356s-.948-.447-1.378-.2l.128.587a1.856,1.856,0,0,1,1.534.34s-1.005-.428-1.5-.212l.2.554a1.832,1.832,0,0,1,1.412.277s-1.206-.369-1.36-.151a3.006,3.006,0,0,0,.318.6s.671-.118.93.185c0,0-.828-.146-.858-.048a2.944,2.944,0,0,0,.774.739,2.016,2.016,0,0,1-.851-.654,1.388,1.388,0,0,0,.12.7s-.358-.185-.22-.838a3.039,3.039,0,0,1-.317-.554,3.01,3.01,0,0,0-.164,1.06,1.327,1.327,0,0,1,.108-1.208l-.208-.554a4.054,4.054,0,0,0-.3,1.2,1.679,1.679,0,0,1,.262-1.346l-.131-.574a4.924,4.924,0,0,0-.389,1.108,2.011,2.011,0,0,1,.358-1.282l-.048-.4s-.231.495-.285.645-.1.146-.1.146a2.022,2.022,0,0,1,.358-.955A5.124,5.124,0,0,0,403.693,279.075Z" transform="translate(-342.62 -235.563)" fill="#6c63ff" opacity="0.1"/>
      <path id="Path_198" data-name="Path 198" d="M561.73,260.157s-1.337,4.144,1.422,4.523a.611.611,0,0,0,.773-.15s-.192-.072-.015-.476a2.285,2.285,0,0,0,.141-.451,1.115,1.115,0,0,0-.059-.63h0a3.5,3.5,0,0,0-1.724-2.367s-.285-.465-.385-.486l.082.8a1.1,1.1,0,0,1,.851.227s-.82-.251-.841-.107c0,.03.061.423.061.423a1.772,1.772,0,0,1,1.4.355s-.948-.447-1.376-.2l.128.587a1.86,1.86,0,0,1,1.532.34s-1.005-.427-1.5-.212l.2.554a1.836,1.836,0,0,1,1.412.275s-1.207-.369-1.36-.151a3.008,3.008,0,0,0,.318.606s.671-.12.928.185c0,0-.828-.146-.858-.05a2.96,2.96,0,0,0,.776.739,2.018,2.018,0,0,1-.851-.656,1.376,1.376,0,0,0,.12.7s-.358-.185-.221-.84a2.891,2.891,0,0,1-.315-.554,2.975,2.975,0,0,0-.164,1.062,1.333,1.333,0,0,1,.108-1.208l-.207-.554a4.092,4.092,0,0,0-.305,1.2,1.683,1.683,0,0,1,.262-1.348l-.13-.574a4.958,4.958,0,0,0-.389,1.108,2,2,0,0,1,.356-1.282l-.048-.4s-.23.495-.285.644-.094.144-.094.144a2.031,2.031,0,0,1,.356-.955A5.244,5.244,0,0,0,561.73,260.157Z" transform="translate(-474.736 -220.137)" fill="#6c63ff" opacity="0.1"/>
      <path id="Path_199" data-name="Path 199" d="M335.823,443.637s-1.335,4.146,1.422,4.523a.614.614,0,0,0,.774-.15s-.194-.072-.015-.475a2.182,2.182,0,0,0,.139-.452,1.113,1.113,0,0,0-.057-.63h0a3.5,3.5,0,0,0-1.724-2.367s-.287-.465-.387-.486l.084.8a1.079,1.079,0,0,1,.85.227s-.82-.251-.843-.107c0,.03.061.423.061.423a1.776,1.776,0,0,1,1.4.355s-.948-.447-1.378-.2l.13.587a1.86,1.86,0,0,1,1.532.34s-1.005-.427-1.5-.212l.2.554a1.836,1.836,0,0,1,1.412.275s-1.206-.369-1.36-.151a2.949,2.949,0,0,0,.32.606s.669-.12.928.185c0,0-.828-.146-.858-.05a2.944,2.944,0,0,0,.774.739,2.018,2.018,0,0,1-.85-.656,1.386,1.386,0,0,0,.118.7s-.356-.185-.22-.84a2.977,2.977,0,0,1-.317-.554,3.024,3.024,0,0,0-.164,1.062,1.333,1.333,0,0,1,.108-1.208l-.207-.554a4.094,4.094,0,0,0-.305,1.2,1.679,1.679,0,0,1,.262-1.346l-.131-.576a4.96,4.96,0,0,0-.389,1.108,2.011,2.011,0,0,1,.358-1.282l-.048-.4s-.231.495-.285.645-.1.144-.1.144a2.043,2.043,0,0,1,.358-.955A5.056,5.056,0,0,0,335.823,443.637Z" transform="translate(-285.882 -369.734)" fill="#6c63ff" opacity="0.1"/>
      <path id="Path_200" data-name="Path 200" d="M303.5,232.045s-1.337,4.146,1.42,4.524a.617.617,0,0,0,.774-.15s-.192-.074-.015-.476a2.149,2.149,0,0,0,.139-.452,1.115,1.115,0,0,0-.057-.63h0a3.5,3.5,0,0,0-1.724-2.366s-.285-.467-.387-.486l.084.8a1.079,1.079,0,0,1,.85.227s-.82-.249-.841-.107c0,.03.061.423.061.423a1.773,1.773,0,0,1,1.4.355s-.948-.445-1.376-.2l.128.589a1.853,1.853,0,0,1,1.532.34s-1.005-.428-1.5-.214l.2.554a1.832,1.832,0,0,1,1.411.275s-1.206-.369-1.36-.15a2.944,2.944,0,0,0,.32.6s.669-.118.928.185c0,0-.828-.146-.858-.048a2.973,2.973,0,0,0,.774.739,2.006,2.006,0,0,1-.85-.654,1.369,1.369,0,0,0,.12.7s-.358-.185-.221-.838a3.039,3.039,0,0,1-.317-.554,3.025,3.025,0,0,0-.164,1.062,1.333,1.333,0,0,1,.108-1.208l-.207-.554a4.1,4.1,0,0,0-.305,1.2,1.679,1.679,0,0,1,.262-1.346l-.131-.574a5.009,5.009,0,0,0-.389,1.108,2.009,2.009,0,0,1,.358-1.282l-.048-.4s-.23.495-.285.645-.1.144-.1.144a2.044,2.044,0,0,1,.358-.955A5.288,5.288,0,0,0,303.5,232.045Z" transform="translate(-258.859 -197.218)" fill="#6c63ff" opacity="0.1"/>
      <path id="Path_201" data-name="Path 201" d="M365.58,353.8s1.032,4.247,3.477,2.77a.715.715,0,0,0,.556-.624s-.2.066-.256-.379a2.4,2.4,0,0,0-.116-.462.981.981,0,0,0-.371-.476h0a2.913,2.913,0,0,0-2.624-.814s-.472-.2-.563-.146l.477.6a1.143,1.143,0,0,1,.81-.369s-.8.331-.741.458c.012.028.266.307.266.307a1.853,1.853,0,0,1,1.325-.619s-1,.251-1.23.726l.407.4a1.972,1.972,0,0,1,1.425-.718s-1.04.3-1.332.8l.446.331s.656-.759,1.294-.693c0,0-1.171.488-1.187.759a2.4,2.4,0,0,0,.569.288s.492-.532.851-.456c0,0-.751.417-.727.517a2.608,2.608,0,0,0,1.009.1,1.777,1.777,0,0,1-1.03.017,1.186,1.186,0,0,0,.456.495s-.387.079-.61-.543a2.4,2.4,0,0,1-.543-.249,2.885,2.885,0,0,0,.408.973s-.449-.2-.53-1.056l-.454-.321a4.2,4.2,0,0,0,.367,1.18s-.43-.288-.476-1.271l-.4-.384a5.055,5.055,0,0,0,.254,1.163,1.983,1.983,0,0,1-.366-1.28l-.241-.292s.066.554.1.711,0,.185,0,.185a2.091,2.091,0,0,1-.2-1.012A4.448,4.448,0,0,0,365.58,353.8Z" transform="translate(-311.028 -296.4)" fill="#6c63ff" opacity="0.1"/>
      <path id="Path_202" data-name="Path 202" d="M536.21,374.385s1.032,4.247,3.479,2.77a.714.714,0,0,0,.554-.624s-.194.066-.256-.379a2.182,2.182,0,0,0-.116-.462.977.977,0,0,0-.369-.476h0a2.913,2.913,0,0,0-2.624-.814s-.472-.2-.564-.146l.479.6a1.143,1.143,0,0,1,.81-.369s-.8.331-.743.46c.011.026.266.3.266.3a1.853,1.853,0,0,1,1.325-.619s-1,.251-1.228.726l.405.4a1.976,1.976,0,0,1,1.425-.718s-1.04.3-1.332.8l.446.331s.656-.759,1.3-.693c0,0-1.171.488-1.189.761a2.425,2.425,0,0,0,.571.286s.492-.532.85-.456c0,0-.751.419-.725.517a2.608,2.608,0,0,0,1.009.1,1.776,1.776,0,0,1-1.03.017,1.174,1.174,0,0,0,.456.495s-.387.079-.612-.543a2.4,2.4,0,0,1-.543-.249,2.922,2.922,0,0,0,.41.975s-.449-.2-.53-1.058l-.454-.321a4.181,4.181,0,0,0,.366,1.18s-.43-.288-.476-1.271l-.4-.384a5.116,5.116,0,0,0,.253,1.163,1.978,1.978,0,0,1-.364-1.28l-.241-.292s.066.554.1.711,0,.185,0,.185a2.09,2.09,0,0,1-.2-1.012S536.248,374.346,536.21,374.385Z" transform="translate(-453.673 -313.187)" fill="#6c63ff" opacity="0.1"/>
      <path id="Path_203" data-name="Path 203" d="M922.97,655.177l1.652,1.963,2.619-5.2L927,651.36Z" transform="translate(-771.589 -531.031)" fill="#6c63ff"/>
      <path id="Path_204" data-name="Path 204" d="M922.97,655.177l1.652,1.963,2.619-5.2L927,651.36Z" transform="translate(-771.589 -531.031)" opacity="0.2"/>
      <path id="Path_205" data-name="Path 205" d="M138.954,585.469c0,9.861-6,11.954-12.009,11.954s-9.395-8.31-9.395-18.175,4.873-17.857,10.884-17.857S138.954,575.608,138.954,585.469Z" transform="translate(-103.679 -465.772)" fill="#636780"/>
      <path id="Path_206" data-name="Path 206" d="M138.954,585.469c0,9.861-6,11.954-12.009,11.954s-9.395-8.31-9.395-18.175,4.873-17.857,10.884-17.857S138.954,575.608,138.954,585.469Z" transform="translate(-103.679 -465.772)" opacity="0.2"/>
      <path id="Path_207" data-name="Path 207" d="M133.331,580.976c0,9.861-3.861,17.857-8.624,17.857s-8.813-8-8.813-17.857a37.864,37.864,0,0,1-.048-3.963c.871-7.954,4.756-13.893,8.857-13.893C129.47,563.12,133.331,571.114,133.331,580.976Z" transform="translate(-102.212 -467.182)" fill="#636780"/>
      <path id="Path_208" data-name="Path 208" d="M166.7,415.446s-7.559,9.544-9.961,17.5l65.278,8.114,34.968-8.114s-13.849-18.685-17.592-19.407S166.7,415.446,166.7,415.446Z" transform="translate(-136.441 -345.12)" fill="#6c63ff"/>
      <path id="Path_209" data-name="Path 209" d="M166.7,415.446s-7.559,9.544-9.961,17.5l65.278,8.114,34.968-8.114s-13.849-18.685-17.592-19.407S166.7,415.446,166.7,415.446Z" transform="translate(-136.441 -345.12)" fill="#041546" opacity="0.998"/>
      <path id="Path_210" data-name="Path 210" d="M476.53,504.926l10.477,33.1v-8.377l2.916-9.377L498,516.24l10.244,5.233,3.664,1.289.32-7.634-12.18-6.761-5.67-3.064L481.4,504.03l-3.58-.72Z" transform="translate(-398.372 -410.321)" fill="#041546"/>
      <path id="Path_211" data-name="Path 211" d="M527.492,552.852l9.533,1.232c-.433-4.286,2.393-4.286,2.393-4.286l-9.536-1.858H525.43" transform="translate(-444.661 -454.805)" fill="#041546"/>
      <path id="Path_212" data-name="Path 212" d="M567.128,644.017h6.757l19.569-.739s.423,4.2,5.576,3.213c0,0,2.837.2,3.143-1.531s-6.462-17.778-6.462-17.778l-9.226-7.756-8.365-2.286-6,1.989-3.815,6.833-2.4,9.353Z" transform="translate(-478.493 -511.226)" fill="#636780"/>
      <path id="Path_213" data-name="Path 213" d="M567.128,644.017h6.757l19.569-.739s.423,4.2,5.576,3.213c0,0,2.837.2,3.143-1.531s-6.462-17.778-6.462-17.778l-9.226-7.756-8.365-2.286-6,1.989-3.815,6.833-2.4,9.353Z" transform="translate(-478.493 -511.226)" opacity="0.2"/>
      <path id="Path_214" data-name="Path 214" d="M191.395,434.337c-.968.89-4.025,4.083-6.572,10.834a1.816,1.816,0,0,0,.074,1.453,1.456,1.456,0,0,0,1.074.809l15.349,2.24a2.349,2.349,0,0,0,2.552-1.969l2.7-12.393a1.359,1.359,0,0,0-.209-1.069,1.055,1.055,0,0,0-.88-.464l-13.412.281A1.017,1.017,0,0,0,191.395,434.337Z" transform="translate(-159.82 -361.726)" fill="#6c63ff"/>
      <path id="Path_215" data-name="Path 215" d="M191.395,434.337c-.968.89-4.025,4.083-6.572,10.834a1.816,1.816,0,0,0,.074,1.453,1.456,1.456,0,0,0,1.074.809l15.349,2.24a2.349,2.349,0,0,0,2.552-1.969l2.7-12.393a1.359,1.359,0,0,0-.209-1.069,1.055,1.055,0,0,0-.88-.464l-13.412.281A1.017,1.017,0,0,0,191.395,434.337Z" transform="translate(-159.82 -361.726)" fill="#ffb9b9"/>
      <path id="Path_216" data-name="Path 216" d="M336.374,432.814l17.284-.185a3,3,0,0,1,2.78,2.353l5.39,13.782c.477,1.614-.554,3.294-1.968,3.2L334.631,450.1c-2.093-.137-3.574-2.539-3.09-5.016l1.829-9.357A3.313,3.313,0,0,1,336.374,432.814Z" transform="translate(-282.495 -360.789)" fill="#6c63ff"/>
      <path id="Path_217" data-name="Path 217" d="M336.374,432.814l17.284-.185a3,3,0,0,1,2.78,2.353l5.39,13.782c.477,1.614-.554,3.294-1.968,3.2L334.631,450.1c-2.093-.137-3.574-2.539-3.09-5.016l1.829-9.357A3.313,3.313,0,0,1,336.374,432.814Z" transform="translate(-282.495 -360.789)" fill="#ffb9b9"/>
      <path id="Path_218" data-name="Path 218" d="M519.322,423.094c4.725-.1,17.248-.5,23.477-2.114,0,0,10.691,9.067,13.894,15.907,0,0-16.664,4.567-28.173,5.185a4.322,4.322,0,0,1-4.128-2.77l-6.119-14.279a1.489,1.489,0,0,1,.054-1.289A1.171,1.171,0,0,1,519.322,423.094Z" transform="translate(-438.576 -351.291)" fill="#6c63ff"/>
      <path id="Path_219" data-name="Path 219" d="M519.322,423.094c4.725-.1,17.248-.5,23.477-2.114,0,0,10.691,9.067,13.894,15.907,0,0-16.664,4.567-28.173,5.185a4.322,4.322,0,0,1-4.128-2.77l-6.119-14.279a1.489,1.489,0,0,1,.054-1.289A1.171,1.171,0,0,1,519.322,423.094Z" transform="translate(-438.576 -351.291)" fill="#ffb9b9"/>
      <path id="Path_220" data-name="Path 220" d="M557.569,441.29c1.968-.039,5.808-.153,9.557-.469a17.014,17.014,0,0,1,14.8,6.739l.121.155a2.887,2.887,0,0,1,.451,2.558,2.455,2.455,0,0,1-1.727,1.738,103.826,103.826,0,0,1-16.621,2.82,3.087,3.087,0,0,1-2.964-1.98l-4.366-10.188a1.062,1.062,0,0,1,.042-.917A.836.836,0,0,1,557.569,441.29Z" transform="translate(-470.831 -367.42)" fill="#fff" opacity="0.1"/>
      <path id="Path_221" data-name="Path 221" d="M196.52,554.85v5.089l-49.969-8.589a5.691,5.691,0,0,0-3.91-.369c-1.8-.992-3.116-4.86-3.154-4.986h0l.943-3.075-7.66-14.264-10.19.476c1.6-14.424,6.216-15.113,6.216-15.113l59.866,6.257Z" transform="translate(-107.884 -427.149)" fill="#e83225"/>
      <path id="Path_222" data-name="Path 222" d="M482.77,552.738a2.8,2.8,0,0,1-2.431.883c-2.026-.055-2.409-2-2.46-3.163a6.119,6.119,0,0,1,.021-.853l2.654-.914.543.571,1.6,1.69A1.392,1.392,0,0,1,482.77,552.738Z" transform="translate(-404.903 -455.417)" opacity="0.1"/>
      <path id="Path_223" data-name="Path 223" d="M482.77,551.878a2.8,2.8,0,0,1-2.431.883c-2.026-.055-2.409-2-2.46-3.163a6.119,6.119,0,0,1,.021-.853l2.654-.914.543.571,1.6,1.69A1.392,1.392,0,0,1,482.77,551.878Z" transform="translate(-404.903 -454.716)" fill="#dce0ed"/>
      <path id="Path_224" data-name="Path 224" d="M481.107,548.4a2.089,2.089,0,0,1-1.343,1.237l-1.875-.041a6.124,6.124,0,0,1,.021-.853l2.654-.914Z" transform="translate(-404.912 -454.716)" opacity="0.1"/>
      <path id="Path_225" data-name="Path 225" d="M439.482,510.469a3.757,3.757,0,0,0-3.108,4.953c.856,3.269,2.767,3.488,3.643,3.405a12.91,12.91,0,0,1,1.534-.063l3.351.076a2.041,2.041,0,0,0,1.363-2.644C445.734,514.048,443.3,510.111,439.482,510.469Z" transform="translate(-370.051 -424.235)" fill="#f0f0f4"/>
      <ellipse id="Ellipse_34" data-name="Ellipse 34" cx="1.955" cy="2.864" rx="1.955" ry="2.864" transform="translate(44.529 93.55)" opacity="0.2"/>
      <path id="Path_353" data-name="Path 353" d="M.552-.044l5.6.074a.948.948,0,0,1,.874.98v0a.893.893,0,0,1-.851.957l-5.6-.074A.948.948,0,0,1-.3.915v0A.893.893,0,0,1,.552-.044Z" transform="translate(43.731 95.213) rotate(6.09)" opacity="0.1"/>
      <path id="Path_354" data-name="Path 354" d="M.552-.044l5.6.074a.948.948,0,0,1,.874.98v0a.893.893,0,0,1-.851.957l-5.6-.074A.948.948,0,0,1-.3.915v0A.893.893,0,0,1,.552-.044Z" transform="translate(43.731 95.053) rotate(6.09)" fill="#f0f0f4"/>
      <path id="Path_226" data-name="Path 226" d="M111.918,591.111s-3.508-3.9.753-13.281c0,0,5.463-9.307,13.941.875a35.735,35.735,0,0,1,6.287,15.907l-3.32.079s-3.18-17.34-12.5-16.465C117.075,578.225,110.293,579.577,111.918,591.111Z" transform="translate(-97.836 -476.005)" opacity="0.1"/>
      <path id="Path_227" data-name="Path 227" d="M111.075,593.687s-3.51-3.9.753-13.283c0,0,5.463-9.305,13.941.875a35.76,35.76,0,0,1,6.288,15.907l-3.321.079s-3.184-17.337-12.508-16.463C116.228,580.8,109.446,582.154,111.075,593.687Z" transform="translate(-97.13 -478.104)" opacity="0.1"/>
      <path id="Path_228" data-name="Path 228" d="M111.075,591.967s-3.51-3.9.753-13.283c0,0,5.463-9.305,13.941.875a35.748,35.748,0,0,1,6.288,15.907l-3.321.079s-3.184-17.339-12.508-16.465C116.228,579.081,109.446,580.434,111.075,591.967Z" transform="translate(-97.13 -476.702)" fill="#6c63ff"/>
      <path id="Path_229" data-name="Path 229" d="M111.075,591.967s-3.51-3.9.753-13.283c0,0,5.463-9.305,13.941.875a35.748,35.748,0,0,1,6.288,15.907l-3.321.079s-3.184-17.339-12.508-16.465C116.228,579.081,109.446,580.434,111.075,591.967Z" transform="translate(-97.13 -476.702)" fill="#041546"/>
      <path id="Path_230" data-name="Path 230" d="M282.693,695.674v5.089l-49.969-8.589a5.691,5.691,0,0,0-3.91-.369c-1.8-.992-3.116-4.86-3.154-4.986h0l3.321-.079,9.608,1.511L273.51,693.9s6.193.8,6.546,1.108A11.32,11.32,0,0,0,282.693,695.674Z" transform="translate(-194.058 -567.973)" fill="none"/>
      <path id="Path_231" data-name="Path 231" d="M282.693,694.806V699.9L232.724,691.3a5.7,5.7,0,0,0-3.91-.369c-1.8-.992-3.116-4.86-3.154-4.986h0l3.321-.079,9.608,1.511,34.921,5.647s6.193.8,6.546,1.108A11.339,11.339,0,0,0,282.693,694.806Z" transform="translate(-194.058 -567.264)" opacity="0.1"/>
      <path id="Path_232" data-name="Path 232" d="M282.693,695.674v5.089l-49.969-8.589a5.691,5.691,0,0,0-3.91-.369c-1.8-.992-3.116-4.86-3.154-4.986h0l3.321-.079,9.608,1.511L273.51,693.9s6.193.8,6.546,1.108A11.32,11.32,0,0,0,282.693,695.674Z" transform="translate(-194.058 -567.973)" fill="#6c63ff"/>
      <path id="Path_233" data-name="Path 233" d="M282.693,695.674v5.089l-49.969-8.589a5.691,5.691,0,0,0-3.91-.369c-1.8-.992-3.116-4.86-3.154-4.986h0l3.321-.079,9.608,1.511L273.51,693.9s6.193.8,6.546,1.108A11.32,11.32,0,0,0,282.693,695.674Z" transform="translate(-194.058 -567.973)" fill="#041546"/>
      <path id="Path_234" data-name="Path 234" d="M769.377,633.75s-16.672,9.546-37.232,8.591c0,0-4.622.257-4.943-.22s1.192,2.005,1.192,2.005.571-.672,1.137-.672,3.152.216,3.152.216,29.556-1.409,37.115-8.966Z" transform="translate(-613.301 -524.769)" fill="none"/>
      <path id="Path_235" data-name="Path 235" d="M290.479,558.147c-3.1-11.224-2.939-19.052-2.254-23.638a20.1,20.1,0,0,1,2.265-7.359l.113.094a20.038,20.038,0,0,0-2.24,7.305c-.682,4.576-.846,12.364,2.252,23.558Z" transform="translate(-246.018 -437.855)" opacity="0.2"/>
      <path id="Path_236" data-name="Path 236" d="M623.9,543.7c.125.523.415,1.967-.046,2.356a2.07,2.07,0,0,0-.446.944,16.329,16.329,0,0,0-.4,2.238L618.2,555.28l-8.124,3.581-19.428,1.511L578.919,538.9,552.57,521.449l7.194-.449c7.2-.451,27.62-5.54,27.62-5.54l23.1,5.747a15.492,15.492,0,0,1,9.267,6.872,37.719,37.719,0,0,1,4.1,9.233,3.793,3.793,0,0,1,.5,2.079,18.329,18.329,0,0,1-.405,3.68c-.057.279-.1.445-.1.445S623.869,543.579,623.9,543.7Z" transform="translate(-467.349 -428.323)" fill="#e83225"/>
      <path id="Path_237" data-name="Path 237" d="M556.981,628.679s-1.412-17.013,9.185-21.63c0,0,14.906-7.084,23.666,12.166l4.45,10.979a5.08,5.08,0,0,0,4.733,2.624s16.318-.554,24.93-6.761l2.685-3.509s-1.342,4.931-2.685,6.044c0,0-5.3,7-24.584,8.273a9.655,9.655,0,0,1-10.266-7.477s-3.226-19.089-19.616-18.93c0,0-9.629.212-9.866,18.877Z" transform="translate(-470.985 -501.96)" opacity="0.1"/>
      <path id="Path_238" data-name="Path 238" d="M556.981,630.4s-1.412-17.012,9.185-21.63c0,0,14.906-7.082,23.666,12.166l4.45,10.977a5.08,5.08,0,0,0,4.733,2.624s16.318-.554,24.93-6.761l2.693-3.5s-1.342,4.931-2.685,6.044c0,0-5.3,7-24.584,8.273a9.653,9.653,0,0,1-10.266-7.477s-3.226-19.089-19.616-18.93c0,0-9.629.214-9.866,18.879Z" transform="translate(-470.985 -503.365)" fill="#6c63ff"/>
      <path id="Path_239" data-name="Path 239" d="M556.981,630.4s-1.412-17.012,9.185-21.63c0,0,14.906-7.082,23.666,12.166l4.45,10.977a5.08,5.08,0,0,0,4.733,2.624s16.318-.554,24.93-6.761l2.693-3.5s-1.342,4.931-2.685,6.044c0,0-5.3,7-24.584,8.273a9.653,9.653,0,0,1-10.266-7.477s-3.226-19.089-19.616-18.93c0,0-9.629.214-9.866,18.879Z" transform="translate(-470.985 -503.365)" fill="#041546"/>
      <path id="Path_240" data-name="Path 240" d="M526.062,580.9l-.638-23.669a27.4,27.4,0,0,0-.164-4.8,20.9,20.9,0,0,0-1.2-3.928,2.6,2.6,0,0,0-.82-.936l-.376-.115.42-.035c.29.063.566.4.82.877a9.983,9.983,0,0,1,1.294,4.111,27.389,27.389,0,0,1,.164,4.818l.638,23.663Z" transform="translate(-442.512 -454.381)" opacity="0.2"/>
      <path id="Path_241" data-name="Path 241" d="M600.18,571.4l-.138.026a10.542,10.542,0,0,0-1.261-3.542c-2.029-3.271-2.691-5.488-2.767-6.969a4.267,4.267,0,0,1,.164-1.518,3.354,3.354,0,0,1,2.316-2.1h0l.246.046a3.719,3.719,0,0,0-2.436,2.111,4.168,4.168,0,0,0-.164,1.5c.082,1.45.746,3.625,2.742,6.847A10.554,10.554,0,0,1,600.18,571.4Z" transform="translate(-503.658 -462.429)" opacity="0.2"/>
      <path id="Path_242" data-name="Path 242" d="M753.368,539.443c-9-6.048-28.056-11.673-28.248-11.728l.036-.155c.192.057,19.267,5.688,28.284,11.747Z" transform="translate(-611.598 -438.189)" opacity="0.2"/>
      <path id="Path_243" data-name="Path 243" d="M802.143,540.659c-3.4-6.731-12.549-12.28-19.628-15.752a118.341,118.341,0,0,0-14.706-5.983l.038-.153a118.347,118.347,0,0,1,14.724,5.991c7.1,3.481,16.277,9.049,19.695,15.819Z" transform="translate(-647.287 -431.022)" opacity="0.2"/>
      <path id="Path_355" data-name="Path 355" d="M24.412,13.647c.94-.054,1.514,3.244,1.283,7.368s-1.18,7.511-2.12,7.565-1.514-3.244-1.283-7.368S23.472,13.7,24.412,13.647Z" transform="matrix(0.799, -0.602, 0.602, 0.799, 119.044, 99.076)" opacity="0.1"/>
      <path id="Path_356" data-name="Path 356" d="M24.412,13.647c.94-.054,1.514,3.244,1.283,7.368s-1.18,7.511-2.12,7.565-1.514-3.244-1.283-7.368S23.472,13.7,24.412,13.647Z" transform="matrix(0.799, -0.602, 0.602, 0.799, 119.045, 98.758)" fill="#dce0ed"/>
      <path id="Path_357" data-name="Path 357" d="M19.989,11.152c.61-.035.95,2.7.759,6.1s-.84,6.195-1.45,6.23-.95-2.7-.759-6.1S19.379,11.188,19.989,11.152Z" transform="matrix(0.799, -0.602, 0.602, 0.799, 124.99, 99.187)" opacity="0.1"/>
      <path id="Path_358" data-name="Path 358" d="M19.989,11.152c.61-.035.95,2.7.759,6.1s-.84,6.195-1.45,6.23-.95-2.7-.759-6.1S19.379,11.188,19.989,11.152Z" transform="matrix(0.799, -0.602, 0.602, 0.799, 124.991, 99.029)" fill="#f0f0f4"/>
      <path id="Path_244" data-name="Path 244" d="M848.026,622.437s.459-3.9,3.18-4.774c0,0,9.254-3.014,11.268-3.058a3.218,3.218,0,0,1,3.461,1.03l1.412,2.148s.984,1.751-1.2,2.068c0,0-11.184,4.617-16.034,5.1a6.132,6.132,0,0,0-.82.14C848.584,625.255,847.1,625.3,848.026,622.437Z" transform="translate(-714.098 -509.04)" opacity="0.1"/>
      <path id="Path_245" data-name="Path 245" d="M848.892,621.574s.459-3.9,3.179-4.774c0,0,9.254-3.014,11.268-3.058a3.214,3.214,0,0,1,3.461,1.03l1.414,2.148s.984,1.749-1.2,2.068c0,0-11.183,4.617-16.032,5.1a6.1,6.1,0,0,0-.82.14C849.448,624.392,847.96,624.44,848.892,621.574Z" transform="translate(-714.821 -508.336)" fill="#f0f0f4"/>
      <path id="Path_246" data-name="Path 246" d="M854.943,624.875s.428-3.333,2.952-4.081c0,0,8.6-2.585,10.476-2.617a3.174,3.174,0,0,1,3.218.881L872.9,620.9s.918,1.5-1.117,1.769c0,0-10.4,3.952-14.906,4.36a6.2,6.2,0,0,0-.756.12C855.461,627.276,854.079,627.324,854.943,624.875Z" transform="translate(-719.898 -511.97)" opacity="0.1"/>
      <path id="Path_247" data-name="Path 247" d="M855.809,623.992s.426-3.324,2.952-4.081c0,0,8.6-2.585,10.476-2.617a3.17,3.17,0,0,1,3.218.881l1.312,1.847s.918,1.5-1.117,1.769c0,0-10.4,3.952-14.907,4.36a6.136,6.136,0,0,0-.753.12C856.326,626.4,854.943,626.445,855.809,623.992Z" transform="translate(-720.621 -511.25)" fill="#636780"/>
      <path id="Path_248" data-name="Path 248" d="M861.558,624.084l-.018-.159c.126-.017,12.693-1.775,15.4-4.125l.087.126C874.289,622.3,862.076,624.009,861.558,624.084Z" transform="translate(-725.643 -513.395)" fill="#f0f0f4"/>
      <path id="Path_249" data-name="Path 249" d="M857.495,630.213l-.025-.157c.138-.028,13.963-2.91,16.944-4.986l.075.135C871.485,627.3,857.634,630.183,857.495,630.213Z" transform="translate(-722.241 -517.692)" fill="#f0f0f4"/>
      <path id="Path_250" data-name="Path 250" d="M855.5,636.573l-.026-.155c.164-.035,16.073-3.416,18.042-5.4l.094.118C871.616,633.149,856.152,636.435,855.5,636.573Z" transform="translate(-720.569 -522.543)" fill="#f0f0f4"/>
      <path id="Path_251" data-name="Path 251" d="M870.643,655a61.738,61.738,0,0,1-12.3,4.079q-.836.17-1.655.421a4.5,4.5,0,0,1-2.042.273c-.812-.24-1.261.873-.384,1.749l.056.055a2.921,2.921,0,0,0,2.334.868l1.35-.127s10.951-2.7,14.005-4.812a4.092,4.092,0,0,0,1.5-2.288c.107-1.211.233-2.166-.873-1.45S870.643,655,870.643,655Z" transform="translate(-719.158 -540.892)" opacity="0.1"/>
      <path id="Path_252" data-name="Path 252" d="M871.452,654.244a61.734,61.734,0,0,1-12.3,4.076,16.811,16.811,0,0,0-1.655.421,4.493,4.493,0,0,1-2.042.273c-.82-.24-1.261.873-.384,1.749l.026.026a3,3,0,0,0,2.406.9l1.3-.122h.021c.376-.092,10.989-2.735,13.991-4.8h.011a4.063,4.063,0,0,0,1.494-2.284c.107-1.211.235-2.166-.873-1.45-1.051.68-1.9,1.182-1.981,1.228Z" transform="translate(-719.832 -540.288)" fill="#f0f0f4"/>
      <path id="Path_253" data-name="Path 253" d="M880.482,660.292a63.484,63.484,0,0,1-10.2,3.614c-.525.129-1.045.281-1.561.449a4.709,4.709,0,0,1-1.665.31c-.7-.105-1.037.683-.249,1.213l.025.017a2.76,2.76,0,0,0,1.983.451l1.217-.185s9.216-2.611,11.725-4.258c0,0,1.148-.829,1.178-1.662s.1-1.477-.809-.923S880.482,660.292,880.482,660.292Z" transform="translate(-729.663 -545.446)" opacity="0.1"/>
      <path id="Path_254" data-name="Path 254" d="M881.342,659.457a63.511,63.511,0,0,1-10.2,3.614c-.525.129-1.046.281-1.563.449a4.7,4.7,0,0,1-1.665.31c-.7-.105-1.037.681-.248,1.213h0a2.831,2.831,0,0,0,2.034.464l1.184-.185h0c.19-.054,9.234-2.626,11.721-4.247h0c.039-.03,1.148-.844,1.176-1.662s.1-1.487-.809-.923-1.6.953-1.64.975Z" transform="translate(-730.384 -544.77)" fill="#636780"/>
      <path id="Path_359" data-name="Path 359" d="M2.179.552c1.155-.006,2.087.6,2.082,1.363S3.317,3.3,2.162,3.3.075,2.7.08,1.939,1.025.559,2.179.552Z" transform="translate(127.489 123.51) rotate(-87.138)" opacity="0.1"/>
      <path id="Path_360" data-name="Path 360" d="M2.176.549c1.153-.006,2.084.6,2.079,1.362S3.312,3.289,2.159,3.3.075,2.692.079,1.933,1.023.555,2.176.549Z" transform="translate(127.456 123.499) rotate(-87.15)" fill="#f0f0f4"/>
      <path id="Path_255" data-name="Path 255" d="M814.139,709.455s-7.192,1.234-9.1,1.354-2.195,1.311-2.195,1.311-.459,3.023,2.19,2.148l9.395-1.193s1.273.041,1.273-1.91v-.438a4.933,4.933,0,0,1,.066-.729C815.818,709.693,815.679,709.2,814.139,709.455Z" transform="translate(-676.55 -586.435)" opacity="0.1"/>
      <path id="Path_256" data-name="Path 256" d="M815.024,708.595s-7.192,1.234-9.1,1.352-2.19,1.313-2.19,1.313-.459,3.023,2.19,2.148l9.4-1.193s1.271.041,1.271-1.909v-.438a4.941,4.941,0,0,1,.066-.729C816.71,708.833,816.564,708.338,815.024,708.595Z" transform="translate(-677.294 -585.734)" fill="#f0f0f4"/>
      <path id="Path_257" data-name="Path 257" d="M971.485,670.726a2.069,2.069,0,0,0-.446.944h0l-2.329,1.858a.173.173,0,0,1-.2.016.219.219,0,0,1-.1-.189V671.4a1.671,1.671,0,0,1,.7-1.389l2.424-1.645C971.656,668.893,971.951,670.333,971.485,670.726Z" transform="translate(-814.985 -552.996)" fill="#f0f0f4"/>
      <path id="Path_258" data-name="Path 258" d="M886.09,684.62l-.108,1.972a1.41,1.41,0,0,0,.365,1.062,1.088,1.088,0,0,0,.964.345,29.951,29.951,0,0,0,11.242-4.547l.307-4.029a.6.6,0,0,0-.2-.515.457.457,0,0,0-.5-.063c-1.968.988-7.245,3.52-10.594,4A1.837,1.837,0,0,0,886.09,684.62Z" transform="translate(-746.073 -561.499)" fill="#041546"/>
      <path id="Path_259" data-name="Path 259" d="M893.26,688.318v3.206s8.76-2.331,10.7-3.9V684.58a40.5,40.5,0,0,1-10.7,3.738Z" transform="translate(-752.161 -566.212)" fill="#041546"/>
      <path id="Path_260" data-name="Path 260" d="M982.81,648.631c-.444-.035-.8-.894-.8-1.945s.371-1.946.82-1.946a.5.5,0,0,1,.376.209A17.768,17.768,0,0,1,982.81,648.631Z" transform="translate(-826.354 -533.73)" fill="#6c63ff"/>
      <path id="Path_261" data-name="Path 261" d="M983.679,647.761c-.444-.033-.8-.892-.8-1.943s.369-1.948.82-1.948a.511.511,0,0,1,.377.211A17.929,17.929,0,0,1,983.679,647.761Z" transform="translate(-827.082 -533.02)" fill="#f0f0f4"/>
      <path id="Path_262" data-name="Path 262" d="M615.922,659.775c0,17.479-6.561,17.857-15.117,17.857-6.836,0-9.634-7.994-9.634-17.857s2.2-17.835,9.031-17.835S615.922,649.914,615.922,659.775Z" transform="translate(-499.618 -531.447)" fill="#636780"/>
      <path id="Path_263" data-name="Path 263" d="M615.922,659.775c0,17.479-6.561,17.857-15.117,17.857-6.836,0-9.634-7.994-9.634-17.857s2.2-17.835,9.031-17.835S615.922,649.914,615.922,659.775Z" transform="translate(-499.618 -531.447)" opacity="0.2"/>
      <ellipse id="Ellipse_41" data-name="Ellipse 41" cx="8.624" cy="17.857" rx="8.624" ry="17.857" transform="translate(91.552 110.471)" fill="#636780"/>
      <path id="Path_264" data-name="Path 264" d="M139.674,636.417c0,5.355-1.378,9.651-4.24,9.651s-6.264-4.345-6.264-9.7,1.189-10.074,4.051-10.074S139.674,631.058,139.674,636.417Z" transform="translate(-113.393 -518.687)" fill="#f0f0f4"/>
      <path id="Path_265" data-name="Path 265" d="M150.032,643.465q0,.609-.03,1.2a16.924,16.924,0,0,1-.4,3.051c-.464,1.972-1.312,3.342-2.549,3.6a2.151,2.151,0,0,1-.441.044,3.209,3.209,0,0,1-1.83-.669,8.162,8.162,0,0,1-2.819-4.4,10.4,10.4,0,0,1-.379-2.236c-.013-.207-.02-.417-.02-.628a22.085,22.085,0,0,1,.385-4.342,8.631,8.631,0,0,1,.833-2.467,2.369,2.369,0,0,1,2.035-1.429,3.128,3.128,0,0,1,1.793.681,7.533,7.533,0,0,1,1.968,2.292,10.7,10.7,0,0,1,1.453,5.3Z" transform="translate(-123.754 -525.943)" fill="#636780"/>
      <path id="Path_266" data-name="Path 266" d="M150.064,647.669a16.926,16.926,0,0,1-.4,3.043c-.059-.076-1.68-2.185-2.9-.831-.894.992-.141,3.25.348,4.432a2.151,2.151,0,0,1-.441.044,3.209,3.209,0,0,1-1.83-.669v-.151a4.084,4.084,0,0,0-1.2-4.083,2.6,2.6,0,0,0-1.627-.166,10.4,10.4,0,0,1-.379-2.236,3.314,3.314,0,0,0,.828-3.272,16.286,16.286,0,0,0-.463-1.7,8.624,8.624,0,0,1,.841-2.464s.369,2.255,1.781,2.39,2.029-3.051,2.047-3.139a7.532,7.532,0,0,1,1.968,2.292,3.292,3.292,0,0,0-1.6,3.867A3.437,3.437,0,0,0,150.064,647.669Z" transform="translate(-123.818 -528.944)" fill="#f0f0f4"/>
      <path id="Path_361" data-name="Path 361" d="M3,.349c.587-.01,1.048.905,1.03,2.045S3.519,4.466,2.933,4.477,1.885,3.571,1.9,2.431,2.41.359,3,.349Z" transform="translate(18.18 115.104) rotate(-8.049)" fill="#636780"/>
      <path id="Path_267" data-name="Path 267" d="M605.7,688.96c0,6.421-1.215,11.564-3.74,11.564s-5.526-5.206-5.526-11.634,1.05-12.07,3.574-12.07S605.7,682.539,605.7,688.96Z" transform="translate(-504.016 -559.885)" fill="#f0f0f4"/>
      <path id="Path_268" data-name="Path 268" d="M614.827,697.45q0,.739-.026,1.435a27.3,27.3,0,0,1-.354,3.649c-.408,2.364-1.148,4-2.249,4.318a1.5,1.5,0,0,1-.389.052,2.411,2.411,0,0,1-1.614-.8,10.6,10.6,0,0,1-2.495-5.272,16.75,16.75,0,0,1-.328-2.68c-.011-.247-.018-.5-.018-.753a35.5,35.5,0,0,1,.341-5.2,12.881,12.881,0,0,1,.748-2.955c.446-1.073,1.038-1.712,1.8-1.712a2.375,2.375,0,0,1,1.581.816,8.814,8.814,0,0,1,1.742,2.746A16.469,16.469,0,0,1,614.827,697.45Z" transform="translate(-513.147 -568.618)" fill="#636780"/>
      <path id="Path_269" data-name="Path 269" d="M614.9,702.461a27.306,27.306,0,0,1-.354,3.649c-.051-.092-1.476-2.619-2.555-1-.787,1.189-.125,3.895.307,5.315a1.5,1.5,0,0,1-.389.052,2.411,2.411,0,0,1-1.614-.8v-.185s.635-3.027-1.06-4.892a1.755,1.755,0,0,0-1.435-.2,16.743,16.743,0,0,1-.328-2.68,4.9,4.9,0,0,0,.73-3.92c-.154-.923-.292-1.583-.407-2.031a12.884,12.884,0,0,1,.748-2.955s.328,2.7,1.571,2.862,1.789-3.653,1.8-3.758a8.812,8.812,0,0,1,1.742,2.746s-1.99,1.267-1.409,4.633C612.658,701.695,614.1,702.308,614.9,702.461Z" transform="translate(-513.245 -572.197)" fill="#f0f0f4"/>
      <path id="Path_362" data-name="Path 362" d="M2.226.149c.519-.005.929,1.095.917,2.458S2.7,5.079,2.182,5.084s-.929-1.095-.917-2.458S1.708.155,2.226.149Z" transform="translate(94.594 126.141) rotate(-4.68)" fill="#636780"/>
      <path id="Path_270" data-name="Path 270" d="M552.57,547.89" transform="translate(-467.349 -454.765)"/>
      <path id="Path_271" data-name="Path 271" d="M588.113,555.5l-.057.146c-.056-.03-4.94-2.4-23.052-5.861q-1.269-.242-2.624-.493c-.084-.013-.164-.03-.251-.044-2.9-.532-6.1-1.084-9.628-1.662l.02-.159c4.781.776,8.955,1.514,12.6,2.216C583.182,553.1,588.055,555.476,588.113,555.5Z" transform="translate(-467.291 -454.39)" opacity="0.2"/>
      <path id="Path_272" data-name="Path 272" d="M209.86,400.883s1.64-3.139,7.253-3.418c0,0,41.02-6.033,66.918.236,0,0,2.211,1.108-.189,1.758S226.3,402.357,209.86,400.883Z" transform="translate(-180.849 -329.988)" opacity="0.1"/>
      <path id="Path_273" data-name="Path 273" d="M209.86,399.161s1.64-3.139,7.253-3.42c0,0,41.02-6.031,66.918.238,0,0,2.211,1.108-.189,1.758S226.3,400.634,209.86,399.161Z" transform="translate(-180.849 -328.583)" fill="#e83225"/>
      <path id="Path_274" data-name="Path 274" d="M185.133,445.491c2.547-6.751,5.6-9.944,6.572-10.836a1.025,1.025,0,0,1,.672-.277l13.42-.281a1.056,1.056,0,0,1,.923.536,1.115,1.115,0,0,0-1.064-.853l-13.42.281a1.013,1.013,0,0,0-.672.277c-.968.89-4.025,4.083-6.572,10.834a1.805,1.805,0,0,0,.116,1.529A1.815,1.815,0,0,1,185.133,445.491Z" transform="translate(-159.962 -361.726)" opacity="0.1"/>
      <path id="Path_275" data-name="Path 275" d="M331.793,445l1.829-9.357a3.312,3.312,0,0,1,3-2.909l17.284-.185a2.605,2.605,0,0,1,1.8.728,2.685,2.685,0,0,0-2.08-1.025l-17.284.185a3.315,3.315,0,0,0-3,2.91l-1.837,9.355a4.575,4.575,0,0,0,1.217,4.174A4.661,4.661,0,0,1,331.793,445Z" transform="translate(-282.466 -360.48)" opacity="0.1"/>
      <path id="Path_276" data-name="Path 276" d="M525.29,439.644l-6.118-14.279a1.489,1.489,0,0,1,.058-1.284,1.171,1.171,0,0,1,.991-.638c4.66-.1,16.907-.489,23.218-2.05-.4-.349-.625-.543-.625-.543-6.233,1.616-18.752,2.018-23.477,2.114a1.171,1.171,0,0,0-.991.638,1.489,1.489,0,0,0-.058,1.284l6.119,14.273a4.587,4.587,0,0,0,2.5,2.511A4.756,4.756,0,0,1,525.29,439.644Z" transform="translate(-438.592 -351.185)" opacity="0.1"/>
      <rect id="Rectangle_105" data-name="Rectangle 105" width="2.637" height="0.914" transform="translate(85.998 127.036)" fill="#6c63ff"/>
      <rect id="Rectangle_106" data-name="Rectangle 106" width="2.637" height="0.914" transform="translate(85.998 127.036)" opacity="0.2"/>
      <path id="Path_277" data-name="Path 277" d="M228.633,682.53l-3.243.63a2.078,2.078,0,0,0,.093.369,23.268,23.268,0,0,0,3.608-.142l-.341-.079Z" transform="translate(-193.832 -564.541)" fill="#6c63ff"/>
      <path id="Path_278" data-name="Path 278" d="M228.633,682.53l-3.243.63a2.078,2.078,0,0,0,.093.369,23.268,23.268,0,0,0,3.608-.142l-.341-.079Z" transform="translate(-193.832 -564.541)" opacity="0.2"/>
      <path id="Path_279" data-name="Path 279" d="M135.96,649.3c-2.86,0-6.264-4.345-6.264-9.7,0-3.673.559-7.045,1.832-8.8-1.64,1.49-2.359,5.248-2.359,9.394,0,5.355,3.4,9.7,6.264,9.7a2.934,2.934,0,0,0,2.4-1.348A2.7,2.7,0,0,1,135.96,649.3Z" transform="translate(-113.393 -522.356)" opacity="0.1"/>
      <path id="Path_280" data-name="Path 280" d="M602.55,703.211c-2.562,0-5.609-5.217-5.609-11.653,0-4.412.492-8.46,1.64-10.569-1.476,1.789-2.111,6.3-2.111,11.281,0,6.436,3.047,11.653,5.609,11.653a2.57,2.57,0,0,0,2.145-1.618A2.146,2.146,0,0,1,602.55,703.211Z" transform="translate(-504.049 -563.285)" opacity="0.1"/>
      <path id="Path_363" data-name="Path 363" d="M28.509,20.221c2.478-.147,4.255,3.656,3.969,8.495s-2.528,8.88-5.006,9.026-4.255-3.656-3.969-8.495S26.031,20.368,28.509,20.221Z" transform="translate(82.854 107.663) rotate(-45)" opacity="0.1"/>
      <path id="Path_364" data-name="Path 364" d="M28.509,20.221c2.478-.147,4.255,3.656,3.969,8.495s-2.528,8.88-5.006,9.026-4.255-3.656-3.969-8.495S26.031,20.368,28.509,20.221Z" transform="translate(82.995 107.505) rotate(-45)" fill="#dce0ed"/>
      <path id="Path_365" data-name="Path 365" d="M23.461,16.53c1.817-.108,3.093,3.133,2.85,7.239S24.4,31.291,22.581,31.4s-3.093-3.133-2.85-7.239S21.644,16.638,23.461,16.53Z" transform="translate(90.461 107.401) rotate(-45)" opacity="0.1"/>
      <path id="Path_366" data-name="Path 366" d="M23.461,16.53c1.817-.108,3.093,3.133,2.85,7.239S24.4,31.291,22.581,31.4s-3.093-3.133-2.85-7.239S21.644,16.638,23.461,16.53Z" transform="translate(90.461 107.241) rotate(-45)" fill="#f0f0f4"/>
      <path id="Path_281" data-name="Path 281" d="M1053.947,795.085s-6.935-.471-6.118,5a1.407,1.407,0,0,0,.617,1.405s.011-.4.712-.268a2.817,2.817,0,0,0,.753.041,1.472,1.472,0,0,0,.92-.428h0s1.95-.907,2.708-4.493c0,0,.561-.783.538-.984l-1.169.554a2.634,2.634,0,0,1,.085,1.741s-.038-1.706-.262-1.662c-.046,0-.609.329-.609.329a4.317,4.317,0,0,1,.164,2.859s.2-2.031-.384-2.739l-.82.541a4.552,4.552,0,0,1,.259,3.106,6.5,6.5,0,0,0-.433-2.975l-.746.656a4.447,4.447,0,0,1,.3,2.844s-.061-2.491-.458-2.68a4.773,4.773,0,0,0-.751.914s.517,1.222.2,1.869c0,0-.2-1.662-.358-1.662a5.832,5.832,0,0,0-.718,1.847,4.377,4.377,0,0,1,.561-1.959,1.89,1.89,0,0,0-1,.582s.1-.777,1.148-.846a5,5,0,0,1,.681-.885,3.817,3.817,0,0,0-1.686.218,1.747,1.747,0,0,1,1.88-.4l.736-.676a5.386,5.386,0,0,0-1.968.022,2.183,2.183,0,0,1,2.167-.185l.8-.539a6.52,6.52,0,0,0-1.88-.185,2.585,2.585,0,0,1,2.116.037l.572-.29s-.863-.185-1.115-.22-.267-.109-.267-.109a2.686,2.686,0,0,1,1.622.2A6.923,6.923,0,0,0,1053.947,795.085Z" transform="translate(-881.322 -656.302)" fill="#e83225"/>
      <ellipse id="Ellipse_48" data-name="Ellipse 48" cx="4.907" cy="0.934" rx="4.907" ry="0.934" transform="translate(162.941 144.731)" fill="#6c63ff" opacity="0.1"/>
      <ellipse id="Ellipse_49" data-name="Ellipse 49" cx="2.767" cy="0.526" rx="2.767" ry="0.526" transform="translate(180.466 127.721)" fill="#6c63ff" opacity="0.1"/>
      <path id="Path_282" data-name="Path 282" d="M1004.422,731.53s-4.72-.32-4.164,3.4a.949.949,0,0,0,.42.958s.008-.277.492-.185a1.917,1.917,0,0,0,.513.028,1.01,1.01,0,0,0,.627-.292h0s1.327-.617,1.844-3.058c0,0,.381-.534.366-.67l-.8.382a1.8,1.8,0,0,1,.057,1.186s-.026-1.161-.179-1.134c-.031,0-.413.223-.413.223a2.96,2.96,0,0,1,.115,1.946s.133-1.389-.262-1.863l-.559.369a3.1,3.1,0,0,1,.176,2.114,4.463,4.463,0,0,0-.294-2.031l-.508.445a3.033,3.033,0,0,1,.2,1.935s-.041-1.7-.31-1.825a3.368,3.368,0,0,0-.513.624s.353.833.134,1.272c0,0-.134-1.13-.244-1.136a3.94,3.94,0,0,0-.492,1.261,2.97,2.97,0,0,1,.382-1.333,1.3,1.3,0,0,0-.679.4s.069-.528.787-.574a3.481,3.481,0,0,1,.464-.6,2.612,2.612,0,0,0-1.148.15,1.2,1.2,0,0,1,1.279-.271l.5-.462a3.671,3.671,0,0,0-1.34.015,1.484,1.484,0,0,1,1.476-.12l.546-.369a4.427,4.427,0,0,0-1.279-.124,1.759,1.759,0,0,1,1.44.026l.39-.2s-.587-.131-.759-.151-.182-.074-.182-.074a1.828,1.828,0,0,1,1.1.138A4.4,4.4,0,0,0,1004.422,731.53Z" transform="translate(-841.571 -604.486)" fill="#e83225"/>
      <ellipse id="Ellipse_50" data-name="Ellipse 50" cx="3.341" cy="0.635" rx="3.341" ry="0.635" transform="translate(156.259 131.093)" fill="#6c63ff" opacity="0.1"/>
      <ellipse id="Ellipse_51" data-name="Ellipse 51" cx="4.907" cy="0.934" rx="4.907" ry="0.934" transform="translate(0 136.565)" fill="#6c63ff" opacity="0.1"/>
      <path id="Path_283" data-name="Path 283" d="M42.81,757.161s2.8-.1,3.643-.774,4.305-1.477,4.515-.4,4.207,5.4,1.046,5.424-7.343-.554-8.186-1.132S42.81,757.161,42.81,757.161Z" transform="translate(-41.198 -624.004)" fill="#a8a8a8"/>
      <path id="Path_284" data-name="Path 284" d="M52.062,768.528c-3.161.028-7.343-.554-8.184-1.132-.641-.439-.9-2.018-.984-2.746H42.8s.177,2.543,1.019,3.119S48.844,768.931,52,768.9c.912,0,1.227-.369,1.21-.923C53.089,768.318,52.741,768.521,52.062,768.528Z" transform="translate(-41.189 -631.496)" opacity="0.2"/>
      <path id="Path_285" data-name="Path 285" d="M521.257,396.3a4.089,4.089,0,0,0-.367-2.912l-.067-3.246c.369-.859-.9-2.986-.9-2.986s-.3-1.607-.569-1.754-.567-.822-.567-.822a.5.5,0,0,0-.256-.439,22.733,22.733,0,0,1-1.22-3.017,3.765,3.765,0,0,1-.246-1.793,3.5,3.5,0,0,1,.12-.447c.011-.031.021-.061.031-.092s0-.026.013-.037l.011-.033a2.56,2.56,0,0,0,.2-.958,1.937,1.937,0,0,0-1.166-1.492,5.365,5.365,0,0,1-1.64-.973,4.6,4.6,0,0,1-.82-2.4,3.667,3.667,0,0,0-.955-2.306,2.376,2.376,0,0,0-1.99-.338,6.225,6.225,0,0,0-2.565,1.15,9,9,0,0,1-2.275,1.607c-.317.107-.656.15-.964.266a2.549,2.549,0,0,0-1.435,1.618h0c-.011.035-.02.07-.031.105s-.026.087-.038.131-.016.076-.023.113-.02.087-.026.131-.011.076-.015.113-.012.09-.015.135,0,.074,0,.111v.14a5.856,5.856,0,0,0-.918,1.293c-1.1,1.969-2.475,4.814-3.085,6.094l-.03.063v-.039s-2.691,3.041-1.12,2.632a2.88,2.88,0,0,1,.328-.066l-.028.347v.009c-.251.355-1.338,1.581.684,2.489,1.678.753,5.107.945,6.233.99l-.1.534c-1.739,1.6-1.069,3.435-1.1,4.63s-.2,2.613-.2,2.613a4.83,4.83,0,0,0-.635,2.053,4.08,4.08,0,0,1-.535,1.867s-.937,1.156-.836,1.9a5.243,5.243,0,0,1-.164,1.716,3.535,3.535,0,0,0-.367,2.053,1.956,1.956,0,0,1,.134,1.158s-1.371.223-1.476,1.045-1.337,1.119-1.337,1.119a21.28,21.28,0,0,0-2.742,1.307c-.536.412-3.375,3.4-3.375,3.4s-2.852,3.3-3,3.636-1.83,1.764-1.053,3.108c.039.066.079.135.12.2a10.787,10.787,0,0,0,3.085,3.293,4.851,4.851,0,0,1,1.233,1.069c.351.617,6.219,4.844,6.219,4.844s2.578,2.552,4.238,4.33l.126.855c-.021.037-.043.076-.064.12a.556.556,0,0,0,.164.506l.023.151s.669,6.347,1.271,9.315a8.647,8.647,0,0,1-.121,4.221,3.814,3.814,0,0,1-.7-1.058,8.747,8.747,0,0,0-.426,1.564c-.01.079-.016.153-.02.223a.049.049,0,0,0-.044.022l-.235.369c-.256.4-.481.82-.709,1.237a4.086,4.086,0,0,1-2.178,1.411,1.513,1.513,0,0,1-.443.185,4.524,4.524,0,0,1-1.4.048,2.086,2.086,0,0,0-.415.115,1.525,1.525,0,0,0-.315.163h0a1.465,1.465,0,0,0-.458,1.492h0l.018.013.018.013.03.02.044.031.038.024.039.028.041.026.051.031.043.028.108.065.051.031.071.041.057.031.077.042.075.039c.043.024.087.046.133.068l.077.039.089.041.085.039.089.039.164.068.082.031.116.044.089.031.134.044.074.022c.067.022.136.041.207.059l.069.017c.054.015.108.028.164.039l.041.011h.034c.059.013.118.022.179.033h.052l.236.031h.054c.062,0,.125.011.189.015h.331q.123,0,.246-.011h.051l.2-.022.089-.015.177-.033.084-.018c.085-.02.164-.042.258-.068a14.287,14.287,0,0,1,5.741-.554c1.476.14,1.847-.428,1.847-.428a1.023,1.023,0,0,0,.074-.142.568.568,0,0,0,.021-.057,1.072,1.072,0,0,0,.034-.1.389.389,0,0,1,.018-.072c0-.024.015-.072.021-.109a.315.315,0,0,1,.011-.078c.011-.026,0-.03,0-.044q.007-.054.008-.109a4.616,4.616,0,0,0-.059-.957,12.04,12.04,0,0,0-.538-2.031l-.1.081q-.018-.09-.034-.185c-.361-2.188-.492-7.438-.492-7.994h0a.824.824,0,0,0,.561-.218c.028-.026.043-.042.043-.042,1.253-1.147.638-6.384.225-7.112s-.492-4.465-.64-5.655c-.071-.565-.328-.729-.677-.739a1.294,1.294,0,0,0-.146,0c-.049-1.108.1-3.714.207-5.492h0c0-.115.015-.227.021-.334l.317.018.467-3.139a25.489,25.489,0,0,1,1.909-4.43,19.326,19.326,0,0,0,1.8-6.868,3.473,3.473,0,0,0,.367-1.568c-.034-.126-.089-.48-.153-.94a10.467,10.467,0,0,1,1.753-.964,11,11,0,0,0,3.679-3.032l.1-.118a8.631,8.631,0,0,1,.413.8,14.568,14.568,0,0,0,2.173-2.092,1.333,1.333,0,0,0,.185-.369,10.784,10.784,0,0,0-.01-3.895A2.29,2.29,0,0,0,521.257,396.3Z" transform="translate(-413.824 -309.874)" fill="url(#linear-gradient)"/>
      <g id="Group_50" data-name="Group 50" transform="translate(98.956 85.205)" opacity="0.1">
        <path id="Path_286" data-name="Path 286" d="M637.553,513.777a4.76,4.76,0,0,1-1.137.822c-.054-.482-.094-.846-.1-.958a11.485,11.485,0,0,1,.746-2.257,15.01,15.01,0,0,0,1.46-2.6,4.023,4.023,0,0,1,.577-1.315L640.452,505a1.221,1.221,0,0,0,.139,1.158,2.72,2.72,0,0,1,.067,1.806l.084,1.518v.151c-.048.054-.266.288-.748.777-.444.451-.366.589-.315.626-.1.2.023.238.023.238a.639.639,0,0,0,.118-.011l-.108.113A31.417,31.417,0,0,0,637.553,513.777Z" transform="translate(-636.313 -505)" fill="url(#linear-gradient-2)"/>
      </g>
      <path id="Path_287" data-name="Path 287" d="M570.21,397.858c-.405.476.056,1.145-.259,1.662-.179.29-.572.473-.8.739-.435.532-.107,1.211.1,1.817.768,2.2-.384,4.718-2.788,6.094a4.518,4.518,0,0,0,3.3.3,2.992,2.992,0,0,0,2.121-1.935,9.981,9.981,0,0,1,.3-1.836c.431-.907,1.752-1.452,2.142-2.367a2.537,2.537,0,0,0-.417-2.188,17.308,17.308,0,0,0-1.661-2.441c-.377-.464-.377-.646-.984-.523A2.835,2.835,0,0,0,570.21,397.858Z" transform="translate(-478.969 -331.858)" fill="#464353"/>
      <path id="Path_288" data-name="Path 288" d="M596.221,428.352a7.861,7.861,0,0,1-.385,1.913,10.632,10.632,0,0,1-.861,2.271,3.091,3.091,0,0,1-1.684,1.505,1.952,1.952,0,0,0,1.755.571c.451-.091.907-.347,1.343-.185a4.149,4.149,0,0,1,.579.349,1.532,1.532,0,0,0,1.942-.526,2.74,2.74,0,0,0,.34-2.3c-.131-.467-.366-.894-.492-1.367a12,12,0,0,0-.408-2.12,4.794,4.794,0,0,0-2.47-1.847C595.837,427.122,596.241,427.761,596.221,428.352Z" transform="translate(-501.391 -355.889)" fill="#985c7e"/>
      <path id="Path_289" data-name="Path 289" d="M589.3,418.99a7.868,7.868,0,0,1-.385,1.908,10.388,10.388,0,0,1-.861,2.271,3.1,3.1,0,0,1-1.683,1.505,1.943,1.943,0,0,0,1.753.571c.451-.089.907-.347,1.343-.185a3.964,3.964,0,0,1,.579.347,1.532,1.532,0,0,0,1.942-.526,2.734,2.734,0,0,0,.339-2.3c-.131-.467-.366-.894-.492-1.367a12,12,0,0,0-.408-2.12,4.827,4.827,0,0,0-2.47-1.847C588.916,417.758,589.319,418.389,589.3,418.99Z" transform="translate(-495.606 -348.25)" opacity="0.1"/>
      <path id="Path_290" data-name="Path 290" d="M572.464,631.652s-.492,6.774-.28,7.68.577,13.159.577,13.159.148,7.143.641,8.643-3.338,1.073-3.469,1.054a29.817,29.817,0,0,1-1.084-3.054,7.884,7.884,0,0,0,.344-4.8c-.592-2.955-1.248-9.233-1.248-9.233l-1.089-7.4a5.672,5.672,0,0,0-.426-2.72c-.574-.981-1.312-7.4-1.148-7.957s4.071-1.776,4.071-1.776l1.683,2.48Z" transform="translate(-477.957 -517.839)" fill="#ecb4b6"/>
      <path id="Path_291" data-name="Path 291" d="M565.419,628.467v.131c.011.122.023.251.036.384a27.522,27.522,0,0,0,1.068,6.026,4.874,4.874,0,0,1,.443,2.277v.185a2.186,2.186,0,0,1-.013.262l.835,5.693.036.242.215,1.468s.656,6.294,1.25,9.233a8.742,8.742,0,0,1-.075,4.029c-.016.061-.033.12-.049.174a4.028,4.028,0,0,1-.221.589s.135.428.31.966l.121.369c.023.066.044.131.066.2a8.307,8.307,0,0,0,.589,1.52c.13.018,3.961.443,3.467-1.054a4.9,4.9,0,0,1-.148-.669c-.376-2.292-.492-7.974-.492-7.974s-.361-12.251-.576-13.159a47.488,47.488,0,0,1,.164-5.88h0c.064-1.04.12-1.795.12-1.795l-1.43-3.922-1.683-2.48a24.978,24.978,0,0,0-3.761,1.477l-.028.017a.677.677,0,0,0-.282.277A7.092,7.092,0,0,0,565.419,628.467Z" transform="translate(-478.04 -517.863)" fill="#ffb9b9" opacity="0.07"/>
      <path id="Path_292" data-name="Path 292" d="M581.23,688.89s1.857.554,1.693,1.165Z" transform="translate(-491.309 -569.726)" opacity="0.05"/>
      <path id="Path_293" data-name="Path 293" d="M587.25,805.389s.2.641.431,1.337c.262.14.463.227.463.227s.715-.748-.23-1.847c-.153-.185-.282-.334-.394-.477A4.4,4.4,0,0,1,587.25,805.389Z" transform="translate(-496.341 -664.093)" opacity="0.1"/>
      <path id="Path_294" data-name="Path 294" d="M581.664,801.8c.072.443.937.934,1.4,1.173.177.089.3.142.3.142a1.042,1.042,0,0,0,.2-.355,1.5,1.5,0,0,0-.428-1.5c-.131-.151-.244-.288-.344-.414a3.868,3.868,0,0,1-.7-1.066,8.824,8.824,0,0,0-.417,1.551A1.672,1.672,0,0,0,581.664,801.8Z" transform="translate(-491.662 -660.139)" fill="#464353"/>
      <path id="Path_295" data-name="Path 295" d="M581.664,808.645c.072.443.937.934,1.4,1.173a8.3,8.3,0,0,0,.589,1.52c.13.018,3.961.443,3.467-1.054a4.9,4.9,0,0,1-.148-.669l-1.063.844a1.514,1.514,0,0,1-1.355.111l-.994-.964-.248-.238a1.34,1.34,0,0,1-.436-.118,2.177,2.177,0,0,1-.855-.772c-.189-.225-.3-.288-.351-.3A1.672,1.672,0,0,0,581.664,808.645Z" transform="translate(-491.662 -666.987)" opacity="0.1"/>
      <path id="Path_296" data-name="Path 296" d="M544.266,814.362a6.375,6.375,0,0,0,2.35,1.06,4.24,4.24,0,0,0,2.145-.068,13.941,13.941,0,0,1,5.637-.554c1.447.138,1.816-.425,1.816-.425a2.613,2.613,0,0,0,.136-1.662,12.086,12.086,0,0,0-.522-2.015s-.656.519-1.2.953a1.516,1.516,0,0,1-1.355.113l-1.242-1.2a1.944,1.944,0,0,1-1.291-.888c-.346-.417-.417-.279-.417-.279l-.236.358c-.253.4-.474.813-.7,1.228a4.006,4.006,0,0,1-2.132,1.4,1.6,1.6,0,0,1-.435.174,4.416,4.416,0,0,1-1.383.046,1.7,1.7,0,0,0-.692.266A1.444,1.444,0,0,0,544.266,814.362Z" transform="translate(-460.369 -667.958)" fill="#464353"/>
      <ellipse id="Ellipse_52" data-name="Ellipse 52" cx="0.128" cy="0.144" rx="0.128" ry="0.144" transform="translate(91.266 143.244)" fill="#f2f2f2"/>
      <ellipse id="Ellipse_53" data-name="Ellipse 53" cx="0.128" cy="0.144" rx="0.128" ry="0.144" transform="translate(89.692 144)" fill="#f2f2f2"/>
      <ellipse id="Ellipse_54" data-name="Ellipse 54" cx="0.128" cy="0.144" rx="0.128" ry="0.144" transform="translate(90.313 145.074)" fill="#f2f2f2"/>
      <ellipse id="Ellipse_55" data-name="Ellipse 55" cx="0.128" cy="0.144" rx="0.128" ry="0.144" transform="translate(88.147 144.711)" fill="#f2f2f2"/>
      <ellipse id="Ellipse_56" data-name="Ellipse 56" cx="0.128" cy="0.144" rx="0.128" ry="0.144" transform="translate(90.569 143.712)" fill="#f2f2f2"/>
      <ellipse id="Ellipse_57" data-name="Ellipse 57" cx="0.128" cy="0.144" rx="0.128" ry="0.144" transform="translate(91.184 144.999)" fill="#f2f2f2"/>
      <ellipse id="Ellipse_58" data-name="Ellipse 58" cx="0.128" cy="0.144" rx="0.128" ry="0.144" transform="translate(88.929 144.421)" fill="#f2f2f2"/>
      <ellipse id="Ellipse_59" data-name="Ellipse 59" cx="0.128" cy="0.144" rx="0.128" ry="0.144" transform="translate(87.3 144.93)" fill="#f2f2f2"/>
      <path id="Path_297" data-name="Path 297" d="M544.266,829.168a5.53,5.53,0,0,0,4.5.992,13.941,13.941,0,0,1,5.637-.554c1.447.138,1.816-.425,1.816-.425a1.363,1.363,0,0,0,.185-.6.558.558,0,0,1,.01-.127,4.851,4.851,0,0,0-.059-.923,3.609,3.609,0,0,1-2.19.608,34.923,34.923,0,0,0-5.071.707l-2.788-.129s-1.561-.38-1.555-1.036A1.428,1.428,0,0,0,544.266,829.168Z" transform="translate(-460.369 -682.764)" opacity="0.1"/>
      <path id="Path_298" data-name="Path 298" d="M568.34,833.846a.583.583,0,0,0,.139.013,14.029,14.029,0,0,0,2.388-.478,2.987,2.987,0,0,1,.61-.1c.656-.039,2.262-.126,3.167-.118h.021a4.352,4.352,0,0,0,1.9-.517.558.558,0,0,1,.01-.127,4.278,4.278,0,0,1-1.929.532c-.905,0-2.519.081-3.172.12a3.183,3.183,0,0,0-.628.1,11.109,11.109,0,0,1-2.487.465Z" transform="translate(-480.533 -686.832)" fill="#f2f2f2"/>
      <path id="Path_299" data-name="Path 299" d="M575.133,690.471a2.184,2.184,0,0,1-.013.262l.835,5.693c.149.161.294.314.43.464a11.9,11.9,0,0,1,1.166,1.385c.492.861,2.236.417,2.2.334s-.748-4.137-.748-4.137l-.566-1.638a.857.857,0,0,1-1.171-.277c-.366-.438-1.184-1.293-1.74-1.865l-.392-.4C575.136,690.357,575.135,690.421,575.133,690.471Z" transform="translate(-486.201 -570.868)" opacity="0.03"/>
      <path id="Path_300" data-name="Path 300" d="M565.409,635.08v.115c.011.122.023.251.036.384.121-.05.241-.1.359-.162l.164-.085a8.543,8.543,0,0,0,1.527-1.064l-1.43-.693-.423-.205a.677.677,0,0,0-.282.277A8.305,8.305,0,0,0,565.409,635.08Z" transform="translate(-478.028 -524.459)" opacity="0.05"/>
      <path id="Path_301" data-name="Path 301" d="M489.856,620.344c.039.067.077.133.118.2a10.669,10.669,0,0,0,3.033,3.263,4.846,4.846,0,0,1,1.214,1.062c.344.609,6.115,4.8,6.115,4.8s2.685,2.678,4.307,4.445l.207.225.1.111c.12.131.228.255.328.369.144.164.264.308.356.428.034.044.066.085.092.122a1.42,1.42,0,0,1,.085.129c.492.861,2.236.416,2.2.332s-.751-4.133-.751-4.133l-.568-1.638a.8.8,0,0,1-.745.055,1.158,1.158,0,0,1-.425-.334c-.366-.436-1.186-1.293-1.742-1.863-.328-.34-.564-.58-.564-.58l-1.85-2.358s-2.367-3.47-4.141-4.33a17.423,17.423,0,0,1,3.426-1.167,5.665,5.665,0,0,0,1.586-.432l.164-.087a8.613,8.613,0,0,0,1.527-1.064l-1.425-.691-7.518-3.64c-.046,0-.482.033-.8.057l-.34.026s-2.8,3.276-2.952,3.61S489.091,619,489.856,620.344Z" transform="translate(-414.753 -508.316)" fill="#ffb9b9"/>
      <path id="Path_302" data-name="Path 302" d="M521.661,642s-3.229.445-3.871,1.195c0,0,2.836.222,2.952.639,0,0-1.62-1.235-2.072-.923Z" transform="translate(-438.274 -531.496)" opacity="0.03"/>
      <path id="Path_303" data-name="Path 303" d="M582.29,725.573l.1.111c.12.131.228.255.328.369.144.164.264.308.356.428l.418-.609a1.706,1.706,0,0,0-.476-.325.739.739,0,0,0-.723.026Z" transform="translate(-492.195 -599.547)" opacity="0.05"/>
      <path id="Path_304" data-name="Path 304" d="M580.971,727.427a2.132,2.132,0,0,0,.338.157l.328-.488.425-.62a1.679,1.679,0,0,0-.476-.323.739.739,0,0,0-.723.024,1.145,1.145,0,0,0-.385.478S580.353,727.071,580.971,727.427Z" transform="translate(-490.671 -600.041)" fill="#464353"/>
      <path id="Path_305" data-name="Path 305" d="M583.13,708.434l.067.076a2.128,2.128,0,0,0,.338.157l.328-.488a1.42,1.42,0,0,1,.085.129c.492.861,2.236.416,2.2.332s-.746-4.133-.746-4.133l-.568-1.638a.8.8,0,0,1-.745.055.445.445,0,0,0,0,.582,4.244,4.244,0,0,1,.559,1.847c.221.687-.451,1.529-.838,1.884a1.206,1.206,0,0,1-.208.157.526.526,0,0,0-.189.236A4.815,4.815,0,0,0,583.13,708.434Z" transform="translate(-492.897 -581.125)" opacity="0.05"/>
      <path id="Path_306" data-name="Path 306" d="M584.33,705.381l.748.846a6.219,6.219,0,0,1,2.263,3.18,7.342,7.342,0,0,0,.267.739,3.665,3.665,0,0,1,.2,1.038c.018.216.026.428.033.613a1.07,1.07,0,0,0,.223.641l.01.011a.816.816,0,0,0,1.209.116c.026-.024.041-.041.041-.041,1.232-1.138.628-6.33.221-7.052s-.481-4.432-.63-5.607c-.069-.554-.328-.724-.666-.739a8.659,8.659,0,0,0-1.168.2h-.062c-.766.068-2.234.323-1.721,1.123a4.212,4.212,0,0,1,.559,1.847c.272.846-.82,1.93-1.046,2.031S584.33,705.381,584.33,705.381Z" transform="translate(-493.9 -578.071)" fill="#464353"/>
      <ellipse id="Ellipse_60" data-name="Ellipse 60" cx="0.218" cy="0.246" rx="0.218" ry="0.246" transform="translate(91.293 126.541)" fill="#f2f2f2"/>
      <ellipse id="Ellipse_61" data-name="Ellipse 61" cx="0.218" cy="0.246" rx="0.218" ry="0.246" transform="translate(91.626 127.461)" fill="#f2f2f2"/>
      <ellipse id="Ellipse_62" data-name="Ellipse 62" cx="0.218" cy="0.246" rx="0.218" ry="0.246" transform="translate(92.649 128.942)" fill="#f2f2f2"/>
      <ellipse id="Ellipse_63" data-name="Ellipse 63" cx="0.218" cy="0.246" rx="0.218" ry="0.246" transform="translate(92.142 128.181)" fill="#f2f2f2"/>
      <ellipse id="Ellipse_64" data-name="Ellipse 64" cx="0.218" cy="0.246" rx="0.218" ry="0.246" transform="translate(93.074 129.819)" fill="#f2f2f2"/>
      <path id="Path_307" data-name="Path 307" d="M602.072,708.84a21.628,21.628,0,0,1,0,3.536.819.819,0,0,0,1.219.127c.026-.024.041-.041.041-.041,1.232-1.138.628-6.33.221-7.052s-.481-4.432-.63-5.607c-.069-.554-.328-.724-.666-.739a8.67,8.67,0,0,0-1.168.2,26.58,26.58,0,0,0,.328,4.776A37.968,37.968,0,0,1,602.072,708.84Z" transform="translate(-507.911 -578.023)" opacity="0.1"/>
      <path id="Path_308" data-name="Path 308" d="M608.559,703.958a24.67,24.67,0,0,1,.543,4.74c-.025.979.075,2.886.131,3.83.026-.024.041-.041.041-.041,1.232-1.138.628-6.33.221-7.052s-.481-4.432-.63-5.607c-.069-.554-.328-.724-.666-.739A46.2,46.2,0,0,0,608.559,703.958Z" transform="translate(-513.855 -578.043)" opacity="0.1"/>
      <path id="Path_309" data-name="Path 309" d="M604.777,699.44a29.41,29.41,0,0,0,.41,4.2,51.9,51.9,0,0,1,.594,5.418h-.1a52.569,52.569,0,0,0-.589-5.391,28.666,28.666,0,0,1-.413-4.21Z" transform="translate(-510.912 -578.328)" fill="#f2f2f2"/>
      <path id="Path_310" data-name="Path 310" d="M555.813,446.86a17.191,17.191,0,0,0-2.5.7c-.9.377-1.037.582-1.037.582l-.937.166v-1.128a27.557,27.557,0,0,1-3.694.126.08.08,0,0,1-.021-.015c-.164-.185.1,1.463-.148,1.813s-1.312,1.566.674,2.467,6.492.993,6.492.993l1.283-2.849Z" transform="translate(-462.671 -372.392)" fill="#464353"/>
      <path id="Path_311" data-name="Path 311" d="M613.548,432.033,610,431.182a10.453,10.453,0,0,0,1.027-3.058,4.693,4.693,0,0,0-.238-2.569c-1.02-2.331,2.759-3.555,2.759-3.555a21.091,21.091,0,0,0,2.624,3.618,1.96,1.96,0,0,0,1.148.676C618.644,426.3,613.548,432.033,613.548,432.033Z" transform="translate(-515.36 -352.123)" fill="#ffb9b9"/>
      <path id="Path_312" data-name="Path 312" d="M515.19,613.987s1.543,4.109,2.952,4.183c.851.044,3.475.451,5.432.766l.175.028a8.614,8.614,0,0,0,1.527-1.064l-1.425-.691-7.518-3.64c-.046,0-.482.033-.8.057Z" transform="translate(-436.1 -508.316)" opacity="0.1"/>
      <path id="Path_313" data-name="Path 313" d="M568.291,627.076c1.342.218-.362,1.74-.362,1.74a6.662,6.662,0,0,1,1.414,2.585c.758,2.031,1.119,1.887,1.119,1.887l2.1.129c.064-1.04.12-1.795.12-1.795l-1.43-3.922-1.683-2.48a24.978,24.978,0,0,0-3.761,1.477l-.028.017a.676.676,0,0,0-.282.277C565.455,627.146,568.23,626.341,568.291,627.076Z" transform="translate(-478.156 -517.814)" opacity="0.1"/>
      <path id="Path_314" data-name="Path 314" d="M613.548,448.014,610,447.162a10.453,10.453,0,0,0,1.027-3.058l1.11,1.206a2.524,2.524,0,0,0,1.52-.5,2.457,2.457,0,0,0,.518-.536c.789-1.108,1.74-2.554,1.74-2.554s.112-.057.264-.12a1.96,1.96,0,0,0,1.148.676C618.644,442.276,613.548,448.014,613.548,448.014Z" transform="translate(-515.36 -368.103)" opacity="0.1"/>
      <path id="Path_315" data-name="Path 315" d="M515.19,473.36s1.543,4.109,2.952,4.185,7.725,1.147,7.725,1.147a6.663,6.663,0,0,1,1.414,2.585c.758,2.031,1.119,1.889,1.119,1.889l2.432.148.461-3.108a24.959,24.959,0,0,1,1.873-4.406,19.355,19.355,0,0,0,1.775-6.809,3.508,3.508,0,0,0,.362-1.555c-.13-.48-.559-4.3-.592-4.7a11.379,11.379,0,0,1,.723-2.216,14.724,14.724,0,0,0,1.414-2.554,3.957,3.957,0,0,1,.559-1.293l1.312-2.436a1.222,1.222,0,0,0,.136,1.139,2.725,2.725,0,0,1,.064,1.776l.08,1.494.018.358s-.2.222-.735.777-.284.628-.284.628c1.678-.259,2.992,2.814,2.992,2.814a14.062,14.062,0,0,0,2.132-2.074,1.327,1.327,0,0,0,.182-.356,10.768,10.768,0,0,0-.01-3.863,2.291,2.291,0,0,0-.139-2.185,4.084,4.084,0,0,0-.361-2.886l-.066-3.221c.361-.849-.889-2.955-.889-2.955s-.3-1.592-.559-1.74-.558-.814-.558-.814c.033-.739-1.711-.814-1.873-.851a3.125,3.125,0,0,1-.6-.391,5.079,5.079,0,0,0-.523-.349c-.3-.148-1.086.26-1.086.26s-.951,1.442-1.742,2.554a2.416,2.416,0,0,1-.517.536,2.523,2.523,0,0,1-1.516.495l-1.132-1.228-3.339.229-.777,4.33c-1.711,1.59-1.053,3.405-1.086,4.589s-.2,2.585-.2,2.585a4.838,4.838,0,0,0-.625,2.031,4.086,4.086,0,0,1-.526,1.847s-.92,1.147-.82,1.887a5.175,5.175,0,0,1-.164,1.7,3.518,3.518,0,0,0-.361,2.031,1.955,1.955,0,0,1,.131,1.149s-1.348.222-1.447,1.036-1.312,1.108-1.312,1.108a21.3,21.3,0,0,0-2.7,1.293C517.993,470.377,515.19,473.36,515.19,473.36Z" transform="translate(-436.1 -368.026)" fill="#464353"/>
      <path id="Path_316" data-name="Path 316" d="M669.354,516s-2.46.334-2.762.739,2.46.445,2.46.445Z" transform="translate(-562.651 -428.764)" opacity="0.1"/>
      <path id="Path_317" data-name="Path 317" d="M661.3,525.544s1.8-.722,1.857-.5-1.857,1.444-1.857,1.444Z" transform="translate(-558.246 -436.103)" opacity="0.1"/>
      <path id="Path_318" data-name="Path 318" d="M641.9,504.633c-.313.556-2.9,4.138-2.9,4.138l2.788-4.582Z" transform="translate(-539.603 -419.135)" opacity="0.1"/>
      <path id="Path_319" data-name="Path 319" d="M642.735,500.465c-.2.3-2.285,4.146-2.285,4.146l2.1-4.33Z" transform="translate(-540.816 -415.947)" opacity="0.1"/>
      <path id="Path_320" data-name="Path 320" d="M672.058,473.085s-.805-1.278-1.594-.464S672.058,473.085,672.058,473.085Z" transform="translate(-565.773 -393.175)" opacity="0.1"/>
      <path id="Path_321" data-name="Path 321" d="M629.681,469.111a8.764,8.764,0,0,0-3.057.519C625.621,470.149,627.511,468.075,629.681,469.111Z" transform="translate(-529.026 -390.294)" opacity="0.1"/>
      <path id="Path_322" data-name="Path 322" d="M632.29,446.068h.3a1.666,1.666,0,0,0,.887-.909c.18-.613,1.6-.054,1.6-.054s.205.174.025-.111.625-1.184.984-1.776a.527.527,0,0,0,.062-.15,4.842,4.842,0,0,0-.523-.351c-.3-.148-1.086.26-1.086.26s-.951,1.444-1.742,2.554A2.416,2.416,0,0,1,632.29,446.068Z" transform="translate(-533.994 -368.988)" opacity="0.1"/>
      <path id="Path_323" data-name="Path 323" d="M632.29,444.858h.3a1.666,1.666,0,0,0,.887-.909c.18-.613,1.6-.054,1.6-.054s.205.174.025-.111.625-1.184.984-1.776a.538.538,0,0,0,.062-.151,5.077,5.077,0,0,0-.523-.349c-.3-.148-1.086.26-1.086.26s-.951,1.442-1.742,2.554A2.417,2.417,0,0,1,632.29,444.858Z" transform="translate(-533.994 -368.002)" fill="#ff718d"/>
      <ellipse id="Ellipse_65" data-name="Ellipse 65" cx="0.218" cy="0.246" rx="0.218" ry="0.246" transform="translate(95.652 78.93)" fill="#e7c7ca"/>
      <ellipse id="Ellipse_66" data-name="Ellipse 66" cx="0.218" cy="0.246" rx="0.218" ry="0.246" transform="translate(91.903 84.673)" fill="#e7c7ca"/>
      <ellipse id="Ellipse_67" data-name="Ellipse 67" cx="0.218" cy="0.246" rx="0.218" ry="0.246" transform="translate(93.256 81.048)" fill="#e7c7ca"/>
      <ellipse id="Ellipse_68" data-name="Ellipse 68" cx="0.218" cy="0.246" rx="0.218" ry="0.246" transform="translate(91.298 88.407)" fill="#e7c7ca"/>
      <ellipse id="Ellipse_69" data-name="Ellipse 69" cx="0.218" cy="0.246" rx="0.218" ry="0.246" transform="translate(88.519 94.848)" fill="#e7c7ca"/>
      <ellipse id="Ellipse_70" data-name="Ellipse 70" cx="0.218" cy="0.246" rx="0.218" ry="0.246" transform="translate(88.301 98.148)" fill="#e7c7ca"/>
      <path id="Path_324" data-name="Path 324" d="M553.27,410.056l.443,1.61,1.4-.111,1.248-1.5s.082-.27.21-.67a25.686,25.686,0,0,1,1.238-3.346,17.58,17.58,0,0,0,.756-4s-.505-1.293-1.947,1.293c-1.084,1.95-2.434,4.772-3.033,6.046C553.39,409.8,553.27,410.056,553.27,410.056Z" transform="translate(-467.934 -335.588)" fill="#ffb9b9"/>
      <path id="Path_325" data-name="Path 325" d="M591,545.342c0,.4,1.476.58,2.173.646l.358.028a18.537,18.537,0,0,0,.707,3.6,1.465,1.465,0,0,0,.22-.031,13.838,13.838,0,0,0,3.413-2.042s.049-.611,2.391-1.682a10.86,10.86,0,0,0,3.617-3.008,4.354,4.354,0,0,1,.369-.436L602.168,540s-.336.351-.779.822a29.47,29.47,0,0,0-2.1,2.367,25.28,25.28,0,0,1-3.435,2.161,4.568,4.568,0,0,0-2.285-.851S591,544.824,591,545.342Z" transform="translate(-499.476 -448.332)" fill="#ffb9b9"/>
      <path id="Path_326" data-name="Path 326" d="M586.336,523.73c-.1.222-4.553,3.553-5.309,3.608s.707-1.592.756-1.61S586.336,523.73,586.336,523.73Z" transform="translate(-490.957 -435.066)" opacity="0.1"/>
      <path id="Path_327" data-name="Path 327" d="M467.164,809.953,467,809.91Z" transform="translate(-395.814 -668.398)" opacity="0.1"/>
      <path id="Path_328" data-name="Path 328" d="M547.24,826.964a1.673,1.673,0,0,1,.692-.266,4.378,4.378,0,0,0,1.383-.048,4.163,4.163,0,0,0-.1,1.368l-.418-.018S547.233,827.618,547.24,826.964Z" transform="translate(-462.893 -682.047)" fill="#fff" opacity="0.3"/>
      <path id="Path_329" data-name="Path 329" d="M468.189,810.18l-.089-.02Z" transform="translate(-396.734 -668.602)" opacity="0.1"/>
      <path id="Path_330" data-name="Path 330" d="M454.33,804.55Z" transform="translate(-385.222 -664.028)" opacity="0.1"/>
      <path id="Path_331" data-name="Path 331" d="M454.35,804.56Z" transform="translate(-385.239 -664.036)" opacity="0.1"/>
      <path id="Path_332" data-name="Path 332" d="M468,810.16h0Z" transform="translate(-396.633 -668.602)" opacity="0.1"/>
      <path id="Path_333" data-name="Path 333" d="M605.51,764.152c.018.216.026.428.033.613a1.07,1.07,0,0,0,.223.641l.01.011a10.026,10.026,0,0,0,.072-1.317C605.813,764.157,605.666,764.163,605.51,764.152Z" transform="translate(-511.606 -631.047)" fill="#fff" opacity="0.3"/>
      <path id="Path_334" data-name="Path 334" d="M654.34,540.814c1.071-.076,1.985,1.176,2.482,2.031a4.36,4.36,0,0,1,.369-.436L655.119,540S654.776,540.343,654.34,540.814Z" transform="translate(-552.427 -448.332)" opacity="0.1"/>
      <path id="Path_335" data-name="Path 335" d="M653.962,534.229c1.678-.259,2.992,2.814,2.992,2.814a14.061,14.061,0,0,0,2.132-2.074,1.339,1.339,0,0,0,.182-.358c-.39-1.056-1.468-2.816-4.31-2.146l.018.358s-.2.222-.735.776S653.962,534.229,653.962,534.229Z" transform="translate(-552.059 -442.068)" opacity="0.1"/>
      <path id="Path_336" data-name="Path 336" d="M653.962,535.43c1.678-.259,2.992,2.814,2.992,2.814a14.062,14.062,0,0,0,2.132-2.074,1.326,1.326,0,0,0,.182-.356c-.39-1.056-1.468-2.818-4.31-2.148l.018.358s-.2.222-.735.777S653.962,535.43,653.962,535.43Z" transform="translate(-552.059 -443.047)" fill="#ff718d"/>
      <path id="Path_337" data-name="Path 337" d="M653.962,535.43c1.678-.259,2.992,2.814,2.992,2.814a14.062,14.062,0,0,0,2.132-2.074,1.326,1.326,0,0,0,.182-.356c-.39-1.056-1.468-2.818-4.31-2.148l.018.358s-.2.222-.735.777S653.962,535.43,653.962,535.43Z" transform="translate(-552.059 -443.047)" fill="#464353"/>
      <path id="Path_338" data-name="Path 338" d="M553.27,443.9l.443,1.61,1.4-.111,1.248-1.5s.082-.27.21-.67a6.11,6.11,0,0,1-2.116.907c-.582.033-.8-.58-.869-.907C553.39,443.649,553.27,443.9,553.27,443.9Z" transform="translate(-467.934 -369.432)" opacity="0.1"/>
      <path id="Path_339" data-name="Path 339" d="M550.133,446.039l.092-.12c.328-.428.623-.759.623-.759a1.853,1.853,0,0,0,.284.8.687.687,0,0,0,.62.31,3.614,3.614,0,0,0,1.227-.408c.492-.247.91-.513.91-.513v.445l.008.443v1.018s.344,2.7-2.844,1.259c0,0,.2-.992-1.014-.8Z" transform="translate(-465.234 -371.006)" opacity="0.1"/>
      <path id="Path_340" data-name="Path 340" d="M549.947,443.545l.016.888v1.018s.344,2.7-2.844,1.259c0,0,.231-1.149-1.312-.739s1.1-2.611,1.1-2.611.112,1.151.9,1.108A6.207,6.207,0,0,0,549.947,443.545Z" transform="translate(-461.291 -369.538)" fill="#ff718d"/>
      <path id="Path_341" data-name="Path 341" d="M549.947,443.545l.016.888v1.018s.344,2.7-2.844,1.259c0,0,.231-1.149-1.312-.739s1.1-2.611,1.1-2.611.112,1.151.9,1.108A6.207,6.207,0,0,0,549.947,443.545Z" transform="translate(-461.291 -369.538)" fill="#464353"/>
      <path id="Path_342" data-name="Path 342" d="M598.109,577.168c-.033-.055-.164-4.478-.674-4.589a4.571,4.571,0,0,0-1.775.48l.23,3.535Z" transform="translate(-503.372 -474.883)" opacity="0.1"/>
      <path id="Path_343" data-name="Path 343" d="M604.557,572.1a18.537,18.537,0,0,0,.707,3.6,1.465,1.465,0,0,0,.22-.031c-.08-1.317-.251-3.592-.615-3.669a1.56,1.56,0,0,0-.669.072Z" transform="translate(-510.511 -474.413)" opacity="0.1"/>
      <path id="Path_344" data-name="Path 344" d="M599.309,576.558c-.033-.055-.164-4.478-.674-4.591a4.533,4.533,0,0,0-1.775.482l.23,3.535Z" transform="translate(-504.375 -474.384)" fill="#ff718d"/>
      <path id="Path_345" data-name="Path 345" d="M599.309,576.558c-.033-.055-.164-4.478-.674-4.591a4.533,4.533,0,0,0-1.775.482l.23,3.535Z" transform="translate(-504.375 -474.384)" fill="#464353"/>
      <path id="Path_346" data-name="Path 346" d="M575.431,439.5a10.385,10.385,0,0,0,.861-2.271q.176-.566.3-1.151a4.04,4.04,0,0,0,2.788,1.95q.184.431.328.883a2.73,2.73,0,0,1-.336,2.3,1.534,1.534,0,0,1-1.942.526,3.883,3.883,0,0,0-.579-.347c-.436-.155-.892.1-1.343.185A1.945,1.945,0,0,1,573.75,441,3.013,3.013,0,0,0,575.431,439.5Z" transform="translate(-485.055 -363.602)" fill="#464353"/>
      <ellipse id="Ellipse_71" data-name="Ellipse 71" cx="4.076" cy="4.589" rx="4.076" ry="4.589" transform="translate(90.858 65.589)" opacity="0.1"/>
      <ellipse id="Ellipse_72" data-name="Ellipse 72" cx="4.076" cy="4.589" rx="4.076" ry="4.589" transform="translate(90.858 65.29)" fill="#ffb9b9"/>
      <path id="Path_347" data-name="Path 347" d="M581.517,380.594c-.479-.369-1.184-.076-1.689-.4a1.413,1.413,0,0,1-.508-.752,2.82,2.82,0,0,1,1.435-3.4c.308-.116.636-.157.948-.264a8.906,8.906,0,0,0,2.237-1.592,6.076,6.076,0,0,1,2.521-1.141,2.316,2.316,0,0,1,1.957.334,3.616,3.616,0,0,1,.938,2.288,4.524,4.524,0,0,0,.8,2.379,5.229,5.229,0,0,0,1.609.966,1.919,1.919,0,0,1,1.148,1.477,7.077,7.077,0,0,1-.366,1.553,3.762,3.762,0,0,0,.241,1.778,22.456,22.456,0,0,0,2.031,4.539,10.246,10.246,0,0,1-3.228,1.341,2.5,2.5,0,0,1-1.407.009,2.468,2.468,0,0,1-1.273-1.359,4.963,4.963,0,0,1-.43-1.714c-.08-1.191.251-2.469-.218-3.54a1.192,1.192,0,0,0-.412-.534,2.962,2.962,0,0,0-.686-.235,2.793,2.793,0,0,1-1.012-.783l-1.086-1.138a3.108,3.108,0,0,0-.845-.7,1.9,1.9,0,0,0-1.8.227c-.481.3-1.035.757-1.52.465" transform="translate(-489.599 -312.148)" fill="#464353"/>
      <g id="Group_51" data-name="Group 51" transform="translate(89.587 65.504)" opacity="0.1">
        <path id="Path_348" data-name="Path 348" d="M589.929,413.282l-.289-.092A.633.633,0,0,0,589.929,413.282Z" transform="translate(-587.926 -410.444)"/>
        <path id="Path_349" data-name="Path 349" d="M591.4,413.666l.328.1a.8.8,0,0,0-.185-.109A.921.921,0,0,1,591.4,413.666Z" transform="translate(-589.398 -410.827)"/>
        <path id="Path_350" data-name="Path 350" d="M591.721,409.768a2.533,2.533,0,0,1-1.407.009,2.472,2.472,0,0,1-1.273-1.361,4.963,4.963,0,0,1-.43-1.714c-.08-1.191.251-2.467-.216-3.54a1.213,1.213,0,0,0-.4-.534,2.85,2.85,0,0,0-.686-.233,2.835,2.835,0,0,1-1.012-.783l-1.086-1.136a3.109,3.109,0,0,0-.845-.7,1.9,1.9,0,0,0-1.8.227,3.088,3.088,0,0,1-1.089.554.835.835,0,0,1,.185.109l-.328-.1a.633.633,0,0,1-.289-.092l.289.092a.614.614,0,0,0,.143,0c-.463-.2-1.06,0-1.5-.292a1.411,1.411,0,0,1-.512-.755,2.71,2.71,0,0,1-.11-1.2,2.864,2.864,0,0,0-.021,1.788,1.412,1.412,0,0,0,.512.753c.443.288,1.042.092,1.5.294a3.041,3.041,0,0,0,1.089-.554,1.9,1.9,0,0,1,1.8-.227,3.107,3.107,0,0,1,.845.7l1.086,1.138a2.794,2.794,0,0,0,1.012.783,2.961,2.961,0,0,1,.686.235,1.2,1.2,0,0,1,.4.534c.469,1.071.138,2.349.218,3.54a4.962,4.962,0,0,0,.43,1.714,2.469,2.469,0,0,0,1.273,1.359,2.494,2.494,0,0,0,1.406-.009,10.244,10.244,0,0,0,3.229-1.341c-.075-.127-.149-.257-.221-.386a10.238,10.238,0,0,1-2.875,1.128Z" transform="translate(-579.192 -398.32)"/>
        <path id="Path_351" data-name="Path 351" d="M661.531,414.62a5.924,5.924,0,0,0-.23.779c-.01.057-.016.116-.021.174a4.034,4.034,0,0,0,.251-.953Z" transform="translate(-647.816 -411.61)"/>
      </g>
      <path id="Path_352" data-name="Path 352" d="M579.527,456a1.535,1.535,0,0,1-1.942.524,3.964,3.964,0,0,0-.579-.347c-.436-.155-.892.1-1.343.185a1.923,1.923,0,0,1-1.511-.369,2.281,2.281,0,0,1-.243.09,1.948,1.948,0,0,0,1.753.571c.451-.091.907-.347,1.343-.185a4.142,4.142,0,0,1,.579.349,1.532,1.532,0,0,0,1.942-.526,2.559,2.559,0,0,0,.444-1.638A2.463,2.463,0,0,1,579.527,456Z" transform="translate(-485.189 -378.743)" opacity="0.1"/>
      <path id="Path_1691" data-name="Path 1691" d="M476.15,94.886a.31.31,0,0,0,.3.31.292.292,0,0,0,.317-.277.306.306,0,0,0-.295-.312.3.3,0,0,0-.319.279Z" transform="translate(-384.183 -24.895)" fill="#263238"/>
      <path id="Path_1692" data-name="Path 1692" d="M475.634,92.884c.038.04.272-.133.6-.13s.573.166.609.126-.02-.09-.126-.169a.863.863,0,0,0-.49-.151.834.834,0,0,0-.479.155C475.65,92.785,475.616,92.857,475.634,92.884Z" transform="translate(-383.779 -23.342)" fill="#263238"/>
      <path id="Path_1693" data-name="Path 1693" d="M490.65,94.886a.31.31,0,0,0,.3.31.292.292,0,0,0,.31-.277.306.306,0,0,0-.294-.312.3.3,0,0,0-.319.279Z" transform="translate(-395.423 -24.895)" fill="#263238"/>
      <path id="Path_1694" data-name="Path 1694" d="M490.093,93.124c.038.04.272-.133.6-.133s.576.166.612.126-.022-.09-.128-.166a.847.847,0,0,0-.488-.151.791.791,0,0,0-.479.155C490.111,93.034,490.066,93.106,490.093,93.124Z" transform="translate(-394.985 -23.524)" fill="#263238"/>
      <path id="Path_1695" data-name="Path 1695" d="M481.887,95.648a2.249,2.249,0,0,0-.537-.1c-.085,0-.164-.027-.18-.083a.436.436,0,0,1,.056-.252l.252-.643a10.951,10.951,0,0,0,.56-1.684,10.836,10.836,0,0,0-.695,1.634c-.083.225-.164.45-.241.647a.5.5,0,0,0-.043.333.225.225,0,0,0,.139.124.734.734,0,0,0,.144.02,2.176,2.176,0,0,0,.544,0Z" transform="translate(-387.98 -23.591)" fill="#263238"/>
      <path id="Path_1696" data-name="Path 1696" d="M485.474,106.18c-.054,0-.054.355-.362.612a1.744,1.744,0,0,1-.692.265c0,.04.085.07.247.074a.9.9,0,0,0,.578-.2.767.767,0,0,0,.281-.513C485.539,106.265,485.5,106.178,485.474,106.18Z" transform="translate(-390.593 -33.683)" fill="#263238"/>
      <path id="Path_1697" data-name="Path 1697" d="M489.734,87.614c.034.09.364.047.753.094s.7.153.753.072c.023-.04-.031-.124-.157-.211a1.315,1.315,0,0,0-1.147-.126C489.793,87.509,489.721,87.572,489.734,87.614Z" transform="translate(-394.712 -19.398)" fill="#263238"/>
      <path id="Path_1698" data-name="Path 1698" d="M476.162,88.549c.058.076.286,0,.56,0s.508.052.562-.027c.022-.038-.013-.115-.115-.184a.814.814,0,0,0-.9.027C476.169,88.434,476.138,88.513,476.162,88.549Z" transform="translate(-384.186 -20.043)" fill="#263238"/>
    </g>
  </g>
</svg>
