<svg xmlns="http://www.w3.org/2000/svg" width="240" height="240" viewBox="0 0 240 240">
  <g id="Group_42" data-name="Group 42" transform="translate(-228 -2742)">
    <g id="Group_27" data-name="Group 27" transform="translate(588 1227)">
      <circle id="Ellipse_1" data-name="Ellipse 1" cx="120" cy="120" r="120" transform="translate(-360 1515)" fill="none"/>
    </g>
    <g id="Group_55" data-name="Group 55" transform="translate(255 2786.5)">
      <path id="Path_532" data-name="Path 532" d="M321.941,553.669s69.246-56.536,109.128,0" transform="translate(-286.85 -437.04)" fill="#f2f2f2"/>
      <ellipse id="Ellipse_101" data-name="Ellipse 101" cx="32.072" cy="4.89" rx="32.072" ry="4.89" transform="translate(116.65 140.721)" fill="#f2f2f2"/>
      <ellipse id="Ellipse_102" data-name="Ellipse 102" cx="32.072" cy="4.89" rx="32.072" ry="4.89" transform="translate(121.856 138.887)" fill="none" stroke="#3f3d56" stroke-miterlimit="10" stroke-width="1"/>
      <path id="Path_533" data-name="Path 533" d="M949.949,512.838a3.28,3.28,0,0,0,3.607-.969,3.109,3.109,0,0,0,.259-3.651,3.264,3.264,0,0,0-3.436-1.448l.081,1.628-.788-1.4a3.178,3.178,0,0,0-1.66,1.782,3.045,3.045,0,0,0-.186.856A3.162,3.162,0,0,0,949.949,512.838Z" transform="translate(-782.382 -419.649)" fill="#ffb9b9"/>
      <path id="Path_534" data-name="Path 534" d="M974.442,521.1c-.278-1.385.927-2.613,2.117-3.411s2.58-1.582,2.986-2.936c.583-1.946-1.155-3.729-2.507-5.266a19.028,19.028,0,0,1-2.568-3.733,5.065,5.065,0,0,1-.614-1.7,5.746,5.746,0,0,1,.462-2.544q1.426-4.112,3.05-8.155" transform="translate(-802.978 -409.021)" fill="none" stroke="#3f3d56" stroke-miterlimit="10" stroke-width="1"/>
      <path id="Path_535" data-name="Path 535" d="M950.588,510.781a3.28,3.28,0,0,0,3.607-.969,3.109,3.109,0,0,0,.259-3.651,3.263,3.263,0,0,0-3.436-1.448l.081,1.628-.788-1.4a3.179,3.179,0,0,0-1.66,1.782,3.043,3.043,0,0,0-.186.856,3.162,3.162,0,0,0,2.122,3.2Z" transform="translate(-782.888 -418.01)" fill="none" stroke="#3f3d56" stroke-miterlimit="10" stroke-width="1"/>
      <path id="Path_536" data-name="Path 536" d="M974.122,482.449a3.208,3.208,0,0,1,2.328-2.006l.266,1.548.494-1.626a3.225,3.225,0,0,1,3.046,2.245A3.128,3.128,0,0,1,979,486.132a3.292,3.292,0,0,1-3.812-.1,3.122,3.122,0,0,1-1.064-3.583Z" transform="translate(-803.054 -398.678)" fill="#ffb9b9"/>
      <path id="Path_537" data-name="Path 537" d="M974.975,479.705A3.208,3.208,0,0,1,977.3,477.7l.266,1.548.494-1.626a3.225,3.225,0,0,1,3.046,2.245,3.128,3.128,0,0,1-1.258,3.522,3.292,3.292,0,0,1-3.812-.1A3.122,3.122,0,0,1,974.975,479.705Z" transform="translate(-803.729 -396.494)" fill="none" stroke="#3f3d56" stroke-miterlimit="10" stroke-width="1"/>
      <path id="Path_538" data-name="Path 538" d="M978.39,548.689a3.263,3.263,0,0,0,4-1.565,3.124,3.124,0,0,0-1.136-4.063l-.379,1.249-.269-1.566-.008,0a3.254,3.254,0,0,0-4.143,1.9A3.145,3.145,0,0,0,978.39,548.689Z" transform="translate(-804.899 -448.195)" fill="#ffb9b9"/>
      <path id="Path_539" data-name="Path 539" d="M979.128,545.91a3.263,3.263,0,0,0,4-1.565,3.124,3.124,0,0,0-1.136-4.063l-.379,1.249-.269-1.566-.008,0a3.254,3.254,0,0,0-4.143,1.9,3.145,3.145,0,0,0,1.937,4.053Z" transform="translate(-805.484 -445.982)" fill="none" stroke="#3f3d56" stroke-miterlimit="10" stroke-width="1"/>
      <path id="Path_540" data-name="Path 540" d="M970.139,583.97a3.248,3.248,0,0,0,6.322.208,3.141,3.141,0,0,0-1.736-3.6,3.279,3.279,0,0,0-3.963.919l1.441,2.122-1.969-1.126A3.068,3.068,0,0,0,970.139,583.97Z" transform="translate(-800.015 -478.222)" fill="#ffb9b9"/>
      <path id="Path_541" data-name="Path 541" d="M970.779,581.912a3.248,3.248,0,0,0,6.322.208,3.141,3.141,0,0,0-1.736-3.6,3.279,3.279,0,0,0-3.963.919l1.441,2.122-1.969-1.126A3.069,3.069,0,0,0,970.779,581.912Z" transform="translate(-800.521 -476.583)" fill="none" stroke="#3f3d56" stroke-miterlimit="10" stroke-width="1"/>
      <path id="Path_542" data-name="Path 542" d="M955.2,628.9a28.467,28.467,0,0,0,3.714-1.693c.86-.6,4.39-1.315,4.6-.354s4.289,4.779,1.067,4.8-7.486.517-8.345.006S955.2,628.9,955.2,628.9Z" transform="translate(-788.225 -514.946)" fill="#0065b3"/>
      <path id="Path_543" data-name="Path 543" d="M964.639,641.143c-3.222.025-7.486.517-8.345.006-.654-.39-.914-1.787-1-2.432l-.1,0s.181,2.252,1.039,2.763,5.123.02,8.345-.006c.93-.007,1.251-.331,1.234-.811C965.686,640.956,965.332,641.137,964.639,641.143Z" transform="translate(-788.225 -524.768)" opacity="0.2"/>
      <rect id="Rectangle_115" data-name="Rectangle 115" width="12.496" height="32.19" rx="6.248" transform="translate(33.113 84.541)" fill="#e9be4e"/>
      <rect id="Rectangle_116" data-name="Rectangle 116" width="12.496" height="51.545" rx="6.248" transform="translate(56.855 65.186)" fill="#e9be4e"/>
      <rect id="Rectangle_117" data-name="Rectangle 117" width="12.496" height="64.992" rx="6.248" transform="translate(80.596 51.739)" fill="#e9be4e"/>
      <rect id="Rectangle_118" data-name="Rectangle 118" width="12.496" height="77.827" rx="6.248" transform="translate(104.338 38.904)" fill="#e9be4e"/>
      <rect id="Rectangle_119" data-name="Rectangle 119" width="12.496" height="100.238" rx="6.248" transform="translate(128.08 16.493)" fill="#e9be4e"/>
      <rect id="Rectangle_120" data-name="Rectangle 120" width="12.496" height="32.19" rx="6.248" transform="translate(34.779 82.911)" fill="none" stroke="#3f3d56" stroke-miterlimit="10" stroke-width="1"/>
      <rect id="Rectangle_121" data-name="Rectangle 121" width="12.496" height="51.545" rx="6.248" transform="translate(58.521 63.556)" fill="none" stroke="#3f3d56" stroke-miterlimit="10" stroke-width="1"/>
      <rect id="Rectangle_122" data-name="Rectangle 122" width="12.496" height="64.992" rx="6.248" transform="translate(82.262 50.11)" fill="none" stroke="#3f3d56" stroke-miterlimit="10" stroke-width="1"/>
      <rect id="Rectangle_123" data-name="Rectangle 123" width="12.496" height="77.827" rx="6.248" transform="translate(106.004 37.274)" fill="none" stroke="#3f3d56" stroke-miterlimit="10" stroke-width="1"/>
      <rect id="Rectangle_124" data-name="Rectangle 124" width="12.496" height="100.238" rx="6.248" transform="translate(129.746 14.863)" fill="none" stroke="#3f3d56" stroke-miterlimit="10" stroke-width="1"/>
      <line id="Line_1" data-name="Line 1" x1="179.311" transform="translate(0 116.833)" fill="none" stroke="#3f3d56" stroke-miterlimit="10" stroke-width="1"/>
      <path id="Path_544" data-name="Path 544" d="M951.254,556.951s1.96,6.9-.523,7.925-1.7-7.669-1.7-7.669Z" transform="translate(-783.25 -459.661)" fill="#a0616a"/>
      <path id="Path_545" data-name="Path 545" d="M852.59,773.806a6.382,6.382,0,0,0-2.483.256,1.607,1.607,0,0,1-1.307.128s-2.875-.256-1.829,1.15,2.091,1.917,2.091,2.556,4.312.639,4.442,0,.261-3.962,0-4.09A2.107,2.107,0,0,0,852.59,773.806Z" transform="translate(-702.356 -632.29)" fill="#041546"/>
      <path id="Path_546" data-name="Path 546" d="M893.982,773.806a6.383,6.383,0,0,1,2.483.256,1.607,1.607,0,0,0,1.307.128s2.875-.256,1.829,1.15-2.091,1.917-2.091,2.556-4.312.639-4.443,0-.261-3.962,0-4.09A2.107,2.107,0,0,1,893.982,773.806Z" transform="translate(-738.914 -632.29)" fill="#041546"/>
      <path id="Path_547" data-name="Path 547" d="M846.993,544.277s-.915,20.2-.392,21.218,2.352,18.279,2.091,19.3-1.568,5.241,0,5.88,4.965,0,4.965,0,.915-5.113.523-7.8-.523-13.933-.523-13.933l2.613-11.76.915,11.12s.261,15.211-1.568,18.279.653,4.346.653,4.346,4.965.639,5.488.511-.392-5.113,0-7.286,1.307-14.316,2.091-17.256,5.226-19.3,1.96-22.624S846.993,544.277,846.993,544.277Z" transform="translate(-702.116 -448.393)" fill="#0065b3"/>
      <ellipse id="Ellipse_103" data-name="Ellipse 103" cx="4.573" cy="4.474" rx="4.573" ry="4.474" transform="translate(149.842 46.161)" fill="#a0616a"/>
      <path id="Path_548" data-name="Path 548" d="M878.584,336.493s.784,6.135.392,6.263,6.925,0,6.925,0-1.437-3.707,0-6.647Z" transform="translate(-727.566 -283.813)" fill="#a0616a"/>
      <path id="Path_549" data-name="Path 549" d="M878.584,357.131a5.154,5.154,0,0,1,6.949,0l.244.914-1.967-.02h-5.226Z" transform="translate(-727.566 -299.466)" fill="#f2f2f2"/>
      <path id="Path_550" data-name="Path 550" d="M857.871,399.971c-.3.059-1.041.179-2.006.322-3.21.474-8.9,1.193-9.1.7-.261-.639-1.176-2.94-1.829-1.917s-.261,1.917-3.005,2.045a23.045,23.045,0,0,1-6.083-.6c-.706-.2-1.145-.429-1.1-.675.131-.767,1.568-15.339,1.568-16.745s.523-8.181.523-8.181l-3.755-7.228-.3-.569s.392-1.406,1.568-1.662,6.794-3.451,6.794-3.451a4,4,0,0,1,3.4-1.662c2.221.128,2.744-.767,5.749,1.662,0,0,3.658,1.534,4.965,2.3s2.744.767,2.875,2.045a3.844,3.844,0,0,1-.361,1.377,75.277,75.277,0,0,1-3.511,6.975l-.048.084s-.068,2.3,0,4.989v.006a31.659,31.659,0,0,0,.78,7.148C856.042,390.256,859.178,399.715,857.871,399.971Z" transform="translate(-691.305 -303.064)" fill="#e61030"/>
      <path id="Path_551" data-name="Path 551" d="M877.81,296.5a3.017,3.017,0,0,0-.517-1.13,6.018,6.018,0,0,0-.932-2.629,2.777,2.777,0,0,0-.835-.942,2.507,2.507,0,0,0-1.313-.32c-.083,0-.233.023-.368.029-.086-.026-.174-.049-.261-.071-.051-.111-.152-.435-.18-.413l-.381.3c-.161-.027-.323-.049-.486-.066l-.178-.5a3.362,3.362,0,0,0-.252.463q-.243-.012-.486-.008l-.324-.3a.452.452,0,0,1-.357.342q-.224.022-.445.058h-.036a4.071,4.071,0,0,0-2.323.374,2.256,2.256,0,0,0-.739.821c-.082.054-.164.108-.243.166a2.628,2.628,0,0,0-.684.663,2.779,2.779,0,0,0-.3.718,6.741,6.741,0,0,0-.349,2.35,3.446,3.446,0,0,0,.876,2.176c.342.359.777.625,1.119.984.705.739.837,1.771,1.441,2.553a4.591,4.591,0,0,0,2.825,1.528,4.8,4.8,0,0,0,3.516-.858,2.148,2.148,0,0,0,.6-.614,6.13,6.13,0,0,0,.336-2.037C876.779,298.857,878.026,297.785,877.81,296.5Z" transform="translate(-717.458 -247.703)" fill="#3f3d56"/>
      <path id="Path_552" data-name="Path 552" d="M830.795,558.833s1.96,6.9-.523,7.925-1.7-7.669-1.7-7.669Z" transform="translate(-687.878 -461.16)" fill="#a0616a"/>
      <path id="Path_553" data-name="Path 553" d="M837.695,411.783s-.857,12.445-.725,15.443c-.706-.2-1.145-.429-1.1-.675.131-.767,1.568-15.339,1.568-16.745s.523-8.181.523-8.181L834.2,394.4c.06-.358.1-.569.1-.569l1.895,3.9,2.678.7Z" transform="translate(-692.427 -329.773)" opacity="0.1"/>
      <path id="Path_554" data-name="Path 554" d="M824.525,390.065l-.915.767s-1.176,6.775-1.045,8.436-2.744,26.842-.523,26.842,4.7-.383,4.312-1.278.653-16.047.653-16.047l1.177-13.352Z" transform="translate(-682.131 -326.776)" fill="#e61030"/>
      <path id="Path_555" data-name="Path 555" d="M939.419,389.943a75.279,75.279,0,0,1-3.511,6.975c.01-1.635.017-2.792.017-2.792l2.744-5.5.588-.447S939.32,388.859,939.419,389.943Z" transform="translate(-772.952 -325.277)" opacity="0.1"/>
      <path id="Path_556" data-name="Path 556" d="M938.938,476.177c-.3.059-1.041.179-2.006.322-.5-3.62-1.838-14.03-1.753-15.01.042-.483.077-2.871.1-5.5a31.659,31.659,0,0,0,.78,7.148C937.109,466.462,940.244,475.921,938.938,476.177Z" transform="translate(-772.372 -379.271)" opacity="0.1"/>
      <path id="Path_557" data-name="Path 557" d="M937.14,385.673l1.96.511s1.307,14.188,1.437,16.617,1.7,17.384,1.437,18.023-4.312,1.534-4.442.895-2.03-15.06-1.93-16.222-.553-13.177-.553-13.177Z" transform="translate(-772.272 -323.279)" fill="#e61030"/>
      <path id="Path_558" data-name="Path 558" d="M196.5,79.344l23.742-19.355,23.95-13.243,23.742-12.835L291.675,11.5" transform="translate(-155.577 -8.759)" fill="none" stroke="#3f3d56" stroke-miterlimit="10" stroke-width="1"/>
      <ellipse id="Ellipse_104" data-name="Ellipse 104" cx="2.291" cy="2.241" rx="2.291" ry="2.241" transform="translate(38.007 69.362)" fill="#f2f2f2"/>
      <ellipse id="Ellipse_105" data-name="Ellipse 105" cx="2.291" cy="2.241" rx="2.291" ry="2.241" transform="translate(61.749 50.008)" fill="#f2f2f2"/>
      <ellipse id="Ellipse_106" data-name="Ellipse 106" cx="2.291" cy="2.241" rx="2.291" ry="2.241" transform="translate(85.699 36.765)" fill="#f2f2f2"/>
      <ellipse id="Ellipse_107" data-name="Ellipse 107" cx="2.291" cy="2.241" rx="2.291" ry="2.241" transform="translate(109.44 23.93)" fill="#f2f2f2"/>
      <ellipse id="Ellipse_108" data-name="Ellipse 108" cx="2.291" cy="2.241" rx="2.291" ry="2.241" transform="translate(133.182 1.519)" fill="#f2f2f2"/>
      <ellipse id="Ellipse_109" data-name="Ellipse 109" cx="2.291" cy="2.241" rx="2.291" ry="2.241" transform="translate(38.632 68.344)" fill="none" stroke="#3f3d56" stroke-miterlimit="10" stroke-width="1"/>
      <ellipse id="Ellipse_110" data-name="Ellipse 110" cx="2.291" cy="2.241" rx="2.291" ry="2.241" transform="translate(62.374 48.989)" fill="none" stroke="#3f3d56" stroke-miterlimit="10" stroke-width="1"/>
      <ellipse id="Ellipse_111" data-name="Ellipse 111" cx="2.291" cy="2.241" rx="2.291" ry="2.241" transform="translate(86.324 35.746)" fill="none" stroke="#3f3d56" stroke-miterlimit="10" stroke-width="1"/>
      <ellipse id="Ellipse_112" data-name="Ellipse 112" cx="2.291" cy="2.241" rx="2.291" ry="2.241" transform="translate(110.065 22.911)" fill="none" stroke="#3f3d56" stroke-miterlimit="10" stroke-width="1"/>
      <ellipse id="Ellipse_113" data-name="Ellipse 113" cx="2.291" cy="2.241" rx="2.291" ry="2.241" transform="translate(133.807 0.5)" fill="none" stroke="#3f3d56" stroke-miterlimit="10" stroke-width="1"/>
    </g>
  </g>
</svg>
