<svg xmlns="http://www.w3.org/2000/svg" xmlns:xlink="http://www.w3.org/1999/xlink" width="187" height="151.117" viewBox="0 0 187 151.117">
  <defs>
    <linearGradient id="linear-gradient" x1="0.5" y1="1" x2="0.5" gradientUnits="objectBoundingBox">
      <stop offset="0" stop-color="gray" stop-opacity="0.251"/>
      <stop offset="0.54" stop-color="gray" stop-opacity="0.122"/>
      <stop offset="1" stop-color="gray" stop-opacity="0.102"/>
    </linearGradient>
  </defs>
  <g id="Group_36" data-name="Group 36" transform="translate(-254.5 -2786.383)">
    <g id="Group_48" data-name="Group 48" transform="translate(255 2787)">
      <rect id="Rectangle_62" data-name="Rectangle 62" width="186" height="1.695" transform="translate(0 148.305)" fill="#85848b" stroke="#707070" stroke-width="1"/>
      <path id="Path_73" data-name="Path 73" d="M794.293,650.375c0,1.3-6.094,5.106-13.334,5.106s-12.88-3.8-12.88-5.106,5.868-.884,13.114-.884S794.293,649.068,794.293,650.375Z" transform="translate(-646.933 -532.007)" fill="#504f60" stroke="#707070" stroke-width="1"/>
      <path id="Path_74" data-name="Path 74" d="M794.293,653.72c0,1.3-6.094,5.106-13.334,5.106s-12.88-3.8-12.88-5.106" transform="translate(-646.933 -535.352)" stroke="#707070" stroke-width="1" opacity="0.2"/>
      <path id="Path_75" data-name="Path 75" d="M502.265,533.249a6.536,6.536,0,0,0,3.519-.148.479.479,0,0,0,.354-.442.606.606,0,0,0-.08-.221A15.1,15.1,0,0,1,505,529.911a.227.227,0,0,0-.066-.115.136.136,0,0,0-.113,0c-.519.17-.968.588-1.483.767a1.708,1.708,0,0,1-.808.075c-.234-.033-.553-.274-.766-.243C501.88,531.361,502.175,532.263,502.265,533.249Z" transform="translate(-427.809 -438.811)" fill="#6c63ff" stroke="#707070" stroke-width="1"/>
      <path id="Path_76" data-name="Path 76" d="M624.01,516.723a6.973,6.973,0,0,0,2.034-2.383.369.369,0,0,0-.011-.4,7.809,7.809,0,0,0-1.653-2.226,5.437,5.437,0,0,0-.922,1.061c-.195.256-.734.663-.739,1.054a1.757,1.757,0,0,0,.3.663q.194.358.369.729A9.611,9.611,0,0,1,624.01,516.723Z" transform="translate(-527.333 -424.733)" fill="#6c63ff" stroke="#707070" stroke-width="1"/>
      <path id="Path_77" data-name="Path 77" d="M474.851,541.768a1.169,1.169,0,0,1-.142.641.686.686,0,0,1-.3.221c-1.643.734-3.544-.181-5.184.542-.337.148-.656.363-.994.5a4.456,4.456,0,0,1-1.241.274c-.579.068-1.163.113-1.744.133a3.4,3.4,0,0,1-1.315-.144,1.7,1.7,0,0,1-1.008-1,1.174,1.174,0,0,1-.05-.71.817.817,0,0,1,.108-.221,1.681,1.681,0,0,1,.386-.391l.6-.486a3.87,3.87,0,0,1,.916-.606c.239-.1.493-.139.735-.221a5.254,5.254,0,0,0,2.1-1.956l.822-1.094a.891.891,0,0,1,.285-.285.643.643,0,0,1,.354-.042,4.148,4.148,0,0,1,2.242.937,2.849,2.849,0,0,0,.553.407,1.636,1.636,0,0,0,1.545-.239c.211-.141.165-.221.253-.473s.3-.413.493-.183a.717.717,0,0,1,.117.279,9.743,9.743,0,0,1,.11,2.279,1.239,1.239,0,0,0,.035.354,2.135,2.135,0,0,0,.161.327.836.836,0,0,1,.034.084A2.761,2.761,0,0,1,474.851,541.768Z" transform="translate(-395.789 -444.371)" fill="#514e7f" stroke="#707070" stroke-width="1"/>
      <path id="Path_78" data-name="Path 78" d="M474.851,555.064a1.169,1.169,0,0,1-.142.641.686.686,0,0,1-.3.221c-1.643.734-3.544-.181-5.184.542-.337.148-.656.362-.994.5a4.454,4.454,0,0,1-1.241.274c-.579.069-1.163.113-1.744.133a3.4,3.4,0,0,1-1.315-.144,1.7,1.7,0,0,1-1.008-1,1.174,1.174,0,0,1-.05-.71.818.818,0,0,1,.108-.221c.1.25.165.581.225.7a1.2,1.2,0,0,0,.769.692,1.559,1.559,0,0,0,.709-.113c1.489-.46,3.071-.466,4.5-1.163a4.7,4.7,0,0,1,3.069-.869c.84-.084,1.653-.4,2.481-.566a2.765,2.765,0,0,1,.112,1.074Z" transform="translate(-395.789 -457.667)" fill="#464353" stroke="#707070" stroke-width="1"/>
      <path id="Path_79" data-name="Path 79" d="M608.027,521.308a4.039,4.039,0,0,1-.907,2.016,12.6,12.6,0,0,0-1.271,1.733,15.091,15.091,0,0,1-1.17,2.5,3.326,3.326,0,0,1-.709.63,4.557,4.557,0,0,1-.913.524,5.5,5.5,0,0,1-2.578.175,1.923,1.923,0,0,1-.819-.2,2.447,2.447,0,0,1-.34-.261,1.881,1.881,0,0,1-.532-.663.81.81,0,0,1-.051-.482,1.185,1.185,0,0,1,.246-.469,6.535,6.535,0,0,1,.624-.7,4.137,4.137,0,0,0,.812-.884,3.248,3.248,0,0,0,.314-.884,9.626,9.626,0,0,0,.229-1.691,6.64,6.64,0,0,1,.094-1.132,6.146,6.146,0,0,0,.44-1.709.525.525,0,0,1,.018-.259.288.288,0,0,1,.163-.126,2.422,2.422,0,0,1,.847-.245.894.894,0,0,1,.787.385c.12.181.2.442.378.513a.484.484,0,0,0,.269.013,1.958,1.958,0,0,0,1.24-.475,2.163,2.163,0,0,0,.514-1.408c0-.2-.073-.411.177-.442.188-.031.337.221.432.376a5.722,5.722,0,0,1,.829,1.883.369.369,0,0,1,.158-.038.655.655,0,0,1,.565.36A1.7,1.7,0,0,1,608.027,521.308Z" transform="translate(-507.588 -429.452)" fill="#514e7f" stroke="#707070" stroke-width="1"/>
      <path id="Path_80" data-name="Path 80" d="M608.338,529.028a4.04,4.04,0,0,1-.907,2.016,12.591,12.591,0,0,0-1.271,1.733,15.082,15.082,0,0,1-1.17,2.5,3.329,3.329,0,0,1-.709.63,4.559,4.559,0,0,1-.913.524,5.5,5.5,0,0,1-2.578.175,1.923,1.923,0,0,1-.819-.2,2.448,2.448,0,0,1-.34-.261,1.88,1.88,0,0,1-.532-.663,1.091,1.091,0,0,1,.532-.159c.383.026.663.477,1.03.617.523.2,1.044-.263,1.574-.42a8.747,8.747,0,0,0,1.051-.221,2.569,2.569,0,0,0,.778-.588,4.531,4.531,0,0,0,.831-1,7.154,7.154,0,0,0,.487-1.214,19.208,19.208,0,0,1,.985-2.352,1.677,1.677,0,0,1,.2-.327,2.913,2.913,0,0,1,.271-.245,2.8,2.8,0,0,0,.626-1.424,2.916,2.916,0,0,1,.14-.475.655.655,0,0,1,.565.36A1.691,1.691,0,0,1,608.338,529.028Z" transform="translate(-507.899 -437.172)" fill="#464353" stroke="#707070" stroke-width="1"/>
      <path id="Path_81" data-name="Path 81" d="M438.331,202.752a4.564,4.564,0,0,1,1.063,1.547,37.7,37.7,0,0,1,1.595,5.988c.466-.586,2.3-.681,2.775-1.267.2-.245,1.258-1.47,1.418-1.755s1.343-.884,1.473-1.185c.484-1.081-3.431-5.177-2.929-6.245a.329.329,0,0,0,.041-.168.291.291,0,0,0-.066-.13,6.011,6.011,0,0,0-1.132-.966,2.188,2.188,0,0,1-.863-1.282,3.8,3.8,0,0,0-1,.844q-1.078,1.152-2.118,2.35c-.271.314-.8.732-.922,1.18C437.516,202.146,438.072,202.489,438.331,202.752Z" transform="translate(-375.051 -179.814)" fill="#a1616a" stroke="#707070" stroke-width="1"/>
      <path id="Path_82" data-name="Path 82" d="M454.4,214.13a12.506,12.506,0,0,0-1.676,1.711,4.413,4.413,0,0,0-1.063,2.131c-.05.329-.043.663-.083,1-.177,1.448-1.18,2.509-1.623,3.864a8.043,8.043,0,0,0-.282,1.293,18.948,18.948,0,0,0-.2,2.538c-.011.825.638,1.393.875,2.162a16.037,16.037,0,0,1,.422,2.35,33.14,33.14,0,0,0,1.063,4.355c.874,3.011,3.706,11.333,4.579,14.346,2.678-.838,9.805-2.763,12.176-4.529.79-.588-5.485-7.222-4.639-7.679a.328.328,0,0,0,.23-.2.481.481,0,0,0,.008-.351c-.845-4.611-3.489-8.4-4.689-12.889a43.724,43.724,0,0,0-1.731-4.37c-.514-1.342-.789-2.825-1.4-4.1a2.568,2.568,0,0,0-.448-.7,2.613,2.613,0,0,0-.494-.374C455.066,214.47,454.74,214.344,454.4,214.13Z" transform="translate(-384.785 -192.932)" fill="rgba(232,50,37,0.52)" stroke="#707070" stroke-width="1"/>
      <ellipse id="Ellipse_14" data-name="Ellipse 14" cx="4.191" cy="5.228" rx="4.191" ry="5.228" transform="translate(59.23 11.959)" fill="#ffb9b9" stroke="#707070" stroke-width="1"/>
      <path id="Path_83" data-name="Path 83" d="M466.4,205.453a1.2,1.2,0,0,1,1.575-.283.994.994,0,0,1,.468.944l2.079.04a3.375,3.375,0,0,1,.985.113,1.433,1.433,0,0,1,.822.643c.025.042.053.093.1.1a.134.134,0,0,0,.1-.04,1.5,1.5,0,0,1,1.035-.221,5.13,5.13,0,0,1,3.043,1.667,1.216,1.216,0,0,1,.354.55c.073.294-.014.663.177.873a38.009,38.009,0,0,0,1.116,7.073,3.28,3.28,0,0,0,.629,1.127,4.752,4.752,0,0,1,.672,1.251c.379,1.229-.144,2.675.225,3.908a7.109,7.109,0,0,0,.709,1.4,4.149,4.149,0,0,1,.606,1.813c.016.3-.014.595,0,.884a6.546,6.546,0,0,0,.177,1.174q.227,1.07.475,2.138a5.162,5.162,0,0,0,1.446,3c-1.994.422-4.1.836-6-.029a2.922,2.922,0,0,1-.748-.466,5.7,5.7,0,0,1-1.313-2.639,14.963,14.963,0,0,1-.732-3.406,4.819,4.819,0,0,0-.126-1.105,2.865,2.865,0,0,0-1.177-1.384,6.025,6.025,0,0,1-1.418-1.375,3.19,3.19,0,0,1-.574-2.065c.035-.365.151-.716.161-1.083s-.12-.787-.4-.884c-1.451-.548-2.144-2.692-2.467-4.54a18.1,18.1,0,0,1-.186-2.9l-.02-1.886a2.791,2.791,0,0,1-.652-1.788,2.648,2.648,0,0,0-.009-.592,1.71,1.71,0,0,0-.333-.63,5.778,5.778,0,0,1-.8-1.39Z" transform="translate(-398.715 -185.811)" fill="#464353" stroke="#707070" stroke-width="1"/>
      <path id="Path_84" data-name="Path 84" d="M439.855,228.654c-.048.584.059,1.183-.046,1.755-.041.221-.112.442-.163.648a4.673,4.673,0,0,0,.193,2.46,14.845,14.845,0,0,0,1.008,2.177,3.9,3.9,0,0,1,.323.754,4.781,4.781,0,0,1,.124.86,32.767,32.767,0,0,0,.493,3.475c.2.99,2.453,9.456,2.977,10.241a.685.685,0,0,0,.4.343.614.614,0,0,0,.344-.088l1.063-.508a.668.668,0,0,0,.246-.168.916.916,0,0,0,.152-.522c.076-1.079-2.183-9.6-2.47-10.623a95.453,95.453,0,0,1-2.589-9.229,7.913,7.913,0,0,0-.76-2.951c-.214-.292-.142-.168-.4-.015a2.765,2.765,0,0,0-.376.245A1.647,1.647,0,0,0,439.855,228.654Z" transform="translate(-376.634 -203.035)" fill="#464353" stroke="#707070" stroke-width="1"/>
      <path id="Path_85" data-name="Path 85" d="M556.62,320.79" transform="translate(-472.947 -276.015)" fill="#464353" stroke="#707070" stroke-width="1"/>
      <path id="Path_86" data-name="Path 86" d="M458.253,228.657q.428,2.822.872,5.639l4.161-1.359a4.349,4.349,0,0,0-.354-1.547c-.379-1.187-.388-2.509-.695-3.729-.232-.928-.636-1.782-.854-2.717-.126-.544-.19-1.105-.314-1.656a13.965,13.965,0,0,0-.489-1.58,10.871,10.871,0,0,0-.907-2.1,2.676,2.676,0,0,0-1.4,1.134,2.913,2.913,0,0,0-.259,1.105c-.073,1.165.266,2.336.154,3.495A12.783,12.783,0,0,0,458.253,228.657Z" transform="translate(-391.805 -197.2)" fill="#e9be4e" stroke="#707070" stroke-width="1"/>
      <path id="Path_87" data-name="Path 87" d="M477.475,334.2a7.6,7.6,0,0,1-.381,3.362,31.748,31.748,0,0,0-.847,5.062,5.34,5.34,0,0,1-.209,1.28c-.131.369-.354.681-.507,1.032a6.358,6.358,0,0,0-.317,3.108c.06.7.151,1.39.262,2.076a6.505,6.505,0,0,1,.108,2.531c.33-.091.553.442.532.86a2.84,2.84,0,0,0,.032,1.245c.408.186.411.884.4,1.426a14.815,14.815,0,0,0,.284,2.785q.925,5.548,1.964,11.066c1.5.579,3.247,1.183,4.675.38a1.085,1.085,0,0,0,.592-.743,1.6,1.6,0,0,0-.057-.57l-.677-3.073a6.945,6.945,0,0,1-.243-2.272,3.337,3.337,0,0,0,.041-1.682c-.076-.172-.2-.307-.285-.471a4.6,4.6,0,0,1-.14-2.3,2.263,2.263,0,0,0-.028-.526,3,3,0,0,0-.2-.577,10.672,10.672,0,0,1-.78-4.39,1.332,1.332,0,0,0-.062-.573,1.985,1.985,0,0,1-.115-.234.787.787,0,0,1,.037-.422,3.559,3.559,0,0,1-.546-.663,1,1,0,0,0,.356-.705,1.1,1.1,0,0,0-.225-.785.449.449,0,0,0,.306-.355.58.58,0,0,0-.116-.5c-.087-.075-.2-.108-.264-.221a.66.66,0,0,1,.06-.566l.413-.931c.308-.692.377-1.547.709-2.21a18.891,18.891,0,0,0,1.092-3.108l1.193-4.1.8.869a3.06,3.06,0,0,1,.659.937,4.891,4.891,0,0,1,.214,1.123c.294,2.228,1.418,4.16,1.834,6.355a4.931,4.931,0,0,0,.379,1.419,3.246,3.246,0,0,1,.216.407,2.647,2.647,0,0,1,.09.674,3.357,3.357,0,0,0,1.063,2.255c.4.338.886.57,1.1,1.105a2.322,2.322,0,0,0,.177.471c.191.287.6.32.686.681.046.2-.039.442.051.619a.5.5,0,0,0,.2.183l1.154.718c1.29.8,1.949,2.653,2.9,4a8.722,8.722,0,0,1,.868,1.432c.411.917.6,2.069,1.3,2.653a2.06,2.06,0,0,1,.5.466,2.827,2.827,0,0,1,.158,1.311c.02.451.3.988.64.851a3.9,3.9,0,0,0,0,1.669,6.1,6.1,0,0,0,4.087-2.065,2.146,2.146,0,0,0,.665-1.393.6.6,0,0,0-.05-.276.669.669,0,0,0-.26-.245c-1.079-.729-1.4-2.42-1.949-3.793a34.575,34.575,0,0,0-1.772-3.38c-1.283-2.42-2.158-5.349-4.1-6.947A3.1,3.1,0,0,1,495,349.283c-.119-.325-.133-.7-.227-1.032s-.319-.663-.606-.663a5.728,5.728,0,0,0,.138-1.6,2.5,2.5,0,0,0-.064-.692,3.724,3.724,0,0,0-.285-.685,7.876,7.876,0,0,1-.73-3.537,7.213,7.213,0,0,0-.05-1.908c-.078-.307-.214-.588-.308-.884a6.781,6.781,0,0,1-.222-1.662l-.106-2.124a12.906,12.906,0,0,0-.22-2.1c-.354-1.649-.709-8.557-1.923-9.335s-3.3,4.538-4.666,4.642a5.032,5.032,0,0,0-1.772.427,8.752,8.752,0,0,0-2.414,1.989l-2.513,2.633A9.745,9.745,0,0,1,477.475,334.2Z" transform="translate(-405.925 -277.719)" fill="#464353" stroke="#707070" stroke-width="1"/>
      <path id="Path_88" data-name="Path 88" d="M415.2,164.482A2.984,2.984,0,0,1,417.64,163a4.812,4.812,0,0,1,2.7.844,3,3,0,0,0,.787.4c.443.113.936-.038,1.336.221.532.351.634,1.247.588,1.989a4.5,4.5,0,0,0,.159,2.21,5.352,5.352,0,0,1,.307.577,2.357,2.357,0,0,1-.025,1.229,7.976,7.976,0,0,1-.509-.811c-.184-.256-.505-.429-.734-.237s-.225.542-.237.855-.076.69-.314.791a.466.466,0,0,1-.532-.259c-.406-.619-.243-1.607-.645-2.23-.229-.354-.61-.526-.821-.9-.167-.292-.209-.663-.354-.977s-.484-.544-.709-.327a1.212,1.212,0,0,0-.19.316.976.976,0,0,1-1.294.486,1.972,1.972,0,0,0-.56-.3.677.677,0,0,0-.64.442,2.078,2.078,0,0,0-.177.924,2.607,2.607,0,0,1-.138,1.267,1.2,1.2,0,0,1-.284.336c-.3.237-.709.4-.982.126a1.068,1.068,0,0,1-.22-.858,8.3,8.3,0,0,1,.209-.906c.156-.685-.048-1.457.122-2.1A7.337,7.337,0,0,1,415.2,164.482Z" transform="translate(-355.712 -153.1)" fill="#464353" stroke="#707070" stroke-width="1"/>
      <path id="Path_89" data-name="Path 89" d="M432.758,207.075a.99.99,0,0,0,.039.48.7.7,0,0,0,.209.25,3.744,3.744,0,0,0,1.974.8.51.51,0,0,1,.273.088.7.7,0,0,1,.115.685,2.164,2.164,0,0,0-.126.729.936.936,0,0,0,.861.732,1.687,1.687,0,0,0,1.5-.365,3.015,3.015,0,0,0,.618-1.156c1.017-2.916,1.373-6.138,2.4-9.045a2.273,2.273,0,0,0,.154-.606.669.669,0,0,0-.191-.557c-.191-.148-.489-.064-.618-.3-.064-.117-.057-.276-.113-.4-.119-.263-.431-.221-.643-.374-.167-.111-.282-.338-.468-.382a.543.543,0,0,0-.484.261A8.349,8.349,0,0,0,437,200.558a34.044,34.044,0,0,1-1.8,4.165,2.684,2.684,0,0,0-.564-1.377c-.317-.08-.723.615-.895.873A6.326,6.326,0,0,0,432.758,207.075Z" transform="translate(-371.024 -180.098)" fill="#e9be4e" stroke="#707070" stroke-width="1"/>
      <path id="Path_90" data-name="Path 90" d="M459.976,200.32a.806.806,0,0,0-.657.411,2.766,2.766,0,0,0-.275,1.105,11.175,11.175,0,0,1-1.044,3.5" transform="translate(-391.804 -182.174)" stroke="#707070" stroke-width="1" opacity="0.1"/>
      <path id="Path_91" data-name="Path 91" d="M465.265,204.31a1.006,1.006,0,0,0-.859.643,4.36,4.36,0,0,0-.216,1.092,6.747,6.747,0,0,1-.859,2.3" transform="translate(-396.189 -185.282)" stroke="#707070" stroke-width="1" opacity="0.1"/>
      <path id="Path_92" data-name="Path 92" d="M251.6,363.285v-2.745c0-4.208-2.736-7.62-6.11-7.619H158.57c-3.374,0-6.109,3.411-6.11,7.62V365.6Z" transform="translate(-140.409 -301.043)" fill="#33323d" stroke="#707070" stroke-width="1"/>
      <path id="Path_93" data-name="Path 93" d="M323.363,278.718s-.248,19.2,2.481,25.518,3.9,33.8,3.9,33.8,28.609,3.691,48.546-4.421,62.358-11.43,62.358-11.43l-7.149-60.1s-35.317-2.825-55.408,9.127S323.363,278.718,323.363,278.718Z" transform="translate(-281.021 -230.059)" fill="#8dd070" stroke="#707070" stroke-width="1"/>
      <path id="Path_94" data-name="Path 94" d="M323.363,278.718s-.248,19.2,2.481,25.518,3.9,33.8,3.9,33.8,28.609,3.691,48.546-4.421,62.358-11.43,62.358-11.43l-7.149-60.1s-35.317-2.825-55.408,9.127S323.363,278.718,323.363,278.718Z" transform="translate(-281.021 -230.059)" stroke="#707070" stroke-width="1" opacity="0.1"/>
      <path id="Path_95" data-name="Path 95" d="M358.3,300.686s-.895,15.842,1.35,20.9S362,349.25,362,349.25s25.747,1.49,44.062-6.287,56.8-12.821,56.8-12.821l-4.374-49.15s-31.845-.409-50.431,10.537S358.3,300.686,358.3,300.686Z" transform="translate(-309.629 -245.013)" fill="#0065b3" stroke="#707070" stroke-width="1"/>
      <path id="Path_168" data-name="Path 168" d="M7.211.02c3.706-.112,6.515,7.779,6.275,17.626S10.047,35.565,6.341,35.677-.174,27.9.066,18.052,3.505.132,7.211.02Z" transform="translate(87.448 54.331) rotate(-7.1)" stroke="#707070" stroke-width="1" opacity="0.1"/>
      <path id="Path_96" data-name="Path 96" d="M367.93,130.66s-34.31,10.831-50.49,29.9-50.24,28.093-50.24,28.093,4.487,18.367,8.637,23.336,12.022,30.681,12.022,30.681,28.136-7.44,45.113-22.8,56.544-34.755,56.544-34.755Z" transform="translate(-234.816 -127.912)" stroke="#707070" stroke-width="1" opacity="0.2"/>
      <path id="Path_97" data-name="Path 97" d="M264.29,176.217s4.485,18.369,8.632,23.338,12.022,30.679,12.022,30.679,28.14-7.438,45.119-22.8S386.6,172.689,386.6,172.689L365.018,118.23s-34.309,10.831-50.488,29.9S264.29,176.217,264.29,176.217Z" transform="translate(-232.422 -118.23)" fill="#8dd070" stroke="#707070" stroke-width="1"/>
      <path id="Path_98" data-name="Path 98" d="M264.29,176.217s4.485,18.369,8.632,23.338,12.022,30.679,12.022,30.679,28.14-7.438,45.119-22.8S386.6,172.689,386.6,172.689L365.018,118.23s-34.309,10.831-50.488,29.9S264.29,176.217,264.29,176.217Z" transform="translate(-232.422 -118.23)" fill="#e9be4e" stroke="#707070" stroke-width="1" opacity="0.1"/>
      <path id="Path_99" data-name="Path 99" d="M308,198.6s3.046,15.422,6.429,19.379,9.038,25.42,9.038,25.42,24.87-8.44,40.389-22.852,50.912-33.924,50.912-33.924L398.515,141.5s-30.408,11.8-45.406,29.331S308,198.6,308,198.6Z" transform="translate(-268.386 -136.356)" fill="#e61030" stroke="#707070" stroke-width="1"/>
      <path id="Path_169" data-name="Path 169" d="M8.648.086C12.5-.264,15.019,7.176,14.27,16.7S9.788,34.238,5.934,34.587-.438,27.5.312,17.969,4.793.435,8.648.086Z" transform="translate(74.917 46.126) rotate(-24.97)" stroke="#707070" stroke-width="1" opacity="0.1"/>
      <path id="Path_100" data-name="Path 100" d="M253.973,384.908v76.261c0,3.643-2.368,6.6-5.288,6.594H157.775c-2.919,0-5.285-2.953-5.285-6.594V377.22c2.605,1.207,2.605,1.207,5.285,1.105h90.911C251.6,378.325,253.967,381.27,253.973,384.908Z" transform="translate(-140.434 -319.971)" stroke="#707070" stroke-width="1" opacity="0.1"/>
      <path id="Path_101" data-name="Path 101" d="M253.973,389.29v76.261c0,3.642-2.368,6.594-5.288,6.594H157.775c-2.919,0-5.285-2.953-5.285-6.594V381.6c2.605,1.2,2.605,1.2,5.285,1.105h90.911C251.6,382.705,253.968,385.652,253.973,389.29Z" transform="translate(-140.434 -323.383)" fill="#e9be4e" stroke="#707070" stroke-width="1"/>
      <path id="Path_102" data-name="Path 102" d="M590.259,543.936v24.388H571.3c-5.4,0-9.777-5.459-9.777-12.194s4.377-12.2,9.777-12.2Z" transform="translate(-476.978 -449.834)" stroke="#707070" stroke-width="1" opacity="0.1"/>
      <path id="Path_103" data-name="Path 103" d="M591.719,541v24.392H572.757c-5.4,0-9.777-5.459-9.777-12.194s4.377-12.2,9.777-12.2Z" transform="translate(-478.18 -447.548)" fill="#e61030" stroke="#707070" stroke-width="1"/>
      <ellipse id="Ellipse_17" data-name="Ellipse 17" cx="3.812" cy="4.755" rx="3.812" ry="4.755" transform="translate(91.674 101.542)" stroke="#707070" stroke-width="1" opacity="0.1"/>
      <ellipse id="Ellipse_18" data-name="Ellipse 18" cx="3.812" cy="4.755" rx="3.812" ry="4.755" transform="translate(91.933 100.897)" fill="#e9be4e" stroke="#707070" stroke-width="1"/>
      <path id="Path_104" data-name="Path 104" d="M853.246,528.024c.151,2.036-1.085,4.012-.725,6.006.078.427.225.829.278,1.26a5.616,5.616,0,0,1-.957,3.3l-4.643,8.5a5.231,5.231,0,0,1-.663,1.021c-.886.986-2.219.884-3.385,1.178a5.3,5.3,0,0,0-2.268,1.251.214.214,0,0,0-.021.248,1.832,1.832,0,0,0,1.687.988.539.539,0,0,1-.177.639c-.25.221-.592.274-.642.8a1.052,1.052,0,0,0,.085.531,1.363,1.363,0,0,0,.812.705c1.607.612,3.344-.464,4.547-1.93s2.066-3.316,3.247-4.808c.654-.825,1.4-1.532,2.07-2.332a29.717,29.717,0,0,0,3.4-5.48,6.832,6.832,0,0,0,.735-1.866c.128-.679.067-1.364.211-2.02a7.948,7.948,0,0,1,1.113-2.27,8.814,8.814,0,0,0,1.265-4.887,4.756,4.756,0,0,0-2.293-4.056,1.662,1.662,0,0,0-1.285-.1,3.277,3.277,0,0,0-1.308,1.3l-.886,1.271a3.125,3.125,0,0,0-.514.973,1.21,1.21,0,0,0,.177,1.081" transform="translate(-706.793 -434.782)" fill="#fbbebe" stroke="#707070" stroke-width="1"/>
      <path id="Path_105" data-name="Path 105" d="M853.246,528.024c.151,2.036-1.085,4.012-.725,6.006.078.427.225.829.278,1.26a5.616,5.616,0,0,1-.957,3.3l-4.643,8.5a5.231,5.231,0,0,1-.663,1.021c-.886.986-2.219.884-3.385,1.178a5.3,5.3,0,0,0-2.268,1.251.214.214,0,0,0-.021.248,1.832,1.832,0,0,0,1.687.988.539.539,0,0,1-.177.639c-.25.221-.592.274-.642.8a1.052,1.052,0,0,0,.085.531,1.363,1.363,0,0,0,.812.705c1.607.612,3.344-.464,4.547-1.93s2.066-3.316,3.247-4.808c.654-.825,1.4-1.532,2.07-2.332a29.717,29.717,0,0,0,3.4-5.48,6.832,6.832,0,0,0,.735-1.866c.128-.679.067-1.364.211-2.02a7.948,7.948,0,0,1,1.113-2.27,8.814,8.814,0,0,0,1.265-4.887,4.756,4.756,0,0,0-2.293-4.056,1.662,1.662,0,0,0-1.285-.1,3.277,3.277,0,0,0-1.308,1.3l-.886,1.271a3.125,3.125,0,0,0-.514.973,1.21,1.21,0,0,0,.177,1.081" transform="translate(-706.793 -434.782)" stroke="#707070" stroke-width="1" opacity="0.05"/>
      <path id="Path_106" data-name="Path 106" d="M911.888,768.853a4.448,4.448,0,0,1-3.456.639c-.19-.029-.415-.046-.532.137-.177.265.032.663.248.869a4.626,4.626,0,0,0,2.373,1.218,12.577,12.577,0,0,0,2.321.192,31.53,31.53,0,0,0,6.346-.29.77.77,0,0,0,.354-.128.844.844,0,0,0,.262-.5,2.259,2.259,0,0,0-.551-1.883,4.428,4.428,0,0,0-1.48-.99l-1.843-.9c-.432-.21-1.125-.767-1.595-.723C913.455,766.581,912.62,768.318,911.888,768.853Z" transform="translate(-761.921 -623.201)" fill="#3f3d56" stroke="#707070" stroke-width="1"/>
      <path id="Path_107" data-name="Path 107" d="M911.888,768.853a4.448,4.448,0,0,1-3.456.639c-.19-.029-.415-.046-.532.137-.177.265.032.663.248.869a4.626,4.626,0,0,0,2.373,1.218,12.577,12.577,0,0,0,2.321.192,31.53,31.53,0,0,0,6.346-.29.77.77,0,0,0,.354-.128.844.844,0,0,0,.262-.5,2.259,2.259,0,0,0-.551-1.883,4.428,4.428,0,0,0-1.48-.99l-1.843-.9c-.432-.21-1.125-.767-1.595-.723C913.455,766.581,912.62,768.318,911.888,768.853Z" transform="translate(-761.921 -623.201)" stroke="#707070" stroke-width="1" opacity="0.05"/>
      <path id="Path_108" data-name="Path 108" d="M931.5,593.118a7.009,7.009,0,0,0-1.372,4.319,11.117,11.117,0,0,0,.764,2.383,20.1,20.1,0,0,1,.773,3.351c.287,1.667.576,3.338.751,5.031.2,1.912-.741,7.445-.828,9.37a2.328,2.328,0,0,1-.324,1.3,1.234,1.234,0,0,0-.282.411.856.856,0,0,0,.062.486,4.823,4.823,0,0,0,2.3,2.639,15.428,15.428,0,0,0,4.443,1.457.726.726,0,0,0,.418-.069.981.981,0,0,0,.323-.462c.771-1.839.03-8.378.041-10.453.011-1.731.339-3.451.278-5.179-.05-1.388-.354-2.745-.455-4.129a30.208,30.208,0,0,1,.491-6.788c.255-1.72.512-3.44.84-5.137a11.491,11.491,0,0,1,.886-2.982c.354-.714.852-1.311,1.265-1.989A10.663,10.663,0,0,0,943.3,580.1c-.025-.221-2.658.833-2.89.959a9.057,9.057,0,0,0-2.577,2.067,26.805,26.805,0,0,0-1.623,2.5q-1.132,1.722-2.236,3.468Q932.708,591.1,931.5,593.118Z" transform="translate(-780.241 -477.984)" fill="#464353" stroke="#707070" stroke-width="1"/>
      <path id="Path_109" data-name="Path 109" d="M931.5,592.807a7.013,7.013,0,0,0-1.372,4.319,11.1,11.1,0,0,0,.764,2.385,20.079,20.079,0,0,1,.773,3.349c.287,1.669.576,3.34.751,5.031.2,1.914-.741,7.445-.828,9.37a2.336,2.336,0,0,1-.324,1.3,1.2,1.2,0,0,0-.282.409.853.853,0,0,0,.062.486,4.89,4.89,0,0,0,2.3,2.653,14.143,14.143,0,0,0,4.443,1.037.725.725,0,0,0,.418-.068.965.965,0,0,0,.323-.46c.771-1.839.03-7.958.041-10.036.011-1.733.339-3.451.278-5.181-.05-1.388-.354-2.745-.455-4.127a30.218,30.218,0,0,1,.491-6.791c.255-1.718.512-3.437.84-5.137a11.491,11.491,0,0,1,.886-2.982c.354-.714.852-1.311,1.265-1.989A10.658,10.658,0,0,0,943.3,579.8c-.025-.221-2.658.833-2.89.959a9.1,9.1,0,0,0-2.577,2.069,26.484,26.484,0,0,0-1.623,2.5q-1.132,1.722-2.236,3.47Q932.708,590.785,931.5,592.807Z" transform="translate(-780.241 -477.75)" stroke="#707070" stroke-width="1" opacity="0.05"/>
      <ellipse id="Ellipse_19" data-name="Ellipse 19" cx="4.301" cy="5.365" rx="4.301" ry="5.365" transform="translate(138.42 76.363)" fill="#fbbebe" stroke="#707070" stroke-width="1"/>
      <path id="Path_110" data-name="Path 110" d="M892.642,483.332a5.754,5.754,0,0,0,3.571,3.108l-.324,1.47c-.56,2.524-1.189,5.195-2.752,6.945a3.877,3.877,0,0,0-.436-2.511,8.909,8.909,0,0,0-1.46-1.9l-2.476-2.675a.91.91,0,0,1-.177-.261.967.967,0,0,1,0-.588,6.961,6.961,0,0,1,1.949-2.816,8.2,8.2,0,0,0,.98-1.424C892.011,481.8,892.318,482.682,892.642,483.332Z" transform="translate(-746.047 -401.83)" fill="#fbbebe" stroke="#707070" stroke-width="1"/>
      <path id="Path_111" data-name="Path 111" d="M852.872,448.39l-.1-1.008c.679.221,1.324-.5,1.758-1.245s.836-1.622,1.5-1.934c.8-.376,1.653.221,2.421.725a6.656,6.656,0,0,0,2.777,1.127,1.5,1.5,0,0,1,.459.093c.5.221.737,1,.81,1.713a8.2,8.2,0,0,0,.3,2.1c.177.48.507.836.709,1.309.532,1.269.018,3,.572,4.249l-1.379-1.576c-.126-.144-.3-.294-.443-.172-.11.1-.119.307-.163.475a.673.673,0,0,1-.982.442,3.149,3.149,0,0,1-.886-1,5.688,5.688,0,0,0-2.187-2.069,2.313,2.313,0,0,0-2.3.19c-.643.453-1.115,1.51-1.9,1.547-1.081.051-1.531-2.46-2.031-3.453a1.417,1.417,0,0,0,.284-1.521C852.156,448.339,852.856,448.236,852.872,448.39Z" transform="translate(-715.817 -372.056)" fill="#464353" stroke="#707070" stroke-width="1"/>
      <path id="Path_112" data-name="Path 112" d="M551.183,317.19a9.848,9.848,0,0,0-.955,1.251,2.923,2.923,0,0,0-.439,1.607.965.965,0,0,0,.124.471.284.284,0,0,0,.354.135.529.529,0,0,0,.177-.195q.281-.421.6-.8c.076-.1.177-.195.28-.159a.3.3,0,0,1,.12.1,1.071,1.071,0,0,1,.25.486,1.321,1.321,0,0,1-.275.942,2.514,2.514,0,0,0-.463.853.466.466,0,0,0,0,.274.362.362,0,0,0,.138.146,1.632,1.632,0,0,0,1.673.137c.354-.179.67-.486,1.035-.645a2.13,2.13,0,0,0,.457-.221,1.23,1.23,0,0,0,.406-.758,3.884,3.884,0,0,0,.027-.931,12.993,12.993,0,0,0-.61-3.5.457.457,0,0,0-.1-.186.28.28,0,0,0-.177-.06c-.454-.06-1.2-.349-1.636-.139a1.287,1.287,0,0,0-.386.429C551.7,316.536,551.183,317.042,551.183,317.19Z" transform="translate(-467.326 -272.221)" fill="#ffb9b9" stroke="#707070" stroke-width="1"/>
      <path id="Path_113" data-name="Path 113" d="M527.308,246.612c0-.539-.532-1.841.314-1.928,0-.577-.654-.935-.532-1.547a5.318,5.318,0,0,0,.193-.577c.053-.59-.8-.911-.659-1.477.053-.221.241-.349.282-.568.1-.511-.636-.738-.65-1.262,0-.177.08-.343.073-.519a1.487,1.487,0,0,0-.239-.581c-.221-.493-.113-1.256-.517-1.51.268.029.354-.466.245-.769a2.755,2.755,0,0,1-.337-.9,1.7,1.7,0,0,0,0-.367c-.074-.323-.5-.349-.569-.663a3.52,3.52,0,0,1-.009-.363.613.613,0,0,0-.427-.48,1.535,1.535,0,0,1-.571-.254c-.124-.117-.268-.312-.4-.221a.679.679,0,0,0-.112.161c-.16.232-.464.13-.665-.04a3.684,3.684,0,0,1-1.012-2.279c-.126-.878-.122-1.784-.28-2.653a6.75,6.75,0,0,0-.191-.8,4.724,4.724,0,0,1-.3-.791c-.032-.508.812-.161,1.132-.111a4.168,4.168,0,0,1,.92.221,8.97,8.97,0,0,1,.941.515c1.279.705,2.825.791,3.853,1.976.339.389.624.9,1.063,1.076a4.063,4.063,0,0,1,.6.192c.487.285.564,1.092.829,1.676a3.584,3.584,0,0,1,.218.486,2.308,2.308,0,0,1,.071.619l.037,1.532a70.432,70.432,0,0,1-.1,7.69,7.836,7.836,0,0,0,.023,2.518c.053.221.128.429.177.652a4.926,4.926,0,0,1,.067.8l.028.992a.372.372,0,0,1-.039.221.219.219,0,0,1-.214.064c-1.108-.124-2.228-.9-3.273-.431" transform="translate(-443.594 -202.142)" fill="#464353" stroke="#707070" stroke-width="1"/>
      <ellipse id="Ellipse_20" data-name="Ellipse 20" cx="13.107" cy="2.363" rx="13.107" ry="2.363" transform="translate(121.152 116.005)" fill="#504f60" stroke="#707070" stroke-width="1"/>
      <path id="Path_114" data-name="Path 114" d="M716.431,281.547c-.23-1.231-.374-2.312-.374-2.312a5.789,5.789,0,0,0-.429-2.345v-.336h0v-2.476a9.48,9.48,0,0,1,.5-1.3c.354-.778,0-3.63,0-3.63s-1.324-4.021-1-6.572-2.719-11.326-2.719-11.326a13.79,13.79,0,0,1,.285-2.507,2.368,2.368,0,0,0,.039-.526v-.044a23.21,23.21,0,0,0-1.113-4.834l.144-6.008a21.906,21.906,0,0,0-.429-8.3c-.388-1.66-.636-2.989-.794-4.014-.018-.115-.035-.221-.05-.334,2.284-.442,4.03-.8,4.03-.8s-1.326-6.917-2.22-8.128-1.611-5.016-1.611-5.016-.466-4.883.287-6.311a11.412,11.412,0,0,0,.859-3.89,9.772,9.772,0,0,0,1.933-2.248,13.891,13.891,0,0,0,.572-3.068c0-.82-.214-1.547-.143-1.989s-.5-2.076-.214-2.854a2.554,2.554,0,0,0,.113-.749.122.122,0,0,0,0-.022h0a13.037,13.037,0,0,0-.151-2.029,4.417,4.417,0,0,0-1.7-1.134l-.037-.186-.1-.486a1.861,1.861,0,0,0-.168-.124v-.177l-.016-.7.269-1.578c.532-2.745-2.408-3.154-2.408-3.154a1.718,1.718,0,0,0-.833-.911c-.59-.259-.1,4.129.177,4.421a18.262,18.262,0,0,1,1.159,2.264h0l.05.111a1.449,1.449,0,0,0-.135.177l.112.953.018.146a4.265,4.265,0,0,0-.47,1,2.461,2.461,0,0,1,.431,1.547,6.1,6.1,0,0,0,.177,1.9c-.032-.046-.409-.555-.787-.431s-1.432.519-1.432.519-.787.172-.709.389-.532,1.167-.532,1.167l-2.116-2.5c-.021-.075-.044-.15-.062-.221a7.439,7.439,0,0,1-.177-1.105,4.18,4.18,0,0,0,.677-.267,1.47,1.47,0,0,0,.585-.469,3.285,3.285,0,0,0,.342-1.138,19.039,19.039,0,0,1,.785-2.184,8.72,8.72,0,0,0,.4-3.93,3,3,0,0,0-.324-1.149c-.346-.592-.973-.833-1.428-1.306s-.75-1.2-1.281-1.547a2.079,2.079,0,0,0-1.606-.172,7.647,7.647,0,0,0-3,1.362c-.308.221-.649.493-1,.411a1.372,1.372,0,0,1-.723-.663.272.272,0,0,1,.009-.035.219.219,0,0,1-.023-.035,5.662,5.662,0,0,0-.33,1.976,3.053,3.053,0,0,0,.011.316v.2h0a.617.617,0,0,1-.016.139,1.039,1.039,0,0,1-.2.356,2.432,2.432,0,0,0-.177.294.432.432,0,0,1,.028-.108,1.848,1.848,0,0,0-.22.833.994.994,0,0,0,.159.6,2.479,2.479,0,0,0,.346.345,6.239,6.239,0,0,0-.064.884,5.46,5.46,0,0,0,2,4.357c.025.073.048.148.071.221a7.7,7.7,0,0,1,.385,2.874,1.662,1.662,0,0,1-.025.208c-.009.069-.053.073-.076.111h0s-3.5.044-4.319-.884-2.077,2.27-2.077,2.27-1.253.3-1.5,0-1.717-.042-1.717-.042a2.819,2.819,0,0,0-2.185-.995,6.192,6.192,0,0,0-1.595-1.105h0l-.039-.018h0a1.46,1.46,0,0,0-.789-.124,18.234,18.234,0,0,1-2.22-2.723c-.5-.955-2.889-4.481-2.9-4.5v-.17l-.027-.513a1.189,1.189,0,0,1-.214.022c-.012-.051-.03-.111-.048-.179a11.3,11.3,0,0,0-.507-1.452s0-.648.151-.811a13.916,13.916,0,0,0-.062-2.54s-1.549-4.516-2.936-1.145c0,0-2.623,2.182-.422,4.724,0,0,.886.531,1,.951.081.272.379,1.035.58,1.547l.09.221-.025.027.032.424.014.164c-.415.294-.7.586-.627.8a5.809,5.809,0,0,1,.25,1.167s3.045,4.757,3.438,6.788c0,0,8.164,6.052,10.849,6.483l-.475,3.017q-.1,1.228-.106,2.465c.036.648-.323,3.588-.323,3.588s-.466,4.324-.859,4.929-.323,3.2-.323,3.2a26.781,26.781,0,0,1-.532,3.674,11.663,11.663,0,0,0-.108,3.676s-1.359,3.89,1.9,1.253c0,0,1.595-.124,3.442-.2v.221c0,.3,0,.617-.012.953-.025,2.228-.035,5.305.046,7.622.143,4.107,1.147,12.235,1.147,12.235v4.092a6.9,6.9,0,0,0-.1,1.167,9.071,9.071,0,0,0,.886,4.087l.252,2.723a12.74,12.74,0,0,1,.6,2.874,1.856,1.856,0,0,1-.025.259,2.161,2.161,0,0,0-.028.418,28.854,28.854,0,0,0,.564,4.2s.035,2.982.393,3.157c.307.148-.409,1.718-.622,2.168a.757.757,0,0,1-.012-.084l-.044.088a2.589,2.589,0,0,0-.112.756,1.194,1.194,0,0,0,.4,1.048c.681.519,1.046.951.468,1.123a5,5,0,0,0-.631.166.4.4,0,0,0-.03-.1.5.5,0,0,0-.236.522,2.65,2.65,0,0,0,.211,1,11.875,11.875,0,0,0,.969,2.21l.275-.038a1.836,1.836,0,0,1-.159.369,1.265,1.265,0,0,1-.4.442,1.1,1.1,0,0,1-.491.21,1.3,1.3,0,0,0-1.014.615,1.532,1.532,0,0,0,.124,2.051l2.561,1.105s4.406.714,4.172-.519-.376-2.312-.376-2.312a5.924,5.924,0,0,0-.354-2.186,3.045,3.045,0,0,0-.156-.323l.156-.02a12.1,12.1,0,0,1,.751-3.243c.1-.119.122-.221.1-.283.044-.148-.069-.234-.213-.285l-.032.108a1.7,1.7,0,0,0-.427-.06s-.143-1.426.323-1.945a.654.654,0,0,0,.09-.424,2.821,2.821,0,0,0-.05-.581.309.309,0,0,1-.016.035,24.276,24.276,0,0,0-1.028-3.353,5.027,5.027,0,0,1,.252-1.815c.287-.519-.037-7.047-.037-7.047a26.543,26.543,0,0,0-.214-4.624,6.3,6.3,0,0,1,.393-3.2V251.4l-.041-.5a.15.15,0,0,0,0,.031c-.073-.836-.209-2.35-.31-3.048-.144-.995.037-5.747.037-5.747l.643-2.034,1.147,3.5,1.217,4.669a4.553,4.553,0,0,1,.617,1.989v.146c-.01.1-.015.208-.014.312a3.3,3.3,0,0,0,.37,1.665,8.414,8.414,0,0,0,.824,2.765,2.9,2.9,0,0,1,.5,1.642,34.293,34.293,0,0,0,.886,3.758,6.871,6.871,0,0,1,.252,2.173h0v.115s.085,1.145.082,2.1v.343a.125.125,0,0,0,0-.024,4.115,4.115,0,0,1-.074.778l-.011.044a.7.7,0,0,1,.012-.161,10.051,10.051,0,0,0-.177,1.989,6.149,6.149,0,0,0,.682,3.316c.968,1.384,1.575,1.211,1.575,1.211s-.464,1.729-1.038,2.076a.27.27,0,0,0-.06.049.908.908,0,0,0-.014-.1.978.978,0,0,0-.177.645,5.419,5.419,0,0,0,.709,2.562,1.136,1.136,0,0,0,.484.354.763.763,0,0,1-.09.069,1.794,1.794,0,0,1-.2.117.874.874,0,0,1-.292.1,1.286,1.286,0,0,0-1.014.615,1.53,1.53,0,0,0,.124,2.049l2.561,1.105S716.662,282.778,716.431,281.547Z" transform="translate(-570.896 -163.064)" stroke="#707070" stroke-width="1" fill="url(#linear-gradient)"/>
      <path id="Path_115" data-name="Path 115" d="M797.195,642.121l-2.481-1.105a1.566,1.566,0,0,1-.12-2.051,1.259,1.259,0,0,1,.982-.615,1.037,1.037,0,0,0,.473-.21,1.268,1.268,0,0,0,.393-.442,2.71,2.71,0,0,0,.282-1.2s2.722-.995,3.466,0a2.613,2.613,0,0,1,.33.6,6.141,6.141,0,0,1,.354,2.186s.138,1.079.363,2.312S797.195,642.121,797.195,642.121Z" transform="translate(-668.479 -521.595)" fill="#2d293d" stroke="#707070" stroke-width="1"/>
      <path id="Path_116" data-name="Path 116" d="M865.635,635.206l-2.481-1.105a1.563,1.563,0,0,1-.121-2.049,1.244,1.244,0,0,1,.98-.615.779.779,0,0,0,.284-.1,1.759,1.759,0,0,0,.191-.117,2.185,2.185,0,0,0,.675-1.642s2.72-.995,3.466,0a2.5,2.5,0,0,1,.26.442,5.978,5.978,0,0,1,.415,2.347s.138,1.081.354,2.312S865.635,635.206,865.635,635.206Z" transform="translate(-724.79 -516.205)" fill="#2d293d" stroke="#707070" stroke-width="1"/>
      <path id="Path_117" data-name="Path 117" d="M810.306,636.49a2.619,2.619,0,0,1,.33.6h0l-4.076.59a2.711,2.711,0,0,0,.282-1.2S809.562,635.5,810.306,636.49Z" transform="translate(-678.594 -521.586)" stroke="#707070" stroke-width="1" opacity="0.1"/>
      <path id="Path_118" data-name="Path 118" d="M876.293,630.044V631c-.634,1.3-3.7,1.017-4.593.365a1.758,1.758,0,0,0,.191-.117,2.185,2.185,0,0,0,.675-1.642s2.72-.995,3.466,0a2.5,2.5,0,0,1,.26.442Z" transform="translate(-732.19 -516.221)" stroke="#707070" stroke-width="1" opacity="0.1"/>
      <path id="Path_119" data-name="Path 119" d="M804.168,436.488a9.787,9.787,0,0,0-.484,1.3V441.2c-.695,1.426-4.3.951-4.785.172s-1-2.8-.448-3.154,1-2.076,1-2.076-.59.172-1.526-1.211-.657-4.452-.484-5.186a19.085,19.085,0,0,0,0-3.2,7.933,7.933,0,0,0-.241-2.292,34.159,34.159,0,0,1-.867-3.758,2.979,2.979,0,0,0-.486-1.642,8.676,8.676,0,0,1-.8-2.767,3.408,3.408,0,0,1-.346-1.859,4.382,4.382,0,0,0-.59-2.248l-1.178-4.671-1.109-3.5-.624,2.031s-.177,4.755-.034,5.747.354,3.632.354,3.632a6.48,6.48,0,0,0-.381,3.2,27.174,27.174,0,0,1,.2,4.629s.312,6.525.034,7.045a5.179,5.179,0,0,0-.243,1.817s1.418,3.8.971,4.321-.312,1.945-.312,1.945.969,0,.555.519a12.489,12.489,0,0,0-.728,3.243l-4.191.612a11.877,11.877,0,0,1-.937-2.21c-.555-1.607.1-1.426.661-1.6s.206-.6-.454-1.123-.276-1.687-.276-1.687,1-2.118.657-2.29-.381-3.157-.381-3.157a23.638,23.638,0,0,1-.519-4.5,10.414,10.414,0,0,0-.555-3.241l-.243-2.723a9.082,9.082,0,0,1-.762-5.146v-4.2s-.971-8.126-1.109-12.233c-.089-2.63-.064-6.22-.035-8.459.018-1.256.035-2.089.035-2.089l14.971-1.945a19.334,19.334,0,0,0,.271,2.774c.154,1.026.393,2.354.769,4.014a22.628,22.628,0,0,1,.417,8.3l-.14,6.01s1.317,4.019,1.04,5.4a14.215,14.215,0,0,0-.28,2.511s2.945,8.776,2.633,11.326.969,6.572.969,6.572S804.515,435.71,804.168,436.488Z" transform="translate(-659.581 -326.771)" fill="#464353" stroke="#707070" stroke-width="1"/>
      <path id="Path_120" data-name="Path 120" d="M852.05,510.028l4.558-.758S854.026,512.557,852.05,510.028Z" transform="translate(-716.023 -422.832)" stroke="#707070" stroke-width="1" opacity="0.05"/>
      <path id="Path_121" data-name="Path 121" d="M870.191,484.14s.156,2.012-.831,2.768C869.36,486.908,871.127,486.563,870.191,484.14Z" transform="translate(-730.265 -403.257)" stroke="#707070" stroke-width="1" opacity="0.1"/>
      <path id="Path_122" data-name="Path 122" d="M847.456,455.2s-3.81,3.913-5.2,3.588S847.456,455.2,847.456,455.2Z" transform="translate(-707.81 -380.714)" stroke="#707070" stroke-width="1" opacity="0.1"/>
      <path id="Path_123" data-name="Path 123" d="M806.322,521s-2.894.82-2.981,2.27S806.322,521,806.322,521Z" transform="translate(-675.944 -431.969)" stroke="#707070" stroke-width="1" opacity="0.1"/>
      <path id="Path_124" data-name="Path 124" d="M809.2,602.56s-4.088.951-2.928,1.6a17.008,17.008,0,0,0,3.068,1.167S810.664,605.411,809.2,602.56Z" transform="translate(-678.19 -495.5)" stroke="#707070" stroke-width="1" opacity="0.05"/>
      <g id="Group_46" data-name="Group 46" transform="translate(123.87 60.989)" opacity="0.05">
        <path id="Path_125" data-name="Path 125" d="M800.138,611.848a1.056,1.056,0,0,1-.374-.738l-.043.091s-.381,1.167.278,1.684c.074.06.147.119.213.177.122-.029.253-.051.379-.091C801.15,612.8,800.8,612.368,800.138,611.848Z" transform="translate(-796.748 -563.149)" stroke="#707070" stroke-width="1"/>
        <path id="Path_126" data-name="Path 126" d="M831.411,609.764a1.3,1.3,0,0,0,.041-.884,3,3,0,0,0-.232,1.251A1.133,1.133,0,0,1,831.411,609.764Z" transform="translate(-822.754 -561.412)" stroke="#707070" stroke-width="1"/>
        <path id="Path_127" data-name="Path 127" d="M827.466,515.59a7.168,7.168,0,0,0-.276,1.589,7.5,7.5,0,0,1,.317-1.092Z" transform="translate(-819.438 -488.744)" stroke="#707070" stroke-width="1"/>
        <path id="Path_128" data-name="Path 128" d="M881.236,503.663a2.519,2.519,0,0,0,.037-.473c-.051.323-.087.621-.113.884C881.183,503.939,881.208,503.811,881.236,503.663Z" transform="translate(-863.844 -479.085)" stroke="#707070" stroke-width="1"/>
        <path id="Path_129" data-name="Path 129" d="M827.747,581.732a3.4,3.4,0,0,0,.1-.962,3.972,3.972,0,0,0-.2,1.214A1.307,1.307,0,0,1,827.747,581.732Z" transform="translate(-819.817 -539.516)" stroke="#707070" stroke-width="1"/>
        <path id="Path_130" data-name="Path 130" d="M805.345,622a20.843,20.843,0,0,0-.477,2.653l-4.191.6a11.877,11.877,0,0,1-.937-2.211q-.067-.186-.119-.38c-.252.144-.354.469-.021,1.417a12.064,12.064,0,0,0,.939,2.21l4.191-.606a12.474,12.474,0,0,1,.727-3.243C805.669,622.195,805.538,622.064,805.345,622Z" transform="translate(-796.564 -571.632)" stroke="#707070" stroke-width="1"/>
        <path id="Path_131" data-name="Path 131" d="M786.7,436.745s.034,2.982.381,3.154h0c.177-.493.292-.962.136-1.039-.354-.172-.381-3.157-.381-3.157a23.643,23.643,0,0,1-.519-4.5,10.415,10.415,0,0,0-.555-3.241l-.243-2.723a9.083,9.083,0,0,1-.762-5.146v-4.2s-.971-8.126-1.109-12.233c-.089-2.63-.064-6.22-.035-8.459,0-.4.011-.763.016-1.065l-.119.015s-.019.831-.035,2.089c-.028,2.239-.055,5.829.035,8.457.138,4.107,1.108,12.235,1.108,12.235v4.2a9.086,9.086,0,0,0,.764,5.144l.241,2.723a10.473,10.473,0,0,1,.555,3.243A23.687,23.687,0,0,0,786.7,436.745Z" transform="translate(-783.448 -394.14)" stroke="#707070" stroke-width="1"/>
        <path id="Path_132" data-name="Path 132" d="M867.574,624.224a5.818,5.818,0,0,1-.665-2.054c-.427.482.064,2.352.532,3.095.484.778,4.088,1.253,4.785-.175v-.822C871.282,625.424,868.032,624.96,867.574,624.224Z" transform="translate(-851.985 -571.765)" stroke="#707070" stroke-width="1"/>
        <path id="Path_133" data-name="Path 133" d="M898.886,609.259a9.868,9.868,0,0,0-.486,1.3v.612c.08-.221.191-.517.354-.867a3.245,3.245,0,0,0,.152-1.072S898.891,609.25,898.886,609.259Z" transform="translate(-878.029 -561.685)" stroke="#707070" stroke-width="1"/>
        <path id="Path_134" data-name="Path 134" d="M863.4,589.938a9.84,9.84,0,0,0,.342-1.028s-.59.172-1.526-1.211c-.68-1.006-.719-2.907-.622-4.149-.177.736-.452,3.8.484,5.188C862.693,589.642,863.155,589.881,863.4,589.938Z" transform="translate(-847.601 -541.682)" stroke="#707070" stroke-width="1"/>
        <path id="Path_135" data-name="Path 135" d="M834,485.288q.092,1.278.069,2.562.026-.2.071-.4a18.715,18.715,0,0,0,0-3.2,7.887,7.887,0,0,0-.243-2.292,33.447,33.447,0,0,1-.858-3.762,2.979,2.979,0,0,0-.486-1.642,8.676,8.676,0,0,1-.8-2.768,3.413,3.413,0,0,1-.354-1.859,4.369,4.369,0,0,0-.588-2.248l-1.179-4.669-1.109-3.5-.626,2.034s0,.256-.021.663l.507-1.651,1.109,3.495,1.178,4.669a4.37,4.37,0,0,1,.588,2.248,3.413,3.413,0,0,0,.354,1.859,8.646,8.646,0,0,0,.8,2.767,2.964,2.964,0,0,1,.484,1.642,34.044,34.044,0,0,0,.867,3.758A7.889,7.889,0,0,1,834,485.288Z" transform="translate(-820.006 -446.618)" stroke="#707070" stroke-width="1"/>
      </g>
      <path id="Path_136" data-name="Path 136" d="M863.027,194.931l-.26,1.578.016.7.011.517-1.446.186-.161-.374h0a17.834,17.834,0,0,0-1.122-2.264c-.268-.279-.744-4.669-.177-4.408a1.692,1.692,0,0,1,.8.909S863.539,192.186,863.027,194.931Z" transform="translate(-722.252 -174.805)" fill="#ffcdd3" stroke="#707070" stroke-width="1"/>
      <path id="Path_137" data-name="Path 137" d="M870.057,219.373l-1.446.186-.161-.374h0a1.1,1.1,0,0,1,1.595-.327Z" transform="translate(-729.516 -196.448)" stroke="#707070" stroke-width="1" opacity="0.1"/>
      <path id="Path_138" data-name="Path 138" d="M870.036,220.806l-1.907.55-.041-.354-.108-.953a1.17,1.17,0,0,1,1.847-.314l.1.484Z" transform="translate(-729.13 -197.026)" fill="#6c63ff" stroke="#707070" stroke-width="1"/>
      <path id="Path_139" data-name="Path 139" d="M683.949,183.323l-2.036,1.362-.177-.477c-.193-.506-.482-1.269-.562-1.547-.12-.42-.969-.951-.969-.951a3.321,3.321,0,0,1,.408-4.724c1.343-3.371,2.835,1.145,2.835,1.145a14.253,14.253,0,0,1,.062,2.54c-.147.159-.147.811-.147.811a11.438,11.438,0,0,1,.491,1.452C683.915,183.175,683.949,183.323,683.949,183.323Z" transform="translate(-573.931 -163.025)" fill="#ffcdd3" stroke="#707070" stroke-width="1"/>
      <path id="Path_140" data-name="Path 140" d="M695,208.646l-2.036,1.362-.177-.477c.287-.3,1.306-1.326,1.641-1.284a1.97,1.97,0,0,0,.482.015C694.97,208.5,695,208.646,695,208.646Z" transform="translate(-584.986 -188.347)" stroke="#707070" stroke-width="1" opacity="0.1"/>
      <path id="Path_141" data-name="Path 141" d="M695.466,210.027l-2.288,1.406-.046-.612-.032-.424s1.326-1.417,1.717-1.362a1.674,1.674,0,0,0,.6,0l.027.513Z" transform="translate(-585.241 -188.961)" fill="#6c63ff" stroke="#707070" stroke-width="1"/>
      <path id="Path_142" data-name="Path 142" d="M808.821,222.73s-9.974,1.4-8.109.648a3,3,0,0,0,1.921-2.7,7.937,7.937,0,0,0-.37-2.874,14.011,14.011,0,0,0-.886-2.248s7.62-5.23,6.1-.475a9.267,9.267,0,0,0-.432,2.252,7.868,7.868,0,0,0,.2,2.281,7.173,7.173,0,0,0,1.583,3.112Z" transform="translate(-673.591 -192.119)" fill="#ffcdd3" stroke="#707070" stroke-width="1"/>
      <path id="Path_143" data-name="Path 143" d="M811.633,215.054a9.264,9.264,0,0,0-.432,2.252,2.976,2.976,0,0,1-2.516.7c-.776,0-1.637.234-2.258-.232a14.01,14.01,0,0,0-.886-2.248S813.159,210.3,811.633,215.054Z" transform="translate(-677.755 -192.096)" stroke="#707070" stroke-width="1" opacity="0.1"/>
      <ellipse id="Ellipse_21" data-name="Ellipse 21" cx="4.124" cy="5.144" rx="4.124" ry="5.144" transform="translate(126.671 15.957)" fill="#ffcdd3" stroke="#707070" stroke-width="1"/>
      <path id="Path_144" data-name="Path 144" d="M808.821,243.827s-9.974,1.4-8.109.648a3,3,0,0,0,1.921-2.7,5.316,5.316,0,0,1,2.127-1.412,2.424,2.424,0,0,1,1.808-.038,2.375,2.375,0,0,1,.658.38A7.161,7.161,0,0,0,808.821,243.827Z" transform="translate(-673.591 -213.217)" stroke="#707070" stroke-width="1" opacity="0.1"/>
      <path id="Path_145" data-name="Path 145" d="M870.538,223.452l-1.907.55-.041-.354a1.522,1.522,0,0,1,1.834-.783Z" transform="translate(-729.631 -199.671)" stroke="#707070" stroke-width="1" opacity="0.1"/>
      <path id="Path_146" data-name="Path 146" d="M695.614,211.832l-2.288,1.406-.046-.612a15.259,15.259,0,0,1,2.3-1.275Z" transform="translate(-585.389 -190.766)" stroke="#707070" stroke-width="1" opacity="0.1"/>
      <path id="Path_147" data-name="Path 147" d="M798.878,388.744c-3.865.769-9.359,1.751-10.231,1.419A20.533,20.533,0,0,0,783.6,390c.018-1.256.035-2.089.035-2.089l14.971-1.945A19.325,19.325,0,0,0,798.878,388.744Z" transform="translate(-659.703 -326.787)" stroke="#707070" stroke-width="1" opacity="0.1"/>
      <path id="Path_148" data-name="Path 148" d="M725.63,252.191s-12.719,2.723-14.083,2.21-8.373.042-8.373.042c-3.154,2.637-1.838-1.253-1.838-1.253a12.023,12.023,0,0,1,.1-3.674,27.524,27.524,0,0,0,.523-3.678,10.581,10.581,0,0,1,.312-3.2c.381-.606.833-4.927.833-4.927s.346-2.94.312-3.588.1-2.465.1-2.465l.452-3.026c-2.6-.431-10.5-6.483-10.5-6.483-.381-2.031-3.326-6.786-3.326-6.786a6.028,6.028,0,0,0-.243-1.167c-.207-.692,2.912-2.076,2.912-2.076s2.321,3.537,2.807,4.5a17.9,17.9,0,0,0,2.148,2.723,1.368,1.368,0,0,1,.762.124l.041.015h0a6.009,6.009,0,0,1,1.551,1.105,2.7,2.7,0,0,1,2.114.995s1.418-.261,1.664.042,1.455,0,1.455,0,1.212-3.2,2.01-2.27,4.18.884,4.18.884a4.736,4.736,0,0,1,2.233-1.547,2.434,2.434,0,0,1,1.808-.038,2.156,2.156,0,0,1,.709.442l2.057,2.507s.588-.953.519-1.167.693-.389.693-.389,1-.389,1.386-.519.73.385.762.431a6.367,6.367,0,0,1-.177-1.9,2.586,2.586,0,0,0-.416-1.547c1.212-3.718,3.95-.606,3.95-.606a8.857,8.857,0,0,1,.035,2.809c-.276.778.276,2.42.207,2.854s.14,1.167.14,1.989a14.746,14.746,0,0,1-.555,3.068,9.652,9.652,0,0,1-1.871,2.248,11.76,11.76,0,0,1-.833,3.89c-.728,1.426-.271,6.3-.271,6.3s.693,3.8,1.559,5.016S725.63,252.191,725.63,252.191Z" transform="translate(-582.603 -191.366)" fill="#3f3d56" stroke="#707070" stroke-width="1"/>
      <path id="Path_149" data-name="Path 149" d="M778.883,255.412s-.381-1.426-.728-1.547a7.349,7.349,0,0,1-1-.561l.223-.533s1.3.442,1.51.922A4.551,4.551,0,0,1,778.883,255.412Z" transform="translate(-654.396 -223.03)" stroke="#707070" stroke-width="1" opacity="0.1"/>
      <path id="Path_150" data-name="Path 150" d="M732.974,246.47c-.069.442-3.154.82-3.154.82l1.56-1.95h0l.039.018h0a6.014,6.014,0,0,1,1.556,1.112Z" transform="translate(-615.453 -217.243)" stroke="#707070" stroke-width="1" opacity="0.1"/>
      <ellipse id="Ellipse_22" data-name="Ellipse 22" cx="0.276" cy="0.345" rx="0.276" ry="0.345" transform="translate(108.32 22.949)" fill="#575988" stroke="#707070" stroke-width="1"/>
      <ellipse id="Ellipse_23" data-name="Ellipse 23" cx="0.276" cy="0.345" rx="0.276" ry="0.345" transform="translate(108.675 23.641)" fill="#575988" stroke="#707070" stroke-width="1"/>
      <ellipse id="Ellipse_24" data-name="Ellipse 24" cx="0.276" cy="0.345" rx="0.276" ry="0.345" transform="translate(109.022 24.28)" fill="#575988" stroke="#707070" stroke-width="1"/>
      <ellipse id="Ellipse_25" data-name="Ellipse 25" cx="0.276" cy="0.345" rx="0.276" ry="0.345" transform="translate(109.385 24.969)" fill="#575988" stroke="#707070" stroke-width="1"/>
      <ellipse id="Ellipse_26" data-name="Ellipse 26" cx="0.225" cy="0.281" rx="0.225" ry="0.281" transform="translate(142.104 24.996)" fill="#575988" stroke="#707070" stroke-width="1"/>
      <ellipse id="Ellipse_27" data-name="Ellipse 27" cx="0.225" cy="0.281" rx="0.225" ry="0.281" transform="translate(142.14 25.635)" fill="#575988" stroke="#707070" stroke-width="1"/>
      <ellipse id="Ellipse_28" data-name="Ellipse 28" cx="0.225" cy="0.281" rx="0.225" ry="0.281" transform="translate(142.17 26.271)" fill="#575988" stroke="#707070" stroke-width="1"/>
      <path id="Path_151" data-name="Path 151" d="M787,317.719c-.034-.051,7.78,12.255,13.844,5.144C800.849,322.865,791.267,324.486,787,317.719Z" transform="translate(-662.5 -273.623)" stroke="#707070" stroke-width="1" opacity="0.1"/>
      <path id="Path_152" data-name="Path 152" d="M761.7,346.66s4.675.159,5.164,1.837v1.746a.744.744,0,0,1-.87,0c-.471-.318-3.3-2.109-4.294-1.247Z" transform="translate(-641.684 -296.166)" stroke="#707070" stroke-width="1" opacity="0.1"/>
      <path id="Path_153" data-name="Path 153" d="M762.19,346.66s4.471.153,4.939,1.753v1.662a.712.712,0,0,1-.833,0c-.45-.3-3.153-2.009-4.106-1.187Z" transform="translate(-642.087 -296.166)" fill="#3f3d56" stroke="#707070" stroke-width="1"/>
      <path id="Path_154" data-name="Path 154" d="M776.1,289.38a20.277,20.277,0,0,0,1.813,3.879,13.971,13.971,0,0,0,2.835,3.42S776.178,290.18,776.1,289.38Z" transform="translate(-653.532 -251.548)" stroke="#707070" stroke-width="1" opacity="0.1"/>
      <path id="Path_155" data-name="Path 155" d="M767.47,258.73s.78,4.2,2.789,5.626Z" transform="translate(-646.431 -227.673)" stroke="#707070" stroke-width="1" opacity="0.1"/>
      <path id="Path_156" data-name="Path 156" d="M760.4,260.645a5.007,5.007,0,0,0,2.591,5.2S761.593,265.256,760.4,260.645Z" transform="translate(-640.554 -229.164)" stroke="#707070" stroke-width="1" opacity="0.1"/>
      <path id="Path_157" data-name="Path 157" d="M875.9,247.9a24.6,24.6,0,0,1,2.075,1.945S876.892,247.812,875.9,247.9Z" transform="translate(-735.649 -219.235)" stroke="#707070" stroke-width="1" opacity="0.1"/>
      <path id="Path_158" data-name="Path 158" d="M800.307,193.867a.912.912,0,0,0,.213.6.575.575,0,0,0,.5.207,6.708,6.708,0,0,0,3.721-.442,1.44,1.44,0,0,0,.567-.469,3.393,3.393,0,0,0,.33-1.138,18.916,18.916,0,0,1,.76-2.184,8.986,8.986,0,0,0,.409-3.924,3.109,3.109,0,0,0-.315-1.147c-.333-.595-.941-.836-1.382-1.309s-.725-1.2-1.24-1.547a1.951,1.951,0,0,0-1.556-.172,7.256,7.256,0,0,0-2.9,1.359c-.3.221-.627.493-.971.411-.3-.071-.521-.387-.709-.683a5.859,5.859,0,0,0-.3,2.244,1.2,1.2,0,0,1-.009.338,1.061,1.061,0,0,1-.193.356,1.553,1.553,0,0,0-.2,1.616c.133.2.339.305.468.506a2.51,2.51,0,0,1,.149,1.344.827.827,0,0,0,.092.455.459.459,0,0,0,.509.153,1.123,1.123,0,0,1,.542-.064.96.96,0,0,1,.471.442A9.492,9.492,0,0,1,800.307,193.867Z" transform="translate(-670.627 -168.104)" fill="#2d293d" stroke="#707070" stroke-width="1"/>
      <g id="Group_47" data-name="Group 47" transform="translate(126.25 15.274)" opacity="0.1">
        <path id="Path_159" data-name="Path 159" d="M805.451,208.513a1.44,1.44,0,0,1-.567.469,6.8,6.8,0,0,1-3.721.442.732.732,0,0,1-.388-.108,1.161,1.161,0,0,1-.323-.7,9.2,9.2,0,0,0-1.051-3.042.969.969,0,0,0-.471-.453,1.179,1.179,0,0,0-.542.064.458.458,0,0,1-.509-.15.827.827,0,0,1-.092-.455,2.558,2.558,0,0,0-.149-1.344c-.129-.2-.335-.309-.468-.508a1.22,1.22,0,0,1-.08-1.03,1.419,1.419,0,0,0-.059,1.377c.133.2.339.305.468.506a2.513,2.513,0,0,1,.149,1.344.822.822,0,0,0,.09.455.459.459,0,0,0,.51.153,1.124,1.124,0,0,1,.542-.064.96.96,0,0,1,.471.442,9.214,9.214,0,0,1,1.051,3.044,1.2,1.2,0,0,0,.307.7.72.72,0,0,0,.39.106,6.687,6.687,0,0,0,3.721-.442,1.424,1.424,0,0,0,.567-.469,1.489,1.489,0,0,0,.177-.416A.125.125,0,0,1,805.451,208.513Z" transform="translate(-796.877 -198.524)" stroke="#707070" stroke-width="1"/>
        <path id="Path_160" data-name="Path 160" d="M799.946,189.823a.812.812,0,0,0,.126-.261,1.2,1.2,0,0,0,0-.338,5.908,5.908,0,0,1,.193-1.861l-.023-.033a5.817,5.817,0,0,0-.3,2.241A2,2,0,0,1,799.946,189.823Z" transform="translate(-799.393 -187.33)" stroke="#707070" stroke-width="1"/>
      </g>
      <path id="Path_161" data-name="Path 161" d="M812.08,248.483s5.152.853,5.614-.113" transform="translate(-683.136 -219.603)" stroke="#707070" stroke-width="1" opacity="0.1"/>
      <path id="Path_162" data-name="Path 162" d="M868.59,236.85s2.864,0,3.493,1.344" transform="translate(-729.631 -210.629)" stroke="#707070" stroke-width="1" opacity="0.1"/>
      <path id="Path_163" data-name="Path 163" d="M941.417,766.1a4.066,4.066,0,0,1-3.092,1.441c-.291,0-.693.068-.695.431a.708.708,0,0,0,.085.3,3.044,3.044,0,0,0,1.595,1.563,4.553,4.553,0,0,0,1.93.153l1.887-.122c.354-.024.709-.046,1.063-.1s.741-.146,1.111-.221a11.683,11.683,0,0,1,2.749-.159.719.719,0,0,0,.677-.221,1.6,1.6,0,0,0,.016-.975c-.113-.683,0-1.4-.1-2.084a3.45,3.45,0,0,0-1.926-2.56c-.851-.4-2.357-.864-3.161-.192A24.363,24.363,0,0,0,941.417,766.1Z" transform="translate(-786.437 -620.483)" fill="#3f3d56" stroke="#707070" stroke-width="1"/>
      <path id="Path_164" data-name="Path 164" d="M951.985,577.445c.167.988.934,1.744.955,2.752a4.873,4.873,0,0,1-.776,2.18,16.559,16.559,0,0,0-.792,2.237,38.076,38.076,0,0,1-2.325,5.769,5.356,5.356,0,0,0-.838,2.856,4.991,4.991,0,0,0,.4,1.366l1.329,3.294a10.985,10.985,0,0,1,.679,2.08c.115.626.126,1.273.193,1.91.209,2.02.969,4.054.519,6.012-.039.168-.177.371-.285.254a7.48,7.48,0,0,1,.758,3.214,5.568,5.568,0,0,0,.012,1.808,2.313,2.313,0,0,1,.207.712c0,.168-.062.325-.076.489a1.051,1.051,0,0,0,.663,1c.356.148.744.137,1.1.272.691.259,1.186,1,1.772,1.516a3.3,3.3,0,0,0,2.041.829.43.43,0,0,0,.3-.075.68.68,0,0,0,.167-.455,2.859,2.859,0,0,0-.73-2.2.934.934,0,0,1-.271-.354,1.054,1.054,0,0,1-.025-.4,37.122,37.122,0,0,0-.078-5.438,10.268,10.268,0,0,1-.069-1.731,8.765,8.765,0,0,0,.112-1.439,9.051,9.051,0,0,0-.354-1.379,12.328,12.328,0,0,1-.177-2.566,27.66,27.66,0,0,0-.583-4.421,3.8,3.8,0,0,0-.551-1.6c-.276-.36-.723-.705-.618-1.185a1.465,1.465,0,0,1,.253-.471,2.239,2.239,0,0,0,.315-1.441.494.494,0,0,0,.6-.349,11.216,11.216,0,0,0,4.675-6.631,2.489,2.489,0,0,1,.209-.592,2.16,2.16,0,0,1,.856-.692,10.952,10.952,0,0,0,3.117-4.934,8.42,8.42,0,0,0,.119-1.5l.055-2.6a1.739,1.739,0,0,0-.039-.508,1.319,1.319,0,0,0-.225-.411,3.849,3.849,0,0,0-2.208-1.485,14.936,14.936,0,0,0-1.721-.161,17.322,17.322,0,0,0-3.325-.442c-1.749.161-3.307,1.673-4.131,3.605C952.91,576.84,952.605,577.432,951.985,577.445Z" transform="translate(-795.129 -472.114)" fill="#464353" stroke="#707070" stroke-width="1"/>
      <path id="Path_165" data-name="Path 165" d="M905.807,498.127a3.574,3.574,0,0,1-.128,1.183c-.136.363-.479.645-.778.5a.4.4,0,0,0-.372-.513.766.766,0,0,0-.491.526,2.392,2.392,0,0,0-.142,1.2,5.933,5.933,0,0,1,.245,1.508c-.05.424-.3.847-.167,1.24a1.975,1.975,0,0,0,.321.48,1.6,1.6,0,0,1-.115,1.857l3.353.084a3.527,3.527,0,0,0,.416,2.034,10.432,10.432,0,0,0,7.663,6.24.856.856,0,0,0-.322.588.977.977,0,0,0,.161.683.8.8,0,0,0,1.077.077,8.079,8.079,0,0,0,.922-.862,2.434,2.434,0,0,1,1.894-.637c.42.051.828.221,1.249.248,1.24.082,2.3-1.032,3.5-1.488.87-.334,1.857-.334,2.587-1.012a1.416,1.416,0,0,0,.482-1.245,2.225,2.225,0,0,0-.354-.732,13.917,13.917,0,0,1-.969-2.266,13.749,13.749,0,0,0-2.423-4.05,22.923,22.923,0,0,0-2.4-2.272,4.044,4.044,0,0,0-.649-.489,6.511,6.511,0,0,1-.886-.442,5.674,5.674,0,0,1-.923-1.3,14.251,14.251,0,0,0-2.5-2.173,6.064,6.064,0,0,0-1.691-1.428c-.319-.122-.657-.13-.976-.25-.725-.274-1.253-1.077-1.963-1.4a6.412,6.412,0,0,0-1.772-.281,3.7,3.7,0,0,1-1.852-.88,2.148,2.148,0,0,0-.59-.429c-.9-.34-.971,1.746-1.063,2.469A29.425,29.425,0,0,0,905.807,498.127Z" transform="translate(-758.663 -409.684)" fill="#e9be4e" stroke="#707070" stroke-width="1"/>
      <path id="Path_166" data-name="Path 166" d="M862.057,537.995c.151,2.038-1.083,4.012-.723,6.008.076.424.223.829.276,1.26a5.6,5.6,0,0,1-.957,3.294l-4.643,8.5a5.3,5.3,0,0,1-.663,1.021c-.886.984-2.219.884-3.385,1.176a5.359,5.359,0,0,0-2.268,1.251.215.215,0,0,0-.028.254,1.832,1.832,0,0,0,1.685.988.548.548,0,0,1-.168.639c-.248.221-.592.272-.641.8a1.071,1.071,0,0,0,.085.531,1.365,1.365,0,0,0,.812.7c1.607.615,3.344-.464,4.547-1.93s2.066-3.316,3.247-4.806c.654-.827,1.4-1.532,2.07-2.332a29.691,29.691,0,0,0,3.4-5.48,6.777,6.777,0,0,0,.735-1.866c.126-.679.067-1.366.211-2.023a7.938,7.938,0,0,1,1.113-2.268,8.8,8.8,0,0,0,1.265-4.89,4.757,4.757,0,0,0-2.293-4.056,1.68,1.68,0,0,0-1.285-.1,3.269,3.269,0,0,0-1.308,1.3l-.886,1.269a3.129,3.129,0,0,0-.5.975,1.21,1.21,0,0,0,.177,1.083" transform="translate(-714.038 -442.554)" fill="#fbbebe" stroke="#707070" stroke-width="1"/>
      <path id="Path_167" data-name="Path 167" d="M919.061,511.919a2.217,2.217,0,0,0-1.712.663,3.212,3.212,0,0,0-.432.844,9.943,9.943,0,0,0-.856,3.36,18.976,18.976,0,0,0,.31,2.807,13.309,13.309,0,0,1-.193,2.359,11.684,11.684,0,0,0,2.442-1.172,7.751,7.751,0,0,1,1.43-.926c.728-.3,1.949.221,2.642.641.037-.606-.328-1.662-.289-2.27a3.1,3.1,0,0,1,.108-.752,4.848,4.848,0,0,1,.367-.727,3.239,3.239,0,0,0-2.71-4.812,8.667,8.667,0,0,0-1.742-.075" transform="translate(-768.688 -424.838)" fill="#e9be4e" stroke="#707070" stroke-width="1"/>
    </g>
  </g>
</svg>
