<svg id="Group_59" data-name="Group 59" xmlns="http://www.w3.org/2000/svg" width="600" height="420" viewBox="0 0 600 420">
  <ellipse id="Ellipse_114" data-name="Ellipse 114" cx="32.675" cy="32.457" rx="32.675" ry="32.457" transform="translate(273.757 354.201)" fill="#e61030"/>
  <path id="Path_560" data-name="Path 560" d="M715.119,583.467c18.277-5.452,37.711-11.138,52.208-24.1,12.955-11.587,21.7-29.275,16.337-46.648-5.361-17.337-21.4-28.9-37.964-34.646-9.394-3.262-19.221-5.071-29.047-6.492-10.677-1.546-21.408-2.81-32.127-4.031q-65.124-7.4-130.732-9.038c-21.585-.54-43.163-.527-64.748-.215-19.28.279-39.584.269-57.468-7.869-13.906-6.328-26.528-17.842-30.4-32.974-4.474-17.466,3.778-35.254,15.612-47.9a126.071,126.071,0,0,1,21.054-17.439c8.158-5.6,16.6-10.8,25.23-15.657a352.492,352.492,0,0,1,53.107-24.319c9.055-3.272,18.242-6.091,27.511-8.694a237.335,237.335,0,0,0,23.239-7.392c14.622-5.789,28.529-15.593,32.245-31.668,3.522-15.234-2.416-31.773-12.83-43.091-12.051-13.093-30.217-18.831-47.638-19.761-19.552-1.042-38.655,3.818-57.035,9.988-19.6,6.58-38.785,14.146-58.8,19.475a398.159,398.159,0,0,1-60.52,11.174c-10,1.06-20.307,2.253-30.37,1.443-8.436-.679-16.827-3.142-23.04-9.087-5.329-5.1-8.5-12.1-7.413-19.5.2-1.343,2.251-.772,2.055.564-1.33,9,4.83,17.29,12.42,21.541,8.772,4.91,19.444,4.914,29.212,4.355a384.858,384.858,0,0,0,62.875-9.028c20.309-4.609,39.894-11.2,59.456-18.233,18.579-6.682,37.574-13.206,57.423-14.654,17.223-1.255,35.339,1.238,50.345,10.178a55.325,55.325,0,0,1,25.972,36c3.018,14.692-1.162,29.483-12.36,39.737-11.594,10.615-27.491,15.154-42.305,19.334a389.1,389.1,0,0,0-54.973,19.548,345.725,345.725,0,0,0-51.711,28.877c-15.8,10.728-31.4,24.224-36.4,43.358a39.683,39.683,0,0,0,2,26.787,49.049,49.049,0,0,0,15.814,18.64c15.856,11.589,35.838,13.97,54.99,14.2,21.511.266,43.023-.454,64.536-.1q65.776,1.069,131.283,7.952,16.413,1.725,32.788,3.816c9.817,1.255,19.671,2.5,29.323,4.724,17.161,3.958,33.862,11.565,44.532,26.021a40.913,40.913,0,0,1,3.527,44.991c-8.192,16.011-23.537,26.194-39.83,32.883-8.73,3.584-17.78,6.3-26.818,8.994A1.059,1.059,0,0,1,715.119,583.467Z" transform="translate(-213.48 -166.177)" fill="#f2f2f2"/>
  <ellipse id="Ellipse_115" data-name="Ellipse 115" cx="17.048" cy="16.934" rx="17.048" ry="16.934" transform="translate(72.378 32.104)" fill="#e61030" opacity="0.2"/>
  <ellipse id="Ellipse_116" data-name="Ellipse 116" cx="17.048" cy="16.934" rx="17.048" ry="16.934" transform="translate(190.648 64.208)" fill="#e61030" opacity="0.2"/>
  <ellipse id="Ellipse_117" data-name="Ellipse 117" cx="17.048" cy="16.934" rx="17.048" ry="16.934" transform="translate(290.805)" fill="#e61030" opacity="0.2"/>
  <ellipse id="Ellipse_118" data-name="Ellipse 118" cx="17.048" cy="16.934" rx="17.048" ry="16.934" transform="translate(353.314 71.969)" fill="#e61030"/>
  <ellipse id="Ellipse_119" data-name="Ellipse 119" cx="17.048" cy="16.934" rx="17.048" ry="16.934" transform="translate(268.785 155.227)" fill="#e61030" opacity="0.2"/>
  <ellipse id="Ellipse_120" data-name="Ellipse 120" cx="17.048" cy="16.934" rx="17.048" ry="16.934" transform="translate(161.525 195.445)" fill="#e61030" opacity="0.2"/>
  <ellipse id="Ellipse_121" data-name="Ellipse 121" cx="17.048" cy="16.934" rx="17.048" ry="16.934" transform="translate(275.178 258.242)" fill="#f2f2f2"/>
  <ellipse id="Ellipse_122" data-name="Ellipse 122" cx="17.048" cy="16.934" rx="17.048" ry="16.934" transform="translate(397.355 293.521)" fill="#f2f2f2"/>
  <ellipse id="Ellipse_123" data-name="Ellipse 123" cx="17.048" cy="16.934" rx="17.048" ry="16.934" transform="translate(540.132 285.759)" fill="#e61030" opacity="0.2"/>
  <path id="Path_561" data-name="Path 561" d="M565.953,220.372c-51.065.359-92.879,41.58-93.606,92.3,0,.471-.01,3.762-.01,8.069a23.894,23.894,0,0,0,23.969,23.811h0a23.9,23.9,0,0,0,23.974-23.843v-5.088a45.41,45.41,0,1,1,69.986,38.018l0,.01s-34.116,21.817-44.517,51.744l.01,0a65.71,65.71,0,0,0-2.753,18.887c0,2.627.157,25.628.457,44.295a24.629,24.629,0,0,0,24.711,24.146h0a24.8,24.8,0,0,0,17.53-7.244A24.469,24.469,0,0,0,592.9,468.02c-.108-17.1-.162-37-.162-38.448,0-18.374,17.849-36.685,32.508-48.626a97.87,97.87,0,0,0,33.909-53.624,60.591,60.591,0,0,0,1.775-13.289,93.359,93.359,0,0,0-27.858-66.47A94.635,94.635,0,0,0,565.953,220.372Z" transform="translate(-263.021 -172.39)" fill="#e61030"/>
  <path id="Path_562" data-name="Path 562" d="M776.818,746.925H178.509a.838.838,0,1,1,0-1.675H776.818a.838.838,0,1,1,0,1.675Z" transform="translate(-177.662 -326.925)" fill="#3f3d56"/>
  <ellipse id="Ellipse_124" data-name="Ellipse 124" cx="21.31" cy="21.167" rx="21.31" ry="21.167" transform="translate(425.098 150.285)" fill="#2f2e41"/>
  <path id="Path_563" data-name="Path 563" d="M567.775,568.21h-8.706l-4.149-33.37h12.86Z" transform="translate(-160.739 -157.468)" fill="#a0616a"/>
  <path id="Path_564" data-name="Path 564" d="M547.683,578.625h16.793v10.5H537.109A10.535,10.535,0,0,1,547.683,578.625Z" transform="translate(-155.58 -170.362)" fill="#0065b3"/>
  <path id="Path_565" data-name="Path 565" d="M662.775,568.21h-8.711l-4.144-33.37h12.855Z" transform="translate(-188.259 -157.468)" fill="#a0616a"/>
  <path id="Path_566" data-name="Path 566" d="M642.683,578.625h16.793v10.5H632.109A10.535,10.535,0,0,1,642.683,578.625Z" transform="translate(-183.1 -170.362)" fill="#0065b3"/>
  <ellipse id="Ellipse_125" data-name="Ellipse 125" cx="17.447" cy="17.33" rx="17.447" ry="17.33" transform="translate(425.723 158.084)" fill="#a0616a"/>
  <path id="Path_567" data-name="Path 567" d="M790.753,484.139l7.806-17.818a22.039,22.039,0,0,0-4.935-25.117,22.717,22.717,0,0,0-2.178-1.884,22.073,22.073,0,0,0-13.494-4.634,22.942,22.942,0,0,0-9.517,2.1c-.256.112-.5.235-.762.357-.487.229-.973.483-1.445.747a22.355,22.355,0,0,0-11.149,16.85l-3.441,28.672c-.865,2.251-31.786,83.536-20.971,145.587a3.161,3.161,0,0,0,2.708,2.593l10.962,1.48a3.2,3.2,0,0,0,3.564-2.49L766.287,543.5a2.493,2.493,0,0,1,4.832-.161L797.1,634.912a3.166,3.166,0,0,0,3.063,2.315,3.712,3.712,0,0,0,.615-.054l13.4-2.564a3.145,3.145,0,0,0,2.571-3.393C814.782,609.418,804.33,500.247,790.753,484.139Z" transform="translate(-337.189 -235.488)" fill="#e9be4e"/>
  <path id="Path_568" data-name="Path 568" d="M706.082,418.769a7.082,7.082,0,0,0,1.912,5.7,7.169,7.169,0,0,0,5.618,2.207l9.748,23.281,7.384-10.864-10.4-20.439a7.189,7.189,0,0,0-14.265.117Z" transform="translate(-330.712 -228.933)" fill="#a0616a"/>
  <path id="Path_569" data-name="Path 569" d="M796.892,526.087a7.144,7.144,0,0,0,5.132-3.169,7.023,7.023,0,0,0,.856-5.942L823.4,502.131l-12.348-4.6-17.589,14.8a7.131,7.131,0,0,0,3.431,13.75Z" transform="translate(-354.697 -253.992)" fill="#a0616a"/>
  <path id="Path_570" data-name="Path 570" d="M742.815,473.12a12.148,12.148,0,0,1-2.34-.229,11.566,11.566,0,0,1-8.485-6.787l-13.666-16.548a3.169,3.169,0,0,1,.787-4.712l9.723-5.977a3.222,3.222,0,0,1,2.423-.39,3.181,3.181,0,0,1,1.991,1.44l9.63,15.762,18.439-13.54a6.933,6.933,0,0,1,8.794,2.041,6.827,6.827,0,0,1-.762,8.941l-18.4,16.675A11.59,11.59,0,0,1,742.815,473.12Z" transform="translate(-334.066 -236.579)" fill="#e9be4e"/>
  <path id="Path_571" data-name="Path 571" d="M818.431,500.163h-.079a3.2,3.2,0,0,1-2.359-1.108l-8.642-10.01a3.209,3.209,0,0,1-.737-2.5,3.158,3.158,0,0,1,1.4-2.207l16.183-10.718-14.659-17.51a6.81,6.81,0,0,1,1.543-8.833,6.934,6.934,0,0,1,9.025.239l17.825,17.295a11.625,11.625,0,0,1-2.615,19.009l-14.561,15.347A3.183,3.183,0,0,1,818.431,500.163Z" transform="translate(-359.841 -238.74)" fill="#e9be4e"/>
  <path id="Path_572" data-name="Path 572" d="M791.373,459.275c-.138,0-.275-.01-.423-.024a3.165,3.165,0,0,1-2.625-2.168l-6.5-19.775a2.172,2.172,0,0,1,1.13-2.627l.206-.1c.2-.088.384-.176.58-.259a23.117,23.117,0,0,1,9.665-2.134,22.312,22.312,0,0,1,12.181,3.633,2.2,2.2,0,0,1,.649,3.032l-12.191,18.96A3.159,3.159,0,0,1,791.373,459.275Z" transform="translate(-352.642 -234.754)" fill="#e6e6e6"/>
  <ellipse id="Ellipse_126" data-name="Ellipse 126" cx="6.973" cy="6.926" rx="6.973" ry="6.926" transform="translate(456.236 148.15)" fill="#2f2e41"/>
  <path id="Path_573" data-name="Path 573" d="M788.585,361.365h0a18.411,18.411,0,0,0-18.473,18.345v7.761h9.615l4.591-7.761,1.381,7.761h29.17l-7.821-7.761A18.4,18.4,0,0,0,788.585,361.365Z" transform="translate(-349.278 -213.903)" fill="#2f2e41"/>
  <path id="Path_574" data-name="Path 574" d="M834.809,362.328a10.766,10.766,0,0,1,11.709-7.334c4.435.737,7.954,4.287,10.048,8.247s3.058,8.4,4.464,12.652,3.4,8.525,6.961,11.279,9.005,3.5,12.495.667a14.318,14.318,0,0,1-26.623,5.066c-1.839-3.252-2.32-7.07-2.861-10.762s-1.258-7.512-3.461-10.542-6.312-5.005-9.8-3.623Z" transform="translate(-368.019 -211.996)" fill="#2f2e41"/>
  <path id="Path_575" data-name="Path 575" d="M502.937,349.465h0a23.887,23.887,0,0,1-23.969-23.8c0-4.311,0-7.605.01-8.074a92.186,92.186,0,0,1,10.908-42.269,92.579,92.579,0,0,0-18.012,53.558c-.01.469-.01,3.762-.01,8.069a23.886,23.886,0,0,0,23.964,23.809h0a23.965,23.965,0,0,0,23.08-17.349A23.961,23.961,0,0,1,502.937,349.465Z" transform="translate(-262.884 -188.57)" fill="#e9be4e"/>
  <path id="Path_576" data-name="Path 576" d="M591.423,286.749a45.534,45.534,0,0,1,36.431,21.24,44.915,44.915,0,0,1,3.107,41.846,44.91,44.91,0,0,0,6.5-48.523,45.584,45.584,0,0,0-82.816,1.26A45.524,45.524,0,0,1,591.423,286.749Z" transform="translate(-286.861 -188.592)" fill="#e9be4e"/>
  <path id="Path_577" data-name="Path 577" d="M603.637,550.225h0a24.625,24.625,0,0,1-24.711-24.15c-.305-18.663-.457-41.661-.457-44.288a65.556,65.556,0,0,1,2.753-18.887l-.015,0a67.768,67.768,0,0,1,3.908-8.96A77.735,77.735,0,0,0,574.1,474.184l.015,0a65.894,65.894,0,0,0-2.753,18.887c0,2.627.152,25.625.457,44.292a24.625,24.625,0,0,0,24.712,24.146h0a24.692,24.692,0,0,0,23.723-17.666A24.707,24.707,0,0,1,603.637,550.225Z" transform="translate(-291.707 -241.155)" fill="#e9be4e"/>
  <path id="Path_578" data-name="Path 578" d="M126.539,568.656h8.708l4.143-33.36H126.538Z" transform="translate(-36.654 -157.603)" fill="#ffb8b8"/>
  <path id="Path_579" data-name="Path 579" d="M0,0H27.37V10.5h-16.8A10.539,10.539,0,0,1,0,0Z" transform="translate(115.388 419.092) rotate(179.997)" fill="#0065b3"/>
  <path id="Path_580" data-name="Path 580" d="M82.54,568.656h8.708l4.143-33.36H82.538Z" transform="translate(-23.909 -157.603)" fill="#ffb8b8"/>
  <path id="Path_581" data-name="Path 581" d="M0,0H27.37V10.5h-16.8A10.539,10.539,0,0,1,0,0Z" transform="translate(84.133 419.092) rotate(179.997)" fill="#0065b3"/>
  <path id="Path_582" data-name="Path 582" d="M266.164,672.106l-8.5-.445a3.33,3.33,0,0,1-2.308-1.1,3.286,3.286,0,0,1-.831-2.4l10.166-111.808L311.5,568.9l4.513-1.226-14.108,98.985a3.326,3.326,0,0,1-3.094,2.783l-9.17.42a3.335,3.335,0,0,1-2.5-.923,3.291,3.291,0,0,1-1-2.461l1.659-59.4a1.108,1.108,0,0,0-2.19-.259L269.59,669.484a3.3,3.3,0,0,1-3.244,2.627C266.284,672.111,266.225,672.111,266.164,672.106Z" transform="translate(-199.924 -271.312)" fill="#e9be4e"/>
  <ellipse id="Ellipse_127" data-name="Ellipse 127" cx="17.447" cy="17.33" rx="17.447" ry="17.33" transform="translate(74.003 158.895)" fill="#ffb8b8"/>
  <path id="Path_583" data-name="Path 583" d="M265.5,462.834l1.917,41.109.693,14.956a3.289,3.289,0,0,0,2.185,2.949l44.989,16.187a3.135,3.135,0,0,0,1.138.2,3.324,3.324,0,0,0,2.379-.991,3.277,3.277,0,0,0,.934-2.393l-1.846-73.922a26.1,26.1,0,0,0-21.838-25.166c-.435-.068-.877-.137-1.32-.2a25.855,25.855,0,0,0-20.717,6.665A26.19,26.19,0,0,0,265.5,462.834Z" transform="translate(-203.098 -235.692)" fill="#ccc"/>
  <path id="Path_584" data-name="Path 584" d="M358.081,556.016a7.13,7.13,0,0,1-4.623-4.419,7.049,7.049,0,0,1,.811-6.323l-15.261-20.152,13.167-.81,12.471,19.263a7.1,7.1,0,0,1,1.966,8.955A7.2,7.2,0,0,1,358.081,556.016Z" transform="translate(-224.399 -261.88)" fill="#ffb8b8"/>
  <path id="Path_585" data-name="Path 585" d="M340.361,520.319a3.3,3.3,0,0,1-1.8-1.773l-22.984-54.4a8.772,8.772,0,0,1,4.734-11.513,8.879,8.879,0,0,1,11.589,4.707l22.989,54.4a3.3,3.3,0,0,1-1.777,4.317L342.9,520.3A3.3,3.3,0,0,1,340.361,520.319Z" transform="translate(-217.41 -240.571)" fill="#ccc"/>
  <path id="Path_586" data-name="Path 586" d="M298.346,527.837l22.079-41.988a3.476,3.476,0,0,1,4.668-1.455l32.046,16.621a3.434,3.434,0,0,1,1.465,4.644l-22.074,41.983a3.475,3.475,0,0,1-4.672,1.455l-32.043-16.622A3.431,3.431,0,0,1,298.346,527.837Z" transform="translate(-212.506 -250.01)" fill="#e61030"/>
  <path id="Path_587" data-name="Path 587" d="M306.215,511.814a7.171,7.171,0,0,0-11.024-3.145l-21.153-13.94L274,507.834,294.1,519.06a7.216,7.216,0,0,0,9.114,1.426A7.11,7.11,0,0,0,306.215,511.814Z" transform="translate(-205.569 -253.167)" fill="#ffb8b8"/>
  <path id="Path_588" data-name="Path 588" d="M271.263,499.837l-17.286-13.6a12.162,12.162,0,0,1-7.836-8.13,12.04,12.04,0,0,1,2.276-11.016l15.7-20.435a7.2,7.2,0,0,1,9.239-1.6,7.1,7.1,0,0,1,2.928,8.852l-12.42,20.176,18.252,8.6a3.285,3.285,0,0,1,1.384,4.736l-7.369,11.587a3.328,3.328,0,0,1-2.249,1.485.212.212,0,0,1-.054.01A3.334,3.334,0,0,1,271.263,499.837Z" transform="translate(-197.36 -238.246)" fill="#ccc"/>
  <path id="Path_589" data-name="Path 589" d="M284.346,403.548a1.51,1.51,0,0,1,1.32-1.99,3.5,3.5,0,0,1,2.47,1.206,9.692,9.692,0,0,0,2.183,1.863,1.886,1.886,0,0,0,2.468-.442,3.389,3.389,0,0,0-.13-2.651,25.821,25.821,0,0,1-1.158-6.892,12.063,12.063,0,0,1,1.745-7.373c1.88-2.627,5.24-3.623,8.416-3.552s6.3,1.047,9.453,1.663c1.086.215,2.365.322,3.09-.513.774-.891.491-2.331.162-3.533-.855-3.118-1.757-6.34-3.741-8.855a13.442,13.442,0,0,0-8.566-4.792,20.759,20.759,0,0,0-9.566,1.077,25.649,25.649,0,0,0-12.557,8.694A20.519,20.519,0,0,0,275.97,392.7a18.791,18.791,0,0,0,7.022,11.892Z" transform="translate(-206.08 -215.718)" fill="#2f2e41"/>
  <path id="Path_590" data-name="Path 590" d="M588.51,714.105a32.348,32.348,0,0,1-12.127-50.445,32.373,32.373,0,0,0,11.168,57.652,32.81,32.81,0,0,0,33.28-10.752A32.848,32.848,0,0,1,588.51,714.105Z" transform="translate(-289.279 -302.905)" fill="#e9be4e"/>
  <path id="Path_1699" data-name="Path 1699" d="M476.15,95.823a1.35,1.35,0,0,0,1.291,1.35,1.271,1.271,0,0,0,1.379-1.2,1.33,1.33,0,0,0-1.281-1.36,1.291,1.291,0,0,0-1.389,1.213Z" transform="translate(-46.1 80.05)" fill="#263238"/>
  <path id="Path_1700" data-name="Path 1700" d="M475.649,93.968c.166.176,1.184-.577,2.621-.567s2.494.724,2.651.548-.088-.391-.548-.734a3.755,3.755,0,0,0-2.132-.655,3.629,3.629,0,0,0-2.083.675C475.718,93.538,475.571,93.851,475.649,93.968Z" transform="translate(-46.089 80.285)" fill="#263238"/>
  <path id="Path_1701" data-name="Path 1701" d="M490.65,95.823a1.35,1.35,0,0,0,1.32,1.35,1.272,1.272,0,0,0,1.35-1.2,1.33,1.33,0,0,0-1.281-1.359,1.291,1.291,0,0,0-1.389,1.213Z" transform="translate(-46.418 80.05)" fill="#263238"/>
  <path id="Path_1702" data-name="Path 1702" d="M490.119,94.208c.166.176,1.183-.577,2.621-.577s2.5.724,2.66.548-.1-.391-.557-.724a3.687,3.687,0,0,0-2.122-.655,3.444,3.444,0,0,0-2.083.675C490.2,93.817,490,94.13,490.119,94.208Z" transform="translate(-46.406 80.258)" fill="#263238"/>
  <path id="Path_1703" data-name="Path 1703" d="M484.7,104.891a9.783,9.783,0,0,0-2.338-.421c-.372,0-.714-.117-.782-.362a1.9,1.9,0,0,1,.244-1.1l1.1-2.8c1.506-3.991,2.6-7.267,2.435-7.326s-1.516,3.12-3.022,7.111c-.362.978-.714,1.956-1.046,2.817a2.161,2.161,0,0,0-.186,1.448.978.978,0,0,0,.606.538,3.2,3.2,0,0,0,.626.088,9.468,9.468,0,0,0,2.367,0Z" transform="translate(-46.208 80.248)" fill="#263238"/>
  <path id="Path_1704" data-name="Path 1704" d="M489.007,106.18c-.235,0-.235,1.545-1.575,2.66s-3,.978-3.012,1.154.372.3,1.076.323a3.912,3.912,0,0,0,2.514-.88,3.335,3.335,0,0,0,1.222-2.23C489.291,106.552,489.114,106.17,489.007,106.18Z" transform="translate(-46.282 78.716)" fill="#263238"/>
  <path id="Path_1705" data-name="Path 1705" d="M489.74,88.446c.147.391,1.584.205,3.276.411s3.052.665,3.277.313c.1-.176-.137-.538-.685-.919a5.721,5.721,0,0,0-4.988-.548C489.994,87.986,489.681,88.26,489.74,88.446Z" transform="translate(-46.398 80.883)" fill="#263238"/>
  <path id="Path_1706" data-name="Path 1706" d="M476.189,89.667c.254.333,1.242,0,2.435,0s2.211.225,2.445-.117c.1-.166-.059-.5-.5-.8a3.541,3.541,0,0,0-3.912.117C476.218,89.169,476.081,89.511,476.189,89.667Z" transform="translate(-46.101 80.785)" fill="#263238"/>
  <path id="Path_1707" data-name="Path 1707" d="M478.82,95.823a1.35,1.35,0,0,1-1.291,1.35,1.271,1.271,0,0,1-1.379-1.2,1.33,1.33,0,0,1,1.281-1.36,1.291,1.291,0,0,1,1.389,1.213Z" transform="translate(-371.117 80.183)" fill="#263238"/>
  <path id="Path_1708" data-name="Path 1708" d="M480.949,93.968c-.166.176-1.184-.577-2.621-.567s-2.494.724-2.651.548.088-.391.548-.734a3.755,3.755,0,0,1,2.132-.655,3.629,3.629,0,0,1,2.083.675C480.88,93.538,481.027,93.851,480.949,93.968Z" transform="translate(-372.756 80.419)" fill="#263238"/>
  <path id="Path_1709" data-name="Path 1709" d="M493.32,95.823a1.35,1.35,0,0,1-1.32,1.35,1.272,1.272,0,0,1-1.35-1.2,1.33,1.33,0,0,1,1.281-1.359,1.291,1.291,0,0,1,1.389,1.213Z" transform="translate(-399.799 80.183)" fill="#263238"/>
  <path id="Path_1710" data-name="Path 1710" d="M495.413,94.208c-.166.176-1.183-.577-2.621-.577s-2.5.724-2.66.548.1-.391.557-.724a3.687,3.687,0,0,1,2.122-.655,3.444,3.444,0,0,1,2.083.675C495.335,93.817,495.531,94.13,495.413,94.208Z" transform="translate(-401.374 80.392)" fill="#263238"/>
  <path id="Path_1711" data-name="Path 1711" d="M481.72,104.891a9.783,9.783,0,0,1,2.338-.421c.372,0,.714-.117.782-.362a1.9,1.9,0,0,0-.244-1.1l-1.1-2.8c-1.506-3.991-2.6-7.267-2.435-7.326s1.516,3.12,3.022,7.111c.362.978.714,1.956,1.046,2.817a2.161,2.161,0,0,1,.186,1.448.978.978,0,0,1-.606.538,3.2,3.2,0,0,1-.626.088,9.468,9.468,0,0,1-2.367,0Z" transform="translate(-382.458 80.381)" fill="#263238"/>
  <path id="Path_1712" data-name="Path 1712" d="M484.656,106.18c.235,0,.235,1.545,1.575,2.66s3,.978,3.012,1.154-.372.3-1.076.323a3.912,3.912,0,0,1-2.514-.88,3.335,3.335,0,0,1-1.222-2.23C484.373,106.552,484.549,106.17,484.656,106.18Z" transform="translate(-389.629 78.85)" fill="#263238"/>
  <path id="Path_1713" data-name="Path 1713" d="M496.307,88.446c-.147.391-1.584.205-3.276.411s-3.052.665-3.277.313c-.1-.176.137-.538.685-.919a5.721,5.721,0,0,1,4.988-.548C496.053,87.986,496.366,88.26,496.307,88.446Z" transform="translate(-401.896 81.017)" fill="#263238"/>
  <path id="Path_1714" data-name="Path 1714" d="M481.063,89.667c-.254.333-1.242,0-2.435,0s-2.211.225-2.445-.117c-.1-.166.059-.5.5-.8a3.541,3.541,0,0,1,3.912.117C481.034,89.169,481.17,89.511,481.063,89.667Z" transform="translate(-373.399 80.919)" fill="#263238"/>
</svg>
