<svg xmlns="http://www.w3.org/2000/svg" xmlns:xlink="http://www.w3.org/1999/xlink" width="600" height="320" viewBox="0 0 600 320">
  <defs>
    <linearGradient id="linear-gradient" x1="0.5" y1="1" x2="0.5" gradientUnits="objectBoundingBox">
      <stop offset="0" stop-color="gray" stop-opacity="0.251"/>
      <stop offset="0.54" stop-color="gray" stop-opacity="0.122"/>
      <stop offset="1" stop-color="gray" stop-opacity="0.102"/>
    </linearGradient>
    <linearGradient id="linear-gradient-2" x1="0.5" y1="1" x2="0.5" y2="-0.001" xlink:href="#linear-gradient"/>
  </defs>
  <g id="Group_83" data-name="Group 83" transform="translate(0 0.359)">
    <g id="Group_75" data-name="Group 75" transform="translate(232.746 21.898)" opacity="0.1">
      <ellipse id="Ellipse_128" data-name="Ellipse 128" cx="6.23" cy="8.291" rx="6.23" ry="8.291" transform="translate(23.48 171.145)" fill="#e61030"/>
      <path id="Path_592" data-name="Path 592" d="M531.184,450.35a10.144,10.144,0,0,0,1.3-5.069c0-4.579-2.792-8.291-6.235-8.291s-6.252,3.722-6.252,8.3a10.144,10.144,0,0,0,1.3,5.069,10.5,10.5,0,0,0,0,10.133,10.5,10.5,0,0,0,0,10.132A10.11,10.11,0,0,0,520,475.7c0,4.574,2.792,8.291,6.23,8.291s6.235-3.717,6.235-8.291a10.111,10.111,0,0,0-1.3-5.069,10.5,10.5,0,0,0,0-10.133,10.5,10.5,0,0,0,0-10.133Z" transform="translate(-496.541 -306.386)" fill="#e61030"/>
      <ellipse id="Ellipse_129" data-name="Ellipse 129" cx="6.23" cy="8.291" rx="6.23" ry="8.291" transform="translate(23.48 120.482)" fill="#e61030"/>
      <ellipse id="Ellipse_130" data-name="Ellipse 130" cx="6.23" cy="8.291" rx="6.23" ry="8.291" transform="translate(23.48 110.35)" fill="#e61030"/>
      <path id="Path_593" data-name="Path 593" d="M483.538,251.564a29.562,29.562,0,0,1-2.321-3.472l16.369-2.732-17.7.134a30.849,30.849,0,0,1-.547-24.038l23.754,12.525-21.9-16.37a29.638,29.638,0,0,1,53.14,2.481,30.746,30.746,0,0,1-3.87,31.461,30.428,30.428,0,0,1,3.405,5.531l-21.257,11.251,22.659-7.729a30.741,30.741,0,0,1-4.812,28.489,30.7,30.7,0,0,1-3.206,41.04,29.494,29.494,0,0,1-40.505,0,30.7,30.7,0,0,1-3.206-41.04,30.728,30.728,0,0,1,0-37.514Z" transform="translate(-477.149 -202.271)" fill="#e61030"/>
      <path id="Path_594" data-name="Path 594" d="M536.843,324.214a30.513,30.513,0,0,1-6.389,18.757,30.7,30.7,0,0,1-3.206,41.04,29.494,29.494,0,0,1-40.505,0,30.7,30.7,0,0,1-3.206-41.04C479.536,337.807,536.843,320.808,536.843,324.214Z" transform="translate(-477.149 -256.163)" fill="#e61030" opacity="0.1"/>
    </g>
    <g id="Group_76" data-name="Group 76" transform="translate(312.986 49.626)" opacity="0.1">
      <ellipse id="Ellipse_131" data-name="Ellipse 131" cx="4.659" cy="6.193" rx="4.659" ry="6.193" transform="translate(17.545 127.787)" fill="#e61030"/>
      <path id="Path_595" data-name="Path 595" d="M664.1,437.3a7.568,7.568,0,0,0,.969-3.784c0-3.422-2.086-6.2-4.653-6.2s-4.659,2.782-4.659,6.2a7.512,7.512,0,0,0,.974,3.784,7.845,7.845,0,0,0,0,7.573,7.845,7.845,0,0,0,0,7.573,7.512,7.512,0,0,0-.974,3.784c0,3.422,2.086,6.2,4.659,6.2s4.653-2.782,4.653-6.2a7.567,7.567,0,0,0-.969-3.784,7.9,7.9,0,0,0,0-7.573A7.9,7.9,0,0,0,664.1,437.3Z" transform="translate(-638.22 -329.825)" fill="#e61030"/>
      <ellipse id="Ellipse_132" data-name="Ellipse 132" cx="4.659" cy="6.193" rx="4.659" ry="6.193" transform="translate(17.545 89.928)" fill="#e61030"/>
      <ellipse id="Ellipse_133" data-name="Ellipse 133" cx="4.659" cy="6.193" rx="4.659" ry="6.193" transform="translate(17.545 82.355)" fill="#e61030"/>
      <path id="Path_596" data-name="Path 596" d="M628.494,288.831a21.729,21.729,0,0,1-1.735-2.593l12.235-2.042-13.232.1a23.067,23.067,0,0,1-.427-17.967l17.754,9.365-16.374-12.241a22.147,22.147,0,0,1,39.628,1.926,22.978,22.978,0,0,1-2.79,23.447,22.99,22.99,0,0,1,2.546,4.134l-15.876,8.385,16.932-5.776a22.978,22.978,0,0,1-3.6,21.289,22.937,22.937,0,0,1-2.38,30.677,22.039,22.039,0,0,1-30.276,0,22.937,22.937,0,0,1-2.38-30.677,22.962,22.962,0,0,1,0-28.033Z" transform="translate(-623.72 -252.103)" fill="#e61030"/>
      <path id="Path_597" data-name="Path 597" d="M668.335,343.034a22.811,22.811,0,0,1-4.774,14.016,22.937,22.937,0,0,1-2.38,30.677,22.039,22.039,0,0,1-30.276,0,22.937,22.937,0,0,1-2.38-30.677C625.524,353.194,668.335,340.491,668.335,343.034Z" transform="translate(-623.729 -292.29)" fill="#e61030" opacity="0.1"/>
    </g>
    <g id="Group_77" data-name="Group 77" transform="translate(538.435 -0.359)" opacity="0.1">
      <ellipse id="Ellipse_134" data-name="Ellipse 134" cx="6.23" cy="8.291" rx="6.23" ry="8.291" transform="translate(23.901 171.145)" fill="#e61030"/>
      <path id="Path_598" data-name="Path 598" d="M1080.492,410.35a10.143,10.143,0,0,1-1.3-5.069c0-4.579,2.792-8.291,6.235-8.291s6.23,3.711,6.23,8.291a10.144,10.144,0,0,1-1.3,5.069,10.5,10.5,0,0,1,0,10.133,10.5,10.5,0,0,1,0,10.132,10.11,10.11,0,0,1,1.3,5.069c0,4.574-2.792,8.291-6.23,8.291s-6.235-3.717-6.235-8.291a10.11,10.11,0,0,1,1.3-5.069,10.5,10.5,0,0,1,0-10.133A10.5,10.5,0,0,1,1080.492,410.35Z" transform="translate(-1055.294 -266.386)" fill="#e61030"/>
      <ellipse id="Ellipse_135" data-name="Ellipse 135" cx="6.23" cy="8.291" rx="6.23" ry="8.291" transform="translate(23.901 120.482)" fill="#e61030"/>
      <ellipse id="Ellipse_136" data-name="Ellipse 136" cx="6.23" cy="8.291" rx="6.23" ry="8.291" transform="translate(23.901 110.35)" fill="#e61030"/>
      <path id="Path_599" data-name="Path 599" d="M1088.993,211.564a29.557,29.557,0,0,0,2.321-3.472l-16.369-2.732,17.7.134a30.85,30.85,0,0,0,.547-24.038l-23.754,12.525,21.9-16.37a29.638,29.638,0,0,0-53.14,2.481,30.747,30.747,0,0,0,3.87,31.461,30.427,30.427,0,0,0-3.405,5.531l21.257,11.251-22.659-7.729a30.741,30.741,0,0,0,4.812,28.489,30.7,30.7,0,0,0,3.206,41.04,29.494,29.494,0,0,0,40.505,0,30.7,30.7,0,0,0,3.205-41.04,30.728,30.728,0,0,0,0-37.514Z" transform="translate(-1035.541 -162.271)" fill="#e61030"/>
      <path id="Path_600" data-name="Path 600" d="M1035.81,284.214a30.514,30.514,0,0,0,6.389,18.757,30.7,30.7,0,0,0,3.205,41.04,29.494,29.494,0,0,0,40.505,0,30.7,30.7,0,0,0,3.205-41.04C1093.116,297.807,1035.81,280.808,1035.81,284.214Z" transform="translate(-1035.662 -216.163)" fill="#e61030" opacity="0.1"/>
    </g>
    <g id="Group_78" data-name="Group 78" transform="translate(485.998 46.287)" opacity="0.1">
      <ellipse id="Ellipse_137" data-name="Ellipse 137" cx="4.659" cy="6.193" rx="4.659" ry="6.193" transform="translate(17.767 127.787)" fill="#e61030"/>
      <path id="Path_601" data-name="Path 601" d="M973.2,431.3a7.568,7.568,0,0,1-.969-3.784c0-3.422,2.086-6.2,4.653-6.2s4.659,2.782,4.659,6.2a7.512,7.512,0,0,1-.974,3.784,7.845,7.845,0,0,1,0,7.573,7.845,7.845,0,0,1,0,7.573,7.511,7.511,0,0,1,.974,3.784c0,3.422-2.086,6.2-4.659,6.2s-4.653-2.782-4.653-6.2a7.568,7.568,0,0,1,.969-3.784,7.9,7.9,0,0,1,0-7.573A7.9,7.9,0,0,1,973.2,431.3Z" transform="translate(-954.452 -323.825)" fill="#e61030"/>
      <ellipse id="Ellipse_138" data-name="Ellipse 138" cx="4.659" cy="6.193" rx="4.659" ry="6.193" transform="translate(17.767 89.928)" fill="#e61030"/>
      <ellipse id="Ellipse_139" data-name="Ellipse 139" cx="4.659" cy="6.193" rx="4.659" ry="6.193" transform="translate(17.767 82.355)" fill="#e61030"/>
      <path id="Path_602" data-name="Path 602" d="M979.612,282.831a21.72,21.72,0,0,0,1.735-2.593L969.112,278.2l13.232.1a23.067,23.067,0,0,0,.427-17.967l-17.754,9.365,16.374-12.241a22.147,22.147,0,0,0-39.628,1.926,22.978,22.978,0,0,0,2.79,23.447,22.986,22.986,0,0,0-2.546,4.134l15.876,8.385-16.9-5.77a22.978,22.978,0,0,0,3.6,21.289,22.937,22.937,0,0,0,2.38,30.677,22.039,22.039,0,0,0,30.276,0,22.937,22.937,0,0,0,2.38-30.677,22.962,22.962,0,0,0,0-28.033Z" transform="translate(-939.756 -246.103)" fill="#e61030"/>
      <path id="Path_603" data-name="Path 603" d="M939.791,337.034a22.811,22.811,0,0,0,4.774,14.016,22.937,22.937,0,0,0,2.38,30.677,22.039,22.039,0,0,0,30.276,0,22.937,22.937,0,0,0,2.38-30.677C982.6,347.194,939.791,334.491,939.791,337.034Z" transform="translate(-939.767 -286.29)" fill="#e61030" opacity="0.1"/>
    </g>
    <g id="Group_79" data-name="Group 79" transform="translate(4.001 -0.266)" opacity="0.1">
      <ellipse id="Ellipse_140" data-name="Ellipse 140" cx="6.23" cy="8.291" rx="6.23" ry="8.291" transform="translate(23.486 171.052)" fill="#3f3d56"/>
      <path id="Path_604" data-name="Path 604" d="M113.366,410.35a10.144,10.144,0,0,0,1.3-5.069c0-4.579-2.792-8.291-6.23-8.291s-6.23,3.711-6.23,8.291a10.144,10.144,0,0,0,1.3,5.069,10.537,10.537,0,0,0,0,10.133,10.537,10.537,0,0,0,0,10.133,10.1,10.1,0,0,0-1.3,5.069c0,4.574,2.786,8.291,6.23,8.291s6.246-3.706,6.246-8.28a10.11,10.11,0,0,0-1.3-5.069,10.5,10.5,0,0,0,0-10.133,10.5,10.5,0,0,0,0-10.133Z" transform="translate(-78.724 -266.48)" fill="#3f3d56"/>
      <ellipse id="Ellipse_141" data-name="Ellipse 141" cx="6.23" cy="8.291" rx="6.23" ry="8.291" transform="translate(23.486 120.389)" fill="#3f3d56"/>
      <ellipse id="Ellipse_142" data-name="Ellipse 142" cx="6.23" cy="8.291" rx="6.23" ry="8.291" transform="translate(23.486 110.257)" fill="#3f3d56"/>
      <path id="Path_605" data-name="Path 605" d="M65.709,211.639a30.26,30.26,0,0,1-2.321-3.472l16.374-2.732-17.721.161a30.849,30.849,0,0,1-.547-24.038l23.759,12.525-21.9-16.37a29.631,29.631,0,0,1,53.085,2.521,30.741,30.741,0,0,1-3.815,31.421,30.429,30.429,0,0,1,3.405,5.531L94.768,228.409l22.664-7.729a30.775,30.775,0,0,1-4.818,28.489,30.7,30.7,0,0,1-3.206,41.04,29.494,29.494,0,0,1-40.5,0A30.7,30.7,0,0,1,65.7,249.17a30.728,30.728,0,0,1,0-37.514Z" transform="translate(-59.309 -162.439)" fill="#e61030"/>
      <path id="Path_606" data-name="Path 606" d="M119,284.214a30.513,30.513,0,0,1-6.389,18.757,30.7,30.7,0,0,1-3.206,41.04,29.494,29.494,0,0,1-40.5,0,30.7,30.7,0,0,1-3.206-41.04C61.7,297.807,119,280.808,119,284.214Z" transform="translate(-59.309 -216.257)" fill="#e83225" opacity="0.1"/>
    </g>
    <g id="Group_80" data-name="Group 80" transform="translate(71.65 46.287)" opacity="0.1">
      <ellipse id="Ellipse_143" data-name="Ellipse 143" cx="4.659" cy="6.193" rx="4.659" ry="6.193" transform="translate(17.545 127.787)" fill="#e61030"/>
      <path id="Path_607" data-name="Path 607" d="M223.273,431.3a7.568,7.568,0,0,0,.969-3.784c0-3.422-2.08-6.2-4.653-6.2s-4.659,2.782-4.659,6.2a7.568,7.568,0,0,0,.974,3.784,7.845,7.845,0,0,0,0,7.573,7.845,7.845,0,0,0,0,7.573,7.568,7.568,0,0,0-.974,3.784c0,3.422,2.086,6.2,4.659,6.2s4.653-2.782,4.653-6.2a7.568,7.568,0,0,0-.969-3.784,7.9,7.9,0,0,0,0-7.573,7.9,7.9,0,0,0,0-7.573Z" transform="translate(-197.384 -323.825)" fill="#e61030"/>
      <ellipse id="Ellipse_144" data-name="Ellipse 144" cx="4.659" cy="6.193" rx="4.659" ry="6.193" transform="translate(17.545 89.928)" fill="#e61030"/>
      <ellipse id="Ellipse_145" data-name="Ellipse 145" cx="4.659" cy="6.193" rx="4.659" ry="6.193" transform="translate(17.545 82.355)" fill="#e61030"/>
      <path id="Path_608" data-name="Path 608" d="M187.654,282.831a22.393,22.393,0,0,1-1.735-2.593l12.235-2.042-13.232.1a23.066,23.066,0,0,1-.427-17.967l17.754,9.365-16.374-12.241a22.147,22.147,0,0,1,39.628,1.926,22.978,22.978,0,0,1-2.79,23.447,22.384,22.384,0,0,1,2.546,4.134l-15.876,8.385,16.932-5.776a22.978,22.978,0,0,1-3.6,21.289,22.937,22.937,0,0,1-2.38,30.677,22.039,22.039,0,0,1-30.276,0,22.937,22.937,0,0,1-2.38-30.677,22.962,22.962,0,0,1,0-28.033Z" transform="translate(-182.88 -246.103)" fill="#e61030"/>
      <path id="Path_609" data-name="Path 609" d="M227.495,337.034a22.811,22.811,0,0,1-4.774,14.016,22.937,22.937,0,0,1-2.38,30.677,22.039,22.039,0,0,1-30.276,0,22.937,22.937,0,0,1-2.38-30.677C184.673,347.194,227.495,334.491,227.495,337.034Z" transform="translate(-182.889 -286.29)" fill="#e61030" opacity="0.1"/>
    </g>
    <ellipse id="Ellipse_146" data-name="Ellipse 146" cx="300" cy="4.93" rx="300" ry="4.93" transform="translate(0 269.301)" fill="#6c63ff" opacity="0.1"/>
    <ellipse id="Ellipse_147" data-name="Ellipse 147" cx="300" cy="4.93" rx="300" ry="4.93" transform="translate(0 309.781)" fill="#6c63ff" opacity="0.1"/>
    <ellipse id="Ellipse_148" data-name="Ellipse 148" cx="300" cy="4.93" rx="300" ry="4.93" transform="translate(0 184.819)" fill="#6c63ff" opacity="0.1"/>
    <ellipse id="Ellipse_149" data-name="Ellipse 149" cx="300" cy="4.93" rx="300" ry="4.93" transform="translate(0 227.058)" fill="#6c63ff" opacity="0.1"/>
    <path id="Path_610" data-name="Path 610" d="M835.976,262.195a9.869,9.869,0,0,0-5.8.645,8.441,8.441,0,0,1-6.974,0,9.645,9.645,0,0,0-8.212.161,4.994,4.994,0,0,1-2.36.6c-3.328,0-6.093-3.405-6.668-7.9a6.569,6.569,0,0,0,1.642-1.82c1.949-3.194,4.965-5.247,8.36-5.247s6.372,2.025,8.321,5.186a6.371,6.371,0,0,0,5.524,3.083h.088C832.571,256.881,834.865,259.04,835.976,262.195Z" transform="translate(-393.208 -200.941)" fill="#6c63ff" opacity="0.1"/>
    <path id="Path_611" data-name="Path 611" d="M846.1,238.073l-5.376,3.461,3.285-6.032a5.257,5.257,0,0,0-3.252-1.174h-.088a6.116,6.116,0,0,1-1.095-.083l-1.85,1.174.783-1.447a6.467,6.467,0,0,1-3.192-2.459l-3.285,2.1,2.058-3.806a9.488,9.488,0,0,0-7.3-3.75c-3.394,0-6.411,2.048-8.365,5.242a6.222,6.222,0,0,1-5.524,3.027h-.181c-3.745,0-6.777,4.312-6.777,9.632s3.033,9.637,6.777,9.637a5.075,5.075,0,0,0,2.359-.6,9.634,9.634,0,0,1,8.212-.167,8.388,8.388,0,0,0,6.974,0,9.666,9.666,0,0,1,8.135.161,5.026,5.026,0,0,0,2.332.59c3.745,0,6.777-4.318,6.777-9.637A12.362,12.362,0,0,0,846.1,238.073Z" transform="translate(-393.199 -190.925)" fill="#e83225" opacity="0.1"/>
    <path id="Path_612" data-name="Path 612" d="M425.9,260.027a6.925,6.925,0,0,0-4.068.451,5.89,5.89,0,0,1-4.878,0,6.732,6.732,0,0,0-5.743.117,3.577,3.577,0,0,1-1.642.417c-2.327,0-4.265-2.382-4.67-5.525a4.6,4.6,0,0,0,1.166-1.274,6.495,6.495,0,0,1,11.677-.044,4.467,4.467,0,0,0,3.87,2.159h.06C423.513,256.316,425.117,257.829,425.9,260.027Z" transform="translate(-211.707 -201.784)" fill="#6c63ff" opacity="0.1"/>
    <path id="Path_613" data-name="Path 613" d="M432.98,243.153l-3.761,2.426,2.283-4.223a3.659,3.659,0,0,0-2.272-.824h-.066a4.038,4.038,0,0,1-.777-.061l-1.276.824.547-1.013a4.553,4.553,0,0,1-2.234-1.719l-2.283,1.469,1.445-2.66a6.649,6.649,0,0,0-5.113-2.632,6.989,6.989,0,0,0-5.852,3.672,4.362,4.362,0,0,1-3.87,2.12h-.126c-2.622,0-4.746,3.016-4.746,6.744s2.124,6.744,4.746,6.744a3.513,3.513,0,0,0,1.642-.423,6.743,6.743,0,0,1,5.737-.111,5.793,5.793,0,0,0,4.883.033,6.765,6.765,0,0,1,5.693.111,3.5,3.5,0,0,0,1.642.412c2.617,0,4.741-3.021,4.741-6.744A8.643,8.643,0,0,0,432.98,243.153Z" transform="translate(-211.698 -194.775)" fill="#e83225" opacity="0.1"/>
    <path id="Path_614" data-name="Path 614" d="M321.59,338.437a6.914,6.914,0,0,1,4.062.451,5.9,5.9,0,0,0,4.883,0,6.754,6.754,0,0,1,5.743.111,3.5,3.5,0,0,0,1.642.423c2.327,0,4.265-2.387,4.664-5.531a4.508,4.508,0,0,1-1.161-1.274,6.5,6.5,0,0,0-11.682-.039,4.467,4.467,0,0,1-3.865,2.159h-.06C323.971,334.748,322.362,336.256,321.59,338.437Z" transform="translate(-174.004 -236.564)" fill="#6c63ff" opacity="0.1"/>
    <path id="Path_615" data-name="Path 615" d="M307.828,321.6l3.766,2.426-2.288-4.218a3.68,3.68,0,0,1,2.277-.829h.06a4.593,4.593,0,0,0,.783-.056l1.276.818-.547-1.007a4.548,4.548,0,0,0,2.228-1.719l2.283,1.469-1.423-2.665a6.644,6.644,0,0,1,5.113-2.626,7,7,0,0,1,5.852,3.672,4.362,4.362,0,0,0,3.865,2.12h.131c2.617,0,4.741,3.021,4.741,6.744s-2.124,6.744-4.741,6.744a3.507,3.507,0,0,1-1.642-.417,6.732,6.732,0,0,0-5.743-.117,5.866,5.866,0,0,1-2.453.556,5.94,5.94,0,0,1-2.431-.523,6.753,6.753,0,0,0-5.688.111,3.5,3.5,0,0,1-1.642.412c-2.622,0-4.746-3.016-4.746-6.744a8.706,8.706,0,0,1,.969-4.151Z" transform="translate(-167.337 -229.574)" fill="#e83225" opacity="0.1"/>
    <path id="Path_616" data-name="Path 616" d="M711.232,605.658c1.429-2.693-.192-5.987-2.053-8.385s-4.139-4.9-4.089-7.951c.071-4.39,4.659-6.989,8.321-9.315a40.8,40.8,0,0,0,7.473-6.121,11.188,11.188,0,0,0,2.294-3.127,12.84,12.84,0,0,0,.69-5.564q-.235-9.4-.914-18.785" transform="translate(-347.558 -333.024)" fill="none" stroke="#3f3d56" stroke-miterlimit="10" stroke-width="4"/>
    <path id="Path_617" data-name="Path 617" d="M739.314,540.641a6.865,6.865,0,0,0-3.367-5.614l-1.511,3.032.049-3.672A6.684,6.684,0,0,0,727,537.114a6.94,6.94,0,0,0,.276,8.073,6.672,6.672,0,0,0,7.649,2.192,6.852,6.852,0,0,0,4.385-6.737Z" transform="translate(-356.951 -327.567)" fill="#e61030"/>
    <path id="Path_618" data-name="Path 618" d="M717.965,621.258a6.7,6.7,0,0,1-7.41,3.563,6.867,6.867,0,0,1-4.875-9.127,6.706,6.706,0,0,1,12.591.072l-4.21,3.483,4.631-1.113A6.9,6.9,0,0,1,717.965,621.258Z" transform="translate(-347.624 -361.822)" fill="#e61030"/>
    <path id="Path_619" data-name="Path 619" d="M716.576,594.352a6.767,6.767,0,0,1-6.97-5.75,6.853,6.853,0,0,1,4.835-7.688l-.038,2.821,1.527-3.071h0a6.852,6.852,0,0,1,.63,13.688Z" transform="translate(-349.564 -348.215)" fill="#e61030"/>
    <path id="Path_620" data-name="Path 620" d="M746.441,574.466a6.734,6.734,0,0,1-6.591-4.262,6.926,6.926,0,0,1,1.8-7.727,6.653,6.653,0,0,1,7.771-.809l-1.188,3.339,2.425-2.437a6.926,6.926,0,0,1,1.782,7.381,6.752,6.752,0,0,1-6.019,4.509Z" transform="translate(-363.065 -339.396)" fill="#e61030"/>
    <path id="Path_621" data-name="Path 621" d="M738.4,545.462c-1.555.172-3.066.662-4.631.762a4.964,4.964,0,0,1-4.259-1.514,22.049,22.049,0,0,1-1.248-2.226,4.829,4.829,0,0,0-1.7-1.625,6.942,6.942,0,0,0,.687,7.325,6.681,6.681,0,0,0,6.821,2.466,6.8,6.8,0,0,0,5.083-5.239C738.906,545.417,738.648,545.434,738.4,545.462Z" transform="translate(-356.942 -330.562)" opacity="0.1"/>
    <path id="Path_622" data-name="Path 622" d="M746.466,577.591a6.706,6.706,0,0,1-5.925-3.042,6.946,6.946,0,0,1-.485-6.729,5.029,5.029,0,0,1,1.352,1.38,23.3,23.3,0,0,0,1.336,2.265,5.445,5.445,0,0,0,4.473,1.586c1.626-.083,3.2-.556,4.818-.7.224,0,.449-.033.679-.039a6.769,6.769,0,0,1-6.246,5.275Z" transform="translate(-363.09 -342.521)" opacity="0.1"/>
    <path id="Path_623" data-name="Path 623" d="M716.578,597.583a6.7,6.7,0,0,1-5.884-2.985,6.945,6.945,0,0,1-.581-6.658,5.514,5.514,0,0,1,1.429,1.391A23.005,23.005,0,0,0,713,591.64a6.043,6.043,0,0,0,4.768,1.669c1.719-.072,3.285-.451,4.927-.556a6.77,6.77,0,0,1-6.12,4.83Z" transform="translate(-349.566 -351.446)" opacity="0.1"/>
    <path id="Path_624" data-name="Path 624" d="M717.965,624.734a6.7,6.7,0,0,1-7.41,3.563,6.867,6.867,0,0,1-4.875-9.127,6.764,6.764,0,0,1,1.478,1.341c.641.79,1.062,1.669,1.807,2.432a8.338,8.338,0,0,0,5.578,1.992,27.838,27.838,0,0,0,3.422-.2Z" transform="translate(-347.624 -365.298)" opacity="0.1"/>
    <path id="Path_625" data-name="Path 625" d="M101.232,533.658c1.429-2.693-.192-5.987-2.053-8.385s-4.139-4.908-4.089-7.951c.071-4.39,4.659-6.989,8.321-9.315a40.8,40.8,0,0,0,7.473-6.121,11.189,11.189,0,0,0,2.294-3.127,12.84,12.84,0,0,0,.69-5.564q-.241-9.4-.914-18.785" transform="translate(-71.5 -301.087)" fill="none" stroke="#3f3d56" stroke-miterlimit="10" stroke-width="4"/>
    <path id="Path_626" data-name="Path 626" d="M129.314,468.642a6.865,6.865,0,0,0-3.367-5.614l-1.511,3.033.049-3.672A6.684,6.684,0,0,0,117,465.114a6.94,6.94,0,0,0,.276,8.073,6.672,6.672,0,0,0,7.649,2.192A6.852,6.852,0,0,0,129.314,468.642Z" transform="translate(-80.893 -295.63)" fill="#e61030"/>
    <path id="Path_627" data-name="Path 627" d="M107.965,549.258a6.7,6.7,0,0,1-7.41,3.563,6.867,6.867,0,0,1-4.875-9.127,6.706,6.706,0,0,1,12.591.072l-4.21,3.483,4.631-1.113a6.9,6.9,0,0,1-.728,3.122Z" transform="translate(-71.565 -329.885)" fill="#e61030"/>
    <path id="Path_628" data-name="Path 628" d="M106.576,522.352a6.767,6.767,0,0,1-6.97-5.75,6.853,6.853,0,0,1,4.835-7.688l-.038,2.821,1.527-3.071h0a6.852,6.852,0,0,1,.63,13.688Z" transform="translate(-73.505 -316.277)" fill="#e61030"/>
    <path id="Path_629" data-name="Path 629" d="M136.441,502.466a6.734,6.734,0,0,1-6.591-4.262,6.926,6.926,0,0,1,1.8-7.727,6.654,6.654,0,0,1,7.771-.809l-1.188,3.339,2.425-2.437a6.926,6.926,0,0,1,1.782,7.381,6.752,6.752,0,0,1-6.019,4.509Z" transform="translate(-87.007 -307.459)" fill="#e61030"/>
    <path id="Path_630" data-name="Path 630" d="M128.4,473.462c-1.555.172-3.066.662-4.631.762a4.964,4.964,0,0,1-4.259-1.513,22.065,22.065,0,0,1-1.248-2.226,4.829,4.829,0,0,0-1.7-1.625,6.942,6.942,0,0,0,.687,7.325,6.68,6.68,0,0,0,6.821,2.466,6.8,6.8,0,0,0,5.083-5.239C128.906,473.417,128.648,473.434,128.4,473.462Z" transform="translate(-80.884 -298.625)" opacity="0.1"/>
    <path id="Path_631" data-name="Path 631" d="M136.466,505.591a6.706,6.706,0,0,1-5.925-3.042,6.946,6.946,0,0,1-.485-6.729,5.03,5.03,0,0,1,1.352,1.38,23.292,23.292,0,0,0,1.336,2.265,5.445,5.445,0,0,0,4.473,1.586c1.626-.083,3.2-.556,4.818-.7.224,0,.449-.033.679-.039A6.769,6.769,0,0,1,136.466,505.591Z" transform="translate(-87.031 -310.584)" opacity="0.1"/>
    <path id="Path_632" data-name="Path 632" d="M106.578,525.583a6.7,6.7,0,0,1-5.884-2.985,6.945,6.945,0,0,1-.581-6.658,5.516,5.516,0,0,1,1.429,1.391A22.984,22.984,0,0,0,103,519.64a6.043,6.043,0,0,0,4.768,1.669c1.719-.072,3.285-.451,4.927-.556A6.77,6.77,0,0,1,106.578,525.583Z" transform="translate(-73.507 -319.508)" opacity="0.1"/>
    <path id="Path_633" data-name="Path 633" d="M107.965,552.734a6.7,6.7,0,0,1-7.41,3.563,6.867,6.867,0,0,1-4.875-9.127,6.767,6.767,0,0,1,1.478,1.341c.641.79,1.062,1.669,1.807,2.432a8.338,8.338,0,0,0,5.578,1.992,27.851,27.851,0,0,0,3.422-.2Z" transform="translate(-71.565 -333.361)" opacity="0.1"/>
    <path id="Path_634" data-name="Path 634" d="M502.06,451.3c-1.429-2.688.192-5.982,2.058-8.38s4.133-4.9,4.084-7.951c-.066-4.4-4.653-6.989-8.321-9.315a40.639,40.639,0,0,1-7.467-6.121,10.993,10.993,0,0,1-2.3-3.122,13.019,13.019,0,0,1-.69-5.564q.246-9.4.914-18.785" transform="translate(-249.951 -264.558)" fill="none" stroke="#3f3d56" stroke-miterlimit="10" stroke-width="4"/>
    <path id="Path_635" data-name="Path 635" d="M478.384,386.282a6.86,6.86,0,0,1,3.361-5.614l1.511,3.033-.044-3.672a6.867,6.867,0,1,1-4.828,6.254Z" transform="translate(-244.959 -259.097)" fill="#e61030"/>
    <path id="Path_636" data-name="Path 636" d="M499.724,466.854a6.7,6.7,0,0,0,7.772,3.477,6.873,6.873,0,0,0-.784-13.382,6.727,6.727,0,0,0-7.312,4.39l4.21,3.483-4.631-1.113A6.9,6.9,0,0,0,499.724,466.854Z" transform="translate(-254.283 -293.308)" fill="#e61030"/>
    <path id="Path_637" data-name="Path 637" d="M501.109,439.991a6.767,6.767,0,0,0,6.976-5.747,6.853,6.853,0,0,0-4.836-7.691l.033,2.821-1.527-3.071h0a6.782,6.782,0,0,0-7.062,6.5,6.872,6.872,0,0,0,.29,2.337,6.754,6.754,0,0,0,6.126,4.846Z" transform="translate(-252.339 -279.744)" fill="#e61030"/>
    <path id="Path_638" data-name="Path 638" d="M471.215,420.086a6.734,6.734,0,0,0,6.587-4.265A6.926,6.926,0,0,0,476,408.1a6.654,6.654,0,0,0-7.77-.808l1.193,3.339-2.453-2.387a6.84,6.84,0,0,0-2.19,4.73,6.784,6.784,0,0,0,6.432,7.117Z" transform="translate(-238.803 -270.917)" fill="#e61030"/>
    <path id="Path_639" data-name="Path 639" d="M479.425,391.1c1.555.172,3.066.662,4.626.762a4.986,4.986,0,0,0,4.265-1.513,22.015,22.015,0,0,0,1.243-2.226,4.846,4.846,0,0,1,1.7-1.625,6.942,6.942,0,0,1-.685,7.329,6.68,6.68,0,0,1-6.826,2.464,6.8,6.8,0,0,1-5.081-5.248C478.916,391.052,479.168,391.074,479.425,391.1Z" transform="translate(-245.092 -262.092)" fill="#e61030" opacity="0.1"/>
    <path id="Path_640" data-name="Path 640" d="M471.376,423.211a6.711,6.711,0,0,0,5.921-3.045,6.951,6.951,0,0,0,.489-6.726,5.05,5.05,0,0,0-1.358,1.38,23.3,23.3,0,0,1-1.336,2.265,5.427,5.427,0,0,1-4.467,1.586c-1.626-.083-3.2-.556-4.818-.7-.224,0-.454-.033-.679-.039A6.763,6.763,0,0,0,471.376,423.211Z" transform="translate(-238.964 -274.042)" opacity="0.1"/>
    <path id="Path_641" data-name="Path 641" d="M501.36,443.223a6.7,6.7,0,0,0,5.888-2.982,6.94,6.94,0,0,0,.577-6.661,5.421,5.421,0,0,0-1.423,1.391,22.986,22.986,0,0,1-1.462,2.309,6.055,6.055,0,0,1-4.774,1.669c-1.724-.072-3.285-.451-4.927-.556A6.754,6.754,0,0,0,501.36,443.223Z" transform="translate(-252.59 -282.975)" opacity="0.1"/>
    <path id="Path_642" data-name="Path 642" d="M500.34,470.374a6.689,6.689,0,0,0,8.724,3.1,6.891,6.891,0,0,0,3.566-8.667,6.507,6.507,0,0,0-1.478,1.341c-.641.79-1.095,1.669-1.807,2.432a8.352,8.352,0,0,1-5.584,1.992A29.06,29.06,0,0,1,500.34,470.374Z" transform="translate(-254.898 -296.828)" opacity="0.1"/>
    <ellipse id="Ellipse_150" data-name="Ellipse 150" cx="54.723" cy="55.62" rx="54.723" ry="55.62" transform="translate(372.137 76.75)" fill="#e9be4e"/>
    <path id="Path_643" data-name="Path 643" d="M834.6,394.945A41.421,41.421,0,0,0,825.843,389c-2.622-1.28-3.586-1.258-5.442.106-1.544,1.113-2.546,2.187-4.319,1.792s-5.288-3.088-8.688-6.532-6.038-6.994-6.416-8.825.662-2.827,1.768-4.4c1.336-1.886,1.374-2.866.1-5.531a42.728,42.728,0,0,0-5.858-8.9c-1.922-1.948-2.338-1.519-3.389-1.113a19.491,19.491,0,0,0-3.1,1.669,9.459,9.459,0,0,0-3.723,4c-.75,1.625-1.6,4.641,2.765,12.536a69.858,69.858,0,0,0,12.1,16.4h0a69.016,69.016,0,0,0,16.188,12.319c7.763,4.451,10.735,3.567,12.334,2.81a9.252,9.252,0,0,0,3.931-3.784,19.773,19.773,0,0,0,1.642-3.155C836.1,397.321,836.524,396.887,834.6,394.945Z" transform="translate(-384.252 -248.23)" fill="#e61030"/>
    <path id="Path_644" data-name="Path 644" d="M786.452,300.86c-30.242-.015-54.767,24.9-54.772,55.633s24.521,55.662,54.763,55.652c30.223,0,54.736-24.923,54.726-55.661C841.159,325.772,816.669,300.875,786.452,300.86Zm0,103.84c-26.2,0-47.447-21.591-47.447-48.225s21.243-48.225,47.447-48.225S833.9,329.841,833.9,356.475,812.656,404.7,786.452,404.7Z" transform="translate(-359.592 -224.104)" opacity="0.1"/>
    <ellipse id="Ellipse_151" data-name="Ellipse 151" cx="54.723" cy="55.62" rx="54.723" ry="55.62" transform="translate(246.416 161.232)" fill="#e9be4e"/>
    <path id="Path_645" data-name="Path 645" d="M607.026,522.346l-16.385,16.943a.3.3,0,0,0,0,.434l11.5,12.425a2.038,2.038,0,0,1,.425,2.188,1.956,1.956,0,0,1-3.222.655L587.9,542.611a.309.309,0,0,0-.438,0l-2.786,2.86a12.15,12.15,0,0,1-8.759,3.745,12.417,12.417,0,0,1-8.912-3.85l-2.677-2.782a.308.308,0,0,0-.438,0l-11.409,12.353a1.954,1.954,0,0,1-2.8,0,2.026,2.026,0,0,1,0-2.843l11.453-12.4a.338.338,0,0,0,0-.434l-16.385-16.943a.3.3,0,0,0-.329-.067.306.306,0,0,0-.186.284v33.9a4.924,4.924,0,0,0,4.867,4.947h53.578a4.924,4.924,0,0,0,4.867-4.947V522.563a.306.306,0,0,0-.187-.3A.3.3,0,0,0,607.026,522.346Z" transform="translate(-274.766 -322.297)" fill="#e61030"/>
    <path id="Path_646" data-name="Path 646" d="M577.447,540.935a8.221,8.221,0,0,0,5.978-2.5l23.863-24.689a4.717,4.717,0,0,0-3.011-1.113H550.661a4.684,4.684,0,0,0-3.011,1.113l23.869,24.689A8.189,8.189,0,0,0,577.447,540.935Z" transform="translate(-276.309 -318.04)" fill="#e61030"/>
    <path id="Path_647" data-name="Path 647" d="M555.542,452.69c-30.242-.015-54.767,24.9-54.772,55.633s24.521,55.662,54.763,55.652c30.223,0,54.736-24.923,54.726-55.661C610.249,477.6,585.759,452.705,555.542,452.69Zm0,103.84c-26.2,0-47.447-21.591-47.447-48.225s21.243-48.225,47.447-48.225,47.447,21.591,47.447,48.225-21.243,48.225-47.447,48.225Z" transform="translate(-255.093 -291.452)" opacity="0.1"/>
    <ellipse id="Ellipse_152" data-name="Ellipse 152" cx="54.723" cy="55.62" rx="54.723" ry="55.62" transform="translate(116.546 119.695)" fill="#e9be4e"/>
    <path id="Path_648" data-name="Path 648" d="M346.816,430.16,325,481.318l2.036,2.07,19.785-8.869,19.785,8.87,2.036-2.07Z" transform="translate(-175.547 -281.458)" fill="#e61030"/>
    <path id="Path_649" data-name="Path 649" d="M319.572,378c-30.238-.015-54.762,24.89-54.772,55.624s24.5,55.656,54.735,55.661,54.759-24.918,54.754-55.652c0-30.707-24.488-55.613-54.708-55.633Zm0,103.84c-26.208,0-47.452-21.6-47.447-48.235s21.248-48.221,47.456-48.216S367.034,407,367.019,433.643c0,26.626-21.239,48.217-47.442,48.22Z" transform="translate(-148.304 -258.322)" opacity="0.1"/>
    <path id="Path_650" data-name="Path 650" d="M819.328,584.62q-.745-1.847-1.527-3.684a10.977,10.977,0,0,0-1.867-3.277,3.422,3.422,0,0,0-1.095-.835,4.6,4.6,0,0,0-1.429-.289,11.221,11.221,0,0,0-2.245-.061c-.29-.089-.619-.206-.942-.339a7.919,7.919,0,0,0,5.825-7.373c0-.111,0-.228,0-.339a7.867,7.867,0,0,0-7.768-7.962,7.573,7.573,0,0,0-4.078,1.185,7.285,7.285,0,0,0-8.212,4.023,9.274,9.274,0,0,0-2.792,6.844c0,.117,0,.239,0,.351.142,4.323,2.891,7.79,6.361,8.141a3.643,3.643,0,0,0-1.007.684c-1.062,1.041-1.237,2.693-1.352,4.2L797.118,587l-1.839.668a.344.344,0,0,0-.222.278.348.348,0,0,0,.14.329l1.757,1.274v.317a1.413,1.413,0,0,0,.033.362,2.555,2.555,0,0,0-.679.985,4.624,4.624,0,0,0-.159,1.8l.066,1.552a12.375,12.375,0,0,0,.465,3.455c.23.69,1.226,2.354,1.943,2.365a73.132,73.132,0,0,0-.838,9.515c-.082.083.148.161.547.228.394,3.071,1.681,11.685,3.964,15.474a33.1,33.1,0,0,1,.859,3.761s.651,8.185,1.511,10.617a54.857,54.857,0,0,1,1.473,8.658.845.845,0,0,0-.608.634c-.432,1.324-3.235,3.339-3.235,3.339a13.527,13.527,0,0,0-2.42,1.575c-.881.807-.849,1.536,3.066,1.079,7.555-.885,8.847-3.339,8.847-3.339s-.12-.412-.3-.946a10.367,10.367,0,0,0-.991-2.376c-.109-.106-.219.072-.35.351a48.419,48.419,0,0,1-.515-10.745,17.7,17.7,0,0,0-.865-6.416,12.34,12.34,0,0,1,0-4.2c.432-1.769-1.724-10.4-1.724-10.4l-1.237-6.354a1.839,1.839,0,0,1,.345.74l.033.128.033.184a.347.347,0,0,0,.088.173c.843,3.561,3.153,13.427,3.153,14.873,0,1.769,2.157,6.193,2.157,6.193s.859,7.3,2.37,10.172c1.15,2.187,1.177,5.392,1.122,6.805h0a6.379,6.379,0,0,1-.69,2.259,5.4,5.4,0,0,0-.816,1.441l-.049.106s-.646,1.33-.214,1.552a10.446,10.446,0,0,0,5.179.662s.865-1.113.865-1.547a7.056,7.056,0,0,0-.1-.79c-.159-1.046-.454-2.693-.46-2.71a7.7,7.7,0,0,0-.547-2.693l-.219-6.193a29.027,29.027,0,0,0-1.511-12.392s-1.095-3.978-.859-5.086-.432-12.831-.432-12.831l-.066-.167a12.875,12.875,0,0,1,.066-2.487,33.558,33.558,0,0,0-.865-8.4,7.4,7.4,0,0,1-.307-1.831c.049-.462.2-1.814.4-3.494a60.818,60.818,0,0,0,6.361-.556.6.6,0,0,0,.673-.673C821.77,590.941,820.571,587.7,819.328,584.62Zm-4.341,7.017c.224-1.586.465-3.122.706-4.262l.033.1a31.342,31.342,0,0,1,1.04,3.505A11.61,11.61,0,0,1,814.987,591.637Z" transform="translate(-387.432 -339.256)" fill="url(#linear-gradient)"/>
    <path id="Path_651" data-name="Path 651" d="M802.37,648.334s1.292,11.813,4.089,16.4a32.285,32.285,0,0,1,.859,3.717s.646,8.09,1.505,10.494,1.505,8.97,1.505,8.97,3.011,3.494,4.089.657a46.828,46.828,0,0,1-.646-11.373,17.393,17.393,0,0,0-.859-6.343,12.054,12.054,0,0,1,0-4.151c.427-1.753-1.724-10.277-1.724-10.277l-1.719-8.53Z" transform="translate(-391.583 -378.042)" fill="#be6f72"/>
    <path id="Path_652" data-name="Path 652" d="M816.926,722.287s-1.292,2.4-8.819,3.277c-3.909.451-3.936-.267-3.055-1.068a13.6,13.6,0,0,1,2.409-1.558s2.8-1.964,3.224-3.277,1.938-.217,1.938-.217c2.151,3.277,2.584-.879,3.011-.44a9.953,9.953,0,0,1,.991,2.343C816.805,721.875,816.926,722.287,816.926,722.287Z" transform="translate(-392.585 -409.567)" fill="#ff6f61"/>
    <path id="Path_653" data-name="Path 653" d="M816.926,724.18s-1.292,2.4-8.819,3.277c-3.909.451-3.936-.267-3.055-1.068.613.4,1.85.556,4.341-.462,3.586-1.491,6.186-2.354,7.232-2.688C816.805,723.769,816.926,724.18,816.926,724.18Z" transform="translate(-392.585 -411.461)" opacity="0.1"/>
    <path id="Path_654" data-name="Path 654" d="M818.412,677.2a17.393,17.393,0,0,0-.859-6.343,12.053,12.053,0,0,1,0-4.151c.427-1.753-1.724-10.277-1.724-10.277l-1.719-8.53-1.489.089,1.7,8.441s2.151,8.525,1.724,10.277a12.053,12.053,0,0,0,0,4.151,16.885,16.885,0,0,1,.859,6.343,46.825,46.825,0,0,0,.646,11.373,1.914,1.914,0,0,1-.624.9,1.4,1.4,0,0,0,2.13-.9A46.824,46.824,0,0,1,818.412,677.2Z" transform="translate(-396.222 -378.042)" opacity="0.1"/>
    <path id="Path_655" data-name="Path 655" d="M808.189,562.42a7.573,7.573,0,0,0-4.062,1.174,7.273,7.273,0,0,0-8.212,3.978,9.132,9.132,0,0,0-2.786,6.766c0,4.652,3.082,8.419,6.881,8.419,2.737,0,5.135-1.981,6.235-4.846a7.438,7.438,0,0,0,1.938.256,7.874,7.874,0,0,0,0-15.747Z" transform="translate(-387.4 -340.125)" fill="#464353"/>
    <path id="Path_656" data-name="Path 656" d="M825.1,650.65l.646,1.747s.646,11.59.427,12.687.865,5.008.865,5.008a28.42,28.42,0,0,1,1.505,12.241l.214,6.121s.859,2.4.432,2.843-3.673-.39-3.673-.39.432-4.59-1.095-7.434-2.365-10.06-2.365-10.06-2.151-4.374-2.151-6.121-3.443-15.964-3.443-15.964Z" transform="translate(-397.96 -379.262)" fill="#be6f72"/>
    <path id="Path_657" data-name="Path 657" d="M801.566,639.286s.219-7.873,1.095-10.277a16.527,16.527,0,0,0,.958-3.489s13.024,2.393,14.1,1.519a19.278,19.278,0,0,0,.432,3.277,31.937,31.937,0,0,1,.859,8.313c-.235,2.626,0,2.621,0,2.621s-8.825,1.313-9.038,0-.859-1.308-.859-1.308S801.139,639.7,801.566,639.286Z" transform="translate(-391.212 -368.115)" fill="#464353"/>
    <g id="Group_81" data-name="Group 81" transform="translate(410.354 258.924)" opacity="0.1">
      <path id="Path_658" data-name="Path 658" d="M808.68,649.9s-5.442-.15-7.084-.451v.451c-.427.434,7.533.657,7.533.657a.543.543,0,0,1,.3.122C809.135,649.9,808.68,649.9,808.68,649.9Z" transform="translate(-801.58 -637.654)"/>
      <path id="Path_659" data-name="Path 659" d="M825.034,631.527a19.278,19.278,0,0,1-.432-3.277.916.916,0,0,1-.367.134,11.225,11.225,0,0,0,.367,2.487,35.277,35.277,0,0,1,.859,8.313c-.235,2.626,0,2.621,0,2.621s-6.98,1.04-8.672.345a2.676,2.676,0,0,0,.066.312c.214,1.313,9.038,0,9.038,0s-.219,0,0-2.621A33.018,33.018,0,0,0,825.034,631.527Z" transform="translate(-808.463 -628.25)"/>
      <path id="Path_660" data-name="Path 660" d="M808.68,649.9s-5.442-.15-7.084-.451v.451c-.427.434,7.533.657,7.533.657a.543.543,0,0,1,.3.122C809.135,649.9,808.68,649.9,808.68,649.9Z" transform="translate(-801.58 -637.654)"/>
      <path id="Path_661" data-name="Path 661" d="M825.034,631.527a19.278,19.278,0,0,1-.432-3.277.916.916,0,0,1-.367.134,11.225,11.225,0,0,0,.367,2.487,35.277,35.277,0,0,1,.859,8.313c-.235,2.626,0,2.621,0,2.621s-6.98,1.04-8.672.345a2.676,2.676,0,0,0,.066.312c.214,1.313,9.038,0,9.038,0s-.219,0,0-2.621A33.018,33.018,0,0,0,825.034,631.527Z" transform="translate(-808.463 -628.25)"/>
    </g>
    <path id="Path_662" data-name="Path 662" d="M815.071,585.388a2.893,2.893,0,0,0,.821,1.079,1.824,1.824,0,0,0,.772.339c-.482.284-1.007.5-1.489.779a26.534,26.534,0,0,0-2.19,1.669,4.415,4.415,0,0,1-2.513.991,3.17,3.17,0,0,0,.35-3.11,2.937,2.937,0,0,1-.383-1.079,1.937,1.937,0,0,1,1.057-1.447c.411-.284.832-.556,1.259-.829.334-.211.838-.657,1.259-.64s.471.4.547.785A6.234,6.234,0,0,0,815.071,585.388Z" transform="translate(-395.236 -349.316)" fill="#be6f72"/>
    <path id="Path_663" data-name="Path 663" d="M815.071,585.388a2.893,2.893,0,0,0,.821,1.079,1.824,1.824,0,0,0,.772.339c-.482.284-1.007.5-1.489.779a26.534,26.534,0,0,0-2.19,1.669,4.415,4.415,0,0,1-2.513.991,3.17,3.17,0,0,0,.35-3.11,2.937,2.937,0,0,1-.383-1.079,1.937,1.937,0,0,1,1.057-1.447c.411-.284.832-.556,1.259-.829.334-.211.838-.657,1.259-.64s.471.4.547.785A6.234,6.234,0,0,0,815.071,585.388Z" transform="translate(-395.236 -349.316)" opacity="0.1"/>
    <ellipse id="Ellipse_153" data-name="Ellipse 153" cx="4.949" cy="5.03" rx="4.949" ry="5.03" transform="translate(419.929 238.915)" fill="#be6f72"/>
    <path id="Path_664" data-name="Path 664" d="M835.779,725.493c0,.44-.859,1.53-.859,1.53a10.494,10.494,0,0,1-5.162-.657c-.432-.217.214-1.53.214-1.53l.049-.106a5.33,5.33,0,0,1,.816-1.424,6.3,6.3,0,0,0,.684-2.226c1.336-2.226,3.706.963,3.706.963s.3,1.669.46,2.682C835.74,725.087,835.779,725.382,835.779,725.493Z" transform="translate(-403.91 -410.153)" fill="#ff6f61"/>
    <path id="Path_665" data-name="Path 665" d="M835.779,729.019c0,.44-.859,1.53-.859,1.53a10.494,10.494,0,0,1-5.162-.657c-.432-.217.214-1.53.214-1.53l.049-.106a10.259,10.259,0,0,0,4.686.979l.98-1C835.74,728.613,835.779,728.908,835.779,729.019Z" transform="translate(-403.91 -413.679)" opacity="0.1"/>
    <ellipse id="Ellipse_154" data-name="Ellipse 154" cx="4.839" cy="4.919" rx="4.839" ry="4.919" transform="translate(410.141 228.526)" fill="#be6f72"/>
    <path id="Path_666" data-name="Path 666" d="M801.6,599.091c-1.062,1.029-1.237,2.66-1.347,4.145l-.164,2.176a11.154,11.154,0,0,0-.038,1.764c0,.362.088.729.12,1.113s.044.868.049,1.308v3.216a3.848,3.848,0,0,0,.35,1.931,1.283,1.283,0,0,0,1.642.6,1.906,1.906,0,0,0,.679-1.068,16.825,16.825,0,0,0,1.095-4.073c.044-.484.049-.968.093-1.452s.126-.99.2-1.48c.307-2.048.443-4.118.58-6.182.038-.612.58-3.021-.208-3.289-.383-.128-1.177.273-1.544.406a4.33,4.33,0,0,0-1.505.885Z" transform="translate(-390.527 -355.808)" fill="#be6f72"/>
    <path id="Path_667" data-name="Path 667" d="M801.6,599.091c-1.062,1.029-1.237,2.66-1.347,4.145l-.164,2.176a11.154,11.154,0,0,0-.038,1.764c0,.362.088.729.12,1.113s.044.868.049,1.308v3.216a3.848,3.848,0,0,0,.35,1.931,1.283,1.283,0,0,0,1.642.6,1.906,1.906,0,0,0,.679-1.068,16.825,16.825,0,0,0,1.095-4.073c.044-.484.049-.968.093-1.452s.126-.99.2-1.48c.307-2.048.443-4.118.58-6.182.038-.612.58-3.021-.208-3.289-.383-.128-1.177.273-1.544.406a4.33,4.33,0,0,0-1.505.885Z" transform="translate(-390.527 -355.808)" opacity="0.1"/>
    <path id="Path_668" data-name="Path 668" d="M813.645,588.16s-3.657,2.843-5.808,3.5c0,0-1.276,1.48-1.495,1.836s-.657,4.284-1.095,5.164-1.505,2.843,0,4.807a8.468,8.468,0,0,1,.214,2.626c-.214.656-1,3.06-.285,3.172s2.869,1.636,4.8,1.2,9.148,1.669,9.148,1.669,1.193-11.268,2.058-13.26l-1.938-.656s-5.376-3.277-2.151-8.307C817.089,589.913,814.067,589.256,813.645,588.16Z" transform="translate(-392.534 -351.543)" fill="#041546"/>
    <path id="Path_669" data-name="Path 669" d="M796.726,610.7l4.445,3.2a.324.324,0,0,0,.389,0l1.2-.918a.349.349,0,0,0,0-.523l-3.422-3.088a.324.324,0,0,0-.334-.067l-2.2.8a.338.338,0,0,0-.221.271.342.342,0,0,0,.134.325Z" transform="translate(-388.967 -360.913)" fill="#3f3d56"/>
    <path id="Path_670" data-name="Path 670" d="M799.108,622.286a12.3,12.3,0,0,1-.465-3.411l-.066-1.541a4.52,4.52,0,0,1,.159-1.781,2.878,2.878,0,0,1,1.845-1.641,6.271,6.271,0,0,1,2.513-.184.637.637,0,0,1,.323.089.614.614,0,0,1,.175.3,2.045,2.045,0,0,1,.1,1.608,1.658,1.658,0,0,1-.5.529c-.6.434-1.292.723-1.856,1.2a.682.682,0,0,0-.252.323.763.763,0,0,0,0,.351,5.67,5.67,0,0,0,.285.9.885.885,0,0,0,.246.378c.1.089.241.122.35.206.235.195.728.451.7.757a25.255,25.255,0,0,1-1,3.461C801.172,625.975,799.426,623.226,799.108,622.286Z" transform="translate(-389.855 -362.861)" fill="#be6f72"/>
    <g id="Group_82" data-name="Group 82" transform="translate(416.047 247.005)" opacity="0.1">
      <path id="Path_671" data-name="Path 671" d="M812.1,628.208h-.12a3.627,3.627,0,0,0,1.407,0h.137A4.845,4.845,0,0,0,812.1,628.208Z" transform="translate(-811.98 -616.289)"/>
      <path id="Path_672" data-name="Path 672" d="M831.083,606.83c-.772,1.764-1.911,11.318-2.113,13.215.755.2,1.254.345,1.254.345s1.182-11.24,2.047-13.232Z" transform="translate(-819.669 -606.83)"/>
    </g>
    <path id="Path_673" data-name="Path 673" d="M820.947,596.828a1.671,1.671,0,0,0,.706,1.085,9.561,9.561,0,0,1,1.254,1.291,9.2,9.2,0,0,1,1.243,2.532,31.407,31.407,0,0,1,1.035,3.461c-2.737,1.291-5.847,1.23-8.759,2.081a6.968,6.968,0,0,0-3.285,1.975,4.648,4.648,0,0,0-1.21,3.622.479.479,0,0,0,.066.217.456.456,0,0,0,.383.156,3.251,3.251,0,0,0,2.009-.7,9.636,9.636,0,0,0,1.538-1.536,2.478,2.478,0,0,1,1.095-.823,17.64,17.64,0,0,1,4.927-.49,61.116,61.116,0,0,0,7.341-.59.586.586,0,0,0,.488-.172.607.607,0,0,0,.169-.5c.241-3.283-.958-6.488-2.19-9.532q-.739-1.831-1.522-3.645a10.838,10.838,0,0,0-1.861-3.238,3.289,3.289,0,0,0-1.095-.823,4.567,4.567,0,0,0-1.467-.278,10.239,10.239,0,0,0-2.4-.044,5.282,5.282,0,0,0-.23,1.263,11.071,11.071,0,0,0,1.325,4.268C820.586,596.617,820.821,596.628,820.947,596.828Z" transform="translate(-395.9 -352.727)" fill="#be6f72"/>
    <path id="Path_674" data-name="Path 674" d="M811.957,606.67a4.13,4.13,0,0,0-.547,2.126,2.905,2.905,0,0,0,.137.868,2.789,2.789,0,0,0,1.746,1.669" transform="translate(-395.674 -359.754)" fill="none" stroke="#000" stroke-miterlimit="10" stroke-width="1" opacity="0.1"/>
    <path id="Path_675" data-name="Path 675" d="M809.309,572.423a2.477,2.477,0,0,0-.794.128,5.212,5.212,0,0,0-4.38-1.881c-2.617,0-4.735,1.374-4.735,3.066s2.119,3.06,4.735,3.06a6.57,6.57,0,0,0,2.841-.612,2.564,2.564,0,0,0,3.084,1.363,2.623,2.623,0,0,0,1.787-2.9,2.592,2.592,0,0,0-2.55-2.229Z" transform="translate(-390.239 -343.785)" fill="#3f3d56"/>
    <path id="Path_676" data-name="Path 676" d="M809.513,578.69a2.57,2.57,0,0,1-2.321-1.486,6.572,6.572,0,0,1-2.841.613c-2.611,0-4.73-1.369-4.73-3.06a1.856,1.856,0,0,1,0-.306,2.1,2.1,0,0,0-.241.963c0,1.669,2.119,3.06,4.735,3.06a6.57,6.57,0,0,0,2.841-.612,2.57,2.57,0,0,0,2.66,1.46,2.6,2.6,0,0,0,2.2-2.111A2.564,2.564,0,0,1,809.513,578.69Z" transform="translate(-390.23 -345.462)" opacity="0.1"/>
    <path id="Path_677" data-name="Path 677" d="M795.9,568.864a7.273,7.273,0,0,1,8.212-3.978,7.633,7.633,0,0,1,7.554-.329,7.871,7.871,0,0,1,4.227,6.372v-.657a7.889,7.889,0,0,0-3.978-6.858,7.634,7.634,0,0,0-7.831.181,7.273,7.273,0,0,0-8.212,3.978,9.133,9.133,0,0,0-2.786,6.766V575A8.964,8.964,0,0,1,795.9,568.864Z" transform="translate(-387.382 -340.126)" opacity="0.1"/>
    <path id="Path_678" data-name="Path 678" d="M883.312,529.773c1.429-2.688-.192-5.987-2.058-8.385s-4.133-4.891-4.084-7.951c.066-4.39,4.653-6.983,8.321-9.315A40.584,40.584,0,0,0,892.958,498a11.078,11.078,0,0,0,2.3-3.122,13.019,13.019,0,0,0,.69-5.564q-.241-9.4-.914-18.785" transform="translate(-425.434 -299.366)" fill="none" stroke="#3f3d56" stroke-miterlimit="10" stroke-width="4"/>
    <path id="Path_679" data-name="Path 679" d="M911.384,464.725a6.854,6.854,0,0,0-3.361-5.609l-1.511,3.033.044-3.672a6.512,6.512,0,0,0-2.217-.273,6.85,6.85,0,1,0,7.046,6.521Z" transform="translate(-434.822 -293.894)" fill="#e61030"/>
    <path id="Path_680" data-name="Path 680" d="M890.044,545.3a6.7,6.7,0,0,1-7.772,3.475,6.873,6.873,0,0,1,.783-13.381,6.727,6.727,0,0,1,7.312,4.387l-4.21,3.483,4.631-1.113a6.9,6.9,0,0,1-.745,3.149Z" transform="translate(-425.499 -328.105)" fill="#e61030"/>
    <path id="Path_681" data-name="Path 681" d="M888.651,518.437a6.767,6.767,0,0,1-6.976-5.747A6.853,6.853,0,0,1,886.51,505l-.033,2.821L888,504.754h0a6.788,6.788,0,0,1,7.046,6.527,6.912,6.912,0,0,1-1.747,4.932,6.69,6.69,0,0,1-4.669,2.229Z" transform="translate(-427.434 -314.543)" fill="#e61030"/>
    <path id="Path_682" data-name="Path 682" d="M918.516,498.556a6.734,6.734,0,0,1-6.587-4.265,6.926,6.926,0,0,1,1.8-7.725,6.654,6.654,0,0,1,7.77-.808l-1.193,3.339,2.453-2.393a6.856,6.856,0,0,1,2.19,4.73,6.791,6.791,0,0,1-6.432,7.122Z" transform="translate(-440.941 -305.725)" fill="#e61030"/>
    <path id="Path_683" data-name="Path 683" d="M910.475,469.542c-1.555.178-3.071.668-4.631.768a4.974,4.974,0,0,1-4.265-1.519,21.349,21.349,0,0,1-1.243-2.226,4.879,4.879,0,0,0-1.7-1.625,6.942,6.942,0,0,0,.685,7.329,6.68,6.68,0,0,0,6.826,2.464,6.8,6.8,0,0,0,5.081-5.248C910.979,469.5,910.727,469.514,910.475,469.542Z" transform="translate(-434.816 -296.886)" opacity="0.1"/>
    <path id="Path_684" data-name="Path 684" d="M918.538,501.681a6.711,6.711,0,0,1-5.921-3.045,6.952,6.952,0,0,1-.489-6.726,5.028,5.028,0,0,1,1.358,1.374,22.027,22.027,0,0,0,1.336,2.265,5.431,5.431,0,0,0,4.467,1.591c1.626-.078,3.2-.556,4.818-.7.224,0,.454-.039.679-.044a6.769,6.769,0,0,1-6.246,5.281Z" transform="translate(-440.963 -308.849)" opacity="0.1"/>
    <path id="Path_685" data-name="Path 685" d="M888.651,521.654a6.7,6.7,0,0,1-5.9-2.985,6.94,6.94,0,0,1-.57-6.669,5.6,5.6,0,0,1,1.423,1.391c.547.751.849,1.619,1.462,2.309a6.178,6.178,0,0,0,4.774,1.7c1.724-.039,3.285-.456,4.927-.584a6.759,6.759,0,0,1-6.12,4.835Z" transform="translate(-427.434 -317.76)" opacity="0.1"/>
    <path id="Path_686" data-name="Path 686" d="M890.076,548.824a6.693,6.693,0,0,1-8.693,3.031,6.9,6.9,0,0,1-3.6-8.595,6.641,6.641,0,0,1,1.478,1.341c.646.8,1.068,1.669,1.807,2.437a8.381,8.381,0,0,0,5.584,1.992A29.05,29.05,0,0,0,890.076,548.824Z" transform="translate(-425.531 -331.627)" opacity="0.1"/>
    <path id="Path_687" data-name="Path 687" d="M1042.312,681.773c1.429-2.687-.192-5.987-2.058-8.385s-4.133-4.891-4.084-7.951c.066-4.39,4.653-6.983,8.321-9.315a40.584,40.584,0,0,0,7.467-6.121,11.078,11.078,0,0,0,2.3-3.122,13.019,13.019,0,0,0,.69-5.564q-.235-9.4-.914-18.785" transform="translate(-497.39 -366.789)" fill="none" stroke="#3f3d56" stroke-miterlimit="10" stroke-width="4"/>
    <path id="Path_688" data-name="Path 688" d="M1070.407,616.726a6.855,6.855,0,0,0-3.361-5.609l-1.511,3.033.044-3.672a6.513,6.513,0,0,0-2.19-.273,6.85,6.85,0,1,0,7.046,6.521Z" transform="translate(-506.801 -361.318)" fill="#e61030"/>
    <path id="Path_689" data-name="Path 689" d="M1049.044,697.3a6.7,6.7,0,0,1-7.772,3.475,6.873,6.873,0,0,1,.783-13.381,6.727,6.727,0,0,1,7.312,4.386l-4.21,3.483,4.631-1.113A6.9,6.9,0,0,1,1049.044,697.3Z" transform="translate(-497.455 -395.528)" fill="#e61030"/>
    <path id="Path_690" data-name="Path 690" d="M1047.651,670.437a6.766,6.766,0,0,1-6.976-5.747A6.853,6.853,0,0,1,1045.51,657l-.033,2.821,1.527-3.066h0a6.788,6.788,0,0,1,7.046,6.527,6.912,6.912,0,0,1-1.747,4.932,6.689,6.689,0,0,1-4.669,2.229Z" transform="translate(-499.39 -381.966)" fill="#e61030"/>
    <path id="Path_691" data-name="Path 691" d="M1077.515,650.556a6.734,6.734,0,0,1-6.587-4.265,6.926,6.926,0,0,1,1.8-7.725,6.653,6.653,0,0,1,7.77-.808l-1.193,3.339,2.453-2.393a6.857,6.857,0,0,1,2.19,4.73,6.791,6.791,0,0,1-6.432,7.122Z" transform="translate(-512.897 -373.148)" fill="#e83225"/>
    <path id="Path_692" data-name="Path 692" d="M1069.475,621.542c-1.555.178-3.071.668-4.631.768a4.974,4.974,0,0,1-4.265-1.519,21.314,21.314,0,0,1-1.243-2.226,4.879,4.879,0,0,0-1.7-1.625,6.942,6.942,0,0,0,.685,7.329,6.68,6.68,0,0,0,6.825,2.464,6.8,6.8,0,0,0,5.081-5.248C1069.979,621.5,1069.727,621.514,1069.475,621.542Z" transform="translate(-506.772 -364.309)" opacity="0.1"/>
    <path id="Path_693" data-name="Path 693" d="M1077.538,653.681a6.711,6.711,0,0,1-5.921-3.045,6.951,6.951,0,0,1-.489-6.726,5.03,5.03,0,0,1,1.358,1.374,22.022,22.022,0,0,0,1.336,2.265,5.431,5.431,0,0,0,4.467,1.591c1.626-.078,3.2-.556,4.818-.7.224,0,.454-.039.679-.044A6.769,6.769,0,0,1,1077.538,653.681Z" transform="translate(-512.92 -376.272)" fill="#e61030" opacity="0.1"/>
    <path id="Path_694" data-name="Path 694" d="M1047.651,673.654a6.7,6.7,0,0,1-5.9-2.985,6.94,6.94,0,0,1-.57-6.669,5.6,5.6,0,0,1,1.423,1.391c.547.751.849,1.619,1.462,2.309a6.178,6.178,0,0,0,4.774,1.7c1.724-.039,3.285-.456,4.927-.584A6.759,6.759,0,0,1,1047.651,673.654Z" transform="translate(-499.391 -385.184)" opacity="0.1"/>
    <path id="Path_695" data-name="Path 695" d="M1049.076,700.824a6.694,6.694,0,0,1-8.692,3.03,6.9,6.9,0,0,1-3.6-8.595,6.642,6.642,0,0,1,1.478,1.341c.646.8,1.095,1.669,1.807,2.437a8.381,8.381,0,0,0,5.584,1.992,29.065,29.065,0,0,0,3.422-.206Z" transform="translate(-497.487 -399.05)" opacity="0.1"/>
    <path id="Path_696" data-name="Path 696" d="M469.323,575.454a5.49,5.49,0,0,0-2.14-4.407,6.369,6.369,0,0,0-5.261-6.276,6.353,6.353,0,0,0-4.188-4.758h0a5.266,5.266,0,0,0-.777-.184h-.925a6.2,6.2,0,0,0-5.956,5.353c-1.922-.451-3.679.134-4,1.369a1.7,1.7,0,0,0,.055.99,4.255,4.255,0,0,0,2.825,2.326l.186.056.279.072h.06a4.987,4.987,0,0,0-.46,2.109,4.874,4.874,0,0,0,2.578,4.34l-.126.078a1.735,1.735,0,0,0-.416.59,8.907,8.907,0,0,0-.8,1.97c-.137.59-.159,1.2-.328,1.786-.318,1.074-1.128,1.981-1.221,3.1-.044.5.038,1.113-.312,1.436a1.7,1.7,0,0,1-.279.2,2.282,2.282,0,0,0-.608.651,2.161,2.161,0,0,1-.427.623c-.317.239-.838.217-.991.59s.246.812.153,1.219-.432.484-.679.712a2.489,2.489,0,0,0-.586,1.113,3.549,3.549,0,0,1-2.956-.768,5.687,5.687,0,0,1,.307,1.113,4.765,4.765,0,0,0-1.593-.812,5.037,5.037,0,0,1-1.7-1.28l.909-.128-4.013-6.226-1.188-.25,1.062,2.076a.659.659,0,0,0-.361.44,1.916,1.916,0,0,0-.038.707,12.836,12.836,0,0,0,.274,1.669l.307,1.458c.027.134.06.273.1.406a3.717,3.717,0,0,0-1.188.134,10.2,10.2,0,0,0-2.469-.6,1.347,1.347,0,0,0-.547,0,1.423,1.423,0,0,0-.52.428,17.114,17.114,0,0,0-1.834,2.626,91.6,91.6,0,0,1-7.741,10.6c-1.861.768-3.739,1.5-5.617,2.226l-4.04,1.569a6.043,6.043,0,0,1-2.507.556c-.383,0-.859-.083-1.095.25a2.359,2.359,0,0,0-.246.556l-.416.044h0a4.888,4.888,0,0,0-.969-1.814.615.615,0,0,0-.454.356c-.1.184-.159.384-.274.556-.214.323-.591.479-.859.751s-.438.7-.734.974a2.876,2.876,0,0,1-1.374.556,8.583,8.583,0,0,0-2.151.829,3.438,3.438,0,0,1-.794.373,2.934,2.934,0,0,1-.936.033l-2.135-.161a1.658,1.658,0,0,0-.575.028,1.114,1.114,0,0,0-.679,1.113,1.759,1.759,0,0,0,.679,1.2,4.32,4.32,0,0,0,1.215.64,35.232,35.232,0,0,0,5.693,1.714v.44a9.589,9.589,0,0,0,4.38,1.057.671.671,0,0,0,.329-.061.736.736,0,0,0,.274-.434,18.156,18.156,0,0,0,.854-4.262h0a2.163,2.163,0,0,0,.772-.2c.734-.206,1.467.306,2.228.389a6.013,6.013,0,0,0,2.688-.79l.383-.128a4.234,4.234,0,0,1-.887.862c-.367.267-.777.467-1.133.746a7.824,7.824,0,0,1-.964.757,5.984,5.984,0,0,1-.739.289,4.844,4.844,0,0,0-1.057.556,2.155,2.155,0,0,0-.717.712,1.084,1.084,0,0,0-.06,1,1.041,1.041,0,0,0,.706.5,2.851,2.851,0,0,0,.87,0c1.161-.089,2.316-.195,3.471-.3a9.1,9.1,0,0,0,1.451-.211c.252-.061.5-.145.755-.217a6.635,6.635,0,0,1,1.319-.2,1.078,1.078,0,0,1,.383.039c.268.089.46.367.734.423a1.079,1.079,0,0,0,.547-.072,12.027,12.027,0,0,1,2.568-.278,1.053,1.053,0,0,0,1-.451c.175-.356-.142-.929-.285-1.4a4.358,4.358,0,0,1-.12-.924,5.854,5.854,0,0,0-.635-2.192,5.76,5.76,0,0,1-.476-1,24.745,24.745,0,0,0,4.724-2.437,8.392,8.392,0,0,1,2.693-1.319,7.215,7.215,0,0,1,3.383.4,76.14,76.14,0,0,1,7.757,2.749c1.21.506,2.414,1.041,3.662,1.424a5.752,5.752,0,0,0,1.3,1.285,5.947,5.947,0,0,0,2.819.785,36.355,36.355,0,0,0,3.969.15,6.6,6.6,0,0,0,2.956-.556,3.037,3.037,0,0,0,.619-.417,2.43,2.43,0,0,0,1.949-.729,4.812,4.812,0,0,0,1.484-2.382c.323-1.269.077-2.782.843-3.795.2-.278.471-.5.673-.779a2.219,2.219,0,0,0,.35-1.285.258.258,0,0,1,.033-.05,4.777,4.777,0,0,0,.328-1.28,7.4,7.4,0,0,1,.356-1.013,31.613,31.613,0,0,0,1.018-3,17.766,17.766,0,0,0,.471-2.059c.082-.556.131-1.113.175-1.669a10.519,10.519,0,0,1,.5-2.576,21.271,21.271,0,0,0,1.15-6.165v-.122a4.113,4.113,0,0,0,3.6-4.207,4.452,4.452,0,0,0-.378-1.8,5.634,5.634,0,0,0,.734-2.8Zm-19.588,24.188c.06.217.131.429.2.64-.323-.317-.635-.645-.958-.968.126.044.257.083.378.133a2.033,2.033,0,0,1,.361.195Zm-1.549-1.068c-1.894-1.669-4.084-2.966-6.022-4.585,1.057.529,2.086,1.146,3.1,1.736q1.812,1.052,3.673,2.02a3.035,3.035,0,0,1-.772.829Zm.8-4.207.093-.095v.662l-.509-.178a4.554,4.554,0,0,0,.4-.39Zm-16.659,4.507a15.932,15.932,0,0,0,2.015-2.921,19.562,19.562,0,0,0,3.005,3.411C435.683,599.147,434.008,598.963,432.333,598.874Z" transform="translate(-207.645 -338.977)" fill="url(#linear-gradient-2)"/>
    <path id="Path_697" data-name="Path 697" d="M415.35,438.25l1.193.245,4.068,6.115-1.79.245Z" transform="translate(-187.969 -194.555)" fill="#2f2e41"/>
    <path id="Path_698" data-name="Path 698" d="M414.49,645.412a24.041,24.041,0,0,0,1.193,3.155,29.2,29.2,0,0,0,3.969-1.152,12.715,12.715,0,0,0-.827-1.113,4.092,4.092,0,0,0-1.122-.874,3.038,3.038,0,0,0-1.363,0C415.727,645.412,415.109,645.423,414.49,645.412Z" transform="translate(-216.047 -376.911)" fill="#fbbebe"/>
    <path id="Path_699" data-name="Path 699" d="M409.255,645.644a2.5,2.5,0,0,1-1.358-1.569,5.076,5.076,0,0,0-1.035-1.875.592.592,0,0,0-.46.351c-.1.178-.159.378-.268.556-.219.317-.6.473-.876.74s-.438.684-.734.957a2.884,2.884,0,0,1-1.385.556,8.891,8.891,0,0,0-2.19.818,3.742,3.742,0,0,1-.8.367,3.13,3.13,0,0,1-.942,0l-2.157-.156a1.661,1.661,0,0,0-.547,0,1.064,1.064,0,0,0-.684,1.113,1.675,1.675,0,0,0,.684,1.18,4.519,4.519,0,0,0,1.226.634,35.627,35.627,0,0,0,5.781,1.669v.434a9.876,9.876,0,0,0,4.407,1.04.521.521,0,0,0,.6-.49,17.612,17.612,0,0,0,.9-4.763,3.855,3.855,0,0,0-.093-1.23c-.12-.4.285-.228-.088-.384" transform="translate(-207.592 -375.514)" fill="#2f2e41"/>
    <path id="Path_700" data-name="Path 700" d="M460.831,632.157c-6.394.389-12.712-1.513-19.117-1.714a9.187,9.187,0,0,0-2.376.15,11.857,11.857,0,0,0-2.354.929c-3.432,1.625-6.985,2.971-10.533,4.312l-4.078,1.541a6.091,6.091,0,0,1-2.524.556c-.389,0-.865-.083-1.095.245-.662,1-.35,2.465.088,3.589.142.362.383.757.766.8a2.2,2.2,0,0,0,.777-.2c.739-.2,1.478.306,2.245.39a6.23,6.23,0,0,0,2.71-.779,23.18,23.18,0,0,1,4.642-.8,20.618,20.618,0,0,0,7.27-3.066,8.426,8.426,0,0,1,2.71-1.3,7.386,7.386,0,0,1,3.411.4,77.414,77.414,0,0,1,7.823,2.7,36.075,36.075,0,0,0,4.084,1.519,14.556,14.556,0,0,0,9.159-.556c1.024-.412,2.135-1.113,2.19-2.259.038-.64-.454-1.2-.777-1.753-.208-.351-.422-.7-.646-1.04C464.11,634.2,462.774,632.041,460.831,632.157Z" transform="translate(-217.804 -370.29)" fill="#2f2e41"/>
    <path id="Path_701" data-name="Path 701" d="M460.831,632.157c-6.394.389-12.712-1.513-19.117-1.714a9.187,9.187,0,0,0-2.376.15,11.857,11.857,0,0,0-2.354.929c-3.432,1.625-6.985,2.971-10.533,4.312l-4.078,1.541a6.091,6.091,0,0,1-2.524.556c-.389,0-.865-.083-1.095.245-.662,1-.35,2.465.088,3.589.142.362.383.757.766.8a2.2,2.2,0,0,0,.777-.2c.739-.2,1.478.306,2.245.39a6.23,6.23,0,0,0,2.71-.779,23.18,23.18,0,0,1,4.642-.8,20.618,20.618,0,0,0,7.27-3.066,8.426,8.426,0,0,1,2.71-1.3,7.386,7.386,0,0,1,3.411.4,77.414,77.414,0,0,1,7.823,2.7,36.075,36.075,0,0,0,4.084,1.519,14.556,14.556,0,0,0,9.159-.556c1.024-.412,2.135-1.113,2.19-2.259.038-.64-.454-1.2-.777-1.753-.208-.351-.422-.7-.646-1.04C464.11,634.2,462.774,632.041,460.831,632.157Z" transform="translate(-217.804 -370.29)" opacity="0.1"/>
    <path id="Path_702" data-name="Path 702" d="M436.92,643.843q1.5.518,3.027.957c.547-.951,1.642-1.614,1.878-2.7a.26.26,0,0,0,0-.145.265.265,0,0,0-.115-.106,5.669,5.669,0,0,0-2.376-.707c-.657-.039-.958.657-1.254,1.146C437.966,642.5,437.188,643.949,436.92,643.843Z" transform="translate(-226.197 -375.042)" fill="#fbbebe"/>
    <path id="Path_703" data-name="Path 703" d="M431.306,643.549a2.188,2.188,0,0,1-1.473-.985c-.137-.25-.29-.59-.575-.556s-.378.334-.438.6a16.9,16.9,0,0,1-.827,2.888,5.412,5.412,0,0,1-1.768,2.365c-.372.261-.783.456-1.15.734a7.9,7.9,0,0,1-.969.746,5.7,5.7,0,0,1-.745.278,5.128,5.128,0,0,0-1.062.556,2.122,2.122,0,0,0-.728.707.946.946,0,0,0,.651,1.475,2.934,2.934,0,0,0,.881,0c1.166-.083,2.332-.189,3.5-.295a9.947,9.947,0,0,0,1.462-.206l.761-.211a5.961,5.961,0,0,1,1.33-.2,1.017,1.017,0,0,1,.389.039c.268.089.46.362.739.417a1.218,1.218,0,0,0,.547-.072,11.9,11.9,0,0,1,2.589-.273,1.085,1.085,0,0,0,1.007-.445c.219-.434-.142-.918-.29-1.385a4.521,4.521,0,0,1-.12-.907,5.6,5.6,0,0,0-.641-2.159c-.3-.556-.7-1.168-.493-1.758a1.689,1.689,0,0,0,.2-.607C434,643.333,431.843,643.672,431.306,643.549Z" transform="translate(-219.182 -375.428)" fill="#2f2e41"/>
    <path id="Path_704" data-name="Path 704" d="M473.967,610.245a5.034,5.034,0,0,1-2.551-2.571c-.1-.245-.192-.506-.3-.751a5.707,5.707,0,0,0-1.522-2.153.744.744,0,0,0-.547-.239.6.6,0,0,0-.411.451,1.747,1.747,0,0,0-.044.7,12.577,12.577,0,0,0,.274,1.625l.312,1.436a3.187,3.187,0,0,0,.192.64,2.217,2.217,0,0,0,.52.629c.285.267.575.523.865.779a2.973,2.973,0,0,0,.547.384,3.144,3.144,0,0,0,.969.289,8.167,8.167,0,0,1,3.635,1.424s0-.963,0-1.068a1.428,1.428,0,0,0-.274-.773A4.82,4.82,0,0,0,473.967,610.245Z" transform="translate(-240.525 -358.804)" fill="#fbbebe"/>
    <path id="Path_705" data-name="Path 705" d="M473.967,610.245a5.034,5.034,0,0,1-2.551-2.571c-.1-.245-.192-.506-.3-.751a5.707,5.707,0,0,0-1.522-2.153.744.744,0,0,0-.547-.239.6.6,0,0,0-.411.451,1.747,1.747,0,0,0-.044.7,12.577,12.577,0,0,0,.274,1.625l.312,1.436a3.187,3.187,0,0,0,.192.64,2.217,2.217,0,0,0,.52.629c.285.267.575.523.865.779a2.973,2.973,0,0,0,.547.384,3.144,3.144,0,0,0,.969.289,8.167,8.167,0,0,1,3.635,1.424s0-.963,0-1.068a1.428,1.428,0,0,0-.274-.773A4.82,4.82,0,0,0,473.967,610.245Z" transform="translate(-240.525 -358.804)" opacity="0.1"/>
    <ellipse id="Ellipse_155" data-name="Ellipse 155" cx="1.555" cy="1.591" rx="1.555" ry="1.591" transform="translate(244.905 237.273)" fill="#2f2e41"/>
    <path id="Path_706" data-name="Path 706" d="M491.547,590.442a1.657,1.657,0,0,0-1.226.178,1.73,1.73,0,0,0-.421.584,8.56,8.56,0,0,0-.81,1.936c-.137.556-.159,1.185-.334,1.758-.318,1.057-1.133,1.953-1.226,3.055-.044.5.038,1.074-.318,1.408a2.013,2.013,0,0,1-.279.206,2.122,2.122,0,0,0-.613.64,2.1,2.1,0,0,1-.433.607c-.318.239-.843.217-1,.556s.246.8.153,1.2-.438.479-.684.7a2.443,2.443,0,0,0-.591,1.113,3.608,3.608,0,0,1-2.978-.751,9.784,9.784,0,0,1,.465,3.461,1.431,1.431,0,0,1-.274,1.068,18.681,18.681,0,0,1,3.651.645,2.479,2.479,0,0,0,1.593,0,2.667,2.667,0,0,0,.734-.59,4.761,4.761,0,0,0,1.505-2.359,14.089,14.089,0,0,0,.027-1.6,9.131,9.131,0,0,1,.4-1.942,23.449,23.449,0,0,0,.7-4c.071-.835.783-1.5,1.155-2.226a11.02,11.02,0,0,0,1.473-4.451C492.237,591.138,492.062,590.5,491.547,590.442Z" transform="translate(-246.051 -352.535)" fill="#2f2e41"/>
    <path id="Path_707" data-name="Path 707" d="M491.547,590.442a1.657,1.657,0,0,0-1.226.178,1.73,1.73,0,0,0-.421.584,8.56,8.56,0,0,0-.81,1.936c-.137.556-.159,1.185-.334,1.758-.318,1.057-1.133,1.953-1.226,3.055-.044.5.038,1.074-.318,1.408a2.013,2.013,0,0,1-.279.206,2.122,2.122,0,0,0-.613.64,2.1,2.1,0,0,1-.433.607c-.318.239-.843.217-1,.556s.246.8.153,1.2-.438.479-.684.7a2.443,2.443,0,0,0-.591,1.113,3.608,3.608,0,0,1-2.978-.751,9.784,9.784,0,0,1,.465,3.461,1.431,1.431,0,0,1-.274,1.068,18.681,18.681,0,0,1,3.651.645,2.479,2.479,0,0,0,1.593,0,2.667,2.667,0,0,0,.734-.59,4.761,4.761,0,0,0,1.505-2.359,14.089,14.089,0,0,0,.027-1.6,9.131,9.131,0,0,1,.4-1.942,23.449,23.449,0,0,0,.7-4c.071-.835.783-1.5,1.155-2.226a11.02,11.02,0,0,0,1.473-4.451C492.237,591.138,492.062,590.5,491.547,590.442Z" transform="translate(-246.051 -352.535)" opacity="0.1"/>
    <path id="Path_708" data-name="Path 708" d="M471.385,625.329A14.488,14.488,0,0,1,468,622.458c-2.053-1.964-4.566-3.339-6.728-5.191a47.594,47.594,0,0,0-4.286-3.661,10.6,10.6,0,0,0-4.593-1.63,1.2,1.2,0,0,0-.547,0,1.262,1.262,0,0,0-.52.417,16.8,16.8,0,0,0-1.856,2.587c-2.737,4.73-6.63,8.7-9.854,13.1a.839.839,0,0,0-.159.312.783.783,0,0,0,.12.484l.657,1.3c.367.734.958,1.586,1.746,1.441a1.907,1.907,0,0,0,.914-.6l2.945-2.866,3.088-3a23.977,23.977,0,0,0,4.828-5.8c.92,1.625,2.557,2.688,3.673,4.173.427.556.777,1.185,1.161,1.786.608.957,1.3,1.858,1.993,2.782l3.542,4.591a6.834,6.834,0,0,0,1.642,1.669,6.19,6.19,0,0,0,2.841.773,36.94,36.94,0,0,0,4,.145,6.8,6.8,0,0,0,2.984-.557,2.749,2.749,0,0,0,1.615-2.443,3.622,3.622,0,0,0-.509-1.519A12.3,12.3,0,0,0,471.385,625.329Z" transform="translate(-227.345 -362.093)" fill="#2f2e41"/>
    <ellipse id="Ellipse_156" data-name="Ellipse 156" cx="1.199" cy="1.224" rx="1.199" ry="1.224" transform="translate(246.219 238.742)" fill="#e8e8f0"/>
    <path id="Path_709" data-name="Path 709" d="M502.112,589.483a2.378,2.378,0,0,1,.131,1.758,7.184,7.184,0,0,1-.772,1.619,7.708,7.708,0,0,1-1,1.447,10.188,10.188,0,0,0,5.266-1.536,7.687,7.687,0,0,0,3.323-2.943,1.513,1.513,0,0,1-1.226-.234,4.41,4.41,0,0,1-.936-.885l-.925-1.057a4.23,4.23,0,0,1-.547-.762,2.132,2.132,0,0,1-.246-1.23,7.072,7.072,0,0,1-1.226,1.035c-.662.44-1.391.757-2.058,1.191-.23.156-.755.4-.619.712S501.926,589.149,502.112,589.483Z" transform="translate(-254.957 -350.434)" fill="#fbbebe"/>
    <path id="Path_710" data-name="Path 710" d="M502.112,589.483a2.378,2.378,0,0,1,.131,1.758,7.184,7.184,0,0,1-.772,1.619,7.708,7.708,0,0,1-1,1.447,10.188,10.188,0,0,0,5.266-1.536,7.687,7.687,0,0,0,3.323-2.943,1.513,1.513,0,0,1-1.226-.234,4.41,4.41,0,0,1-.936-.885l-.925-1.057a4.23,4.23,0,0,1-.547-.762,2.132,2.132,0,0,1-.246-1.23,7.072,7.072,0,0,1-1.226,1.035c-.662.44-1.391.757-2.058,1.191-.23.156-.755.4-.619.712S501.926,589.149,502.112,589.483Z" transform="translate(-254.957 -350.434)" opacity="0.1"/>
    <path id="Path_711" data-name="Path 711" d="M497.486,592.7a1.607,1.607,0,0,0,0,1.836c.055.067.252.484.334.49a.3.3,0,0,0,.208-.111A13.917,13.917,0,0,0,499.2,593.5a2.6,2.6,0,0,1,1.489-.99,3.184,3.184,0,0,1,2.053.651,1.411,1.411,0,0,1,.936,1.352,38.959,38.959,0,0,1,.208,5.058,20.253,20.253,0,0,1-.235,3.645c-.12.618-.3,1.224-.378,1.853a12.009,12.009,0,0,0-.077,1.669v2.326a6.22,6.22,0,0,0,.088,1.274c.109.506.345.979.5,1.475a9.783,9.783,0,0,1,.334,1.742l.312,2.4a3.084,3.084,0,0,1-.279,2.226c-.2.273-.471.5-.679.768-.772,1.024-.547,2.487-.849,3.739a4.67,4.67,0,0,1-1.5,2.337,2.456,2.456,0,0,1-1.976.718,2.74,2.74,0,0,1-1.8-2.165,8.751,8.751,0,0,0-.925-2.821,7.393,7.393,0,0,0-1.828-1.552,3.2,3.2,0,0,1-1.429-1.886c-.06-.351,0-.712-.06-1.068a2.515,2.515,0,0,0-1.527-2.042c-.493-.195-1.095-.267-1.38-.723a3.373,3.373,0,0,0,1.44-1.964,10.242,10.242,0,0,0,.35-2.482l.164-2.782a9.428,9.428,0,0,1,.651-3.611c.241-.5.547-.974.794-1.469a16.093,16.093,0,0,0,.849-2.153c.394-1.146.788-2.293,1.139-3.45a6.563,6.563,0,0,1,.624-1.608C496.507,593.443,496.934,592.814,497.486,592.7Z" transform="translate(-250.309 -353.471)" fill="#e8e8f0"/>
    <path id="Path_712" data-name="Path 712" d="M492.3,610.463h.728l.153-1.113a2.35,2.35,0,0,1,.153-.651,3.9,3.9,0,0,1,.422-.623c.712-1.029.662-2.393.838-3.645a18.753,18.753,0,0,1,1.6-4.763l1.412-3.2a4.462,4.462,0,0,0,.307-.818,4.982,4.982,0,0,0,.088-.946c0-.5.153-2.3.17-2.782,0-.184-.4-.083-.482-.245-.175-.356-.416.607-.75.818a1.871,1.871,0,0,0-.651.968c-.307.8-.493,1.669-.777,2.465a5.049,5.049,0,0,1-1.319,2.181c-.29.256-.624.462-.9.74-.876.879-.964,2.276-.991,3.533C492.274,603.151,492.131,610.463,492.3,610.463Z" transform="translate(-251.222 -353.069)" fill="#2f2e41"/>
    <path id="Path_713" data-name="Path 713" d="M506.01,590.41a2.524,2.524,0,0,0-1.3,1.808,9.259,9.259,0,0,1-.657,2.226c-.887,1.569-3.148,2.025-3.777,3.722a6.948,6.948,0,0,0-.252,1.753c-.109,1.219-.5,2.393-.624,3.606a16.326,16.326,0,0,0,.066,2.832l.794,9.582a13,13,0,0,1-.235,4.218,3.939,3.939,0,0,0,2.376-.4c.739-.345,1.418-.818,2.135-1.219a21.908,21.908,0,0,0,3.662-2.092,2.265,2.265,0,0,0,.493-.557,4.873,4.873,0,0,0,.328-1.258,6.862,6.862,0,0,1,.356-.99,29.494,29.494,0,0,0,1.029-2.96,17.241,17.241,0,0,0,.471-2.025c.088-.556.137-1.113.181-1.669a9.932,9.932,0,0,1,.5-2.532,20.691,20.691,0,0,0,1.155-6.076,3.228,3.228,0,0,0-.06-.89,4.8,4.8,0,0,0-.482-1.018c-.328-.629-.547-1.319-.832-1.959a9.566,9.566,0,0,0-3.235-3.455A2.437,2.437,0,0,0,506.01,590.41Z" transform="translate(-254.459 -352.508)" fill="#2f2e41"/>
    <path id="Path_714" data-name="Path 714" d="M474.2,615.995a5.719,5.719,0,0,1-1.505-1.163c-.2-.234-.361-.5-.547-.729a3.715,3.715,0,0,0-1.894-1.113,9.107,9.107,0,0,0-2.19-.217,3.912,3.912,0,0,0-1.462.178,1.5,1.5,0,0,0-.969,1.057,1.763,1.763,0,0,0,.739,1.558,3.459,3.459,0,0,0,1.473.723,11.6,11.6,0,0,0,1.33.161c2.617.278,4.954,1.725,7.248,3.044q3.022,1.747,6.164,3.25a13.232,13.232,0,0,0,.1-1.92c0-.479-.038-1.213-.482-1.5a9.549,9.549,0,0,0-1.96-.6,30.555,30.555,0,0,1-3.947-1.625A19.533,19.533,0,0,1,474.2,615.995Z" transform="translate(-239.192 -362.457)" fill="#fbbebe"/>
    <ellipse id="Ellipse_157" data-name="Ellipse 157" cx="4.664" cy="4.769" rx="4.664" ry="4.769" transform="translate(241.796 228.966)" fill="#fbbebe"/>
    <path id="Path_715" data-name="Path 715" d="M504.423,599.7a7.641,7.641,0,0,0-.9,1.719c-.547,1.2-1.478,2.226-1.932,3.5s-.46,2.91-1.4,3.951a1.385,1.385,0,0,0-.411.6,2.913,2.913,0,0,1-.044.434c-.137.378-.745.4-.859.784-.033.111,0,.234-.055.345-.093.25-.422.289-.635.44-.454.312-.361,1.035-.684,1.486a1.221,1.221,0,0,1-1.166.417,4.065,4.065,0,0,1-1.21-.462,1.155,1.155,0,0,0-.438-.139.894.894,0,0,0-.5.178,3.175,3.175,0,0,0-1.259,2.7,8.932,8.932,0,0,0,.723,3.021,1.22,1.22,0,0,0,.235.451,1.032,1.032,0,0,0,1.161.089,5.426,5.426,0,0,1,1.133-.518c.723-.134,1.429.373,2.162.328a2.982,2.982,0,0,0,1.456-.651,8.081,8.081,0,0,0,1.96-1.669c.318-.429.547-.913.832-1.369a17.538,17.538,0,0,1,1.177-1.6l2.693-3.339a7.692,7.692,0,0,0,.723-1.013,7.215,7.215,0,0,0,.547-1.53,11.89,11.89,0,0,0,.547-2.721,10.621,10.621,0,0,0-.2-2.281,8.17,8.17,0,0,0-.547-2.176C506.947,599.42,505.523,598.4,504.423,599.7Z" transform="translate(-251.542 -356.393)" fill="#2f2e41"/>
    <path id="Path_716" data-name="Path 716" d="M511.637,576.667a5.371,5.371,0,0,0-2.157-4.34,6.316,6.316,0,0,0-5.3-6.182,6.044,6.044,0,0,0-11.94.328c-1.938-.445-3.712.134-4.035,1.347s1.046,2.782,3.088,3.339a5.663,5.663,0,0,0,1.982.2A6.054,6.054,0,0,0,497.442,574,6.28,6.28,0,0,0,502,578.775a5.311,5.311,0,0,0,1.407,1.975v.462a3.948,3.948,0,1,0,7.894,0,4.343,4.343,0,0,0-.378-1.775A5.432,5.432,0,0,0,511.637,576.667Z" transform="translate(-249.383 -339.582)" fill="#f2f2f2"/>
    <path id="Path_717" data-name="Path 717" d="M489.51,568.073c.323-1.213,2.1-1.792,4.035-1.346a6.2,6.2,0,0,1,6.022-5.275h.4a5.844,5.844,0,0,0-1.719-.262,6.2,6.2,0,0,0-6.022,5.275c-1.938-.445-3.712.134-4.035,1.346s1.046,2.782,3.088,3.339a5.93,5.93,0,0,0,1.172.206C490.5,570.761,489.187,569.314,489.51,568.073Z" transform="translate(-249.379 -339.58)" opacity="0.1"/>
    <path id="Path_718" data-name="Path 718" d="M509.025,589.712a4.246,4.246,0,0,1,0-.456,5.194,5.194,0,0,1-1.407-1.975,6.264,6.264,0,0,1-4.555-4.78,6.037,6.037,0,0,1-4.177-2.637,5.168,5.168,0,0,1-1.166-.033,6.065,6.065,0,0,0,4.024,2.432,6.281,6.281,0,0,0,4.555,4.774,5.312,5.312,0,0,0,1.407,1.975v.462a4.055,4.055,0,0,0,3.925,4.151A4.151,4.151,0,0,1,509.025,589.712Z" transform="translate(-253.713 -347.848)" opacity="0.1"/>
    <path id="Path_719" data-name="Path 719" d="M.89.117c.4,0,.718.428.714.962s-.331.971-.729.974S.156,1.625.161,1.09.491.12.89.117Z" transform="translate(246.662 234.379) rotate(-37.22)" fill="#fbbebe"/>
  </g>
</svg>
