<svg xmlns="http://www.w3.org/2000/svg" width="240" height="240" viewBox="0 0 240 240">
  <g id="Group_22" data-name="Group 22" transform="translate(360 -1515)">
    <circle id="Ellipse_1" data-name="Ellipse 1" cx="120" cy="120" r="120" transform="translate(-360 1515)" fill="none"/>
    <g id="Group_97" data-name="Group 97" transform="translate(-333 1560)">
      <path id="Path_758" data-name="Path 758" d="M964.431,672.166c-.014-.062-1.324-6.256,1.353-11.4s8.392-7.413,8.449-7.436l.261-.1.062.282c.014.062,1.324,6.256-1.353,11.4s-8.392,7.413-8.449,7.436l-.261.1Zm9.705-18.25c-1.145.51-5.663,2.743-7.924,7.088s-1.579,9.484-1.362,10.755c1.144-.509,5.66-2.739,7.924-7.088S974.354,655.188,974.137,653.917Z" transform="translate(-800.555 -532.667)" fill="#3f3d56"/>
      <path id="Path_759" data-name="Path 759" d="M972.679,691.733c-4.811,3-6.664,8.957-6.664,8.957s5.947,1.095,10.759-1.9,6.664-8.957,6.664-8.957S977.49,688.734,972.679,691.733Z" transform="translate(-802.076 -561.293)" fill="#e9be4e"/>
      <path id="Path_760" data-name="Path 760" d="M282.651,201.388c-.572,0-1.15-.009-1.717-.028l.013-.427c.815.026,1.646.034,2.464.022l.006.427Q283.035,201.388,282.651,201.388Zm3.247-.1-.024-.427c.816-.05,1.642-.12,2.456-.208l.043.425C287.553,201.168,286.72,201.239,285.9,201.289Zm-7.443-.067c-.823-.065-1.654-.151-2.471-.255l.05-.424c.811.1,1.636.188,2.452.253Zm12.381-.47-.062-.422c.811-.127,1.627-.275,2.427-.44l.08.419C292.475,200.475,291.652,200.624,290.835,200.753Zm-17.308-.156c-.813-.143-1.633-.307-2.438-.488l.087-.418c.8.18,1.613.343,2.419.484Zm22.177-.847-.1-.415c.8-.2,1.6-.429,2.378-.67l.117.41C297.313,199.318,296.506,199.545,295.7,199.75Zm-27.029-.245c-.8-.22-1.6-.461-2.384-.719l.124-.407c.779.255,1.575.495,2.366.713Zm31.789-1.218-.135-.4c.772-.278,1.549-.579,2.308-.894l.153.4C302.025,197.7,301.243,198.007,300.464,198.287Zm-36.529-.335c-.774-.295-1.553-.613-2.315-.946l.16-.394c.756.33,1.529.646,2.3.939Zm41.133-1.574-.171-.389c.741-.349,1.487-.722,2.215-1.108l.188.381C306.567,195.65,305.816,196.026,305.069,196.378Zm4.413-2.337-.2-.371c.711-.42,1.421-.862,2.109-1.314l.22.361C310.913,193.172,310.2,193.617,309.481,194.04Zm4.191-2.747-.236-.35c.67-.485,1.338-.992,1.986-1.509l.251.339C315.02,190.293,314.347,190.8,313.672,191.293Zm-62.858-.6c-.666-.5-1.331-1.026-1.977-1.56l.257-.334c.641.53,1.3,1.051,1.961,1.548Zm66.792-2.531-.266-.327c.624-.546,1.245-1.114,1.846-1.69l.28.314C318.861,187.037,318.235,187.61,317.606,188.16Zm-70.673-.681c-.62-.563-1.236-1.148-1.831-1.739l.286-.308c.59.587,1.2,1.168,1.817,1.726Zm74.318-2.812-.294-.3c.575-.6,1.144-1.229,1.691-1.858l.307.286c-.551.634-1.124,1.263-1.7,1.872Zm-77.9-.75c-.569-.62-1.131-1.26-1.67-1.9l.312-.28c.535.639,1.092,1.274,1.657,1.889Zm81.224-3.073-.319-.271c.52-.655,1.031-1.332,1.521-2.01l.33.256C325.614,179.5,325.1,180.184,324.575,180.844Zm-84.478-.811c-.511-.669-1.014-1.359-1.495-2.052l.335-.25c.478.688.977,1.373,1.484,2.037Zm87.453-3.311-.341-.24c.46-.7.91-1.424,1.339-2.147l.352.224C328.467,175.287,328.013,176.015,327.55,176.722Zm-90.35-.861c-.449-.714-.889-1.448-1.307-2.184l.355-.217c.415.73.852,1.459,1.3,2.167Zm92.952-3.528-.361-.207c.4-.742.781-1.5,1.144-2.266l.37.189C330.938,170.817,330.55,171.585,330.151,172.333Zm2.2-4.62-.378-.172c.329-.778.644-1.574.938-2.367l.385.153C333,166.127,332.685,166.929,332.354,167.713Zm-99.785-.922c-.316-.786-.619-1.591-.9-2.391l.388-.146c.279.794.579,1.593.893,2.373ZM334.137,162.9l-.391-.134c.257-.8.5-1.625.722-2.441l.4.116C334.641,161.261,334.4,162.089,334.137,162.9Zm-103.262-.936c-.245-.814-.476-1.646-.685-2.473l.4-.109c.208.82.437,1.646.68,2.454Zm104.607-4.016-.4-.1c.185-.824.353-1.665.5-2.5l.406.077C335.837,156.269,335.667,157.116,335.481,157.946Zm-105.866-.96c-.172-.835-.328-1.685-.463-2.528l.407-.07c.134.837.288,1.68.459,2.509Zm106.765-4.1-.409-.058c.111-.837.2-1.69.279-2.537l.411.038C336.586,151.184,336.492,152.044,336.38,152.887ZM228.8,151.911c-.1-.846-.177-1.708-.237-2.561l.411-.031c.06.847.139,1.7.236,2.542Zm108.026-4.147-.412-.019c.037-.847.055-1.706.055-2.553h.412C336.884,146.046,336.865,146.911,336.828,147.764Zm-108.389-.983c-.014-.524-.021-1.059-.021-1.589q0-.493.008-.985l.412.008q-.008.488-.008.977c0,.526.007,1.057.021,1.577Zm.5-5.117-.412-.027c.051-.854.123-1.716.211-2.563l.41.046c-.088.841-.158,1.7-.209,2.544Zm107.269-2.607c-.082-.842-.2-1.253-.315-2.092l.408-.062c.12.845.224,1.49.307,2.339Zm-106.738-2.468-.408-.065c.126-.845.273-1.7.436-2.533l.4.085c-.162.829-.308,1.675-.433,2.513Zm106.006-2.14c-.157-.834-.335-1.673-.528-2.494l.4-.1c.194.828.373,1.673.532,2.513Zm-105.03-2.864-.4-.1c.2-.828.422-1.662.659-2.481l.395.123C230.863,129.936,230.643,130.764,230.444,131.585Zm103.864-2.1c-.23-.814-.481-1.632-.747-2.433l.39-.139c.268.807.521,1.632.753,2.452Zm-102.444-2.8-.389-.142c.274-.808.57-1.62.88-2.413l.382.16C232.43,125.082,232.136,125.887,231.864,126.689Zm100.843-2.029c-.3-.786-.623-1.576-.958-2.346l.376-.175c.337.776.662,1.572.965,2.364Zm-98.992-2.714-.375-.178c.344-.777.711-1.557,1.09-2.317l.367.2C234.421,120.4,234.057,121.175,233.715,121.946Zm96.973-1.931c-.369-.754-.76-1.51-1.162-2.247l.359-.211c.405.742.8,1.5,1.171,2.264Zm-94.71-2.613-.357-.213c.411-.74.845-1.481,1.29-2.2l.348.23C236.817,115.932,236.387,116.668,235.979,117.4Zm92.287-1.824c-.436-.719-.892-1.435-1.356-2.129l.339-.244c.468.7.928,1.42,1.367,2.145Zm-89.632-2.484-.337-.246c.475-.7.973-1.4,1.478-2.07l.326.262C239.6,111.71,239.1,112.4,238.633,113.095Zm86.827-1.708c-.5-.675-1.015-1.345-1.539-1.993l.316-.274c.528.653,1.05,1.328,1.55,2.008Zm-83.805-2.329-.314-.277c.534-.649,1.09-1.3,1.653-1.921l.3.291C242.736,107.772,242.184,108.414,241.655,109.058Zm80.642-1.583c-.554-.625-1.129-1.244-1.708-1.841l.291-.3c.584.6,1.163,1.225,1.721,1.855Zm-77.28-2.15-.288-.305c.59-.6,1.2-1.189,1.814-1.757l.275.319C246.208,104.145,245.6,104.732,245.017,105.325Zm73.785-1.449c-.607-.571-1.234-1.133-1.863-1.673l.263-.329c.634.543,1.265,1.11,1.877,1.685Zm-70.111-1.951-.26-.331c.638-.538,1.3-1.069,1.959-1.578l.246.343c-.657.5-1.312,1.032-1.945,1.566Zm3.956-3.038-.23-.355c.683-.476,1.385-.942,2.089-1.386l.214.365C254.022,97.952,253.324,98.415,252.647,98.887Zm4.2-2.65-.2-.375c.722-.41,1.463-.807,2.2-1.181l.181.384C258.3,95.437,257.568,95.831,256.851,96.237Zm49.773-.99c-.734-.379-1.486-.745-2.234-1.088l.167-.391c.755.346,1.512.714,2.252,1.1ZM261.268,94l-.164-.392c.755-.339,1.527-.664,2.295-.966l.146.4C262.783,93.34,262.017,93.662,261.268,94Zm40.84-.819c-.764-.307-1.545-.6-2.323-.87l.131-.405c.784.273,1.571.568,2.341.877Zm-36.24-.991-.128-.406c.784-.266,1.583-.517,2.377-.745l.11.412C267.44,91.676,266.646,91.924,265.868,92.189Zm31.563-.635c-.787-.232-1.589-.449-2.384-.643l.095-.416c.8.2,1.61.414,2.4.648Zm-26.816-.73-.092-.417c.8-.19,1.622-.363,2.433-.515l.073.42C272.225,90.463,271.413,90.635,270.616,90.823Zm22.021-.442c-.8-.156-1.621-.3-2.431-.413l.057-.423c.817.119,1.641.259,2.45.416Zm-17.172-.465-.055-.424c.816-.113,1.647-.208,2.468-.282l.036.426C277.1,89.711,276.275,89.8,275.464,89.917Zm12.293-.245c-.812-.079-1.639-.14-2.458-.181l.02-.427c.825.041,1.658.1,2.476.183Zm-7.385-.2-.017-.427c.758-.033,1.53-.049,2.3-.05h.187v.427h-.185C281.891,89.424,281.125,89.441,280.372,89.473Z" transform="translate(-216.578 -88.996)" fill="#3f3d56"/>
      <rect id="Rectangle_137" data-name="Rectangle 137" width="151.151" height="0.427" transform="translate(34.849 139.377)" fill="#3f3d56"/>
      <path id="Path_761" data-name="Path 761" d="M644.7,405l2.062,33.119s4.949,13.034,4.743,25.427c0,0-1.856,4.914-.412,5.769s2.268,1.5,1.443,2.137-1.443,2.137-.825,2.564.825,1.068.619,1.068H646.14s1.237-3.205-.619-4.06-.825-2.991-.825-2.991l-13.816-41.88-10.929,38.461s1.856,1.282.412,1.923-2.062-.641-1.443.641a2.045,2.045,0,0,1-.206,2.137c0,.214-6.186-.641-6.186-.641s3.093-2.778,1.65-3.419-2.062-1.282-1.65-1.709a41.15,41.15,0,0,0,2.062-4.487s.825-15.384,1.031-16.025a41.893,41.893,0,0,0,0-5.128c0-1.5-.206-7.479.412-8.974s1.237-19.872,4.537-22.008S644.7,405,644.7,405Z" transform="translate(-521.382 -337.474)" fill="#e9be4e"/>
      <path id="Path_762" data-name="Path 762" d="M579.289,699.23s4.124,8.761,1.237,9.829-6.6.214-7.424,1.5-9.9,2.778-10.1-.427,9.9-9.188,9.9-9.188l1.316-2.2Z" transform="translate(-482.163 -568.457)" fill="#0065b3"/>
      <path id="Path_763" data-name="Path 763" d="M741.289,729.23s4.124,8.761,1.237,9.829-6.6.214-7.424,1.5-9.9,2.778-10.1-.427,9.9-9.188,9.9-9.188l1.316-2.2Z" transform="translate(-610.757 -592.047)" fill="#0065b3"/>
      <ellipse id="Ellipse_162" data-name="Ellipse 162" cx="6.805" cy="7.051" rx="6.805" ry="7.051" transform="translate(104.653 13.146)" fill="#a0616a"/>
      <path id="Path_764" data-name="Path 764" d="M529.672,112.025l-.825,6.2-6.186,4.914-1.65-2.35v-8.12Z" transform="translate(-413.574 -88.088)" fill="#a0616a"/>
      <path id="Path_765" data-name="Path 765" d="M656.053,231.731s6.393.641,9.692-1.709l6.6,40.384s-23.3,1.923-24.333.641V258.44l4.124-20.513Z" transform="translate(-549.647 -199.888)" fill="#e61030"/>
      <path id="Path_766" data-name="Path 766" d="M707.943,220.985l2.217,1.931s9.073,1.5,8.455,4.06l-2.474,30.342.825,10.256s-7.011-1.923-12.372,0-1.1-41.325-1.1-41.325S708.406,221.619,707.943,220.985Z" transform="translate(-592.413 -192.783)" fill="#e9be4e"/>
      <path id="Path_767" data-name="Path 767" d="M649.94,231.931s-6.6,4.934-7.424,8.139-3.506,36.965-3.506,36.965,1.237-.641,1.856.427S650.971,233.621,649.94,231.931Z" transform="translate(-542.503 -201.39)" fill="#e9be4e"/>
      <path id="Path_768" data-name="Path 768" d="M676.532,141.7a3.465,3.465,0,0,1-.453-2.378,7.459,7.459,0,0,0,.2-2.143,21.676,21.676,0,0,1,1.19-3.112c.6-1.116.312-1.585,2.182-1.938s1.105-2.877,6.035-.147a1.421,1.421,0,0,0,1.5.587c1.02-.206,1.388,1.262,1.388,1.262s.68-.411.935.176,2.073-.352,2.073,3.611a16.83,16.83,0,0,1-2.069,7.5s.152-6.667-3.22-7.342-7-2.642-7.877-.117A19.553,19.553,0,0,1,676.532,141.7Z" transform="translate(-571.876 -121.815)" fill="#2f2e41"/>
      <ellipse id="Ellipse_163" data-name="Ellipse 163" cx="0.665" cy="0.919" rx="0.665" ry="0.919" transform="translate(117.046 19.638)" fill="#a0616a"/>
      <path id="Path_769" data-name="Path 769" d="M589.567,491.124a7.2,7.2,0,0,0-4.347-.861,7.664,7.664,0,0,0,2.771,3.576,7.19,7.19,0,0,0,4.347.862A7.666,7.666,0,0,0,589.567,491.124Z" transform="translate(-499.804 -404.49)" fill="#d0cde1"/>
      <path id="Path_770" data-name="Path 770" d="M595.393,588.87H585.2a2.379,2.379,0,0,0,0,4.755h10.2a2.379,2.379,0,0,0,0-4.755Z" transform="translate(-497.963 -482.06)" fill="#d0cde1"/>
      <path id="Path_771" data-name="Path 771" d="M627.834,471.412H570.656a5.159,5.159,0,0,0-5.065,5.248v28.867a5.159,5.159,0,0,0,5.065,5.248h57.178a5.159,5.159,0,0,0,5.065-5.248V476.66A5.159,5.159,0,0,0,627.834,471.412Zm-58.593,3.58a7.748,7.748,0,0,1,5.007.889,8.288,8.288,0,0,1,3.1,4.168l.09.288-.288.053a7.378,7.378,0,0,1-1.241.094,7.182,7.182,0,0,1-3.767-.984,8.286,8.286,0,0,1-3.1-4.167l-.09-.288Zm12.412,26.8h-10.2a2.908,2.908,0,0,1,0-5.812h10.2a2.908,2.908,0,0,1,0,5.812Zm46.4-.528a3.125,3.125,0,0,1-3.059,3.17h-7.649a3.125,3.125,0,0,1-3.059-3.17V496.51a3.125,3.125,0,0,1,3.059-3.17H625a3.125,3.125,0,0,1,3.059,3.17Z" transform="translate(-484.223 -389.7)" fill="#e61030"/>
      <path id="Path_772" data-name="Path 772" d="M812.132,606.8h-3.314a.925.925,0,0,0,0,1.849h3.314a.925.925,0,0,0,0-1.849Zm0,1.321h-3.314a.4.4,0,0,1,0-.793h3.314a.4.4,0,0,1,0,.793Z" transform="translate(-676.586 -496.157)" fill="#d0cde1"/>
      <path id="Path_773" data-name="Path 773" d="M841.805,606.8h-3.314a.925.925,0,0,0,0,1.849h3.314a.925.925,0,0,0,0-1.849Zm0,1.321h-3.314a.4.4,0,0,1,0-.793h3.314a.4.4,0,0,1,0,.793Z" transform="translate(-700.14 -496.157)" fill="#d0cde1"/>
      <path id="Path_774" data-name="Path 774" d="M812.132,595.67h-3.314a.925.925,0,0,0,0,1.849h3.314a.925.925,0,0,0,0-1.849Zm0,1.321h-3.314a.4.4,0,0,1,0-.793h3.314a.4.4,0,0,1,0,.793Z" transform="translate(-676.586 -487.407)" fill="#d0cde1"/>
      <path id="Path_775" data-name="Path 775" d="M841.805,595.67h-3.314a.925.925,0,0,0,0,1.849h3.314a.925.925,0,0,0,0-1.849Zm0,1.321h-3.314a.4.4,0,0,1,0-.793h3.314a.4.4,0,0,1,0,.793Z" transform="translate(-700.14 -487.407)" fill="#d0cde1"/>
      <path id="Path_776" data-name="Path 776" d="M812.132,584.542h-3.314a.925.925,0,0,0,0,1.849h3.314a.925.925,0,0,0,0-1.849Zm0,1.321h-3.314a.4.4,0,0,1,0-.793h3.314a.4.4,0,0,1,0,.793Z" transform="translate(-676.586 -478.658)" fill="#d0cde1"/>
      <path id="Path_777" data-name="Path 777" d="M841.805,584.542h-3.314a.925.925,0,0,0,0,1.849h3.314a.925.925,0,0,0,0-1.849Zm0,1.321h-3.314a.4.4,0,0,1,0-.793h3.314a.4.4,0,0,1,0,.793Z" transform="translate(-700.14 -478.658)" fill="#d0cde1"/>
      <path id="Path_778" data-name="Path 778" d="M746.583,435.517l-1.478,5s-.378,9.318-5.327,8.036,1.443-12.179,1.443-12.179l1.443-2.35Z" transform="translate(-621 -360.299)" fill="#a0616a"/>
      <path id="Path_779" data-name="Path 779" d="M610.583,435.517l-1.478,5s-.378,9.318-5.327,8.036,1.443-12.179,1.443-12.179l1.443-2.35Z" transform="translate(-513.044 -360.299)" fill="#a0616a"/>
      <path id="Path_780" data-name="Path 780" d="M758.341,241.857s3.3-.855,4.33,4.914,2.268,22.222,2.268,22.222L759.991,286.3s-4.949-2.778-5.98-2.35l3.895-15.026-3.276-15.316S757.516,241.857,758.341,241.857Z" transform="translate(-633.789 -209.16)" fill="#e9be4e"/>
      <path id="Path_781" data-name="Path 781" d="M580.747,209.393l4.33,14.957-4.33,15.171,2.474-15.171Z" transform="translate(-460.992 -164.651)" opacity="0.15"/>
      <path id="Path_782" data-name="Path 782" d="M627.434,297.021l-7.424,30.342a28.611,28.611,0,0,1,5.359,2.408Z" transform="translate(-527.421 -252.572)" fill="#e9be4e"/>
      <ellipse id="Ellipse_164" data-name="Ellipse 164" cx="20.621" cy="21.367" rx="20.621" ry="21.367" transform="translate(1.518 77.966)" fill="#e9be4e"/>
      <ellipse id="Ellipse_165" data-name="Ellipse 165" cx="17.734" cy="18.376" rx="17.734" ry="18.376" transform="translate(4.405 80.93)" fill="#0065b3" opacity="0.1"/>
      <path id="Path_783" data-name="Path 783" d="M260.992,524.621v-2.674a5.857,5.857,0,0,1-3.442-1.165l.54-1.774a5.378,5.378,0,0,0,3.239,1.139,2.522,2.522,0,0,0,2.677-2.6c0-1.456-.877-2.357-2.542-3.151-2.295-1.059-3.712-2.277-3.712-4.581a4.127,4.127,0,0,1,3.4-4.263v-2.675h1.395v2.569a5.339,5.339,0,0,1,2.925.927l-.562,1.748a4.85,4.85,0,0,0-2.834-.9,2.2,2.2,0,0,0-2.385,2.277c0,1.377.832,2.065,2.789,3.019,2.317,1.112,3.487,2.489,3.487,4.846a4.4,4.4,0,0,1-3.554,4.5v2.754Z" transform="translate(-239.703 -414.445)" fill="#e61030"/>
      <path id="Path_784" data-name="Path 784" d="M214.923,738.417a143.746,143.746,0,0,1-43.922,0v-5.128a159.719,159.719,0,0,0,43.922,0Z" transform="translate(-171 -595.621)" fill="#e9be4e"/>
      <path id="Path_785" data-name="Path 785" d="M214.923,701.417a143.746,143.746,0,0,1-43.922,0v-5.128a159.719,159.719,0,0,0,43.922,0Z" transform="translate(-171 -566.527)" fill="#e9be4e"/>
      <path id="Path_786" data-name="Path 786" d="M214.923,664.417a143.746,143.746,0,0,1-43.922,0v-5.128a159.719,159.719,0,0,0,43.922,0Z" transform="translate(-171 -537.433)" fill="#e9be4e"/>
      <path id="Path_1677" data-name="Path 1677" d="M476.15,95.223a.685.685,0,0,0,.655.685.645.645,0,0,0,.7-.611.675.675,0,0,0-.65-.69.655.655,0,0,0-.7.616Z" transform="translate(-370.532 -76.32)" fill="#263238"/>
      <path id="Path_1678" data-name="Path 1678" d="M475.64,93.275c.084.089.6-.293,1.33-.288s1.266.367,1.345.278-.045-.2-.278-.372a1.906,1.906,0,0,0-1.082-.333,1.841,1.841,0,0,0-1.057.342C475.674,93.056,475.6,93.215,475.64,93.275Z" transform="translate(-370.27 -75.088)" fill="#263238"/>
      <path id="Path_1679" data-name="Path 1679" d="M490.65,95.223a.685.685,0,0,0,.67.685.645.645,0,0,0,.685-.611.675.675,0,0,0-.65-.69.655.655,0,0,0-.7.616Z" transform="translate(-377.835 -76.32)" fill="#263238"/>
      <path id="Path_1680" data-name="Path 1680" d="M490.1,93.515c.084.089.6-.293,1.33-.293s1.271.367,1.35.278-.05-.2-.283-.367a1.871,1.871,0,0,0-1.077-.333,1.747,1.747,0,0,0-1.057.342C490.142,93.316,490.043,93.475,490.1,93.515Z" transform="translate(-377.55 -75.233)" fill="#263238"/>
      <path id="Path_1681" data-name="Path 1681" d="M482.452,97.506a3.763,3.763,0,0,0-.9-.162c-.143,0-.275-.045-.3-.139a.73.73,0,0,1,.094-.421l.422-1.076a18.3,18.3,0,0,0,.937-2.818,18.14,18.14,0,0,0-1.163,2.735c-.139.376-.275.753-.4,1.084a.831.831,0,0,0-.071.557.376.376,0,0,0,.233.207,1.23,1.23,0,0,0,.241.034A3.642,3.642,0,0,0,482.452,97.506Z" transform="translate(-372.468 -75.287)" fill="#263238"/>
      <path id="Path_1682" data-name="Path 1682" d="M486.748,106.18c-.119,0-.119.784-.8,1.35a3.85,3.85,0,0,1-1.529.586c0,.089.189.154.546.164a1.985,1.985,0,0,0,1.276-.447,1.692,1.692,0,0,0,.62-1.132C486.892,106.369,486.8,106.175,486.748,106.18Z" transform="translate(-299.165 -257.406) rotate(22)" fill="#263238"/>
      <path id="Path_1683" data-name="Path 1683" d="M489.736,87.914c.074.2.8.1,1.663.208s1.549.338,1.663.159c.05-.089-.069-.273-.347-.467a2.9,2.9,0,0,0-2.531-.278C489.865,87.681,489.706,87.82,489.736,87.914Z" transform="translate(-377.373 -71.961)" fill="#263238"/>
      <path id="Path_1684" data-name="Path 1684" d="M476.172,88.952c.129.169.63,0,1.236,0s1.122.114,1.241-.06c.05-.084-.03-.253-.253-.407a1.8,1.8,0,0,0-1.985.06C476.187,88.7,476.117,88.873,476.172,88.952Z" transform="translate(-370.534 -72.473)" fill="#263238"/>
    </g>
  </g>
</svg>
