<svg xmlns="http://www.w3.org/2000/svg" width="925.261" height="611.966" viewBox="0 0 925.261 611.966">
  <g id="Group_315" data-name="Group 315" transform="translate(-2000 -15810)">
    <g id="About_us_page-pana" data-name="About us page-pana" transform="translate(2000 15810)">
      <g id="freepik--background-complete--inject-181" transform="translate(0 0)">
        <path id="Path_3150" data-name="Path 3150" d="M834.477,485.583c0-2.273-.1-167.958-.272-435.931l.272.286-783.243.086h0l.372-.372V485.583l-.343-.343,783.3.343-783.3.343H50.92V49.28h.429l783.243.086h.286v.286C834.563,317.682,834.563,483.309,834.477,485.583Z" transform="translate(-50.92 -49.28)" fill="#e0e0e0"/>
        <rect id="Rectangle_464" data-name="Rectangle 464" width="783.314" height="33.386" transform="translate(0.257 0.372)" fill="#e0e0e0"/>
        <path id="Path_3151" data-name="Path 3151" d="M72.241,62.14a5.376,5.376,0,1,1-1.57-3.811,5.39,5.39,0,0,1,1.57,3.811Z" transform="translate(-46.39 -46.069)" fill="#fff"/>
        <path id="Path_3152" data-name="Path 3152" d="M83.881,62.14a5.376,5.376,0,1,1-1.57-3.811,5.39,5.39,0,0,1,1.57,3.811Z" transform="translate(-41.387 -46.069)" fill="#fff"/>
        <path id="Path_3153" data-name="Path 3153" d="M95.541,62.14a5.376,5.376,0,1,1-1.575-3.816A5.39,5.39,0,0,1,95.541,62.14Z" transform="translate(-36.376 -46.069)" fill="#fff"/>
      </g>
      <g id="freepik--Page--inject-181" transform="translate(58.607 66.529)">
        <rect id="Rectangle_465" data-name="Rectangle 465" width="792.222" height="528.139" transform="translate(0.372 0.443)" fill="#fafafa"/>
        <rect id="Rectangle_466" data-name="Rectangle 466" width="792.222" height="33.758" transform="translate(0.372 0.443)" fill="#263238"/>
        <path id="Path_3154" data-name="Path 3154" d="M884.5,129.989c0-.686,0-10.652-.1-33.758l.1.1L92.4,96.6h0l.372-.372v33.758l-.372-.372,792.222.372-792.336.386H91.91V95.86h.415l792.179.272h.1v.1C884.532,119.337,884.5,129.3,884.5,129.989Z" transform="translate(-91.91 -95.789)" fill="#263238"/>
        <path id="Path_3155" data-name="Path 3155" d="M113.545,108.858a5.448,5.448,0,1,1-5.448-5.448,5.448,5.448,0,0,1,5.448,5.448Z" transform="translate(-87.294 -92.544)" fill="#e0e0e0"/>
        <path id="Path_3156" data-name="Path 3156" d="M125.325,108.858A5.433,5.433,0,1,1,123.734,105,5.447,5.447,0,0,1,125.325,108.858Z" transform="translate(-82.231 -92.544)" fill="#e0e0e0"/>
        <path id="Path_3157" data-name="Path 3157" d="M137.115,108.858a5.448,5.448,0,1,1-5.448-5.448A5.448,5.448,0,0,1,137.115,108.858Z" transform="translate(-77.164 -92.544)" fill="#e0e0e0"/>
        <path id="Path_3165" data-name="Path 3165" d="M792.766,548.606c-30.569-32.128-75.45-47.855-119.846-47.541-32.428.214-66.257,9.894-96.383-2.059-27.9-11.067-45.6-37.933-67.286-58.622a183.715,183.715,0,0,0-124.907-50.243c-31.2-.1-65.542,7.063-91.278-10.58-17.358-11.91-26.237-32.428-38.433-49.6-35.745-50.343-104.561-71.333-162.153-49.085V548.249Z" transform="translate(-91.665 -20.067)" fill="#ebebeb"/>
        <path id="Path_3166" data-name="Path 3166" d="M884.452,624.392c0-2.431-.114-206.162-.3-528.138l.3.3H92.345l.372-.372V624.32l-.343-.343,792.222.343-792.222.343H92.03V95.81H884.881v.3C884.567,418.229,884.452,621.961,884.452,624.392Z" transform="translate(-91.858 -95.81)" fill="#263238"/>
        <path id="Path_3167" data-name="Path 3167" d="M166.815,177.208c0,.529-3.889.972-8.707.972s-8.707-.443-8.707-.972,3.9-.958,8.707-.958S166.815,176.679,166.815,177.208Z" transform="translate(-67.201 -61.237)" fill="#0065b3"/>
        <path id="Path_3168" data-name="Path 3168" d="M168.338,160.36c.529,0,.958,3.946.958,8.836s-.429,8.836-.958,8.836-.958-3.961-.958-8.836S167.809,160.36,168.338,160.36Z" transform="translate(-59.473 -68.067)" fill="#0065b3"/>
        <path id="Path_3169" data-name="Path 3169" d="M174.94,176.822c0-.543,3.889-.972,8.693-.972s8.707.429,8.707.972-3.889.958-8.707.958S174.94,177.351,174.94,176.822Z" transform="translate(-56.224 -61.409)" fill="#0065b3"/>
        <path id="Path_3170" data-name="Path 3170" d="M168.758,198.4c-.529,0-.958-3.961-.958-8.836s.429-8.836.958-8.836.958,3.961.958,8.836S169.287,198.4,168.758,198.4Z" transform="translate(-59.293 -59.312)" fill="#0065b3"/>
        <path id="Path_3171" data-name="Path 3171" d="M180.2,188.236c-.4.329-2.116-1.044-3.832-3.1s-2.759-3.975-2.359-4.289,2.13,1.044,3.832,3.088S180.611,187.878,180.2,188.236Z" transform="translate(-56.662 -59.282)" fill="#0065b3"/>
        <path id="Path_3172" data-name="Path 3172" d="M179.691,167.221c.386.372-.758,2.13-2.531,3.918s-3.517,2.945-3.889,2.574.758-2.13,2.531-3.932S179.319,166.85,179.691,167.221Z" transform="translate(-56.972 -65.148)" fill="#0065b3"/>
        <path id="Path_3173" data-name="Path 3173" d="M165.637,173.568c-.329.4-1.973-.4-3.675-1.816s-2.774-2.86-2.445-3.289,1.987.4,3.689,1.816S165.952,173.139,165.637,173.568Z" transform="translate(-62.878 -64.632)" fill="#0065b3"/>
        <path id="Path_3174" data-name="Path 3174" d="M165.019,180.281c.386.372-.6,2.087-2.216,3.86s-3.231,2.86-3.617,2.545.586-2.073,2.2-3.846S164.676,179.909,165.019,180.281Z" transform="translate(-63.032 -59.535)" fill="#0065b3"/>
        <path id="Path_3175" data-name="Path 3175" d="M508.154,145.033c0,.3-2.216.543-4.947.543s-4.947-.243-4.947-.543,2.216-.543,4.947-.543S508.154,144.733,508.154,145.033Z" transform="translate(82.738 -74.887)" fill="#0065b3"/>
        <path id="Path_3176" data-name="Path 3176" d="M509.013,135.47c.3,0,.543,2.245.543,5s-.243,5.019-.543,5.019-.543-2.245-.543-5.019S508.713,135.47,509.013,135.47Z" transform="translate(87.126 -78.764)" fill="#0065b3"/>
        <path id="Path_3177" data-name="Path 3177" d="M512.76,144.8c0-.3,2.216-.543,4.947-.543s4.933.243,4.933.543-2.2.558-4.933.558S512.76,145.118,512.76,144.8Z" transform="translate(88.97 -74.986)" fill="#0065b3"/>
        <path id="Path_3178" data-name="Path 3178" d="M509.253,157.067c-.3,0-.543-2.245-.543-5.019s.243-5.019.543-5.019.543,2.245.543,5.019S509.554,157.067,509.253,157.067Z" transform="translate(87.23 -73.796)" fill="#0065b3"/>
        <path id="Path_3179" data-name="Path 3179" d="M515.752,151.277c-.243.186-1.215-.6-2.188-1.759s-1.559-2.259-1.33-2.459,1.2.6,2.173,1.759S515.981,151.106,515.752,151.277Z" transform="translate(88.723 -73.796)" fill="#0065b3"/>
        <path id="Path_3180" data-name="Path 3180" d="M515.458,139.362c.214.214-.429,1.215-1.43,2.23s-2,1.659-2.216,1.43.429-1.2,1.43-2.216S515.244,139.148,515.458,139.362Z" transform="translate(88.545 -77.109)" fill="#0065b3"/>
        <path id="Path_3181" data-name="Path 3181" d="M507.495,142.956c-.2.229-1.13-.229-2.087-1.029s-1.587-1.63-1.43-1.859,1.13.214,2.087,1.015S507.68,142.727,507.495,142.956Z" transform="translate(85.185 -76.814)" fill="#0065b3"/>
        <path id="Path_3182" data-name="Path 3182" d="M507.132,146.781c.214.2-.343,1.172-1.258,2.188s-1.83,1.644-2.059,1.43.343-1.187,1.258-2.188S506.961,146.581,507.132,146.781Z" transform="translate(85.104 -73.919)" fill="#0065b3"/>
        <path id="Path_3183" data-name="Path 3183" d="M350.408,223.659a17.515,17.515,0,0,1-7.578,0A16.942,16.942,0,0,1,350.408,223.659Z" transform="translate(15.935 -41.045)" fill="#263238"/>
        <path id="Path_3184" data-name="Path 3184" d="M351.129,216.32a17.971,17.971,0,0,1,0,7.678,17.4,17.4,0,0,1,0-7.678Z" transform="translate(19.317 -44.015)" fill="#263238"/>
        <path id="Path_3185" data-name="Path 3185" d="M353.94,223.475a17.514,17.514,0,0,1,7.578,0A16.944,16.944,0,0,1,353.94,223.475Z" transform="translate(20.71 -41.118)" fill="#263238"/>
        <path id="Path_3186" data-name="Path 3186" d="M351.255,232.872a18.045,18.045,0,0,1,0-7.692A18.043,18.043,0,0,1,351.255,232.872Z" transform="translate(19.377 -40.207)" fill="#263238"/>
        <path id="Path_3187" data-name="Path 3187" d="M356.23,228.449c-.172.143-.915-.458-1.659-1.344s-1.215-1.73-1.029-1.887.929.458,1.673,1.344S356.416,228.306,356.23,228.449Z" transform="translate(20.521 -40.202)" fill="#263238"/>
        <path id="Path_3188" data-name="Path 3188" d="M356.021,219.3c.157.172-.329.929-1.1,1.716s-1.544,1.273-1.7,1.115.329-.929,1.1-1.7S355.85,219.141,356.021,219.3Z" transform="translate(20.387 -42.747)" fill="#263238"/>
        <path id="Path_3189" data-name="Path 3189" d="M349.9,222.059c-.143.172-.858-.172-1.6-.786s-1.215-1.258-1.058-1.43.858.172,1.6.786S350.041,221.874,349.9,222.059Z" transform="translate(17.817 -42.52)" fill="#263238"/>
        <path id="Path_3190" data-name="Path 3190" d="M349.619,225.011c.172.157-.257.9-.958,1.673s-1.43,1.273-1.573,1.115.257-.9.958-1.673S349.448,224.825,349.619,225.011Z" transform="translate(17.753 -40.296)" fill="#263238"/>
        <path id="Path_3191" data-name="Path 3191" d="M491.894,234.908c0,.3-2.216.543-4.947.543s-4.947-.172-4.947-.543,2.2-.558,4.933-.558S491.894,234.607,491.894,234.908Z" transform="translate(75.75 -36.266)" fill="#e0e0e0"/>
        <path id="Path_3192" data-name="Path 3192" d="M492.753,225.33c.3,0,.543,2.245.543,5.019s-.243,5.019-.543,5.019-.543-2.245-.543-5.019S492.453,225.33,492.753,225.33Z" transform="translate(80.138 -40.143)" fill="#e0e0e0"/>
        <path id="Path_3193" data-name="Path 3193" d="M496.5,234.673c0-.3,2.216-.543,4.947-.543s4.933.243,4.933.543-2.2.543-4.933.543S496.5,234.974,496.5,234.673Z" transform="translate(81.982 -36.36)" fill="#e0e0e0"/>
        <path id="Path_3194" data-name="Path 3194" d="M492.993,246.937c-.3,0-.543-2.259-.543-5.019s.243-5.019.543-5.019.543,2.245.543,5.019S493.236,246.937,492.993,246.937Z" transform="translate(80.241 -35.17)" fill="#e0e0e0"/>
        <path id="Path_3195" data-name="Path 3195" d="M499.492,241.152c-.243.2-1.215-.586-2.188-1.744s-1.559-2.273-1.33-2.459,1.2.586,2.173,1.744S499.721,240.966,499.492,241.152Z" transform="translate(81.735 -35.161)" fill="#e0e0e0"/>
        <path id="Path_3196" data-name="Path 3196" d="M499.2,229.233c.214.214-.429,1.2-1.43,2.216s-2,1.673-2.216,1.43.429-1.2,1.43-2.23S498.984,229.019,499.2,229.233Z" transform="translate(81.557 -38.484)" fill="#e0e0e0"/>
        <path id="Path_3197" data-name="Path 3197" d="M491.235,232.816c-.2.243-1.13-.214-2.087-1.015s-1.587-1.644-1.43-1.873,1.13.229,2.087,1.029S491.42,232.587,491.235,232.816Z" transform="translate(78.197 -38.192)" fill="#e0e0e0"/>
        <path id="Path_3198" data-name="Path 3198" d="M490.872,236.641c.214.214-.343,1.187-1.258,2.188s-1.83,1.659-2.059,1.43.343-1.187,1.258-2.188S490.644,236.441,490.872,236.641Z" transform="translate(78.116 -35.297)" fill="#e0e0e0"/>
        <path id="Path_3199" data-name="Path 3199" d="M309.087,145.48l.643,1.544a10.981,10.981,0,0,0,5.977,5.919l1.687.686-1.616.643a10.924,10.924,0,0,0-6.019,6.048l-.458,1.115-.686-1.43a10.852,10.852,0,0,0-6.105-5.533l-1.43-.543,1.916-.915a10.967,10.967,0,0,0,5.319-5.719Z" transform="translate(-2.009 -74.462)" fill="#0065b3"/>
        <path id="Path_3200" data-name="Path 3200" d="M132.653,226.4l.429,1.029a7.249,7.249,0,0,0,3.975,3.932l1.115.458-1.072.429a7.306,7.306,0,0,0-4,4.018l-.3.743-.458-.929a7.264,7.264,0,0,0-4.046-3.689l-.972-.343,1.273-.615a7.392,7.392,0,0,0,3.532-3.746Z" transform="translate(-76.691 -39.683)" fill="#e0e0e0"/>
        <path id="Path_3201" data-name="Path 3201" d="M575.207,156.64l.415,1.029a7.363,7.363,0,0,0,3.975,3.946l1.115.443-1.058.443a7.263,7.263,0,0,0-4.018,4l-.3.758-.443-.944a7.278,7.278,0,0,0-4.061-3.675l-.972-.357,1.273-.615a7.149,7.149,0,0,0,3.532-3.746Z" transform="translate(113.512 -69.665)" fill="#e0e0e0"/>
        <path id="Path_3202" data-name="Path 3202" d="M577.337,187l.643,1.544a10.953,10.953,0,0,0,5.976,5.934l1.687.672-1.616.658a10.966,10.966,0,0,0-6.034,6.034l-.443,1.13-.686-1.43a10.853,10.853,0,0,0-6.105-5.533l-1.43-.529,1.916-.929a10.938,10.938,0,0,0,5.319-5.633Z" transform="translate(98.986 -56.617)" fill="#0065b3"/>
        <path id="Path_3203" data-name="Path 3203" d="M391.29,138.93l.3.729a5.133,5.133,0,0,0,2.86,2.774l.786.329-.758.3a5.119,5.119,0,0,0-2.86,2.86l-.214.529-.329-.658a5.061,5.061,0,0,0-2.86-2.6l-.686-.243.9-.443a5.133,5.133,0,0,0,2.5-2.645Z" transform="translate(35.147 -77.277)" fill="#0065b3"/>
        <path id="Path_3204" data-name="Path 3204" d="M252.221,221.83l.386.929a6.549,6.549,0,0,0,3.6,3.574l1.015.415-.972.386a6.548,6.548,0,0,0-3.632,3.646l-.272.686-.415-.858a6.606,6.606,0,0,0-3.689-3.331l-.886-.329,1.158-.558a6.663,6.663,0,0,0,3.217-3.4Z" transform="translate(-25.098 -41.647)" fill="#0065b3"/>
      </g>
      <g id="freepik--speech-bubble--inject-181" transform="translate(803.14 210.552)">
        <path id="Path_3205" data-name="Path 3205" d="M673.573,196.607a60.752,60.752,0,0,0-41.636,104.961l-8.207,28.739,29.025-15.871A60.781,60.781,0,1,0,673.573,196.55Z" transform="translate(-612.543 -196.536)" fill="#f5f5f5"/>
        <path id="Path_3206" data-name="Path 3206" d="M673.665,196.611h1.087l3.174.129a15.693,15.693,0,0,1,2.345.129l2.86.415c1.015.172,2.116.272,3.274.529l3.646.915a60.052,60.052,0,0,1,35.387,26.337l1.887,3.1c.543,1.087,1.087,2.2,1.63,3.331a58.549,58.549,0,0,1,5.719,23.034,63.537,63.537,0,0,1-.143,8.579c-.1,1.43-.4,2.86-.6,4.289-.115.729-.215,1.43-.329,2.188l-.558,2.173a57.539,57.539,0,0,1-6.963,17,61.038,61.038,0,0,1-29.611,25.293,62.225,62.225,0,0,1-41.707,1.43l-1.973-.686h.3c-9.894,5.419-19.6,10.738-29.025,15.871l-.758.429.229-.844c2.86-9.908,5.59-19.517,8.221-28.739l.1.357a63.952,63.952,0,0,1-9.894-12.039,63.017,63.017,0,0,1-6.348-13.555,61.167,61.167,0,0,1-2.76-14.041c-.114-1.158-.157-2.316-.172-3.46a30.473,30.473,0,0,1,0-3.431,46.724,46.724,0,0,1,.586-6.677,60.6,60.6,0,0,1,8.464-23.134,62.365,62.365,0,0,1,14.026-15.842l3.775-2.86,3.818-2.316a29.7,29.7,0,0,1,3.7-1.945c1.23-.558,2.374-1.2,3.575-1.63a62.733,62.733,0,0,1,12.353-3.5l4.6-.672,3.374-.143h2.073l-2.059.143-3.374.2-4.575.715a63.526,63.526,0,0,0-12.268,3.589c-1.187.429-2.316,1.087-3.532,1.644a31.7,31.7,0,0,0-3.689,1.959l-3.832,2.331-3.675,2.86a61.609,61.609,0,0,0-13.841,15.728,60.05,60.05,0,0,0-8.25,22.963,48.064,48.064,0,0,0-.572,6.62,29.661,29.661,0,0,0,0,3.389,23.179,23.179,0,0,0,.172,3.432A60.031,60.031,0,0,0,632.4,301.358l.157.143-.071.214c-2.617,9.208-5.362,18.816-8.178,28.739l-.529-.429,29.011-15.871.143-.086h.172l1.959.672a61.324,61.324,0,0,0,41.193-1.43,60.423,60.423,0,0,0,29.3-24.979,57.059,57.059,0,0,0,6.92-16.8c.186-.715.372-1.43.543-2.145l.343-2.173c.186-1.43.486-2.86.6-4.289a64.67,64.67,0,0,0,.157-8.464,57.89,57.89,0,0,0-5.59-22.877l-1.6-3.3-1.859-3.074a60.052,60.052,0,0,0-17.558-18.287,60.668,60.668,0,0,0-17.458-8.05l-3.632-.958c-1.144-.257-2.245-.372-3.246-.558l-2.86-.443c-.858-.129-1.644-.114-2.331-.172l-3.174-.2A4.937,4.937,0,0,1,673.665,196.611Z" transform="translate(-612.636 -196.54)" fill="#263238"/>
        <path id="Path_3207" data-name="Path 3207" d="M646,239.792h4.289l9.38-13.083v-8.579s6.649-.4,5.862,10.838,0,8.364,0,8.364,14.1,0,15.27,1.287c.858.886,1.244,14.9,1.43,22.505a8.221,8.221,0,0,1-5.819,8.279,6.332,6.332,0,0,1-1.53.2c-3.517,0-21.447-2.86-21.447-2.86H646Z" transform="translate(-598.297 -187.261)" fill="#0065b3"/>
        <path id="Path_3208" data-name="Path 3208" d="M637.43,231.63l2.645,29.4h7.363v-28.81Z" transform="translate(-601.98 -181.458)" fill="#0065b3"/>
      </g>
      <g id="freepik--character-1--inject-181" transform="translate(45.896 233.104)">
        <path id="Path_3209" data-name="Path 3209" d="M256.112,252c-.243,4.59-6.22,10.709-4.375,14.913,3.4,7.75,1.43,17.029-2.974,24.307s-11,12.868-17.472,18.273a146.327,146.327,0,0,0-2.931-33.672c-.715-3.46-1.887-7.321-5.047-8.893-4.1-2.03-9.308.9-13.512-.9-4.475-1.945-5.376-8.064-9.151-11.152-3.417-2.788-8.436-2.488-12.625-1.087s-8.035,3.76-12.339,4.718-9.494.1-11.882-3.617c-1.43-2.288-.415-.886-1.816-3.217,0,0-8.393.286-11.281-9.48,0,0-3.946-10.852,4.79-15.642,0,0,1.987-19.617,21.7-10.795,5.719,2.545,12.382-5.633,17.915-2.86,4.6,2.331,5.962,8.736,10.566,11.081,5.29,2.688,11.438-1.315,17.358-1.558a14.3,14.3,0,0,1,14.3,14.3s.929-3.918,7.349-2.2S256.569,243.049,256.112,252Z" transform="translate(-54.309 -212.313)" fill="#263238"/>
        <path id="Path_3210" data-name="Path 3210" d="M243.045,275.63a13.869,13.869,0,0,0-1.2-6.463c-.829-1.673-3.932-5.476-7.335-5.719l.5-20.2a8.05,8.05,0,0,0-7.149-8.15L188.27,230.92A24.121,24.121,0,0,0,161.661,253.4c-.958,15.227-1.53,33.858.272,45.21,3.632,22.877,21.132,25.736,21.132,25.736l-.429,15.957c-.672,17,12.053,27.238,25.179,27.238s25.25-11.338,24.864-28.167l1.287-51.473a9.008,9.008,0,0,0,5.791-2.86,14.455,14.455,0,0,0,3.289-9.408Z" transform="translate(-49.607 -204.373)" fill="#ffbe9d"/>
        <path id="Path_3211" data-name="Path 3211" d="M167.53,256.067a2.945,2.945,0,0,0,2.86,2.96,2.807,2.807,0,1,0-2.86-2.96Z" transform="translate(-46.697 -194.647)" fill="#263238"/>
        <path id="Path_3212" data-name="Path 3212" d="M164.191,254.3c.357.386,2.574-1.258,5.719-1.258s5.462,1.587,5.8,1.2c.157-.172-.214-.858-1.215-1.587a8.007,8.007,0,0,0-4.647-1.43,7.606,7.606,0,0,0-4.561,1.43C164.334,253.446,163.948,254.133,164.191,254.3Z" transform="translate(-48.162 -195.587)" fill="#263238"/>
        <path id="Path_3213" data-name="Path 3213" d="M188.81,256.477a2.931,2.931,0,0,0,2.86,2.96,2.86,2.86,0,0,0,3.017-2.645,2.931,2.931,0,0,0-2.86-2.96A2.86,2.86,0,0,0,188.81,256.477Z" transform="translate(-37.551 -194.47)" fill="#263238"/>
        <path id="Path_3214" data-name="Path 3214" d="M185.855,254.714c.357.386,2.574-1.258,5.719-1.244s5.462,1.573,5.8,1.187c.157-.172-.2-.858-1.215-1.587a8.007,8.007,0,0,0-4.647-1.43,7.706,7.706,0,0,0-4.561,1.43C186,253.856,185.669,254.543,185.855,254.714Z" transform="translate(-38.842 -195.41)" fill="#263238"/>
        <path id="Path_3215" data-name="Path 3215" d="M180.23,278.032a21.665,21.665,0,0,0-5.119-.929c-.8-.071-1.558-.243-1.7-.786a4.189,4.189,0,0,1,.543-2.388l2.373-6.105c3.317-8.736,5.719-15.914,5.347-16.042s-3.317,6.834-6.62,15.571c-.8,2.145-1.558,4.2-2.273,6.162a4.675,4.675,0,0,0-.429,3.16,2.03,2.03,0,0,0,1.33,1.172,5.718,5.718,0,0,0,1.43.2,19.76,19.76,0,0,0,5.119-.014Z" transform="translate(-44.67 -195.35)" fill="#263238"/>
        <path id="Path_3216" data-name="Path 3216" d="M176.366,298.684a58.164,58.164,0,0,0,30.6-8.164s-7.921,17.158-30.784,15.056Z" transform="translate(-42.979 -178.7)" fill="#eb996e"/>
        <path id="Path_3217" data-name="Path 3217" d="M184.845,250.643c.315.858,3.46.458,7.149.9s6.691,1.43,7.149.686c.214-.372-.3-1.172-1.5-2a12.508,12.508,0,0,0-10.924-1.215C185.4,249.571,184.716,250.243,184.845,250.643Z" transform="translate(-39.262 -196.858)" fill="#263238"/>
        <path id="Path_3218" data-name="Path 3218" d="M163.834,249.211c.558.715,2.717,0,5.333,0s4.818.472,5.333-.272c.229-.372-.129-1.087-1.087-1.759a7.735,7.735,0,0,0-8.579.272C163.891,248.124,163.591,248.854,163.834,249.211Z" transform="translate(-48.32 -197.828)" fill="#263238"/>
        <path id="Path_3219" data-name="Path 3219" d="M178.32,283.11c0-.071.214-.458.858-.858a5.534,5.534,0,0,1,2.86-.772,5.6,5.6,0,0,1,2.86.743c.643.4.929.772.872.844a13.868,13.868,0,0,0-3.689-.829,12.666,12.666,0,0,0-3.76.872Z" transform="translate(-42.059 -182.585)" fill="#eb996e"/>
        <path id="Path_3220" data-name="Path 3220" d="M210.87,269.895a18.361,18.361,0,0,0,2.173-1.058,5.862,5.862,0,0,0,2.645-4.69,5.991,5.991,0,0,0-2.373-4.876,5.018,5.018,0,0,0-2.173-.844c-.071-.086,1.058-.472,2.474.4a6.191,6.191,0,0,1,2.86,5.319,5.876,5.876,0,0,1-1.058,3.274,6.105,6.105,0,0,1-2.059,1.873A3.56,3.56,0,0,1,210.87,269.895Z" transform="translate(-28.07 -192.561)" fill="#eb996e"/>
        <path id="Path_3221" data-name="Path 3221" d="M158.593,227.369c-3.689,9.866,5.076,17.015,11.91,18.587,9.551,2.23,19.7-3.8,26.237-1.244,4.876,1.916,9.48,5.719,14.655,4.933,2.516-.372,5-1.816,7.449-1.158,3.131.858,4.4,4.661,4.289,7.907-.086,4-1.43,7.978-.929,11.953s4.046,8.078,7.921,7.02a9.523,9.523,0,0,0,6.491-8.579c.458-5.5-.558-12.053-.286-17.572.243-4.861.257-10.209-2.86-13.969s-8.379-4.776-13.226-5.433a368,368,0,0,0-61.71-3.26" transform="translate(-50.914 -206.269)" fill="#263238"/>
        <path id="Path_3222" data-name="Path 3222" d="M149.983,233.023a3.174,3.174,0,0,1-.2-1.029,6.062,6.062,0,0,1,.6-2.96,6.662,6.662,0,0,1,3.446-3.274,5.991,5.991,0,0,1,3-.329c1.072.1,2.145.386,3.274.443a6.42,6.42,0,0,0,3.374-.743,16.243,16.243,0,0,0,3.131-2.273c1.029-.886,2.073-1.859,3.274-2.731a10.652,10.652,0,0,1,4.2-1.844,15.513,15.513,0,0,1,9.565,1.63,45,45,0,0,1,8.464,6.048,33.144,33.144,0,0,0,8.45,5.719,9.736,9.736,0,0,0,4.647.715,13.268,13.268,0,0,0,4.289-1.43,40.276,40.276,0,0,1,7.95-3.66,15.728,15.728,0,0,1,7.664-.243,11.824,11.824,0,0,1,5.562,2.988,11.239,11.239,0,0,1,2.645,3.975,8.75,8.75,0,0,1,.586,2.96,5.459,5.459,0,0,1,0,.786q0,.257,0,.257a10.939,10.939,0,0,0-.772-3.889,11.1,11.1,0,0,0-2.659-3.789,11.438,11.438,0,0,0-5.39-2.774,15.356,15.356,0,0,0-7.378.315,40.417,40.417,0,0,0-7.821,3.689,13.469,13.469,0,0,1-4.575,1.43,10.38,10.38,0,0,1-4.99-.729,34,34,0,0,1-8.65-5.8,44.681,44.681,0,0,0-8.321-5.962,14.913,14.913,0,0,0-9.108-1.616c-2.988.5-5.147,2.6-7.149,4.375a16.759,16.759,0,0,1-3.274,2.3,7.064,7.064,0,0,1-3.675.772c-1.187-.086-2.259-.386-3.289-.515a5.848,5.848,0,0,0-2.86.257,6.463,6.463,0,0,0-3.331,3.017,6.219,6.219,0,0,0-.715,2.86C149.925,232.666,150.1,233.009,149.983,233.023Z" transform="translate(-54.328 -209.822)" fill="#455a64"/>
        <path id="Path_3223" data-name="Path 3223" d="M158.859,244.818a1.859,1.859,0,0,1-1,0,3.446,3.446,0,0,1-2.316-1.659,6.777,6.777,0,0,1-.543-4.49,12.954,12.954,0,0,1,2.345-5.533,12.411,12.411,0,0,1,5.819-4.375,12.868,12.868,0,0,1,8.336-.215,29.21,29.21,0,0,1,8.021,4.547,28.024,28.024,0,0,0,8.422,4.718,15.828,15.828,0,0,0,9.437-.515,45.107,45.107,0,0,0,8.193-3.9,73.569,73.569,0,0,1,7.363-3.875,20.9,20.9,0,0,1,7.035-1.816,13.068,13.068,0,0,1,9.794,3.289,8.708,8.708,0,0,1,1.687,2.316,4.018,4.018,0,0,1,.343.944,10.666,10.666,0,0,0-2.216-3.045,13.04,13.04,0,0,0-9.565-2.988,20.447,20.447,0,0,0-6.834,1.873,71.732,71.732,0,0,0-7.263,3.9,45.607,45.607,0,0,1-8.307,3.989,16.543,16.543,0,0,1-9.88.543,28.882,28.882,0,0,1-8.579-4.833,28.825,28.825,0,0,0-7.792-4.49,12.411,12.411,0,0,0-7.935.129,12.11,12.11,0,0,0-5.6,4.118,12.482,12.482,0,0,0-2.345,5.29,6.463,6.463,0,0,0,.386,4.289,3.374,3.374,0,0,0,2.073,1.7,5.461,5.461,0,0,0,.929.086Z" transform="translate(-52.153 -205.717)" fill="#455a64"/>
        <path id="Path_3224" data-name="Path 3224" d="M223.124,280.823a21.835,21.835,0,0,0,1.273-2,13.683,13.683,0,0,0,1.7-6.12,12.726,12.726,0,0,0-.543-4.289,16.272,16.272,0,0,0-2.288-4.49c-1-1.43-2.188-3-3.231-4.718a10.981,10.981,0,0,1-1.873-5.948,14.6,14.6,0,0,1,1.916-5.934,12.625,12.625,0,0,0,1.6-5.262,8.993,8.993,0,0,0-4.218-7.85,9.351,9.351,0,0,0-6.134-1.2,19.108,19.108,0,0,0-2.288.558,2.244,2.244,0,0,1,.529-.315,8.264,8.264,0,0,1,1.716-.529,9.322,9.322,0,0,1,6.434,1.029,9.479,9.479,0,0,1,4.647,8.321,13.34,13.34,0,0,1-1.63,5.562,13.984,13.984,0,0,0-1.83,5.633,10.251,10.251,0,0,0,1.759,5.562c1,1.659,2.173,3.174,3.174,4.7a16.913,16.913,0,0,1,2.316,4.7,13.084,13.084,0,0,1,.472,4.547,13.3,13.3,0,0,1-1.916,6.162,9.356,9.356,0,0,1-1.072,1.43A4.421,4.421,0,0,1,223.124,280.823Z" transform="translate(-28.856 -203.618)" fill="#455a64"/>
        <path id="Path_3225" data-name="Path 3225" d="M185.974,259.138a31.711,31.711,0,0,0-.6-3.56,14.437,14.437,0,0,0-25.65-4.99,14.3,14.3,0,0,0,0,16.943,13.112,13.112,0,0,0,3.031,3.06,13.3,13.3,0,0,0,3.617,1.959,14.412,14.412,0,0,0,13.64-2,14.727,14.727,0,0,0,5.362-7.935,32.481,32.481,0,0,0,.6-3.546,11.352,11.352,0,0,1-.315,3.617,14.655,14.655,0,0,1-5.4,8.407,14.913,14.913,0,0,1-14.184,2.231,13.856,13.856,0,0,1-3.818-2.03,14.3,14.3,0,0,1-3.188-3.188,14.941,14.941,0,0,1,0-17.815,14.975,14.975,0,0,1,14.9-5.848,14.884,14.884,0,0,1,11.624,11.124A11.439,11.439,0,0,1,185.974,259.138Z" transform="translate(-51.601 -198.619)" fill="#263238"/>
        <path id="Path_3226" data-name="Path 3226" d="M209.389,259.138a27.976,27.976,0,0,0-.6-3.56,14.442,14.442,0,0,0-25.651-4.99,14.3,14.3,0,0,0,0,16.943,13.381,13.381,0,0,0,3.031,3.06,13.583,13.583,0,0,0,3.632,1.959,14.512,14.512,0,0,0,18.959-9.866,28.589,28.589,0,0,0,.6-3.546,10.852,10.852,0,0,1-.315,3.617,14.612,14.612,0,0,1-5.29,8.336,14.913,14.913,0,0,1-14.184,2.23,13.855,13.855,0,0,1-3.818-2.03,14.413,14.413,0,0,1-3.2-3.188,15,15,0,0,1,0-17.815,15.242,15.242,0,0,1,7.02-5.233,15.07,15.07,0,0,1,7.893-.615,14.9,14.9,0,0,1,11.61,11.124A10.937,10.937,0,0,1,209.389,259.138Z" transform="translate(-41.501 -198.619)" fill="#263238"/>
        <path id="Path_3227" data-name="Path 3227" d="M181.949,253.025h0v.143h0v-.257h0v.286a9.737,9.737,0,0,1-2.4.229c-1.43,0-2.617-.172-2.617-.372s1.172-.372,2.617-.372a9.064,9.064,0,0,1,2.4.229v.286h0v-.257h0v.143h0Z" transform="translate(-42.657 -194.965)" fill="#263238"/>
        <path id="Path_3228" data-name="Path 3228" d="M218.188,255.587a53.252,53.252,0,0,1-9.008-.272,53.685,53.685,0,0,1-8.951-1.015,57.105,57.105,0,0,1,9.008.272,55.565,55.565,0,0,1,8.951,1.015Z" transform="translate(-32.643 -194.296)" fill="#263238"/>
        <path id="Path_3229" data-name="Path 3229" d="M190.077,269.59a3.875,3.875,0,0,1,.1,2.3,7.878,7.878,0,0,1-8.093,6.62,3.861,3.861,0,0,1-2.245-.558c0-.114.886.114,2.245,0a8.078,8.078,0,0,0,7.578-6.191A16.382,16.382,0,0,0,190.077,269.59Z" transform="translate(-41.406 -187.695)" fill="#263238"/>
        <path id="Path_3230" data-name="Path 3230" d="M149.277,341.38a1.915,1.915,0,0,1,0,.457v1.344c0,1.23,0,2.974.071,5.176,0,4.532,0,11.009.1,19,0,16.042-.486,38.2-1.73,62.654s-2.531,46.54-3.4,62.611c-.4,7.964-.729,14.441-.958,18.973q-.172,3.3-.257,5.147c0,.558-.072,1-.086,1.344a2.347,2.347,0,0,1,0,.458,1.631,1.631,0,0,1,0-.458v-1.344c0-1.23.071-2.96.129-5.162.129-4.49.357-10.981.715-18.988.672-16.028,1.973-38.161,3.188-62.611s1.873-46.6,1.959-62.639c0-7.978.1-14.455.129-18.988,0-2.2,0-3.946.071-5.176v-1.344A1.917,1.917,0,0,1,149.277,341.38Z" transform="translate(-57.24 -156.84)" fill="#263238"/>
        <path id="Path_3231" data-name="Path 3231" d="M256.188,326.6c-7.692-8.879-22.719-10.18-29.382-5.362s-10.366,13-11.038,21.19,1.43,16.414,4.547,24.006c5.019,12.182,12.439,22.047,23.52,34.6l28.6,37.489-55.119,53.818,22.877,36.045,46.854-37.747,38.747-41.064" transform="translate(-26.018 -166.683)" fill="#e61030"/>
        <path id="Path_3232" data-name="Path 3232" d="M104.61,405.762a8.98,8.98,0,0,1,2.974-1.43,21.046,21.046,0,0,1,7.878-1.072,21.289,21.289,0,0,1,7.735,1.916,8.893,8.893,0,0,1,2.86,1.744c0,.1-1.144-.529-3-1.258A24.39,24.39,0,0,0,115.491,404a24.835,24.835,0,0,0-7.692.829C105.811,405.361,104.667,405.876,104.61,405.762Z" transform="translate(-73.74 -130.258)" fill="#263238"/>
        <path id="Path_3233" data-name="Path 3233" d="M320.61,340.541h0c-19.231-25.508-39.934-23.406-50.486-23.706v-11.2c-7.792,0-18.444,7.02-23.949,12.039l-5.448,7.478h0A27.767,27.767,0,0,0,222.94,307.7a54.929,54.929,0,0,0-9.108-2.059v10.009c-25.851.729-39.677,7.792-56.949,27.781-.886,1.029-2.645,2.788-4.661,4.776h0l-51.1,60.052C90.684,419.809,81.1,435.709,83.349,451.151h0c2.445,17.386,12.582,28.825,31.985,41.936l53.76,34.844-.257,5.991h128.3s87-64.184,89.134-87.961C387.924,427.173,357.956,387.353,320.61,340.541ZM171.253,476.815l-37.618-28.067L174.27,406.7Zm123.191,2.231-1.015-20.775,5.462-54.575c10.723,12.3,30.569,36.7,30.569,40.349Z" transform="translate(-83.019 -172.201)" fill="#e61030"/>
        <path id="Path_3234" data-name="Path 3234" d="M222.7,313.51a10.924,10.924,0,0,1-.972,1.7c-.686,1.058-1.673,2.588-2.974,4.432A101.241,101.241,0,0,1,207.5,333.2c-1.215,1.23-2.445,2.388-3.646,3.489l-.6.558v-.815a18.173,18.173,0,0,0-5.262-12.525,7.792,7.792,0,0,0-3.274-2.316,2.045,2.045,0,0,0-1.43.243,1.43,1.43,0,0,1,1.43-.5,7.435,7.435,0,0,1,3.56,2.23,18.23,18.23,0,0,1,3.775,5.119,18.416,18.416,0,0,1,1.887,7.735l-.6-.272c1.172-1.1,2.4-2.245,3.6-3.474a122.7,122.7,0,0,0,11.367-13.326l3.146-4.289a9.754,9.754,0,0,1,1.244-1.544Z" transform="translate(-35.625 -168.819)" fill="#263238"/>
        <path id="Path_3235" data-name="Path 3235" d="M174.49,312.68a8.131,8.131,0,0,1,1.115,1.33l2.86,3.76c2.388,3.2,5.619,7.664,9.165,12.611l2.316,3.231-.643.1a30.913,30.913,0,0,1,2.86-6.62,11.3,11.3,0,0,1,4.132-4.075,7.664,7.664,0,0,1,3.7-1.029,3.032,3.032,0,0,1,1.43.2H200a8.107,8.107,0,0,0-3.474,1.187,11.439,11.439,0,0,0-3.832,4,32.253,32.253,0,0,0-2.745,6.505l-.229.672-.415-.572-2.316-3.231c-3.546-4.947-6.72-9.451-8.993-12.725-1.044-1.558-1.93-2.86-2.645-3.9A7.721,7.721,0,0,1,174.49,312.68Z" transform="translate(-43.706 -169.175)" fill="#263238"/>
        <g id="Group_309" data-name="Group 309" transform="translate(157.679 146.121)" opacity="0.1">
          <path id="Path_3236" data-name="Path 3236" d="M193.3,321.4a22.019,22.019,0,0,1,5.59,17.544c-.272,2.087-.515,4.876,1.43,5.648,1.358.529,2.86-.4,3.961-1.315a77.8,77.8,0,0,0,20.16-24.593,4.69,4.69,0,0,0,.743-2.5,1.716,1.716,0,0,0-1.673-1.673,2.516,2.516,0,0,0-1.43,1.044c-5.948,6.863-12.525,14-18.473,20.846a15.185,15.185,0,0,0-3.3-10.566c-2.359-2.86-4.933-5.819-6.963-4.432" transform="translate(-193.3 -314.51)"/>
        </g>
        <path id="Path_3237" data-name="Path 3237" d="M238.044,489.915a3.62,3.62,0,0,1-.443-.6c-.315-.458-.7-1.058-1.2-1.8l-4.389-6.806c-3.732-5.919-8.951-14.169-15.027-23.763l-.143-.243.2-.186,13.412-13.383,29.182-28.882c3.717-3.632,6.749-6.577,8.893-8.693l2.459-2.331a7.8,7.8,0,0,1,.886-.786,6.542,6.542,0,0,1-.786.886c-.586.615-1.43,1.43-2.345,2.445l-8.779,8.908-29.039,29.039c-4.718,4.7-9.265,9.208-13.426,13.34v-.429c5.977,9.651,11.124,17.944,14.8,23.906,1.773,2.86,3.2,5.233,4.218,6.92.458.758.815,1.43,1.1,1.859a3.3,3.3,0,0,1,.429.6Z" transform="translate(-25.504 -130.597)" fill="#263238"/>
        <path id="Path_3238" data-name="Path 3238" d="M223.553,323.65l-.214.272-.658.772c-.615.658-1.43,1.687-2.459,3.031a30.34,30.34,0,0,0-5.476,13.054,37.5,37.5,0,0,0,3.188,20.632,48.713,48.713,0,0,0,6.291,10.766c2.7,3.446,5.562,6.892,8.493,10.595,11.538,14.541,21.447,28.081,28.739,37.8l8.579,11.538c.987,1.315,1.759,2.373,2.331,3.146l.586.829.186.286a1.494,1.494,0,0,1-.243-.243l-.643-.786-2.431-3.131c-2.1-2.674-5.1-6.563-8.793-11.438-7.378-9.637-17.372-23.134-28.882-37.647-2.86-3.646-5.719-7.149-8.493-10.538A49.414,49.414,0,0,1,217.3,361.64a37.675,37.675,0,0,1-3.074-20.989,30.426,30.426,0,0,1,8.407-16.057l.715-.715C223.453,323.722,223.539,323.636,223.553,323.65Z" transform="translate(-26.784 -164.461)" fill="#263238"/>
        <path id="Path_3239" data-name="Path 3239" d="M268.4,336.56c0,.071-.786.343-2.13,1.058a21.233,21.233,0,0,0-5.076,3.9,42.051,42.051,0,0,0-5.719,7.635,116.918,116.918,0,0,1-6.391,10.009,24.307,24.307,0,0,1-18.587,9.894,22.7,22.7,0,0,1-6.506-.615,13.99,13.99,0,0,1-1.7-.5,3.693,3.693,0,0,1-.572-.243,31.166,31.166,0,0,0,8.75.829,24.621,24.621,0,0,0,9.136-2.445,24.306,24.306,0,0,0,8.836-7.378c2.531-3.289,4.447-6.806,6.391-9.866a40.266,40.266,0,0,1,5.934-7.649,19.932,19.932,0,0,1,5.319-3.8,13.239,13.239,0,0,1,1.659-.643,2.53,2.53,0,0,1,.658-.186Z" transform="translate(-23.406 -158.912)" fill="#fafafa"/>
        <path id="Path_3240" data-name="Path 3240" d="M267.07,427.469h-.343l-.958-.229c-.429-.114-.958-.186-1.587-.286a20.484,20.484,0,0,0-2.173-.243,40.278,40.278,0,0,0-13.8,1.773,68.988,68.988,0,0,0-9.079,3.317c-3.174,1.43-6.463,3.174-10.009,4.847a65.391,65.391,0,0,1-11.553,4.375,34.546,34.546,0,0,1-6.491,1.029,28.44,28.44,0,0,1-6.763-.486,39.676,39.676,0,0,1-12.282-5.061c-3.689-2.2-6.992-4.7-10.152-7.02-6.248-4.69-12.225-8.579-17.9-10.266a28.823,28.823,0,0,0-7.821-1.287,21.918,21.918,0,0,0-5.934.7,23.987,23.987,0,0,0-4.747,1.9l.272-.2.858-.515a16.946,16.946,0,0,1,3.546-1.43,21.889,21.889,0,0,1,6.019-.829,28.822,28.822,0,0,1,7.95,1.187c5.8,1.644,11.882,5.562,18.158,10.223,3.174,2.316,6.477,4.776,10.123,6.949a38.919,38.919,0,0,0,12.053,4.961,26.9,26.9,0,0,0,6.577.472,33.2,33.2,0,0,0,6.348-.987,65.45,65.45,0,0,0,11.438-4.289c3.546-1.659,6.849-3.4,10.009-4.79a67.379,67.379,0,0,1,9.179-3.26,39.075,39.075,0,0,1,13.955-1.558,18.716,18.716,0,0,1,5.1,1Z" transform="translate(-56.174 -124.098)" fill="#fafafa"/>
        <path id="Path_3241" data-name="Path 3241" d="M139.455,415.61a2.151,2.151,0,0,1,.114.5,10.531,10.531,0,0,1,.172,1.43,21.544,21.544,0,0,1-.229,5.3,17.573,17.573,0,0,1-2.974,7.321,22.648,22.648,0,0,1-7.335,6.277c-2.86,1.759-5.819,3.231-8.178,4.947a22.435,22.435,0,0,0-5.519,5.333,8.879,8.879,0,0,0-1.644,4.8c0,1.23.186,1.9.1,1.916a1.43,1.43,0,0,1-.172-.472,7.421,7.421,0,0,1-.229-1.43,8.822,8.822,0,0,1,1.43-5.1,21.889,21.889,0,0,1,5.562-5.6c2.4-1.787,5.3-3.289,8.193-5.019a22.878,22.878,0,0,0,7.149-6.048,17.715,17.715,0,0,0,3.017-7.006,25.952,25.952,0,0,0,.458-5.2A13.678,13.678,0,0,1,139.455,415.61Z" transform="translate(-69.895 -124.936)" fill="#fafafa"/>
        <path id="Path_3242" data-name="Path 3242" d="M297.417,374.227a32.42,32.42,0,0,0-8.479,2.659,25.278,25.278,0,0,0-7.621,5.719,23.419,23.419,0,0,0-3.231,4.633c-.944,1.73-1.587,3.689-2.516,5.619a13.839,13.839,0,0,1-3.76,5.033,16.857,16.857,0,0,1-5.119,2.86,25.037,25.037,0,0,1-9.723,1.2,57.62,57.62,0,0,1-6.548-.772,15.383,15.383,0,0,1-2.359-.5,14.093,14.093,0,0,1,2.4.215c1.544.157,3.76.457,6.52.529a25.336,25.336,0,0,0,9.48-1.33,14,14,0,0,0,8.436-7.535c.9-1.887,1.558-3.86,2.545-5.648a23.349,23.349,0,0,1,3.417-4.7,25.094,25.094,0,0,1,7.907-5.8,23.749,23.749,0,0,1,6.291-1.973,17.654,17.654,0,0,1,1.787-.2A1.759,1.759,0,0,1,297.417,374.227Z" transform="translate(-12.085 -142.733)" fill="#fafafa"/>
        <path id="Path_3243" data-name="Path 3243" d="M270.053,387.116l-.329.1-.972.214c-.858.186-2.13.415-3.789.672a86.143,86.143,0,0,1-14.112,1,65.4,65.4,0,0,1-20.661-3.5,68.621,68.621,0,0,1-11.238-5.276,81.492,81.492,0,0,0-11.867-5.791,27.168,27.168,0,0,0-6.463-1.43,25.926,25.926,0,0,0-6.42.315,41.825,41.825,0,0,0-11.438,4.146c-6.935,3.675-12.768,7.764-18.044,10.609a43.552,43.552,0,0,1-13.168,5.147,18.586,18.586,0,0,1-3.818.415h-1a1.248,1.248,0,0,1-.343,0h.343l.987-.114a21.722,21.722,0,0,0,3.775-.558,45.325,45.325,0,0,0,12.968-5.3c5.19-2.86,11-7.02,17.973-10.766a42.037,42.037,0,0,1,11.681-4.289,26.72,26.72,0,0,1,6.606-.343,27.625,27.625,0,0,1,6.649,1.5,80.189,80.189,0,0,1,11.967,5.862,71.647,71.647,0,0,0,11.124,5.262,65.971,65.971,0,0,0,20.432,3.617,92.753,92.753,0,0,0,14.055-.758c1.659-.214,2.931-.4,3.8-.543l.987-.129A1.248,1.248,0,0,1,270.053,387.116Z" transform="translate(-55.783 -143.554)" fill="#fafafa"/>
        <path id="Path_3244" data-name="Path 3244" d="M146.352,399.766a4.89,4.89,0,0,0-.086-2.2,6.334,6.334,0,0,0-4.49-3.675c-1.244-.372-2.659-.586-4.175-.929a10.336,10.336,0,0,1-4.59-2.1,12.182,12.182,0,0,1-3.174-4.575,36.347,36.347,0,0,1-1.644-5.719,31.313,31.313,0,0,0-1.63-5.548,20.644,20.644,0,0,0-2.674-4.633,20.317,20.317,0,0,0-6.906-5.819,21.53,21.53,0,0,0-5.719-2.03c-1.43-.286-2.245-.343-2.245-.415a1.53,1.53,0,0,1,.6,0,13.794,13.794,0,0,1,1.687.157,19.588,19.588,0,0,1,5.991,1.844A20.331,20.331,0,0,1,124.448,370a20.774,20.774,0,0,1,2.86,4.761,31.81,31.81,0,0,1,1.687,5.719,35.989,35.989,0,0,0,1.587,5.562,11.652,11.652,0,0,0,2.945,4.289,9.736,9.736,0,0,0,4.289,2.03c1.43.372,2.86.615,4.189,1.029a6.563,6.563,0,0,1,4.618,4.089,3.489,3.489,0,0,1,0,1.73A1.429,1.429,0,0,1,146.352,399.766Z" transform="translate(-71.844 -147.939)" fill="#fafafa"/>
        <path id="Path_3245" data-name="Path 3245" d="M246.474,341.943a19.135,19.135,0,0,0-4.2-1.7,13.053,13.053,0,0,0-5.262,0,27.169,27.169,0,0,0-6.677,2.245c-2.388,1.072-4.9,2.474-7.649,3.918a43.6,43.6,0,0,1-9.194,3.818,26.709,26.709,0,0,1-11,.357,42.808,42.808,0,0,1-11.21-3.7c-7.306-3.56-13.383-8.336-19.245-12.053a51.474,51.474,0,0,0-16.657-7.621,27.05,27.05,0,0,0-12.282-.143,43.5,43.5,0,0,0-4.289,1.43,17.072,17.072,0,0,1,4.289-1.7,26.465,26.465,0,0,1,12.468-.086,51.129,51.129,0,0,1,16.915,7.549c5.919,3.7,12,8.464,19.188,11.967a42.594,42.594,0,0,0,11.009,3.66,26.308,26.308,0,0,0,10.709-.315,42.763,42.763,0,0,0,9.079-3.689c2.745-1.43,5.29-2.86,7.721-3.86a28.1,28.1,0,0,1,6.82-2.173,13.255,13.255,0,0,1,5.4.2,13.6,13.6,0,0,1,3.146,1.315,10.007,10.007,0,0,1,.915.586Z" transform="translate(-59.041 -163.451)" fill="#fafafa"/>
        <path id="Path_3246" data-name="Path 3246" d="M214.8,472.925l3.975,1.987h22.877l4.618-3.775L229.623,443.6c-2.045.9-11.024,2.3-13.926,3.317a23.294,23.294,0,0,1-7.792,1.315,42.4,42.4,0,0,1-8.822-.729l-.629-.2a3.161,3.161,0,0,0-1.23-.257c-2.474-.214-4.432,2.373-3.045,4.418s8.15,4.776,16.786,4.532h.415c7.578,0,.629,6.348-3.875,10.123a5.977,5.977,0,0,0-2.173,5.419,2.545,2.545,0,0,0,1.015,1.859C208.262,474.612,214.8,472.925,214.8,472.925Z" transform="translate(-35.442 -112.906)" fill="#ffbe9d"/>
        <path id="Path_3247" data-name="Path 3247" d="M143.213,508.7a1.758,1.758,0,0,1,0-.4v-1.187c0-1.1.086-2.631.157-4.561.172-4,.4-9.708.7-16.743.586-14.184,1.43-33.686,2.3-55.233s1.43-41.121,1.83-55.262c.157-7.035.272-12.74.357-16.757,0-1.93.071-3.46.1-4.561v-1.172a1.587,1.587,0,0,1,0-.415,1.344,1.344,0,0,1,0,.415v5.733c0,3.961,0,9.68-.114,16.757-.2,14.155-.772,33.7-1.616,55.29s-1.773,41.107-2.516,55.233c-.4,7.02-.715,12.725-.944,16.729-.129,1.93-.229,3.46-.3,4.547l-.1,1.187A1.9,1.9,0,0,1,143.213,508.7Z" transform="translate(-57.21 -152.099)" fill="#263238"/>
        <path id="Path_3248" data-name="Path 3248" d="M187.182,525.653a2.131,2.131,0,0,1,0-.529c0-.386-.071-.9-.129-1.558l-.415-6.019c-.172-2.6-.386-5.8-.5-9.522s-.386-7.935-.415-12.611-.2-9.808-.129-15.313v-8.579c0-2.988.129-5.948.2-9.036.357-12.368,1-25.951,2-40.192,2-28.5,4.547-54.218,6.177-72.848.8-9.294,1.43-16.814,1.916-22.076.214-2.559.4-4.575.515-5.991.071-.658.114-1.172.157-1.558s.072-.529.072-.529a2.433,2.433,0,0,1,0,.529l-.072,1.573q-.15,2.145-.386,6.005c-.329,5.219-.915,12.768-1.673,22.09-1.5,18.587-3.961,44.324-5.962,72.848-1,14.3-1.659,27.81-2.059,40.163,0,3.088-.157,6.105-.229,9.036s0,5.719-.1,8.579c-.086,5.49,0,10.609,0,15.285s.214,8.908.3,12.611.243,6.92.372,9.522.214,4.6.286,6.019v1.573a2.5,2.5,0,0,1,.072.529Z" transform="translate(-38.94 -166.334)" fill="#263238"/>
        <path id="Path_3249" data-name="Path 3249" d="M194.6,365.14c-.072-.071.729-.4,1.616.357a2.062,2.062,0,1,1-3.131.529c.586-1.015,1.43-.958,1.43-.858s-.615.243-.944,1.087a1.687,1.687,0,0,0,0,1.43,1.516,1.516,0,0,0,2.631-.443,1.716,1.716,0,0,0-.4-1.33C195.255,365.183,194.6,365.268,194.6,365.14Z" transform="translate(-35.832 -146.685)" fill="#263238"/>
        <path id="Path_3250" data-name="Path 3250" d="M191.784,410.041c-.072-.071.743-.415,1.63.357a2.1,2.1,0,0,1,.686,1.8,2,2,0,0,1-1.73,1.644,2.045,2.045,0,0,1-2.173-.987,2.159,2.159,0,0,1,.086-1.944c.586-1.015,1.43-.944,1.43-.858a2.475,2.475,0,0,0-.944,1.087,1.63,1.63,0,0,0,0,1.43,1.43,1.43,0,0,0,2.617-.443,1.63,1.63,0,0,0-.4-1.315C192.456,410.041,191.784,410.141,191.784,410.041Z" transform="translate(-37.037 -127.389)" fill="#263238"/>
        <path id="Path_3251" data-name="Path 3251" d="M272.572,451.023a9.468,9.468,0,0,1-1.916-.243,26.187,26.187,0,0,1-5.033-1.616,28.138,28.138,0,0,1-12.868-11.51,44.478,44.478,0,0,1-3.56-8.908,26.451,26.451,0,0,0-3.16-7.006,13.054,13.054,0,0,0-3.632-3.632c-1.044-.643-1.7-.858-1.673-.929a1.6,1.6,0,0,1,.486.114,7.782,7.782,0,0,1,1.33.572,12.01,12.01,0,0,1,3.918,3.574,26,26,0,0,1,3.389,7.149,45.756,45.756,0,0,0,3.546,8.75,28.71,28.71,0,0,0,12.453,11.438,45.474,45.474,0,0,0,6.72,2.245Z" transform="translate(-15.236 -124.262)" fill="#fafafa"/>
      </g>
      <g id="freepik--character-2--inject-181" transform="translate(135.202 245.45)">
        <path id="Path_3252" data-name="Path 3252" d="M444.712,530.337l-24.307-70.546L431.643,392.1c3.274-18.258,5.1-34.315.2-43.509C418.732,324.1,402.9,321.9,381.286,316.282c-4.461-1.158-38.39-2.3-42.122-1.43-29.44,3.3-48.284,18.916-58.622,44.324l-11.21,45.182-15.4,47.183a20.2,20.2,0,0,1-13.569,11.052L181,482.882l.5,11.624-.5,15.728,79.068-14.884c15.842-2.974,31.956-8.822,36.5-24.106l8.507-25.193c4.161,10.666,8.693,20.446,8.693,20.446l-5.719,63.526Z" transform="translate(-130.214 -180.72)" fill="#455a64"/>
        <path id="Path_3253" data-name="Path 3253" d="M397.309,394.308l-22.591,75.536a36.46,36.46,0,0,1-24.307,24.421l-94.023,25.05L243.92,486.859l84.987-31.6,20.861-75.636s4.818-42.293,43.065-40.12" transform="translate(-103.171 -170.027)" fill="#455a64"/>
        <path id="Path_3254" data-name="Path 3254" d="M392.974,339.491H391.83c-.758,0-1.873-.086-3.346,0a37.361,37.361,0,0,0-12.568,2.559,33.786,33.786,0,0,0-8.107,4.547,39.247,39.247,0,0,0-7.735,7.921,57.507,57.507,0,0,0-9.908,25.064h0c-5.719,21.047-12.868,46.812-20.775,75.679v.172h-.157L244.189,487.19l.214-.472,2.216,5.719c3.5,9.151,6.963,18.158,10.237,26.694l-.443-.229L337.2,497.456l9.108-2.431c1.43-.4,2.988-.772,4.447-1.2a38.051,38.051,0,0,0,4.2-1.6,35.945,35.945,0,0,0,17.773-17.586,50.55,50.55,0,0,0,2.659-7.464q2.259-7.492,4.289-14.3c5.5-18.216,9.923-32.885,12.968-42.894l3.532-11.581.929-2.988c.214-.672.343-1.015.343-1.015s-.086.357-.272,1.029-.486,1.7-.872,3.017c-.786,2.674-1.93,6.577-3.4,11.624L380.148,453.06q-2.016,6.849-4.289,14.3a50.578,50.578,0,0,1-2.659,7.549,36.535,36.535,0,0,1-4.289,7.149,36.917,36.917,0,0,1-13.7,10.838,41.31,41.31,0,0,1-4.289,1.644c-1.43.429-2.96.8-4.461,1.215l-9.108,2.431-80.769,21.561-.315.086-.114-.3c-3.274-8.579-6.749-17.558-10.252-26.694l-2.216-5.719-.129-.343.343-.129,85-31.57-.214.229c7.993-28.839,15.127-54.6,20.947-75.622h0a57.477,57.477,0,0,1,10.094-25.236,38.819,38.819,0,0,1,7.85-7.964,33.988,33.988,0,0,1,8.207-4.532,36.218,36.218,0,0,1,12.668-2.445,30.138,30.138,0,0,1,3.346,0Z" transform="translate(-103.325 -170.015)" fill="#263238"/>
        <path id="Path_3255" data-name="Path 3255" d="M312.6,413.771a3.96,3.96,0,0,1-1.13.086,13.97,13.97,0,0,1-3.045-.357,19.874,19.874,0,0,1-8.922-4.7,21.762,21.762,0,0,1-5.8-8.25,11.438,11.438,0,0,1-.558-1.673,8.25,8.25,0,0,1-.286-1.287c-.114-.715-.157-1.115-.1-1.115a37.008,37.008,0,0,0,1.43,3.86,23.649,23.649,0,0,0,5.8,7.907,21.3,21.3,0,0,0,8.579,4.747C311,413.642,312.6,413.613,312.6,413.771Z" transform="translate(-82.191 -145.509)" fill="#263238"/>
        <path id="Path_3256" data-name="Path 3256" d="M270.164,368.39a12.726,12.726,0,0,1-.786,2.216c-.558,1.43-1.43,3.446-2.331,5.991-1.859,5.047-4.475,12.211-4.747,20.446a34.044,34.044,0,0,0,1.559,11.438,40.949,40.949,0,0,0,3.875,8.579,58.117,58.117,0,0,0,3.56,5.3,17.882,17.882,0,0,1,1.43,1.916,4.239,4.239,0,0,1-.458-.429c-.286-.3-.672-.715-1.158-1.3a43.7,43.7,0,0,1-3.8-5.219,40.7,40.7,0,0,1-4.075-8.679,34.316,34.316,0,0,1-1.644-11.624,61.551,61.551,0,0,1,4.961-20.618c1.015-2.516,1.93-4.518,2.559-5.905a15.1,15.1,0,0,1,1.058-2.116Z" transform="translate(-95.586 -157.578)" fill="#263238"/>
        <path id="Path_3257" data-name="Path 3257" d="M311.766,430.542a28.069,28.069,0,0,0-3.46-5.862,27.681,27.681,0,0,0-5.276-4.289,4.161,4.161,0,0,1,1.945.672,13.654,13.654,0,0,1,6.405,7.435,4.29,4.29,0,0,1,.386,2.045Z" transform="translate(-77.765 -135.228)" fill="#263238"/>
        <path id="Path_3258" data-name="Path 3258" d="M253.1,445.7s-26.894,2.4-26.523,19.874l33.486-1.7Z" transform="translate(-110.625 -124.35)" fill="#b78876"/>
        <path id="Path_3259" data-name="Path 3259" d="M278.594,244.007q-3.689,17.844-7.035,35.745c-2.86,15.127-5.433,30.941-1.158,45.754,2.345,8.121,6.663,15.5,10.938,22.791,2.4,4.089,5.033,8.407,9.294,10.523,5.791,2.86,13.111.6,17.729-3.932s6.949-10.852,8.579-17.158c3.1-12.21,3.789-24.893,4.289-37.489s.758-25.665-2.86-37.875-11.538-23.763-23.334-28.6" transform="translate(-92.763 -215.437)" fill="#263238"/>
        <path id="Path_3260" data-name="Path 3260" d="M276.81,239.512a20.846,20.846,0,0,1,11.71-4.361c3.432-6.949,11.567-10.137,19.174-11.61,11.21-2.188,10.009-2.488,20.432,2.116s25.265,17.615,27.166,28.882a102.818,102.818,0,0,0,9.394,28.424c2.859,5.934,8.436,10.009,11.739,15.728a23.449,23.449,0,0,1,1.358,20.589c-2.688,6.448-8.393,12.139-7.85,19.088.3,4.046.157,6.935,1.759,10.666,5.419,12.639,2.86,29.482-8.779,36.774s-28.482,4.747-37.475-5.719c-7.807-9.036-9.308-21.933-8.579-33.858s3.474-23.778,2.7-35.745" transform="translate(-89.035 -220.493)" fill="#263238"/>
        <path id="Path_3261" data-name="Path 3261" d="M346.61,492.128l-.172-4.118-60.623-6.391-26.566-76.365L145.48,402.68,179.9,492.128Q264.268,492.772,346.61,492.128Z" transform="translate(-145.48 -142.84)" fill="#263238"/>
        <path id="Path_3262" data-name="Path 3262" d="M189.869,437.5a5.948,5.948,0,1,0,2.188-8.121A5.948,5.948,0,0,0,189.869,437.5Z" transform="translate(-126.743 -131.706)" fill="#fff"/>
        <path id="Path_3263" data-name="Path 3263" d="M319.975,378.607c13.64,0,25.908-11.624,25.508-28.9l2.459-98.656h0a8.236,8.236,0,0,0-7.378-8.364L299.915,238.4a24.764,24.764,0,0,0-27.309,23.077c-.972,15.613-1.558,34.73.286,46.383,3.717,23.434,21.69,26.423,21.69,26.423l-.443,16.371c-.686,17.444,12.368,27.938,25.836,27.938Z" transform="translate(-91.236 -213.505)" fill="#b78876"/>
        <path id="Path_3264" data-name="Path 3264" d="M278.69,264.215a3,3,0,0,0,2.86,3.031,2.86,2.86,0,0,0,3.088-2.7,2.988,2.988,0,0,0-2.86-3.031,2.86,2.86,0,0,0-3.088,2.7Z" transform="translate(-88.227 -203.517)" fill="#263238"/>
        <path id="Path_3265" data-name="Path 3265" d="M275.243,262.4c.372.386,2.659-1.287,5.891-1.287s5.6,1.63,5.948,1.23c.172-.172-.2-.872-1.23-1.63a8.307,8.307,0,0,0-4.776-1.43A7.921,7.921,0,0,0,276.4,260.8C275.4,261.511,275.071,262.226,275.243,262.4Z" transform="translate(-89.727 -204.473)" fill="#263238"/>
        <path id="Path_3266" data-name="Path 3266" d="M300.53,264.636a2.988,2.988,0,0,0,2.86,3.031,2.86,2.86,0,0,0,3.1-2.7,3,3,0,0,0-2.86-3.031,2.86,2.86,0,0,0-3.1,2.7Z" transform="translate(-78.84 -203.337)" fill="#263238"/>
        <path id="Path_3267" data-name="Path 3267" d="M297.485,262.817c.372.4,2.645-1.287,5.876-1.287s5.6,1.63,5.962,1.23c.172-.172-.2-.872-1.244-1.63a8.321,8.321,0,0,0-4.761-1.43,7.964,7.964,0,0,0-4.69,1.516C297.642,261.931,297.3,262.646,297.485,262.817Z" transform="translate(-80.17 -204.293)" fill="#263238"/>
        <path id="Path_3268" data-name="Path 3268" d="M291.725,286.762a21.45,21.45,0,0,0-5.247-.944c-.829-.086-1.616-.257-1.759-.815a4.29,4.29,0,0,1,.558-2.459c.772-1.987,1.587-4.089,2.445-6.277,3.389-8.965,5.848-16.328,5.476-16.457s-3.4,7.02-6.792,15.971c-.815,2.216-1.6,4.289-2.345,6.334a4.861,4.861,0,0,0-.429,3.231,2.1,2.1,0,0,0,1.358,1.215,5.35,5.35,0,0,0,1.43.186,20.59,20.59,0,0,0,5.3.014Z" transform="translate(-86.148 -204.246)" fill="#263238"/>
        <path id="Path_3269" data-name="Path 3269" d="M287.7,307.949a59.623,59.623,0,0,0,31.384-8.379s-7.621,16.1-31.069,13.912Z" transform="translate(-84.354 -187.156)" fill="#aa6550"/>
        <path id="Path_3270" data-name="Path 3270" d="M290.333,284.772a5.719,5.719,0,0,1,5.219-2.159,5.348,5.348,0,0,1,3.675,1.959,3.374,3.374,0,0,1,.257,3.86,3.9,3.9,0,0,1-4.289,1.072,12.44,12.44,0,0,1-4.132-2.459,3.632,3.632,0,0,1-.915-.958,1.072,1.072,0,0,1,0-1.215" transform="translate(-83.384 -194.463)" fill="#aa6550"/>
        <path id="Path_3271" data-name="Path 3271" d="M299.019,280.22c-.529,0-.543,3.489-3.546,5.977s-6.734,2.1-6.763,2.6c0,.214.829.672,2.416.715a8.765,8.765,0,0,0,5.719-1.959,7.606,7.606,0,0,0,2.731-5.019C299.648,281.078,299.248,280.206,299.019,280.22Z" transform="translate(-83.92 -195.473)" fill="#263238"/>
        <path id="Path_3272" data-name="Path 3272" d="M296.455,258.65c.315.886,3.546.472,7.349.929s6.863,1.43,7.363.7c.229-.386-.315-1.2-1.544-2.059a12.3,12.3,0,0,0-5.462-1.916,12.468,12.468,0,0,0-5.719.672C297.026,257.549,296.326,258.235,296.455,258.65Z" transform="translate(-80.598 -205.787)" fill="#263238"/>
        <path id="Path_3273" data-name="Path 3273" d="M276.084,255.9c.572.743,2.86,0,5.49,0s4.947.486,5.462-.272c.229-.372-.129-1.115-1.115-1.8a7.878,7.878,0,0,0-8.822.272C276.155,254.784,275.841,255.542,276.084,255.9Z" transform="translate(-89.381 -207.341)" fill="#263238"/>
        <path id="Path_3274" data-name="Path 3274" d="M272.67,262.632c8.822-5.119,17.415-9.851,22.877-18.43,3.045,8.579,8.993,12.868,16.886,17.429s16.714,7.235,25.45,9.851c-4.418,4.289-5,11.224-3.989,17.3s3.346,11.924,3.732,18.073c.5,8.207-2.5,16.257-2.688,24.478-.257,11.281,4.718,21.933,9.594,32.1l21.175-12.339-3.045-54.976.257-38.9L329.9,226.53,288.1,231.105Z" transform="translate(-90.814 -218.549)" fill="#263238"/>
        <path id="Path_3275" data-name="Path 3275" d="M271.322,380.631c10.738,10.852,9.594,30.2,21.447,39.906,7.235,5.948,17.8,6.506,26.68,3.5s16.343-9.079,23.191-15.485,13.326-13.283,21.118-18.473c7.564-5.047,20.518-8.15,22.348-17.072,1.344-6.52-5.519-14.369-6.806-20.9-2.045-10.38,9.179-18.4,11.052-28.81,3.746-20.8-7.235-45.224-18.673-62.911s-17.9-37.718-46.9-39.362c-25.951-1.158-43.623,11.3-52.259,29.311-4.289,9.022-5.333,19.231-6.177,29.211-1.959,23.306-3.046,48.013,7.721,68.773,2.23,4.289,4.89,9.751,1.887,13.554-2.745,3.474-8.965,3.331-10.709,7.406S268.091,377.356,271.322,380.631Zm32.342-138.161c3.474-.143,13.783,0,25.279,15.313,6.877,9.165,6.863,24.006,6.72,36.946-.129,9.623,0,33.972,0,33.972s1.516,30.755-8.936,33.472c-12.868,3.346-24.063,1.044-33.657-8.093s-15.084-21.962-17.272-35.03-3.417-26.394-1.7-39.534a55.361,55.361,0,0,1,7.807-22.748A31.813,31.813,0,0,1,303.664,242.469Z" transform="translate(-94.17 -220.948)" fill="#e61030"/>
        <g id="Group_310" data-name="Group 310" transform="translate(218.158 124.824)" opacity="0.3">
          <path id="Path_3276" data-name="Path 3276" d="M369.55,325.436c-8.579,4.661-14.512,11.6-21.447,18.43S333.319,357.321,323.8,359.78s-20.975-.472-25.736-9.036c26.837,4.575,57.993-16.857,67.2-42.494a14.927,14.927,0,0,0-.086,6.792A90.845,90.845,0,0,0,369.55,325.436Z" transform="translate(-298.06 -308.25)"/>
        </g>
        <g id="Group_311" data-name="Group 311" transform="translate(181.541 134.933)" opacity="0.3">
          <path id="Path_3277" data-name="Path 3277" d="M273.851,315.32a26.38,26.38,0,0,0,12.968,16.385,17.156,17.156,0,0,1,4.089,2.416,3.975,3.975,0,0,1,1.244,4.289,3.86,3.86,0,0,1-4.6,1.687,11.438,11.438,0,0,1-4.289-3.031c-4.675-4.518-9.494-9.094-10.809-15.442a7.535,7.535,0,0,0,1.544-3.188,14.4,14.4,0,0,0-.143-3.117Z" transform="translate(-272.45 -315.32)"/>
        </g>
        <path id="Path_3278" data-name="Path 3278" d="M366.452,311.8a3.634,3.634,0,0,1-.4.829c-.3.529-.686,1.344-1.3,2.316a78.994,78.994,0,0,1-5.548,8.035,86.5,86.5,0,0,1-9.794,10.681,60.052,60.052,0,0,1-14.584,10.109,67.881,67.881,0,0,1-8.665,3.1,66.27,66.27,0,0,1-8.379,1.859,58.538,58.538,0,0,1-14.484.543,50.16,50.16,0,0,1-9.594-1.83c-1.115-.3-1.944-.643-2.516-.844a3.616,3.616,0,0,1-.858-.357s1.23.343,3.46.915a53.591,53.591,0,0,0,9.565,1.587,60.139,60.139,0,0,0,14.3-.686,66.861,66.861,0,0,0,8.264-1.887A68.622,68.622,0,0,0,334.5,343.1a60.98,60.98,0,0,0,14.427-10.009,90.457,90.457,0,0,0,9.837-10.495,92.24,92.24,0,0,0,5.719-7.864c.643-.944,1.072-1.73,1.43-2.23A5.919,5.919,0,0,1,366.452,311.8Z" transform="translate(-83.224 -181.9)" fill="#263238"/>
        <path id="Path_3279" data-name="Path 3279" d="M307.993,336.625a6.677,6.677,0,0,1-1.7.443,26.765,26.765,0,0,1-4.776.429,29.339,29.339,0,0,1-26.022-15.6,26.325,26.325,0,0,1-1.873-4.432,6.759,6.759,0,0,1-.4-1.716,61.762,61.762,0,0,0,2.745,5.891A30.026,30.026,0,0,0,301.5,336.968C305.519,337.083,307.978,336.468,307.993,336.625Z" transform="translate(-90.578 -180.202)" fill="#263238"/>
        <path id="Path_3280" data-name="Path 3280" d="M293.65,368.69a3.062,3.062,0,0,1,.829-.215c.543-.129,1.43-.243,2.4-.5a75.641,75.641,0,0,0,8.679-2.416,99,99,0,0,0,26.122-13.969A216.571,216.571,0,0,0,354.2,332.13l6.491-6.291c.715-.7,1.315-1.258,1.773-1.7a4.059,4.059,0,0,1,.658-.558,4.285,4.285,0,0,1-.543.658l-1.687,1.8c-1.43,1.544-3.617,3.76-6.32,6.463a195.2,195.2,0,0,1-22.448,19.7,94.81,94.81,0,0,1-26.394,13.855,64.708,64.708,0,0,1-8.793,2.2c-1.044.214-1.887.286-2.445.357A3.417,3.417,0,0,1,293.65,368.69Z" transform="translate(-81.797 -176.837)" fill="#263238"/>
      </g>
      <g id="freepik--character-3--inject-181" transform="translate(568.42 235.045)">
        <path id="Path_3281" data-name="Path 3281" d="M730.625,403.651l-50.443-59.48-.114.114c-1.987-1.959-3.732-3.7-4.618-4.718-17.472-20.246-31.355-27.166-58.107-27.538h0l-51.987,1.115c-9.665.8-31.6-3.331-51.887,23.563h0c-36.96,46.311-66.6,85.7-64.927,104.289,2.1,23.52,91.807,90.578,91.807,90.578l123.306-.1-.257-9.394,53.2-34.53c19.188-12.968,29.211-24.307,31.641-41.464C750.37,430.818,740.905,415.09,730.625,403.651Zm-225.908,35.4c0-3.617,19.445-26.423,30.026-38.6l5.5,52.659-.944,20.575Zm156.434,32.414-2.931-69.4h0l40.206,41.593Z" transform="translate(-448.473 -171.396)" fill="#455a64"/>
        <rect id="Rectangle_467" data-name="Rectangle 467" width="111.453" height="76.28" rx="3.42" transform="matrix(0.896, -0.443, 0.443, 0.896, 40.095, 308.537)" fill="#e0e0e0"/>
        <path id="Path_3282" data-name="Path 3282" d="M523.812,432.439a5.648,5.648,0,1,1-1.873,7.764A5.648,5.648,0,0,1,523.812,432.439Z" transform="translate(-417.254 -120.001)" fill="#fff"/>
        <path id="Path_3283" data-name="Path 3283" d="M594.73,340.46a1.912,1.912,0,0,1,0,.458v6.434c0,4.49.086,10.9.143,18.8.086,15.871.7,37.775,1.93,61.967s2.488,46.082,3.16,61.939c.343,7.921.572,14.3.7,18.788,0,2.173.086,3.889.115,5.1v1.33a2.256,2.256,0,0,1,0,.457,2.347,2.347,0,0,1,0-.457,8.128,8.128,0,0,0-.086-1.33c0-1.215-.157-2.86-.257-5.1-.229-4.475-.558-10.881-.944-18.759-.872-15.9-2.059-37.775-3.374-61.939s-1.773-46.125-1.716-62c0-7.892,0-14.3.1-18.8,0-2.173,0-3.889.072-5.1v-1.33A2.868,2.868,0,0,1,594.73,340.46Z" transform="translate(-385.755 -159.177)" fill="#263238"/>
        <path id="Path_3284" data-name="Path 3284" d="M527.873,319.6c6.577-4.79,14.226-3.346,20.818,1.43S558.942,333.9,559.6,342s-1.43,16.228-4.5,23.749c-4.961,12.053-12.3,21.8-23.263,34.215l-28.253,37.1,54.547,53.246-22.605,35.659-45.668-36.76c-15.6-13.168-28.868-26.637-38.6-40.563" transform="translate(-447.279 -169.412)" fill="#455a64"/>
        <path id="Path_3285" data-name="Path 3285" d="M451.24,448.738l.329.429.958,1.287c.844,1.13,2.1,2.86,3.8,4.947a198.733,198.733,0,0,0,15.728,17.429q5.362,5.34,12.2,11.438c4.547,4.061,9.665,8.078,15.1,12.439l36.317,29.139-.5.086c7.02-11.081,14.641-23.12,22.577-35.673v.458l-28.138-27.452-26.394-25.736-.229-.214.186-.257c10.009-13.083,19.474-25.522,28.281-37.089h0a184.85,184.85,0,0,0,14.941-18.759,85.347,85.347,0,0,0,9.823-19.288,48.842,48.842,0,0,0,3.2-18.988,31.254,31.254,0,0,0-4.818-15.356,24.85,24.85,0,0,0-9.694-8.693,18,18,0,0,0-9.422-2.087,14.526,14.526,0,0,0-5.791,1.716c-1.23.658-1.8,1.1-1.816,1.072l.429-.329a10.714,10.714,0,0,1,1.33-.844,14.526,14.526,0,0,1,5.833-1.83,18.073,18.073,0,0,1,9.58,2.03,24.849,24.849,0,0,1,9.88,8.736,31.626,31.626,0,0,1,4.976,15.585,49.456,49.456,0,0,1-3.031,18.973,85.617,85.617,0,0,1-9.837,19.459,186.036,186.036,0,0,1-14.941,18.845h0c-8.807,11.567-18.287,24.021-28.238,37.175V436.9l26.408,25.736L558.389,490.1l.214.214-.157.243c-7.95,12.554-15.585,24.578-22.62,35.645l-.2.329-.3-.243-36.245-29.239c-5.419-4.375-10.566-8.436-15.07-12.5s-8.579-7.878-12.168-11.438a192.681,192.681,0,0,1-15.656-17.6c-1.673-2.145-2.86-3.86-3.718-5.019-.4-.558-.7-1-.915-1.315S451.24,448.738,451.24,448.738Z" transform="translate(-447.283 -169.456)" fill="#263238"/>
        <path id="Path_3286" data-name="Path 3286" d="M642.871,404.167a21.2,21.2,0,0,1-2.86-.886,19.774,19.774,0,0,0-13.912.729,22.877,22.877,0,0,1-2.76,1.187,8.41,8.41,0,0,1,2.531-1.673,17.672,17.672,0,0,1,14.3-.743A8.677,8.677,0,0,1,642.871,404.167Z" transform="translate(-373.315 -132.893)" fill="#263238"/>
        <path id="Path_3287" data-name="Path 3287" d="M543.184,470.532l-9.923,4.933a13.983,13.983,0,0,1-15.07-1.687L512,468.73l17.158-26.98c2.016.872,10.309,2.045,13.168,3.06a22.875,22.875,0,0,0,7.707,1.287,42.646,42.646,0,0,0,8.736-.715c.186-.071.443-.129.615-.2a2.86,2.86,0,0,1,1.23-.214c2.445-.229,4.39,2.345,3.017,4.289s-8.064,4.718-16.614,4.475h-.4c-7.506,0-.615,6.277,3.832,10.009a5.891,5.891,0,0,1,2.145,5.362,2.488,2.488,0,0,1-1,1.844C549.647,472.2,543.184,470.532,543.184,470.532Z" transform="translate(-421.169 -115.643)" fill="#a36853"/>
        <path id="Path_3288" data-name="Path 3288" d="M558.058,370.086c-13.154,0-24.979-11.21-24.864-27.91l-2.373-95.1h.272a7.95,7.95,0,0,1,7.149-8.064l39.205-4.146a23.863,23.863,0,0,1,26.323,22.248c.944,15.056,1.516,33.486-.272,44.724-3.632,22.634-20.946,25.522-20.946,25.522l.415,15.728c.672,16.814-11.925,26.937-24.907,26.937Z" transform="translate(-413.08 -204.616)" fill="#a36853"/>
        <path id="Path_3289" data-name="Path 3289" d="M577.416,259.787a2.86,2.86,0,0,1-2.788,2.86,2.759,2.759,0,0,1-2.988-2.617,2.9,2.9,0,0,1,5.776-.243Z" transform="translate(-395.536 -194.975)" fill="#263238"/>
        <path id="Path_3290" data-name="Path 3290" d="M582.468,258.04c-.357.386-2.545-1.244-5.719-1.23s-5.39,1.558-5.719,1.187.2-.858,1.2-1.587a8.021,8.021,0,0,1,4.59-1.43,7.693,7.693,0,0,1,4.518,1.43C582.339,257.2,582.668,257.868,582.468,258.04Z" transform="translate(-395.84 -195.916)" fill="#263238"/>
        <path id="Path_3291" data-name="Path 3291" d="M556.388,260.188a2.965,2.965,0,1,1-2.988-2.617A2.86,2.86,0,0,1,556.388,260.188Z" transform="translate(-404.605 -194.804)" fill="#263238"/>
        <path id="Path_3292" data-name="Path 3292" d="M561.021,258.45c-.357.386-2.559-1.244-5.719-1.244s-5.4,1.573-5.719,1.187c-.172-.157.2-.844,1.2-1.573a7.907,7.907,0,0,1,4.59-1.43,7.693,7.693,0,0,1,4.518,1.43C560.877,257.592,561.206,258.278,561.021,258.45Z" transform="translate(-405.034 -195.74)" fill="#263238"/>
        <path id="Path_3293" data-name="Path 3293" d="M565.93,281.524a19.932,19.932,0,0,1,5.061-.915c.8-.086,1.558-.243,1.687-.786a4.06,4.06,0,0,0-.529-2.359c-.758-1.93-1.53-3.946-2.359-6.062-3.274-8.579-5.633-15.728-5.29-15.871s3.289,6.763,6.548,15.4c.8,2.13,1.544,4.161,2.259,6.105a4.576,4.576,0,0,1,.415,3.131,2.031,2.031,0,0,1-1.3,1.158,5.587,5.587,0,0,1-1.358.186,20.8,20.8,0,0,1-5.133.014Z" transform="translate(-398.619 -195.68)" fill="#263238"/>
        <path id="Path_3294" data-name="Path 3294" d="M576.1,301.948a57.564,57.564,0,0,1-30.269-8.078s7.835,17,30.44,14.884Z" transform="translate(-406.629 -179.201)" fill="#8f5039"/>
        <path id="Path_3295" data-name="Path 3295" d="M562.842,254.411c-.3.858-3.417.443-7.078.886s-6.62,1.43-7.149.686c-.229-.372.286-1.172,1.43-1.987a12.368,12.368,0,0,1,10.809-1.187C562.3,253.4,562.985,254.011,562.842,254.411Z" transform="translate(-405.454 -197.163)" fill="#263238"/>
        <path id="Path_3296" data-name="Path 3296" d="M581.4,251.762c-.543.715-2.7,0-5.276,0s-4.776.472-5.276-.272c-.229-.357.129-1.058,1.072-1.73a7.263,7.263,0,0,1,4.289-1.158,7.149,7.149,0,0,1,4.2,1.43C581.345,250.69,581.645,251.419,581.4,251.762Z" transform="translate(-395.904 -198.66)" fill="#263238"/>
        <path id="Path_3297" data-name="Path 3297" d="M536.063,277.739c3.846-.686,6.92.5,8.007,4.289,1.616,5.648.515,8.436.786,12.325l5.719-1.716c-1.43-13.025,1.816-22.662.4-35.745,7.95,2.574,18.873-2.345,22.262-10.58a22.134,22.134,0,0,0,23.592,1.659,9.093,9.093,0,0,0,9.708,4.547c4.289-1.215,8.836-7.321,10.08-11.653,2.23-7.792,1.144-18.973-5.176-24.049s-18.988-3.86-23.906,2.588c-1.945,2.545-2.173,7.249-5.3,7.892-2.788.572-5.319-1.43-7.864-2.745-7.935-3.932-18.9,1.287-20.861,9.923-6.634-3.961-14.67-6.548-22.09-4.418s-13.34,10.366-10.809,17.658c1.044,3.06,3.4,5.719,3.66,8.908.5,6.22-6.963,11.853-4.575,17.615,1.33,3.231,5.233,4.661,6.992,7.678,1.973,3.374.743,7.635.915,11.538.257,6.52,3.6,16.171,9.851,18.03" transform="translate(-418.066 -213.671)" fill="#263238"/>
        <path id="Path_3298" data-name="Path 3298" d="M533.051,258.43a5.39,5.39,0,0,0-4.289,3.446,11.839,11.839,0,0,0-1.158,5.562,12.425,12.425,0,0,0,2.717,8.293,7.149,7.149,0,0,0,8.064,2.045" transform="translate(-414.467 -194.433)" fill="#a36853"/>
        <path id="Path_3299" data-name="Path 3299" d="M535.7,271.458a2.659,2.659,0,0,1-2.173-.086,4.648,4.648,0,0,1-1.959-1.43,5.319,5.319,0,0,1-1.044-2.86,5.391,5.391,0,0,1,.586-2.86,5.191,5.191,0,0,1,1.6-1.816c1.172-.772,2.088-.729,2.073-.643a12.88,12.88,0,0,0-1.744,1.072,4.99,4.99,0,0,0-1.773,4.289,4.489,4.489,0,0,0,2.474,3.789A13.173,13.173,0,0,0,535.7,271.458Z" transform="translate(-413.213 -193.02)" fill="#8f5039"/>
        <path id="Path_3300" data-name="Path 3300" d="M559.469,284.666c2.86,1.959,8.264.929,10.295-1.973A55.1,55.1,0,0,1,557.81,273.9S553.75,280.649,559.469,284.666Z" transform="translate(-402.081 -187.784)" fill="#fafafa"/>
        <path id="Path_3301" data-name="Path 3301" d="M567.183,286.535a12.727,12.727,0,0,0-3.632-.858,13.582,13.582,0,0,0-3.632.815,2.255,2.255,0,0,1,.858-.829,5.576,5.576,0,0,1,5.562,0C566.983,286.078,567.269,286.464,567.183,286.535Z" transform="translate(-400.573 -183.048)" fill="#aa6550"/>
      </g>
      <g id="freepik--character-4--inject-181" transform="translate(398.07 232.275)">
        <path id="Path_3302" data-name="Path 3302" d="M552.193,367.741A264.393,264.393,0,0,0,568.621,340c5.905-11.267,4.9-11.839,3.489-12.339-3.8-1.358-11.138,19.4-12.11,13.969s11.867-24.307,7.835-25.508c-5.262-1.63-12.539,20.26-13.283,22.062s-3.36.7-2.588-.886c1.1-2.273,12.053-26.566,6.892-28.21-2.86-.9-3.889,4.447-3.889,4.447s-8.579,23.52-11,22.662,2.145-14.856,4.018-19.46.472-7.335-2.2-6.534c-1.83.543-7.907,14.5-9.651,19.088s-6.32,17.3-9.093,9.079c0-.129-.1-.243-.157-.372-2.5-8.178-7.149-13.64-9.565-14.3s-4.175,2-3.174,4.289a2.861,2.861,0,0,0,.629,1.072c.129.143.257.357.386.515a42.892,42.892,0,0,1,3.489,8.036,23.29,23.29,0,0,1,1.244,7.721c0,3.045,1.43,11.91,1.315,14.1" transform="translate(-250.02 -169.933)" fill="#ffad9d"/>
        <path id="Path_3303" data-name="Path 3303" d="M599.09,354.555,564.5,423.185s-19.56-56.577-30.112-79.082c-4.018-8.579-12.082-14.527-19.817-18.473v-.157l-1.616-.643a81.894,81.894,0,0,0-17.386-6.019c-36.488-10.452-70.861-6.806-110.652,7.149,0,0-20.661,5.548-30.683,32.5-9.008,24.307-19.116,61.481-20.846,68.058-12.4,41.721,5.3,64.956,29.94,62.1,10.152-1.6,18.788-10.009,22.605-13.268L398.961,463.1l.286,9.48-14.627,58.55,149.757-.315-27.023-69.331,6.005-31.784,10.28,24.421a42.794,42.794,0,0,0,78.453,1.015l35.016-88.161Z" transform="translate(-329.33 -168.3)" fill="#e61030"/>
        <path id="Path_3304" data-name="Path 3304" d="M404.416,401.84a14.72,14.72,0,0,1-1.344,1.93c-.9,1.2-2.259,2.931-3.989,5-3.446,4.161-8.407,9.751-14.169,15.656s-11.252,10.981-15.37,14.484c-2.045,1.773-3.746,3.146-4.947,4.061a12.337,12.337,0,0,1-1.916,1.43,14.589,14.589,0,0,1,1.73-1.587c1.144-.987,2.788-2.431,4.79-4.289,4-3.617,9.422-8.736,15.17-14.627s10.781-11.438,14.3-15.47c1.787-2.03,3.188-3.7,4.161-4.847A13.582,13.582,0,0,1,404.416,401.84Z" transform="translate(-314.996 -130.026)" fill="#263238"/>
        <path id="Path_3305" data-name="Path 3305" d="M454.181,438.611a3.091,3.091,0,0,1,.072-.8c.114-.6.229-1.344.386-2.259l1.558-8.321c1.315-7.02,3.117-16.714,4.547-27.509q.543-4.046.972-7.878a41.919,41.919,0,0,0,.415-7.335,73.625,73.625,0,0,0-1.844-12.339c-.772-3.489-1.43-6.291-1.873-8.25-.2-.987-.315-1.759-.372-2.273a3.2,3.2,0,0,1,0-.815,3.105,3.105,0,0,1,.172.786c.1.515.272,1.273.515,2.245.472,1.93,1.258,4.7,2.1,8.193a69.39,69.39,0,0,1,2.016,12.425,44.07,44.07,0,0,1-.372,7.435c-.272,2.559-.6,5.2-.958,7.907-1.43,10.824-3.331,20.518-4.776,27.509-.743,3.417-1.344,6.22-1.787,8.279-.214.9-.386,1.644-.515,2.245A4.016,4.016,0,0,1,454.181,438.611Z" transform="translate(-275.671 -147.652)" fill="#263238"/>
        <path id="Path_3306" data-name="Path 3306" d="M491.68,406.751a96.942,96.942,0,0,1,3.1-16.671,48.855,48.855,0,0,1-1.215,8.464A49.636,49.636,0,0,1,491.68,406.751Z" transform="translate(-259.553 -135.08)" fill="#263238"/>
        <path id="Path_3307" data-name="Path 3307" d="M496.028,408.988a65.005,65.005,0,0,1-1.43-9.651,63.825,63.825,0,0,1-.758-9.737,65.019,65.019,0,0,1,1.43,9.651,63.824,63.824,0,0,1,.758,9.737Z" transform="translate(-258.624 -135.287)" fill="#263238"/>
        <path id="Path_3308" data-name="Path 3308" d="M418.222,496.144c-.2,0-.372-22.991-.372-51.33s.172-51.344.372-51.344.372,22.977.372,51.344S418.422,496.144,418.222,496.144Z" transform="translate(-291.285 -133.623)" fill="#263238"/>
        <g id="Group_312" data-name="Group 312" transform="translate(183.128 217.325)" opacity="0.2">
          <path id="Path_3309" data-name="Path 3309" d="M457.41,363.73c7.02,13.454,13.125,26.837,13.683,42.007.429,11.8-4.289,21.633.586,32.385-.243.186-4.4-9.079-6.248-13.426-3.789-8.951-7.149-16.943-7.149-16.943s2.6-20.2,2.86-23.649S457.41,363.73,457.41,363.73Z" transform="translate(-457.41 -363.73)"/>
        </g>
        <g id="Group_313" data-name="Group 313" transform="translate(7.42 214.336)" opacity="0.2">
          <path id="Path_3310" data-name="Path 3310" d="M336.465,432.987c0,6.749-4.189-15.528-.272-21,2.759-3.846,7.478-5.719,12.053-6.849s9.365-1.887,13.426-4.289c5.247-3.1,8.579-8.579,12.253-13.383s8.579-25.379,14.641-25.822v30.026a408.677,408.677,0,0,1-45.21,25.35,21.061,21.061,0,0,0-6.892,15.971Z" transform="translate(-334.52 -361.64)"/>
        </g>
        <g id="Group_314" data-name="Group 314" transform="translate(69.588 262.606)" opacity="0.2">
          <path id="Path_3311" data-name="Path 3311" d="M378,427.613c9.794-5.5,16.943-12.868,28.01-14.77,10.652-1.887,21.619,0,32.4-.743q-.872-8.164-1.787-16.357l-30.841-.343Z" transform="translate(-378 -395.4)"/>
        </g>
        <path id="Path_3312" data-name="Path 3312" d="M372.447,361.4c.2,0,.372,6.677.372,14.913s-.172,14.927-.372,14.927a146.771,146.771,0,0,1-.372-14.927,146.613,146.613,0,0,1,.372-14.913Z" transform="translate(-310.98 -147.407)" fill="#263238"/>
        <path id="Path_3313" data-name="Path 3313" d="M335.929,416.239a6.819,6.819,0,0,1-.172-2.659,18.874,18.874,0,0,1,1.516-6.248,18.588,18.588,0,0,1,3.5-5.376,7.15,7.15,0,0,1,2.03-1.716,34.456,34.456,0,0,0-4.847,7.392,32.428,32.428,0,0,0-2.03,8.607Z" transform="translate(-326.593 -130.714)" fill="#263238"/>
        <path id="Path_3314" data-name="Path 3314" d="M340.17,409.779a13.452,13.452,0,0,0,2.245-.815c1.43-.572,3.489-1.43,5.991-2.617a208.1,208.1,0,0,0,19.059-10.009c7.235-4.289,13.54-8.507,17.958-11.739,2.216-1.63,3.989-2.974,5.176-3.932a14.2,14.2,0,0,0,1.8-1.558,14.517,14.517,0,0,0-2,1.315l-5.3,3.717c-4.5,3.117-10.824,7.278-18.044,11.524s-13.969,7.707-18.9,10.123l-5.862,2.86A13.49,13.49,0,0,0,340.17,409.779Z" transform="translate(-324.671 -139.795)" fill="#263238"/>
        <path id="Path_3315" data-name="Path 3315" d="M520.4,297.645c-2.459-3.217-6.363-5.719-7.149-9.651-.987-5.276,4.289-10.223,3.331-15.513-.629-3.617-3.961-6.162-7.363-7.564s-7.149-2.073-10.266-3.946a20.746,20.746,0,0,1-8.193-10.094,34.535,34.535,0,0,1-1.215-3.474,36.866,36.866,0,0,0-1.73-7.421c-.129-.629-.243-1.258-.357-1.887l.157,1.43a15.029,15.029,0,0,0-1.859-3.346c-2.616-3.489-7.85-5.433-11.438-2.988l1.716-1.144a33.014,33.014,0,0,0-25.493-20.017,30.526,30.526,0,0,0-6.463-.214c-7.707-.4-18.845,1.844-23.549,4.833-6.005,3.8-12.153,9.022-15.17,15.47-1.616,3.474-2.717,7.492-5.719,9.808-4.089,3.088-9.823,1.887-14.927,2.459-8.407.958-15.728,7.406-18.587,15.37a30.641,30.641,0,0,0,2.345,24.55c.886,1.644,1.93,3.546,1.23,5.276a6.635,6.635,0,0,1-3.217,2.86,17.287,17.287,0,0,0-7.778,8.136c-1.43,3.56-.886,8.064,2,10.581a8.693,8.693,0,0,0,8.722,1.244,18.973,18.973,0,0,0-1.33,6.763,14.155,14.155,0,0,0,7.02,12.568c4.475,2.331,10.738,1.1,13.369-3.2a17.587,17.587,0,0,0,27.166,14.841c2.116-1.43,4.289-3.317,6.792-2.86s3.918,2.86,5.633,4.6c4.575,4.761,12.382,5.3,18.4,2.6s10.452-8.107,13.64-13.883a10.638,10.638,0,0,0,18.973-2.659,17.787,17.787,0,0,0,31.842-10.094,14.613,14.613,0,0,0,9.479-23.32ZM376.61,302.063v-.086l.143-.071Z" transform="translate(-317.03 -211.733)" fill="#263238"/>
        <path id="Path_3316" data-name="Path 3316" d="M453.463,329.414s18.316-3.031,22.1-26.923c1.887-11.882,1.287-31.355.286-47.269A25.236,25.236,0,0,0,448.03,231.7l-41.464,4.39a8.407,8.407,0,0,0-7.521,8.579l4.361,103.775c-3.017.643-9.866,2.13-13.226,3.1,0,0,32.056,71.647,39.906,70.818s39.219-68.63,39.219-68.63a163.878,163.878,0,0,0-16.614-4.075A197.612,197.612,0,0,1,453.463,329.414Z" transform="translate(-303.177 -203.21)" fill="#ffad9d"/>
        <path id="Path_3317" data-name="Path 3317" d="M445.455,258.042a3.06,3.06,0,0,1-2.945,3.088,2.86,2.86,0,0,1-3.16-2.76,3.06,3.06,0,0,1,2.945-3.088,2.931,2.931,0,0,1,3.16,2.759Z" transform="translate(-282.044 -193.02)" fill="#263238"/>
        <path id="Path_3318" data-name="Path 3318" d="M450.791,256.189c-.386.4-2.7-1.315-6.005-1.3s-5.719,1.659-6.062,1.258c-.186-.186.2-.9,1.258-1.673A8.579,8.579,0,0,1,444.857,253a8.121,8.121,0,0,1,4.776,1.544C450.577,255.288,450.977,256.017,450.791,256.189Z" transform="translate(-282.333 -193.997)" fill="#263238"/>
        <path id="Path_3319" data-name="Path 3319" d="M423.21,258.472a3.06,3.06,0,0,1-2.96,3.088,2.86,2.86,0,0,1-3.16-2.759,3.06,3.06,0,0,1,2.96-3.088,2.931,2.931,0,0,1,3.16,2.759Z" transform="translate(-291.611 -192.835)" fill="#263238"/>
        <path id="Path_3320" data-name="Path 3320" d="M428.119,256.627c-.372.4-2.7-1.315-5.991-1.3s-5.719,1.659-6.077,1.258c-.172-.186.214-.9,1.273-1.673a8.493,8.493,0,0,1,4.861-1.5,8.15,8.15,0,0,1,4.776,1.544C427.962,255.683,428.305,256.455,428.119,256.627Z" transform="translate(-292.074 -193.821)" fill="#263238"/>
        <path id="Path_3321" data-name="Path 3321" d="M433.312,281.017a21.588,21.588,0,0,1,5.362-.958c.829-.086,1.63-.257,1.773-.829a4.289,4.289,0,0,0-.558-2.5c-.8-2.03-1.616-4.175-2.488-6.405-3.46-9.122-5.962-16.629-5.591-16.772s3.46,7.149,6.92,16.285l2.388,6.448a4.8,4.8,0,0,1,.429,3.3,2.087,2.087,0,0,1-1.43,1.23,6.323,6.323,0,0,1-1.43.2,21.805,21.805,0,0,1-5.376,0Z" transform="translate(-285.3 -193.761)" fill="#263238"/>
        <path id="Path_3322" data-name="Path 3322" d="M444.055,302.579A60.739,60.739,0,0,1,412.07,294s7.764,16.4,31.67,14.169Z" transform="translate(-293.769 -176.375)" fill="#ed9482"/>
        <path id="Path_3323" data-name="Path 3323" d="M427.286,276.694a6.476,6.476,0,0,1,2.416-1.044,2.13,2.13,0,0,1,2.245,1.058,5.315,5.315,0,0,0,.343.829c.486.658,1.5.415,2.273.643a2.4,2.4,0,0,1,1.273,3.16,4.833,4.833,0,0,1-2.86,2.459,10.252,10.252,0,0,1-5.119.7,4.289,4.289,0,0,1-3.16-1.573,3.746,3.746,0,0,1,.243-4.089,10.91,10.91,0,0,1,3.274-2.859" transform="translate(-288.553 -184.277)" fill="#ed9482"/>
        <path id="Path_3324" data-name="Path 3324" d="M426.238,274.36c.529,0,.543,3.546,3.6,6.077s6.863,2.145,6.892,2.645c0,.229-.844.7-2.459.743a8.922,8.922,0,0,1-5.719-2,7.807,7.807,0,0,1-2.86-5.1C425.595,275.275,425.995,274.332,426.238,274.36Z" transform="translate(-287.92 -184.817)" fill="#263238"/>
        <path id="Path_3325" data-name="Path 3325" d="M430.04,252.372c-.329.886-3.617.472-7.478.929s-7.006,1.53-7.506.715c-.229-.372.315-1.215,1.573-2.088a13.14,13.14,0,0,1,11.438-1.258C429.468,251.243,430.183,251.944,430.04,252.372Z" transform="translate(-292.508 -195.328)" fill="#263238"/>
        <path id="Path_3326" data-name="Path 3326" d="M449.674,251.007c-.586.758-2.86,0-5.591,0s-5.033.5-5.562-.286c-.243-.372.129-1.13,1.13-1.83a8.093,8.093,0,0,1,8.993.272C449.617,249.906,449.931,250.678,449.674,251.007Z" transform="translate(-282.431 -196.293)" fill="#263238"/>
        <path id="Path_3327" data-name="Path 3327" d="M466.687,232.4a32.4,32.4,0,0,1-39.205,24.836A30.784,30.784,0,0,1,409.337,281.4a65.571,65.571,0,0,1,7.707,39.334c-.7,5.719-2.373,11.824-6.72,15.728-6.634,5.948-17.815,4.5-24.192-1.7-6.12-5.962-8.279-15.285-6.548-23.649s6.977-15.728,13.569-21.1a15.142,15.142,0,0,1-7.807-25.965c1.873-1.773,4.289-3.088,5.719-5.247s1.659-4.561,2.474-6.863c2.13-6.019,7.506-10.18,12.625-14.012,4.289-3.231,9.094-6.606,14.5-6.591,2.86,0,5.719,1,8.579.615,3.932-.529,7.006-3.517,10.252-5.719a22.333,22.333,0,0,1,15.728-4.289c5.533.872,10.695,5,11.739,10.495" transform="translate(-307.979 -207.402)" fill="#263238"/>
        <path id="Path_3328" data-name="Path 3328" d="M439.111,231.162c-.844,4.618,1.43,9.351,4.89,12.582s7.735,5.233,12.01,7.149a54.449,54.449,0,0,0-6.191-12.868,18.187,18.187,0,0,0-11.61-7.835" transform="translate(-282.534 -203.801)" fill="#263238"/>
        <path id="Path_3329" data-name="Path 3329" d="M365.41,289.678a3.16,3.16,0,0,1-.129-1.5,5.719,5.719,0,0,1,2.145-3.689,9.494,9.494,0,0,1,6.52-1.773c2.674,0,5.633.887,8.908.686a11.267,11.267,0,0,0,8.693-5.39,11.438,11.438,0,0,0,1.63-5.619c.143-2.045,0-4.189.071-6.42a11.61,11.61,0,0,1,2.087-6.534,13.569,13.569,0,0,1,5.719-4.289c4.5-2.045,9.637-2.073,14.555-2.988a21.147,21.147,0,0,0,6.949-2.431,18.589,18.589,0,0,0,5.162-4.9c2.788-3.832,4.661-8.107,7.22-11.753a24.607,24.607,0,0,1,28.939-9.365A24.306,24.306,0,0,1,469.9,226.9a18.975,18.975,0,0,1,4.218,3.975,1.774,1.774,0,0,1-.286-.257l-.786-.786a27.254,27.254,0,0,0-3.3-2.688,25.036,25.036,0,0,0-14.77-4.418,24.564,24.564,0,0,0-19.488,10.752c-2.5,3.574-4.361,7.85-7.149,11.8a19.059,19.059,0,0,1-5.376,5.09,21.445,21.445,0,0,1-7.149,2.531c-5.033.929-10.009.958-14.412,2.86a13.054,13.054,0,0,0-5.433,4.061,10.838,10.838,0,0,0-1.973,6.148c-.129,2.159,0,4.289-.1,6.42a12.2,12.2,0,0,1-1.759,5.905,11.753,11.753,0,0,1-9.179,5.576c-3.417.172-6.363-.715-8.979-.786a9.179,9.179,0,0,0-6.32,1.587,5.719,5.719,0,0,0-2.173,3.489,6.086,6.086,0,0,0-.071,1.53Z" transform="translate(-313.895 -207.241)" fill="#fafafa"/>
        <path id="Path_3330" data-name="Path 3330" d="M390.2,346.58l1.516,38.09,3.832,36.46,40.506-1.73-2.917-71.99Z" transform="translate(-303.169 -153.776)" fill="#263238"/>
        <path id="Path_3331" data-name="Path 3331" d="M386.04,346.49l1.516,38.219,3.832,36.46,40.506-1.73-2.917-72.1Z" transform="translate(-304.957 -153.815)" fill="#455a64"/>
        <path id="Path_3332" data-name="Path 3332" d="M386.93,418.681A264.232,264.232,0,0,0,419,415.25c12.554-2.016,12.425-3.146,11.982-4.59-1.2-3.86-22.219,2.688-18.444-1.344s26.551-5,25.122-8.979c-1.844-5.19-23.735,2.073-25.622,2.545s-2.574-2.259-.844-2.6c2.488-.486,28.5-6.234,26.723-11.353-.972-2.86-5.876-.458-5.876-.458s-23.992,7.149-24.75,4.761,13.2-7.149,18-8.436,6.162-4.018,3.918-5.719c-1.53-1.13-16.343,2.345-21.061,3.7s-17.644,5.276-12.725-1.873c.086-.114.143-.229.214-.343,5.047-6.892,6.634-13.883,5.719-16.228s-4.1-2.13-5.319,0a3.046,3.046,0,0,0-.486,1.144,2.83,2.83,0,0,1-.186.629,42.9,42.9,0,0,1-4.289,7.592,22.878,22.878,0,0,1-5.448,5.619c-2.445,1.787-8.579,8.336-10.509,9.494" transform="translate(-309.65 -146.867)" fill="#ffad9d"/>
        <path id="Path_3333" data-name="Path 3333" d="M381.063,379.48l21.418,31.97-35.3,36,1.2-58.393Z" transform="translate(-313.062 -139.636)" fill="#e61030"/>
      </g>
    </g>
    <path id="Path_3334" data-name="Path 3334" d="M445.191,397.22a54.53,54.53,0,1,1,54.529-54.53,54.53,54.53,0,0,1-54.529,54.53Zm0-105.3a50.769,50.769,0,1,0,50.769,50.769,50.769,50.769,0,0,0-50.769-50.769Z" transform="translate(1812.601 15630.27)" fill="#3f3d56"/>
    <path id="Path_3335" data-name="Path 3335" d="M457.965,363.9a5.388,5.388,0,0,1-5.389-5.38v-30.6a5.386,5.386,0,0,1,5.38-5.38h.01a5.386,5.386,0,0,1,5.38,5.38v30.6A5.386,5.386,0,0,1,457.965,363.9Zm-14.047,0a5.4,5.4,0,0,1-5.457-5.38V342.034a5.385,5.385,0,0,1,5.38-5.379h.077a5.385,5.385,0,0,1,5.38,5.379v16.481A5.386,5.386,0,0,1,443.918,363.9Zm-14.182,0a5.388,5.388,0,0,1-5.389-5.38V311.462a5.386,5.386,0,0,1,5.38-5.38h.01a5.386,5.386,0,0,1,5.38,5.38v47.053A5.386,5.386,0,0,1,429.736,363.9Zm-14.128,0a5.38,5.38,0,0,1-5.385-5.384l.006-7.067a5.379,5.379,0,1,1,10.759,0v7.066A5.386,5.386,0,0,1,415.608,363.9Z" transform="translate(1821.008 15637.954)" fill="#0065b3"/>
    <path id="Path_3336" data-name="Path 3336" d="M607.258,397.22a54.53,54.53,0,1,1,54.529-54.53A54.53,54.53,0,0,1,607.258,397.22Zm0-105.3a50.769,50.769,0,1,0,50.769,50.769,50.769,50.769,0,0,0-50.769-50.769Z" transform="translate(1882.257 15630.27)" fill="#3f3d56"/>
    <path id="Path_3337" data-name="Path 3337" d="M571.8,352.008a3.965,3.965,0,0,1-2.807-6.765l20.148-20.2a3.362,3.362,0,0,1,2.4-.995h0a3.364,3.364,0,0,1,2.394.991l9.344,9.344a2.017,2.017,0,0,0,1.437.6h0a2.016,2.016,0,0,0,1.437-.6l13.193-13.215a.677.677,0,0,0,0-.958l-4.268-4.261a2.032,2.032,0,0,1,1.435-3.47h15.161a2.034,2.034,0,0,1,2.032,2.032v15.152a2.032,2.032,0,0,1-3.469,1.437l-4.275-4.275a.677.677,0,0,0-.958,0l-17.865,17.853a3.364,3.364,0,0,1-2.394.992h0a3.364,3.364,0,0,1-2.394-.992L593,335.323a2.081,2.081,0,0,0-2.874,0L574.6,350.846A3.937,3.937,0,0,1,571.8,352.008Z" transform="translate(1888.748 15640.698)" fill="#0065b3"/>
    <path id="Path_3338" data-name="Path 3338" d="M1023.734,781.22a54.53,54.53,0,1,1,54.53-54.53A54.53,54.53,0,0,1,1023.734,781.22Zm0-105.3a50.769,50.769,0,1,0,50.769,50.769,50.769,50.769,0,0,0-50.769-50.769Z" transform="translate(1766.719 15256.927)" fill="#3f3d56"/>
    <path id="Path_3339" data-name="Path 3339" d="M1030.581,703.991l-10.631,16.255a5.759,5.759,0,0,1,1.313,3.682,5.849,5.849,0,0,1-11.7,0,6.881,6.881,0,0,1,.1-1.123l-7.017-4.086a5.827,5.827,0,0,1-6.938.876l-7.465,6.994v6.971a5.22,5.22,0,0,0,5.2,5.209h44.2a5.231,5.231,0,0,0,5.209-5.209V707.707l-7.14-4.749a5.872,5.872,0,0,1-5.13,1.033Z" transform="translate(1774.903 15270.163)" fill="#0065b3"/>
    <path id="Path_3340" data-name="Path 3340" d="M998.6,713.16a5.849,5.849,0,0,1,5.849,5.849h0v.752l7.32,4.1a5.838,5.838,0,0,1,3.7-1.325,6.457,6.457,0,0,1,1.269.135l10.654-16.491a5.827,5.827,0,1,1,10.575-3.368,6.192,6.192,0,0,1-.157,1.381l5.041,3.368V697.8a5.232,5.232,0,0,0-5.209-5.209h-44.2a5.22,5.22,0,0,0-5.2,5.209v27.942l4.872-4.67a5.838,5.838,0,0,1,5.478-7.858Z" transform="translate(1774.903 15265.709)" fill="#0065b3"/>
  </g>
</svg>
