<svg xmlns="http://www.w3.org/2000/svg" xmlns:xlink="http://www.w3.org/1999/xlink" width="240" height="240" viewBox="0 0 240 240">
  <defs>
    <linearGradient id="linear-gradient" x1="0.5" y1="1" x2="0.5" gradientUnits="objectBoundingBox">
      <stop offset="0" stop-color="gray" stop-opacity="0.251"/>
      <stop offset="0.54" stop-color="gray" stop-opacity="0.122"/>
      <stop offset="1" stop-color="gray" stop-opacity="0.102"/>
    </linearGradient>
  </defs>
  <g id="Group_23" data-name="Group 23" transform="translate(360 -1515)">
    <circle id="Ellipse_1" data-name="Ellipse 1" cx="120" cy="120" r="120" transform="translate(-360 1515)" fill="none"/>
    <g id="Group_15" data-name="Group 15" transform="translate(-333 1560)">
      <ellipse id="Ellipse_7" data-name="Ellipse 7" cx="91.895" cy="7.186" rx="91.895" ry="7.186" transform="translate(2.209 135.627)" fill="#e9be4e" stroke="#707070" stroke-width="1"/>
      <path id="Path_33" data-name="Path 33" d="M761.143,582.463l.861,6.322-6.029.575.861-7.759Z" transform="translate(-588.978 -453)" fill="#ffb9b9" stroke="#707070" stroke-width="1"/>
      <path id="Path_34" data-name="Path 34" d="M808.55,303.812s.574,7.759.574,8.047-4.019,20.116-4.019,20.116-5.742,10.92,0,10.633,4.019-10.346,4.019-10.346l6.029-16.668-2.584-11.782Z" transform="translate(-664.808 -261.137)" fill="#a0616a" stroke="#707070" stroke-width="1"/>
      <path id="Path_35" data-name="Path 35" d="M690.553,582.463l-.861,6.322,6.029.575-.861-7.759Z" transform="translate(-537.337 -453)" fill="#ffb9b9" stroke="#707070" stroke-width="1"/>
      <path id="Path_36" data-name="Path 36" d="M836.285,423.519l-1.435,2.012s-.861,8.621,0,11.5,2.584,16.093,2.584,16.955.287,1.437,0,1.724-1.148.287-.574.862.574,2.3.574,2.3V460.3l3.732,21.266s-2.3,2.586-.574,2.586,8.039,0,7.752-2.874l-.574-.287s-.861-18.967-.574-19.829a7.345,7.345,0,0,0,0-2.586s-.574-.862,0-1.15.574-2.586.574-2.586l2.584-17.53s2.3,11.782,3.732,12.932,1.149,4.023,1.149,4.023l1.148,25.289s-1.148,2.874,0,3.448,6.029,2.586,6.316-.287,1.723-27.876,1.723-29.025-.287-1.724,0-2.586-.287-.862,0-.862-.574-.862-.574-1.437V434.727a21.253,21.253,0,0,1,.574-3.449c.287-.575-.287-1.15,0-2.012s-.574-3.736-.574-3.736l-12.919-3.449Z" transform="translate(-689.673 -353.255)" fill="#0065b3"/>
      <path id="Path_37" data-name="Path 37" d="M859.416,714.645s1.435-1.437-.574-1.437a9.338,9.338,0,0,0-3.732.862l-1.435,5.173s-5.886,4.742.718,4.167,5.6-.144,5.6-.144,2.01-.575,2.3-1.149-.574-8.909-.574-8.909S860.852,715.507,859.416,714.645Z" transform="translate(-702.755 -580.008)" fill="#e61030"/>
      <path id="Path_38" data-name="Path 38" d="M930.8,714.645s-1.435-1.437.574-1.437a9.337,9.337,0,0,1,3.732.862l1.435,5.173s5.885,4.742-.718,4.167-6.46-.144-6.46-.144-2.01-.575-2.3-1.15,1.435-8.909,1.435-8.909S929.36,715.507,930.8,714.645Z" transform="translate(-761.789 -580.008)" fill="#e61030"/>
      <ellipse id="Ellipse_8" data-name="Ellipse 8" cx="7.465" cy="7.472" rx="7.465" ry="7.472" transform="translate(142.88 5.029)" fill="#ffb9b9" stroke="#707070" stroke-width="1"/>
      <path id="Path_39" data-name="Path 39" d="M847.9,181.918s1.148,5.748,1.148,6.61,4.881,3.449,4.881,3.449l5.455-6.9s-3.445-4.885-3.445-6.035Z" transform="translate(-700.136 -163.957)" fill="#ffb9b9"/>
      <path id="Path_40" data-name="Path 40" d="M827.9,204.639s-2.5-.667-3.261-1.77c0,0-7.936,7.805-7.936,9.242l6.316,11.208s0,4.023.574,4.311,0,0,0,1.15-1.723,8.621-1.148,9.771,1.148.287.574,2.012-2.01,10.92-2.01,10.92,5.168-1.724,12.632,1.149,16.365-1.149,16.365-1.149-2.3-5.173-1.723-6.9-1.436-4.885-1.436-4.885l-1.435-26.439s2.01-11.782.574-12.357l-2.871-1.15-9.194-1.131S831.634,204.352,827.9,204.639Z" transform="translate(-675.834 -179.206)" fill="#e9be4e"/>
      <path id="Path_41" data-name="Path 41" d="M817.326,250.526l-2.871,2.012s-1.436,4.311,0,6.322a14.746,14.746,0,0,1,2.01,4.885l5.742-.575Z" transform="translate(-673.584 -219.633)" fill="#e9be4e"/>
      <path id="Path_42" data-name="Path 42" d="M824.943,115.416l-1.295-.519a8.83,8.83,0,0,1,6.474-2.724l-1.059-1.167s2.59-1.038,4.944,1.686a23,23,0,0,1,3.562,5.011h1.387l-.579,1.276,2.026,1.276-2.079-.229a7.063,7.063,0,0,1-.2,3.3l.056,1.008s-2.41-3.732-2.41-4.251v1.3s-1.295-1.167-1.295-1.946l-.706.908-.353-1.427-4.355,1.427.706-1.167-2.707.389,1.059-1.427s-3.061,1.686-3.178,3.113A7.656,7.656,0,0,1,823.3,124.5l-.706-1.3S821.53,117.362,824.943,115.416Z" transform="translate(-680.297 -110.812)" fill="#2f2e41" stroke="#707070" stroke-width="1"/>
      <rect id="Rectangle_21" data-name="Rectangle 21" width="114.088" height="80.221" transform="translate(32.289 62.539)" fill="#f2f2f2" stroke="#707070" stroke-width="1"/>
      <rect id="Rectangle_22" data-name="Rectangle 22" width="28.646" height="50.055" transform="translate(41.893 93.147)" fill="#e61030" stroke="#707070" stroke-width="1"/>
      <rect id="Rectangle_23" data-name="Rectangle 23" width="7.716" height="7.2" transform="translate(47.192 96.149)" fill="#f2f2f2" stroke="#707070" stroke-width="1"/>
      <rect id="Rectangle_24" data-name="Rectangle 24" width="7.716" height="7.2" transform="translate(57.524 96.149)" fill="#f2f2f2" stroke="#707070" stroke-width="1"/>
      <rect id="Rectangle_25" data-name="Rectangle 25" width="7.716" height="7.462" transform="translate(47.192 105.968)" fill="#f2f2f2" stroke="#707070" stroke-width="1"/>
      <rect id="Rectangle_26" data-name="Rectangle 26" width="7.716" height="7.462" transform="translate(57.524 105.968)" fill="#f2f2f2" stroke="#707070" stroke-width="1"/>
      <ellipse id="Ellipse_9" data-name="Ellipse 9" cx="1.821" cy="1.823" rx="1.821" ry="1.823" transform="translate(65.075 119.721)" fill="#e9be4e" stroke="#707070" stroke-width="1"/>
      <rect id="Rectangle_27" data-name="Rectangle 27" width="56.63" height="47.569" transform="translate(80.143 88.395)" fill="#e61030" stroke="#707070" stroke-width="1"/>
      <path id="Path_43" data-name="Path 43" d="M230.131,215.544H92.2l9.2-19.246,2.058-4.309,2.693-5.635,2.058-4.309,2.386-4.992H219.264l1.409,4.992,1.217,4.309,1.591,5.635L224.7,196.3Z" transform="translate(-71.832 -137.902)" fill="#e61030" stroke="#707070" stroke-width="1"/>
      <rect id="Rectangle_28" data-name="Rectangle 28" width="1.987" height="12.265" transform="translate(82.13 108.119)" fill="#e9be4e" stroke="#707070" stroke-width="1"/>
      <rect id="Rectangle_29" data-name="Rectangle 29" width="1.987" height="1.492" transform="translate(82.13 109.942)" fill="#f2f2f2" stroke="#707070" stroke-width="1"/>
      <rect id="Rectangle_30" data-name="Rectangle 30" width="1.987" height="1.492" transform="translate(82.13 117.069)" fill="#f2f2f2" stroke="#707070" stroke-width="1"/>
      <rect id="Rectangle_31" data-name="Rectangle 31" width="4.802" height="12.265" transform="translate(85.111 108.119)" fill="#e9be4e" stroke="#707070" stroke-width="1"/>
      <rect id="Rectangle_32" data-name="Rectangle 32" width="4.802" height="1.492" transform="translate(85.111 109.942)" fill="#f2f2f2" stroke="#707070" stroke-width="1"/>
      <rect id="Rectangle_33" data-name="Rectangle 33" width="4.802" height="1.492" transform="translate(85.111 117.069)" fill="#f2f2f2" stroke="#707070" stroke-width="1"/>
      <rect id="Rectangle_34" data-name="Rectangle 34" width="1.987" height="12.265" transform="translate(91.072 108.119)" fill="#e9be4e" stroke="#707070" stroke-width="1"/>
      <rect id="Rectangle_35" data-name="Rectangle 35" width="1.987" height="1.492" transform="translate(91.072 109.942)" fill="#f2f2f2" stroke="#707070" stroke-width="1"/>
      <rect id="Rectangle_36" data-name="Rectangle 36" width="1.987" height="1.492" transform="translate(91.072 117.069)" fill="#f2f2f2" stroke="#707070" stroke-width="1"/>
      <rect id="Rectangle_37" data-name="Rectangle 37" width="1.987" height="12.265" transform="translate(94.052 108.119)" fill="#e9be4e" stroke="#707070" stroke-width="1"/>
      <rect id="Rectangle_38" data-name="Rectangle 38" width="1.987" height="1.492" transform="translate(94.052 109.942)" fill="#f2f2f2" stroke="#707070" stroke-width="1"/>
      <rect id="Rectangle_39" data-name="Rectangle 39" width="1.987" height="1.492" transform="translate(94.052 117.069)" fill="#f2f2f2" stroke="#707070" stroke-width="1"/>
      <rect id="Rectangle_40" data-name="Rectangle 40" width="1.983" height="12.263" transform="translate(96.096 108.863) rotate(-20.654)" fill="#e9be4e" stroke="#707070" stroke-width="1"/>
      <rect id="Rectangle_41" data-name="Rectangle 41" width="1.987" height="1.491" transform="translate(96.738 110.569) rotate(-20.654)" fill="#f2f2f2" stroke="#707070" stroke-width="1"/>
      <rect id="Rectangle_42" data-name="Rectangle 42" width="1.987" height="1.491" transform="translate(99.25 117.238) rotate(-20.654)" fill="#f2f2f2" stroke="#707070" stroke-width="1"/>
      <rect id="Rectangle_43" data-name="Rectangle 43" width="4.802" height="12.265" transform="translate(130.15 108.119)" fill="#e9be4e" stroke="#707070" stroke-width="1"/>
      <rect id="Rectangle_44" data-name="Rectangle 44" width="4.802" height="1.492" transform="translate(130.15 109.942)" fill="#f2f2f2" stroke="#707070" stroke-width="1"/>
      <rect id="Rectangle_45" data-name="Rectangle 45" width="4.802" height="1.492" transform="translate(130.15 117.069)" fill="#f2f2f2" stroke="#707070" stroke-width="1"/>
      <rect id="Rectangle_46" data-name="Rectangle 46" width="1.987" height="12.265" transform="translate(127.004 108.119)" fill="#e9be4e" stroke="#707070" stroke-width="1"/>
      <rect id="Rectangle_47" data-name="Rectangle 47" width="1.987" height="1.492" transform="translate(127.004 109.942)" fill="#f2f2f2" stroke="#707070" stroke-width="1"/>
      <rect id="Rectangle_48" data-name="Rectangle 48" width="1.987" height="1.492" transform="translate(127.004 117.069)" fill="#f2f2f2" stroke="#707070" stroke-width="1"/>
      <rect id="Rectangle_49" data-name="Rectangle 49" width="1.987" height="12.265" transform="translate(124.023 108.119)" fill="#e9be4e" stroke="#707070" stroke-width="1"/>
      <rect id="Rectangle_50" data-name="Rectangle 50" width="1.987" height="1.492" transform="translate(124.023 109.942)" fill="#f2f2f2" stroke="#707070" stroke-width="1"/>
      <rect id="Rectangle_51" data-name="Rectangle 51" width="1.987" height="1.492" transform="translate(124.023 117.069)" fill="#f2f2f2" stroke="#707070" stroke-width="1"/>
      <rect id="Rectangle_52" data-name="Rectangle 52" width="12.263" height="1.983" transform="translate(117.787 119.639) rotate(-69.346)" fill="#e9be4e" stroke="#707070" stroke-width="1"/>
      <rect id="Rectangle_53" data-name="Rectangle 53" width="1.491" height="1.987" transform="translate(120.941 111.264) rotate(-69.346)" fill="#f2f2f2" stroke="#707070" stroke-width="1"/>
      <rect id="Rectangle_54" data-name="Rectangle 54" width="1.491" height="1.987" transform="translate(118.43 117.933) rotate(-69.346)" fill="#f2f2f2" stroke="#707070" stroke-width="1"/>
      <rect id="Rectangle_55" data-name="Rectangle 55" width="56.63" height="1.16" transform="translate(80.143 120.384)" fill="#f2f2f2" stroke="#707070" stroke-width="1"/>
      <rect id="Rectangle_56" data-name="Rectangle 56" width="10.432" height="12.265" transform="translate(104.815 108.119)" fill="#e9be4e" stroke="#707070" stroke-width="1"/>
      <rect id="Rectangle_57" data-name="Rectangle 57" width="5.299" height="2.32" transform="translate(107.382 110.771)" fill="#f2f2f2" stroke="#707070" stroke-width="1"/>
      <rect id="Rectangle_58" data-name="Rectangle 58" width="0.994" height="10.608" transform="translate(107.961 88.395)" fill="#f2f2f2" stroke="#707070" stroke-width="1"/>
      <ellipse id="Ellipse_10" data-name="Ellipse 10" cx="1.656" cy="1.657" rx="1.656" ry="1.657" transform="translate(106.802 97.345)" fill="#f2f2f2" stroke="#707070" stroke-width="1"/>
      <path id="Path_44" data-name="Path 44" d="M271.081,203.937H155.337l2.058-4.309H269.864Z" transform="translate(-121.023 -155.487)" fill="#e9be4e" stroke="#707070" stroke-width="1"/>
      <path id="Path_45" data-name="Path 45" d="M257.134,248.912h-123.3l2.058-4.309H255.917Z" transform="translate(-104.267 -190.517)" fill="#e9be4e" stroke="#707070" stroke-width="1"/>
      <path id="Path_46" data-name="Path 46" d="M826.36,262.223a22,22,0,0,0-1.315,8.513,4.49,4.49,0,0,0,.741,2.12h0l-20.368,9.679s-9.2.954-6.906,4.977,10.623-2.012,10.623-2.012,21.82-3.161,23.542-6.322,2.871-16.381,2.871-16.381Z" transform="translate(-661.373 -228.744)" fill="#ffb9b9"/>
      <path id="Path_47" data-name="Path 47" d="M922.688,208.937h4.306s3.158.575,4.019,6.322,1.723,7.184.861,7.184-11.2-.287-11.2-.575S922.688,208.937,922.688,208.937Z" transform="translate(-756.84 -187.24)" fill="#e9be4e"/>
      <path id="Path_49" data-name="Path 49" d="M22.09,0A22.112,22.112,0,1,1,0,22.112,22.1,22.1,0,0,1,22.09,0Z" transform="translate(0 63.322)" fill="#e61030" stroke="#707070" stroke-width="1"/>
      <ellipse id="Ellipse_12" data-name="Ellipse 12" cx="18.998" cy="19.016" rx="18.998" ry="19.016" transform="translate(3.093 66.418)" fill="#e9be4e" stroke="#707070" stroke-width="1" opacity="0.998"/>
      <g id="Group_98" data-name="Group 98" transform="translate(7.49 68.883)" opacity="0.7">
        <path id="Path_791" data-name="Path 791" d="M377.08,473.18l-14.59,7.787s0,16.061,14.59,24.82c14.59-8.76,14.59-24.82,14.59-24.82Z" transform="translate(-362.49 -473.18)" fill="url(#linear-gradient)"/>
      </g>
      <path id="Path_787" data-name="Path 787" d="M390.726,493.85l-12.176,6.5s0,13.407,12.176,20.72c12.176-7.313,12.176-20.72,12.176-20.72Z" transform="translate(-368.645 -422.272)" fill="#e61030"/>
      <path id="Path_788" data-name="Path 788" d="M459.55,494.24v27.215c12.176-7.313,12.176-20.72,12.176-20.72Z" transform="translate(-437.47 -422.611)" fill="#e61030" opacity="0.08"/>
      <path id="Path_1677" data-name="Path 1677" d="M476.15,95.04a.482.482,0,0,0,.461.482.454.454,0,0,0,.492-.429.475.475,0,0,0-.457-.485.461.461,0,0,0-.5.433Z" transform="translate(-330.376 -83.614)" fill="#263238"/>
      <path id="Path_1678" data-name="Path 1678" d="M475.637,93.063c.059.063.423-.206.936-.2s.89.258.946.2-.031-.14-.2-.262a1.341,1.341,0,0,0-.761-.234,1.3,1.3,0,0,0-.744.241C475.661,92.909,475.609,93.021,475.637,93.063Z" transform="translate(-330.037 -82.296)" fill="#263238"/>
      <path id="Path_1679" data-name="Path 1679" d="M490.65,95.04a.482.482,0,0,0,.471.482.454.454,0,0,0,.482-.43.475.475,0,0,0-.457-.485.461.461,0,0,0-.5.433Z" transform="translate(-339.813 -83.614)" fill="#263238"/>
      <path id="Path_1680" data-name="Path 1680" d="M490.1,93.3c.059.063.422-.206.936-.206s.894.258.95.2-.035-.14-.2-.258a1.316,1.316,0,0,0-.758-.234,1.229,1.229,0,0,0-.744.241C490.126,93.163,490.056,93.275,490.1,93.3Z" transform="translate(-339.446 -82.451)" fill="#263238"/>
      <path id="Path_1681" data-name="Path 1681" d="M482.351,97.174a3.492,3.492,0,0,0-.835-.15c-.133,0-.255-.042-.279-.129a.677.677,0,0,1,.087-.391l.391-1a16.992,16.992,0,0,0,.869-2.615,16.833,16.833,0,0,0-1.079,2.539c-.129.349-.255.7-.374,1.006a.771.771,0,0,0-.066.517.349.349,0,0,0,.216.192,1.14,1.14,0,0,0,.223.031,3.38,3.38,0,0,0,.845,0Z" transform="translate(-333.564 -82.508)" fill="#263238"/>
      <path id="Path_1682" data-name="Path 1682" d="M486.057,106.18c-.084,0-.084.552-.562.95a2.708,2.708,0,0,1-1.075.412c0,.063.133.108.384.115a1.4,1.4,0,0,0,.9-.314,1.191,1.191,0,0,0,.436-.8C486.159,106.313,486.1,106.176,486.057,106.18Z" transform="translate(-335.758 -91.072)" fill="#263238"/>
      <path id="Path_1683" data-name="Path 1683" d="M489.735,87.752c.052.14.566.073,1.17.147s1.089.237,1.17.112c.035-.063-.049-.192-.244-.328a2.043,2.043,0,0,0-1.781-.2C489.826,87.587,489.714,87.685,489.735,87.752Z" transform="translate(-339.216 -78.949)" fill="#263238"/>
      <path id="Path_1684" data-name="Path 1684" d="M476.167,88.734c.091.119.443,0,.869,0s.789.08.873-.042c.035-.059-.021-.178-.178-.286a1.264,1.264,0,0,0-1.4.042C476.177,88.556,476.128,88.678,476.167,88.734Z" transform="translate(-330.379 -79.496)" fill="#263238"/>
    </g>
  </g>
</svg>
