<svg xmlns="http://www.w3.org/2000/svg" width="1786" height="810" viewBox="0 0 1786 810">
  <g id="Group_86" data-name="Group 86" transform="translate(-74 -252)">
    <rect id="Rectangle_135" data-name="Rectangle 135" width="1786" height="810" transform="translate(74 252)" fill="none"/>
    <g id="Group_14" data-name="Group 14">
      <g id="Group_12" data-name="Group 12" transform="translate(729 252)">
        <path id="Path_1" data-name="Path 1" d="M85.749,373.849C114.681,186.062,214.65,50.507,331.993,45.07,394.028,42.2,459.306,76.156,506.834,195c84.961,212.44-5.221,359.242-68.093,429-30.4,33.731-57.71,74.4-81.316,120.638-42.468,83.184-124.167,186.551-221.467,24.59C65.435,651.834,66.478,498.934,85.749,373.849Z" transform="translate(-74.5 -44.904)" fill="#f2f2f2"/>
        <rect id="Rectangle_4" data-name="Rectangle 4" width="845.65" height="307.43" transform="translate(204.35 495.328)" fill="#041546"/>
        <path id="Path_2" data-name="Path 2" d="M433.47,495.52,205.35,652.12V561.43l96.01-65.91Z" transform="translate(-0.25 -0.145)" fill="#e83225" opacity="0.3"/>
        <path id="Path_3" data-name="Path 3" d="M658.91,495.52,445.54,642l-7.64,5.25L211.09,802.95h-5.74V716.19L351.5,615.87l4.89-3.36L526.81,495.52Z" transform="translate(-0.344 -0.192)" fill="#e83225" opacity="0.3"/>
        <path id="Path_4" data-name="Path 4" d="M304.706,695.109l-2.276-2.853c.226-.18,23.036-18.169,59.47-28.459a188.159,188.159,0,0,1,64.991-6.724c27.148,1.975,54.142,9.987,80.231,23.815l-1.709,3.225c-58.041-30.765-109.54-26.119-142.521-16.8C327.159,677.4,304.927,694.933,304.706,695.109Z" transform="translate(-74.769 -45.056)" fill="#f2f2f2"/>
        <path id="Path_5" data-name="Path 5" d="M525.243,693.683c-10.891-1.882-25.3-2.669-35.686-.665L503.7,681.167l3.29-18.155C510.393,673.023,518.214,685.155,525.243,693.683Z" transform="translate(-74.909 -45.056)" fill="#f2f2f2"/>
        <path id="Path_6" data-name="Path 6" d="M678,730.78a189.385,189.385,0,0,1-51.552-7.212c-36.434-10.289-59.244-28.279-59.471-28.459l2.276-2.853c.221.176,22.564,17.77,58.336,27.841,32.95,9.278,84.4,13.886,142.372-16.846l1.709,3.225c-26.089,13.828-53.082,21.84-80.23,23.815Q684.731,730.781,678,730.78Z" transform="translate(-75.082 -45.065)" fill="#f2f2f2"/>
        <path id="Path_7" data-name="Path 7" d="M789.794,693.683c-7.028,8.531-14.848,20.663-18.248,30.675L768.255,706.2,754.11,694.351C764.492,696.355,778.9,695.568,789.794,693.683Z" transform="translate(-75.169 -45.096)" fill="#f2f2f2"/>
        <path id="Path_8" data-name="Path 8" d="M843.843,695.109l-2.277-2.853c.226-.18,23.037-18.169,59.471-28.459a188.221,188.221,0,0,1,64.991-6.724c27.148,1.975,54.141,9.987,80.23,23.815l-1.709,3.225c-58.04-30.764-109.54-26.12-142.521-16.8C866.3,677.4,844.063,694.933,843.843,695.109Z" transform="translate(-75.5 -45.056)" fill="#f2f2f2"/>
        <path id="Path_9" data-name="Path 9" d="M1064.38,693.683c-10.891-1.882-25.3-2.669-35.686-.665l14.146-11.851,3.29-18.155C1049.53,673.023,1057.35,685.155,1064.38,693.683Z" transform="translate(-75.5 -45.056)" fill="#f2f2f2"/>
        <rect id="Rectangle_5" data-name="Rectangle 5" width="59.296" height="1.824" transform="translate(701.814 579.311)" fill="#e83225"/>
        <rect id="Rectangle_6" data-name="Rectangle 6" width="59.296" height="1.824" transform="translate(701.814 597.551)" fill="#e83225"/>
        <rect id="Rectangle_7" data-name="Rectangle 7" width="59.296" height="1.824" transform="translate(701.814 615.792)" fill="#e83225"/>
        <rect id="Rectangle_8" data-name="Rectangle 8" width="59.296" height="1.824" transform="translate(435.708 686.901)" fill="#e83225"/>
        <rect id="Rectangle_9" data-name="Rectangle 9" width="59.296" height="1.824" transform="translate(435.708 705.146)" fill="#e83225"/>
        <rect id="Rectangle_10" data-name="Rectangle 10" width="59.296" height="1.824" transform="translate(435.708 723.391)" fill="#e83225"/>
        <rect id="Rectangle_11" data-name="Rectangle 11" width="59.296" height="1.824" transform="translate(976.108 686.901)" fill="#e83225"/>
        <rect id="Rectangle_12" data-name="Rectangle 12" width="59.296" height="1.824" transform="translate(976.108 705.146)" fill="#e83225"/>
        <rect id="Rectangle_13" data-name="Rectangle 13" width="59.296" height="1.824" transform="translate(976.108 723.391)" fill="#e83225"/>
        <circle id="Ellipse_2" data-name="Ellipse 2" cx="11.859" cy="11.859" r="11.859" transform="translate(454.861 647.709)" fill="#e83225"/>
        <circle id="Ellipse_3" data-name="Ellipse 3" cx="11.859" cy="11.859" r="11.859" transform="translate(720.066 631.292)" fill="#e83225"/>
        <circle id="Ellipse_4" data-name="Ellipse 4" cx="11.859" cy="11.859" r="11.859" transform="translate(993.441 647.709)" fill="#e83225"/>
        <path id="Path_10" data-name="Path 10" d="M422.581,457.872l-17.664-18.938,18.938-17.664,17.664,18.938Zm-14.848-18.84,14.946,16.024L438.7,440.11l-14.946-16.024Z" transform="translate(-74.826 -44.997)" fill="#3f3d56"/>
        <path id="Path_11" data-name="Path 11" d="M847.581,235.872l-17.664-18.938,18.938-17.664,17.664,18.938Zm-14.848-18.84,14.946,16.024L863.7,218.11l-14.946-16.024Z" transform="translate(-75.245 -44.942)" fill="#3f3d56"/>
        <path id="Path_12" data-name="Path 12" d="M1064.5,541.96h-25.9v-25.9h25.9Zm-23.9-1.992h21.913V518.055H1040.6Z" transform="translate(-75.5 -45.019)" fill="#3f3d56"/>
        <circle id="Ellipse_5" data-name="Ellipse 5" cx="13.221" cy="13.221" r="13.221" transform="translate(592.649 572.482)" fill="#e83225"/>
        <path id="Path_13" data-name="Path 13" d="M680.95,668.943a38.2,38.2,0,1,1,38.2-38.2,38.2,38.2,0,0,1-38.2,38.2Zm0-73.452a35.257,35.257,0,1,0,35.257,35.257A35.257,35.257,0,0,0,680.95,595.49Z" transform="translate(-75.083 -45.047)" fill="#f2f2f2"/>
        <path id="Path_16" data-name="Path 16" d="M155.075,708.867l-3.868,37.4,21.923-2.579,2.579-30.951Z" transform="translate(0 -0.192)" fill="#ffb9b9"/>
        <path id="Path_17" data-name="Path 17" d="M171.542,470.055s-112.2,108.328-41.268,141.858H152.2s47.716-78.667,70.929-77.377l6.448,74.8-3.869,150.886,28.372,1.29s16.765-76.088,15.475-118.645L299.215,485.53Z" transform="translate(-74.5 -45.096)" fill="#041546"/>
        <path id="Path_18" data-name="Path 18" d="M136.723,606.755l15.475,5.159s60.612-14.186,64.481-12.9l12-.083-.393-30.868H176.7Z" transform="translate(-74.5 -45.035)" fill="#041546"/>
        <path id="Path_19" data-name="Path 19" d="M250.209,783.433s-23.213-10.317-27.082,0-2.579,39.978-2.579,39.978,5.158,9.027,2.579,19.344,10.317,15.475,27.082,10.317,16.765-18.055,16.765-18.055Z" transform="translate(-74.5 -45.096)" fill="#2f2e41"/>
        <path id="Path_20" data-name="Path 20" d="M269.554,565.487s18.055-10.317,16.765,5.159-7.738,29.661-7.738,29.661,16.765,43.847,0,47.716-29.661-5.159-29.661-11.607S269.554,565.487,269.554,565.487Z" transform="translate(-74.672 -45.041)" fill="#2f2e41"/>
        <path id="Path_21" data-name="Path 21" d="M138.31,167.226l2.58,49.006,21.923,19.344,24.5-34.819v-34.82Z" transform="translate(0 -0.043)" fill="#ffb9b9"/>
        <path id="Path_22" data-name="Path 22" d="M229.575,261.136l-14.763-10.97-9.74,14.839L161.225,290.8l25.792,67.06,1.29,65.771s-47.716,49.006-19.344,55.454,128.962,20.634,134.121,9.027-6.448-131.541-6.448-131.541l3.869-101.88L261.816,240.7Z" transform="translate(-74.5 -44.971)" fill="#e83225"/>
        <path id="Path_23" data-name="Path 23" d="M150.908,342.814s-10.317,73.077,9.027,73.077a88.83,88.83,0,0,0,33.53-6.448l-15.475-39.978,6.448-27.082Z" transform="translate(-74.5 -44.982)" fill="#ffb9b9"/>
        <path id="Path_24" data-name="Path 24" d="M180.57,406.863l14.186,2.579s41.268-25.792,43.847-27.082-41.268-23.213-41.268-23.213l-29.661,11.607Z" transform="translate(-74.5 -44.983)" fill="#ffb9b9"/>
        <path id="Path_25" data-name="Path 25" d="M197.335,359.147l-18.623,7.287,5.727-24.052-33.53.432s-10.317,73.077,9.027,73.077a88.83,88.83,0,0,0,33.53-6.448l-.1-.252,1.387.252s41.268-25.792,43.847-27.082S197.335,359.147,197.335,359.147Z" transform="translate(-74.5 -44.982)" fill="#ffb9b9" opacity="0.1"/>
        <path id="Path_27" data-name="Path 27" d="M274.712,320.459S264.4,332.065,264.4,348.83l-68.35-2.579s-18.055-2.579-18.055,10.317v12.9s9.027-3.869,14.186,0,60.612,37.4,87.694,24.5,33.53-63.191,33.53-63.191S288.9,310.142,274.712,320.459Z" transform="translate(-74.5 -44.976)" fill="#ffb9b9"/>
        <path id="Path_28" data-name="Path 28" d="M290.188,255.978l10.317-1.29s20.634,2.579,18.055,42.557S314.69,339.8,314.69,339.8s-27.082-24.5-46.426-12.9Z" transform="translate(-74.694 -44.96)" fill="#e83225"/>
        <path id="Path_29" data-name="Path 29" d="M166.384,290.8h-5.158a47.775,47.775,0,0,0-10.317,29.661,142.742,142.742,0,0,1-4.514,34.175l40.623-7.093Z" transform="translate(-74.5 -44.967)" fill="#e83225"/>
        <rect id="Rectangle_18" data-name="Rectangle 18" width="2" height="51.93" transform="translate(730.803 409.063)" fill="#3f3d56"/>
        <path id="Path_30" data-name="Path 30" d="M807,442c2.107,5.68,5.7,12.727,9.512,17.095L807,455.654l-9.51,3.44C801.3,454.727,804.895,447.68,807,442Z" transform="translate(-75.201 -45)" fill="#3f3d56"/>
        <rect id="Rectangle_19" data-name="Rectangle 19" width="2" height="51.93" transform="translate(491.031 364.074)" fill="#3f3d56"/>
        <path id="Path_31" data-name="Path 31" d="M567,397c2.107,5.68,5.7,12.727,9.512,17.095L567,410.654l-9.51,3.44C561.3,409.727,564.895,402.68,567,397Z" transform="translate(-74.968 -44.989)" fill="#3f3d56"/>
        <rect id="Rectangle_20" data-name="Rectangle 20" width="2" height="51.93" transform="translate(822.715 324.084)" fill="#3f3d56"/>
        <path id="Path_32" data-name="Path 32" d="M899,357c2.107,5.68,5.7,12.727,9.512,17.095L899,370.654l-9.51,3.44C893.3,369.727,896.895,362.68,899,357Z" transform="translate(-75.29 -44.98)" fill="#3f3d56"/>
        <text id="CEPAT" transform="translate(469 295)" fill="#041546" font-size="34" font-family="SegoeUI-Bold, Segoe UI" font-weight="700"><tspan x="-49.821" y="37">CEPAT</tspan></text>
        <text id="AMAN" transform="translate(668 339)" fill="#041546" font-size="34" font-family="SegoeUI-Bold, Segoe UI" font-weight="700"><tspan x="-53.606" y="37">AMAN</tspan></text>
        <text id="TERPERCAYA" transform="translate(701 258)" fill="#041546" font-size="34" font-family="SegoeUI-Bold, Segoe UI" font-weight="700"><tspan x="-102.805" y="37">TERPERCAYA</tspan></text>
        <path id="Path_991" data-name="Path 991" d="M200.458,141.193s2.586,2.554,3.816,16.758,7.975-18.5,2.6-24.635S200.458,141.193,200.458,141.193Z" transform="translate(-2 -3.962)" fill="#464353"/>
        <circle id="Ellipse_6" data-name="Ellipse 6" cx="36.825" cy="36.825" r="36.825" transform="translate(131.32 118.029)" fill="#ffb9b9"/>
        <path id="Path_990" data-name="Path 990" d="M140.9,138.242s11.338,12.907,44.72,6.935S213.7,103.154,213.7,103.154s-7.589,7.9-15.206,2.249-12.373-9.144-30.248-9.126-35.268,5.665-41.766,26.8,3.868,27.993,5.448,35.215S140.9,138.242,140.9,138.242Z" fill="#464353"/>
      </g>
      <g id="Group_13" data-name="Group 13" transform="translate(-237 -954)">
        <g id="Group_8" data-name="Group 8" transform="translate(15)">
          <g id="Group_7" data-name="Group 7" transform="translate(272 280)">
            <text id="Selamat_datang_di_BPR_Intidana_Sukses_Makmur" data-name="Selamat datang di
BPR Intidana Sukses Makmur" transform="translate(105 1179)" fill="#041546" font-size="34" font-family="SegoeUI-Bold, Segoe UI" font-weight="700"><tspan x="0" y="0">Selamat datang di</tspan><tspan x="0" y="46">BPR Intidana Sukses Makmur</tspan></text>
          </g>
        </g>
        <g id="Group_10" data-name="Group 10" transform="translate(-50)">
          <text id="Salah_satu_jenis_bank_yang_dikenal_melayani_golongan_pengusaha_mikro_kecil_dan_menengah_dengan_lokasi_yang_pada_umumnya_dekat_dengan_tempat_masyarakat_yang_membutuhkan." data-name="Salah satu jenis bank yang dikenal melayani golongan pengusaha mikro, kecil dan menengah dengan lokasi yang pada umumnya dekat dengan tempat masyarakat yang membutuhkan." transform="translate(442 1536)" fill="#333" font-size="26" font-family="SegoeUI, Segoe UI"><tspan x="0" y="28">Salah satu jenis bank yang dikenal </tspan><tspan x="0" y="63">melayani golongan pengusaha mikro, </tspan><tspan x="0" y="98">kecil dan menengah dengan lokasi yang </tspan><tspan x="0" y="133">pada umumnya dekat dengan tempat </tspan><tspan x="0" y="168">masyarakat yang membutuhkan.</tspan></text>
        </g>
      </g>
    </g>
  </g>
</svg>
