<svg xmlns="http://www.w3.org/2000/svg" width="36" height="36" viewBox="0 0 36 36">
  <path id="Icon_awesome-plus-circle" data-name="Icon awesome-plus-circle" d="M18.563.563a18,18,0,1,0,18,18A18,18,0,0,0,18.563.563ZM29.014,20.595a.874.874,0,0,1-.871.871H21.466v6.677a.874.874,0,0,1-.871.871H16.53a.874.874,0,0,1-.871-.871V21.466H8.982a.874.874,0,0,1-.871-.871V16.53a.874.874,0,0,1,.871-.871h6.677V8.982a.874.874,0,0,1,.871-.871h4.065a.874.874,0,0,1,.871.871v6.677h6.677a.874.874,0,0,1,.871.871Z" transform="translate(-0.563 -0.563)" fill="#041546"/>
</svg>
