<svg xmlns="http://www.w3.org/2000/svg" width="611.91" height="627.94" viewBox="0 0 611.91 627.94">
  <g id="Pie_chart-bro" data-name="Pie chart-bro" transform="translate(-61.56 -63.83)">
    <g id="freepik--background-simple--inject-66" transform="translate(70.754 86.415)">
      <path id="Path_3561" data-name="Path 3561" d="M625.922,109.082c-20.687-21.4-49.423-34.073-83.155-30.828C484.274,84,440.774,133.55,391.4,160.175c-31.4,16.939-67.66,22.164-102.918,22.716-82.263,1.46-179.842,5.582-210.768,97.352-17.313,51.418-13.4,111.826,13.3,159.415C132.377,513.4,229.795,537.5,308.245,538.714,477.686,541.359,610.962,429.842,652.45,266.5,665.69,214.531,665.577,150.1,625.922,109.082Z" transform="translate(-67.226 -77.749)" fill="#e61030"/>
      <path id="Path_3562" data-name="Path 3562" d="M625.922,109.082c-20.687-21.4-49.423-34.073-83.155-30.828C484.274,84,440.774,133.55,391.4,160.175c-31.4,16.939-67.66,22.164-102.918,22.716-82.263,1.46-179.842,5.582-210.768,97.352-17.313,51.418-13.4,111.826,13.3,159.415C132.377,513.4,229.795,537.5,308.245,538.714,477.686,541.359,610.962,429.842,652.45,266.5,665.69,214.531,665.577,150.1,625.922,109.082Z" transform="translate(-67.226 -77.749)" fill="#fff" opacity="0.7"/>
    </g>
    <g id="freepik--Floor--inject-66" transform="translate(61.56 520.347)">
      <g id="freepik--floor--inject-66-2" data-name="freepik--floor--inject-66">
        <ellipse id="Ellipse_228" data-name="Ellipse 228" cx="209.356" cy="23.543" rx="209.356" ry="23.543" transform="translate(96.395 124.337)" fill="#e61030"/>
        <ellipse id="Ellipse_229" data-name="Ellipse 229" cx="209.356" cy="23.543" rx="209.356" ry="23.543" transform="translate(96.395 124.337)" fill="#fff" opacity="0.5"/>
        <path id="Path_3563" data-name="Path 3563" d="M481.147,402.9c-2.012-2.921-8.389-2.953-11.358-2.061-.26.1-4.219,1.785-4.17,1.817h-3.245a72.15,72.15,0,0,0-7.318.406,76.008,76.008,0,0,0-8.583,1.282,54.915,54.915,0,0,0-9.346,2.839h-.1c.8-.665,2.969-2.612,3.115-2.758,2.126-2.353,4.868-8.113,3.034-11.2a4.186,4.186,0,0,0-5.776-1.314,3.062,3.062,0,0,0-.373.26c-2.012,1.46-2.742,4.462-2.774,6.815,0,2.677,2.223,7.967,2.434,8.356a71.62,71.62,0,0,0-8.827,4.494c-1.623.99-3.245,2-4.868,3.115.682-.584,1.282-1.136,1.347-1.217,2.109-2.353,4.868-8.113,3.034-11.2a4.186,4.186,0,0,0-5.76-1.33l-.373.26c-2.028,1.46-2.742,4.478-2.791,6.815s1.817,6.961,2.32,8.113l-1.9,1.2c-2.986,2-5.939,3.975-8.908,5.857-1.038.665-2.093,1.282-3.245,1.882.6-.535,1.087-.974,1.152-1.055,2.126-2.353,4.868-8.113,3.067-11.244a4.186,4.186,0,0,0-5.76-1.347,3.356,3.356,0,0,0-.389.276c-2.028,1.477-2.742,4.462-2.791,6.831a26.882,26.882,0,0,0,2.223,7.934c-1.087.6-2.19,1.2-3.245,1.736-.746.341-1.428.7-2.223,1.038l-2.255.941c-1.444.535-2.9,1.136-4.381,1.623-1.006.357-1.947.665-2.856,1.006,1.022-.633,3.05-1.947,3.245-2.061a16.225,16.225,0,0,0,4.592-6.815,6.137,6.137,0,0,0,.665-.633,4.2,4.2,0,0,0-.292-5.939l-.341-.276c-2.969-2.028-8.908.26-11.358,2.19-.146.114-1.623,1.525-2.515,2.434.454-.6.909-1.2,1.363-1.834.909-1.266,1.785-2.547,2.71-3.943.422-.681.876-1.379,1.314-2.061s.844-1.46,1.282-2.19c.957-1.72,1.85-3.5,2.71-5.322,1.1.8,5.062,3.57,7.4,4.008s5.4.454,7.269-1.168a4.186,4.186,0,0,0,.633-5.89l-.308-.341c-2.6-2.434-8.827-1.1-11.6.438-.162.1-2.028,1.412-3.034,2.158.487-1.055,1.022-2.19,1.509-3.326,1.347-3.245,2.661-6.588,3.975-9.914.389-1.022.763-2.044,1.217-3.05.389.292,5.014,3.7,7.626,4.235,2.288.487,5.387.471,7.269-1.168a4.186,4.186,0,0,0,.6-5.906l-.292-.325c-2.58-2.418-8.827-1.087-11.6.438-.195.114-2.872,2.028-3.537,2.547.892-2.223,1.817-4.446,2.807-6.6a76.423,76.423,0,0,1,4.527-8.421c.211,0,5,3.716,7.675,4.267,2.288.487,5.371.471,7.269-1.184a4.2,4.2,0,0,0,.6-5.906,2.633,2.633,0,0,0-.292-.325c-2.58-2.418-8.827-1.087-11.585.454-.195.1-2.239,1.541-3.245,2.255l-.146-.13a52.682,52.682,0,0,1,6-7.529c1.2-1.3,2.418-2.466,3.651-3.586.828.763,4.624,4.2,6.993,4.949s5.306,1.055,7.366-.373a4.2,4.2,0,0,0,1.249-5.809,2.7,2.7,0,0,0-.26-.341c-2.288-2.693-8.664-2.028-11.569-.844-.162,0-1.623.925-2.807,1.623l1.623-1.477c2.044-1.72,4.008-3.245,5.776-4.494.99-.714,1.915-1.347,2.791-1.931,1.2.308,6.068,1.541,8.453,1.152a8.616,8.616,0,0,0,6.36-3.732,4.17,4.17,0,0,0-1.541-5.7l-.422-.211c-3.245-1.33-8.616,2.158-10.644,4.576-.178.227-2.547,3.813-2.482,3.829h0c-.844.519-1.752,1.12-2.726,1.817-1.8,1.249-3.813,2.677-5.89,4.365a78.236,78.236,0,0,0-6.49,5.809,54.669,54.669,0,0,0-6.23,7.464v.114c.357-.974,1.055-3.8,1.087-4.024.47-3.115-.454-9.443-3.635-11a4.2,4.2,0,0,0-5.565,2.028,1.341,1.341,0,0,1-.162.422c-.876,2.336.178,5.241,1.444,7.236,1.412,2.255,6.247,5.4,6.636,5.663a74.927,74.927,0,0,0-4.868,8.616c-.828,1.72-1.622,3.488-2.417,5.289.243-.876.438-1.623.454-1.752.471-3.131-.471-9.443-3.634-11.017a4.2,4.2,0,0,0-5.565,2.028,1.339,1.339,0,0,1-.162.422c-.876,2.336.178,5.241,1.444,7.237s5.338,4.868,6.49,5.533c-.26.7-.584,1.363-.876,2.044-1.379,3.245-2.742,6.6-4.17,9.735-.519,1.12-1.055,2.223-1.623,3.245.211-.763.373-1.428.389-1.509.471-3.131-.471-9.459-3.634-11.017a4.186,4.186,0,0,0-5.565,2.028c0,.146-.13.276-.178.422-.876,2.353.195,5.241,1.444,7.237a25.96,25.96,0,0,0,6.23,5.387c-.568,1.12-1.152,2.223-1.769,3.245-.438.714-.811,1.428-1.282,2.109l-1.33,1.979c-.925,1.249-1.85,2.564-2.775,3.764-.633.844-1.249,1.623-1.882,2.45.519-1.12,1.477-3.326,1.623-3.537.941-3,.974-9.395-1.915-11.358a4.186,4.186,0,0,0-5.793,1.184c-.081.13-.162.26-.227.389-1.233,2.174-.633,5.192.325,7.366s5.144,6.1,5.663,6.49l-3.034,3.813c-3.407,4.121-6.377,7.431-8.486,9.735,0,.1-.146.146-.227.227l1.623,1.817c.13-.146.276-.292.406-.454,2.126-2.337,5.03-5.76,8.356-10.011,1.055-1.33,2.158-2.775,3.245-4.283a45.427,45.427,0,0,0,4.868,2.207,30.374,30.374,0,0,0,1.136,8.307c-1.622.535-3.148,1.038-4.624,1.493-5.095,1.622-9.394,2.677-12.429,3.424h-.357l1.72,2.012c2.985-.8,6.944-1.98,11.7-3.521,1.623-.535,3.342-1.136,5.095-1.8.341.6,3.05,5.452,5.143,7.009s4.689,2.677,7.09,1.979a4.2,4.2,0,0,0,3.018-5.111.563.563,0,0,0-.13-.422c-1.331-3.245-7.545-4.689-10.725-4.462-.178,0-2.19.422-3.44.649l2.142-.795c1.444-.552,2.9-1.12,4.462-1.752l2.223-.99c.763-.325,1.525-.746,2.271-1.12,1.752-.909,3.488-1.9,5.208-2.953.487,1.282,2.239,5.809,3.91,7.48s4.251,3.342,6.717,3.018a4.186,4.186,0,0,0,3.764-4.592,3.244,3.244,0,0,0,0-.422c-.811-3.44-6.75-5.792-9.914-6.036-.195,0-2.5,0-3.748.114,1.006-.633,2.044-1.266,3.067-1.947,2.953-1.963,5.857-4.008,8.794-6.068l2.693-1.866c.162.438,2.158,5.841,4.04,7.707s4.235,3.359,6.717,3.018a4.186,4.186,0,0,0,3.764-4.543,4.018,4.018,0,0,0,0-.47c-.811-3.44-6.75-5.776-9.914-6.02-.227,0-3.521.081-4.348.162,1.979-1.363,3.975-2.71,5.987-3.959a71.278,71.278,0,0,1,8.421-4.543c.081.227,2.125,5.857,4.024,7.788s4.251,3.359,6.734,3.05a4.2,4.2,0,0,0,3.748-4.592,4.081,4.081,0,0,0,0-.438c-.811-3.456-6.75-5.776-9.914-6.036-.195,0-2.693.081-3.894.146v-.211a54.879,54.879,0,0,1,9.167-2.953c1.72-.422,3.391-.714,5.014-.957.276,1.071,1.623,6.036,3.1,7.967a8.632,8.632,0,0,0,6.344,3.764,4.186,4.186,0,0,0,4.235-4.154,4.55,4.55,0,0,0,0-.471c-.438-3.521-6.085-6.49-9.184-7.074-.162,0-1.931-.178-3.245-.26l2.207-.308c2.661-.325,5.127-.454,7.285-.568l3.407-.081c.827.941,4.2,4.64,6.49,5.63s5.176,1.623,7.35.406a4.186,4.186,0,0,0,1.7-5.679Z" transform="translate(129.853 -345.189)" fill="#e61030"/>
        <path id="Path_3564" data-name="Path 3564" d="M420.324,386.863s3.862-1.833,4.1-1.98c2.645-1.623,6.8-6.49,5.89-9.995a4.2,4.2,0,0,0-5.208-2.823l-.422.146a8.794,8.794,0,0,0-4.494,5.857C419.4,380.7,420.324,386.847,420.324,386.863Z" transform="translate(161.504 -328.564)" fill="#e61030"/>
        <path id="Path_3565" data-name="Path 3565" d="M395.771,354.69c.8,2.661,4.949,7.285,4.965,7.285s2.207-3.667,2.32-3.91c1.282-2.9,2.044-9.232-.617-11.585a4.186,4.186,0,0,0-5.906.5,2.871,2.871,0,0,0-.26.357C394.846,349.368,395.138,352.45,395.771,354.69Z" transform="translate(146.174 -345.002)" fill="#e61030"/>
        <g id="Group_322" data-name="Group 322" transform="translate(498.883)" opacity="0.5">
          <path id="Path_3566" data-name="Path 3566" d="M420.324,386.863s3.862-1.833,4.1-1.98c2.645-1.623,6.8-6.49,5.89-9.995a4.2,4.2,0,0,0-5.208-2.823l-.422.146a8.794,8.794,0,0,0-4.494,5.857C419.4,380.7,420.324,386.847,420.324,386.863Z" transform="translate(-337.38 -328.564)" fill="#fff"/>
          <path id="Path_3567" data-name="Path 3567" d="M481.147,402.9c-2.012-2.921-8.389-2.953-11.358-2.061-.26.1-4.219,1.785-4.17,1.817h-3.245a72.15,72.15,0,0,0-7.318.406,76.008,76.008,0,0,0-8.583,1.282,54.915,54.915,0,0,0-9.346,2.839h-.1c.8-.665,2.969-2.612,3.115-2.758,2.126-2.353,4.868-8.113,3.034-11.2a4.186,4.186,0,0,0-5.776-1.314,3.062,3.062,0,0,0-.373.26c-2.012,1.46-2.742,4.462-2.774,6.815,0,2.677,2.223,7.967,2.434,8.356a71.62,71.62,0,0,0-8.827,4.494c-1.623.99-3.245,2-4.868,3.115.682-.584,1.282-1.136,1.347-1.217,2.109-2.353,4.868-8.113,3.034-11.2a4.186,4.186,0,0,0-5.76-1.33l-.373.26c-2.028,1.46-2.742,4.478-2.791,6.815s1.817,6.961,2.32,8.113l-1.9,1.2c-2.986,2-5.939,3.975-8.908,5.857-1.038.665-2.093,1.282-3.245,1.882.6-.535,1.087-.974,1.152-1.055,2.126-2.353,4.868-8.113,3.067-11.244a4.186,4.186,0,0,0-5.76-1.347,3.356,3.356,0,0,0-.389.276c-2.028,1.477-2.742,4.462-2.791,6.831a26.882,26.882,0,0,0,2.223,7.934c-1.087.6-2.19,1.2-3.245,1.736-.746.341-1.428.7-2.223,1.038l-2.255.941c-1.444.535-2.9,1.136-4.381,1.623-1.006.357-1.947.665-2.856,1.006,1.022-.633,3.05-1.947,3.245-2.061a16.225,16.225,0,0,0,4.592-6.815,6.137,6.137,0,0,0,.665-.633,4.2,4.2,0,0,0-.292-5.939l-.341-.276c-2.969-2.028-8.908.26-11.358,2.19-.146.114-1.623,1.525-2.515,2.434.454-.6.909-1.2,1.363-1.834.909-1.266,1.785-2.547,2.71-3.943.422-.681.876-1.379,1.314-2.061s.844-1.46,1.282-2.19c.957-1.72,1.85-3.5,2.71-5.322,1.1.8,5.062,3.57,7.4,4.008s5.4.454,7.269-1.168a4.186,4.186,0,0,0,.633-5.89l-.308-.341c-2.6-2.434-8.827-1.1-11.6.438-.162.1-2.028,1.412-3.034,2.158.487-1.055,1.022-2.19,1.509-3.326,1.347-3.245,2.661-6.588,3.975-9.914.389-1.022.763-2.044,1.217-3.05.389.292,5.014,3.7,7.626,4.235,2.288.487,5.387.471,7.269-1.168a4.186,4.186,0,0,0,.6-5.906l-.292-.325c-2.58-2.418-8.827-1.087-11.6.438-.195.114-2.872,2.028-3.537,2.547.892-2.223,1.817-4.446,2.807-6.6a76.423,76.423,0,0,1,4.527-8.421c.211,0,5,3.716,7.675,4.267,2.288.487,5.371.471,7.269-1.184a4.2,4.2,0,0,0,.6-5.906,2.633,2.633,0,0,0-.292-.325c-2.58-2.418-8.827-1.087-11.585.454-.195.1-2.239,1.541-3.245,2.255l-.146-.13a52.682,52.682,0,0,1,6-7.529c1.2-1.3,2.418-2.466,3.651-3.586.828.763,4.624,4.2,6.993,4.949s5.306,1.055,7.366-.373a4.2,4.2,0,0,0,1.249-5.809,2.7,2.7,0,0,0-.26-.341c-2.288-2.693-8.664-2.028-11.569-.844-.162,0-1.623.925-2.807,1.623l1.623-1.477c2.044-1.72,4.008-3.245,5.776-4.494.99-.714,1.915-1.347,2.791-1.931,1.2.308,6.068,1.541,8.453,1.152a8.616,8.616,0,0,0,6.36-3.732,4.17,4.17,0,0,0-1.541-5.7l-.422-.211c-3.245-1.33-8.616,2.158-10.644,4.576-.178.227-2.547,3.813-2.482,3.829h0c-.844.519-1.752,1.12-2.726,1.817-1.8,1.249-3.813,2.677-5.89,4.365a78.236,78.236,0,0,0-6.49,5.809,54.669,54.669,0,0,0-6.23,7.464v.114c.357-.974,1.055-3.8,1.087-4.024.47-3.115-.454-9.443-3.635-11a4.2,4.2,0,0,0-5.565,2.028,1.341,1.341,0,0,1-.162.422c-.876,2.336.178,5.241,1.444,7.236,1.412,2.255,6.247,5.4,6.636,5.663a74.927,74.927,0,0,0-4.868,8.616c-.828,1.72-1.622,3.488-2.417,5.289.243-.876.438-1.623.454-1.752.471-3.131-.471-9.443-3.634-11.017a4.2,4.2,0,0,0-5.565,2.028,1.339,1.339,0,0,1-.162.422c-.876,2.336.178,5.241,1.444,7.237s5.338,4.868,6.49,5.533c-.26.7-.584,1.363-.876,2.044-1.379,3.245-2.742,6.6-4.17,9.735-.519,1.12-1.055,2.223-1.623,3.245.211-.763.373-1.428.389-1.509.471-3.131-.471-9.459-3.634-11.017a4.186,4.186,0,0,0-5.565,2.028c0,.146-.13.276-.178.422-.876,2.353.195,5.241,1.444,7.237a25.96,25.96,0,0,0,6.23,5.387c-.568,1.12-1.152,2.223-1.769,3.245-.438.714-.811,1.428-1.282,2.109l-1.33,1.979c-.925,1.249-1.85,2.564-2.775,3.764-.633.844-1.249,1.623-1.882,2.45.519-1.12,1.477-3.326,1.623-3.537.941-3,.974-9.395-1.915-11.358a4.186,4.186,0,0,0-5.793,1.184c-.081.13-.162.26-.227.389-1.233,2.174-.633,5.192.325,7.366s5.144,6.1,5.663,6.49l-3.034,3.813c-3.407,4.121-6.377,7.431-8.486,9.735,0,.1-.146.146-.227.227l1.623,1.817c.13-.146.276-.292.406-.454,2.126-2.337,5.03-5.76,8.356-10.011,1.055-1.33,2.158-2.775,3.245-4.283a45.427,45.427,0,0,0,4.868,2.207,30.374,30.374,0,0,0,1.136,8.307c-1.622.535-3.148,1.038-4.624,1.493-5.095,1.622-9.394,2.677-12.429,3.424h-.357l1.72,2.012c2.985-.8,6.944-1.98,11.7-3.521,1.623-.535,3.342-1.136,5.095-1.8.341.6,3.05,5.452,5.143,7.009s4.689,2.677,7.09,1.979a4.2,4.2,0,0,0,3.018-5.111.563.563,0,0,0-.13-.422c-1.331-3.245-7.545-4.689-10.725-4.462-.178,0-2.19.422-3.44.649l2.142-.795c1.444-.552,2.9-1.12,4.462-1.752l2.223-.99c.763-.325,1.525-.746,2.271-1.12,1.752-.909,3.488-1.9,5.208-2.953.487,1.282,2.239,5.809,3.91,7.48s4.251,3.342,6.717,3.018a4.186,4.186,0,0,0,3.764-4.592,3.244,3.244,0,0,0,0-.422c-.811-3.44-6.75-5.792-9.914-6.036-.195,0-2.5,0-3.748.114,1.006-.633,2.044-1.266,3.067-1.947,2.953-1.963,5.857-4.008,8.794-6.068l2.693-1.866c.162.438,2.158,5.841,4.04,7.707s4.235,3.359,6.717,3.018a4.186,4.186,0,0,0,3.764-4.543,4.018,4.018,0,0,0,0-.47c-.811-3.44-6.75-5.776-9.914-6.02-.227,0-3.521.081-4.348.162,1.979-1.363,3.975-2.71,5.987-3.959a71.278,71.278,0,0,1,8.421-4.543c.081.227,2.125,5.857,4.024,7.788s4.251,3.359,6.734,3.05a4.2,4.2,0,0,0,3.748-4.592,4.081,4.081,0,0,0,0-.438c-.811-3.456-6.75-5.776-9.914-6.036-.195,0-2.693.081-3.894.146v-.211a54.879,54.879,0,0,1,9.167-2.953c1.72-.422,3.391-.714,5.014-.957.276,1.071,1.623,6.036,3.1,7.967a8.632,8.632,0,0,0,6.344,3.764,4.186,4.186,0,0,0,4.235-4.154,4.55,4.55,0,0,0,0-.471c-.438-3.521-6.085-6.49-9.184-7.074-.162,0-1.931-.178-3.245-.26l2.207-.308c2.661-.325,5.127-.454,7.285-.568l3.407-.081c.827.941,4.2,4.64,6.49,5.63s5.176,1.623,7.35.406a4.186,4.186,0,0,0,1.7-5.679Z" transform="translate(-369.03 -345.189)" fill="#fff"/>
          <path id="Path_3568" data-name="Path 3568" d="M395.771,354.69c.8,2.661,4.949,7.285,4.965,7.285s2.207-3.667,2.32-3.91c1.282-2.9,2.044-9.232-.617-11.585a4.186,4.186,0,0,0-5.906.5,2.871,2.871,0,0,0-.26.357C394.846,349.368,395.138,352.45,395.771,354.69Z" transform="translate(-352.709 -345.002)" fill="#fff"/>
        </g>
        <path id="Path_3569" data-name="Path 3569" d="M405.775,398.87s-15.447-40.856-24.825-39.4,14,64.8,14,64.8-27.68-56.464-47.751-57.1,5.419,61.657,30.2,82.879c0,0-38.779-44.539-62.5-35.907s45.172,54.663,45.172,54.663S318.385,457.46,322.75,467.6,341.036,477,341.036,477l78.3,1.3s38.049-17.523,28.265-25.425-32.451,7.74-32.451,7.74,39.476-40.872,32.613-56.9-41.018,27.389-41.018,27.389,28.573-55.864,23.527-65.973S405.775,398.87,405.775,398.87Z" transform="translate(93.059 -336.32)" fill="#e61030"/>
        <path id="Path_3570" data-name="Path 3570" d="M405.775,398.87s-15.447-40.856-24.825-39.4,14,64.8,14,64.8-27.68-56.464-47.751-57.1,5.419,61.657,30.2,82.879c0,0-38.779-44.539-62.5-35.907s45.172,54.663,45.172,54.663-41.991-11.358-37.2-.99c4.592,9.995,18.189,9.167,18.189,9.167l78.3,1.3s38.049-17.523,28.265-25.425-32.451,7.74-32.451,7.74,39.476-40.872,32.613-56.9-41.034,27.389-41.034,27.389,28.573-55.864,23.527-65.973S405.775,398.87,405.775,398.87Z" transform="translate(93.059 -336.32)" fill="#fff" opacity="0.5"/>
        <path id="Path_3571" data-name="Path 3571" d="M378.8,385.16c-16.1,43.03-17.069,73.809-17.069,73.809s17.377,1.2,35.874-11.6" transform="translate(125.308 -320.306)" fill="none" stroke="#fff" stroke-linecap="round" stroke-linejoin="round" stroke-width="1.114"/>
        <path id="Path_3572" data-name="Path 3572" d="M371.412,414.229A260.07,260.07,0,0,0,360.59,375.71" transform="translate(124.599 -326.189)" fill="none" stroke="#fff" stroke-linecap="round" stroke-linejoin="round" stroke-width="1.114"/>
        <path id="Path_3573" data-name="Path 3573" d="M341,382.93l35.7,56.789s26.09-20.606,35.161-32.37" transform="translate(112.403 -321.694)" fill="none" stroke="#fff" stroke-linecap="round" stroke-linejoin="round" stroke-width="1.114"/>
        <path id="Path_3574" data-name="Path 3574" d="M383.245,438.085S344.3,418.112,328.63,406.9" transform="translate(104.702 -306.772)" fill="none" stroke="#fff" stroke-linecap="round" stroke-linejoin="round" stroke-width="1.114"/>
        <path id="Path_3575" data-name="Path 3575" d="M124.547,350.832c-3.245,3.456-1.428,11.78.665,15.414.178.325,3.521,4.949,3.57,4.868h.1c.292,1.363.584,2.71.957,4.251.714,2.807,1.623,5.955,2.661,9.362a103.566,103.566,0,0,0,4.17,10.79A72.9,72.9,0,0,0,143,406.761a.664.664,0,0,1,0,.146c-1.087-.86-4.219-3.1-4.494-3.245-3.651-2.077-11.958-3.894-15.414-.681a5.582,5.582,0,0,0,0,7.9l.422.373c2.482,2.19,6.588,2.255,9.735,1.623,3.472-.7,9.735-5.225,10.173-5.582a96.421,96.421,0,0,0,8.4,10.141c1.752,1.85,3.57,3.683,5.419,5.5-.957-.714-1.833-1.33-1.963-1.4-3.683-2.061-11.958-3.894-15.414-.681a5.565,5.565,0,0,0-.1,7.869l.454.406c2.5,2.207,6.588,2.255,9.735,1.623s8.47-4.381,9.9-5.387L162,427.448c3.44,3.245,6.912,6.49,10.173,9.735,1.168,1.152,2.272,2.353,3.342,3.537-.86-.633-1.623-1.136-1.623-1.2-3.651-2.061-11.958-3.894-15.414-.681a5.565,5.565,0,0,0-.081,7.869l.454.406c2.482,2.207,6.588,2.255,9.735,1.623s7.967-4.008,9.735-5.208c1.1,1.249,2.19,2.5,3.245,3.748.681.876,1.379,1.623,2.012,2.6s1.249,1.769,1.866,2.645c1.152,1.72,2.32,3.5,3.391,5.225.73,1.136,1.412,2.288,2.109,3.424-1.136-1.168-3.424-3.424-3.635-3.586a21.71,21.71,0,0,0-10.173-3.959,6.359,6.359,0,0,0-1.038-.681,5.6,5.6,0,0,0-7.626,2.077,3.1,3.1,0,0,0-.26.519c-1.736,4.381,2.921,11.455,6.166,14.149.195.162,2.466,1.623,3.878,2.5l-2.791-1.233-5.89-2.4-3.05-1.1c-1.022-.389-2.126-.681-3.245-1.022-2.5-.746-5.079-1.379-7.723-2.012.665-1.623,3.148-7.658,3.132-10.774s-.99-7.123-3.667-9.086a5.549,5.549,0,0,0-7.8.909c-.13.162-.243.341-.357.5-2.418,4.073,1.152,11.763,3.943,14.911.178.195,2.434,2.223,3.7,3.245-1.623-.325-3.132-.665-4.738-.974-4.64-.827-9.346-1.623-14.035-2.272-1.444-.211-2.888-.471-4.316-.681.26-.6,3.342-7.61,3.245-11.131,0-3.132-.974-7.123-3.651-9.1a5.565,5.565,0,0,0-7.821.925,5.461,5.461,0,0,0-.341.5c-2.418,4.056,1.136,11.763,3.943,14.895.146.276,3.456,3.164,4.316,3.862-3.148-.5-6.279-1.055-9.362-1.72a100.613,100.613,0,0,1-12.3-3.375c.13-.276,3.359-7.577,3.245-11.163,0-3.131-.974-7.139-3.651-9.1a5.565,5.565,0,0,0-7.8.909c-.13.162-.243.341-.357.5-2.4,4.073,1.152,11.78,3.959,14.911.114.243,2.661,2.434,3.845,3.472l-.13.227a71.9,71.9,0,0,1-11.52-5.6c-2.028-1.184-3.927-2.482-5.7-3.7.73-1.3,4.073-7.253,4.381-10.514s-.195-7.188-2.629-9.443a5.565,5.565,0,0,0-7.886,0,2.515,2.515,0,0,0-.389.438c-3.067,3.91-.471,12.023,1.963,15.4.1.211,1.623,1.947,2.823,3.245l-2.418-1.752c-2.839-2.126-5.322-4.251-7.512-6.166-1.233-1.087-2.3-2.093-3.245-3.067,0-1.623.227-8.291-.974-11.277s-3.456-6.312-6.717-7.155a5.565,5.565,0,0,0-6.961,3.683,3.844,3.844,0,0,0-.146.584c-.763,4.641,5.338,10.563,9.07,12.477.325.162,5.663,2.19,5.63,2.125V434l3.083,3.034c2.126,1.915,4.592,4.154,7.4,6.344a97.781,97.781,0,0,0,9.411,6.685,74.02,74.02,0,0,0,11.374,5.792h.146c-1.379-.1-5.241-.292-5.533-.227-4.186.308-12.1,3.359-13.24,7.918a5.614,5.614,0,0,0,4.316,6.636l.568.081c3.245.471,6.734-1.752,8.956-3.975,2.5-2.5,5.192-9.735,5.387-10.319a99.635,99.635,0,0,0,12.494,3.959c2.5.6,5.03,1.12,7.561,1.623h-2.4c-4.2.292-12.12,3.359-13.24,7.934a5.582,5.582,0,0,0,4.3,6.62,1.2,1.2,0,0,1,.568.1c3.245.471,6.734-1.769,8.956-3.991s4.722-8.34,5.289-9.946l2.937.535c4.689.828,9.378,1.623,13.938,2.564,1.623.325,3.245.714,4.754,1.087h-2.093c-4.186.292-12.12,3.359-13.224,7.918a5.6,5.6,0,0,0,4.3,6.636h.568c3.245.471,6.734-1.752,8.956-3.975s4.43-7.756,5.176-9.735c1.623.438,3.245.876,4.738,1.363,1.038.357,2.061.633,3.083,1.055l3.034,1.168c1.931.811,3.878,1.623,5.711,2.5,1.266.568,2.482,1.136,3.7,1.72-1.623-.357-4.738-.957-5.014-.974-4.2-.341-12.494,1.477-14.246,5.89a5.549,5.549,0,0,0,3.245,7.172l.584.178c3.245.957,6.928-.714,9.459-2.564,2.775-2.044,6.49-8.486,6.863-9.281,2,.957,3.991,1.882,5.793,2.839,6.344,3.245,11.5,6.085,15.09,8.113l.357.211,1.915-2.564-.714-.406c-3.667-2.012-8.94-4.868-15.414-7.918-2.028-.99-4.235-1.98-6.49-2.985a64.01,64.01,0,0,0,1.412-6.977c3.553-.325,9.735-3.5,10.449-3.91,1.168,1.915,2.272,3.781,3.245,5.565,3.521,6.149,6.247,11.358,8.113,15.138l.211.422,2.109-2.823c-1.9-3.651-4.592-8.5-8-14.149-1.152-1.947-2.434-4.008-3.781-6.1.7-.6,6.182-5.517,7.561-8.664,1.266-2.872,2.093-6.88.5-9.735a5.582,5.582,0,0,0-7.5-2.45l-.535.308c-3.862,2.677-3.878,11.163-2.661,15.2.114.211,1.152,2.726,1.833,4.283-.552-.844-1.071-1.623-1.623-2.564-1.136-1.72-2.32-3.424-3.586-5.241l-1.947-2.628c-.617-.876-1.4-1.72-2.109-2.612-1.623-2.012-3.472-3.959-5.338-5.906,1.525-.974,6.847-4.592,8.551-7.237s3.115-6.49,1.963-9.605a5.565,5.565,0,0,0-7.009-3.553q-.3.1-.584.227c-4.235,2.061-5.549,10.417-4.868,14.6,0,.26.811,3.245,1.249,4.868-1.12-1.136-2.239-2.3-3.407-3.44-3.407-3.245-6.944-6.49-10.465-9.638l-3.245-2.937c.535-.357,6.961-4.511,8.875-7.48,1.623-2.629,3.115-6.49,1.963-9.589a5.549,5.549,0,0,0-7.042-3.553,3.851,3.851,0,0,0-.552.211c-4.235,2.077-5.549,10.417-4.868,14.6,0,.325,1.152,4.543,1.477,5.614-2.353-2.174-4.673-4.365-6.863-6.62a97.967,97.967,0,0,1-8.356-9.589c.276-.146,6.993-4.462,8.94-7.512,1.623-2.629,3.115-6.49,1.963-9.605a5.565,5.565,0,0,0-7.042-3.537l-.552.211c-4.235,2.061-5.549,10.417-4.868,14.6,0,.292.876,3.488,1.314,5.014l-.243.13a72.242,72.242,0,0,1-6.49-11.017,66.133,66.133,0,0,1-2.726-6.231c1.33-.681,7.383-3.829,9.427-6.393s3.829-6.1,3.034-9.33a5.565,5.565,0,0,0-6.587-4.3l-.6.162c-4.446,1.623-6.652,9.735-6.49,13.938,0,.243.341,2.547.584,4.2-.357-.925-.73-1.882-1.055-2.758-1.184-3.359-2.061-6.49-2.856-9.3-.422-1.623-.763-3.034-1.087-4.381.957-1.347,4.868-6.815,5.387-9.946s.584-7.172-1.623-9.735A5.582,5.582,0,0,0,124.547,350.832Z" transform="translate(-61.56 -342.588)" fill="#e61030"/>
        <g id="Group_323" data-name="Group 323" transform="translate(0.181 6.645)" opacity="0.5">
          <path id="Path_3576" data-name="Path 3576" d="M114.244,377.265s-3.5-4.494-3.764-4.738c-3.034-2.937-10.514-6.912-14.6-4.738a5.565,5.565,0,0,0-2.142,7.594c.1.162.195.341.308.5,1.833,2.758,5.76,3.91,8.892,4.105C106.52,380.251,114.244,377.265,114.244,377.265Z" transform="translate(-42.156 -338.153)" fill="#e61030"/>
          <path id="Path_3577" data-name="Path 3577" d="M124.478,350.721c-3.245,3.456-1.428,11.78.681,15.414.162.325,3.521,4.949,3.57,4.868h0c.292,1.363.584,2.71.957,4.251.714,2.807,1.623,5.955,2.661,9.378a103.407,103.407,0,0,0,4.186,10.774,71.571,71.571,0,0,0,6.328,11.244.585.585,0,0,1,0,.146c-1.087-.86-4.2-3.1-4.478-3.245-3.667-2.061-11.958-3.894-15.414-.681a5.581,5.581,0,0,0,0,7.9l.422.373c2.5,2.19,6.588,2.255,9.735,1.623,3.472-.7,9.735-5.225,10.173-5.581a100.6,100.6,0,0,0,8.4,10.141c1.752,1.866,3.57,3.683,5.436,5.5-.974-.714-1.85-1.33-1.979-1.4-3.667-2.061-11.958-3.894-15.414-.681a5.565,5.565,0,0,0,0,7.869,5.2,5.2,0,0,0,.438.406c2.5,2.207,6.6,2.255,9.735,1.623s8.486-4.381,9.914-5.387c.714.681,1.412,1.4,2.142,2.077,3.44,3.245,6.912,6.49,10.173,9.735,1.152,1.152,2.255,2.353,3.342,3.537l-1.7-1.2c-3.667-2.061-11.958-3.894-15.414-.681a5.565,5.565,0,0,0-.1,7.869l.454.406c2.5,2.207,6.588,2.255,9.735,1.623s7.967-4.024,9.638-5.225c1.1,1.249,2.207,2.5,3.245,3.748.681.876,1.379,1.623,2.012,2.6s1.249,1.769,1.882,2.645c1.136,1.72,2.32,3.5,3.391,5.225.714,1.136,1.412,2.288,2.109,3.424-1.136-1.168-3.44-3.424-3.634-3.586a21.873,21.873,0,0,0-10.19-3.959,5.37,5.37,0,0,0-1.038-.665,5.582,5.582,0,0,0-7.626,2.061,5.151,5.151,0,0,0-.26.519c-1.736,4.381,2.937,11.455,6.182,14.149.178.162,2.45,1.622,3.878,2.5l-2.807-1.233-5.874-2.4-3.067-1.1c-1.006-.389-2.126-.665-3.245-1.022-2.5-.746-5.079-1.379-7.707-2.012.649-1.623,3.132-7.658,3.115-10.757s-.974-7.139-3.651-9.1a5.582,5.582,0,0,0-7.821.909c-.13.162-.243.341-.357.5-2.4,4.073,1.168,11.763,3.959,14.911.178.195,2.434,2.223,3.683,3.245-1.623-.324-3.132-.665-4.738-.974-4.624-.828-9.33-1.541-14.035-2.272-1.444-.211-2.872-.454-4.3-.681.26-.6,3.245-7.61,3.245-11.131,0-3.131-.974-7.123-3.651-9.1a5.549,5.549,0,0,0-7.8.925,5.607,5.607,0,0,0-.357.5c-2.4,4.056,1.152,11.763,3.959,14.911.13.26,3.456,3.148,4.316,3.845-3.245-.5-6.3-1.055-9.378-1.72a100.6,100.6,0,0,1-12.3-3.375c.13-.276,3.375-7.577,3.245-11.163,0-3.132-.974-7.123-3.651-9.1a5.565,5.565,0,0,0-7.821.925,3.245,3.245,0,0,0-.341.487c-2.418,4.073,1.136,11.78,3.943,14.911.13.243,2.661,2.434,3.862,3.472l-.146.227a71.74,71.74,0,0,1-11.5-5.6c-2.028-1.185-3.927-2.483-5.7-3.7.73-1.282,4.056-7.253,4.365-10.514s-.178-7.188-2.629-9.443a5.582,5.582,0,0,0-7.886,0c-.13.13-.26.292-.389.438-2.823,3.78-.13,11.828,2.288,15.268.114.195,1.623,1.931,2.839,3.245l-2.418-1.769c-2.856-2.126-5.322-4.251-7.512-6.149-1.233-1.1-2.32-2.109-3.245-3.067,0-1.623.211-8.307-.974-11.358s-3.472-6.312-6.717-7.155a5.582,5.582,0,0,0-6.977,3.683l-.146.584c-.746,4.64,5.338,10.563,9.086,12.477.308.162,5.646,2.207,5.614,2.126v-.081c.974.99,2,1.979,3.067,3.034,2.126,1.915,4.592,4.154,7.415,6.344a93.182,93.182,0,0,0,9.411,6.685,73.14,73.14,0,0,0,11.488,5.906h.146c-1.379-.1-5.241-.292-5.517-.227-4.2.308-12.12,3.359-13.24,7.934a5.582,5.582,0,0,0,4.3,6.62l.584.081c3.245.471,6.734-1.752,8.94-3.975,2.515-2.5,5.192-9.735,5.387-10.319a99.05,99.05,0,0,0,12.2,4.073c2.482.6,5.014,1.12,7.545,1.623h-2.4c-4.186.308-12.1,3.359-13.224,7.934a5.565,5.565,0,0,0,4.284,6.62,3.67,3.67,0,0,0,.584.1c3.245.471,6.734-1.769,8.956-3.991s4.705-8.34,5.289-9.946l2.937.535c4.673.828,9.362,1.623,13.921,2.564,1.623.341,3.245.73,4.754,1.087h-2.093c-4.186.292-12.1,3.359-13.224,7.918a5.6,5.6,0,0,0,4.3,6.636l.568.1c3.245.454,6.75-1.769,8.956-3.991s4.446-7.756,5.176-9.735c1.623.438,3.245.876,4.738,1.363,1.038.357,2.061.633,3.1,1.055l3.034,1.168c1.915.811,3.862,1.623,5.7,2.5,1.282.568,2.5,1.152,3.716,1.72-1.623-.341-4.754-.957-5.03-.973-4.186-.341-12.477,1.476-14.246,5.89a5.565,5.565,0,0,0,3.245,7.172l.584.195c3.245.941,6.928-.73,9.459-2.58,2.791-2.044,6.49-8.486,6.863-9.281,2.012.957,3.991,1.9,5.792,2.839,6.36,3.245,11.52,6.085,15.09,8.113l.373.211,1.9-2.564-.714-.406c-3.667-2.012-8.94-4.868-15.414-7.9-2.028-1.006-4.235-2-6.49-3a63.276,63.276,0,0,0,1.412-6.977c3.553-.325,9.735-3.5,10.465-3.91,1.152,1.915,2.255,3.78,3.245,5.565,3.521,6.149,6.231,11.358,8.113,15.138l.227.422,2.093-2.823c-1.9-3.651-4.576-8.5-7.983-14.149-1.168-1.947-2.45-4.008-3.781-6.1.681-.6,6.166-5.517,7.545-8.664,1.282-2.872,2.093-6.88.5-9.735a5.565,5.565,0,0,0-7.5-2.434,3.238,3.238,0,0,0-.519.292c-3.878,2.677-3.878,11.163-2.661,15.2.114.211,1.136,2.726,1.817,4.284L190,456.332c-1.136-1.72-2.32-3.424-3.57-5.241l-1.947-2.628c-.633-.876-1.4-1.72-2.109-2.612-1.623-2.012-3.472-3.959-5.338-5.906,1.509-.973,6.831-4.592,8.551-7.237s3.115-6.49,1.963-9.605a5.582,5.582,0,0,0-7.026-3.553l-.568.227c-4.235,2.061-5.565,10.417-4.868,14.6,0,.26.8,3.245,1.233,4.868-1.12-1.136-2.223-2.3-3.407-3.44-3.407-3.245-6.928-6.49-10.465-9.638l-3.245-2.937c.535-.357,6.977-4.511,8.875-7.48,1.623-2.629,3.115-6.49,1.98-9.589a5.565,5.565,0,0,0-7.042-3.553l-.568.211c-4.219,2.077-5.549,10.417-4.868,14.6,0,.325,1.152,4.543,1.477,5.614-2.336-2.174-4.657-4.365-6.847-6.62a93.813,93.813,0,0,1-8.356-9.589c.26-.146,6.977-4.462,8.94-7.512,1.623-2.629,3.115-6.49,1.963-9.605a5.581,5.581,0,0,0-7.058-3.537l-.535.211c-4.235,2.061-5.565,10.417-4.868,14.6,0,.292.876,3.5,1.3,5.03l-.227.114a72.336,72.336,0,0,1-6.49-11.017c-1.071-2.093-1.915-4.186-2.726-6.23,1.33-.682,7.4-3.829,9.443-6.393s3.829-6.1,3.018-9.33a5.549,5.549,0,0,0-6.588-4.284,4.12,4.12,0,0,0-.6.162c-4.43,1.623-6.636,9.735-6.49,13.921,0,.243.341,2.547.584,4.219-.341-.941-.714-1.9-1.038-2.775-1.2-3.359-2.077-6.49-2.856-9.3-.422-1.623-.779-3.018-1.087-4.381.957-1.347,4.868-6.815,5.387-9.946s.568-7.172-1.623-9.735A5.6,5.6,0,0,0,124.478,350.721Z" transform="translate(-61.671 -349.285)" fill="#fff"/>
          <path id="Path_3578" data-name="Path 3578" d="M79.48,418.119c3.245-1.817,7.983-8.551,8-8.551s-5.436-1.785-5.76-1.882c-4.154-.86-12.575,0-14.846,4.154a5.549,5.549,0,0,0,2.353,7.5l.568.26C72.86,420.942,76.771,419.741,79.48,418.119Z" transform="translate(-58.827 -313.115)" fill="#e61030"/>
        </g>
      </g>
    </g>
    <g id="freepik--Stats--inject-66" transform="translate(135.71 63.83)">
      <circle id="Ellipse_230" data-name="Ellipse 230" cx="185.148" cy="185.148" r="185.148" transform="translate(46.388 100.938)" fill="none" stroke="#263238" stroke-linecap="round" stroke-linejoin="round" stroke-width="1.888"/>
      <g id="freepik--stats--inject-66-2" data-name="freepik--stats--inject-66" transform="translate(0 12.266)">
        <path id="Path_3579" data-name="Path 3579" d="M314.372,240,192.341,403.974a192.012,192.012,0,0,1-64.431-73.42Z" transform="translate(-94.405 33.577)" fill="#e61030" stroke="#263238" stroke-miterlimit="10" stroke-width="0.944"/>
        <path id="Path_3580" data-name="Path 3580" d="M312.868,240.74l-120.6,162.141A189.838,189.838,0,0,1,128.58,330.4Z" transform="translate(-93.987 34.037)" fill="#fff" opacity="0.3"/>
        <line id="Line_39" data-name="Line 39" y1="13.986" x2="11.244" transform="translate(140.204 354.412)" fill="none" stroke="#fff" stroke-linecap="round" stroke-linejoin="round" stroke-width="0.944"/>
        <path id="Path_3581" data-name="Path 3581" d="M154.85,335.231a130.042,130.042,0,0,0,19.114,15.5l39.168-48.676" transform="translate(-77.633 72.205)" fill="none" stroke="#fff" stroke-linecap="round" stroke-linejoin="round" stroke-width="0.944"/>
        <path id="Path_3582" data-name="Path 3582" d="M143.22,310s4.868,5.955,11.991,13.386" transform="translate(-84.873 77.154)" fill="none" stroke="#fff" stroke-linecap="round" stroke-linejoin="round" stroke-width="0.944"/>
        <path id="Path_3583" data-name="Path 3583" d="M484.142,267.24a221.575,221.575,0,0,1-28.654,109.392L245.71,254.941,478.2,216c1.9,8.015,4.235,24.744,4.235,24.744a211.268,211.268,0,0,1,1.7,26.5Z" transform="translate(-21.069 18.636)" fill="#e61030" stroke="#263238" stroke-miterlimit="10" stroke-width="0.944"/>
        <path id="Path_3584" data-name="Path 3584" d="M483.919,267.24A221.574,221.574,0,0,1,455.2,376.632L244.61,254.941,478,216c1.9,8.015,4.251,24.744,4.251,24.744a213.985,213.985,0,0,1,1.671,26.5Z" transform="translate(-21.754 18.636)" fill="#fff" opacity="0.3"/>
        <path id="Path_3585" data-name="Path 3585" d="M383.05,286.143a151.35,151.35,0,0,0,4.235-16.793" transform="translate(64.431 51.848)" fill="none" stroke="#fff" stroke-linecap="round" stroke-linejoin="round" stroke-width="0.944"/>
        <path id="Path_3586" data-name="Path 3586" d="M351.1,298.408l35.907,17.41A259.987,259.987,0,0,0,400.652,284" transform="translate(44.54 60.968)" fill="none" stroke="#fff" stroke-linecap="round" stroke-linejoin="round" stroke-width="0.944"/>
        <line id="Line_40" data-name="Line 40" x2="19.065" y2="9.248" transform="translate(370.183 347.029)" fill="none" stroke="#fff" stroke-linecap="round" stroke-linejoin="round" stroke-width="0.944"/>
        <path id="Path_3587" data-name="Path 3587" d="M231.19,71.39c-55.507,13.856-123.93,74.134-123.93,74.134l.714.7,218.41,198.745Z" transform="translate(-107.26 -71.39)" fill="#e61030" stroke="#263238" stroke-miterlimit="10" stroke-width="0.944"/>
        <path id="Path_3588" data-name="Path 3588" d="M230.591,73.6h-.146c-63,16-121.285,72.544-121.285,72.544l.714.7L323.579,341.3Z" transform="translate(-106.077 -70.014)" fill="#fff" opacity="0.3"/>
        <line id="Line_41" data-name="Line 41" x2="21.255" y2="20.071" transform="translate(69.169 127.791)" fill="none" stroke="#fff" stroke-linecap="round" stroke-linejoin="round" stroke-width="0.944"/>
        <path id="Path_3589" data-name="Path 3589" d="M141,103.18a230.206,230.206,0,0,0-26.074,22.57l49.634,46.908" transform="translate(-102.485 -51.599)" fill="none" stroke="#fff" stroke-linecap="round" stroke-linejoin="round" stroke-width="0.944"/>
        <path id="Path_3590" data-name="Path 3590" d="M147.717,95.1s-5.582,3.488-13.467,9.167" transform="translate(-90.458 -56.63)" fill="none" stroke="#fff" stroke-linecap="round" stroke-linejoin="round" stroke-width="0.944"/>
        <path id="Path_3591" data-name="Path 3591" d="M201.818,135.922l4.673-2.142-.99-5.614-5.176-.406a23.234,23.234,0,0,0-2.6-4.868l2.71-4.446-4.04-4.137L191.855,117a22.716,22.716,0,0,0-8.681-3.537l-1.282-5.176h-5.728l-1.3,5.176a22.343,22.343,0,0,0-5.176,1.623l-4.089-3.537L160.93,114.8l1.931,5.046a23.964,23.964,0,0,0-3.245,4.267l-5.371-.552-1.963,5.354,4.462,3.034a22.934,22.934,0,0,0-.324,3.8v1.623l-4.689,2.6,1.477,5.517,5.306-.081a22.149,22.149,0,0,0,2.921,4.64l-2.336,4.835,4.413,3.683,4.235-3.034a23.088,23.088,0,0,0,5.192,2.158l.844,5.111,5.7.5,1.72-4.868a22.715,22.715,0,0,0,5.484-1.184l3.586,3.651,4.949-2.856-1.363-4.868a22.473,22.473,0,0,0,3.813-4.137l5.03.925,2.418-5.176-3.894-3.245a23.918,23.918,0,0,0,.6-5.614Zm-8.47,0a14.246,14.246,0,1,1-4.167-10.084,14.262,14.262,0,0,1,4.167,10.084Z" transform="translate(-79.576 -48.418)" fill="#fff" stroke="#263238" stroke-linecap="round" stroke-linejoin="round" stroke-width="0.944"/>
      </g>
      <path id="Path_3592" data-name="Path 3592" d="M350.291,88.014,321.864,95.3l7.188-28.427a29.206,29.206,0,1,0,21.239,21.093Z" transform="translate(8.242 -62.476)" fill="#e61030" stroke="#263238" stroke-linecap="round" stroke-linejoin="round" stroke-width="0.98"/>
      <path id="Path_3593" data-name="Path 3593" d="M341.069,84.1c-2.32-9.086-10.9-17.994-20.006-20.266L313.81,91.559Z" transform="translate(21.326 -63.83)" fill="#263238"/>
    </g>
    <g id="freepik--Character--inject-66" transform="translate(268.56 142.859)">
      <g id="freepik--character--inject-66-2" data-name="freepik--character--inject-66">
        <path id="Path_3594" data-name="Path 3594" d="M246.891,214l4.657,23.283s9.735,4.137,29.206,0l9.021-29.027s-8.908-1.493-9.833-25.1l9.2-16.566s3.991,7.058,7.366-.308,7.058-19.324.925-19.617-11.049.909-21.466-4.868-21.174-19.016-21.174-19.016l-14.408,12.883s-4.3,35.891,13.5,49.682c-2.531.487-.617,23.154,1.055,24.046C257.616,210.754,246.891,214,246.891,214Z" transform="translate(-157.518 -106.16)" fill="#fff"/>
        <path id="Path_3595" data-name="Path 3595" d="M241.13,129.09S240.562,151.3,244.78,166,262,189.092,268.956,186.22c4.868-2.012,14.6-9.735,18.448-25.717" transform="translate(-156.786 -102.232)" fill="none" stroke="#263238" stroke-linecap="round" stroke-linejoin="round" stroke-width="0.944"/>
        <path id="Path_3596" data-name="Path 3596" d="M252.115,141.785c.114,1.623.746,2.775,1.428,2.726s1.136-1.347,1.022-2.9-.746-2.775-1.412-2.726S252.018,140.227,252.115,141.785Z" transform="translate(-149.94 -96.138)" fill="#263238"/>
        <path id="Path_3597" data-name="Path 3597" d="M244.012,141.775c.1,1.623.73,2.775,1.412,2.726s1.136-1.347,1.038-2.9-.746-2.775-1.428-2.726S243.849,140.217,244.012,141.775Z" transform="translate(-154.995 -96.144)" fill="#263238"/>
        <path id="Path_3598" data-name="Path 3598" d="M248.564,139.67a16.339,16.339,0,0,1,.26,4.348,5.387,5.387,0,0,1-2,3.764,6.879,6.879,0,0,0-1.444,1.087,2.677,2.677,0,0,0,.243,3.148,23.8,23.8,0,0,0,2.4,2.385" transform="translate(-154.371 -95.645)" fill="none" stroke="#263238" stroke-linecap="round" stroke-linejoin="round" stroke-width="0.944"/>
        <path id="Path_3599" data-name="Path 3599" d="M258.637,151.42a17.361,17.361,0,0,1-3.8,3.1,8.729,8.729,0,0,1-6.49.357" transform="translate(-152.275 -88.33)" fill="none" stroke="#263238" stroke-linecap="round" stroke-linejoin="round" stroke-width="0.944"/>
        <path id="Path_3600" data-name="Path 3600" d="M242.8,137.725s.925-5.127,5.825-3.115" transform="translate(-155.731 -99.087)" fill="none" stroke="#263238" stroke-linecap="round" stroke-linejoin="round" stroke-width="0.944"/>
        <path id="Path_3601" data-name="Path 3601" d="M252.2,135.509a4.868,4.868,0,0,1,5.614-2.028,7.788,7.788,0,0,1,4.462,4.43" transform="translate(-149.879 -99.646)" fill="none" stroke="#263238" stroke-linecap="round" stroke-linejoin="round" stroke-width="0.944"/>
        <path id="Path_3602" data-name="Path 3602" d="M270.563,143.158s1.9-6.3,6.149-5.565,5.111,3.959,4.235,9.07-3.5,11.861-7.9,10.108a5.727,5.727,0,0,1-3.943-5.711" transform="translate(-139.36 -96.975)" fill="none" stroke="#263238" stroke-linecap="round" stroke-linejoin="round" stroke-width="0.944"/>
        <path id="Path_3603" data-name="Path 3603" d="M264.26,160.53a77.688,77.688,0,0,0,1.98,13.224,22.586,22.586,0,0,0,2.174,6.49,9.021,9.021,0,0,0,5.144,4.4" transform="translate(-142.371 -82.659)" fill="none" stroke="#263238" stroke-linecap="round" stroke-linejoin="round" stroke-width="0.944"/>
        <path id="Path_3604" data-name="Path 3604" d="M244.17,191.27l6.734-3.683a2.564,2.564,0,0,0,1.347-2.044c.341-4.219,1.2-16.307-1.347-24.663" transform="translate(-154.878 -82.441)" fill="none" stroke="#263238" stroke-linecap="round" stroke-linejoin="round" stroke-width="0.944"/>
        <path id="Path_3605" data-name="Path 3605" d="M277.354,117.048s-15.43-5.922-25.036,14.392-6.863,31.607-22.1,49.39-9.881,36.686-2.823,46.843l7.821-1.623s-1.623-3.472,5.16-4.592,16.518-3.067,16.518-3.067l2.953.974,6.944-4.219a115.472,115.472,0,0,0-.73-27.032s-7.253-7.285-9.232-16.6-2.629-31.331-2.629-31.331,6.3-.8,11.358-10.465C270.961,125.372,275.829,124.35,277.354,117.048Z" transform="translate(-169.662 -110.228)" fill="#263238"/>
        <path id="Path_3606" data-name="Path 3606" d="M286.194,153.142c-16.469-3.91-32.24-13.143-38.324-26.058l12.4-9.248s25.961-12.818,36.231,15.852,3.586,80.543,3.586,80.543l-12.818-2.32-2.482,1.12a13.272,13.272,0,0,1-8.34-10.92,117.494,117.494,0,0,0-2.4-14.084,37.579,37.579,0,0,0,9.313-18.821s7.821,7.123,10.53-5.387C295.638,155.576,292.62,148.713,286.194,153.142Z" transform="translate(-152.574 -111.016)" fill="#263238"/>
        <path id="Path_3607" data-name="Path 3607" d="M255.73,120.476s5.971-9.476,16.55-7.723" transform="translate(-147.681 -112.537)" fill="none" stroke="#263238" stroke-linecap="round" stroke-linejoin="round" stroke-width="0.944"/>
        <path id="Path_3608" data-name="Path 3608" d="M243.908,149.53a38.6,38.6,0,0,1-1.785,4.332c-2.255,4.592-5.517,8.616-7.967,13.126a41.991,41.991,0,0,0-2.839,33.019" transform="translate(-164.205 -89.507)" fill="none" stroke="#fff" stroke-linecap="round" stroke-linejoin="round" stroke-width="0.472"/>
        <path id="Path_3609" data-name="Path 3609" d="M243.927,153.84a75.14,75.14,0,0,0-2.775,40.061" transform="translate(-157.701 -86.824)" fill="none" stroke="#fff" stroke-linecap="round" stroke-linejoin="round" stroke-width="0.472"/>
        <path id="Path_3610" data-name="Path 3610" d="M255.59,121s11.179,18.351,27.064,24.825" transform="translate(-147.768 -107.268)" fill="none" stroke="#fff" stroke-linecap="round" stroke-linejoin="round" stroke-width="0.472"/>
        <path id="Path_3611" data-name="Path 3611" d="M257.52,119.362s20.574-1.12,27.583,27.08" transform="translate(-146.567 -108.291)" fill="none" stroke="#fff" stroke-linecap="round" stroke-linejoin="round" stroke-width="0.472"/>
        <path id="Path_3612" data-name="Path 3612" d="M253.681,427.267S265.9,449.5,266.289,455.5s-7.4,9.411-7.4,9.411l-11-6.7s-8.113-10.92-7.5-28.735S253.681,427.267,253.681,427.267Z" transform="translate(-157.25 79.457)" fill="#fff"/>
        <path id="Path_3613" data-name="Path 3613" d="M254.038,427.6c3.943,8.113,8.4,16.631,12.072,25.279a19.794,19.794,0,0,1,1.915,7.026,7.334,7.334,0,0,1-2.856,6.393c-2.629,1.736-6.214.892-8.94-.681a25.716,25.716,0,0,1-8.243-7.95c-7.026-10.271-8.242-23.43-7.48-35.842" transform="translate(-157.282 80.005)" fill="none" stroke="#263238" stroke-linecap="round" stroke-linejoin="round" stroke-width="0.944"/>
        <path id="Path_3614" data-name="Path 3614" d="M244,444.075c.925,1.947,5.143,4.4,7.123,5.208a10.6,10.6,0,0,0,8.437-.1c4.073-2.174,2.077-7.512,2.126-11.066,0,0,8.113,15.041.763,18.546S245.623,447.32,244,444.075Z" transform="translate(-154.984 90.152)" fill="#263238"/>
        <path id="Path_3615" data-name="Path 3615" d="M293.729,419.446s1.006,10.822-9.605,21.093-8.616,6.815-5.208,11.358,16.809.8,16.809.8l7.009-6.815s8.21-16.225,2.207-28.622S293.729,419.446,293.729,419.446Z" transform="translate(-134.943 74.055)" fill="#fff"/>
        <path id="Path_3616" data-name="Path 3616" d="M294.2,424.555c0,7.691-4.478,15.155-10.4,20.087a61.513,61.513,0,0,0-6.75,5.533c-1.947,2.158-3.245,5.257-2.239,8A7.512,7.512,0,0,0,281,462.555c9.995,1.266,19.211-6.782,22.894-15.463a43.809,43.809,0,0,0,3.894-19.617c-.487-7.042-3.05-13.743-5.565-20.266" transform="translate(-136.018 70.909)" fill="none" stroke="#263238" stroke-linecap="round" stroke-linejoin="round" stroke-width="0.944"/>
        <path id="Path_3617" data-name="Path 3617" d="M280.789,432.056a4.549,4.549,0,0,0,0,.471,6.036,6.036,0,0,0,3.115,4.868,10.936,10.936,0,0,0,6.263,1.184A19.909,19.909,0,0,0,304.2,431.31s-7.593,18.984-23.219,15.674S280.789,432.056,280.789,432.056Z" transform="translate(-136.314 85.913)" fill="#263238"/>
        <path id="Path_3618" data-name="Path 3618" d="M220.333,291.545l-.243,1.038c-1.623,6.636-9.459,43.809,2.937,77.8,13.678,37.416,20.866,35.972,15.836,53.966s-7.61,52.424,16.128,99.9l14.8-.633s-13.662-172.655-11.5-217.972h5.744s12.64,138.727,66.524,204.2l12.688-3.424s-.13-36.751-8.113-61.218S312.1,416.432,311.39,391.25s15.106-62.581,10.06-100.711L303.829,304.98l-11.569-23.9s-23.332,16.761-53.544-9.2Z" transform="translate(-172.318 -13.339)" fill="#263238"/>
        <path id="Path_3619" data-name="Path 3619" d="M222.857,223.379l8.21-31.072L247,189.728s-2-3.732,2.434-3.975,21.71-3.488,21.71-3.488l15.236,83.966,27.47-90.489s1.623-1.152,6.23-.8,15.593,2,16.225,3.05,3.083,1.525,3.083,1.525,16.615-.552,17.848,7.35c2.272,9.557-3.245,77.006-3.245,77.006s16.663,15.95,20.525,23.316l-12.007,17.313-22.083-11.715-14.944-9.638-2.353,3.894,28.654,46.713L313.346,365.3,284.14,294.4l-54.485,57.535-9.735-38.795,34.9-35.517-6.571-9.735s-12.7,23.219-19.26,23.705-19.86-17.2-21.093-19.47a2.207,2.207,0,0,1,1.168-3.245s-10.53-15.008-7.253-18.789c2.158-2.288,15.463,5.517,21.239,4.17,4.073-1.184,6.588-5.646,9.589-11.861a28.849,28.849,0,0,1-3.878-5.208Z" transform="translate(-181.641 -73.727)" fill="#e61030"/>
        <path id="Path_3620" data-name="Path 3620" d="M225.107,226.91s6.782-8.113,7.512-10.352c0,0,3.91-1.623,4.868,2.288a30.162,30.162,0,0,0,3.8,10.352c2.142,3.359-1.055,7.464-4.413,11.277s-5.143,8.956-8.664,9.281-17.377-5.939-17.377-5.939a8.113,8.113,0,0,1-5.192-6.7c-.763-5.322-5.565-9.573-3.927-12.98s11.536,4.251,15.8,3.959a6.231,6.231,0,0,0,7.593-1.184Z" transform="translate(-181.522 -47.987)" fill="#fff" opacity="0.5"/>
        <path id="Path_3621" data-name="Path 3621" d="M254.67,267.3s44.555-47.638,46.178-52-4.754-9.476-4.754-9.476-5.5-3.813-3.862-8.6,10.9-11.569,11.682-15.187-.844-3.781-.844-3.781-20.282-4.543-21.645-3.667-11.78,39.833-11.78,39.833Z" transform="translate(-148.341 -73.98)" fill="#fff" opacity="0.5"/>
        <path id="Path_3622" data-name="Path 3622" d="M269,261.021s-12.98-77.752-14.36-80.77-11.212.86-11.212.86-13.321.341-13.921,3.342,9.038,17.2,9.038,17.2-8.762,14.6-9.735,17.28,35.128,46.924,35.128,46.924,2.71,3.018,4.868,3.018S269,261.021,269,261.021Z" transform="translate(-164.454 -71.097)" fill="#fff" opacity="0.5"/>
        <path id="Path_3623" data-name="Path 3623" d="M251.834,179.228l-19.925,3.8a2.515,2.515,0,0,0-1.9,3.7l8.113,13.727a2.6,2.6,0,0,1,0,2.612l-9.216,15.8a2.6,2.6,0,0,0,.211,2.937L265.9,267.478a2.174,2.174,0,0,0,3.537-.195h0a2.515,2.515,0,0,0,.373-1.833L254.9,181.321a2.612,2.612,0,0,0-3.067-2.093Z" transform="translate(-164.602 -71.048)" fill="none" stroke="#263238" stroke-linecap="round" stroke-linejoin="round" stroke-width="0.944"/>
        <path id="Path_3624" data-name="Path 3624" d="M254.08,269.268l26.415-92.647a2.629,2.629,0,0,1,2.9-1.85l19.227,2.953a2.58,2.58,0,0,1,1.623,4.137l-11.682,15.187a2.58,2.58,0,0,0,0,3.131l8.762,11.682a2.612,2.612,0,0,1-.114,3.245Z" transform="translate(-148.708 -73.811)" fill="none" stroke="#263238" stroke-linecap="round" stroke-linejoin="round" stroke-width="0.944"/>
        <path id="Path_3625" data-name="Path 3625" d="M276.266,193.3c-11.358,4.511-29.206,0-29.206,0l11.163,63.279Z" transform="translate(-153.079 -62.258)" fill="#263238"/>
        <path id="Path_3626" data-name="Path 3626" d="M206.856,224.466c-1.963-1.363-4.154-1.363-5.079-.13a4.657,4.657,0,0,0-.162,4.43c.584,1.428,1.541,2.661,2.207,4.056.779,1.623,1.12,3.553,1.85,5.257,2.645,6.117,9.622,8.891,15.9,11.05a7.967,7.967,0,0,0,11.228-3.083l6.961-8.7a10.205,10.205,0,0,0,2.044-3.342c1.282-4.267-3.018-8.113-4.024-12.412a12.98,12.98,0,0,0-1.168-4.478c-.86-1.3-3.878-1.623-4.494-.243" transform="translate(-181.67 -48.139)" fill="none" stroke="#263238" stroke-linecap="round" stroke-linejoin="round" stroke-width="0.944"/>
        <path id="Path_3627" data-name="Path 3627" d="M255.97,233.16a17.734,17.734,0,0,0-4.868,13.71,51.011,51.011,0,0,0,3.5,14.6q12.2,34.43,27.681,67.6l38.454-31.591-28.654-46.729,2.158-4.186" transform="translate(-150.599 -37.444)" fill="none" stroke="#263238" stroke-linecap="round" stroke-linejoin="round" stroke-width="0.944"/>
        <path id="Path_3628" data-name="Path 3628" d="M241.187,231.81l6.685,10.368L212.76,277.631l9.687,38.795L277.3,259.231" transform="translate(-174.432 -38.284)" fill="none" stroke="#263238" stroke-linecap="round" stroke-linejoin="round" stroke-width="0.944"/>
        <ellipse id="Ellipse_231" data-name="Ellipse 231" cx="2.839" cy="4.576" rx="2.839" ry="4.576" transform="translate(107.01 202.742)" fill="#263238"/>
        <path id="Path_3629" data-name="Path 3629" d="M228.76,288.362s28.589,21.093,58.087,11.2L267.279,249.08Z" transform="translate(-164.471 -27.533)" fill="#263238"/>
        <path id="Path_3630" data-name="Path 3630" d="M214.69,218.571c0-8.015,7.967-31.9,7.967-31.9,4.008-1.184,16.128-2.742,16.128-2.742" transform="translate(-173.23 -68.092)" fill="none" stroke="#263238" stroke-linecap="round" stroke-linejoin="round" stroke-width="0.944"/>
        <path id="Path_3631" data-name="Path 3631" d="M285.43,177.81l12.8,1.428a7.772,7.772,0,0,1,7.22,7.967L301.7,262.912s10.206,6.328,20.379,22.488" transform="translate(-129.192 -71.901)" fill="none" stroke="#263238" stroke-linecap="round" stroke-linejoin="round" stroke-width="0.944"/>
        <path id="Path_3632" data-name="Path 3632" d="M300.99,230.53c-4.868.211-9.086.292-13.97.487" transform="translate(-128.202 -39.081)" fill="none" stroke="#263238" stroke-linecap="round" stroke-linejoin="round" stroke-width="0.944"/>
        <path id="Path_3633" data-name="Path 3633" d="M299.478,230.39,288.12,237.9" transform="translate(-127.517 -39.168)" fill="none" stroke="#263238" stroke-linecap="round" stroke-linejoin="round" stroke-width="0.944"/>
        <path id="Path_3634" data-name="Path 3634" d="M256.52,246.17l17.166,20.817" transform="translate(-147.189 -29.345)" fill="none" stroke="#263238" stroke-linecap="round" stroke-linejoin="round" stroke-width="0.944"/>
        <path id="Path_3635" data-name="Path 3635" d="M259.65,246.19a29.985,29.985,0,0,1,6.312,4.543" transform="translate(-145.241 -29.332)" fill="none" stroke="#263238" stroke-linecap="round" stroke-linejoin="round" stroke-width="0.944"/>
        <path id="Path_3636" data-name="Path 3636" d="M234.26,238.28a25.96,25.96,0,0,0,8.47,2.661" transform="translate(-161.047 -34.256)" fill="none" stroke="#263238" stroke-linecap="round" stroke-linejoin="round" stroke-width="0.944"/>
        <path id="Path_3637" data-name="Path 3637" d="M206.449,242.231a2.888,2.888,0,0,0-.99,3.326,8.486,8.486,0,0,0,2.093,3.05l10.855,11.634c2.044,2.207,4.446,4.559,7.447,4.673s5.565-2.109,7.561-4.381a93.94,93.94,0,0,0,8.81-12.526,29.207,29.207,0,0,0,2.823-5.306,30.065,30.065,0,0,0,1.363-7.2q.925-9.054,1.866-18.108" transform="translate(-179.089 -47.261)" fill="none" stroke="#263238" stroke-linecap="round" stroke-linejoin="round" stroke-width="0.944"/>
        <path id="Path_3638" data-name="Path 3638" d="M315.4,282.834s-29.709-14.327-37.481-21.482c0,0-2.19-27.048,1.541-51.921" transform="translate(-134.268 -52.217)" fill="none" stroke="#263238" stroke-linecap="round" stroke-linejoin="round" stroke-width="0.944"/>
        <path id="Path_3639" data-name="Path 3639" d="M273.54,214.61a22.863,22.863,0,0,0,4.089,12.283" transform="translate(-136.594 -48.992)" fill="none" stroke="#263238" stroke-linecap="round" stroke-linejoin="round" stroke-width="0.944"/>
        <path id="Path_3640" data-name="Path 3640" d="M343.9,247.19l.7,4.965-4.154,6.571-2.32-4.154Z" transform="translate(-96.39 -28.71)" fill="#e61030"/>
        <path id="Path_3641" data-name="Path 3641" d="M297.12,262.84l36.767,29.79,16.6-26.577,3.261,2.5-19.016,30.7-34.382-28.7Z" transform="translate(-121.914 -18.967)" fill="#e61030"/>
        <path id="Path_3642" data-name="Path 3642" d="M343.9,247.19l.7,4.965-4.154,6.571-2.32-4.154Z" transform="translate(-96.39 -28.71)" fill="#fff" opacity="0.4"/>
        <path id="Path_3643" data-name="Path 3643" d="M297.12,262.84l36.767,29.79,16.6-26.577,3.261,2.5-19.016,30.7-34.382-28.7Z" transform="translate(-121.914 -18.967)" fill="#fff" opacity="0.4"/>
        <path id="Path_3644" data-name="Path 3644" d="M351.033,286.989l-16.6,26.577L296.24,282.008l36.215-52.8L369.984,257.1l-5.792,9.07" transform="translate(-122.462 -39.903)" fill="#fff" stroke="#263238" stroke-linecap="round" stroke-linejoin="round" stroke-width="0.944"/>
        <path id="Path_3645" data-name="Path 3645" d="M339.14,259.591l4.332-7.074-.195-6.117" transform="translate(-95.755 -29.201)" fill="none" stroke="#263238" stroke-linecap="round" stroke-linejoin="round" stroke-width="0.944"/>
        <path id="Path_3646" data-name="Path 3646" d="M353.954,269.554l-18.675,30.374-33.846-28.589-5.192-9.589" transform="translate(-122.462 -19.645)" fill="none" stroke="#263238" stroke-linecap="round" stroke-linejoin="round" stroke-width="0.944"/>
        <line id="Line_42" data-name="Line 42" x2="30.244" y2="22.131" transform="translate(210.496 196.917)" fill="none" stroke="#263238" stroke-linecap="round" stroke-linejoin="round" stroke-width="0.944"/>
        <line id="Line_43" data-name="Line 43" x2="30.244" y2="22.131" transform="translate(208.306 199.983)" fill="none" stroke="#263238" stroke-linecap="round" stroke-linejoin="round" stroke-width="0.944"/>
        <line id="Line_44" data-name="Line 44" x2="24.095" y2="17.702" transform="translate(205.466 203.504)" fill="none" stroke="#263238" stroke-linecap="round" stroke-linejoin="round" stroke-width="0.944"/>
        <line id="Line_45" data-name="Line 45" x2="32.597" y2="23.803" transform="translate(203.26 206.782)" fill="none" stroke="#263238" stroke-linecap="round" stroke-linejoin="round" stroke-width="0.944"/>
        <line id="Line_46" data-name="Line 46" x2="21.921" y2="16.128" transform="translate(200.42 210.952)" fill="none" stroke="#263238" stroke-linecap="round" stroke-linejoin="round" stroke-width="0.944"/>
        <line id="Line_47" data-name="Line 47" x2="22.748" y2="16.891" transform="translate(197.792 214.895)" fill="none" stroke="#263238" stroke-linecap="round" stroke-linejoin="round" stroke-width="0.944"/>
        <line id="Line_48" data-name="Line 48" x2="24.938" y2="18.221" transform="translate(195.601 218.837)" fill="none" stroke="#263238" stroke-linecap="round" stroke-linejoin="round" stroke-width="0.944"/>
        <line id="Line_49" data-name="Line 49" x2="30.228" y2="22.131" transform="translate(193.411 222.78)" fill="none" stroke="#263238" stroke-linecap="round" stroke-linejoin="round" stroke-width="0.944"/>
        <line id="Line_50" data-name="Line 50" x2="30.228" y2="22.131" transform="translate(191.22 226.723)" fill="none" stroke="#263238" stroke-linecap="round" stroke-linejoin="round" stroke-width="0.944"/>
        <line id="Line_51" data-name="Line 51" x2="30.228" y2="22.131" transform="translate(189.03 230.666)" fill="none" stroke="#263238" stroke-linecap="round" stroke-linejoin="round" stroke-width="0.944"/>
        <path id="Path_3647" data-name="Path 3647" d="M214.275,259.148s12.023,5.582,16.307,4.365,8.892-10.66,8.892-10.66l-22.845-44.571s6.831-13.435,5.987-18.237-8.583-12.3-8.583-12.3l-1.46,1.444s-11.536-20.412-13.759-19.292,4.559,14.457,4.559,14.457a4.008,4.008,0,0,0-3.245,3.781S188.9,188.34,189.142,193.192s12.348,19.892,12.348,19.892Z" transform="translate(-189.138 -83.081)" fill="#fff"/>
        <path id="Path_3648" data-name="Path 3648" d="M196.251,187.7l4.121-5.143s7.529,6.49,8.908,5.143-7.545-16.1-9.248-16.1-10.968,11.991-10.628,15.755,11.991,19.195,11.991,19.195l12.688,46.259s9.248,4.446,14.733,4.105S239.7,245.283,239.7,245.283l-23.235-43.468s7.139-14.327,5.987-18.237-7.821-9.735-8.275-13.337a7.3,7.3,0,0,0-.471,8.275" transform="translate(-188.978 -76.614)" fill="none" stroke="#263238" stroke-linecap="round" stroke-linejoin="round" stroke-width="0.944"/>
        <path id="Path_3649" data-name="Path 3649" d="M194.81,173.829s1.9-5.208,4.267-4.738,8.113,9.962,8.113,12.331a14.277,14.277,0,0,1-1.184,5" transform="translate(-185.606 -77.348)" fill="none" stroke="#263238" stroke-linecap="round" stroke-linejoin="round" stroke-width="0.944"/>
        <path id="Path_3650" data-name="Path 3650" d="M209.476,180.552s-10.757-22.294-14.084-20.639,5.192,14.084,7.09,17.848" transform="translate(-185.718 -83.097)" fill="none" stroke="#263238" stroke-linecap="round" stroke-linejoin="round" stroke-width="0.944"/>
        <path id="Path_3651" data-name="Path 3651" d="M206.012,175.64a3.375,3.375,0,0,0-1.623,1.525,14.879,14.879,0,0,0-1.882,10.238" transform="translate(-180.957 -73.252)" fill="none" stroke="#263238" stroke-linecap="round" stroke-linejoin="round" stroke-width="0.944"/>
        <path id="Path_3652" data-name="Path 3652" d="M344.608,265.731s2.547-5.387-.957-8.632-12.98-13.759-14.749-12.51,11.5,18.5,11.5,18.5" transform="translate(-102.229 -30.393)" fill="#fff"/>
        <path id="Path_3653" data-name="Path 3653" d="M343.579,259.931c-6.344-4.559-16.4-10.693-17.621-9.459-1.752,1.752,12.25,12.737,12.25,12.737s-12.51-9.995-14.262-8c-1.071,1.233,5.273,6.49,10.287,10.822" transform="translate(-105.288 -26.767)" fill="#fff"/>
        <path id="Path_3654" data-name="Path 3654" d="M333.4,262.159c-4.2-3.878-8.567-7.48-9.427-6.62-1.736,1.752,11.488,17.848,14.6,18.416,3.472.6,3.57-3.813,3.57-3.813h0a5.711,5.711,0,0,0,3.91-4.77V264.8a4.868,4.868,0,0,0,.892-7.35l-2.207-1.493s-2.19,2.077-3.472,1.266" transform="translate(-105.296 -23.592)" fill="#fff"/>
        <path id="Path_3655" data-name="Path 3655" d="M344.608,265.731s2.547-5.387-.957-8.632-12.98-13.759-14.749-12.51,11.5,18.5,11.5,18.5" transform="translate(-102.229 -30.393)" fill="none" stroke="#263238" stroke-linecap="round" stroke-linejoin="round" stroke-width="0.944"/>
        <path id="Path_3656" data-name="Path 3656" d="M343.579,259.931c-6.344-4.559-16.4-10.693-17.621-9.459-1.752,1.752,12.25,12.737,12.25,12.737s-12.51-9.995-14.262-8c-1.071,1.233,5.273,6.49,10.287,10.822" transform="translate(-105.288 -26.767)" fill="none" stroke="#263238" stroke-linecap="round" stroke-linejoin="round" stroke-width="0.944"/>
        <path id="Path_3657" data-name="Path 3657" d="M333.4,262.159c-4.2-3.878-8.567-7.48-9.427-6.62-1.736,1.752,11.488,17.848,14.6,18.416,3.472.6,3.57-3.813,3.57-3.813h0a5.711,5.711,0,0,0,3.91-4.77V264.8s4.543-1.623,1.623-5.549" transform="translate(-105.296 -23.592)" fill="none" stroke="#263238" stroke-linecap="round" stroke-linejoin="round" stroke-width="0.944"/>
      </g>
    </g>
    <g id="freepik--Graphics--inject-66" transform="translate(152.325 142.215)">
      <g id="freepik--graphics--inject-66-2" data-name="freepik--graphics--inject-66">
        <path id="Path_3658" data-name="Path 3658" d="M195.043,296.81V234.229a4.089,4.089,0,0,0-4.089-4.089H181.9" transform="translate(-77.408 -38.68)" fill="none" stroke="#263238" stroke-linecap="round" stroke-linejoin="round" stroke-width="0.944" stroke-dasharray="1.888 1.888"/>
        <rect id="Rectangle_509" data-name="Rectangle 509" width="104.281" height="76.519" rx="3" transform="translate(0 154.839)" fill="#fff" stroke="#263238" stroke-linecap="round" stroke-linejoin="round" stroke-width="0.944"/>
        <rect id="Rectangle_510" data-name="Rectangle 510" width="27.453" height="20.363" rx="3" transform="translate(10.19 163.487)" fill="#fff" stroke="#263238" stroke-linecap="round" stroke-linejoin="round" stroke-width="0.944"/>
        <rect id="Rectangle_511" data-name="Rectangle 511" width="83.577" height="5.679" transform="translate(9.946 195.906)" fill="#263238"/>
        <rect id="Rectangle_512" data-name="Rectangle 512" width="48.417" height="5.679" transform="translate(45.09 178.123)" fill="#263238"/>
        <rect id="Rectangle_513" data-name="Rectangle 513" width="48.417" height="5.679" transform="translate(45.09 162.984)" fill="#263238"/>
        <rect id="Rectangle_514" data-name="Rectangle 514" width="83.334" height="5.598" transform="translate(10.417 212.602)" fill="#263238"/>
        <circle id="Ellipse_232" data-name="Ellipse 232" cx="4.219" cy="4.219" r="4.219" transform="translate(113.253 254.836)" fill="#fff" stroke="#263238" stroke-miterlimit="10" stroke-width="0.944"/>
        <rect id="Rectangle_515" data-name="Rectangle 515" width="107.185" height="68.341" rx="3" transform="translate(368.901 19.097)" fill="#263238"/>
        <line id="Line_52" data-name="Line 52" x2="1.525" transform="translate(311.577 142.524)" fill="none" stroke="#263238" stroke-linecap="round" stroke-linejoin="round" stroke-width="0.944"/>
        <path id="Path_3659" data-name="Path 3659" d="M312.39,240.241H323.5a5.468,5.468,0,0,0,5.452-5.452V140.828a5.452,5.452,0,0,1,5.452-5.468h19.665" transform="translate(3.827 -97.685)" fill="none" stroke="#263238" stroke-linecap="round" stroke-linejoin="round" stroke-width="0.944" stroke-dasharray="1.921 1.921"/>
        <line id="Line_53" data-name="Line 53" x2="1.525" transform="translate(359.458 37.675)" fill="none" stroke="#263238" stroke-linecap="round" stroke-linejoin="round" stroke-width="0.944"/>
        <rect id="Rectangle_516" data-name="Rectangle 516" width="104.281" height="76.519" rx="3" transform="translate(363.336)" fill="#fff" stroke="#263238" stroke-linecap="round" stroke-linejoin="round" stroke-width="0.944"/>
        <rect id="Rectangle_517" data-name="Rectangle 517" width="83.301" height="20.363" rx="3" transform="translate(375.067 8.632)" fill="none" stroke="#263238" stroke-linecap="round" stroke-linejoin="round" stroke-width="0.944"/>
        <rect id="Rectangle_518" data-name="Rectangle 518" width="79.926" height="5.5" transform="translate(378.101 41.245)" fill="#263238"/>
        <rect id="Rectangle_519" data-name="Rectangle 519" width="79.926" height="5.5" transform="translate(378.101 52.246)" fill="#263238"/>
        <circle id="Ellipse_233" data-name="Ellipse 233" cx="4.219" cy="4.219" r="4.219" transform="translate(310.944 138.305)" fill="#fff" stroke="#263238" stroke-miterlimit="10" stroke-width="0.944"/>
        <circle id="Ellipse_234" data-name="Ellipse 234" cx="4.219" cy="4.219" r="4.219" transform="translate(360.253 33.1)" fill="#fff" stroke="#263238" stroke-miterlimit="10" stroke-width="0.944"/>
      </g>
    </g>
  </g>
</svg>
