<svg xmlns="http://www.w3.org/2000/svg" width="561.378" height="549.359" viewBox="0 0 561.378 549.359">
  <g id="Report-pana" transform="translate(-37.33 -42.37)">
    <g id="freepik--background-complete--inject-22" transform="translate(44.95 42.37)">
      <path id="Path_3341" data-name="Path 3341" d="M402.783,494.957c-23.575-11.9-32.447-38.925-35.21-64.021-.463-4.178-1.56-8.515-.106-12.455s5.725-7.113,9.7-5.9c3.306,1.018,5.17,4.416,7.338,7.14a24.646,24.646,0,0,0,11.12,7.933c2.856.992,6.254,1.322,8.674-.463,3.306-2.512,3-7.536,2.38-11.675l-3.491-23.152a39.335,39.335,0,0,1-.529-12.495c.714-4.112,3.041-8.184,6.822-9.85s8.991-.106,10.406,3.821a36.935,36.935,0,0,1,.859,5.143c.37,1.706,1.441,3.491,3.147,3.742s3.213-1.177,4.284-2.565c3.663-4.8,5.791-10.578,7.735-16.369s3.768-11.622,6.994-16.739,8.065-9.52,13.949-10.71,12.746,1.547,15.086,7.153-.2,12.058-3.226,17.321a93.677,93.677,0,0,1-16.607,21.155,7.668,7.668,0,0,0-2.724,3.967c-.5,2.9,2.512,5.289,5.368,5.778,3.239.582,6.545-.225,9.837-.317s6.994.833,8.66,3.715c2.3,3.967-.595,8.938-3.662,12.349a80.139,80.139,0,0,1-21.5,16.937c-2.882,1.547-5.95,3-8.105,5.487s-3.094,6.439-1.19,9.15,5.857,3.094,8.964,2.036,5.725-3.2,8.594-4.786c5.395-2.975,12.8-3.649,17.189.74a13.222,13.222,0,0,1,3.015,11.331,30.544,30.544,0,0,1-4.8,11.159,80.469,80.469,0,0,1-30.569,28.824c-12.548,6.492-24.606,9.507-38.436,6.611" transform="translate(61.184 52.26)" fill="#f5f5f5"/>
      <path id="Path_3342" data-name="Path 3342" d="M397.14,477.75a373.668,373.668,0,0,1,8.964-42.112q1.468-5.54,2.922-10.921c.965-3.57,1.917-7.127,3.068-10.578a188.344,188.344,0,0,1,7.735-19.251c2.763-6,5.593-11.609,8.29-16.818s5.289-10.022,7.867-14.306a147.873,147.873,0,0,1,13.605-19.278c1.772-2.142,3.2-3.755,4.191-4.839l1.124-1.23a3.323,3.323,0,0,1,.41-.4,2.648,2.648,0,0,1-.344.449l-1.071,1.322c-.952,1.111-2.34,2.763-4.086,4.932a156.024,156.024,0,0,0-13.354,19.37c-2.486,4.31-5.13,9.1-7.775,14.319s-5.461,10.816-8.2,16.818a187.636,187.636,0,0,0-7.669,19.185c-1.137,3.4-2.089,6.915-3.054,10.511s-1.917,7.232-2.909,10.908a387.588,387.588,0,0,0-9,42.019" transform="translate(70.979 52.887)" fill="#e0e0e0"/>
      <path id="Path_3343" data-name="Path 3343" d="M411.69,406.467a8.806,8.806,0,0,1-.661-1.706c-.383-1.124-.886-2.75-1.468-4.773-1.19-4.033-2.644-9.678-4.191-15.866s-3.094-11.834-4.337-15.866c-.608-2.01-1.124-3.636-1.494-4.747a8.518,8.518,0,0,1-.489-1.758,7.93,7.93,0,0,1,.767,1.653c.463,1.084,1.058,2.644,1.732,4.681,1.388,3.967,2.988,9.586,4.562,15.866s2.909,11.7,3.967,15.946c.489,1.917.912,3.53,1.243,4.826a7.938,7.938,0,0,1,.37,1.745Z" transform="translate(71.594 60.533)" fill="#e0e0e0"/>
      <path id="Path_3344" data-name="Path 3344" d="M460.447,382.21a11.339,11.339,0,0,1-2.089.569c-1.322.317-3.305.767-5.7,1.4-4.8,1.23-11.384,3.173-18.511,5.619s-13.552,4.972-18.114,6.915c-2.3.965-4.125,1.785-5.395,2.353a10.579,10.579,0,0,1-2.01.807,10.722,10.722,0,0,1,1.878-1.084c1.23-.648,3.041-1.547,5.289-2.578,4.522-2.076,10.908-4.681,18.088-7.153a188.716,188.716,0,0,1,18.656-5.408c2.42-.568,4.4-.952,5.778-1.177a12.521,12.521,0,0,1,2.129-.264Z" transform="translate(74.681 67.125)" fill="#e0e0e0"/>
      <path id="Path_3345" data-name="Path 3345" d="M406.468,458.529a2.763,2.763,0,0,1-.463-.6l-1.19-1.8c-1.018-1.56-2.446-3.874-4.178-6.73-3.451-5.738-7.933-13.8-12.839-22.781s-9.255-17.07-12.64-22.861l-3.967-6.862c-.436-.74-.78-1.322-1.071-1.864a2.644,2.644,0,0,1-.331-.688,2.763,2.763,0,0,1,.463.6l1.19,1.8c1.018,1.56,2.446,3.874,4.178,6.73,3.451,5.738,7.933,13.8,12.839,22.781s9.255,17.07,12.64,22.874c1.626,2.8,2.962,5.13,3.967,6.849.436.74.78,1.322,1.071,1.864A2.645,2.645,0,0,1,406.468,458.529Z" transform="translate(62.167 71.037)" fill="#e0e0e0"/>
      <path id="Path_3346" data-name="Path 3346" d="M465.028,417.89a2.791,2.791,0,0,1-.661.383l-1.957.992-7.232,3.557c-6.1,3-14.478,7.246-23.733,11.9s-17.678,8.872-23.8,11.754c-3.081,1.428-5.58,2.578-7.325,3.319l-2.023.859a2.872,2.872,0,0,1-.727.251,3.072,3.072,0,0,1,.661-.4l1.957-.978,7.232-3.557c6.1-3,14.478-7.246,23.733-11.9s17.678-8.859,23.8-11.741c3.094-1.441,5.593-2.578,7.338-3.332l2.023-.846a2.316,2.316,0,0,1,.714-.264Z" transform="translate(71.118 78.621)" fill="#e0e0e0"/>
      <path id="Path_3347" data-name="Path 3347" d="M75.853,176.37,62.882,150.68a36.731,36.731,0,0,0-17.189,18.841,33.994,33.994,0,0,0,3,31.733,41.43,41.43,0,0,0,2.459,3.451l.066.079h0l27.581-22.4Z" transform="translate(-43.093 -7.473)" fill="#e0e0e0"/>
      <path id="Path_3348" data-name="Path 3348" d="M98.231,153.909a34.126,34.126,0,0,0-33.769-5.1l-1.018.4-.661.264-1.891.873H60.72l12.958,25.677,3.054,6.042,34.377-8.647h0a34.179,34.179,0,0,0-2.644-7.034A37.339,37.339,0,0,0,98.231,153.909Z" transform="translate(-37.414 -8.837)" fill="#ebebeb"/>
      <path id="Path_3349" data-name="Path 3349" d="M79.331,178.6,51.75,201.012a35.527,35.527,0,0,0,62.037-31.072L79.41,178.587" transform="translate(-40.304 -1.267)" fill="#f5f5f5"/>
      <rect id="Rectangle_468" data-name="Rectangle 468" width="128.835" height="115.269" transform="translate(76.789 97.01)" fill="#f5f5f5"/>
      <rect id="Rectangle_469" data-name="Rectangle 469" width="128.835" height="115.269" transform="translate(65.061 105.776)" fill="#ebebeb"/>
      <path id="Path_3350" data-name="Path 3350" d="M402.327,90.1h40.314A40.3,40.3,0,1,1,401.4,49.8Z" transform="translate(59.67 -39.976)" fill="#e0e0e0"/>
      <path id="Path_3351" data-name="Path 3351" d="M400.965,82.671,400,42.37a42.522,42.522,0,0,1,29.088,11.411,41.478,41.478,0,0,1,12.191,28.255Z" transform="translate(71.9 -42.37)" fill="#f5f5f5"/>
      <path id="Path_3352" data-name="Path 3352" d="M127.9,281.179a24.488,24.488,0,0,1,4.562-4.72l-1.111-5.923,9.163-3.967,3.557,4.866a24.327,24.327,0,0,1,6.505-.093l3.411-4.971,9.255,3.689-.939,5.95a24.421,24.421,0,0,1,4.654,4.535l5.937-1.1,3.967,9.163-4.866,3.543a24.327,24.327,0,0,1,.093,6.505l4.971,3.411-3.689,9.255-5.963-.939a24.09,24.09,0,0,1-4.535,4.667l1.111,5.923-9.163,3.967-3.583-4.852a24.327,24.327,0,0,1-6.505.093l-3.411,4.971-9.255-3.689.939-5.95a24.488,24.488,0,0,1-4.667-4.535l-5.923,1.1-3.967-9.163,4.879-3.543a24.328,24.328,0,0,1-.093-6.505l-4.971-3.411,3.689-9.255,5.95.939Zm9.956,10.273a10.7,10.7,0,1,0,13.909-5.99A10.7,10.7,0,0,0,137.855,291.452Z" transform="translate(-18.875 29.802)" fill="none"/>
      <path id="Path_3353" data-name="Path 3353" d="M133.308,287.045a2.948,2.948,0,0,1,.225-.648,8.516,8.516,0,0,1,.952-1.732,10.578,10.578,0,0,1,5.831-4.191,10.96,10.96,0,0,1,8.753,19.873A10.736,10.736,0,0,1,142.881,302a10.961,10.961,0,0,1-5.54-1.719,10.842,10.842,0,0,1-4.852-10.7,8.609,8.609,0,0,1,.5-1.917,2.961,2.961,0,0,1,.278-.621c.079,0-.317.9-.516,2.565a10.657,10.657,0,0,0,1.507,6.77,10.445,10.445,0,0,0,14.491,3.438,10.339,10.339,0,0,0,4.522-11.384,10.221,10.221,0,0,0-3.12-5.143,10.406,10.406,0,0,0-9.7-2.314,10.763,10.763,0,0,0-5.752,3.887C133.692,286.173,133.387,287.085,133.308,287.045Z" transform="translate(-14.328 34.209)" fill="#e0e0e0"/>
      <path id="Path_3354" data-name="Path 3354" d="M127.966,281.214h-.37l-1.137-.145-4.469-.648.119-.066c-.926,2.393-2.142,5.514-3.623,9.255V289.4l4.985,3.4.106.066v.119a24.038,24.038,0,0,0,.119,6.439v.145l-.106.079-4.866,3.557.079-.291q1.891,4.324,3.967,9.15l-.291-.159,5.923-1.111h.172l.106.145a24.385,24.385,0,0,0,4.614,4.469l.145.106v.172c-.291,1.851-.608,3.887-.926,5.963l-.2-.331,9.255,3.676-.383.106,3.4-4.971.119-.159h.2a24.356,24.356,0,0,0,6.413-.106h.2l.119.159,3.557,4.879-.41-.119,9.163-3.967-.2.383c-.357-1.878-.727-3.887-1.111-5.923v-.212l.159-.132a23.8,23.8,0,0,0,4.469-4.588h0c.648-.278.172-.079.331-.132h.74l.74.119,1.494.238,2.975.463-.37.212,3.689-9.255.119.41-4.971-3.411-.159-.119v-.2a24.183,24.183,0,0,0-.079-6.413v-.2l.172-.119,4.879-3.543-.119.4-3.967-9.176.344.185-5.923,1.1h-.185l-.119-.145a23.8,23.8,0,0,0-4.6-4.5l-.145-.106v-.172c.317-2.049.635-3.967.939-5.95l.185.3-9.255-3.7.317-.106-3.424,4.971-.079.119h-.159a24.286,24.286,0,0,0-6.439.066h-.132l-.079-.119-3.517-4.76.238.066-9.176,3.9.093-.172,1.058,5.937v.066h0a25.556,25.556,0,0,0-3.557,3.345l-.78.926a2.2,2.2,0,0,1-.264.3,2.17,2.17,0,0,1,.212-.344c.159-.212.4-.542.74-.952a23.506,23.506,0,0,1,3.517-3.451v.106c-.317-1.613-.688-3.557-1.15-5.923v-.119h.119l9.136-3.967h.145l.106.119,3.57,4.866-.225-.093a25.188,25.188,0,0,1,6.611-.119l-.238.106,3.4-4.971.119-.172.2.079L163.586,270l.212.079v.225c-.3,1.944-.608,3.967-.926,5.963l-.119-.291a25.03,25.03,0,0,1,4.733,4.588l-.3-.119,5.923-1.111h.251l.106.225c1.322,2.988,2.644,6.029,3.967,9.163l.106.238-.212.159-5.13,3.425.132-.317a24.923,24.923,0,0,1,.093,6.611l-.145-.317,4.971,3.411.225.145-.093.251-3.689,9.255-.106.251h-.264l-2.975-.476-1.494-.225-.74-.119-.383-.066h-.357l.317-.132h0a24.725,24.725,0,0,1-4.588,4.72l.119-.331c.383,2.036.754,4.059,1.1,5.923v.278l-.251.106-9.057,3.9-.251.106-.159-.212c-1.216-1.692-2.433-3.358-3.543-4.879l.317.132a24.513,24.513,0,0,1-6.611.093l.3-.145-3.411,4.905-.145.212-.238-.093-9.255-3.7-.225-.093V321.5c.331-2.076.648-4.112.939-5.963l.119.291a24.727,24.727,0,0,1-4.707-4.6l.278.106-5.937,1.1h-.212l-.079-.212c-1.322-3.213-2.644-6.28-3.967-9.163l-.079-.185.159-.119,4.892-3.53-.093.212a24.857,24.857,0,0,1-.079-6.611l.093.2-4.958-3.438-.106-.079v-.132c1.534-3.755,2.79-6.875,3.755-9.255v-.079h.093l4.4.754,1.137.2Z" transform="translate(-18.943 29.767)" fill="#e0e0e0"/>
      <path id="Path_3355" data-name="Path 3355" d="M133.387,287.093a12.6,12.6,0,0,1,.595-1.19,10.68,10.68,0,1,1,8.462,15.853,10.8,10.8,0,0,1-9.6-7.933,11.371,11.371,0,0,1-.4-3.411,12.637,12.637,0,0,1,.212-1.732,3.152,3.152,0,0,1,.2-.846l.106-.423.066-.2v-.093h0c0-.079,0,.225.225.291l.41-.159a5.739,5.739,0,0,0-.489,1.322,10.089,10.089,0,0,0,.4,6.518A10.578,10.578,0,0,0,137.618,300a10.79,10.79,0,0,0,5.923,1.692,10.7,10.7,0,1,0-7.166-18.828,10.458,10.458,0,0,0-2.433,2.988,8.424,8.424,0,0,0-.436.912,1.942,1.942,0,0,1-.145.317,1.164,1.164,0,0,1,.079-.344,6.4,6.4,0,0,1,.383-.952,10.114,10.114,0,0,1,2.367-3.12,11,11,0,0,1,5.619-2.644,11.146,11.146,0,0,1,12.772,10.445,11.245,11.245,0,0,1-21.644,4.879,10.882,10.882,0,0,1-.436-6.955,6.718,6.718,0,0,1,.569-1.481l.132-.251.264.093c.238.093.278.41.251.344s0,.079,0,.093v.2l-.066.2-.106.41c-.066.264-.132.529-.185.806a11.37,11.37,0,0,0-.2,1.626,10.828,10.828,0,0,0,.37,3.2,10.11,10.11,0,1,0,8.475-12.772,10.577,10.577,0,0,0-5.408,2.287,10.882,10.882,0,0,0-2.473,2.83C133.638,286.71,133.453,287.146,133.387,287.093Z" transform="translate(-14.407 34.161)" fill="#e0e0e0"/>
      <path id="Path_3356" data-name="Path 3356" d="M127.983,281.362l-6.029-.965h.079l-3.768,9.467v-.145l5.064,3.477-.212.185-.079-.172h.278a24.488,24.488,0,0,0,.093,6.505h-.317l.079-.185.251.2-5.011,3.649v-.212l4.1,9.493-.225-.119,6.122-1.137v.41l-.251-.093.251-.331a24.235,24.235,0,0,0,4.667,4.535l-.344.264-.106-.251h.436c-.3,1.864-.635,3.967-.978,6.161l-.145-.251,9.692,3.848-.3.093,3.543-5.157.317.37-.278.132-.066-.489a24.54,24.54,0,0,0,6.505-.106v.516l-.278-.119.317-.41,3.689,5.077-.331-.093,9.6-4.152-.159.317c-.357-1.878-.754-3.967-1.15-6.161h.555l-.119.3-.45-.331a25.121,25.121,0,0,0,4.548-4.681l.344.463-.3.119v-.568l6.2.965-.331.185,3.861-9.718.106.37-5.17-3.544.463-.4.132.291-.595.093a24.408,24.408,0,0,0-.106-6.492l.608.066-.119.291-.476-.383,5.051-3.7-.106.4c-1.322-2.975-2.644-6.254-4.138-9.573l.357.185-6.148,1.15v-.635l.278.106-.383.516a24.446,24.446,0,0,0-4.654-4.522l.5-.383.106.251-.635.079c.291-1.917.621-4.033.952-6.161l.212.357-9.652-3.808.41-.119-3.5,5.13-.423-.5.212-.093.106.648a24.3,24.3,0,0,0-6.479.119l.093-.661.185.079-.41.516-3.649-4.971.41.106-9.374,4.1.2-.383c.37,1.9.767,3.967,1.164,6.029H132.2v-.106l.542.4a21.92,21.92,0,0,0-3.967,3.967l-.278.357h-.185c.106,0-.3-.357-.45-.2h0l.595-.714a13.027,13.027,0,0,1,1.322-1.4,24.8,24.8,0,0,1,2.79-2.5l-.132.331c-.357-2.023-.714-3.967-1.071-5.99l.648.093-.093.159-.436-.476,9.189-3.967v.648h-.225l.37-.542,3.61,4.985-.331-.132a24.908,24.908,0,0,1,6.8-.079l-.331.145,3.5-5.064.383.516-.291.079v-.635l9.255,3.7-.423.489-.159-.278.635-.119c-.331,2.049-.661,4.086-.978,6.108l-.132-.317a24,24,0,0,1,4.892,4.786l-.317-.132,6.1-1.124-.093.621-.317-.172.463-.41,3.967,9.163h-.608l.106-.357.5.357c-1.719,1.23-3.372,2.446-5.024,3.649l.119-.3a24.394,24.394,0,0,1,.093,6.862l-.132-.3,5.117,3.53-.476.344-.106-.37h.582c-1.256,3.173-2.486,6.241-3.689,9.255l-.436-.37.331-.2.106.569-6.135-.978.278-.106a24.884,24.884,0,0,1-4.786,4.919l.106-.291c.4,2.129.767,4.138,1.124,6.108l-.529-.079.185-.331.357.4-9.163,3.967v-.516l.357.093-.291.423-3.662-5.011.264.106a24.368,24.368,0,0,1-6.849.093l.238-.106-3.5,5.1-.278-.37.331-.106v.463l-9.255-3.689.291-.331.172.3-.436.079c.344-2.248.661-4.2.952-6.122l.093.225a24.952,24.952,0,0,1-4.879-4.747l.212.079-6.082,1.124v-.37l.264.145-.264.251c-1.507-3.464-2.763-6.413-3.967-9.163H119l-.066.264-.278-.185,4.971-3.623-.066.159a24.712,24.712,0,0,1-.106-6.73v.132l-5.064-3.464.185-.132v.185h-.225l3.676-9.255.106.093h-.106v-.132l5.963.912a11.527,11.527,0,0,1-1.481-.145l-4.548-.688h-.225l.2-.106.106-.066.185-.106-.079.2c-.886,2.274-2.036,5.289-3.6,9.255l-.119.331-.106-.344v-.185l-.106-.331.291.2,5.077,3.438h0v.093a24.169,24.169,0,0,0,.132,6.611v.093l-.079.066L118.7,303.4l-.41.291.132-.489v-.264l.132-.476.212.463,3.967,9.136.225.529-.5-.278-.264-.132-.5-.264.569-.106,6.069-1.164h.119l.079.106a24.5,24.5,0,0,0,4.813,4.641l.106.079v.145l-.939,6.109-.106.661-.331-.582-.172-.291-.331-.582.621.251,9.255,3.649.661.264-.688.212-.331.106-.688.212.4-.595,3.5-5.117.093-.132h.145a23.945,23.945,0,0,0,6.717-.106h.159l.093.132,3.663,5.011.463.635-.754-.212-.357-.093-.754-.212.714-.3,9.15-3.967.754-.317-.383.714-.185.344-.383.714-.145-.807c-.37-1.97-.74-3.967-1.137-6.109v-.172l.145-.106a24.117,24.117,0,0,0,4.667-4.813l.106-.145h.185l6.28,1.044.846.132-.74.423-.331.185-.754.436.317-.806,3.676-9.255.331-.82.264.846.106.357.264.846-.74-.5-5.117-3.5-.159-.119v-.185a24.169,24.169,0,0,0-.093-6.69v-.2l.159-.106,5.024-3.662.74-.542-.238.886a.473.473,0,0,1-.106.357l-.238.886-.357-.846q-1.983-4.522-3.967-9.163l-.37-.859.833.436.3.172.833.436-.926.172-6.1,1.137h-.2l-.119-.159a23.8,23.8,0,0,0-4.773-4.654l-.159-.119v-.2c.317-2.023.648-4.059.965-6.109l.159-.939.476.82.145.278.489.846-.9-.357-9.255-3.715-.886-.357.926-.278.278-.079.926-.291-.555.807-3.491,5.064-.119.172h-.2a24.077,24.077,0,0,0-6.611.079h-.212l-.119-.159c-1.2-1.653-2.393-3.319-3.61-4.985l-.569-.793.939.264h.225l.939.264-.9.383-9.176,3.967-.9.37.463-.859.079-.145.463-.873.172.978c.357,1.97.714,3.967,1.084,5.99v.2l-.159.132a24.746,24.746,0,0,0-2.644,2.433c-.423.45-.833.9-1.23,1.322l-.608.714v.066h-.079c-.145.159-.555-.212-.45-.2h0v-.066a1.1,1.1,0,0,1,0-.2A1.322,1.322,0,0,1,128,280.7l.291-.383a23.258,23.258,0,0,1,4.033-4.1l.978-.78-.436,1.177v.093l-.436,1.137-.225-1.19c-.4-2.076-.793-4.125-1.164-6.029v-.278l.251-.106,9.374-4.086.264-.106.159.212,3.649,4.985.727.992-1.137-.476-.185-.079-1.124-.476,1.2-.185a25.015,25.015,0,0,1,6.611-.106l1.216.145-1.124.5-.2.093-1.111.5.688-1,3.5-5.13.145-.225.251.106,9.639,3.808.251.106v.264l-.952,6.148-.185,1.19-.463-1.111-.106-.251-.45-1.1.965.7a24.924,24.924,0,0,1,4.773,4.641l.74.939-1.111-.423-.264-.106-1.111-.41,1.164-.225,6.148-1.15h.251l.106.238c1.441,3.319,2.856,6.611,4.139,9.573l.106.238-.212.159-5.064,3.689-.926.674.45-1.058.119-.278.436-1.058.172,1.124a25.227,25.227,0,0,1,.093,6.677l-.132,1.111-.569-.9-.132-.291-.463-1.018.926.635,5.17,3.543.2.145-.079.225c-1.322,3.385-2.644,6.717-3.874,9.718l-.093.225h-.238l-6.2-.978-1.045-.159.978-.41.3-.119.978-.4-.635.859a24.526,24.526,0,0,1-4.654,4.76l-.82.648.37-.978.119-.291.37-.978.185,1.031c.4,2.155.793,4.284,1.137,6.161v.225l-.212.093-9.6,4.125-.212.079-.119-.172-3.689-5.077-.555-.767.873.37.291.119.873.37-.939.132a25.02,25.02,0,0,1-6.611.079l-.912-.106.833-.383.278-.119.846-.383-.529.767-3.557,5.143-.106.172-.185-.079-9.678-3.874-.172-.079V321.9c.357-2.168.688-4.284.992-6.161l.132-.793.291.74.106.264.3.74-.635-.476a24.777,24.777,0,0,1-4.747-4.641l-.463-.608.714.278.238.093.714.264-.754.145-6.122,1.111h-.159v-.145l-4.059-9.52v-.132l.119-.079,5.024-3.623.476-.344-.225.529-.079.2-.225.542-.093-.582a25.122,25.122,0,0,1,0-6.611v-.516l.212.476.079.172.212.476-.423-.3-5.183-3.53H118v-.093l3.861-9.414v-.066h.106l4.5.807,1.137.212Z" transform="translate(-18.959 29.618)" fill="#e0e0e0"/>
      <path id="Path_3357" data-name="Path 3357" d="M177.976,287.371a10.5,10.5,0,0,1,1.917-1.983l-.463-2.5,3.874-1.679,1.494,2.063a10.574,10.574,0,0,1,2.75,0l1.454-2.1,3.967,1.56-.4,2.525a10.034,10.034,0,0,1,1.97,1.917l2.512-.463,1.666,3.874-2.049,1.494a10.579,10.579,0,0,1,0,2.75l2.1,1.454-1.56,3.967-2.525-.4a10.5,10.5,0,0,1-1.917,1.983l.463,2.5-3.874,1.679-1.507-2.063a10.577,10.577,0,0,1-2.75,0l-1.428,2.116-3.967-1.56.383-2.525a10.831,10.831,0,0,1-1.97-1.917l-2.5.463-1.613-3.94,2.063-1.507a10.577,10.577,0,0,1,0-2.75l-2.1-1.441,1.56-3.967,2.525.4Zm4.218,4.337a8.012,8.012,0,1,1,.026,0Z" transform="translate(-0.925 34.571)" fill="#e0e0e0"/>
      <path id="Path_3358" data-name="Path 3358" d="M180.293,289.859a3.556,3.556,0,0,1,.489-1,4.614,4.614,0,0,1,2.472-1.759,4.547,4.547,0,0,1,2.129-.106,4.734,4.734,0,0,1,2.195,1.071,4.351,4.351,0,0,1,.859,1.031,4.219,4.219,0,0,1,.555,1.322,4.654,4.654,0,0,1-3.319,5.672,4.11,4.11,0,0,1-1.322.145,4.562,4.562,0,0,1-3.808-2.261,4.469,4.469,0,0,1-.529-2.975,3.373,3.373,0,0,1,.331-1.084,10.112,10.112,0,0,0-.238,1.1,4.5,4.5,0,0,0,.648,2.869,4.363,4.363,0,0,0,1.428,1.441,4.483,4.483,0,0,0,2.235.674,4.588,4.588,0,0,0,1.322-.145,4.231,4.231,0,0,0,1.2-.529,4.443,4.443,0,0,0,1.758-2.1,4.535,4.535,0,0,0,.172-2.737,4.35,4.35,0,0,0-.529-1.216,3.819,3.819,0,0,0-.807-.965,4.429,4.429,0,0,0-2.076-1.045,4.363,4.363,0,0,0-2.036.066,4.522,4.522,0,0,0-2.446,1.653A4.431,4.431,0,0,0,180.293,289.859Z" transform="translate(1.002 36.42)" fill="#e0e0e0"/>
      <path id="Path_3359" data-name="Path 3359" d="M178,287.416h-.635l-1.891-.264h0l-1.534,3.967v-.079l2.116,1.441h0a10.577,10.577,0,0,0,0,2.724h0l-2.023,1.507v-.119l1.679,3.874H175.6l2.512-.476h.066a9.889,9.889,0,0,0,1.957,1.891h0v.066c-.119.78-.251,1.653-.4,2.525l-.066-.132,3.967,1.56h-.145l1.441-2.1h0a9.943,9.943,0,0,0,2.724,0h.079l1.507,2.063h-.159l3.874-1.679v.145c-.159-.793-.317-1.653-.476-2.512v-.079h0a10.577,10.577,0,0,0,1.891-1.944h.079l2.512.4-.145.079c.529-1.322,1.058-2.644,1.573-3.967v.159l-2.1-1.454h-.066v-.079a10.33,10.33,0,0,0,0-2.644V292.2h.066l2.063-1.507v.145l-1.666-3.874.132.079-2.512.463h-.066a10.578,10.578,0,0,0-1.692-2.155h0v-.079c.132-.859.264-1.692.4-2.512v.119l-3.967-1.573h.119c-.516.727-.992,1.428-1.454,2.089h0a9.917,9.917,0,0,0-2.737,0h0l-1.613-2.089h.093L179.5,282.96v-.066c.185,1,.331,1.825.45,2.512h0a10.29,10.29,0,0,0-1.507,1.415l-.331.4-.106.132.093-.145c0-.093.172-.238.317-.41a9.626,9.626,0,0,1,1.481-1.454h0c-.132-.687-.291-1.507-.489-2.512h0l3.861-1.692h0l1.521,2.063h-.093a10.747,10.747,0,0,1,2.777,0h-.079l1.428-2.1v-.066h0l3.967,1.56h.079v.093l-.383,2.512v-.106a10.208,10.208,0,0,1,2,1.93h-.106l2.5-.463h.106v.093c.555,1.256,1.111,2.552,1.679,3.874v.093h-.079l-2.063,1.507V292a10.366,10.366,0,0,1,0,2.79v-.119l2.1,1.441h.079v.093l-1.56,3.967v.093h-.106l-2.512-.4h.119a9.967,9.967,0,0,1-1.944,2v-.119l.463,2.5v.106h-.093l-3.61,1.758h-.093l-.066-.079L187.8,303.97h.119a10.417,10.417,0,0,1-2.79,0h.119l-1.441,2.142v.079h-.093l-3.967-1.56h-.079v-.093c.132-.873.278-1.732.4-2.512v.106a10.263,10.263,0,0,1-1.983-1.944h.106l-2.512.463H175.6v-.079c-.595-1.322-1.15-2.644-1.666-3.874v-.066h0c.727-.516,1.428-1.018,2.063-1.494v.079a10.206,10.206,0,0,1,0-2.763v.066l-2.1-1.454h0c.635-1.587,1.177-2.909,1.573-3.967h0l1.864.3.476.093Z" transform="translate(-0.951 34.525)" fill="#e0e0e0"/>
      <path id="Path_3360" data-name="Path 3360" d="M164.405,247.009a16.859,16.859,0,0,1,3.213-3.292l-.78-4.2,6.479-2.79,2.512,3.451a17.267,17.267,0,0,1,4.6-.066l2.406-3.517,6.611,2.644-.661,4.218a17.572,17.572,0,0,1,3.292,3.2l4.191-.78,2.79,6.479-3.438,2.512a17.851,17.851,0,0,1,0,4.6l3.5,2.42-2.644,6.545-4.2-.661a16.939,16.939,0,0,1-3.213,3.305l.78,4.191-6.479,2.79-2.512-3.451a17.285,17.285,0,0,1-4.6.066L173.9,278.12l-6.611-2.644.661-4.218a17.571,17.571,0,0,1-3.292-3.2l-4.191.78-2.79-6.479,3.438-2.512a17.278,17.278,0,0,1-.066-4.6l-3.517-2.406,2.644-6.611,4.2.661Zm7.047,7.259a5.835,5.835,0,1,1,0,.053Z" transform="translate(-6.222 20.207)" fill="#f5f5f5"/>
      <path id="Path_3361" data-name="Path 3361" d="M168.214,251.2a5.951,5.951,0,0,1,.833-1.679,7.655,7.655,0,0,1,7.682-3.12,7.854,7.854,0,0,1,3.676,1.8,7.206,7.206,0,0,1,1.441,1.706,7.563,7.563,0,0,1,.926,2.142,7.814,7.814,0,0,1-.291,4.839,7.735,7.735,0,0,1-3.107,3.7,7.115,7.115,0,0,1-2.142.926,7.551,7.551,0,0,1-2.221.251,7.854,7.854,0,0,1-3.9-1.216,7.589,7.589,0,0,1-2.472-2.565,7.5,7.5,0,0,1-.965-4.985,5.778,5.778,0,0,1,.542-1.8,8.732,8.732,0,0,0-.383,1.825,7.6,7.6,0,0,0,1.071,4.8,7.444,7.444,0,0,0,2.393,2.42,7.576,7.576,0,0,0,3.729,1.124,7.209,7.209,0,0,0,2.1-.251,7.033,7.033,0,0,0,2.023-.886,7.325,7.325,0,0,0,3.213-8.079,7.589,7.589,0,0,0-2.221-3.649,7.444,7.444,0,0,0-10.948,1.124A11.418,11.418,0,0,0,168.214,251.2Z" transform="translate(-2.983 23.326)" fill="#f5f5f5"/>
      <path id="Path_3362" data-name="Path 3362" d="M164.425,247.106h-.264l-.793-.106-3.16-.463h.079c-.661,1.679-1.534,3.887-2.578,6.611v-.132l3.53,2.393h.066v.079a17.109,17.109,0,0,0,.079,4.562v.093h-.066l-3.438,2.512v-.185l2.816,6.479-.2-.106,4.191-.793h.093l.079.079a16.963,16.963,0,0,0,3.266,3.173l.093.066v.119l-.648,4.2-.119-.212,6.611,2.644-.251.066,2.42-3.517v-.093h.119a17,17,0,0,0,4.548-.079h.119l.079.106c.793,1.071,1.653,2.248,2.512,3.438l-.251-.066,6.479-2.79-.132.238c-.251-1.322-.516-2.75-.78-4.191V271.1l.106-.079a17.186,17.186,0,0,0,3.16-3.253h0l.079-.106h.119l4.218.661-.238.132c.886-2.208,1.745-4.4,2.644-6.545l.079.251-3.57-2.459-.106-.066v-.132a17.93,17.93,0,0,0-.066-4.535v-.132l.106-.079,3.451-2.5-.066.251-2.79-6.492.225.119-4.191.78h-.119l-.079-.093a17.19,17.19,0,0,0-3.253-3.173l-.093-.066v-.106c.225-1.454.45-2.843.661-4.218l.119.2-6.611-2.644.2-.066-2.42,3.517v.066H180.4a16.9,16.9,0,0,0-4.562,0h-.079v-.079l-2.5-3.451h.159l-6.492,2.763v-.106c.3,1.679.542,3.054.754,4.2h0a18.364,18.364,0,0,0-2.512,2.367l-.555.661-.185.212.159-.238a7.235,7.235,0,0,1,.529-.674,16.451,16.451,0,0,1,2.473-2.446h0c-.225-1.137-.489-2.512-.82-4.178v-.079h.079l6.466-2.829h.093l.066.093,2.512,3.438-.132-.066a18,18,0,0,1,4.641-.079l-.145.066,2.406-3.517.066-.106h.132l6.611,2.644h.132v.132c-.212,1.322-.423,2.777-.648,4.218l-.079-.185a18.007,18.007,0,0,1,3.345,3.239l-.2-.066,4.191-.78h.159l.066.145c.912,2.116,1.838,4.271,2.8,6.479v.159l-.145.093-3.438,2.512.079-.2a17.664,17.664,0,0,1,.079,4.654l-.093-.2,3.517,2.406.132.093v.172c-.846,2.142-1.719,4.337-2.644,6.545v.172h-.172l-4.218-.661.212-.093h0a17.388,17.388,0,0,1-3.253,3.345l.079-.212c.264,1.441.542,2.869.78,4.191v.172h-.159l-6.492,2.79-.145.066-.159.093c-.859-1.19-1.719-2.367-2.512-3.438l.212.079a17.785,17.785,0,0,1-4.654,0l.185-.093c-.833,1.216-1.666,2.42-2.406,3.517l-.093.132h-.159l-6.545-2.644h-.145v-.145c.225-1.468.463-2.909.661-4.218l.079.185a17.729,17.729,0,0,1-3.332-3.253l.172.066-4.191.767h-.132v-.119q-1.468-3.411-2.777-6.492v-.106l.106-.079,3.451-2.5v.132a17.016,17.016,0,0,1,0-4.628v.119l-3.662-2.406h-.079v-.079c1.071-2.644,1.97-4.866,2.644-6.611h.066l3.107.516.807.145Z" transform="translate(-6.242 20.11)" fill="#f5f5f5"/>
      <path id="Path_3363" data-name="Path 3363" d="M356.3,334.387l54.673-8.356a55.344,55.344,0,1,1-48.591-46.568Z" transform="translate(40 33.911)" fill="#f5f5f5"/>
      <path id="Path_3364" data-name="Path 3364" d="M357.851,279.48l-6.611,42.31,41.6-7.814S386.688,290.3,357.851,279.48Z" transform="translate(56.19 34.026)" fill="#e0e0e0"/>
    </g>
    <g id="freepik--Floor--inject-22" transform="translate(37.33 590.024)">
      <path id="Path_3365" data-name="Path 3365" d="M581.85,456.914c0,.2-121.906.344-272.253.344s-272.267-.119-272.267-.344,121.88-.344,272.267-.344S581.85,456.729,581.85,456.914Z" transform="translate(-37.33 -456.57)" fill="#263238"/>
    </g>
    <g id="freepik--Charts--inject-22" transform="translate(101.1 51.097)">
      <rect id="Rectangle_470" data-name="Rectangle 470" width="236.739" height="205.456" transform="translate(260.42 63.796)" fill="#fafafa"/>
      <path id="Path_3366" data-name="Path 3366" d="M519.291,302.747V287.978c0-9.612,0-23.694-.079-41.649,0-35.884-.093-87.265-.145-149.038l.291.291H282.685l.344-.344V302.694l-.3-.3,171.238.145,48.313.079h.119l-48.234.079-171.436.159h-.3V97H519.741v.291c-.066,61.892-.119,113.286-.159,149.21,0,17.929,0,32-.066,41.6v10.921A23.628,23.628,0,0,1,519.291,302.747Z" transform="translate(-22.133 -33.495)" fill="#263238"/>
      <path id="Path_3367" data-name="Path 3367" d="M492.2,139.081h-14.69l-40.565.106-137.865.291.344-.344v94.854l-.344-.331,136.874.119,40.261.093,10.816.066H476.215l-40.261.106-136.874.238h-.331V138.75h.331l137.839.119,40.658.212,10.908.066H491.3Z" transform="translate(-16.871 -20.043)" fill="#e0e0e0"/>
      <path id="Path_3368" data-name="Path 3368" d="M492.1,151.2c0,.185-43.223.344-96.52.344s-96.52-.159-96.52-.344,43.223-.344,96.52-.344S492.1,151.045,492.1,151.2Z" transform="translate(-16.771 -16.141)" fill="#e0e0e0"/>
      <path id="Path_3369" data-name="Path 3369" d="M492.1,161.084c0,.185-43.223.344-96.52.344s-96.52-.159-96.52-.344,43.223-.344,96.52-.344S492.1,160.9,492.1,161.084Z" transform="translate(-16.771 -12.958)" fill="#e0e0e0"/>
      <path id="Path_3370" data-name="Path 3370" d="M492.1,170.964c0,.2-43.223.344-96.52.344s-96.52-.145-96.52-.344,43.223-.344,96.52-.344S492.1,170.779,492.1,170.964Z" transform="translate(-16.771 -9.775)" fill="#e0e0e0"/>
      <path id="Path_3371" data-name="Path 3371" d="M492.1,180.844c0,.2-43.223.344-96.52.344s-96.52-.145-96.52-.344,43.223-.344,96.52-.344S492.1,180.659,492.1,180.844Z" transform="translate(-16.771 -6.592)" fill="#e0e0e0"/>
      <path id="Path_3372" data-name="Path 3372" d="M492.1,190.734c0,.185-43.223.344-96.52.344s-96.52-.159-96.52-.344,43.223-.344,96.52-.344S492.1,190.535,492.1,190.734Z" transform="translate(-16.771 -3.405)" fill="#e0e0e0"/>
      <path id="Path_3373" data-name="Path 3373" d="M299,200.614c0-.2,43.236-.344,96.52-.344s96.52.145,96.52.344-43.223.344-96.52.344S299,200.8,299,200.614Z" transform="translate(-16.79 -0.222)" fill="#e0e0e0"/>
      <path id="Path_3374" data-name="Path 3374" d="M328.024,235.336c-.185,0-.344-21.552-.344-48.141s.159-48.154.344-48.154.344,21.552.344,48.154S328.222,235.336,328.024,235.336Z" transform="translate(-7.55 -19.95)" fill="#e0e0e0"/>
      <path id="Path_3375" data-name="Path 3375" d="M357.3,235.336c-.185,0-.344-21.552-.344-48.141s.159-48.154.344-48.154.344,21.552.344,48.154S357.5,235.336,357.3,235.336Z" transform="translate(1.884 -19.95)" fill="#e0e0e0"/>
      <path id="Path_3376" data-name="Path 3376" d="M386.584,235.336c-.185,0-.344-21.552-.344-48.141s.159-48.154.344-48.154.344,21.552.344,48.154S386.769,235.336,386.584,235.336Z" transform="translate(11.318 -19.95)" fill="#e0e0e0"/>
      <path id="Path_3377" data-name="Path 3377" d="M415.864,235.336c-.185,0-.344-21.552-.344-48.141s.159-48.154.344-48.154.344,21.552.344,48.154S416.049,235.336,415.864,235.336Z" transform="translate(20.752 -19.95)" fill="#e0e0e0"/>
      <path id="Path_3378" data-name="Path 3378" d="M445.144,235.336c-.185,0-.344-21.552-.344-48.141s.159-48.154.344-48.154.344,21.552.344,48.154S445.329,235.336,445.144,235.336Z" transform="translate(30.186 -19.95)" fill="#e0e0e0"/>
      <path id="Path_3379" data-name="Path 3379" d="M492.1,151.12a9.864,9.864,0,0,1-1.454,1.137l-4.337,3.068-16.2,11.186c-13.8,9.454-33.055,22.6-55.056,37.431l-.278.2-.317-.119-16.448-5.54-22.266-7.523.6-.079-38.793,26.008h-.066l-28,9.678-7.7,2.644-2.01.635a2.4,2.4,0,0,1-.714.159,3.053,3.053,0,0,1,.661-.317l1.9-.714,7.589-2.843,27.845-10.115h-.119l38.635-26.259.264-.185.317.106,22.292,7.563,16.448,5.553-.608.079c21.975-14.8,41.385-27.766,55.321-37.021l16.435-10.842,4.456-2.869a9.41,9.41,0,0,1,1.6-1.018Z" transform="translate(-16.771 -16.058)" fill="#e61030"/>
      <circle id="Ellipse_226" data-name="Ellipse 226" cx="2.354" cy="2.354" r="2.354" transform="translate(318.12 198.039)" fill="#e61030"/>
      <path id="Path_3380" data-name="Path 3380" d="M360.147,181.333a2.354,2.354,0,1,1-2.353-2.354,2.354,2.354,0,0,1,2.353,2.354Z" transform="translate(1.394 -7.081)" fill="#e61030"/>
      <path id="Path_3381" data-name="Path 3381" d="M389.427,191.057a2.353,2.353,0,1,1-.685-1.673,2.354,2.354,0,0,1,.685,1.673Z" transform="translate(10.828 -3.953)" fill="#e61030"/>
      <path id="Path_3382" data-name="Path 3382" d="M419.007,171.574a2.354,2.354,0,1,1-2.354-2.354,2.354,2.354,0,0,1,2.354,2.354Z" transform="translate(20.359 -10.226)" fill="#e61030"/>
      <path id="Path_3383" data-name="Path 3383" d="M492.358,213.5a4.377,4.377,0,0,1-.727-.4l-2.062-1.322-7.867-5.024-28.387-18.709h.621L415.3,214.12l-.529.344-.37-.5L394.04,186.512c-6.347-8.568-12.508-16.9-18.352-24.818l1,.079-38.82,39.084-.093.079h-.119l-28.771,9.348-7.854,2.512-2.049.608a3.252,3.252,0,0,1-.727.159,2.711,2.711,0,0,1,.674-.3l2.01-.74,7.775-2.737,28.626-9.771-.2.132,38.595-39.309.555-.555.463.621,18.392,24.791c7.087,9.586,13.949,18.855,20.309,27.475l-.9-.159,38.793-25.77.291-.2.291.2,28.136,19.093,7.669,5.289,1.97,1.415a3.107,3.107,0,0,1,.648.463Z" transform="translate(-17.029 -13.106)" fill="#455a64"/>
      <path id="Path_3384" data-name="Path 3384" d="M360.147,161.574a2.34,2.34,0,1,1-.685-1.668,2.354,2.354,0,0,1,.685,1.668Z" transform="translate(1.394 -13.448)" fill="#455a64"/>
      <path id="Path_3385" data-name="Path 3385" d="M330.867,191.227a2.354,2.354,0,1,1-.685-1.673,2.354,2.354,0,0,1,.685,1.673Z" transform="translate(-8.04 -3.898)" fill="#455a64"/>
      <path id="Path_3386" data-name="Path 3386" d="M389.427,201.1a2.354,2.354,0,1,1-2.353-2.353A2.353,2.353,0,0,1,389.427,201.1Z" transform="translate(10.828 -0.712)" fill="#455a64"/>
      <circle id="Ellipse_227" data-name="Ellipse 227" cx="2.354" cy="2.354" r="2.354" transform="translate(434.262 174.265)" fill="#455a64"/>
      <path id="Path_3387" data-name="Path 3387" d="M317.537,219.084a20.388,20.388,0,0,1-7.457,0A20.389,20.389,0,0,1,317.537,219.084Z" transform="translate(-13.221 5.729)" fill="#e0e0e0"/>
      <path id="Path_3388" data-name="Path 3388" d="M347.457,219.084a20.388,20.388,0,0,1-7.457,0A20.389,20.389,0,0,1,347.457,219.084Z" transform="translate(-3.58 5.729)" fill="#e0e0e0"/>
      <path id="Path_3389" data-name="Path 3389" d="M377.387,219.084a20.388,20.388,0,0,1-7.457,0A20.388,20.388,0,0,1,377.387,219.084Z" transform="translate(6.063 5.729)" fill="#e0e0e0"/>
      <path id="Path_3390" data-name="Path 3390" d="M407.317,219.084a20.388,20.388,0,0,1-7.457,0A20.389,20.389,0,0,1,407.317,219.084Z" transform="translate(15.706 5.729)" fill="#e0e0e0"/>
      <path id="Path_3391" data-name="Path 3391" d="M437.237,219.084a20.388,20.388,0,0,1-7.457,0A20.389,20.389,0,0,1,437.237,219.084Z" transform="translate(25.346 5.729)" fill="#e0e0e0"/>
      <path id="Path_3392" data-name="Path 3392" d="M296.369,210.464a13.394,13.394,0,0,1-6.029,0,13.394,13.394,0,0,1,6.029,0Z" transform="translate(-19.581 2.952)" fill="#e0e0e0"/>
      <path id="Path_3393" data-name="Path 3393" d="M296.369,198.974a13.394,13.394,0,0,1-6.029,0A13.394,13.394,0,0,1,296.369,198.974Z" transform="translate(-19.581 -0.75)" fill="#e0e0e0"/>
      <path id="Path_3394" data-name="Path 3394" d="M296.369,187.484a13.393,13.393,0,0,1-6.029,0A13.4,13.4,0,0,1,296.369,187.484Z" transform="translate(-19.581 -4.452)" fill="#e0e0e0"/>
      <path id="Path_3395" data-name="Path 3395" d="M296.369,175.984a13.394,13.394,0,0,1-6.029,0A13.4,13.4,0,0,1,296.369,175.984Z" transform="translate(-19.581 -8.157)" fill="#e0e0e0"/>
      <path id="Path_3396" data-name="Path 3396" d="M296.369,164.494a13.393,13.393,0,0,1-6.029,0,13.4,13.4,0,0,1,6.029,0Z" transform="translate(-19.581 -11.859)" fill="#e0e0e0"/>
      <path id="Path_3397" data-name="Path 3397" d="M296.369,153a13.394,13.394,0,0,1-6.029,0A13.4,13.4,0,0,1,296.369,153Z" transform="translate(-19.581 -15.561)" fill="#e0e0e0"/>
      <path id="Path_3398" data-name="Path 3398" d="M296.369,141.5a13.393,13.393,0,0,1-6.029,0A13.394,13.394,0,0,1,296.369,141.5Z" transform="translate(-19.581 -19.267)" fill="#e0e0e0"/>
      <rect id="Rectangle_471" data-name="Rectangle 471" width="55.466" height="3.94" transform="translate(281.231 86.234)" fill="#e61030"/>
      <path id="Path_3399" data-name="Path 3399" d="M452.9,122.964c0,.185-34.681.344-77.467.344S298,123.122,298,122.964s34.668-.344,77.454-.344S452.9,122.765,452.9,122.964Z" transform="translate(-17.113 -25.24)" fill="#263238"/>
      <path id="Path_3400" data-name="Path 3400" d="M395.351,233.4c0,.185-21.155.344-47.229.344s-47.242-.159-47.242-.344,21.155-.357,47.242-.357S395.351,233.2,395.351,233.4Z" transform="translate(-16.185 10.337)" fill="#263238"/>
      <path id="Path_3401" data-name="Path 3401" d="M322.91,238.794a72.486,72.486,0,0,1-10.075.344,72.481,72.481,0,0,1-10.075-.344,75.031,75.031,0,0,1,10.075-.344A75.026,75.026,0,0,1,322.91,238.794Z" transform="translate(-15.579 12.066)" fill="#263238"/>
      <path id="Path_3402" data-name="Path 3402" d="M453.468,232.434c0,.2-15.033.344-33.584.344s-33.584-.145-33.584-.344,15.033-.344,33.584-.344S453.468,232.249,453.468,232.434Z" transform="translate(11.337 10.031)" fill="#263238"/>
      <path id="Path_3403" data-name="Path 3403" d="M414.6,235.945a160.483,160.483,0,0,1-21,0,78.619,78.619,0,0,1,10.5-.344A78.792,78.792,0,0,1,414.6,235.945Z" transform="translate(13.689 11.147)" fill="#263238"/>
      <rect id="Rectangle_472" data-name="Rectangle 472" width="128.835" height="115.269" transform="translate(0.119 107.204)" fill="#fafafa"/>
      <path id="Path_3404" data-name="Path 3404" d="M214.514,245.451V213.732c0-20.137-.093-48.921-.159-83.55l.291.291H85.824l.344-.344V245.4l-.3-.3,93.188.145,26.285.079h.119l-26.206.079-93.387.145h-.3V129.64H215.043v.291c0,34.708-.119,63.558-.159,83.735,0,10.049,0,17.942-.079,23.337v6.122A8.507,8.507,0,0,1,214.514,245.451Z" transform="translate(-85.56 -22.978)" fill="#263238"/>
      <path id="Path_3405" data-name="Path 3405" d="M130.382,145.624c0,.185-6.783.344-15.152.344s-15.139-.159-15.139-.344,6.77-.344,15.139-.344S130.382,145.439,130.382,145.624Z" transform="translate(-80.879 -17.939)" fill="#263238"/>
      <path id="Path_3406" data-name="Path 3406" d="M184.576,152.164c0,.2-18.63.344-41.6.344s-41.61-.145-41.61-.344,18.617-.344,41.61-.344S184.576,151.979,184.576,152.164Z" transform="translate(-80.466 -15.832)" fill="#263238"/>
      <rect id="Rectangle_473" data-name="Rectangle 473" width="5.434" height="5.434" transform="translate(19.449 150.995)" fill="#263238"/>
      <rect id="Rectangle_474" data-name="Rectangle 474" width="5.434" height="5.434" transform="translate(32.817 150.995)" fill="#263238"/>
      <rect id="Rectangle_475" data-name="Rectangle 475" width="5.434" height="5.434" transform="translate(46.422 150.757)" fill="#e61030"/>
      <rect id="Rectangle_476" data-name="Rectangle 476" width="5.434" height="5.434" transform="translate(59.538 150.995)" fill="#263238"/>
      <rect id="Rectangle_477" data-name="Rectangle 477" width="5.434" height="5.434" transform="translate(72.893 150.995)" fill="#263238"/>
      <rect id="Rectangle_478" data-name="Rectangle 478" width="5.434" height="5.434" transform="translate(86.26 150.995)" fill="#263238"/>
      <rect id="Rectangle_479" data-name="Rectangle 479" width="5.434" height="5.434" transform="translate(99.614 150.995)" fill="#263238"/>
      <rect id="Rectangle_480" data-name="Rectangle 480" width="5.434" height="5.434" transform="translate(19.449 162.538)" fill="#263238"/>
      <rect id="Rectangle_481" data-name="Rectangle 481" width="5.434" height="5.434" transform="translate(32.817 162.538)" fill="#263238"/>
      <rect id="Rectangle_482" data-name="Rectangle 482" width="5.434" height="5.434" transform="translate(46.171 162.538)" fill="#263238"/>
      <rect id="Rectangle_483" data-name="Rectangle 483" width="5.434" height="5.434" transform="translate(59.538 162.538)" fill="#263238"/>
      <rect id="Rectangle_484" data-name="Rectangle 484" width="5.434" height="5.434" transform="translate(72.893 162.538)" fill="#263238"/>
      <rect id="Rectangle_485" data-name="Rectangle 485" width="5.434" height="5.434" transform="translate(86.511 162.286)" fill="#e61030"/>
      <rect id="Rectangle_486" data-name="Rectangle 486" width="5.434" height="5.434" transform="translate(99.614 162.538)" fill="#263238"/>
      <rect id="Rectangle_487" data-name="Rectangle 487" width="5.434" height="5.434" transform="translate(19.449 174.08)" fill="#263238"/>
      <rect id="Rectangle_488" data-name="Rectangle 488" width="5.434" height="5.434" transform="translate(33.068 173.829)" fill="#e61030"/>
      <rect id="Rectangle_489" data-name="Rectangle 489" width="5.434" height="5.434" transform="translate(46.171 174.08)" fill="#263238"/>
      <rect id="Rectangle_490" data-name="Rectangle 490" width="5.434" height="5.434" transform="translate(59.538 174.08)" fill="#263238"/>
      <rect id="Rectangle_491" data-name="Rectangle 491" width="5.434" height="5.434" transform="translate(72.893 174.08)" fill="#263238"/>
      <rect id="Rectangle_492" data-name="Rectangle 492" width="5.434" height="5.434" transform="translate(86.26 174.08)" fill="#263238"/>
      <rect id="Rectangle_493" data-name="Rectangle 493" width="5.434" height="5.434" transform="translate(99.614 174.08)" fill="#263238"/>
      <rect id="Rectangle_494" data-name="Rectangle 494" width="5.434" height="5.434" transform="translate(19.449 185.61)" fill="#263238"/>
      <rect id="Rectangle_495" data-name="Rectangle 495" width="5.434" height="5.434" transform="translate(32.817 185.61)" fill="#263238"/>
      <rect id="Rectangle_496" data-name="Rectangle 496" width="5.434" height="5.434" transform="translate(46.171 185.61)" fill="#263238"/>
      <rect id="Rectangle_497" data-name="Rectangle 497" width="5.434" height="5.434" transform="translate(59.79 185.372)" fill="#e61030"/>
      <rect id="Rectangle_498" data-name="Rectangle 498" width="5.434" height="5.434" transform="translate(72.893 185.61)" fill="#263238"/>
      <rect id="Rectangle_499" data-name="Rectangle 499" width="5.434" height="5.434" transform="translate(86.26 185.61)" fill="#263238"/>
      <rect id="Rectangle_500" data-name="Rectangle 500" width="5.434" height="5.434" transform="translate(99.614 185.61)" fill="#263238"/>
      <rect id="Rectangle_501" data-name="Rectangle 501" width="5.434" height="5.434" transform="translate(19.449 197.153)" fill="#263238"/>
      <rect id="Rectangle_502" data-name="Rectangle 502" width="5.434" height="5.434" transform="translate(32.817 197.153)" fill="#263238"/>
      <rect id="Rectangle_503" data-name="Rectangle 503" width="5.434" height="5.434" transform="translate(46.171 197.153)" fill="#263238"/>
      <rect id="Rectangle_504" data-name="Rectangle 504" width="5.434" height="5.434" transform="translate(59.538 197.153)" fill="#263238"/>
      <rect id="Rectangle_505" data-name="Rectangle 505" width="5.434" height="5.434" transform="translate(72.893 197.153)" fill="#263238"/>
      <rect id="Rectangle_506" data-name="Rectangle 506" width="5.434" height="5.434" transform="translate(86.511 196.901)" fill="#e61030"/>
      <rect id="Rectangle_507" data-name="Rectangle 507" width="5.434" height="5.434" transform="translate(99.614 197.153)" fill="#263238"/>
      <path id="Path_3407" data-name="Path 3407" d="M182.754,101.3V99.488c0-1.322,0-2.962-.079-5.077,0-4.39-.093-10.5-.159-17.731l.3.317H163.264c-.066.079.661-.648.344-.331h0V101.3l-.291-.278,14.121.145h5.421a9.533,9.533,0,0,1-1.322.066l-3.967.079-14.293.145H163V76.667h0l.344-.357h19.873v.3c-.066,7.312-.119,13.486-.159,17.929,0,2.089-.066,3.768-.079,5.011v1.322A1.52,1.52,0,0,1,182.754,101.3Z" transform="translate(-60.609 -40.161)" fill="#263238"/>
      <path id="Path_3408" data-name="Path 3408" d="M202.091,110.108a1.614,1.614,0,0,1,0-.317v-4.35c0-3.028,0-7.365-.093-12.759,0-10.855-.093-25.994-.159-43.368l.344.331H183.805c.688-.688.2-.172.344-.331V83.6c0,10.326-.066,19.37-.093,26.444l-.225-.212,13.394.119h4.892a1.177,1.177,0,0,1-.291,0h-4.469l-13.526.119h-.212v-.225c0-7.14,0-16.184-.093-26.444V49.327c.159-.159-.344.331.344-.357h18.617V49.3c-.066,17.466-.119,32.685-.145,43.632,0,5.355-.079,9.665-.106,12.68v4.231A1.738,1.738,0,0,1,202.091,110.108Z" transform="translate(-54.005 -48.97)" fill="#263238"/>
      <path id="Path_3409" data-name="Path 3409" d="M222.23,104.36a5.786,5.786,0,0,1,0-.74v-2.063c0-1.851,0-4.429-.079-7.656,0-6.611-.093-15.721-.159-26.444l.331.331H203.785l.331-.331h0v36.81l-.264-.251,13.42.132h5.038a7.786,7.786,0,0,1-1.243,0H217.43l-13.579.145H203.6V67.167h0l.357-.357h18.762v.317c-.066,10.763-.119,19.992-.159,26.6,0,3.2-.066,5.752-.079,7.589v2a3.346,3.346,0,0,1-.251,1.045Z" transform="translate(-47.528 -43.222)" fill="#263238"/>
      <path id="Path_3410" data-name="Path 3410" d="M242.972,108.127a2.2,2.2,0,0,1,0-.278c0-.212,0-.463,0-.78v-2.962c0-2.644,0-6.36-.093-11.014,0-9.374-.093-22.477-.159-37.616l.331.331h-19.3l.331-.344V84.75c0,8.925,0,16.858-.079,23.363l-.238-.225,14.055.119h.145l-14.2.132h-.225V107.9c0-6.505,0-14.438-.079-23.363V55.477c.159-.145-.344.331.357-.357h19.569v.344c0,15.218-.106,28.414-.145,37.841,0,4.628-.079,8.33-.093,10.935v2.9C243,107.849,242.986,108.14,242.972,108.127Z" transform="translate(-41.139 -46.988)" fill="#263238"/>
    </g>
    <g id="freepik--Character--inject-22" transform="translate(234.82 155.085)">
      <path id="Path_3411" data-name="Path 3411" d="M244,366.081c2.063,4.839,10.683,117.4,9.771,115.692l21.75-1.441,1.415-116.882Z" transform="translate(-168.231 -51.634)" fill="#ffbe9d"/>
      <path id="Path_3412" data-name="Path 3412" d="M274.014,453.18l-.066-2.01-23.178.423.145,6.611h1.428c6.373.185,32.433.568,36.651-.569C293.715,456.472,274.014,453.18,274.014,453.18Z" transform="translate(-166.05 -23.371)" fill="#e61030"/>
      <g id="Group_317" data-name="Group 317" transform="translate(84.746 429.269)" opacity="0.3">
        <path id="Path_3413" data-name="Path 3413" d="M259.265,457.595a6.611,6.611,0,0,0-3.041-3.967,9.123,9.123,0,0,0-5.434-1.322l.132,5.289Z" transform="translate(-250.79 -452.282)"/>
      </g>
      <g id="Group_318" data-name="Group 318" transform="translate(84.865 431.699)" opacity="0.3">
        <path id="Path_3414" data-name="Path 3414" d="M283.618,454.12s6.915,1.507,6.082,2.459-27.184,1.322-38.82.714v-.423l30.728-.278S282.269,454.186,283.618,454.12Z" transform="translate(-250.88 -454.12)"/>
      </g>
      <path id="Path_3415" data-name="Path 3415" d="M250.62,456.335h1.547l4.191.093h13.857c5.408,0,10.3-.251,13.843-.41l4.191-.212,1.137-.066h-1.15l-4.191.132c-3.543.119-8.436.251-13.843.331s-10.3.106-13.843.093H250.62Z" transform="translate(-166.099 -21.899)" fill="#263238"/>
      <path id="Path_3416" data-name="Path 3416" d="M274.146,456.935a7.35,7.35,0,0,1,.74-1.653,8.32,8.32,0,0,1,1.4-1.322,3.134,3.134,0,0,0-1.64,1.216A2.208,2.208,0,0,0,274.146,456.935Z" transform="translate(-158.526 -22.472)" fill="#263238"/>
      <path id="Path_3417" data-name="Path 3417" d="M268.943,454.537a2.593,2.593,0,0,0,.714-.727c.331-.436.529-.833.463-.859s-.383.291-.7.74S268.877,454.511,268.943,454.537Z" transform="translate(-160.199 -22.798)" fill="#263238"/>
      <path id="Path_3418" data-name="Path 3418" d="M267.512,453.822a3.943,3.943,0,0,0,.806-.45c.4-.291.661-.582.608-.621a2.043,2.043,0,0,0-.807.449C267.723,453.492,267.459,453.783,267.512,453.822Z" transform="translate(-160.658 -22.863)" fill="#263238"/>
      <path id="Path_3419" data-name="Path 3419" d="M266.58,452.264a3.36,3.36,0,0,0,1.216.106,3.491,3.491,0,0,0,1.2-.119,3.054,3.054,0,0,0-1.216-.106A3.146,3.146,0,0,0,266.58,452.264Z" transform="translate(-160.956 -23.064)" fill="#263238"/>
      <path id="Path_3420" data-name="Path 3420" d="M266.25,451.28a2.644,2.644,0,0,0,1.322.3,2.816,2.816,0,0,0,1.322-.172,7.693,7.693,0,0,0-1.322,0,10.571,10.571,0,0,0-1.322-.132Z" transform="translate(-161.063 -23.336)" fill="#263238"/>
      <path id="Path_3421" data-name="Path 3421" d="M269.5,453.317a5.365,5.365,0,0,0,1.481,0,10.583,10.583,0,0,0,1.573-.3,5.664,5.664,0,0,0,.9-.317.727.727,0,0,0,.357-.383.463.463,0,0,0-.238-.489,3.094,3.094,0,0,0-3.345.714,1.853,1.853,0,0,0-.463.807.7.7,0,0,0,0,.331,3.239,3.239,0,0,1,.661-1.045,2.975,2.975,0,0,1,3.015-.621c.238.132.145.37-.106.5a5.153,5.153,0,0,1-.833.3,12.435,12.435,0,0,1-1.507.344C270.069,453.264,269.5,453.277,269.5,453.317Z" transform="translate(-160.015 -23.231)" fill="#263238"/>
      <path id="Path_3422" data-name="Path 3422" d="M270.272,453.507a1,1,0,0,0,.159-.846,1.9,1.9,0,0,0-.436-.886,1.521,1.521,0,0,0-1.243-.6.489.489,0,0,0-.449.569,1.323,1.323,0,0,0,.264.542,4.073,4.073,0,0,0,.727.714,2.116,2.116,0,0,0,.859.476,9.263,9.263,0,0,1-.727-.582,5.1,5.1,0,0,1-.635-.727c-.212-.251-.357-.7,0-.767a1.4,1.4,0,0,1,.992.5,1.864,1.864,0,0,1,.436.78,4.23,4.23,0,0,1,.053.82Z" transform="translate(-160.404 -23.368)" fill="#263238"/>
      <path id="Path_3423" data-name="Path 3423" d="M250.88,452.331h1.706a8.6,8.6,0,0,1,3.755,1.2,6.386,6.386,0,0,1,2.393,2.644,10.575,10.575,0,0,1,.463,1.322s0-.132,0-.383a5.5,5.5,0,0,0-.278-1.018,6.042,6.042,0,0,0-2.406-2.777,8.211,8.211,0,0,0-3.967-1.177,8.522,8.522,0,0,0-1.322,0A1.67,1.67,0,0,0,250.88,452.331Z" transform="translate(-166.015 -23.065)" fill="#263238"/>
      <path id="Path_3424" data-name="Path 3424" d="M259.36,454.89a15.68,15.68,0,0,0,3.385.225,15.147,15.147,0,0,0,3.358-.278c0-.066-1.507,0-3.372,0A33.121,33.121,0,0,0,259.36,454.89Z" transform="translate(-163.283 -22.199)" fill="#263238"/>
      <path id="Path_3425" data-name="Path 3425" d="M255.94,454.921s.132.264.291.542.251.529.331.529.119-.3-.079-.621S256.019,454.882,255.94,454.921Z" transform="translate(-164.384 -22.164)" fill="#263238"/>
      <path id="Path_3426" data-name="Path 3426" d="M254.62,453.632a1.351,1.351,0,0,0,.344.436c.238.2.489.317.542.264s-.106-.238-.344-.436S254.673,453.592,254.62,453.632Z" transform="translate(-164.81 -22.581)" fill="#263238"/>
      <path id="Path_3427" data-name="Path 3427" d="M252.76,453.088c0,.066.331,0,.674.145s.582.238.648.2-.145-.3-.569-.41S252.734,453.008,252.76,453.088Z" transform="translate(-165.409 -22.79)" fill="#263238"/>
      <path id="Path_3428" data-name="Path 3428" d="M251.44,452.811a.663.663,0,0,0,.3.212.725.725,0,0,0,.4,0c.026,0-.106-.159-.3-.212S251.466,452.745,251.44,452.811Z" transform="translate(-165.834 -22.857)" fill="#263238"/>
      <path id="Path_3429" data-name="Path 3429" d="M212.24,365.85c.608,2.129,12.006,115.957,12.006,115.957L246,480.379,247.41,365.85Z" transform="translate(-178.464 -50.861)" fill="#ffbe9d"/>
      <path id="Path_3430" data-name="Path 3430" d="M243.934,453.8l-.079-2.023-23.165.436.132,6.611h1.441c6.373.185,32.42.569,36.651-.555C263.622,457.1,243.934,453.8,243.934,453.8Z" transform="translate(-175.742 -23.175)" fill="#e61030"/>
      <g id="Group_319" data-name="Group 319" transform="translate(44.961 430.075)" opacity="0.3">
        <path id="Path_3431" data-name="Path 3431" d="M229.189,458.2a6.611,6.611,0,0,0-3.054-3.967,9.11,9.11,0,0,0-5.434-1.322l.132,5.289Z" transform="translate(-220.7 -452.892)"/>
      </g>
      <g id="Group_320" data-name="Group 320" transform="translate(45.08 432.519)" opacity="0.3">
        <path id="Path_3432" data-name="Path 3432" d="M253.528,454.74s6.915,1.507,6.082,2.446-27.171,1.322-38.82.714v-.423l30.728-.278S252.192,454.806,253.528,454.74Z" transform="translate(-220.79 -454.74)"/>
      </g>
      <path id="Path_3433" data-name="Path 3433" d="M220.54,456.961h1.534l4.191.079h13.857c5.408,0,10.3-.251,13.843-.4l4.191-.212,1.137-.079h.4a1.549,1.549,0,0,0-.4,0h-1.15l-4.191.132c-3.53.119-8.422.251-13.83.344s-10.3.093-13.843.093H220.99Z" transform="translate(-175.79 -21.705)" fill="#263238"/>
      <path id="Path_3434" data-name="Path 3434" d="M244.071,457.545a6.348,6.348,0,0,1,.74-1.653,9.262,9.262,0,0,1,1.322-1.322,3.107,3.107,0,0,0-1.64,1.23A2.089,2.089,0,0,0,244.071,457.545Z" transform="translate(-168.223 -22.276)" fill="#263238"/>
      <path id="Path_3435" data-name="Path 3435" d="M238.853,455.161a2.75,2.75,0,0,0,.714-.74c.331-.436.529-.82.463-.859s-.383.3-.7.74S238.787,455.121,238.853,455.161Z" transform="translate(-169.894 -22.602)" fill="#263238"/>
      <path id="Path_3436" data-name="Path 3436" d="M237.422,454.445a1.89,1.89,0,0,0,.807-.463c.4-.291.661-.582.608-.621a1.951,1.951,0,0,0-.793.45C237.659,454.1,237.369,454.393,237.422,454.445Z" transform="translate(-170.353 -22.667)" fill="#263238"/>
      <path id="Path_3437" data-name="Path 3437" d="M236.5,452.873a3,3,0,0,0,1.2.106,3.146,3.146,0,0,0,1.2-.119,3.319,3.319,0,0,0-1.2-.106A3.425,3.425,0,0,0,236.5,452.873Z" transform="translate(-170.648 -22.866)" fill="#263238"/>
      <path id="Path_3438" data-name="Path 3438" d="M236.17,451.9a3.9,3.9,0,0,0,2.644.119,9.531,9.531,0,0,0-1.322,0,9.1,9.1,0,0,0-1.322-.119Z" transform="translate(-170.754 -23.136)" fill="#263238"/>
      <path id="Path_3439" data-name="Path 3439" d="M239.41,453.928a4.983,4.983,0,0,0,1.481,0,10.354,10.354,0,0,0,1.573-.317,5.3,5.3,0,0,0,.9-.317.674.674,0,0,0,.357-.383.436.436,0,0,0-.238-.476,3.081,3.081,0,0,0-3.345.7,1.944,1.944,0,0,0-.463.82v.331a2.908,2.908,0,0,1,.648-1.045,2.644,2.644,0,0,1,1.243-.7,2.8,2.8,0,0,1,1.772.066c.238.145.159.37-.106.5a5.5,5.5,0,0,1-.82.3,12.891,12.891,0,0,1-1.521.357C239.979,453.875,239.41,453.888,239.41,453.928Z" transform="translate(-169.71 -23.035)" fill="#263238"/>
      <path id="Path_3440" data-name="Path 3440" d="M240.181,454.117a1,1,0,0,0,.159-.846,1.693,1.693,0,0,0-.436-.873,1.534,1.534,0,0,0-1.243-.608.5.5,0,0,0-.45.568,1.243,1.243,0,0,0,.278.542,3.742,3.742,0,0,0,.714.727,2.341,2.341,0,0,0,.859.476,7.112,7.112,0,0,1-.714-.595,4.348,4.348,0,0,1-.648-.714c-.212-.251-.357-.714,0-.78a1.454,1.454,0,0,1,.992.5,1.956,1.956,0,0,1,.436.78A2.645,2.645,0,0,1,240.181,454.117Z" transform="translate(-170.098 -23.172)" fill="#263238"/>
      <path id="Path_3441" data-name="Path 3441" d="M220.79,452.943a11.594,11.594,0,0,1,1.706,0,8.5,8.5,0,0,1,3.755,1.19,6.241,6.241,0,0,1,2.393,2.644c.37.807.423,1.322.476,1.322a1.2,1.2,0,0,0,0-.383,3.771,3.771,0,0,0-.278-1,5.989,5.989,0,0,0-2.406-2.79,8.144,8.144,0,0,0-3.967-1.164,7.016,7.016,0,0,0-1.322,0,1.7,1.7,0,0,0-.357.185Z" transform="translate(-175.71 -22.87)" fill="#263238"/>
      <path id="Path_3442" data-name="Path 3442" d="M229.28,455.513a15.942,15.942,0,0,0,3.372.212,15.337,15.337,0,0,0,3.372-.278c0-.066-1.52,0-3.372,0A30.791,30.791,0,0,0,229.28,455.513Z" transform="translate(-172.974 -22.003)" fill="#263238"/>
      <path id="Path_3443" data-name="Path 3443" d="M225.863,455.542c-.066,0,.119.251.291.542s.251.529.331.516.106-.3-.079-.621S225.9,455.489,225.863,455.542Z" transform="translate(-174.079 -21.966)" fill="#263238"/>
      <path id="Path_3444" data-name="Path 3444" d="M224.53,454.242a1.217,1.217,0,0,0,.344.436c.238.185.489.317.542.278s-.093-.251-.344-.436S224.583,454.2,224.53,454.242Z" transform="translate(-174.505 -22.384)" fill="#263238"/>
      <path id="Path_3445" data-name="Path 3445" d="M222.67,453.7c0,.066.331.066.674.159s.582.225.648.185-.145-.3-.569-.41S222.657,453.644,222.67,453.7Z" transform="translate(-175.104 -22.592)" fill="#263238"/>
      <path id="Path_3446" data-name="Path 3446" d="M221.35,453.42a.65.65,0,0,0,.3.212.915.915,0,0,0,.4,0c.026,0-.106-.159-.3-.212S221.376,453.367,221.35,453.42Z" transform="translate(-175.529 -22.659)" fill="#263238"/>
      <path id="Path_3447" data-name="Path 3447" d="M318.948,219.98h0c4.39-2.843,7.127-5.2,10.1-6.9,3.662-2.1,5.024-3.226,4.588-3.874-.6-.886-.331-.569-7.523,2.287,0,0,10.234-4.178,7.312-5.011-1.322-.37-9.837,3.015-9.837,3.015,7.1-2.089,9.454-3.967,9.083-5.064-.542-1.534-10.882,2.644-10.882,2.644s7.933-3.041,9.176-3.967-.621-1.322-2.234-1.322c-1.825.119-12.27,2.314-15.324,2.79a1.825,1.825,0,0,1-2.3-1.547c.145-4.482-2.142-8.039-3.213-8.713s-2.354.569-1.825,1.864a16.32,16.32,0,0,1,.714,4.482,10.578,10.578,0,0,1-.4,3.6c-.384,1.322-.767,2.486-1.124,3.424L285.02,239.416l8.779,21.7Z" transform="translate(-155.015 -106.19)" fill="#ffbe9d"/>
      <path id="Path_3448" data-name="Path 3448" d="M312.85,209.668a20.549,20.549,0,0,0,5.011-1.772,20.245,20.245,0,0,0,4.747-2.406,20.917,20.917,0,0,0-5.011,1.759,20.4,20.4,0,0,0-4.747,2.42Z" transform="translate(-146.048 -102.528)" fill="#eb996e"/>
      <path id="Path_3449" data-name="Path 3449" d="M311.8,207.568a22.676,22.676,0,0,0,5.447-1.573,23.111,23.111,0,0,0,5.209-2.235,45.745,45.745,0,0,0-10.657,3.808Z" transform="translate(-146.387 -103.086)" fill="#eb996e"/>
      <path id="Path_3450" data-name="Path 3450" d="M310.72,205.407a20.664,20.664,0,0,0,5.183-1.415,20.424,20.424,0,0,0,4.945-2.063,20.268,20.268,0,0,0-5.183,1.4,20.745,20.745,0,0,0-4.945,2.076Z" transform="translate(-146.735 -103.675)" fill="#eb996e"/>
      <path id="Path_3451" data-name="Path 3451" d="M283.469,189.695v48.379l.251,34.8L229.735,290.6l.542-26.444s-11.159-34.893-11.159-35.475-1.058-38.013-1.058-38.013l19.952-4.852,25.122-.291Z" transform="translate(-176.589 -108.959)" fill="#e61030"/>
      <path id="Path_3452" data-name="Path 3452" d="M228.166,189.41s-7.047,3.107-9.89,5.421c-1.9,1.547-18.511,31.27-29.287,50.891a18.511,18.511,0,0,0,8.092,25.558l31.005,15.139,9.361-25.994L219.7,250.839,233.111,227.5l-4.945-38.092" transform="translate(-186.695 -107.709)" fill="#e61030"/>
      <path id="Path_3453" data-name="Path 3453" d="M220.813,266.385l-11.543-.859v-9.679l16.871-4.257Z" transform="translate(-179.421 -87.675)" fill="#e61030"/>
      <path id="Path_3454" data-name="Path 3454" d="M209.34,241.153a25.57,25.57,0,0,0,5.685.106,8.542,8.542,0,0,0,5.077-2.327c1.825-1.9,2.274-4.694,2.644-7.3l1.9-13.473c-4.562.278-8.383,3.821-10.353,7.933s-2.406,8.766-2.816,13.3" transform="translate(-179.399 -98.446)" fill="#e61030"/>
      <path id="Path_3455" data-name="Path 3455" d="M269.3,188.68l21.777,49.463,14-19.2s14.253,6.994,12.534,27.343l-16.937,23.019a15.708,15.708,0,0,1-23.39-4.509L262.05,238.143Z" transform="translate(-162.416 -107.944)" fill="#e61030"/>
      <path id="Path_3456" data-name="Path 3456" d="M226,188.352c-.225,0,31.376,35.17,31.376,35.17l6.492-37.141S244.3,181.78,226,188.352Z" transform="translate(-174.031 -109.19)" fill="#ffbe9d"/>
      <path id="Path_3457" data-name="Path 3457" d="M281.22,248.228a3.36,3.36,0,0,1-.635-.542c-.436-.436-1-.992-1.719-1.666-1.481-1.468-3.583-3.61-6.161-6.294-5.157-5.355-12.125-12.918-19.674-21.38L233.753,196.61,227.909,190l-1.573-1.838a3.755,3.755,0,0,1-.516-.661,5.286,5.286,0,0,1,.621.569l1.666,1.719c1.441,1.507,3.491,3.7,6,6.439,5.038,5.474,11.9,13.143,19.436,21.6S268,233.9,273.049,239.343l6.016,6.426,1.626,1.759a4.966,4.966,0,0,1,.529.7Z" transform="translate(-174.089 -108.325)" fill="#263238"/>
      <path id="Path_3458" data-name="Path 3458" d="M229.1,251.831a10.037,10.037,0,0,1-.569-1.666l-1.322-4.6c-1.137-3.887-2.79-9.255-4.614-15.113s-3.385-11.278-4.35-15.218c-.476-1.97-.846-3.57-1.058-4.681a9.253,9.253,0,0,1-.278-1.732,7.827,7.827,0,0,1,.542,1.679c.331,1.216.754,2.763,1.322,4.614,1.084,3.887,2.644,9.255,4.522,15.139s3.424,11.265,4.443,15.179c.5,1.957.9,3.557,1.137,4.654a8.235,8.235,0,0,1,.225,1.745Z" transform="translate(-176.96 -101.455)" fill="#263238"/>
      <path id="Path_3459" data-name="Path 3459" d="M200.711,234.469a1.287,1.287,0,0,1-.066-.727,2.763,2.763,0,0,1,1.124-1.692,4.1,4.1,0,0,1,2.9-.793,8.885,8.885,0,0,1,3.385,1.256c4.244,2.644,7.933,4.046,7.933,4.231a26.444,26.444,0,0,1-8.264-3.623,9.071,9.071,0,0,0-3.134-1.23,3.662,3.662,0,0,0-2.539.555,2.75,2.75,0,0,0-1.137,1.322C200.764,234.2,200.764,234.469,200.711,234.469Z" transform="translate(-182.206 -94.234)" fill="#263238"/>
      <path id="Path_3460" data-name="Path 3460" d="M223.492,240.66c.093.093-1.2,1.322-3.054,3.557a49.6,49.6,0,0,0-10.168,19.926c-.7,2.8-.939,4.588-1.058,4.575a4.257,4.257,0,0,1,0-1.322,27.835,27.835,0,0,1,.529-3.411,43.249,43.249,0,0,1,10.207-20.137,30.141,30.141,0,0,1,2.433-2.446,4.56,4.56,0,0,1,1.111-.74Z" transform="translate(-179.456 -91.197)" fill="#263238"/>
      <path id="Path_3461" data-name="Path 3461" d="M266.17,198a11.4,11.4,0,0,1,.582,1.9c.331,1.23.793,3.028,1.322,5.289a81.094,81.094,0,0,1,2.38,17.784,92.635,92.635,0,0,1-1.983,17.823c-.436,2.248-.833,4.059-1.124,5.289a9.731,9.731,0,0,1-.529,1.917,12.174,12.174,0,0,1,.265-1.97l.912-5.355a105.56,105.56,0,0,0,1.772-17.731,91.839,91.839,0,0,0-2.168-17.678c-.436-2.142-.806-3.967-1.1-5.289A10.1,10.1,0,0,1,266.17,198Z" transform="translate(-161.088 -104.942)" fill="#263238"/>
      <path id="Path_3462" data-name="Path 3462" d="M283.677,241.552a38.223,38.223,0,0,1,.132-7.206,36.693,36.693,0,0,1,.833-7.166,38.978,38.978,0,0,1-.145,7.206,38.436,38.436,0,0,1-.82,7.166Z" transform="translate(-155.483 -95.54)" fill="#263238"/>
      <path id="Path_3463" data-name="Path 3463" d="M289.969,241.573a56.376,56.376,0,0,1-3.53-8.026,56.487,56.487,0,0,1-2.909-8.277,53.82,53.82,0,0,1,3.543,8.026,53.651,53.651,0,0,1,2.9,8.277Z" transform="translate(-155.495 -96.155)" fill="#263238"/>
      <path id="Path_3464" data-name="Path 3464" d="M299.9,248.765c-.119,0,.093-1.811,0-4.707a29.962,29.962,0,0,0-2.42-10.908,35,35,0,0,0-6.241-9.322c-1.97-2.116-3.332-3.305-3.253-3.4a4.3,4.3,0,0,1,1.031.74,33.148,33.148,0,0,1,9.1,11.7,27.872,27.872,0,0,1,2.274,11.186,25.92,25.92,0,0,1-.238,3.451A3.966,3.966,0,0,1,299.9,248.765Z" transform="translate(-154.059 -97.715)" fill="#263238"/>
      <path id="Path_3465" data-name="Path 3465" d="M241.873,197.338s-.516-.264-1.468-.674a10.379,10.379,0,0,0-4.257-.74,9.731,9.731,0,0,0-5.884,2.155c-1.891,1.507-3.147,3.967-5.024,6.2a8.9,8.9,0,0,1-3.411,2.644,8.2,8.2,0,0,1-3.967.476,12.217,12.217,0,0,1-6.1-2.644,25.414,25.414,0,0,1-3.279-3.028,8.174,8.174,0,0,1-1.058-1.243,6.7,6.7,0,0,1,1.243,1.058,36.429,36.429,0,0,0,3.372,2.816,12.231,12.231,0,0,0,5.884,2.406,7.814,7.814,0,0,0,3.663-.476,8.435,8.435,0,0,0,3.147-2.406c1.8-2.129,3.094-4.654,5.143-6.254a10.049,10.049,0,0,1,6.28-2.129,9.586,9.586,0,0,1,4.363.978,6.987,6.987,0,0,1,1.045.635Q241.9,197.325,241.873,197.338Z" transform="translate(-180.014 -105.747)" fill="#fafafa"/>
      <path id="Path_3466" data-name="Path 3466" d="M225.278,236.17a1.628,1.628,0,0,1-.357.159,4.337,4.337,0,0,1-1.124.212,6.532,6.532,0,0,1-3.967-1.23,11.053,11.053,0,0,1-3.967-4.76c-1-2.116-1.64-4.588-2.644-7.008a15.549,15.549,0,0,0-4.112-5.976,16.475,16.475,0,0,0-5.1-3.081,23.415,23.415,0,0,0-5.434-1.15,5.051,5.051,0,0,1,1.521-.079,13.922,13.922,0,0,1,4.072.767,16.065,16.065,0,0,1,5.368,3.067,15.867,15.867,0,0,1,4.337,6.188c.992,2.5,1.6,4.958,2.539,7.008a11.014,11.014,0,0,0,3.636,4.628,6.611,6.611,0,0,0,3.7,1.322C224.749,236.289,225.265,236.1,225.278,236.17Z" transform="translate(-182.869 -100.034)" fill="#fafafa"/>
      <path id="Path_3467" data-name="Path 3467" d="M194.4,256.5a7.335,7.335,0,0,0,1.322-.278,5.355,5.355,0,0,0,2.565-2.578,20.533,20.533,0,0,0,1.613-5.368,27.607,27.607,0,0,1,1.983-6.756,9.64,9.64,0,0,1,2.261-2.949,10.578,10.578,0,0,1,2.962-1.8,14.649,14.649,0,0,1,5.7-.952,22.86,22.86,0,0,1,3.848.436,5.621,5.621,0,0,1,1.322.37c0,.132-2.01-.317-5.223-.317a14.412,14.412,0,0,0-5.447,1.058,9.256,9.256,0,0,0-4.852,4.469,28.162,28.162,0,0,0-1.983,6.611,19.7,19.7,0,0,1-1.811,5.474,5.434,5.434,0,0,1-2.9,2.644,2.791,2.791,0,0,1-1.071.106A.926.926,0,0,1,194.4,256.5Z" transform="translate(-184.212 -92.758)" fill="#fafafa"/>
      <path id="Path_3468" data-name="Path 3468" d="M225.8,251.733a44.5,44.5,0,0,0-7.788,1.071,43.736,43.736,0,0,0-7.206,3.12,15.232,15.232,0,0,1,7.021-3.781,15.4,15.4,0,0,1,7.973-.41Z" transform="translate(-178.925 -87.739)" fill="#fafafa"/>
      <path id="Path_3469" data-name="Path 3469" d="M257.2,213.1a11.307,11.307,0,0,1-1.56.621,18.973,18.973,0,0,0-3.861,2.34c-1.521,1.164-3.173,2.75-5.024,4.509a28.084,28.084,0,0,1-6.611,5.077,13.631,13.631,0,0,1-8.29,1.2,25.386,25.386,0,0,1-6.518-2.076c-1.772-.82-3.134-1.6-4.059-2.142a7.564,7.564,0,0,1-1.415-.926c.066-.119,2.142,1.084,5.672,2.644a25.955,25.955,0,0,0,6.413,1.838,13.222,13.222,0,0,0,7.933-1.2,29.089,29.089,0,0,0,6.545-4.919,57.1,57.1,0,0,1,5.156-4.443,16.567,16.567,0,0,1,4.059-2.195,6.014,6.014,0,0,1,1.56-.331Z" transform="translate(-176.009 -100.076)" fill="#fafafa"/>
      <path id="Path_3470" data-name="Path 3470" d="M274.633,217.18c0,.212-4.813,0-10.578.926s-10.379,2.393-10.445,2.182a12.11,12.11,0,0,1,2.922-1.164,48.522,48.522,0,0,1,7.417-1.706,50.244,50.244,0,0,1,7.589-.516A11.714,11.714,0,0,1,274.633,217.18Z" transform="translate(-165.135 -98.855)" fill="#fafafa"/>
      <path id="Path_3471" data-name="Path 3471" d="M271.629,205.075a13.088,13.088,0,0,1-2.909-.688l-6.9-2.01-6.889-2.036a13.315,13.315,0,0,1-2.829-.992,12.481,12.481,0,0,1,2.948.516c1.8.423,4.257,1.058,6.968,1.851s5.117,1.587,6.849,2.208a12.641,12.641,0,0,1,2.763,1.15Z" transform="translate(-165.622 -104.507)" fill="#fafafa"/>
      <path id="Path_3472" data-name="Path 3472" d="M276.219,205.77c.079.2-1.878,1-3.967,2.5s-3.543,3.015-3.7,2.882a12.3,12.3,0,0,1,7.682-5.381Z" transform="translate(-160.322 -102.438)" fill="#fafafa"/>
      <path id="Path_3473" data-name="Path 3473" d="M288.2,224a2.935,2.935,0,0,1-.2,1.045,12.59,12.59,0,0,1-1.111,2.644,20,20,0,0,1-6.611,6.823,39.839,39.839,0,0,1-8.528,4.059,20.679,20.679,0,0,1-3.742,1.111,24.064,24.064,0,0,1,3.557-1.573,47.772,47.772,0,0,0,8.33-4.178,21.539,21.539,0,0,0,6.505-6.479C287.711,225.323,288.081,223.908,288.2,224Z" transform="translate(-160.496 -96.566)" fill="#fafafa"/>
      <path id="Path_3474" data-name="Path 3474" d="M286.475,259.8a24.959,24.959,0,0,1-.648-4.324c-.3-2.644-.608-6.386-.793-10.5s-.212-7.841-.145-10.578a24.781,24.781,0,0,1,.265-4.363,31.884,31.884,0,0,1,.211,4.363c.079,2.644.172,6.4.357,10.5s.41,7.814.582,10.5a31.535,31.535,0,0,1,.172,4.4Z" transform="translate(-155.068 -94.618)" fill="#fafafa"/>
      <path id="Path_3475" data-name="Path 3475" d="M308.417,224.68a45.546,45.546,0,0,0-9.678-3.967,46.274,46.274,0,0,0-10.419-.978,10.181,10.181,0,0,1,3.094-.45,27.158,27.158,0,0,1,7.5.754,26.827,26.827,0,0,1,6.981,2.816A9.773,9.773,0,0,1,308.417,224.68Z" transform="translate(-153.952 -98.09)" fill="#fafafa"/>
      <path id="Path_3476" data-name="Path 3476" d="M310.709,212.444c0,.066-.436-.3-1.164-.714a5.712,5.712,0,0,0-3.16-.727h-.516l.185-.489a10.677,10.677,0,0,0,.383-1.2,13.671,13.671,0,0,0-.212-5.95,3.447,3.447,0,0,1,.82,1.653,8.753,8.753,0,0,1,0,4.456,9.252,9.252,0,0,1-.423,1.322l-.331-.463a5.408,5.408,0,0,1,3.438,1.045C310.5,211.915,310.762,212.4,310.709,212.444Z" transform="translate(-148.297 -103.215)" fill="#eb996e"/>
      <path id="Path_3477" data-name="Path 3477" d="M235.22,243.79l-.2,1.97s-24.289,29.366-26.246,49.543c-1.613,16.66,2.8,143.115,2.8,143.115l79.755-8.925-3.57-183.785Z" transform="translate(-179.695 -90.188)" fill="#263238"/>
      <path id="Path_3478" data-name="Path 3478" d="M257.524,264.78a2.18,2.18,0,0,1,0,.423c0,.317,0,.714,0,1.23,0,1.124-.079,2.644-.145,4.694-.119,4.086-.41,10-.754,17.294-.754,14.544-1.983,34.747-3.57,56.987s-3.186,42.31-4.4,56.921c-.635,7.246-1.15,13.129-1.507,17.189-.185,2-.344,3.57-.45,4.681l-.132,1.216a1.639,1.639,0,0,1-.079.41,1.574,1.574,0,0,1,0-.41l.066-1.23c.079-1.111.185-2.644.331-4.694.3-4.112.74-10,1.322-17.255,1.084-14.544,2.565-34.721,4.2-56.934s2.9-42.376,3.768-56.96c.41-7.259.74-13.143.978-17.281.119-2,.212-3.57.278-4.694a12.126,12.126,0,0,1,.093-1.216A1.323,1.323,0,0,1,257.524,264.78Z" transform="translate(-167.436 -83.425)" fill="#455a64"/>
      <path id="Path_3479" data-name="Path 3479" d="M246.588,291.877a3.2,3.2,0,0,0-1.018,1.613,2.3,2.3,0,0,0,.383,1.878,2.142,2.142,0,0,0,3.623-1.058,2.3,2.3,0,0,0-.688-1.785,3.252,3.252,0,0,0-1.719-.82.963.963,0,0,1,.569-.145,2.393,2.393,0,0,1,1.481.608,2.608,2.608,0,1,1-3.768,3.583,2.645,2.645,0,0,1-.357-2.38,2.34,2.34,0,0,1,.939-1.322C246.336,291.851,246.574,291.838,246.588,291.877Z" transform="translate(-167.923 -74.797)" fill="#455a64"/>
      <path id="Path_3480" data-name="Path 3480" d="M244.778,314.077a3.2,3.2,0,0,0-1.018,1.613,2.3,2.3,0,0,0,.383,1.878,1.97,1.97,0,0,0,2.129.569,2.01,2.01,0,0,0,1.494-1.626,2.3,2.3,0,0,0-.688-1.785,3.253,3.253,0,0,0-1.719-.82.963.963,0,0,1,.569-.145,2.446,2.446,0,0,1,1.481.608,2.71,2.71,0,0,1,.992,2.195,2.565,2.565,0,0,1-1.944,2.221,2.539,2.539,0,0,1-2.816-.833,2.644,2.644,0,0,1-.357-2.38,2.341,2.341,0,0,1,.939-1.322A1.243,1.243,0,0,1,244.778,314.077Z" transform="translate(-168.507 -67.644)" fill="#455a64"/>
      <path id="Path_3481" data-name="Path 3481" d="M242.573,335.524c.079.106-.754.436-1,1.626a2.353,2.353,0,0,0,.37,1.878,2.01,2.01,0,0,0,2.142.555,1.983,1.983,0,0,0,1.494-1.613,2.314,2.314,0,0,0-.688-1.8,3.146,3.146,0,0,0-1.732-.807.964.964,0,0,1,.569-.145,2.5,2.5,0,0,1,1.494.595,2.635,2.635,0,1,1-4.125,1.2,2.393,2.393,0,0,1,.926-1.322C242.335,335.511,242.56,335.5,242.573,335.524Z" transform="translate(-169.211 -60.73)" fill="#455a64"/>
      <path id="Path_3482" data-name="Path 3482" d="M240.815,360.074c.066.106-.767.436-1.018,1.626a2.3,2.3,0,0,0,.383,1.878,2,2,0,0,0,2.129.555,1.944,1.944,0,0,0,1.494-1.613,2.274,2.274,0,0,0-.688-1.8,3.16,3.16,0,0,0-1.719-.807.964.964,0,0,1,.568-.145,2.446,2.446,0,0,1,1.481.6,2.763,2.763,0,0,1,.992,2.208,2.724,2.724,0,0,1-4.76,1.388,2.777,2.777,0,0,1-.357-2.393,2.472,2.472,0,0,1,.939-1.322A1.242,1.242,0,0,1,240.815,360.074Z" transform="translate(-169.78 -52.82)" fill="#455a64"/>
      <path id="Path_3483" data-name="Path 3483" d="M268.868,171.495c.145.172,0,.648-.661,1.23a6.082,6.082,0,0,1-3.385,1.415,7.206,7.206,0,0,1-5.434-1.679,7.933,7.933,0,0,1-2.856-6.452,14.822,14.822,0,0,1,2.036-6.122,41.183,41.183,0,0,1,2.512-4.152c1.587-2.274,2.856-3.477,3.253-3.226s-.119,1.891-1.111,4.376c-.529,1.322-1.137,2.763-1.785,4.35a16.094,16.094,0,0,0-1.468,4.932,5.289,5.289,0,0,0,1.547,3.967,5.421,5.421,0,0,0,3.266,1.6C267.07,171.971,268.564,171.085,268.868,171.495Z" transform="translate(-164.196 -119.61)" fill="#263238"/>
      <path id="Path_3484" data-name="Path 3484" d="M236.331,145.536a8.5,8.5,0,0,0,5.289-9,10.578,10.578,0,0,0-6.955-8.224,14.015,14.015,0,0,0-10.974.978,14.319,14.319,0,0,0-6.968,7.537,11.186,11.186,0,0,0,1.018,10.062,11.635,11.635,0,0,0,11.992,4.3,16.409,16.409,0,0,0,10.287-8.158" transform="translate(-177.262 -127.618)" fill="#263238"/>
      <path id="Path_3485" data-name="Path 3485" d="M221.88,129.04a4.284,4.284,0,0,1,2.763.145,9.85,9.85,0,0,1,5.289,4.138,19.463,19.463,0,0,1,2.38,6.228,9.255,9.255,0,0,1,.3,2.71,12.88,12.88,0,0,1-.859-2.644,22.834,22.834,0,0,0-2.486-5.963,10.273,10.273,0,0,0-4.813-4.059A16.617,16.617,0,0,0,221.88,129.04Z" transform="translate(-175.358 -127.213)" fill="#455a64"/>
      <path id="Path_3486" data-name="Path 3486" d="M230.39,127.78a4.773,4.773,0,0,1,1.137,1.838,13.8,13.8,0,0,1,1.111,5.1,13.963,13.963,0,0,1-.807,5.157,4.668,4.668,0,0,1-1.031,1.9,24.039,24.039,0,0,0,1.15-7.047A24.394,24.394,0,0,0,230.39,127.78Z" transform="translate(-172.617 -127.566)" fill="#455a64"/>
      <path id="Path_3487" data-name="Path 3487" d="M216.12,135.77c.119,0,.357,1.031,1.23,2.5a10.71,10.71,0,0,0,11.278,5.13c1.679-.3,2.644-.807,2.644-.7a5.619,5.619,0,0,1-2.644,1.177,10.393,10.393,0,0,1-11.807-5.381,5.593,5.593,0,0,1-.7-2.724Z" transform="translate(-177.214 -124.992)" fill="#455a64"/>
      <path id="Path_3488" data-name="Path 3488" d="M231.79,129.256a1.626,1.626,0,0,1,.45-.3,2.882,2.882,0,0,1,1.428-.291,3.834,3.834,0,0,1,2.076.688,4.31,4.31,0,0,1,1.587,2.155,6.611,6.611,0,0,1-.132,4.76,2.974,2.974,0,0,1-.912,1.15,1.163,1.163,0,0,1-.476.251,3.464,3.464,0,0,0,1.2-1.481,6.611,6.611,0,0,0,0-4.588,4.337,4.337,0,0,0-1.481-2.036,3.782,3.782,0,0,0-1.93-.714,3.967,3.967,0,0,0-1.811.41Z" transform="translate(-172.165 -127.284)" fill="#263238"/>
      <path id="Path_3489" data-name="Path 3489" d="M236.036,183.961c-3.967-5.117-8.184-11.649-10.022-17.836a27.078,27.078,0,0,1,.807-18.921c3.173-6.862,9.93-11.688,17.189-13.579a25.716,25.716,0,0,1,18.6,1.811,18.511,18.511,0,0,1,9.877,15.351" transform="translate(-174.455 -125.994)" fill="#263238"/>
      <path id="Path_3490" data-name="Path 3490" d="M249.82,135.842c1.6-.159,8.885,1.573,12.891,4.39a16.038,16.038,0,0,1,6.756,14.61c-.37,3.107-3.57,7.338-4.852,9.745a95.937,95.937,0,0,1-6.942,11.08" transform="translate(-166.356 -124.972)" fill="#263238"/>
      <path id="Path_3491" data-name="Path 3491" d="M233,156.948a17.876,17.876,0,0,1,18.788-17.493,18.246,18.246,0,0,1,16.911,18.3,187.068,187.068,0,0,1-.582,19.833c-1.441,9.057-7.272,11.82-9.573,12.561a11.9,11.9,0,0,1-2.472.251h0l-.066.066.5,10.71c-.093,6.968-4.786,12.495-11.741,12.495s-11.569-6.016-11.622-13.01Z" transform="translate(-171.776 -123.812)" fill="#ffbe9d"/>
      <path id="Path_3492" data-name="Path 3492" d="M257.549,156.64a1.468,1.468,0,0,1-1.4,1.481,1.4,1.4,0,0,1-1.507-1.322,1.454,1.454,0,0,1,1.4-1.468,1.4,1.4,0,0,1,1.507,1.309Z" transform="translate(-164.803 -118.691)" fill="#263238"/>
      <path id="Path_3493" data-name="Path 3493" d="M259.59,155.294c-.185.185-1.322-.635-2.856-.621s-2.724.78-2.882.595.093-.436.6-.793a3.967,3.967,0,0,1,2.314-.714,3.808,3.808,0,0,1,2.274.727C259.511,154.857,259.682,155.2,259.59,155.294Z" transform="translate(-165.073 -119.196)" fill="#263238"/>
      <path id="Path_3494" data-name="Path 3494" d="M246.149,156.64a1.468,1.468,0,0,1-1.4,1.481,1.4,1.4,0,0,1-1.507-1.322,1.454,1.454,0,0,1,1.415-1.468,1.388,1.388,0,0,1,1.494,1.309Z" transform="translate(-168.476 -118.691)" fill="#263238"/>
      <path id="Path_3495" data-name="Path 3495" d="M247.921,155.514c-.172.185-1.322-.635-2.843-.621s-2.724.78-2.9.6.093-.423.608-.793a3.967,3.967,0,0,1,2.3-.714,3.861,3.861,0,0,1,2.274.727C247.855,155.077,248.014,155.421,247.921,155.514Z" transform="translate(-168.834 -119.125)" fill="#263238"/>
      <path id="Path_3496" data-name="Path 3496" d="M250.991,167.114a10.724,10.724,0,0,1,2.552-.463c.4,0,.78-.119.846-.4a2.1,2.1,0,0,0-.264-1.177l-1.19-3.054a53.593,53.593,0,0,1-2.644-7.933,52.889,52.889,0,0,1,3.292,7.748c.4,1.071.78,2.089,1.137,3.068a2.327,2.327,0,0,1,.212,1.573,1.044,1.044,0,0,1-.661.595,2.644,2.644,0,0,1-.674.093A10.325,10.325,0,0,1,250.991,167.114Z" transform="translate(-166.205 -119.089)" fill="#263238"/>
      <path id="Path_3497" data-name="Path 3497" d="M253.765,178.989s-6.056.5-13.645-4.059c0,0,2.393,8.013,13.777,6.942Z" transform="translate(-169.482 -112.375)" fill="#eb996e"/>
      <path id="Path_3498" data-name="Path 3498" d="M251.46,167.059a2.843,2.843,0,0,0-2.539-1.044,2.644,2.644,0,0,0-1.785.952,1.64,1.64,0,0,0-.119,1.864,1.9,1.9,0,0,0,2.063.529,5.977,5.977,0,0,0,2-1.2,1.666,1.666,0,0,0,.45-.463.516.516,0,0,0,0-.582" transform="translate(-167.335 -115.253)" fill="#eb996e"/>
      <path id="Path_3499" data-name="Path 3499" d="M247.391,164.76c.251,0,.251,1.692,1.719,2.9s3.266,1.031,3.279,1.322-.4.331-1.164.344a4.257,4.257,0,0,1-2.75-.952,3.676,3.676,0,0,1-1.322-2.433C247.087,165.17,247.272,164.747,247.391,164.76Z" transform="translate(-167.22 -115.651)" fill="#263238"/>
      <path id="Path_3500" data-name="Path 3500" d="M248.8,153.346c-.159.423-1.719.225-3.57.45s-3.319.727-3.57.344c-.106-.185.145-.595.754-1a6.228,6.228,0,0,1,5.434-.595C248.518,152.8,248.862,153.148,248.8,153.346Z" transform="translate(-168.994 -119.707)" fill="#263238"/>
      <path id="Path_3501" data-name="Path 3501" d="M259.053,152.881c-.264.357-1.322,0-2.644,0s-2.393.238-2.644-.132,0-.542.542-.873a3.636,3.636,0,0,1,2.155-.6,3.689,3.689,0,0,1,2.116.727C259.026,152.339,259.185,152.709,259.053,152.881Z" transform="translate(-165.117 -119.995)" fill="#263238"/>
      <path id="Path_3502" data-name="Path 3502" d="M232.108,163.922c6.307,1.56,12.561-1.4,17.678-5.54a24.461,24.461,0,0,0,8.687-17.691c0-1.388.185-4.456-1.15-4.747-2.8-.621-3.16-.516-4.932,0-5.289,1.468-15.047,2.42-18.4,7.087s-4.046,12.27-4.046,18.207" transform="translate(-172.762 -125.073)" fill="#263238"/>
      <path id="Path_3503" data-name="Path 3503" d="M262.208,156.466a11.182,11.182,0,0,0,1.137-.264,6.122,6.122,0,0,0,2.644-1.666,6.611,6.611,0,0,0,1.851-4.152,9.256,9.256,0,0,0-1.322-5.447,13.606,13.606,0,0,0-3.967-4.086,23.983,23.983,0,0,0-4.112-2.248c-1.216-.542-2.234-.926-2.935-1.2l-.807-.317a1.229,1.229,0,0,1-.278-.132.833.833,0,0,1,.291.079l.833.264c.7.251,1.732.608,2.975,1.124a23.666,23.666,0,0,1,4.178,2.221,13.658,13.658,0,0,1,4.046,4.152,9.388,9.388,0,0,1,1.322,5.619,6.849,6.849,0,0,1-1.957,4.271,6.135,6.135,0,0,1-2.737,1.626A3.676,3.676,0,0,1,262.208,156.466Z" transform="translate(-164.874 -124.612)" fill="#263238"/>
      <path id="Path_3504" data-name="Path 3504" d="M225.37,151.138a11.928,11.928,0,0,0,1.322.926,9.374,9.374,0,0,0,4.072,1.322,13.221,13.221,0,0,0,6.267-1.058,42.761,42.761,0,0,0,6.955-3.834,40.989,40.989,0,0,0,6.307-4.826,20.4,20.4,0,0,0,6.135-10.578,5.354,5.354,0,0,1-.172,1.626,15.707,15.707,0,0,1-1.534,4.178,21.447,21.447,0,0,1-3.967,5.289,39.1,39.1,0,0,1-6.373,4.958,42.177,42.177,0,0,1-7.087,3.848,13.447,13.447,0,0,1-6.611.952,9.163,9.163,0,0,1-4.178-1.56,7.049,7.049,0,0,1-.912-.807A3.022,3.022,0,0,1,225.37,151.138Z" transform="translate(-174.234 -125.855)" fill="#455a64"/>
      <path id="Path_3505" data-name="Path 3505" d="M239.151,135.36a56.365,56.365,0,0,0-7.14,4.971,56.308,56.308,0,0,0-5.791,6.492,7.8,7.8,0,0,1,1.216-2.3,24.9,24.9,0,0,1,9.255-8.237A7.284,7.284,0,0,1,239.151,135.36Z" transform="translate(-173.96 -125.124)" fill="#455a64"/>
      <path id="Path_3506" data-name="Path 3506" d="M236.211,157.732a4.257,4.257,0,0,0-4.628.621,4.39,4.39,0,0,0,.793,6.9,3.742,3.742,0,0,0,2.829.9" transform="translate(-172.66 -118.051)" fill="#ffbe9d"/>
      <path id="Path_3507" data-name="Path 3507" d="M234.355,162.837c0,.079-.344.357-1.045.264a2.01,2.01,0,0,1-1.1-.529,2.089,2.089,0,0,1-.661-1.322,2.142,2.142,0,0,1,.423-1.468,2.01,2.01,0,0,1,.992-.7c.674-.212,1.1,0,1.071.079s-.4.093-.886.37a1.732,1.732,0,0,0-.912,1.666,1.706,1.706,0,0,0,1.177,1.481C233.945,162.811,234.328,162.745,234.355,162.837Z" transform="translate(-172.245 -117.51)" fill="#eb996e"/>
      <path id="Path_3508" data-name="Path 3508" d="M237.67,184.833c0,.2-1.031.621-3.054.476a12.323,12.323,0,0,1-7.576-3.848,11.9,11.9,0,0,1-2.949-5.381,12.746,12.746,0,0,1,.37-7.074,13.328,13.328,0,0,1,4.562-6.426,17.573,17.573,0,0,1,7.669-2.935,35.834,35.834,0,0,0,7.008-1.679,22.226,22.226,0,0,0,12.389-11.9,26.615,26.615,0,0,0,1.944-7.4c.212-1.838.264-2.9.516-2.922s.635.978.833,2.935a20.811,20.811,0,0,1-1.018,8.251,22.742,22.742,0,0,1-7.008,10.326,23.694,23.694,0,0,1-6.413,3.874,35.419,35.419,0,0,1-7.6,1.917,15.112,15.112,0,0,0-6.307,2.274,10.406,10.406,0,0,0-3.583,4.773,10.22,10.22,0,0,0-.569,5.421,10.075,10.075,0,0,0,2,4.39,12.481,12.481,0,0,0,6,4.112C236.586,184.516,237.657,184.569,237.67,184.833Z" transform="translate(-174.753 -125.002)" fill="#455a64"/>
      <path id="Path_3509" data-name="Path 3509" d="M224.24,157.334c0-.489,2.644-.807,6.7-1.322s9.7-1.322,15.033-3.967a22.068,22.068,0,0,0,6.532-5.038,18.259,18.259,0,0,0,3.385-5.8c1.322-3.676.9-6.28,1.428-6.373.212,0,.621.542.912,1.745a12.521,12.521,0,0,1,0,5.289,17.81,17.81,0,0,1-3.266,7.166,22.067,22.067,0,0,1-7.418,6.1,30.172,30.172,0,0,1-8.978,2.9,40.325,40.325,0,0,1-7.523.489C226.805,158.339,224.24,157.8,224.24,157.334Z" transform="translate(-174.598 -125.295)" fill="#455a64"/>
      <path id="Path_3510" data-name="Path 3510" d="M235.116,228.457l-3.663,45.523a3.464,3.464,0,0,0,3.557,3.755l34.086-.926a3.464,3.464,0,0,0,3.358-3.12l4.681-44.584a3.477,3.477,0,0,0-3.451-3.834H238.566a3.464,3.464,0,0,0-3.451,3.186Z" transform="translate(-172.278 -96.155)" fill="#455a64"/>
      <path id="Path_3511" data-name="Path 3511" d="M252.829,231.2a2.036,2.036,0,1,1-.6-1.453A2.049,2.049,0,0,1,252.829,231.2Z" transform="translate(-166.707 -94.905)" fill="#fafafa"/>
      <path id="Path_3512" data-name="Path 3512" d="M238.164,240.77s-4.667,1.322-5.487,2.248a21.7,21.7,0,0,1-3.887,2.367l-3.5.939-4.905,14.8,29.736.952s8.2-5.818,7.166-6.452-4.191-.106-5.566,1.322c-2.168,2.235-5.7-.9-5.7-.9s14.756-3.015,15.985-4.522,2.644-1.719,1.851-3.226-6.955-.608-9.031-.608a56.858,56.858,0,0,0-6.756.859s9.255-3.253,9.916-3.636c1.851-1-.079-3.041-2.578-2.446-2.235.529-10.578,3.5-12.058,3.292s-5.289-.648-5.289-.648Z" transform="translate(-175.842 -91.161)" fill="#ffbe9d"/>
    </g>
    <g id="freepik--Plants--inject-22" transform="translate(51.722 349.895)">
      <rect id="Rectangle_508" data-name="Rectangle 508" width="88.838" height="12.204" transform="translate(40.995 166.244)" fill="#263238"/>
      <path id="Path_3513" data-name="Path 3513" d="M168.252,413.048H79.11V400.54h89.142Zm-88.838-.3H168v-11.9H79.414Z" transform="translate(-38.261 -234.494)" fill="#263238"/>
      <path id="Path_3514" data-name="Path 3514" d="M85.45,406.85l12.8,63.082h47.308l12.363-59.01Z" transform="translate(-36.218 -232.461)" fill="#263238"/>
      <path id="Path_3515" data-name="Path 3515" d="M85.45,450.05l6.823,9.374h57.516l8.132-9.374Z" transform="translate(-36.218 -218.542)" fill="#455a64"/>
      <path id="Path_3516" data-name="Path 3516" d="M110.432,440.06c-.185,0-.41-29.234-.5-65.277s0-65.264.132-65.264.4,29.207.5,65.264S110.6,440.06,110.432,440.06Z" transform="translate(-28.343 -263.821)" fill="#263238"/>
      <path id="Path_3517" data-name="Path 3517" d="M127.244,352.93a2.789,2.789,0,0,1-.238.688c-.212.489-.463,1.124-.793,1.891l-.582,1.322c-.185.516-.37,1.071-.582,1.653s-.45,1.243-.688,1.9-.423,1.415-.661,2.168a88.687,88.687,0,0,0-2.486,10.882,133.911,133.911,0,0,0-1.322,13.605,183.447,183.447,0,0,0,.7,24.844c.291,3.173.582,5.738.793,7.5.079.833.159,1.507.225,2.049a2.643,2.643,0,0,1,0,.714,3.488,3.488,0,0,1-.159-.7c-.093-.529-.2-1.2-.344-2.023-.291-1.759-.635-4.324-.978-7.5a164.839,164.839,0,0,1-.9-24.923,123.83,123.83,0,0,1,1.441-13.658,83.114,83.114,0,0,1,2.644-10.921c.251-.754.45-1.494.7-2.168s.5-1.322.74-1.891l.635-1.653c.225-.489.45-.939.635-1.322.37-.74.674-1.322.9-1.838a5.851,5.851,0,0,1,.317-.621Z" transform="translate(-25.376 -249.834)" fill="#263238"/>
      <path id="Path_3518" data-name="Path 3518" d="M126.359,335.06a4.72,4.72,0,0,1-.278.965c-.225.674-.542,1.573-.926,2.644-.212.595-.436,1.322-.674,1.957s-.463,1.521-.714,2.367c-.529,1.692-1.124,3.61-1.666,5.778-.278,1.071-.582,2.195-.886,3.372s-.542,2.42-.833,3.7c-.621,2.539-1.071,5.289-1.64,8.184-.978,5.8-1.838,12.23-2.433,18.987s-.807,13.222-.9,19.145,0,11.186.3,15.642c.079,2.221.212,4.231.331,6s.212,3.279.331,4.522.159,2.155.212,2.869a9.4,9.4,0,0,1,0,1,5.143,5.143,0,0,1-.159-.992c-.093-.714-.2-1.666-.344-2.856s-.291-2.763-.436-4.522-.317-3.781-.423-6.016c-.3-4.443-.423-9.758-.436-15.668s.278-12.389.846-19.185,1.481-13.222,2.486-19.04c.595-2.882,1.058-5.659,1.706-8.2l.873-3.7c.331-1.177.635-2.3.939-3.372.555-2.168,1.19-4.086,1.745-5.765l.767-2.354.74-1.944c.423-1.124.767-2.01,1.031-2.644A5.977,5.977,0,0,1,126.359,335.06Z" transform="translate(-26.765 -255.592)" fill="#263238"/>
      <path id="Path_3519" data-name="Path 3519" d="M110.152,444.27a.925.925,0,0,1,0-.344,4.265,4.265,0,0,0-.093-1c0-.939-.145-2.235-.251-3.874-.212-3.411-.516-8.264-.9-14.24-.767-12.005-1.878-28.612-3.9-46.872-1.031-9.123-2.235-17.8-3.477-25.651-.661-3.967-1.322-7.669-1.944-11.133s-1.322-6.717-1.917-9.665-1.243-5.593-1.759-7.933-1.018-4.337-1.428-5.963-.7-2.869-.926-3.768c-.093-.41-.172-.727-.225-.992a.9.9,0,0,1,0-.331l.119.317a4.474,4.474,0,0,0,.278.965c.251.9.595,2.155,1.045,3.742s.978,3.61,1.534,5.95,1.23,4.958,1.851,7.933,1.322,6.175,2,9.652,1.322,7.206,2,11.133c1.322,7.867,2.5,16.554,3.53,25.69,2.023,18.273,3.068,34.893,3.729,46.912.331,6.016.555,10.895.688,14.253,0,1.653.106,2.949.145,3.874v1.018C110.245,444.2,110.152,444.27,110.152,444.27Z" transform="translate(-33.683 -262.861)" fill="#263238"/>
      <path id="Path_3520" data-name="Path 3520" d="M116.559,321.919c-.383-4.138-4.575-7.259-8.726-7.3a13.685,13.685,0,0,0-10.578,5.738,32.658,32.658,0,0,0-5.09,11.3c-2.8,9.745-4.337,19.992-3.134,30.08s5.289,19.992,12.508,27.118c1.177,1.15,2.644,2.314,4.31,1.97a5.209,5.209,0,0,0,2.274-1.415,67.3,67.3,0,0,0,21.856-51.182c-.119-3.834-.621-7.814-2.737-11.014s-7.074-6.611-10.683-5.289" transform="translate(-35.198 -262.178)" fill="#e61030"/>
      <path id="Path_3521" data-name="Path 3521" d="M91.789,298.768l-5.857,10.578c-.145.251-.317.529-.608.555s-.529-.264-.7-.529l-15.483-23.8,3.57-2.023Z" transform="translate(-41.473 -272.188)" fill="#e61030"/>
      <g id="Group_321" data-name="Group 321" transform="translate(27.667 11.362)" opacity="0.2">
        <path id="Path_3522" data-name="Path 3522" d="M91.789,298.768l-5.857,10.578c-.145.251-.317.529-.608.555s-.529-.264-.7-.529l-15.483-23.8,3.57-2.023Z" transform="translate(-69.14 -283.55)"/>
      </g>
      <path id="Path_3523" data-name="Path 3523" d="M123.2,320.656l-52.8-31.1a2.734,2.734,0,0,1-1.322-1.322c-.2-.621.37-1.534.939-2.116a36.4,36.4,0,0,1,28.269-11.106,32.235,32.235,0,0,1,25.518,15.866c5.09,9.11,5.289,21.155-.582,29.8" transform="translate(-41.505 -274.957)" fill="#e61030"/>
      <path id="Path_3524" data-name="Path 3524" d="M75.83,278.466a2.392,2.392,0,0,1,.688-.079c.463,0,1.137-.106,2-.106a40.673,40.673,0,0,1,7.325.582A42.607,42.607,0,0,1,120.031,309.8a40.448,40.448,0,0,1,1.322,7.232c.093.859,0,1.084.079,1.534a2.645,2.645,0,0,1-.41,1.164,8.847,8.847,0,0,0,.079-2.644,43.315,43.315,0,0,0-35.316-37.749,45.064,45.064,0,0,0-7.259-.78C76.8,278.492,75.83,278.519,75.83,278.466Z" transform="translate(-39.318 -273.887)" fill="#263238"/>
      <path id="Path_3525" data-name="Path 3525" d="M109.224,293.25a13.721,13.721,0,0,1-2.644,1.216c-1.679.661-3.967,1.507-6.611,2.34s-5.038,1.494-6.8,1.93a12.178,12.178,0,0,1-2.882.542,15.469,15.469,0,0,1,2.763-.978l6.73-2.1,6.7-2.155a13.658,13.658,0,0,1,2.737-.793Z" transform="translate(-34.659 -269.063)" fill="#263238"/>
      <path id="Path_3526" data-name="Path 3526" d="M98.35,276.35a22.358,22.358,0,0,1,.621,5.9,22.135,22.135,0,0,1-.317,5.91,36.2,36.2,0,0,1-.317-5.9A37.51,37.51,0,0,1,98.35,276.35Z" transform="translate(-32.101 -274.508)" fill="#263238"/>
      <path id="Path_3527" data-name="Path 3527" d="M69.72,287.092a24.8,24.8,0,0,1,3.848-1.322c2.393-.74,5.738-1.679,9.454-2.644s7.14-1.587,9.612-2.023a23.671,23.671,0,0,1,3.967-.542,27.083,27.083,0,0,1-3.967.978c-2.446.555-5.818,1.322-9.533,2.208s-7.074,1.758-9.493,2.38A29.36,29.36,0,0,1,69.72,287.092Z" transform="translate(-41.286 -273.151)" fill="#263238"/>
      <path id="Path_3528" data-name="Path 3528" d="M107.654,314.322c-4.548-3.451-9.348-4.125-15.047-3.967A45.919,45.919,0,0,0,76.146,314.6c-8.9,3.9-17.281,9.652-22.6,17.8s-7.18,18.907-3.186,27.766a3.966,3.966,0,0,0,1.8,2.182,4.35,4.35,0,0,0,2.988-.225c10.128-3.305,20.322-6.611,29.644-11.82s17.784-12.363,22.781-21.777a18.735,18.735,0,0,0,2.406-7.219,9.044,9.044,0,0,0-2.327-7.061" transform="translate(-48.215 -263.558)" fill="#e61030"/>
      <path id="Path_3529" data-name="Path 3529" d="M106.911,312.54a3.741,3.741,0,0,1-.74.291l-2.116.74-1.534.5c-.555.2-1.15.449-1.8.7-1.322.516-2.777,1.045-4.337,1.8L93.9,317.71c-.859.4-1.719.886-2.644,1.322-1.838.9-3.689,2.049-5.672,3.226a98.005,98.005,0,0,0-11.992,8.885,100.031,100.031,0,0,0-10.353,10.763c-1.415,1.825-2.79,3.517-3.967,5.289-.582.846-1.177,1.626-1.679,2.433l-1.441,2.327c-.952,1.454-1.653,2.856-2.327,4.072-.331.608-.661,1.164-.926,1.692l-.7,1.454-.992,2.01a2.935,2.935,0,0,1-.4.688,4.51,4.51,0,0,1,.278-.74c.225-.529.516-1.216.886-2.063l.661-1.494c.251-.529.555-1.1.873-1.719.648-1.23,1.322-2.644,2.261-4.138l1.415-2.354c.5-.806,1.084-1.613,1.653-2.472A65.546,65.546,0,0,1,62.8,341.6,86.763,86.763,0,0,1,85.28,321.769c2-1.164,3.874-2.3,5.738-3.187.926-.463,1.785-.939,2.644-1.322l2.512-1.1c1.587-.74,3.094-1.23,4.4-1.719.648-.238,1.322-.463,1.811-.648l1.56-.463,2.168-.621a3.146,3.146,0,0,1,.793-.172Z" transform="translate(-47.379 -262.848)" fill="#263238"/>
      <path id="Path_3530" data-name="Path 3530" d="M71.829,327.07a107.47,107.47,0,0,1-11.106,3.557,102.784,102.784,0,0,1-11.173,2.962A104.873,104.873,0,0,1,60.6,330.032a110.638,110.638,0,0,1,11.225-2.962Z" transform="translate(-47.785 -258.166)" fill="#263238"/>
      <path id="Path_3531" data-name="Path 3531" d="M66.12,351.232a18.006,18.006,0,0,1-.238-3.438c-.066-2.129-.066-5.077,0-8.317s.264-6.188.436-8.3a17.465,17.465,0,0,1,.436-3.424,18.646,18.646,0,0,1,0,3.438c-.079,2.34-.159,5.17-.264,8.3s-.145,5.976-.2,8.3A19.832,19.832,0,0,1,66.12,351.232Z" transform="translate(-42.539 -257.947)" fill="#263238"/>
      <path id="Path_3532" data-name="Path 3532" d="M82.314,343.991c-.172,0-.727-5.976-1.243-13.354s-.78-13.394-.608-13.407.727,5.976,1.243,13.354S82.512,343.978,82.314,343.991Z" transform="translate(-37.842 -261.337)" fill="#263238"/>
      <path id="Path_3533" data-name="Path 3533" d="M62.19,316.836a17.8,17.8,0,0,1,3.53-.106c2.195,0,5.209.079,8.528.185s6.347.238,8.528.37a19.277,19.277,0,0,1,3.53.344,19.478,19.478,0,0,1-3.543.106c-2.182,0-5.2-.079-8.528-.185s-6.347-.251-8.528-.383a19.718,19.718,0,0,1-3.517-.331Z" transform="translate(-43.712 -261.511)" fill="#263238"/>
      <path id="Path_3534" data-name="Path 3534" d="M100.169,388.416a2.645,2.645,0,0,1-.079-.714,17.076,17.076,0,0,0-.093-2.023c-.079-1.772-.106-4.324,0-7.484s.264-6.915.648-11.08,1-8.713,1.851-13.473,1.93-9.255,3.015-13.222,2.235-7.642,3.292-10.578,1.97-5.381,2.644-7.021l.793-1.864a3.014,3.014,0,0,1,.331-.648,3.372,3.372,0,0,1-.212.688c-.172.5-.41,1.137-.688,1.917-.621,1.653-1.481,4.059-2.473,7.06s-2.076,6.611-3.16,10.578-2.063,8.5-2.935,13.222-1.468,9.255-1.9,13.407-.674,7.933-.793,11.04-.172,5.7-.172,7.457v2.036a5.092,5.092,0,0,1-.066.7Z" transform="translate(-31.554 -260.344)" fill="#263238"/>
      <path id="Path_3535" data-name="Path 3535" d="M106.109,345.66a13.88,13.88,0,0,1-2.1,2.314c-1.322,1.322-3.305,3.2-5.527,5.13s-4.271,3.636-5.8,4.813A14.74,14.74,0,0,1,90.11,359.7a14.548,14.548,0,0,1,2.274-2.142l5.685-4.932,5.633-4.971a16.951,16.951,0,0,1,2.406-2Z" transform="translate(-34.717 -252.177)" fill="#263238"/>
      <path id="Path_3536" data-name="Path 3536" d="M118.5,361.079a23.8,23.8,0,0,1-2.248-3.107c-1.441-2.116-3.239-4.72-5.289-7.616l-5.289-7.55a22.794,22.794,0,0,1-2.129-3.186,22.012,22.012,0,0,1,2.486,2.922c1.468,1.864,3.424,4.482,5.487,7.444s3.848,5.725,5.077,7.735a21.524,21.524,0,0,1,1.9,3.358Z" transform="translate(-30.386 -254.123)" fill="#263238"/>
      <path id="Path_3537" data-name="Path 3537" d="M114.358,323.821c.093.145-5.461,3.887-12.4,8.343S89.3,340.1,89.21,339.978s5.461-3.874,12.4-8.343S114.266,323.676,114.358,323.821Z" transform="translate(-35.007 -259.214)" fill="#263238"/>
      <path id="Path_3538" data-name="Path 3538" d="M124.062,340.492a101.983,101.983,0,0,1-8.409-7.761,109.017,109.017,0,0,1-7.933-8.211,99.156,99.156,0,0,1,8.409,7.761,106.121,106.121,0,0,1,7.933,8.211Z" transform="translate(-29.043 -258.988)" fill="#263238"/>
      <path id="Path_3539" data-name="Path 3539" d="M123.05,344.841l4.773-.4a23.535,23.535,0,0,0,9.626-2.935,37.435,37.435,0,0,1,4.482-2.261c5.9-2.367,12.468-1.944,18.815-2.261a77.759,77.759,0,0,0,29.935-7.656A2.856,2.856,0,0,0,192,328.155c.978-1.785-.833-3.372-2.406-4.337-8.026-4.945-16.2-9.956-25.307-12.415s-19.45-2.049-27.224,3.305c-9.123,6.28-12.442,19.172-13.989,30.133" transform="translate(-24.103 -263.68)" fill="#e61030"/>
      <path id="Path_3540" data-name="Path 3540" d="M192.053,326.452a8.4,8.4,0,0,1-.807-.383l-2.261-1.177c-1.957-1.031-4.773-2.552-8.343-4.271a77.826,77.826,0,0,0-12.918-4.971,42.642,42.642,0,0,0-16.739-1.322,28.652,28.652,0,0,0-15.271,6.611,33.98,33.98,0,0,0-7.933,11.159c-1.666,3.57-2.644,6.611-3.451,8.7-.357.992-.635,1.785-.846,2.393a3.558,3.558,0,0,1-.344.833,5.8,5.8,0,0,1,.212-.859l.74-2.446a79.474,79.474,0,0,1,3.292-8.806,33.61,33.61,0,0,1,7.933-11.411,28.982,28.982,0,0,1,15.575-6.743,42.734,42.734,0,0,1,17.017,1.322,75.489,75.489,0,0,1,12.958,5.143c3.557,1.772,6.347,3.345,8.264,4.443l2.208,1.322a3.175,3.175,0,0,1,.714.463Z" transform="translate(-24.074 -262.56)" fill="#263238"/>
      <path id="Path_3541" data-name="Path 3541" d="M173.3,332.448c-.093.145-6.32-3.887-13.923-9s-13.658-9.4-13.566-9.533,6.333,3.887,13.923,9S173.4,332.3,173.3,332.448Z" transform="translate(-16.771 -262.407)" fill="#263238"/>
      <path id="Path_3542" data-name="Path 3542" d="M163.816,313.66a15.4,15.4,0,0,1-4.548.807,14.942,14.942,0,0,1-4.628,0,29.382,29.382,0,0,1,4.575-.463,29.68,29.68,0,0,1,4.6-.344Z" transform="translate(-13.925 -262.487)" fill="#263238"/>
      <path id="Path_3543" data-name="Path 3543" d="M142.071,311a12.019,12.019,0,0,1-2.036,3.187,13.792,13.792,0,0,1-2.644,2.949,12.19,12.19,0,0,1,2.036-3.2A13.513,13.513,0,0,1,142.071,311Z" transform="translate(-19.483 -263.344)" fill="#263238"/>
      <path id="Path_3544" data-name="Path 3544" d="M149.8,333.98a17.691,17.691,0,0,1-3-1.626c-1.8-1.1-4.231-2.644-6.836-4.588s-4.892-3.676-6.545-4.985a18.343,18.343,0,0,1-2.644-2.221,18.006,18.006,0,0,1,2.949,1.9l6.611,4.826c2.644,1.878,4.971,3.53,6.7,4.72A21.415,21.415,0,0,1,149.8,333.98Z" transform="translate(-21.616 -260.264)" fill="#263238"/>
      <path id="Path_3545" data-name="Path 3545" d="M131.082,352.184c-4.548-1.2-9.969,3.226-10.908,7.827s.793,9.321,2.816,13.566a69.388,69.388,0,0,0,18.8,24.606,46.515,46.515,0,0,0,28.758,10.578c-1.917-8.938.5-18.26-.569-27.33a35.527,35.527,0,0,0-31.442-31.151c-2.9-.317-6.254-.78-7.418,1.9" transform="translate(-25.115 -250.767)" fill="#e61030"/>
      <path id="Path_3546" data-name="Path 3546" d="M167.828,408.237a3.791,3.791,0,0,1-.648-.3,12.039,12.039,0,0,1-1.706-1.137,17.7,17.7,0,0,1-4.482-6.016c-.727-1.4-1.534-2.935-2.327-4.628l-2.446-5.408a52.638,52.638,0,0,0-3.015-5.778,45.924,45.924,0,0,0-4.125-5.619c-3.12-3.662-6.452-6.823-9.348-9.85a63.849,63.849,0,0,1-7.14-8.541,31.374,31.374,0,0,1-3.477-6.611c-.291-.833-.5-1.494-.608-1.944a3.253,3.253,0,0,1-.145-.7s.317.926.978,2.565a34.989,34.989,0,0,0,3.623,6.479,67.08,67.08,0,0,0,7.18,8.409c2.909,2.988,6.267,6.135,9.414,9.837a44.023,44.023,0,0,1,4.178,5.712,51.423,51.423,0,0,1,3.015,5.857c.846,1.9,1.64,3.729,2.393,5.434s1.547,3.226,2.248,4.641a18.245,18.245,0,0,0,4.244,6.016C166.968,407.748,167.867,408.171,167.828,408.237Z" transform="translate(-22.393 -250.23)" fill="#263238"/>
      <path id="Path_3547" data-name="Path 3547" d="M140.43,393.776a12.626,12.626,0,0,1,.41-3.067c.357-1.878.939-4.443,1.732-7.246s1.626-5.289,2.3-7.074a13.221,13.221,0,0,1,1.243-2.83,15.643,15.643,0,0,1-.82,2.975c-.555,1.811-1.322,4.31-2.116,7.1s-1.441,5.289-1.9,7.166a17.838,17.838,0,0,1-.846,2.975Z" transform="translate(-18.504 -243.187)" fill="#263238"/>
      <path id="Path_3548" data-name="Path 3548" d="M162.879,373.47a18.043,18.043,0,0,1-3.2-.74c-1.97-.5-4.667-1.2-7.682-1.891s-5.752-1.2-7.748-1.573a18.752,18.752,0,0,1-3.2-.714,15.736,15.736,0,0,1,3.279.264c2.01.264,4.786.727,7.814,1.415s5.725,1.454,7.656,2.076A15.512,15.512,0,0,1,162.879,373.47Z" transform="translate(-18.304 -244.803)" fill="#263238"/>
      <path id="Path_3549" data-name="Path 3549" d="M127.66,382.832a18.408,18.408,0,0,1,.5-3.543c.4-2.182,1.031-5.157,1.878-8.422s1.759-6.175,2.472-8.264a19.174,19.174,0,0,1,1.322-3.332,19.827,19.827,0,0,1-.873,3.464c-.595,2.116-1.428,5.051-2.274,8.29s-1.56,6.214-2.063,8.356a21.409,21.409,0,0,1-.965,3.451Z" transform="translate(-22.618 -247.791)" fill="#263238"/>
      <path id="Path_3550" data-name="Path 3550" d="M155.834,358.471a122.344,122.344,0,0,1-12.68-1.018c-6.981-.74-12.627-1.481-12.614-1.653a126.937,126.937,0,0,1,12.68,1.018C150.2,357.559,155.847,358.3,155.834,358.471Z" transform="translate(-21.69 -248.909)" fill="#263238"/>
      <path id="Path_3551" data-name="Path 3551" d="M168.239,409.967c0,.172-19.952.317-44.558.317s-44.571-.145-44.571-.317,19.952-.317,44.571-.317S168.239,409.782,168.239,409.967Z" transform="translate(-38.261 -231.559)" fill="#455a64"/>
      <path id="Path_3552" data-name="Path 3552" d="M150.631,429.387c0,.172-13.434.317-30.014.317s-30.027-.145-30.027-.317,13.434-.317,30.027-.317S150.631,429.215,150.631,429.387Z" transform="translate(-34.562 -225.302)" fill="#455a64"/>
      <path id="Path_3553" data-name="Path 3553" d="M150.01,432.154c0,.185-13.222.317-29.5.317S91,432.339,91,432.154s13.222-.3,29.511-.3S150.01,432.048,150.01,432.154Z" transform="translate(-34.43 -224.406)" fill="#455a64"/>
      <path id="Path_3554" data-name="Path 3554" d="M151.557,427.077c0,.172-13.91.317-31.058.317s-31.058-.145-31.058-.317,13.91-.317,31.058-.317S151.557,426.932,151.557,427.077Z" transform="translate(-34.932 -226.046)" fill="#455a64"/>
      <path id="Path_3555" data-name="Path 3555" d="M396.227,401.016a14.1,14.1,0,0,1,7.285,8.25,24.949,24.949,0,0,1,.965,11.173c-.82,7.259-4.945,14.544-9.374,20.375-6.109-5.289-7.51-14.624-7.933-19.383-.661-7.537,2.724-21.539,9.057-20.415" transform="translate(60.969 -234.362)" fill="#e61030"/>
      <path id="Path_3556" data-name="Path 3556" d="M399.036,444.654a11.992,11.992,0,0,1,3.041-11.649,15.867,15.867,0,0,1,11.437-4.509,6.611,6.611,0,0,1,5.289,1.93,5.117,5.117,0,0,1,.449,5.183,10.274,10.274,0,0,1-3.557,4.046c-5.038,3.7-10.578,6.347-16.686,5" transform="translate(64.678 -225.496)" fill="#e61030"/>
      <path id="Path_3557" data-name="Path 3557" d="M392.841,464.362a4.693,4.693,0,0,1,.172-1.521c.172-.978.45-2.367.833-4.086a51.181,51.181,0,0,1,4.588-13,25.848,25.848,0,0,1,9.388-10.062,16.472,16.472,0,0,1,3.861-1.666,5.05,5.05,0,0,1,1.507-.291,36.565,36.565,0,0,0-5.064,2.459,26.854,26.854,0,0,0-8.964,9.943,59.04,59.04,0,0,0-4.747,12.746A47.41,47.41,0,0,1,392.841,464.362Z" transform="translate(62.82 -223.797)" fill="#263238"/>
      <path id="Path_3558" data-name="Path 3558" d="M393.088,409.29a15.868,15.868,0,0,1,.238,2.512c.106,1.626.212,3.967.317,6.875.225,5.818.383,13.843.357,22.729s-.278,16.9-.542,22.715c-.132,2.909-.264,5.289-.383,6.875a14.973,14.973,0,0,1-.251,2.512,13.433,13.433,0,0,1-.066-2.525c0-1.772.079-4.086.119-6.889.119-5.8.264-13.83.3-22.7s0-16.884-.106-22.7c0-2.79,0-5.1-.066-6.875A13.989,13.989,0,0,1,393.088,409.29Z" transform="translate(62.785 -231.675)" fill="#263238"/>
      <path id="Path_3559" data-name="Path 3559" d="M395.883,449A28.044,28.044,0,0,0,381,428.135c-2.01-1.018-4.667-1.719-6.373-.238s-1.388,4.218-.621,6.347a24,24,0,0,0,21.724,15.351" transform="translate(56.552 -225.954)" fill="#e61030"/>
      <path id="Path_3560" data-name="Path 3560" d="M379.591,433a5.486,5.486,0,0,1,1.322.555,10.914,10.914,0,0,1,1.521.807,19.725,19.725,0,0,1,1.93,1.23,29.784,29.784,0,0,1,4.5,3.9,34.376,34.376,0,0,1,4.35,5.857,33.931,33.931,0,0,1,2.882,6.7,29.306,29.306,0,0,1,1.124,5.857,17.658,17.658,0,0,1,.106,2.274,11.475,11.475,0,0,1,0,1.732,5.144,5.144,0,0,1-.212,1.454c-.159,0,0-2.1-.4-5.395a33.22,33.22,0,0,0-1.322-5.7,36.332,36.332,0,0,0-2.882-6.518,36.886,36.886,0,0,0-4.191-5.752,34.183,34.183,0,0,0-4.284-3.967C381.455,434.058,379.511,433.172,379.591,433Z" transform="translate(58.552 -224.036)" fill="#263238"/>
    </g>
  </g>
</svg>
