<svg xmlns="http://www.w3.org/2000/svg" width="1311.113" height="1113.329" viewBox="0 0 1311.113 1113.329">
  <g id="visi_BPR" data-name="visi BPR" transform="translate(-579.234 -59.224)">
    <path id="Path_825" data-name="Path 825" d="M1163.258,694.55c-27.848,64.7-84.424,107.969-143.034,136.5C941.3,869.478,854.4,884.719,768.683,878.273q-22.542-1.676-44.928-5.395a519.7,519.7,0,0,1-150.216-49.3q-20.655-10.506-40.576-22.855a517.379,517.379,0,0,1-63.391-46.677q-7.58-6.517-14.951-13.363c-3.408-3.164-6.784-6.4-10.212-9.539-7.235-6.623-14.679-12.915-22.983-17.625a77.742,77.742,0,0,0-7.7-3.825c-26.3-11.262-56.618-7.012-83.994,1.771-20.8,6.623-41.069,15.772-61.9,22.3a185.759,185.759,0,0,1-28.215,6.753A134.164,134.164,0,0,1,176.2,734.3l-1.751-.614q-4.4-1.558-8.734-3.412l-1.751-.756q-4.194-1.818-8.21-3.907l-1.751-.9q-4.194-2.2-8.21-4.639c-.965-.567-1.919-1.181-2.862-1.759a176.114,176.114,0,0,1-41.059-35.993c-.346-.39-.671-.791-1.048-1.181-1.667-2.03-3.3-4.1-4.886-6.21-.587-.779-1.174-1.558-1.751-2.361q-2.82-3.884-5.442-7.921c-.262-.39-.514-.791-.765-1.18a178.015,178.015,0,0,1-17.688-36.005c-.147-.39-.283-.791-.409-1.18q-2.1-6.08-3.827-12.36c-.472-1.747-.923-3.542-1.321-5.289-.136-.519-.262-1.051-.377-1.57C58.619,581.422,58,554.755,58,528.24v-9.267c.168-42.888.755-86.508,6.375-128.805a6.008,6.008,0,0,1,.115-.874q2.821-21.359,7.664-42.286a339.737,339.737,0,0,1,12.907-42.853c12.928-34.235,31.727-65.388,52.6-94.263,52.529-72.613,121.488-133.657,202.2-156.429,86.972-24.59,183.631-1.027,253.785,61.859,21.389,19.171,40.608,41.873,64.628,56.57,20.97,12.8,45.515,18.1,67.973,8.027,18.558-8.264,30.637-12.454,51.48-11.191a390.245,390.245,0,0,1,126.2,29.737c1.635.673,3.271,1.369,4.9,2.066,105.593,45.509,196.381,135.877,243.542,252q1.877,4.6,3.638,9.279C1184.134,535.737,1194.283,622.469,1163.258,694.55Z" transform="translate(511.382 342.913) rotate(-16)" fill="rgba(70,67,83,0.4)" opacity="0.1"/>
    <g id="Group_136" data-name="Group 136" transform="translate(809 296)">
      <path id="Path_795" data-name="Path 795" d="M840.144,550.275a13.849,13.849,0,0,0,2.189-10.688,12.852,12.852,0,0,0-6.115-8.691l2.348-29.465-16.085-5.922L819.7,537.17c-2.432,6.037-.336,13.1,4.879,16.446A11.312,11.312,0,0,0,840.144,550.275Z" transform="translate(-68.178 -69.696)" fill="#ffb8b8"/>
      <path id="Path_796" data-name="Path 796" d="M677.3,530.929H662.823l-6.887-60.863h21.373Z" transform="translate(174.929 178.732)" fill="#ffb8b8"/>
      <path id="Path_797" data-name="Path 797" d="M656.909,510.894h27.928v19.16H639.325c0-10.582,7.873-19.16,17.584-19.16Z" transform="translate(170.499 194.256)" fill="#2f2e41"/>
      <path id="Path_798" data-name="Path 798" d="M654.031,501.184l-14.063,3.765-20.021-57.311L640.7,442.08Z" transform="translate(165.332 168.091)" fill="#ffb8b8"/>
      <path id="Path_799" data-name="Path 799" d="M16.893-1.421,44.963-2,44.6,17.07l-45.744.945h0C-.945,7.482,7.132-1.219,16.893-1.421Z" transform="matrix(0.971, -0.239, 0.239, 0.971, 778.197, 676.765)" fill="#2f2e41"/>
      <path id="Path_800" data-name="Path 800" d="M900.631,748.159a5.526,5.526,0,0,1-5.316-5.216L878.652,573.791l-14.5,51.725,20.537,80.789a5.978,5.978,0,0,1-3.174,6.979L865.188,720.4a4.954,4.954,0,0,1-4.211-.108,5.684,5.684,0,0,1-2.838-3.392l-25.17-78.686a77.132,77.132,0,0,1-3.591-26.769l3.513-84.916,92.522,4.269-1.445,210.091a5.688,5.688,0,0,1-4.955,5.778l-17.967,1.475Q900.837,748.159,900.631,748.159Z" transform="translate(-65.346 -57.901)" fill="#041546"/>
      <ellipse id="Ellipse_166" data-name="Ellipse 166" cx="31.111" cy="33.9" rx="31.111" ry="33.9" transform="translate(788.85 212.903)" fill="#ffb8b8"/>
      <path id="Path_801" data-name="Path 801" d="M908.638,585.242c-8.193,0-18.373-.731-28.9-1.485-14.389-1.032-29.268-2.1-40.375-1.4a8.525,8.525,0,0,1-7.894-3.746c-11.45-15.974,6.211-78.269,6.968-80.913l14.372-69.658.618.152-.618-.152c3.161-15.32,13.263-26.621,26.364-29.493,12.262-2.684,24.122,2.665,31.728,14.32q.605.927,1.21,1.9c24.766,39.967,10.759,139.26,9.82,145.668,1.308,1.707,8.383,11.362,6.438,18.068-.791,2.728-2.94,4.588-6.387,5.526a54.781,54.781,0,0,1-13.341,1.207Z" transform="translate(-65.798 -106.822)" fill="#e83225"/>
      <path id="Path_802" data-name="Path 802" d="M840.744,584.645c-2.818,0-6.619-1.133-11.745-3.457-2.2-1-8.906-4.038-.768-81.533,4-38.067,9.724-75.868,9.781-76.245l.055-.364.309-.152c.147-.073,14.772-7.378,17.315-16.764q.132-.487.3-.945c1.454-4.335,5.784-6.653,9.822-5.256,4.26,1.109,7,5.631,6.26,10.335a67.723,67.723,0,0,1-5.055,17.655c-6.882,15.472-11.544,56.49-11.59,56.9-.263,3.5-6.509,86.5-7.712,92.8-.42,2.2-1.193,4.892-3.462,6.2a6.9,6.9,0,0,1-3.505.827Z" transform="translate(-66.68 -106.193)" fill="#041546"/>
      <path id="Path_803" data-name="Path 803" d="M865.052,580.948a2.426,2.426,0,0,1-1.569-.587c-9.153-7.578,5.66-99.447,14.446-131.144,1.759-6.346,3.326-11.783,4.656-16.157h0a132.617,132.617,0,0,0,5.053-24.162c.483-4.452,1.535-7,3.214-7.775,1.167-.543,2.539-.175,4.078,1.1,8.115-.437,16,3.177,23.309,7.151l6.576,3.575,7.38,142.369c-.208,9.087-16.646,15.5-23.819,15.91-11.513.658-32.187,2.7-41.294,8.984a3.6,3.6,0,0,1-2.031.74Z" transform="translate(-57.001 -105.676)" fill="#041546"/>
      <path id="Path_804" data-name="Path 804" d="M835.925,549.053c-.109,0-.218,0-.328-.011l-14.906-1a5.23,5.23,0,0,1-3.838-2.157,6.22,6.22,0,0,1-1.131-4.541l6.745-48.693,12.7-68.318a12.27,12.27,0,0,1,5.3-8.12,10.441,10.441,0,0,1,9.087-1.14h0c5.311,1.846,8.594,7.634,7.737,13.636l-10.088,68.455-5.972,46.855a5.559,5.559,0,0,1-5.308,5.034Z" transform="translate(-68.986 -100.494)" fill="#041546"/>
      <path id="Path_805" data-name="Path 805" d="M872.241,477.714a11.873,11.873,0,0,1,8.39-6.028,11.231,11.231,0,0,1,9.629,3.139L914.7,461.961l10.8,14.277-34.749,17.638a11.225,11.225,0,0,1-15.842.876,13.816,13.816,0,0,1-2.665-17.038Z" transform="translate(-54.379 -82.452)" fill="#ffb8b8"/>
      <path id="Path_806" data-name="Path 806" d="M900.54,511.842a5.475,5.475,0,0,1-5.211-4.474l-3.551-16.079a6.039,6.039,0,0,1,2.458-6.375l21.409-13.962L904.7,427.29a16.2,16.2,0,0,1,.48-9.387c2.116-5.809,7.345-9.551,13.078-9.359S929,412.82,930.786,418.759l12.083,40.2c3.047,10.056-.246,21.1-8.133,27.291l-31.057,24.484A5.06,5.06,0,0,1,900.54,511.842Z" transform="translate(-48.727 -102.766)" fill="#041546"/>
      <path id="Path_807" data-name="Path 807" d="M888.307,411.381c12.778.3,24.58-7.42,30.344-19.85a38.857,38.857,0,0,0-3.338-38.393c-7.8-11.03-20.726-16.2-33.225-13.288-6.842-4.526-14.8-7.572-22.768-6.8s-15.857,5.932-18.838,14.026.221,18.763,7.634,22.052c4.752,2.109,10.119,1.086,15.191.236s10.6-1.405,15.018,1.446,6.4,10.5,2.445,14.062a15.707,15.707,0,0,0-3.907,16.315C878.85,406.789,884.272,411.286,888.307,411.381Z" transform="translate(-62.662 -131.512)" fill="#041546"/>
      <path id="Path_808" data-name="Path 808" d="M846.707,187H247.319c-11.665.012-21.118,10.312-21.129,23.023V280.3c.011,12.71,9.464,23.011,21.129,23.023H846.707c11.665-.011,21.118-10.312,21.129-23.023v-70.28C867.825,197.312,858.372,187.011,846.707,187Zm18.9,93.3c-.015,11.37-8.47,20.583-18.9,20.6H247.319c-10.435-.016-18.89-9.229-18.9-20.6v-70.28c.015-11.37,8.47-20.583,18.9-20.6H846.707c10.435.016,18.89,9.229,18.9,20.6Z" transform="translate(-226.19 -187)" fill="#464353"/>
      <path id="Path_809" data-name="Path 809" d="M846.707,423.6H247.319c-11.664-.014-21.115-10.313-21.129-23.023V330.3c.013-12.709,9.465-23.008,21.129-23.023H846.707c11.664.014,21.115,10.314,21.129,23.023v70.28c-.013,12.709-9.465,23.008-21.129,23.023ZM247.319,309.7c-10.436.013-18.893,9.228-18.9,20.6v70.28c.012,11.371,8.469,20.586,18.9,20.6H846.707c10.436-.013,18.893-9.228,18.9-20.6V330.3c-.012-11.371-8.469-20.586-18.9-20.6Z" transform="translate(-226.19 -141.269)" fill="#ccc"/>
      <path id="Path_810" data-name="Path 810" d="M846.707,543.872H247.319c-11.664-.014-21.116-10.314-21.129-23.023V450.57c.013-12.709,9.465-23.008,21.129-23.023H846.707c11.664.014,21.115,10.314,21.129,23.023v70.28c-.013,12.709-9.465,23.008-21.129,23.023Zm-599.388-113.9c-10.436.013-18.893,9.228-18.9,20.6v70.28c.012,11.371,8.469,20.586,18.9,20.6H846.707c10.436-.013,18.893-9.228,18.9-20.6V450.57c-.012-11.371-8.469-20.586-18.9-20.6Z" transform="translate(-226.19 -95.537)" fill="#ccc"/>
      <path id="Path_811" data-name="Path 811" d="M314.277,280.107c-20.159,0-36.5-17.909-36.5-40s16.342-40,36.5-40,36.5,17.909,36.5,40c-.023,22.081-16.351,39.975-36.5,40Z" transform="translate(-213.777 -182.107)" fill="#e83225"/>
      <path id="Path_814" data-name="Path 814" d="M314.552,400.523c-20.31,0-36.775-17.94-36.775-40.071s16.465-40.071,36.775-40.071,36.774,17.94,36.774,40.071c-.023,22.12-16.474,40.046-36.774,40.071Z" transform="translate(-212.433 -136.285)" fill="#e6e6e6"/>
      <path id="Path_815" data-name="Path 815" d="M757.715,378.458H365.166c-4.913,0-8.9-4.34-8.9-9.694s3.983-9.694,8.9-9.694H757.715c4.913,0,8.9,4.34,8.9,9.694s-3.983,9.694-8.9,9.694Z" transform="translate(-191.5 -121.574)" fill="#e6e6e6"/>
      <path id="Path_816" data-name="Path 816" d="M629.831,348.609H365.166c-4.913,0-8.9-4.34-8.9-9.694s3.983-9.694,8.9-9.694H629.831c4.913,0,8.9,4.34,8.9,9.694S634.744,348.609,629.831,348.609Z" transform="translate(-191.5 -132.923)" fill="#e6e6e6"/>
      <path id="Path_817" data-name="Path 817" d="M314.552,520.8c-20.31,0-36.775-17.941-36.775-40.071s16.465-40.071,36.775-40.071,36.775,17.94,36.775,40.071C351.3,502.846,334.852,520.772,314.552,520.8Z" transform="translate(-212.433 -90.553)" fill="#e6e6e6"/>
      <path id="Path_818" data-name="Path 818" d="M757.715,498.732H365.166c-4.913,0-8.9-4.34-8.9-9.694s3.983-9.694,8.9-9.694H757.715c4.913,0,8.9,4.34,8.9,9.694S762.628,498.732,757.715,498.732Z" transform="translate(-191.5 -75.843)" fill="#e6e6e6"/>
      <path id="Path_819" data-name="Path 819" d="M629.831,468.883H365.166c-4.913,0-8.9-4.34-8.9-9.694s3.983-9.694,8.9-9.694H629.831c4.913,0,8.9,4.34,8.9,9.694s-3.983,9.694-8.9,9.694Z" transform="translate(-191.5 -87.192)" fill="#e6e6e6"/>
      <path id="Path_395" data-name="Path 395" d="M308.225,248.611a3.983,3.983,0,0,1-2.531-.917l-.045-.037-9.532-7.945a4.9,4.9,0,0,1-.784-6.471,4.009,4.009,0,0,1,5.939-.855l6.174,5.159,14.589-20.739a4.007,4.007,0,0,1,5.936-.854h0l-.091.137.093-.137a4.9,4.9,0,0,1,.783,6.47L311.6,246.806a4.123,4.123,0,0,1-3.369,1.8Z" transform="translate(-207.984 -176.354)" fill="#fff"/>
      <path id="Path_820" data-name="Path 820" d="M1025.881,713.76h-250.8a1.385,1.385,0,0,1,0-2.76h250.8a1.385,1.385,0,0,1,0,2.76Z" transform="translate(-80.147 12.24)" fill="#ccc"/>
    </g>
  </g>
</svg>
