<svg xmlns="http://www.w3.org/2000/svg" width="1220.973" height="736.271" viewBox="0 0 1220.973 736.271">
  <g id="Wallet-pana" transform="translate(-41.53 -46.892)">
    <g id="freepik--background-complete--inject-175" transform="translate(169.219 62.344)">
      <path id="Path_1470" data-name="Path 1470" d="M513.954,120.977A76.89,76.89,0,1,1,426.9,56.152a76.89,76.89,0,0,1,87.05,64.825Z" transform="translate(96.17 -55.332)" fill="#f5f5f5"/>
      <path id="Path_1471" data-name="Path 1471" d="M487.554,115.338a58.583,58.583,0,1,1-66.363-49.429A58.583,58.583,0,0,1,487.554,115.338Z" transform="translate(104.482 -47.057)" fill="#ebebeb"/>
      <path id="Path_1472" data-name="Path 1472" d="M487.7,114.455c-.348,0-.97-2.453-2.545-6.755a62.391,62.391,0,0,0-9.263-16.788,59.937,59.937,0,0,0-9.154-9.41,59.043,59.043,0,0,0-12.815-7.909,55.6,55.6,0,0,0-7.634-2.838,57.428,57.428,0,0,0-34.8.879,58.764,58.764,0,0,0-8.055,3.5,54.608,54.608,0,0,0-7.176,4.5,52.824,52.824,0,0,0-6.188,5.291,57.7,57.7,0,0,0-14.646,23.8,62.332,62.332,0,0,0-2.929,18.948c0,4.6.293,7.158,0,7.213s-1.135-2.417-1.684-7.1a54.244,54.244,0,0,1,1.611-19.936,59.825,59.825,0,0,1,5.09-12.87A58.962,58.962,0,0,1,387.1,82.161a55.626,55.626,0,0,1,6.554-5.785,56.748,56.748,0,0,1,7.671-4.961,59.494,59.494,0,0,1,8.659-3.844A66.6,66.6,0,0,1,419.41,65.1a65.117,65.117,0,0,1,9.721-.915,57.554,57.554,0,0,1,9.446.622,55.689,55.689,0,0,1,8.9,2.014,54.128,54.128,0,0,1,8.147,3.021,58.858,58.858,0,0,1,22.811,19.186,54.262,54.262,0,0,1,8.311,18.161C487.915,111.782,487.952,114.418,487.7,114.455Z" transform="translate(104.066 -47.986)" fill="#e0e0e0"/>
      <path id="Path_1473" data-name="Path 1473" d="M426.4,149.375l1.611,10.087-9.007,1.428-1.556-9.794c-8.989.879-18-.531-23.561-3.661l3.2-11.771a36.5,36.5,0,0,0,18.472,3.661l-2.417-15.012c-10.362-.824-22.06-2.38-24.11-15.231-1.52-9.538,4.082-18.838,18.033-22.719l-1.593-10,8.989-1.446,1.574,9.813A41.209,41.209,0,0,1,435.173,87.3l-2.728,11.79a37.31,37.31,0,0,0-14.5-2.49l2.453,15.3c10.344.732,21.859,2.307,23.891,14.994C445.792,136.23,440.245,145.421,426.4,149.375Zm-15.268-38.3-2.05-12.815c-4.6,1.831-6.06,4.76-5.584,7.726S406.871,110.454,411.136,111.076Zm18.93,19.186c-.494-3.149-3.387-4.43-7.469-5.163l2,12.412c4.247-1.7,5.84-4.357,5.382-7.25Z" transform="translate(119.26 -39.061)" fill="#e0e0e0"/>
      <path id="Path_1474" data-name="Path 1474" d="M748.555,272.48s-17.044-9.849-34.674,30.554-23.8,63.452-23.8,63.452-4.8,8.531-10.746,3.515S664.69,350.194,655.3,353.526c-9.776,3.442-12.376,14.737-9.5,30.921s7.872,51.919,8.311,55.141-1.1,7.982-5.712,5.2-31.8-29.6-43.772-15.945,3.46,57.466,5.071,62.244.751,6.975-1.5,8.33-10.545-8.531-18.582-15.854-18.655-14.389-24.9-5.931-6.389,42.106,28.706,94.428l17.849,23.213,29.291-3.387c62.079-10.984,86.172-34.454,87.874-44.816s-10.692-13.108-21.529-13.822-23.8.165-24.312-2.4.384-4.65,4.961-6.847,46.83-21.456,48.367-39.562-36.614-19.058-41.85-20.449-2.8-5.84-.22-7.726,31.836-23.1,45.493-32.257,19.991-18.875,15.689-28.3c-4.137-9.153-20.779-5.071-28.523-5.876s-4.943-10.179-4.943-10.179,12.3-20.467,29.182-61.182-2.526-46.189-2.526-46.189" transform="translate(262.75 124.175)" fill="#ebebeb"/>
      <path id="Path_1475" data-name="Path 1475" d="M589.29,572.331c12.522-29.859,30.152-70.94,49.777-116.287S676.432,369.69,689.1,339.9l14.994-35.278,4.082-9.593,1.08-2.472c.256-.568.4-.842.4-.842a7.462,7.462,0,0,1-.293.879l-1.007,2.508c-.9,2.252-2.215,5.492-3.9,9.666-3.405,8.385-8.421,20.486-14.646,35.406-12.577,29.859-30.207,71.05-49.8,116.268s-37.365,86.391-50.033,116.159" transform="translate(285.811 141.037)" fill="#e0e0e0"/>
      <path id="Path_1476" data-name="Path 1476" d="M618.89,327.78a9.154,9.154,0,0,1,.879,1.941c.494,1.263,1.172,3.112,2,5.492,1.611,4.6,3.661,10.984,5.8,18.106l5.492,18.216c.659,2.16,1.208,3.991,1.666,5.492a8.647,8.647,0,0,1,.513,2.05,8.661,8.661,0,0,1-.879-1.922c-.513-1.281-1.19-3.13-1.977-5.492-1.574-4.613-3.533-10.984-5.675-18.142l-5.492-18.161-1.684-5.492a7.485,7.485,0,0,1-.641-2.087Z" transform="translate(310.4 170.992)" fill="#e0e0e0"/>
      <path id="Path_1477" data-name="Path 1477" d="M629.25,365.376c0-.256,12.925-5.089,29.053-10.8s29.291-10.124,29.291-9.849-12.925,5.089-29.053,10.8S629.342,365.559,629.25,365.376Z" transform="translate(319.006 185.059)" fill="#e0e0e0"/>
      <path id="Path_1478" data-name="Path 1478" d="M611.08,395.659a8.83,8.83,0,0,1,2.142-.238l5.877-.348c4.943-.293,11.79-.732,19.314-1.483s14.316-1.611,19.222-2.307l5.822-.787a8.715,8.715,0,0,1,2.16-.183,8.15,8.15,0,0,1-2.087.568c-1.355.293-3.332.677-5.785,1.117-4.888.86-11.68,1.831-19.241,2.6s-14.408,1.062-19.387,1.172H613.24A8.131,8.131,0,0,1,611.08,395.659Z" transform="translate(303.912 222.933)" fill="#e0e0e0"/>
      <path id="Path_1479" data-name="Path 1479" d="M596.09,369.82a13.77,13.77,0,0,1,1.263,1.556c.75,1.044,1.831,2.545,3.13,4.449,2.581,3.771,6.115,9.044,9.959,14.884s7.323,11.167,9.739,15.048c1.227,1.941,2.2,3.533,2.856,4.632a8.576,8.576,0,0,1,.934,1.831,7.321,7.321,0,0,1-1.263-1.556c-.75-1.044-1.831-2.563-3.131-4.449-2.581-3.79-6.115-9.044-9.959-14.9s-7.323-11.167-9.74-15.048c-1.227-1.941-2.2-3.515-2.856-4.632A8.817,8.817,0,0,1,596.09,369.82Z" transform="translate(291.459 205.915)" fill="#e0e0e0"/>
      <path id="Path_1480" data-name="Path 1480" d="M575.87,400.69a13.787,13.787,0,0,1,1.574,2c1.062,1.519,2.417,3.423,4.028,5.693,3.35,4.833,7.927,11.552,12.925,18.984s9.483,14.225,12.687,19.149l3.753,5.877a13.117,13.117,0,0,1,1.263,2.234,12.67,12.67,0,0,1-1.593-2.014l-4.009-5.694c-3.35-4.833-7.927-11.533-12.943-18.984s-9.483-14.225-12.687-19.149c-1.5-2.343-2.746-4.32-3.753-5.877A10.991,10.991,0,0,1,575.87,400.69Z" transform="translate(274.662 231.559)" fill="#e0e0e0"/>
      <path id="Path_1481" data-name="Path 1481" d="M595.38,433.239a14.335,14.335,0,0,1,2.728-.384l7.323-.7c6.261-.6,14.92-1.446,24.44-2.654s18.124-2.49,24.349-3.478l7.323-1.153a13.5,13.5,0,0,1,2.728-.293,14.97,14.97,0,0,1-2.654.677c-1.721.384-4.211.9-7.323,1.464-6.188,1.172-14.792,2.581-24.33,3.771s-18.307,1.959-24.513,2.362c-3.149.2-5.694.348-7.451.4A13.872,13.872,0,0,1,595.38,433.239Z" transform="translate(290.87 251.405)" fill="#e0e0e0"/>
      <path id="Path_1482" data-name="Path 1482" d="M472.151,501.828,123.236,393.23a17.007,17.007,0,0,1-11.186-21.291l67.1-215.493a16.989,16.989,0,0,1,21.328-11.222L549.407,253.84a16.989,16.989,0,0,1,11.167,21.273L493.387,490.66a16.971,16.971,0,0,1-21.236,11.167Z" transform="translate(-111.278 18.693)" fill="#e0e0e0"/>
      <path id="Path_1483" data-name="Path 1483" d="M343.388,245.156a27.552,27.552,0,1,1-1.9-21.021,27.57,27.57,0,0,1,1.9,21.021Z" transform="translate(36.762 72.632)" fill="#fff"/>
      <path id="Path_1484" data-name="Path 1484" d="M331.253,271.036a29.755,29.755,0,0,1-5-1.1,28.358,28.358,0,1,1,5,1.1Zm6.829-54.738A26.454,26.454,0,1,0,360.051,250.4h0a26.472,26.472,0,0,0-17.392-33.117,28.556,28.556,0,0,0-4.668-.989Z" transform="translate(50.855 76.923)" fill="#fff"/>
      <path id="Path_1485" data-name="Path 1485" d="M146.542,235.543l-6.554,21.163-2.179-.677,5.986-19.222-4.98-1.556.6-1.941Z" transform="translate(-89.238 92.515)" fill="#fff"/>
      <path id="Path_1486" data-name="Path 1486" d="M158.211,258.968l-.6,1.941-14.847-4.632.494-1.538,11.479-5.877c3.112-1.629,4.009-2.911,4.467-4.357.769-2.453-.494-4.5-3.661-5.492a7.543,7.543,0,0,0-6.517.567l-1.135-1.831a9.959,9.959,0,0,1,8.44-.7c4.3,1.336,6.353,4.375,5.254,7.909-.641,2.032-1.831,3.661-5.492,5.492l-9.41,4.833Z" transform="translate(-85.126 95.105)" fill="#fff"/>
      <path id="Path_1487" data-name="Path 1487" d="M172.332,258.6l-4.247-1.3-1.721,5.492-2.179-.7,1.721-5.492-11.936-3.661.476-1.574,15.6-10.527,2.417.751-15.085,10.289,9.154,2.874,1.519-4.906,2.105.659-1.519,4.906,4.229,1.318Z" transform="translate(-75.814 98.77)" fill="#fff"/>
      <path id="Path_1488" data-name="Path 1488" d="M190.052,264.126l-4.229-1.318-1.739,5.492-2.179-.677,1.739-5.492-11.954-3.661.494-1.574,15.579-10.545,2.417.751-15.067,10.307,9.154,2.856,1.519-4.888,2.124.659-1.538,4.888,4.247,1.318Z" transform="translate(-61.093 103.348)" fill="#fff"/>
      <path id="Path_1489" data-name="Path 1489" d="M199.391,267.413c-1.117,3.661-4.5,5.638-9.684,4.028a11.4,11.4,0,0,1-6.737-5.089l1.593-1.391a9.575,9.575,0,0,0,5.73,4.467c3.661,1.135,6.06,0,6.865-2.6s-.33-4.943-5.712-6.627l-4.5-1.391,4.394-10.289,11.588,3.661-.6,1.941-9.684-3.021-2.819,6.536,2.728.842C198.915,260.383,200.563,263.678,199.391,267.413Z" transform="translate(-51.723 105.15)" fill="#fff"/>
      <path id="Path_1490" data-name="Path 1490" d="M210.354,270.3c-1.227,3.973-5.126,5.492-9.154,4.266-5.62-1.831-7.469-6.609-5.382-13.291,2.233-7.195,7.323-9.739,13.09-7.945a10.18,10.18,0,0,1,4.65,2.71l-1.41,1.483a7.909,7.909,0,0,0-3.808-2.27c-4.558-1.428-8.421.6-10.2,6.353a16.7,16.7,0,0,0-.458,1.739,7.1,7.1,0,0,1,7.616-1.611C209.4,263.052,211.489,266.439,210.354,270.3Zm-2.16-.641c.86-2.783-.641-5.2-3.9-6.224s-6.06.311-6.883,2.929c-.732,2.343.531,5.144,4.174,6.279a4.851,4.851,0,0,0,6.609-2.984Z" transform="translate(-41.742 108.687)" fill="#fff"/>
      <path id="Path_1491" data-name="Path 1491" d="M226.613,276.282c-1.117,3.533-4.522,5.492-9.629,3.863a11.5,11.5,0,0,1-6.774-5.089l1.593-1.391a9.593,9.593,0,0,0,5.8,4.485c3.5,1.1,5.95,0,6.755-2.563s-.476-4.76-4.394-5.986l-1.519-.476.494-1.593,8.165-5.492-10.838-3.368.6-1.941,13.62,4.247L230,262.515l-8.33,5.675C226.137,269.8,227.657,272.9,226.613,276.282Z" transform="translate(-29.095 111.97)" fill="#fff"/>
      <path id="Path_1492" data-name="Path 1492" d="M237.815,278.843c-1.227,3.954-5.126,5.492-9.245,4.247-5.62-1.831-7.469-6.609-5.382-13.291,2.233-7.195,7.323-9.721,13.09-7.927a10.124,10.124,0,0,1,4.65,2.709l-1.41,1.483a7.927,7.927,0,0,0-3.808-2.288c-4.577-1.41-8.421.6-10.2,6.353a17.129,17.129,0,0,0-.458,1.831,7.085,7.085,0,0,1,7.6-1.629C236.863,271.575,239.024,274.962,237.815,278.843Zm-2.16-.622c.86-2.764-.641-5.2-3.9-6.206s-6.06.293-6.883,2.929c-.732,2.325.513,5.126,4.174,6.279a4.851,4.851,0,0,0,6.609-3Z" transform="translate(-19.006 115.78)" fill="#fff"/>
      <path id="Path_1493" data-name="Path 1493" d="M252.083,268.275l-.494,1.538-14.957,16.879-2.362-.751,14.646-16.476-10.874-3.387-1.245,3.954-2.142-.677,1.831-5.895Z" transform="translate(-9.108 117.561)" fill="#fff"/>
      <path id="Path_1494" data-name="Path 1494" d="M268.583,273.4l-.476,1.556-14.975,16.861-2.362-.732,14.646-16.476-10.984-3.387-1.227,3.973-2.16-.677,1.831-5.895Z" transform="translate(4.599 121.847)" fill="#fff"/>
      <path id="Path_1495" data-name="Path 1495" d="M276.848,291.549c-1.172,3.753-5.071,5.089-10.124,3.515s-7.433-4.87-6.261-8.623a5.492,5.492,0,0,1,5.693-3.936,4.979,4.979,0,0,1-1.831-5.694c1.062-3.442,4.668-4.668,9.154-3.277s6.792,4.467,5.73,7.909a5.016,5.016,0,0,1-4.851,3.661,5.492,5.492,0,0,1,2.49,6.444Zm-2.215-.732c.806-2.6-.934-4.925-4.687-6.1s-6.462-.22-7.323,2.38.879,4.961,4.632,6.115S273.809,293.453,274.633,290.817ZM270.5,283c3.3,1.025,5.712.146,6.426-2.142s-.879-4.485-4.064-5.492-5.675-.183-6.408,2.179S267.182,281.975,270.5,283Z" transform="translate(12.407 125.463)" fill="#fff"/>
      <path id="Path_1496" data-name="Path 1496" d="M289.39,290.251c-2.233,7.195-7.323,9.721-13.09,7.927a10.033,10.033,0,0,1-4.65-2.709l1.41-1.483a7.689,7.689,0,0,0,3.808,2.27c4.558,1.428,8.421-.586,10.2-6.334a15.615,15.615,0,0,0,.458-1.831,7.1,7.1,0,0,1-7.616,1.611c-4.192-1.3-6.353-4.7-5.144-8.568s5.126-5.492,9.154-4.247C289.627,278.626,291.477,283.477,289.39,290.251Zm-1.684-5.144c.732-2.325-.531-5.144-4.174-6.279a4.87,4.87,0,0,0-6.609,2.984c-.879,2.783.622,5.218,3.9,6.224s6.115-.366,6.884-3Z" transform="translate(21.944 128.373)" fill="#fff"/>
      <path id="Path_1497" data-name="Path 1497" d="M298.819,282.933l-6.591,21.181-2.178-.677,5.986-19.241-5-1.556.6-1.941Z" transform="translate(37.229 131.882)" fill="#fff"/>
      <path id="Path_1498" data-name="Path 1498" d="M310.488,306.362l-.6,1.941L295,303.671l.476-1.538,11.478-5.877c3.13-1.611,4.028-2.893,4.485-4.357.751-2.435-.494-4.485-3.661-5.492a7.561,7.561,0,0,0-6.517.549l-1.117-1.831a9.959,9.959,0,0,1,8.44-.677c4.284,1.336,6.334,4.357,5.236,7.89-.641,2.032-1.831,3.661-5.492,5.492l-9.391,4.833Z" transform="translate(41.341 134.469)" fill="#fff"/>
      <path id="Path_1499" data-name="Path 1499" d="M321.983,305.972c-1.1,3.533-4.522,5.492-9.648,3.863a11.588,11.588,0,0,1-6.755-5.089l1.593-1.391a9.74,9.74,0,0,0,5.785,4.485c3.515,1.1,5.968,0,6.774-2.563s-.476-4.76-4.394-5.986l-1.519-.476.494-1.593,8.165-5.492-10.838-3.368.6-1.941,13.62,4.229-.476,1.556-8.348,5.657C321.507,299.491,323.027,302.585,321.983,305.972Z" transform="translate(50.13 136.634)" fill="#fff"/>
      <rect id="Rectangle_258" data-name="Rectangle 258" width="9.63" height="177.597" transform="matrix(0.297, -0.955, 0.955, 0.297, 199.905, 422.963)" fill="#fff"/>
      <rect id="Rectangle_259" data-name="Rectangle 259" width="9.63" height="91.096" transform="matrix(0.297, -0.955, 0.955, 0.297, 276.794, 467.045)" fill="#fff"/>
      <g id="Group_259" data-name="Group 259" transform="translate(50.077 252.621)" opacity="0.5">
        <rect id="Rectangle_260" data-name="Rectangle 260" width="74.528" height="55.672" rx="4.96" transform="matrix(0.955, 0.297, -0.297, 0.955, 16.546, 0)" fill="#ebebeb"/>
      </g>
      <path id="Path_1500" data-name="Path 1500" d="M141.13,224.372l1.062-3.405,36.614,11.405a8.037,8.037,0,1,0,4.778-15.341L146.97,205.625l1.062-3.405,36.614,11.405a11.607,11.607,0,1,1-6.9,22.152Z" transform="translate(-86.48 66.688)" fill="#e0e0e0"/>
      <rect id="Rectangle_261" data-name="Rectangle 261" width="3.556" height="26.245" transform="translate(102.432 298.189) rotate(-72.474)" fill="#e0e0e0"/>
      <rect id="Rectangle_262" data-name="Rectangle 262" width="191.657" height="16.44" transform="matrix(0.955, 0.297, -0.297, 0.955, 88.654, 211.491)" fill="#fff"/>
      <path id="Path_1501" data-name="Path 1501" d="M234.606,414.326a48.605,48.605,0,1,1-55.086-40.99,48.605,48.605,0,0,1,55.086,40.99Z" transform="translate(-89.153 208.403)" fill="#f5f5f5"/>
      <path id="Path_1502" data-name="Path 1502" d="M217.929,410.758a37.054,37.054,0,1,1-41.978-31.25,37.054,37.054,0,0,1,41.978,31.25Z" transform="translate(-83.917 213.638)" fill="#ebebeb"/>
      <path id="Path_1503" data-name="Path 1503" d="M217.98,410.275a21.856,21.856,0,0,1-1.611-4.266,39.637,39.637,0,0,0-5.858-10.618,36.615,36.615,0,0,0-18.746-12.815,32.825,32.825,0,0,0-5.236-1.117,37.02,37.02,0,0,0-5.492-.329,43.087,43.087,0,0,0-5.693.549,41.485,41.485,0,0,0-5.492,1.446,36.2,36.2,0,0,0-5.089,2.215,36.642,36.642,0,0,0-14.334,13.675,38.154,38.154,0,0,0-3.423,7.6,39.616,39.616,0,0,0-1.831,11.973,20.137,20.137,0,0,1,0,4.577,11.405,11.405,0,0,1-1.062-4.5,34.893,34.893,0,0,1,1.025-12.614,38.794,38.794,0,0,1,3.3-8.2,37.949,37.949,0,0,1,6.078-8.165,34.926,34.926,0,0,1,4.137-3.661,37.309,37.309,0,0,1,4.851-3.13,38.744,38.744,0,0,1,5.492-2.417,42.625,42.625,0,0,1,5.968-1.574,41.363,41.363,0,0,1,6.151-.586,37.708,37.708,0,0,1,5.968.4,35.515,35.515,0,0,1,5.639,1.263,36.627,36.627,0,0,1,5.144,2.014,37.2,37.2,0,0,1,14.426,12.138,34.584,34.584,0,0,1,5.309,11.479,10.875,10.875,0,0,1,.384,4.668Z" transform="translate(-84.152 212.967)" fill="#e0e0e0"/>
      <path id="Path_1504" data-name="Path 1504" d="M179.237,432.294l1.025,6.371-5.694.915-.989-6.206A27.242,27.242,0,0,1,158.7,431.1l2.014-7.451a23.324,23.324,0,0,0,11.68,2.27l-1.52-9.5c-6.572-.513-13.95-1.483-15.25-9.63-.97-6.023,2.581-11.9,11.405-14.371l-1.007-6.316,5.675-.915L172.7,391.4a26.089,26.089,0,0,1,12.1,1.629l-1.721,7.451a23.615,23.615,0,0,0-9.154-1.574l1.556,9.685c6.554.458,13.822,1.464,15.1,9.483C191.5,423.983,188.006,429.786,179.237,432.294Zm-9.7-24.22-1.3-8.092c-2.911,1.172-3.845,3.021-3.533,4.888S166.9,407.671,169.534,408.074Zm11.973,12.138c-.311-2-2.142-2.8-4.723-3.277l1.263,7.854C180.793,423.708,181.8,422.024,181.507,420.211Z" transform="translate(-74.572 218.683)" fill="#e0e0e0"/>
    </g>
    <g id="freepik--Plant--inject-175" transform="translate(997.164 652.718)">
      <path id="Path_1505" data-name="Path 1505" d="M598.183,430.419c-3.552,5.053-10.453,3.387-13.639.293s-4.558-7.579-5.785-11.863c-2.819-9.758-5.639-20.01-3.552-29.969a16.734,16.734,0,0,1,3.826-8.147,8.732,8.732,0,0,1,8.238-2.746c3.478.915,5.638,4.339,7.195,7.579a71.392,71.392,0,0,1,7.066,30.646c0,4.943-.567,10.124-3.35,14.206" transform="translate(-554.433 -377.816)" fill="#e83225"/>
      <g id="Group_260" data-name="Group 260" transform="translate(20.052)" opacity="0.2">
        <path id="Path_1506" data-name="Path 1506" d="M598.183,430.419c-3.552,5.053-10.453,3.387-13.639.293s-4.558-7.579-5.785-11.863c-2.819-9.758-5.639-20.01-3.552-29.969a16.734,16.734,0,0,1,3.826-8.147,8.732,8.732,0,0,1,8.238-2.746c3.478.915,5.638,4.339,7.195,7.579a71.392,71.392,0,0,1,7.066,30.646c0,4.943-.567,10.124-3.35,14.206" transform="translate(-574.485 -377.816)"/>
      </g>
      <path id="Path_1507" data-name="Path 1507" d="M593.991,421.894A30.757,30.757,0,0,0,574.9,419.57a15.762,15.762,0,0,0-9.41,4.211c-2.362,2.6-2.8,7.176-.11,9.41a9.044,9.044,0,0,0,5.95,1.5c5.034,0,10.636-.952,14.646,2.087,2.307,1.739,3.826,4.613,6.591,5.492a6.518,6.518,0,0,0,7.14-3.186,10.983,10.983,0,0,0,.806-8.2A12.467,12.467,0,0,0,593.991,421.894Z" transform="translate(-563.532 -343.624)" fill="#e83225"/>
      <path id="Path_1508" data-name="Path 1508" d="M594.467,430.317a18.454,18.454,0,0,1-2.856-16.971A32.681,32.681,0,0,1,601.661,398.7a54.1,54.1,0,0,1,18-10.618,19.258,19.258,0,0,1,8.092-1.373,8.495,8.495,0,0,1,6.792,4.1c1.831,3.661.091,8-1.831,11.57a135.1,135.1,0,0,1-11.826,18.014c-3.533,4.558-7.6,9.153-13,11.131s-10.984,1.831-13.877-1.831" transform="translate(-540.977 -370.445)" fill="#e83225"/>
      <path id="Path_1509" data-name="Path 1509" d="M599.547,469.427a13.01,13.01,0,0,1-.311-2.307c-.165-1.666-.366-3.771-.622-6.279a91.7,91.7,0,0,0-1.41-9.153,72.278,72.278,0,0,0-3.35-10.874,39.717,39.717,0,0,0-5.492-9.849,19.716,19.716,0,0,0-12.925-7.689,10.254,10.254,0,0,1-2.307-.33,12.194,12.194,0,0,1,2.343,0,18.123,18.123,0,0,1,6.169,1.611,20.728,20.728,0,0,1,7.323,5.895,39.638,39.638,0,0,1,5.749,10.032,65.882,65.882,0,0,1,3.332,11.076,80.235,80.235,0,0,1,1.227,9.337c.2,2.655.275,4.815.311,6.316a9.549,9.549,0,0,1-.036,2.215Z" transform="translate(-555.559 -340.373)" fill="#263238"/>
      <path id="Path_1510" data-name="Path 1510" d="M592.646,492.821a4.374,4.374,0,0,1,0-1.062c0-.806,0-1.831,0-3.057,0-2.654,0-6.5-.147-11.241-.238-9.483-1.044-22.554-2.618-36.944s-3.661-27.333-5.62-36.614c-.458-2.325-.915-4.412-1.336-6.261s-.769-3.423-1.1-4.7-.531-2.178-.714-2.966a4.4,4.4,0,0,1-.183-1.062,5.484,5.484,0,0,1,.366,1.007l.9,2.929c.384,1.281.787,2.856,1.245,4.687s.989,3.9,1.483,6.224a349.431,349.431,0,0,1,5.895,36.614c1.593,14.426,2.288,27.461,2.362,37.035,0,4.76,0,8.6-.165,11.259,0,1.245-.146,2.252-.183,3.057A6.2,6.2,0,0,1,592.646,492.821Z" transform="translate(-549.079 -368.6)" fill="#263238"/>
      <path id="Path_1511" data-name="Path 1511" d="M587.316,463.988a22.337,22.337,0,0,1,0-3.185c.128-2.05.4-5.016.989-8.641a114.309,114.309,0,0,1,2.8-12.614,111.829,111.829,0,0,1,5.272-14.9,79.235,79.235,0,0,1,15.488-24.11,39.6,39.6,0,0,1,3.661-3.387c.567-.458,1.062-.934,1.556-1.3l1.428-.989a20.891,20.891,0,0,1,2.673-1.721,99.875,99.875,0,0,0-8.806,7.872,83.9,83.9,0,0,0-15.085,24,119.148,119.148,0,0,0-5.309,14.774c-1.373,4.632-2.288,8.9-2.984,12.485s-1.043,6.536-1.281,8.568A18.834,18.834,0,0,1,587.316,463.988Z" transform="translate(-543.822 -365.086)" fill="#263238"/>
    </g>
    <g id="freepik--credit-card--inject-175" transform="translate(357.36 117.579)">
      <path id="Path_1512" data-name="Path 1512" d="M499.551,574.333,216.194,274.609a7.89,7.89,0,0,1,.311-11.131L402.523,87.657a7.872,7.872,0,0,1,11.131.311L696.993,387.71a7.89,7.89,0,0,1-.311,11.131L510.7,574.589a7.854,7.854,0,0,1-11.149-.256Z" transform="translate(-214.048 -85.504)" fill="#e83225"/>
      <g id="Group_261" data-name="Group 261">
        <path id="Path_1513" data-name="Path 1513" d="M499.551,574.333,216.194,274.609a7.89,7.89,0,0,1,.311-11.131L402.523,87.657a7.872,7.872,0,0,1,11.131.311L696.993,387.71a7.89,7.89,0,0,1-.311,11.131L510.7,574.589a7.854,7.854,0,0,1-11.149-.256Z" transform="translate(-214.048 -85.504)" fill="#e9be4e"/>
      </g>
      <path id="Path_1514" data-name="Path 1514" d="M634.995,384.95,355.775,89.6a10.874,10.874,0,0,0-15.4-.439l-52.834,49.96A4.339,4.339,0,0,0,286.227,143c5.291,29.548,26.417,55.965,51.608,73.466,30.426,21.145,66.491,32.294,100.689,46.408s68.67,32.715,89.229,63.562c19.387,29.127,23.964,65.246,33.831,98.858a193.545,193.545,0,0,0,10.032,26.692,4.376,4.376,0,0,0,6.957,1.355l56-52.944a10.874,10.874,0,0,0,.421-15.451Z" transform="translate(-154.137 -84.94)" fill="#e61030"/>
      <path id="Path_1515" data-name="Path 1515" d="M329.5,145.633c-2.526,2.4-5.895,1.831-9.52-2.069L312.84,136l14.646-13.8,6.737,7.14c3.46,3.661,3.661,6.975,1.446,9.154a4.815,4.815,0,0,1-5.053,1.1,4.98,4.98,0,0,1-1.117,6.041Zm-1.428-17.666-3.442,3.259,3.149,3.423c1.556,1.648,2.984,2,4.137.915s.861-2.508-.7-4.156ZM326.625,141.9c1.227-1.153.934-2.655-.732-4.412l-3.661-3.936-3.661,3.405,3.661,3.954c1.721,1.757,3.149,2.179,4.394,1.062Z" transform="translate(-131.98 -55.02)" fill="#fff"/>
      <path id="Path_1516" data-name="Path 1516" d="M334.132,149.319l-6.426-6.792-4.357,1.666-3.259-3.46,20.76-7.323L344,136.76,335.578,157.1l-3.368-3.552Zm1.556-3.5,3.405-7.6-7.781,2.966Z" transform="translate(-125.958 -45.708)" fill="#fff"/>
      <path id="Path_1517" data-name="Path 1517" d="M356.589,153.122l-14.646,13.8-2.581-2.819,2-15.653-8.879,8.33-3.149-3.35,14.646-13.8,2.655,2.8-2.014,15.634,8.879-8.385Z" transform="translate(-118.282 -40.541)" fill="#fff"/>
      <path id="Path_1518" data-name="Path 1518" d="M348.819,162.552h-3.9l-3.661,3.5L338,162.662l14.646-13.822,3.167,3.368-6.829,6.444h12.943l3.552,3.661-12.229.11-2.014,14.17-3.661-3.936Z" transform="translate(-111.08 -32.89)" fill="#fff"/>
      <path id="Path_1519" data-name="Path 1519" d="M292.349,171.177l-2.453-2.691-3.661,3.332-1.3-1.373,3.533-3.332-7.158-7.561.989-.952,15.616-1.3,1.446,1.538-15.14,1.336L289.713,166l3.094-2.947,1.263,1.355-3.094,2.929,2.526,2.673Z" transform="translate(-158.173 -25.862)" fill="#fff"/>
      <path id="Path_1520" data-name="Path 1520" d="M297.785,178.339c-2.252,2.105-5.492,2.124-8.568-1.117a9.611,9.611,0,0,1-2.838-6.462l1.721-.366a8.037,8.037,0,0,0,2.38,5.62c2.105,2.233,4.284,2.471,5.95.9s1.593-3.661-.751-6.133l-.915-.952,1.025-.97,8.165-.677-6.481-6.865,1.227-1.153,8.147,8.623-.97.915-8.366.714C300.074,173.433,299.927,176.343,297.785,178.339Z" transform="translate(-153.961 -23.486)" fill="#fff"/>
      <path id="Path_1521" data-name="Path 1521" d="M303.468,183.75c-2.288,2.16-5.492,2.252-8.659-1.025a9.465,9.465,0,0,1-2.819-6.444l1.721-.366a7.945,7.945,0,0,0,2.343,5.492c2.142,2.288,4.394,2.453,6.023.9s1.831-3.661-1.428-7.121l-2.709-2.856,7.323-5.657,6.938,7.323-1.227,1.153-5.73-6.041-4.723,3.57,1.629,1.831C305.977,178.387,305.83,181.425,303.468,183.75Z" transform="translate(-149.301 -18.078)" fill="#fff"/>
      <path id="Path_1522" data-name="Path 1522" d="M309.2,189.51a5.73,5.73,0,0,1-8.439-.677c-3.369-3.57-2.728-7.835,1.5-11.845,4.559-4.3,9.282-4.064,12.723-.421a8.367,8.367,0,0,1,2.288,3.881l-1.648.494a6.26,6.26,0,0,0-1.831-3.2c-2.728-2.892-6.334-3-9.977.439-.311.293-.677.677-1.044,1.1a5.858,5.858,0,0,1,6.169,1.922C311.467,183.853,311.65,187.2,309.2,189.51Zm-1.318-1.318c1.831-1.666,1.666-4.027-.293-6.1a4.265,4.265,0,0,0-6.188-.677c-1.483,1.391-1.721,3.936.476,6.243a4.028,4.028,0,0,0,6,.531Z" transform="translate(-143.807 -12.157)" fill="#fff"/>
      <path id="Path_1523" data-name="Path 1523" d="M320.609,208.122l1.19-7.176-7.323.769-1.446-1.538,8.952-.915,1.3-8.421,1.465,1.538-1.1,6.755,6.81-.714,1.41,1.5-8.476.842-1.373,8.916Z" transform="translate(-131.822 2)" fill="#fff"/>
      <path id="Path_1524" data-name="Path 1524" d="M325.9,213.712l1.19-7.195-7.323.769-1.465-1.538,8.952-.9,1.318-8.421,1.446,1.519-1.08,6.755,6.792-.7,1.428,1.5-8.495.842-1.373,8.916Z" transform="translate(-127.445 6.644)" fill="#fff"/>
      <path id="Path_1525" data-name="Path 1525" d="M331.169,219.292l1.19-7.176-7.323.769-1.446-1.538,8.934-.9,1.318-8.44,1.446,1.538-1.08,6.755,6.81-.7,1.41,1.483-8.495.842-1.373,8.916Z" transform="translate(-123.05 11.279)" fill="#fff"/>
      <path id="Path_1526" data-name="Path 1526" d="M336.439,224.842l1.19-7.176-7.323.769L328.86,216.9l8.934-.915,1.318-8.421,1.446,1.538-1.08,6.755,6.81-.714,1.41,1.5-8.495.842-1.355,8.916Z" transform="translate(-118.672 15.89)" fill="#fff"/>
      <path id="Path_1527" data-name="Path 1527" d="M354.689,244.172l1.19-7.176-7.323.769-1.446-1.538,8.934-.9,1.318-8.44,1.446,1.538-1.08,6.755,6.81-.714,1.41,1.5-8.495.842-1.373,8.916Z" transform="translate(-103.512 31.947)" fill="#fff"/>
      <path id="Path_1528" data-name="Path 1528" d="M359.969,249.762l1.19-7.195-7.323.769-1.446-1.52,8.934-.915,1.318-8.421,1.446,1.538-1.08,6.755,6.81-.714,1.41,1.5-8.495.842-1.373,8.916Z" transform="translate(-99.126 36.591)" fill="#fff"/>
      <path id="Path_1529" data-name="Path 1529" d="M365.241,255.352l1.208-7.195-7.323.769-1.446-1.538,8.934-.9,1.318-8.421,1.446,1.52-1.08,6.755,6.81-.7,1.41,1.483-8.495.842-1.355,8.916Z" transform="translate(-94.731 41.234)" fill="#fff"/>
      <path id="Path_1530" data-name="Path 1530" d="M370.539,260.932l1.19-7.176-7.323.769-1.446-1.538,8.934-.9,1.318-8.44,1.465,1.538-1.1,6.755,6.81-.714,1.41,1.5-8.494.842-1.355,8.916Z" transform="translate(-90.345 45.87)" fill="#fff"/>
      <path id="Path_1531" data-name="Path 1531" d="M397.479,265.55l-13.4,12.687-1.318-1.391,12.192-11.515-2.984-3.149,1.227-1.172Z" transform="translate(-73.897 60.291)" fill="#fff"/>
      <path id="Path_1532" data-name="Path 1532" d="M396.985,283.249c-2.233,2.124-5.492,2.124-8.568-1.117a9.61,9.61,0,0,1-2.838-6.462l1.721-.366a8.183,8.183,0,0,0,2.38,5.639c2.105,2.215,4.3,2.471,5.968.9s1.593-3.661-.769-6.151l-.9-.952,1.007-.952,8.165-.7-6.481-6.847,1.227-1.172,8.147,8.623-.97.934-8.348.714C399.292,278.4,399.164,281.253,396.985,283.249Z" transform="translate(-71.555 63.664)" fill="#fff"/>
      <path id="Path_1533" data-name="Path 1533" d="M403.512,288.758l-2.545-2.691-3.515,3.332-1.318-1.373,3.533-3.332-7.158-7.561,1.007-.952,15.6-1.282,1.446,1.519-15.14,1.336,5.492,5.822,3.094-2.929,1.281,1.336-3.112,2.929,2.545,2.691Z" transform="translate(-65.798 71.829)" fill="#fff"/>
      <path id="Path_1534" data-name="Path 1534" d="M407.194,298.224l-1.227,1.153-8.9-9.41.989-.915,10.728.4c2.929.11,4.1-.458,5.016-1.318,1.556-1.483,1.483-3.478-.458-5.492a6.261,6.261,0,0,0-4.961-2.233V278.58a8.275,8.275,0,0,1,6.407,2.929c2.563,2.728,2.819,5.748.567,7.872-1.281,1.208-2.8,1.831-6.261,1.831l-8.806-.311Z" transform="translate(-62.01 74.886)" fill="#fff"/>
      <path id="Path_1535" data-name="Path 1535" d="M261.335,171.51a4.851,4.851,0,0,1,7.945,4.046l-1.831-.11A2.832,2.832,0,1,0,262.58,177a2.783,2.783,0,0,0,2.288.879v1.831a4.576,4.576,0,0,1-3.661-1.574,4.522,4.522,0,0,1,.128-6.627Z" transform="translate(-176.02 -14.991)" fill="#fff"/>
      <path id="Path_1536" data-name="Path 1536" d="M268.2,181.157l-2.819-2.966-1.831.732-1.428-1.52,9.154-3.2,1.373,1.465-3.661,8.916-1.593-1.593Zm.677-1.52,1.483-3.332-3.405,1.3Z" transform="translate(-174.114 -11.823)" fill="#fff"/>
      <path id="Path_1537" data-name="Path 1537" d="M269.993,187.041l.6-2.929h0l-1.227-1.282-1.831,1.684-1.41-1.483,6.408-6.041,2.618,2.764c1.611,1.7,1.739,3.661.293,4.961a2.838,2.838,0,0,1-3.259.6l-.7,3.368Zm3.881-6.3-1.153-1.208-2.233,2.105,1.153,1.208c.842.9,1.7.952,2.4.311s.677-1.519-.165-2.49Z" transform="translate(-170.783 -9.505)" fill="#fff"/>
      <path id="Path_1538" data-name="Path 1538" d="M269.69,185.234l1.593-.549a5.09,5.09,0,0,0,1.336,2.746c.824.879,1.446.952,1.831.586,1.19-1.135-3.149-4.064-.769-6.316,1.1-1.025,2.819-1.007,4.54.806a5.822,5.822,0,0,1,1.538,2.764l-1.556.6a5,5,0,0,0-1.172-2.252c-.842-.879-1.483-.9-1.831-.531-1.172,1.117,3.149,4.082.806,6.3-1.08,1.007-2.819.989-4.558-.842A6.389,6.389,0,0,1,269.69,185.234Z" transform="translate(-167.825 -6.161)" fill="#fff"/>
      <path id="Path_1539" data-name="Path 1539" d="M285.914,191.088l-6.407,6.06-1.391-1.483,2.618-2.49-2.746-2.911-2.618,2.49-1.41-1.483,6.407-6.041,1.391,1.465-2.526,2.4L281.978,192l2.526-2.4Z" transform="translate(-164.278 -2.66)" fill="#fff"/>
      <path id="Path_1540" data-name="Path 1540" d="M279.964,191.39a4.833,4.833,0,1,1,0,6.627,4.577,4.577,0,0,1,0-6.627Zm5.2,5.492a2.673,2.673,0,0,0,.165-3.936,2.819,2.819,0,1,0-.165,3.936Z" transform="translate(-160.47 1.194)" fill="#fff"/>
      <path id="Path_1541" data-name="Path 1541" d="M288.177,193.49l1.391,1.483-5.2,4.943,3.039,3.2-1.208,1.135-4.43-4.687Z" transform="translate(-157.79 4.201)" fill="#fff"/>
      <path id="Path_1542" data-name="Path 1542" d="M291.019,196.51l2.746,2.911a4.412,4.412,0,1,1-6.389,6.041l-2.746-2.911Zm-2.508,7.726a2.746,2.746,0,1,0,3.973-3.661l-1.282-1.355-3.954,3.68Z" transform="translate(-155.415 6.71)" fill="#fff"/>
      <path id="Path_1543" data-name="Path 1543" d="M294.407,210.478l-1.19,1.135-4.687-4.961,6.407-6.041,4.559,4.833-1.172,1.117-3.185-3.35-1.391,1.3,2.8,2.984-1.153,1.08-2.8-2.966L291.111,207Z" transform="translate(-152.175 10.116)" fill="#fff"/>
      <path id="Path_1544" data-name="Path 1544" d="M295.563,214.081l.6-2.911h0l-1.227-1.282-1.831,1.684-1.41-1.483,6.408-6.06,2.618,2.783c1.611,1.7,1.739,3.661.293,4.961a2.838,2.838,0,0,1-3.259.6l-.7,3.368Zm3.881-6.3-1.153-1.208-2.215,2.124,1.135,1.208c.86.9,1.7.952,2.4.293S300.286,208.7,299.444,207.783Z" transform="translate(-149.542 12.957)" fill="#fff"/>
      <path id="Path_1545" data-name="Path 1545" d="M246.687,187.524l3.405-.22a3.936,3.936,0,0,0,.806,3.57c1.08,1.135,2.343,1.1,3.661-.183l5.858-5.492-4.1-4.339,2.288-2.16,6.792,7.176-8,7.543c-3.057,2.893-5.986,2.764-8.732-.128a6.829,6.829,0,0,1-1.977-5.767Z" transform="translate(-186.984 -8.085)" fill="#fff"/>
      <path id="Path_1546" data-name="Path 1546" d="M252.333,189.421a2.344,2.344,0,1,1-.092,3.314A2.344,2.344,0,0,1,252.333,189.421Z" transform="translate(-182.853 0.289)" fill="#fff"/>
      <path id="Path_1547" data-name="Path 1547" d="M282.243,205.318,266.1,212.934l-2.892-3.057,5.785-10.6L258,204.366l-2.874-3.039,8.494-15.708,2.8,2.947-6.041,10.984,11.424-5.291,2.49,2.636-6.078,11.076,11.46-5.382Z" transform="translate(-179.921 -2.336)" fill="#fff"/>
      <path id="Path_1548" data-name="Path 1548" d="M276.019,197.309a2.348,2.348,0,0,1,3.277,3.35,2.344,2.344,0,0,1-3.277-3.35Zm-2.545,3.021,2.6,2.746-9.483,8.952-2.581-2.746Z" transform="translate(-172.544 6.9)" fill="#fff"/>
      <path id="Path_1549" data-name="Path 1549" d="M279.811,199.74l2.6,2.746L269.34,214.862l-2.6-2.746Z" transform="translate(-170.276 9.393)" fill="#fff"/>
      <path id="Path_1550" data-name="Path 1550" d="M282.541,202.63l2.6,2.746L272.07,217.733l-2.6-2.746Z" transform="translate(-168.008 11.794)" fill="#fff"/>
      <path id="Path_1551" data-name="Path 1551" d="M284.219,205.972a2.179,2.179,0,0,1,3.149.256,2.142,2.142,0,0,1,.128,3.112,2.362,2.362,0,0,1-3.277-3.368Zm-2.545,3.039,2.6,2.746-9.465,8.952-2.6-2.746Z" transform="translate(-165.732 14.109)" fill="#fff"/>
      <path id="Path_1552" data-name="Path 1552" d="M287.862,222.2l-5.492,5.108-2.435-2.563,1.19-1.117a4.284,4.284,0,0,1-4.046-1.648c-2.105-2.215-2.124-4.7-.476-6.243s3.936-1.5,6.664,1.373l2.069,2.2c1.19-1.117,1.208-2.471-.2-3.954a6.243,6.243,0,0,0-3.46-1.831l.989-2.783a10.014,10.014,0,0,1,5.016,2.984C290.5,216.452,290.736,219.4,287.862,222.2Zm-5-.458.97-.915L282,219c-1.208-1.3-2.069-1.245-2.709-.659s-.586,1.666.329,2.636a2.8,2.8,0,0,0,3.24.677Z" transform="translate(-163.059 18.531)" fill="#fff"/>
      <path id="Path_1553" data-name="Path 1553" d="M301.084,235.972l-5.492,5.126-2.581-2.746,5-4.723c1.519-1.446,1.574-2.8.531-3.9s-2.764-1.355-4.467.238l-4.741,4.5-2.6-2.746,5-4.723c1.538-1.465,1.611-2.783.531-3.918s-2.746-1.336-4.449.275l-4.632,4.54-2.6-2.746,9.465-8.952,2.49,2.618-1.1,1.044a5.236,5.236,0,0,1,4.046,1.831,4.87,4.87,0,0,1,1.391,4.6,5.876,5.876,0,0,1,4.8,1.941C303.738,230.48,303.958,233.3,301.084,235.972Z" transform="translate(-158.779 23.067)" fill="#fff"/>
      <path id="Path_1554" data-name="Path 1554" d="M290.09,233.006l2.838-.952a8.769,8.769,0,0,0,2.2,4.156c1.19,1.263,1.977,1.428,2.508.934,1.538-1.465-5.492-5.694-1.666-9.282,1.831-1.684,4.6-1.263,7.213,1.5a10.783,10.783,0,0,1,2.618,4.43l-2.819.934a7.323,7.323,0,0,0-1.831-3.405c-1.153-1.227-2.05-1.391-2.545-.934-1.611,1.538,5.364,5.785,1.629,9.3-1.831,1.666-4.558,1.227-7.323-1.611A11.075,11.075,0,0,1,290.09,233.006Z" transform="translate(-150.879 31.927)" fill="#fff"/>
      <path id="Path_1555" data-name="Path 1555" d="M351.355,289.391c4.064-3.844,8.495-3.771,11.369-.751s2.691,7.469-1.391,11.314-8.476,3.79-11.369.751S347.291,293.236,351.355,289.391Zm7.323,7.689c2.8-2.636,3.039-4.723,1.684-6.151s-3.423-1.3-6.224,1.355-3.039,4.723-1.7,6.133,3.387,1.318,6.188-1.336Z" transform="translate(-102.759 81.412)" fill="#fff"/>
      <path id="Path_1556" data-name="Path 1556" d="M364.887,308.1c-2.508,2.38-6.041,1.831-8.513-.787-3.2-3.405-3.076-7.543.9-11.3,4.266-4.028,9.154-3.661,12.577,0a9.154,9.154,0,0,1,2.417,4.247l-3.094.915a5.712,5.712,0,0,0-1.574-2.892,4.5,4.5,0,0,0-6.847-.092,5.859,5.859,0,0,1,3.973,2.014,5.492,5.492,0,0,1,.165,7.89Zm-2.746-2.636a2.563,2.563,0,0,0-.146-3.844,2.655,2.655,0,0,0-3.863-.385,2.618,2.618,0,0,0,.22,3.9,2.563,2.563,0,0,0,3.826.33Z" transform="translate(-97.691 86.977)" fill="#fff"/>
      <path id="Path_1557" data-name="Path 1557" d="M379.018,298.8l2.325,2.435-22.1,9.886-2.307-2.453Z" transform="translate(-95.346 91.683)" fill="#fff"/>
      <path id="Path_1558" data-name="Path 1558" d="M373.167,319.477l-2.325,2.2L362,312.356l1.831-1.739,8.989.513a4.284,4.284,0,0,0,3.5-.861c.97-.915.9-2.124-.348-3.423a4.119,4.119,0,0,0-3.661-1.391l-.622-3.35a7.891,7.891,0,0,1,6.92,2.728c2.6,2.764,2.911,5.913.677,8.037-1.19,1.135-2.6,1.831-5.84,1.611l-5.346-.311Z" transform="translate(-91.143 94.384)" fill="#fff"/>
      <path id="Path_1559" data-name="Path 1559" d="M379.458,324.869l-1.831-2-2.581,2.435-2.636-2.783,2.6-2.435-6.279-6.646,1.922-1.831,13.309-1.574,2.838,2.984-12.522,1.611,3.13,3.314,2.307-2.179,2.545,2.691-2.307,2.179,1.831,2.014Z" transform="translate(-85.552 101.021)" fill="#fff"/>
      <path id="Path_1560" data-name="Path 1560" d="M425.48,253.7c6.957-10.691,4.229-24.9-5.108-33.575a33.174,33.174,0,0,0-9.721-6.371c-8.915-3.661-20.724-1.007-25.41,7.451-3.826,6.9-2.288,15.524.4,22.939,2.8,7.781,7.323,15.726,15.03,18.746s16.33.256,21.859-5.492a23.068,23.068,0,0,0,2.947-3.7Z" transform="translate(-73.742 19.705)" fill="#e83225"/>
    </g>
    <g id="freepik--Wallet--inject-175" transform="translate(357.192 394.902)">
      <rect id="Rectangle_263" data-name="Rectangle 263" width="532.022" height="386.115" rx="17.44" transform="translate(21.609 0.498)" fill="#e61030"/>
      <path id="Path_1561" data-name="Path 1561" d="M758.05,269.414V268.26a25.883,25.883,0,0,0-.329-3.423,31.234,31.234,0,0,0-4.687-12.5,33.3,33.3,0,0,0-6.517-7.414,32.292,32.292,0,0,0-10.417-5.712c-1.025-.348-2.105-.549-3.185-.86a28.417,28.417,0,0,0-3.387-.531l-3.533-.165H706.259l-190.888.146H261.946a50.546,50.546,0,0,0-9.721.549,31.232,31.232,0,0,0-16.952,9.154,30.7,30.7,0,0,0-5.62,8.073,29.843,29.843,0,0,0-2.856,9.465,79.7,79.7,0,0,0-.311,10.069V591.49a31.689,31.689,0,0,0,7.835,20.815,31.122,31.122,0,0,0,19.387,10.453,96.131,96.131,0,0,0,11.277.311H723.45a44.562,44.562,0,0,0,8.586-.568,31.511,31.511,0,0,0,8.037-2.709,34.332,34.332,0,0,0,3.661-2.087,38.1,38.1,0,0,0,3.3-2.6,31.25,31.25,0,0,0,10.563-21.749c.183-21.969,0-43.095.11-63.233,0-80.551.128-145.8.165-190.87,0-22.536,0-40.019.092-51.9v0c0,11.881,0,29.291.091,51.9,0,45.072,0,110.282.147,190.87,0,20.138.128,41.246,0,63.269A32.092,32.092,0,0,1,753,609.23a32.789,32.789,0,0,1-5.492,6.444,36.585,36.585,0,0,1-3.387,2.654,36.088,36.088,0,0,1-3.661,2.142,31.56,31.56,0,0,1-8.22,2.783,43.686,43.686,0,0,1-8.732.586H264.912a95.381,95.381,0,0,1-11.405-.329,31.928,31.928,0,0,1-19.973-10.746,32.66,32.66,0,0,1-8.055-21.365V275.144a79.193,79.193,0,0,1,.329-10.2,30.535,30.535,0,0,1,2.947-9.721,31.213,31.213,0,0,1,5.785-8.311,33.886,33.886,0,0,1,7.982-6.078,32.955,32.955,0,0,1,9.446-3.3l2.471-.384,2.471-.128c1.666-.092,3.3,0,4.925,0H515.262l190.888.165h19.643l3.57.183c1.153.2,2.307.33,3.405.567a25.762,25.762,0,0,1,3.2.879,32.4,32.4,0,0,1,10.49,5.785A33.207,33.207,0,0,1,753,252.1a31.121,31.121,0,0,1,4.613,12.6,22.133,22.133,0,0,1,.293,3.442A9.185,9.185,0,0,1,758.05,269.414Z" transform="translate(-204.418 -236.988)" fill="#263238"/>
      <path id="Path_1562" data-name="Path 1562" d="M506.19,250.476a31.929,31.929,0,0,1,10.984,0,31.928,31.928,0,0,1-10.984,0Z" transform="translate(28.805 -226.178)" fill="#263238"/>
      <path id="Path_1563" data-name="Path 1563" d="M481.71,250.476a132.109,132.109,0,0,1,22.408,0,132.1,132.1,0,0,1-22.408,0Z" transform="translate(8.469 -226.178)" fill="#263238"/>
      <path id="Path_1564" data-name="Path 1564" d="M457.24,250.476a131.816,131.816,0,0,1,22.39,0A131.816,131.816,0,0,1,457.24,250.476Z" transform="translate(-11.858 -226.178)" fill="#263238"/>
      <path id="Path_1565" data-name="Path 1565" d="M432.76,250.476a132.109,132.109,0,0,1,22.408,0,132.1,132.1,0,0,1-22.408,0Z" transform="translate(-32.194 -226.178)" fill="#263238"/>
      <path id="Path_1566" data-name="Path 1566" d="M408.29,250.476a131.815,131.815,0,0,1,22.39,0A131.815,131.815,0,0,1,408.29,250.476Z" transform="translate(-52.521 -226.178)" fill="#263238"/>
      <path id="Path_1567" data-name="Path 1567" d="M383.81,250.476a132.109,132.109,0,0,1,22.408,0,132.1,132.1,0,0,1-22.408,0Z" transform="translate(-72.857 -226.178)" fill="#263238"/>
      <path id="Path_1568" data-name="Path 1568" d="M359.34,250.476a131.815,131.815,0,0,1,22.39,0A131.815,131.815,0,0,1,359.34,250.476Z" transform="translate(-93.184 -226.178)" fill="#263238"/>
      <path id="Path_1569" data-name="Path 1569" d="M334.86,250.476a132.109,132.109,0,0,1,22.408,0,132.1,132.1,0,0,1-22.408,0Z" transform="translate(-113.52 -226.178)" fill="#263238"/>
      <path id="Path_1570" data-name="Path 1570" d="M310.38,250.476a132.11,132.11,0,0,1,22.408,0,132.1,132.1,0,0,1-22.408,0Z" transform="translate(-133.856 -226.178)" fill="#263238"/>
      <path id="Path_1571" data-name="Path 1571" d="M285.91,250.5a67.184,67.184,0,0,1,11.149-.476,67.191,67.191,0,0,1,11.2.476,64.9,64.9,0,0,1-11.2.476,64.9,64.9,0,0,1-11.149-.476Z" transform="translate(-154.183 -226.204)" fill="#263238"/>
      <path id="Path_1572" data-name="Path 1572" d="M261.43,250.5a67.188,67.188,0,0,1,11.2-.476,67.179,67.179,0,0,1,11.2.476,64.9,64.9,0,0,1-11.2.476,64.9,64.9,0,0,1-11.2-.476Z" transform="translate(-174.519 -226.204)" fill="#263238"/>
      <path id="Path_1573" data-name="Path 1573" d="M243.445,261.46a62.243,62.243,0,0,1-.476-10.984l.476-.476h4.266l3.5.11a11.735,11.735,0,0,1,3.222.329,11.239,11.239,0,0,1-3.222.348l-3.5.092h-4.266l.476-.476A64.477,64.477,0,0,1,243.445,261.46Z" transform="translate(-189.908 -226.178)" fill="#263238"/>
      <path id="Path_1574" data-name="Path 1574" d="M243.445,288a54.572,54.572,0,0,1-.476-10.27,54.47,54.47,0,0,1,.476-10.252,56.373,56.373,0,0,1,.476,10.252A56.494,56.494,0,0,1,243.445,288Z" transform="translate(-189.908 -211.658)" fill="#263238"/>
      <path id="Path_1575" data-name="Path 1575" d="M243.416,310.432a110.852,110.852,0,0,1,0-20.522,110.844,110.844,0,0,1,0,20.522Z" transform="translate(-189.879 -193.025)" fill="#263238"/>
      <path id="Path_1576" data-name="Path 1576" d="M243.416,332.87a111.031,111.031,0,0,1,0-20.541,111.023,111.023,0,0,1,0,20.541Z" transform="translate(-189.879 -174.4)" fill="#263238"/>
      <path id="Path_1577" data-name="Path 1577" d="M243.416,355.321a111.031,111.031,0,0,1,0-20.541,111.026,111.026,0,0,1,0,20.541Z" transform="translate(-189.879 -155.751)" fill="#263238"/>
      <path id="Path_1578" data-name="Path 1578" d="M243.416,377.712a110.849,110.849,0,0,1,0-20.522,110.846,110.846,0,0,1,0,20.522Z" transform="translate(-189.879 -137.135)" fill="#263238"/>
      <path id="Path_1579" data-name="Path 1579" d="M243.416,400.142a110.85,110.85,0,0,1,0-20.522,110.847,110.847,0,0,1,0,20.522Z" transform="translate(-189.879 -118.502)" fill="#263238"/>
      <path id="Path_1580" data-name="Path 1580" d="M243.416,422.572a110.849,110.849,0,0,1,0-20.522,110.846,110.846,0,0,1,0,20.522Z" transform="translate(-189.879 -99.869)" fill="#263238"/>
      <path id="Path_1581" data-name="Path 1581" d="M254.422,435.456a64.649,64.649,0,0,1-10.984.476c-.952-.952-.275-.275-.476-.494h0v-7.744a10.307,10.307,0,0,1,.348-3.2,11.535,11.535,0,0,1,.329,3.2c0,1.135,0,2.288.11,3.5v4.247h0c-.22-.2.476.494-.476-.458a62.462,62.462,0,0,1,11.149.476Z" transform="translate(-189.901 -81.228)" fill="#263238"/>
      <path id="Path_1582" data-name="Path 1582" d="M283.289,430.724a65.247,65.247,0,0,1-10.984.476,65.237,65.237,0,0,1-10.984-.476,63.03,63.03,0,0,1,10.984-.476,63.044,63.044,0,0,1,10.984.476Z" transform="translate(-174.611 -76.496)" fill="#263238"/>
      <path id="Path_1583" data-name="Path 1583" d="M307.409,430.724a65.248,65.248,0,0,1-10.984.476,65.236,65.236,0,0,1-10.984-.476,63.029,63.029,0,0,1,10.984-.476A63.043,63.043,0,0,1,307.409,430.724Z" transform="translate(-154.574 -76.496)" fill="#263238"/>
      <path id="Path_1584" data-name="Path 1584" d="M331.578,430.7a128.241,128.241,0,0,1-22.078,0,128.244,128.244,0,0,1,22.078,0Z" transform="translate(-134.587 -76.468)" fill="#263238"/>
      <path id="Path_1585" data-name="Path 1585" d="M355.7,430.7a128.241,128.241,0,0,1-22.078,0,128.244,128.244,0,0,1,22.078,0Z" transform="translate(-114.55 -76.468)" fill="#263238"/>
      <path id="Path_1586" data-name="Path 1586" d="M379.818,430.7a128.24,128.24,0,0,1-22.078,0,128.245,128.245,0,0,1,22.078,0Z" transform="translate(-94.514 -76.468)" fill="#263238"/>
      <path id="Path_1587" data-name="Path 1587" d="M403.938,430.7a128.241,128.241,0,0,1-22.078,0,128.244,128.244,0,0,1,22.078,0Z" transform="translate(-74.477 -76.468)" fill="#263238"/>
      <path id="Path_1588" data-name="Path 1588" d="M428.018,430.7a128.241,128.241,0,0,1-22.078,0,128.244,128.244,0,0,1,22.078,0Z" transform="translate(-54.473 -76.468)" fill="#263238"/>
      <path id="Path_1589" data-name="Path 1589" d="M452.178,430.7a128.241,128.241,0,0,1-22.078,0,128.244,128.244,0,0,1,22.078,0Z" transform="translate(-34.403 -76.468)" fill="#263238"/>
      <path id="Path_1590" data-name="Path 1590" d="M476.3,430.7a128.24,128.24,0,0,1-22.078,0,128.244,128.244,0,0,1,22.078,0Z" transform="translate(-14.367 -76.468)" fill="#263238"/>
      <path id="Path_1591" data-name="Path 1591" d="M500.428,430.7a128.241,128.241,0,0,1-22.078,0,128.244,128.244,0,0,1,22.078,0Z" transform="translate(5.678 -76.468)" fill="#263238"/>
      <path id="Path_1592" data-name="Path 1592" d="M513.454,430.7a31.929,31.929,0,0,1-10.984,0,31.932,31.932,0,0,1,10.984,0Z" transform="translate(25.715 -76.468)" fill="#263238"/>
      <g id="Group_262" data-name="Group 262" transform="translate(21.463 214.655)" opacity="0.3">
        <path id="Path_1593" data-name="Path 1593" d="M409.337,354.24s.11,18.307-5.492,29.291-7.323,15.341-19.039,19.589S225.68,423.569,225.68,423.569v-49.74Z" transform="translate(-225.68 -354.24)"/>
      </g>
      <g id="Group_263" data-name="Group 263" transform="translate(21.609 102.341)" opacity="0.3">
        <path id="Path_1594" data-name="Path 1594" d="M406.689,336.186s1.684-18.692-45.2-25.63C307.867,302.629,225.76,292.89,225.76,292.89v35.351Z" transform="translate(-225.76 -292.89)"/>
      </g>
      <rect id="Rectangle_264" data-name="Rectangle 264" width="204.911" height="120.68" rx="14.31" transform="translate(0.282 128.685)" fill="#e9be4e"/>
      <path id="Path_1595" data-name="Path 1595" d="M240.435,428.138h-1.556a23.7,23.7,0,0,1-4.559-.622,25.249,25.249,0,0,1-6.975-2.71,25.942,25.942,0,0,1-7.707-6.645,26.271,26.271,0,0,1-5.218-11.625,38.129,38.129,0,0,1-.439-7.323V332.795a26.509,26.509,0,0,1,10.508-20.321,25.886,25.886,0,0,1,11.332-4.979,33.422,33.422,0,0,1,6.334-.439H393.08a26.681,26.681,0,0,1,26.545,24.074c.2,2.581.128,5.089.146,7.6v58.052c0,2.343.092,4.613,0,6.957a27.449,27.449,0,0,1-.421,3.46,34.456,34.456,0,0,1-.915,3.332,26.673,26.673,0,0,1-19.35,17.264,31.673,31.673,0,0,1-3.2.568c-1.08.091-2.16.128-3.24.165H329.206l-64.954-.165-17.666-.091h0l17.666-.092,64.954-.146h57.136c4.174-.11,8.44.348,12.54-.732a25.831,25.831,0,0,0,18.454-16.806c1.574-4.229,1.355-8.824,1.355-13.474V338.964c0-2.508,0-5.053-.128-7.506a25.758,25.758,0,0,0-5.62-13.694,28.413,28.413,0,0,0-5.492-5.108,27.843,27.843,0,0,0-6.865-3.277,28.524,28.524,0,0,0-7.561-1.135H242.1a33.156,33.156,0,0,0-6.206.421,25.19,25.19,0,0,0-10.984,4.8,25.776,25.776,0,0,0-10.252,19.717c-.092,7.451,0,14.646,0,21.511v44.889a38.67,38.67,0,0,0,.4,7.231,26.179,26.179,0,0,0,19.479,20.87,24.831,24.831,0,0,0,4.522.7Z" transform="translate(-213.956 -178.791)" fill="#263238"/>
      <circle id="Ellipse_220" data-name="Ellipse 220" cx="43.864" cy="43.864" r="43.864" transform="translate(99.598 149.701)" fill="#070707"/>
      <path id="Path_1596" data-name="Path 1596" d="M298.46,391.5a46.391,46.391,0,0,0,10.472-5.492,37.9,37.9,0,0,0,8.861-9.153,34.382,34.382,0,0,0,4.741-29.822,37.253,37.253,0,0,0-5.6-11.442,45.371,45.371,0,0,0-8.238-8.458,4.39,4.39,0,0,1,.714.4,21.954,21.954,0,0,1,1.959,1.373,33.389,33.389,0,0,1,6.115,6.279,37.1,37.1,0,0,1,5.895,11.588,34.472,34.472,0,0,1-4.87,30.573,37.067,37.067,0,0,1-9.153,9.154,32.458,32.458,0,0,1-7.762,4.046,19.389,19.389,0,0,1-2.27.714A2.306,2.306,0,0,1,298.46,391.5Z" transform="translate(-143.758 -162.106)" fill="#fafafa"/>
    </g>
    <g id="freepik--Money--inject-175" transform="translate(142.881 233.747)">
      <path id="Path_1597" data-name="Path 1597" d="M740.815,222.519a81.046,81.046,0,1,1-87.874-73.228,81.046,81.046,0,0,1,87.874,73.228Z" transform="translate(303.657 -148.959)" fill="#e61030"/>
      <g id="Group_264" data-name="Group 264" transform="translate(901.095 16.564)" opacity="0.3">
        <path id="Path_1598" data-name="Path 1598" d="M713.074,214.746c-.366,0-.86-2.618-2.27-7.323a65.9,65.9,0,0,0-8.787-18.216,63.014,63.014,0,0,0-9.154-10.453,61.581,61.581,0,0,0-13-9.154,57.39,57.39,0,0,0-7.872-3.423,59.679,59.679,0,0,0-8.622-2.325,60.566,60.566,0,0,0-9.153-1.043,64.081,64.081,0,0,0-9.52.384,68,68,0,0,0-9.336,1.831,61.269,61.269,0,0,0-8.678,3.222,60.1,60.1,0,0,0-14.646,9.52,61.77,61.77,0,0,0-10.472,11.918,62.983,62.983,0,0,0-6.371,12.339,65.079,65.079,0,0,0-4.174,19.772c-.275,4.833-.11,7.543-.494,7.6s-1.044-2.618-1.355-7.6a57.284,57.284,0,0,1,2.856-20.888,61.659,61.659,0,0,1,17.1-26.362,62.662,62.662,0,0,1,24.934-14.023,67.723,67.723,0,0,1,10.069-2.069,69.327,69.327,0,0,1,10.27-.4,65.322,65.322,0,0,1,9.923,1.208A63.27,63.27,0,0,1,681.97,165.7a61.913,61.913,0,0,1,22.9,21.529,57.063,57.063,0,0,1,7.762,19.607C713.4,212,713.4,214.746,713.074,214.746Z" transform="translate(-589.102 -158.007)"/>
      </g>
      <g id="Group_265" data-name="Group 265" transform="translate(936.879 37.751)" opacity="0.3">
        <path id="Path_1599" data-name="Path 1599" d="M645.759,248.667l1.117,10.691-9.556,1.007-1.08-10.417c-9.52.4-18.893-1.611-24.568-5.163l4.028-12.211a38.755,38.755,0,0,0,19.222,4.851l-1.666-15.945c-10.856-1.483-23.067-3.771-24.495-17.447-1.062-10.124,5.4-19.57,20.3-22.866l-1.1-10.6,9.556-.989,1.08,10.4a43.682,43.682,0,0,1,19.991,3.808l-3.533,12.193a39.416,39.416,0,0,0-15.122-3.442l1.684,16.238c10.856,1.373,22.884,3.661,24.275,17.172C666.941,235.943,660.552,245.3,645.759,248.667Zm-13.932-41.228L630.4,193.873c-4.925,1.666-6.646,4.65-6.316,7.8S627.471,206.542,631.828,207.439Zm18.82,21.309c-.348-3.35-3.314-4.87-7.561-5.877l1.373,13.181C649.128,234.515,650.959,231.806,650.647,228.748Z" transform="translate(-608.649 -169.58)"/>
      </g>
      <path id="Path_1600" data-name="Path 1600" d="M589.741,201.312a2.239,2.239,0,0,1,.128.494,9.719,9.719,0,0,0,.257,1.446c.11.586.22,1.446.366,2.343a26.488,26.488,0,0,0,.641,3.185,62.466,62.466,0,0,0,16.7,30.133l2.892,2.636c.494.421.952.9,1.483,1.318l1.629,1.208c1.1.806,2.179,1.7,3.35,2.453l3.661,2.215a62.556,62.556,0,0,0,16.751,6.5,61.182,61.182,0,0,0,37.951-3.5,62.5,62.5,0,0,0,15.286-9.446l3.185-2.838c1.025-.952,1.831-2.032,2.838-3.021.458-.494.934-.989,1.373-1.483s.824-1.062,1.245-1.574c.787-1.062,1.575-2.087,2.362-3.112a64.874,64.874,0,0,0,6.646-12.559,62.246,62.246,0,0,0,4.265-20.138,24.346,24.346,0,0,0,0-3.24v-3.844a2.876,2.876,0,0,1,0-.513,2.086,2.086,0,0,1,0,.494,7.556,7.556,0,0,0,.11,1.465c.11.586,0,1.465.128,2.4a20.826,20.826,0,0,1,0,3.259,60.254,60.254,0,0,1-4.01,20.339,62.662,62.662,0,0,1-6.627,12.815l-2.288,3.2c-.421.531-.806,1.1-1.245,1.611l-1.391,1.52c-.934,1.007-1.831,2.087-2.874,3.057l-3.2,2.911a63.264,63.264,0,0,1-15.488,9.63,61.768,61.768,0,0,1-38.445,3.552,62.74,62.74,0,0,1-16.989-6.664l-3.661-2.252c-1.19-.769-2.27-1.684-3.387-2.49l-1.629-1.245c-.531-.421-1.007-.915-1.52-1.355l-2.966-2.783a64.186,64.186,0,0,1-8.842-11.35,60.414,60.414,0,0,1-7.652-19.277,22.219,22.219,0,0,1-.549-3.2c-.11-.915-.2-1.721-.293-2.38s-.11-1.08-.165-1.465a2.511,2.511,0,0,1-.018-.458Z" transform="translate(312.521 -114.883)" fill="#263238"/>
      <path id="Path_1601" data-name="Path 1601" d="M645.635,350.26A47.086,47.086,0,1,1,623.667,287.5,47.086,47.086,0,0,1,645.635,350.26Z" transform="translate(284.563 -37.775)" fill="#e61030"/>
      <g id="Group_266" data-name="Group 266" transform="translate(855.012 254.864)" opacity="0.3">
        <path id="Path_1602" data-name="Path 1602" d="M629.579,339.92a20.932,20.932,0,0,1,1.025-4.3,38.436,38.436,0,0,0,1.044-11.7,37.878,37.878,0,0,0-1.446-7.945,36.233,36.233,0,0,0-3.79-8.4A34.952,34.952,0,0,0,610.686,293.9a36.907,36.907,0,0,0-5.217-1.831,35.757,35.757,0,0,0-5.291-.97,32.954,32.954,0,0,0-5.181-.183,33.424,33.424,0,0,0-4.961.568,35.185,35.185,0,0,0-8.769,2.819,37.494,37.494,0,0,0-6.865,4.247,38.225,38.225,0,0,0-7.964,8.641,22.333,22.333,0,0,1-2.508,3.661,10.453,10.453,0,0,1,1.593-4.192,32.953,32.953,0,0,1,7.689-9.648,35.5,35.5,0,0,1,7.085-4.8,36.514,36.514,0,0,1,25.978-2.838,40.449,40.449,0,0,1,5.639,1.977,39.091,39.091,0,0,1,5.254,2.856,36.74,36.74,0,0,1,4.577,3.552,33.543,33.543,0,0,1,3.844,4.083,34.24,34.24,0,0,1,3.039,4.394,36.717,36.717,0,0,1,3.826,9.153,36.263,36.263,0,0,1,1.19,8.458,33.215,33.215,0,0,1-1.959,12.1,10.985,10.985,0,0,1-2.105,3.973Z" transform="translate(-563.93 -288.175)"/>
      </g>
      <g id="Group_267" data-name="Group 267" transform="translate(866.362 268.878)" opacity="0.3">
        <path id="Path_1603" data-name="Path 1603" d="M585.984,340.078l-2.618,5.657-5.071-2.343,2.563-5.492A26.583,26.583,0,0,1,570.13,328l5.657-4.888a22.592,22.592,0,0,0,8.147,8.165l3.936-8.458c-5-3.973-10.4-8.769-7.03-16,2.49-5.364,8.513-8.165,16.934-5.364l2.618-5.62,5.053,2.362-2.563,5.492a25.246,25.246,0,0,1,8.842,7.854l-5.492,5.053a22.955,22.955,0,0,0-6.517-6.224l-3.991,8.6c5,3.918,10.307,8.659,6.993,15.8C600.355,340.078,594.387,342.769,585.984,340.078Zm5.327-24.733,3.35-7.176c-2.966-.641-4.723.33-5.492,2s.256,3.405,2.142,5.144Zm3.057,16.257c.806-1.831-.2-3.423-2.032-5.2L589.1,333.4c2.765.586,4.6-.22,5.273-1.831Z" transform="translate(-570.13 -295.83)"/>
      </g>
      <path id="Path_1604" data-name="Path 1604" d="M565.977,300s-.549,1.483-1.446,4.174a35.986,35.986,0,0,0-1.684,11.79,37.426,37.426,0,0,0,1.117,8.147,38.65,38.65,0,0,0,3.5,8.842,36.607,36.607,0,0,0,6.407,8.183,35.24,35.24,0,0,0,19.863,9.52,36.356,36.356,0,0,0,10.38-.146,35.552,35.552,0,0,0,16.074-6.938,36.62,36.62,0,0,0,8.147-8.7c1.519-2.38,2.233-3.808,2.325-3.753a4.65,4.65,0,0,1-.458,1.044,29.455,29.455,0,0,1-1.556,2.892,35.757,35.757,0,0,1-24.385,16.366,36.248,36.248,0,0,1-10.655.2,35.932,35.932,0,0,1-20.376-9.758,36.81,36.81,0,0,1-6.517-8.421,38.329,38.329,0,0,1-3.662-8.97,37.392,37.392,0,0,1-1.007-8.33,34.324,34.324,0,0,1,2-11.918,23.919,23.919,0,0,1,1.281-3.021,5.726,5.726,0,0,1,.659-1.208Z" transform="translate(289.51 -23.488)" fill="#263238"/>
      <path id="Path_1605" data-name="Path 1605" d="M249.844,345.788a76.89,76.89,0,1,1-87.087-64.825A76.89,76.89,0,0,1,249.844,345.788Z" transform="translate(-96.892 -39.985)" fill="#e61030"/>
      <g id="Group_268" data-name="Group 268" transform="translate(17.41 256.059)" opacity="0.3">
        <path id="Path_1606" data-name="Path 1606" d="M223.564,339.341c-.348,0-.97-2.435-2.545-6.737a61.658,61.658,0,0,0-9.263-16.806,60.742,60.742,0,0,0-9.154-9.41,58.161,58.161,0,0,0-12.815-7.909,53.248,53.248,0,0,0-7.634-2.819,54.584,54.584,0,0,0-8.293-1.831,57.478,57.478,0,0,0-8.751-.513,62.762,62.762,0,0,0-8.989.879,61.293,61.293,0,0,0-8.751,2.27,60.056,60.056,0,0,0-8.055,3.5,54.707,54.707,0,0,0-7.176,4.522,56.368,56.368,0,0,0-6.206,5.272,58.217,58.217,0,0,0-14.646,23.8,61.677,61.677,0,0,0-2.911,18.966c0,4.577.275,7.14,0,7.195s-1.135-2.417-1.666-7.1a53.457,53.457,0,0,1,1.611-19.937,58.8,58.8,0,0,1,5.2-12.961,60.414,60.414,0,0,1,9.593-12.906,57.128,57.128,0,0,1,6.554-5.785,58.594,58.594,0,0,1,7.671-4.961,60.422,60.422,0,0,1,27.808-7.231,61.922,61.922,0,0,1,9.446.623,56.377,56.377,0,0,1,8.916,2.014,59.173,59.173,0,0,1,30.957,22.353A54.684,54.684,0,0,1,222.85,332C223.8,336.741,223.821,339.3,223.564,339.341Z" transform="translate(-106.401 -288.828)"/>
      </g>
      <g id="Group_269" data-name="Group 269" transform="translate(50.869 275.981)" opacity="0.3">
        <path id="Path_1607" data-name="Path 1607" d="M162.284,374.165l1.611,10.069-8.989,1.446-1.574-9.813c-8.989.879-17.978-.531-23.543-3.661l3.185-11.771a36.613,36.613,0,0,0,18.472,3.661l-2.4-15.012c-10.38-.824-22.06-2.38-24.129-15.231-1.52-9.538,4.1-18.838,18.051-22.719l-1.611-10,9.007-1.428,1.556,9.794a41.521,41.521,0,0,1,19.149,2.563l-2.728,11.79a37.308,37.308,0,0,0-14.517-2.471l2.453,15.286c10.362.732,21.859,2.307,23.891,14.993C181.671,361,176.124,370.192,162.284,374.165Zm-15.36-38.317-2.05-12.815c-4.6,1.831-6.06,4.76-5.584,7.726S142.769,335.226,146.925,335.848Zm18.948,19.2c-.513-3.149-3.387-4.449-7.469-5.181l1.977,12.412c4.339-1.629,5.95-4.357,5.492-7.231Z" transform="translate(-124.678 -299.71)"/>
      </g>
      <path id="Path_1608" data-name="Path 1608" d="M107.267,334.517a2.95,2.95,0,0,1,.128.458c.092.348.2.806.33,1.355l.476,2.2a25.757,25.757,0,0,0,.769,2.984,58.983,58.983,0,0,0,8.44,17.575,60.414,60.414,0,0,0,8.952,10.069l2.874,2.343c.494.384.97.806,1.483,1.172l1.611,1.062c1.08.7,2.142,1.483,3.3,2.142l3.552,1.831a59.7,59.7,0,0,0,16.2,5.291,62.959,62.959,0,0,0,18.307.2A63.6,63.6,0,0,0,191.15,377.7a59.922,59.922,0,0,0,13.968-9.739l2.856-2.874c.934-.952,1.7-2.014,2.545-2.984l1.227-1.483c.4-.513.732-1.044,1.08-1.556.714-1.044,1.391-2.069,2.087-3.076a62.247,62.247,0,0,0,5.639-12.229,58.878,58.878,0,0,0,2.984-19.277,20.138,20.138,0,0,0-.128-3.076c0-.86-.128-1.611-.165-2.252a8.889,8.889,0,0,0-.092-1.391,1.573,1.573,0,0,1,0-.476,1.5,1.5,0,0,1,.092.476,13.085,13.085,0,0,0,.183,1.373c.073.549.165,1.391.275,2.252a21.966,21.966,0,0,1,.2,3.094,56.75,56.75,0,0,1-2.709,19.479,59.976,59.976,0,0,1-5.62,12.449l-2.069,3.112c-.366.531-.7,1.08-1.1,1.593l-1.227,1.5c-.842,1.007-1.629,2.087-2.563,3.057s-1.831,1.94-2.893,2.911a60.048,60.048,0,0,1-14.17,9.959,58.583,58.583,0,0,1-36.3,5.364,60.251,60.251,0,0,1-16.476-5.492l-3.661-1.959c-1.172-.659-2.233-1.465-3.332-2.179l-1.629-1.08c-.513-.384-.989-.824-1.5-1.208l-2.893-2.38a60.72,60.72,0,0,1-8.97-10.289,57.154,57.154,0,0,1-8.238-17.868,18.928,18.928,0,0,1-.7-3.021c-.146-.86-.275-1.593-.4-2.233l-.22-1.373A1.831,1.831,0,0,1,107.267,334.517Z" transform="translate(-88.303 -9.125)" fill="#263238"/>
    </g>
    <g id="freepik--Floor--inject-175" transform="translate(41.53 781.095)">
      <path id="Path_1609" data-name="Path 1609" d="M1262.5,448.416c0,.275-273.343.494-610.45.494s-610.523-.22-610.523-.494,273.288-.476,610.523-.476S1262.5,448.16,1262.5,448.416Z" transform="translate(-41.53 -447.94)" fill="#263238"/>
    </g>
    <g id="freepik--Character--inject-175" transform="translate(663.819 87.041)">
      <path id="Path_1610" data-name="Path 1610" d="M565.97,265.914s-.128-12.174-.659-12.284l-24.971,5.584c-.275,1.574-3.423,21.566-2.893,23.506l28.175,7.817S565.97,266.628,565.97,265.914Z" transform="translate(-251.906 84.698)" fill="#ffbe9d"/>
      <path id="Path_1611" data-name="Path 1611" d="M556.287,279.963a1.211,1.211,0,0,0,.11-.549c.293-2.728.128-14.646-1.336-15.14s-5.693.348-5.968,1.922.677,14.975.677,14.975.275,2.105,3.826,2.618C555.829,284.027,556.287,279.963,556.287,279.963Z" transform="translate(-242.223 93.423)" fill="#ffbe9d"/>
      <path id="Path_1612" data-name="Path 1612" d="M552.407,282.314a1.209,1.209,0,0,0,.11-.549c.293-2.728.128-14.646-1.336-15.158s-5.694.366-5.968,1.941.677,14.975.677,14.975.275,2.105,3.826,2.618C551.913,286.451,552.407,282.314,552.407,282.314Z" transform="translate(-245.447 95.357)" fill="#ffbe9d"/>
      <path id="Path_1613" data-name="Path 1613" d="M548.587,283.462a2.2,2.2,0,0,0,.128-.549c.293-2.728.11-14.646-1.336-15.14s-5.712.366-5.987,1.941.677,14.957.677,14.957.275,2.124,3.826,2.636C548.038,287.618,548.587,283.462,548.587,283.462Z" transform="translate(-248.62 96.332)" fill="#ffbe9d"/>
      <path id="Path_1614" data-name="Path 1614" d="M544.79,284.562a1.678,1.678,0,0,1,.128-.549c.293-2.728.11-14.646-1.336-15.14s-5.694.366-5.986,1.922.677,14.975.677,14.975.293,2.105,3.844,2.618C544.314,288.718,544.79,284.562,544.79,284.562Z" transform="translate(-251.779 97.245)" fill="#ffbe9d"/>
      <path id="Path_1615" data-name="Path 1615" d="M549.192,267.16a23.342,23.342,0,0,1,.549,5.8,21.979,21.979,0,0,1-.183,5.73,23.337,23.337,0,0,1-.549-5.8,21.973,21.973,0,0,1,.183-5.73Z" transform="translate(-242.341 95.938)" fill="#eb996e"/>
      <path id="Path_1616" data-name="Path 1616" d="M545.321,267.14a44.249,44.249,0,0,1,.678,8.238,43.755,43.755,0,0,1-.092,8.275,47.367,47.367,0,0,1-.659-8.238A46.679,46.679,0,0,1,545.321,267.14Z" transform="translate(-245.5 95.921)" fill="#eb996e"/>
      <g id="Group_270" data-name="Group 270" transform="translate(292.511 363.647)" opacity="0.78">
        <path id="Path_1617" data-name="Path 1617" d="M541.416,267.46a47.356,47.356,0,0,1,.659,8.238,46.777,46.777,0,0,1,0,8.275,46.233,46.233,0,0,1-.677-8.238,47.752,47.752,0,0,1,.018-8.275Z" transform="translate(-541.227 -267.46)" fill="#eb996e"/>
      </g>
      <path id="Path_1618" data-name="Path 1618" d="M542.783,257s-9.9,22.518-8.458,23.927a33.2,33.2,0,0,0,6.1,3.533Z" transform="translate(-254.569 87.498)" fill="#ffbe9d"/>
      <path id="Path_1619" data-name="Path 1619" d="M539.456,108.08l-7.323,84.213-42.106-3.368c-.275-4.925.091-23.982.091-23.982s-17.556-2.728-17.776-20.266c-.091-8.513,1.117-26.124,2.4-42a32.477,32.477,0,0,1,34.253-29.8h0a32.477,32.477,0,0,1,30.463,35.2Z" transform="translate(-305.943 -65.502)" fill="#ffbe9d"/>
      <path id="Path_1620" data-name="Path 1620" d="M482.017,125.957a40.752,40.752,0,0,0,22.866-6.517s-5.492,12.632-22.9,10.984Z" transform="translate(-297.933 -26.774)" fill="#eb996e"/>
      <path id="Path_1621" data-name="Path 1621" d="M476.15,96.883a2.526,2.526,0,0,0,2.417,2.526,2.38,2.38,0,0,0,2.581-2.252,2.49,2.49,0,0,0-2.4-2.545,2.417,2.417,0,0,0-2.6,2.27Z" transform="translate(-302.776 -47.404)" fill="#263238"/>
      <path id="Path_1622" data-name="Path 1622" d="M475.667,95.2c.311.33,2.215-1.08,4.906-1.062s4.668,1.355,4.961,1.025-.165-.732-1.025-1.373a7.029,7.029,0,0,0-3.991-1.227,6.792,6.792,0,0,0-3.9,1.263C475.8,94.391,475.521,94.977,475.667,95.2Z" transform="translate(-303.209 -49.104)" fill="#263238"/>
      <path id="Path_1623" data-name="Path 1623" d="M490.65,96.883a2.526,2.526,0,0,0,2.471,2.526,2.38,2.38,0,0,0,2.526-2.252,2.49,2.49,0,0,0-2.4-2.545,2.417,2.417,0,0,0-2.6,2.27Z" transform="translate(-290.731 -47.404)" fill="#263238"/>
      <path id="Path_1624" data-name="Path 1624" d="M490.148,95.436c.311.33,2.215-1.08,4.906-1.08s4.687,1.355,4.98,1.025-.183-.732-1.043-1.355a6.9,6.9,0,0,0-3.973-1.227,6.444,6.444,0,0,0-3.9,1.263C490.295,94.7,489.929,95.29,490.148,95.436Z" transform="translate(-291.199 -48.905)" fill="#263238"/>
      <path id="Path_1625" data-name="Path 1625" d="M487.88,115.353a18.308,18.308,0,0,0-4.375-.787c-.7,0-1.336-.22-1.464-.677a3.551,3.551,0,0,1,.458-2.05l2.05-5.236c2.819-7.469,4.87-13.6,4.558-13.712s-2.838,5.84-5.657,13.309c-.677,1.831-1.336,3.661-1.959,5.272a4.046,4.046,0,0,0-.348,2.709,1.83,1.83,0,0,0,1.135,1.007,5.986,5.986,0,0,0,1.172.165,17.722,17.722,0,0,0,4.43,0Z" transform="translate(-298.707 -48.83)" fill="#263238"/>
      <path id="Path_1626" data-name="Path 1626" d="M493.006,106.18c-.439,0-.439,2.893-2.947,4.98s-5.62,1.831-5.639,2.16.7.568,2.014.6a7.323,7.323,0,0,0,4.7-1.648,6.243,6.243,0,0,0,2.288-4.174C493.537,106.876,493.207,106.162,493.006,106.18Z" transform="translate(-295.906 -37.79)" fill="#263238"/>
      <path id="Path_1627" data-name="Path 1627" d="M489.746,89.387c.275.732,2.966.384,6.133.769s5.712,1.245,6.133.586c.183-.33-.256-1.007-1.281-1.721A10.709,10.709,0,0,0,491.393,88C490.222,88.527,489.636,89.039,489.746,89.387Z" transform="translate(-291.493 -53.418)" fill="#263238"/>
      <path id="Path_1628" data-name="Path 1628" d="M476.22,90.933c.476.622,2.325,0,4.558,0s4.137.421,4.577-.22c.183-.311-.11-.934-.934-1.5a6.627,6.627,0,0,0-7.323.22C476.274,90,476.018,90.64,476.22,90.933Z" transform="translate(-302.773 -52.713)" fill="#263238"/>
      <path id="Path_1629" data-name="Path 1629" d="M543.8,100.562c-1.007,8.513-3.332,19.3-4.009,28.01a4.355,4.355,0,0,1-.623,2.307c-1.245,1.648-4.229,5.236-5.748,3.808-3.661-3.442-5.126-13.071-5.877-18.069s-.6-10.087-1.282-15.1v-.348a13.822,13.822,0,0,0-5.108-8.9,8.792,8.792,0,0,0-2.05-1.08c-5.163-1.831-13.749,1.538-18.893,3.405-2.636.97-5.217,2.16-7.78,3.332a18.161,18.161,0,0,1-18.106-1.519c-3.131-2.27-3.405-9.428-2.032-13.95,3.661-12.211,19.058-16.476,38.774-11.753S545.818,83.024,543.8,100.562Z" transform="translate(-306.63 -68.823)" fill="#263238"/>
      <path id="Path_1630" data-name="Path 1630" d="M506.036,96.682c.293-.128,12.046-3.661,11.662,8.421s-12.339,9.154-12.357,8.806S506.036,96.682,506.036,96.682Z" transform="translate(-278.528 -46.159)" fill="#ffbe9d"/>
      <path id="Path_1631" data-name="Path 1631" d="M507.438,107.721a4.913,4.913,0,0,0,.549.329,2.069,2.069,0,0,0,1.556,0,5.163,5.163,0,0,0,2.545-4.558,7,7,0,0,0-.494-3.021,2.38,2.38,0,0,0-1.519-1.648,1.062,1.062,0,0,0-1.245.531c-.183.33-.11.568-.183.586s-.238-.2-.128-.7a1.282,1.282,0,0,1,.494-.732,1.629,1.629,0,0,1,1.171-.275,2.947,2.947,0,0,1,2.124,1.941,7.121,7.121,0,0,1,.6,3.35,5.492,5.492,0,0,1-3.2,5.089,2.142,2.142,0,0,1-1.831-.385C507.438,108.014,507.383,107.739,507.438,107.721Z" transform="translate(-276.8 -44.402)" fill="#eb996e"/>
      <path id="Path_1632" data-name="Path 1632" d="M518.717,86.6a18.453,18.453,0,0,1-17.227.311,51.4,51.4,0,0,0,8.641,1.025,52.483,52.483,0,0,0,8.586-1.336Z" transform="translate(-281.726 -54.055)" fill="#455a64"/>
      <path id="Path_1633" data-name="Path 1633" d="M518.163,88.48a14.1,14.1,0,0,1-8.2,2.288,14.279,14.279,0,0,1-8.311-1.977,51.479,51.479,0,0,0,8.293,1.007A49.424,49.424,0,0,0,518.163,88.48Z" transform="translate(-281.593 -52.493)" fill="#455a64"/>
      <path id="Path_1634" data-name="Path 1634" d="M476.55,417.749l7.8,35.9s-33.868,19.973-33.063,26.747L521.4,467.782l-9.849-56.423Z" transform="translate(-323.442 215.726)" fill="#070707"/>
      <path id="Path_1635" data-name="Path 1635" d="M521.453,444.747l-1.208-5.657L453.46,453.3s-2.874,1.831-2.124,4.064Z" transform="translate(-323.493 238.762)" fill="#455a64"/>
      <path id="Path_1636" data-name="Path 1636" d="M525.081,417l1.153,36.706s-36.926,13.511-37.365,20.3l71.251.311.549-57.265Z" transform="translate(-292.209 220.411)" fill="#070707"/>
      <g id="Group_271" data-name="Group 271" transform="translate(196.634 688.982)" opacity="0.6">
        <path id="Path_1637" data-name="Path 1637" d="M560.133,450.937l-.165-5.767L491.72,447s-3.185,1.355-2.838,3.661Z" transform="translate(-488.855 -445.17)" fill="#455a64"/>
      </g>
      <path id="Path_1638" data-name="Path 1638" d="M479.614,530.25S443,351.079,443,347.491L508.283,313l25.264,210.257Z" transform="translate(-330.314 134.018)" fill="#070707"/>
      <path id="Path_1639" data-name="Path 1639" d="M530.746,606.342,480.31,295.726V228.74l68.908,6.408c.879,2.6,23.433,371.506,23.433,371.506l-7.1-.4H530.764" transform="translate(-299.32 64.022)" fill="#070707"/>
      <path id="Path_1640" data-name="Path 1640" d="M471.616,226.15l-28.6,193.488,63.947-15.506,26.051-171.684Z" transform="translate(-330.297 61.871)" fill="#070707"/>
      <path id="Path_1641" data-name="Path 1641" d="M491,235.11v.952c0,.622.165,1.593.293,2.783.293,2.471.7,6.06,1.227,10.655,1.08,9.263,2.728,22.646,4.888,39.177,4.266,33.044,10.728,78.72,17.685,129.01,3.478,25.191,6.664,49.209,9.373,71.068.714,5.492,1.263,10.82,2.032,15.982s1.556,10.179,2.307,15.012c1.465,9.685,2.838,18.71,4.082,26.948,2.472,16.476,4.43,29.822,5.712,39.049.641,4.613,1.117,8.2,1.391,10.637.147,1.227.238,2.142.275,2.783a4.829,4.829,0,0,1,0,.7c0,.2-.11,0-.11,0h.128a2.567,2.567,0,0,0,0-.714,17.662,17.662,0,0,0-.183-2.783c-.22-2.435-.641-6.041-1.227-10.655-1.19-9.245-3.039-22.609-5.492-39.1-1.227-8.238-2.563-17.264-3.991-26.966-.732-4.833-1.483-9.849-2.252-15.012s-1.3-10.508-2-15.964c-2.673-21.877-5.84-45.9-9.3-71.1-6.957-50.363-13.529-95.929-17.959-128.973l-5.053-39.031c-.586-4.6-1.062-8.165-1.373-10.636l-.385-2.764C491,235.439,491,235.11,491,235.11Z" transform="translate(-290.44 69.314)" fill="#455a64"/>
      <path id="Path_1642" data-name="Path 1642" d="M484.917,591a4.962,4.962,0,0,0-.128-.915c-.128-.6-.256-1.538-.439-2.691-.4-2.38-.989-5.858-1.831-10.307L475.873,539.2,453.649,414.314a28.576,28.576,0,0,1-.531-9.062c.366-2.984.879-6.023,1.318-8.989q1.373-8.952,2.728-17.611c1.831-11.533,3.661-22.664,5.364-33.246,3.533-21.163,6.92-40.276,9.959-56.148s5.712-28.8,7.744-37.639c.952-4.449,1.831-7.854,2.362-10.2.275-1.135.476-2.014.622-2.636a6.265,6.265,0,0,0,.165-.915,2.643,2.643,0,0,1-.256.9,23.7,23.7,0,0,0-.7,2.618c-.6,2.325-1.519,5.73-2.526,10.142-2.142,8.842-4.906,21.676-8.018,37.621s-6.591,34.948-10.142,56.13c-1.831,10.582-3.661,21.712-5.492,33.246q-1.355,8.659-2.728,17.611c-.458,2.984-.952,5.95-1.336,9.025a30.094,30.094,0,0,0,.549,9.318c8.769,48.734,16.714,92.854,22.481,124.836,2.911,15.945,5.272,28.87,6.92,37.822.824,4.449,1.464,7.909,1.922,10.289.22,1.135.384,2.032.513,2.673A2.093,2.093,0,0,0,484.917,591Z" transform="translate(-322.802 71.606)" fill="#455a64"/>
      <path id="Path_1643" data-name="Path 1643" d="M480.317,264.13c-.256,0,2.728,20.138,6.646,44.8s7.323,44.706,7.524,44.669-2.746-20.138-6.664-44.8S480.555,264.093,480.317,264.13Z" transform="translate(-299.327 93.421)" fill="#455a64"/>
      <path id="Path_1644" data-name="Path 1644" d="M507.53,434.654a5.581,5.581,0,0,0,1.666.293c1.062.128,2.618.275,4.522.421,3.844.311,9.154.586,15.012.677s11.186,0,15.03-.183c1.831,0,3.46-.183,4.54-.275a7.161,7.161,0,0,0,1.666-.22,49.263,49.263,0,0,0-6.225-.128H528.748c-5.84,0-11.149-.275-14.994-.421a50.979,50.979,0,0,0-6.224-.165Z" transform="translate(-276.708 235.051)" fill="#455a64"/>
      <path id="Path_1645" data-name="Path 1645" d="M463,434.867a10.488,10.488,0,0,0,2.142-.11l5.785-.622c4.906-.549,11.643-1.391,19.094-2.343s14.188-1.831,19.058-2.6l5.767-.879a12.264,12.264,0,0,0,2.105-.439,11.137,11.137,0,0,0-2.142,0c-1.373.128-3.369.33-5.8.6-4.888.549-11.643,1.373-19.094,2.343s-14.188,1.831-19.058,2.618l-5.767.879A10.14,10.14,0,0,0,463,434.867Z" transform="translate(-313.7 229.401)" fill="#455a64"/>
      <path id="Path_1646" data-name="Path 1646" d="M418.914,184.755l41.118,31.287s38.262-65.283,41.649-69.347,11.973-8.385,11.973-8.385l-4.723,83.645s-20.705,52.834-49.118,49.96c-21.749-2.2-59.352-59.59-59.352-59.59Z" transform="translate(-365.652 -11.099)" fill="#0065b3"/>
      <g id="Group_272" data-name="Group 272" transform="translate(87.894 203.954)" opacity="0.2">
        <path id="Path_1647" data-name="Path 1647" d="M435.192,180.23a36.139,36.139,0,0,0-4.156,30.1,4.486,4.486,0,0,0,1.666,2.655,3.277,3.277,0,0,0,4.119-1.373,9.518,9.518,0,0,0,1.062-4.632,10.546,10.546,0,0,0,3.039,3.973,3.661,3.661,0,0,0,4.632-.165c1.355-1.5.6-3.881-.22-5.748q-5.236-11.9-10.508-23.8" transform="translate(-429.458 -180.23)"/>
      </g>
      <path id="Path_1648" data-name="Path 1648" d="M425.167,168.8c.256.165-3.954,7.231-9.428,15.781s-10.087,15.341-10.343,15.177,3.954-7.323,9.41-15.781S424.91,168.637,425.167,168.8Z" transform="translate(-361.562 14.228)" fill="#263238"/>
      <path id="Path_1649" data-name="Path 1649" d="M410.989,168.346c-.11,0,.421-.641,1.355-.275a1.822,1.822,0,1,1-2.453,1.281c.238-.97.989-1.1,1.007-.952a3.207,3.207,0,0,0-.22,1.044c.037.586.513,1.208,1.263.824a.842.842,0,0,0,0-1.5C411.52,168.4,411.062,168.492,410.989,168.346Z" transform="translate(-357.856 13.53)" fill="#263238"/>
      <path id="Path_1650" data-name="Path 1650" d="M433.839,200.581a22.7,22.7,0,0,1-1.831-9.868c-.092-5.62,1.3-10.014,1.574-9.922s-.568,4.449-.458,9.9S434.223,200.489,433.839,200.581Z" transform="translate(-339.46 24.189)" fill="#263238"/>
      <path id="Path_1651" data-name="Path 1651" d="M441.195,200.254c-.256.165-2.947-3.808-5.272-9.245a33.518,33.518,0,0,1-3.112-10.179c.311-.092,1.831,4.394,4.137,9.739S441.469,200.09,441.195,200.254Z" transform="translate(-338.779 24.222)" fill="#263238"/>
      <path id="Path_1652" data-name="Path 1652" d="M553.816,139.582l-6.224-12.3H502.611l-7.085,13.968-27.79,6.3L455.763,326.754a12.414,12.414,0,0,0,1.593,6.5h0L566.631,337.3l4.449,1.831c3.918-2.417,1.483-12.412,1.519-17.1l1.41-88.753,21.621-70.922Z" transform="translate(-319.717 -20.262)" fill="#0065b3"/>
      <g id="Group_273" data-name="Group 273" transform="translate(187.47 107.934)" opacity="0.2">
        <path id="Path_1653" data-name="Path 1653" d="M483.85,145.318l7.945-7.964q4.467,10.8,8.934,21.547a224.812,224.812,0,0,0,29.291-20.486l-30.262,9.721q-3.845-10.2-7.671-20.358a77.9,77.9,0,0,1-7.616,17.63" transform="translate(-483.85 -127.78)"/>
      </g>
      <path id="Path_1654" data-name="Path 1654" d="M580.3,348.279l-29.456,1.52V265.275L520.38,217.4,542,146.48c4.449,1.831,38.005,86.043,46.555,108.891a25.776,25.776,0,0,1,1.593,10.325Z" transform="translate(-266.034 -4.312)" fill="#0065b3"/>
      <path id="Path_1655" data-name="Path 1655" d="M465.783,158.51c.311,0-1.154,17.373-3.259,38.7s-4.064,38.646-4.375,38.61,1.153-17.355,3.277-38.72S465.49,158.492,465.783,158.51Z" transform="translate(-317.764 5.681)" fill="#263238"/>
      <path id="Path_1656" data-name="Path 1656" d="M496.378,127.811a109.355,109.355,0,0,1-5.364,14.408l-.6,1.446a3.462,3.462,0,0,1-.97,1.5,1.831,1.831,0,0,1-1.959.11,13.759,13.759,0,0,1-1.245-.769l-4.046-2.746A17.959,17.959,0,0,1,478.62,139a18.309,18.309,0,0,1,3.991,2.105l4.174,2.526c.806.513,1.611,1.1,1.977.677a9.156,9.156,0,0,0,1.227-2.508C493.229,133.944,496.085,127.7,496.378,127.811Z" transform="translate(-300.724 -19.822)" fill="#263238"/>
      <path id="Path_1657" data-name="Path 1657" d="M524.109,138.52a49.855,49.855,0,0,1-6.865,2.764c-4.3,1.574-10.252,3.661-16.843,5.932l-3.661,1.227-.494.165-.183-.476c-2.325-5.62-4.339-10.582-5.712-14.17a38.452,38.452,0,0,1-2.05-5.822,35.133,35.133,0,0,1,2.71,5.492c1.574,3.5,3.661,8.421,6.06,14.023l-.677-.311,3.661-1.245c6.609-2.252,12.6-4.229,16.952-5.62a45.914,45.914,0,0,1,7.1-1.959Z" transform="translate(-292.683 -19.547)" fill="#263238"/>
      <path id="Path_1658" data-name="Path 1658" d="M541.725,147.86c0,.33-6.243,2.05-13.584,5.327s-12.815,6.81-13.071,6.536a14.3,14.3,0,0,1,3.442-2.618,70.3,70.3,0,0,1,18.966-8.439A14.736,14.736,0,0,1,541.725,147.86Z" transform="translate(-270.445 -3.166)" fill="#263238"/>
      <path id="Path_1659" data-name="Path 1659" d="M495.029,127.81a2.034,2.034,0,0,1,0,.531v1.574c0,1.391.128,3.423.146,6.06,0,5.254,0,12.815-.348,22.261-.659,18.8-3.021,44.706-6.755,73.137-1.831,14.243-3.845,27.754-5.2,40.092a261.789,261.789,0,0,0-1.831,32.953,169.648,169.648,0,0,0,1.831,22.133c.33,2.618.751,4.613.952,5.968.092.641.165,1.153.22,1.574a1.943,1.943,0,0,1,0,.531,2,2,0,0,1-.165-.513c-.092-.421-.2-.915-.348-1.538-.256-1.355-.751-3.35-1.135-5.95a151.153,151.153,0,0,1-2.105-22.188,249.564,249.564,0,0,1,1.538-32.953c1.3-12.376,3.3-25.9,5.108-40.111,3.661-28.431,6.224-54.28,7.085-73.045.476-9.373.622-16.971.7-22.225v-7.634A2.035,2.035,0,0,1,495.029,127.81Z" transform="translate(-299.375 -19.821)" fill="#263238"/>
      <path id="Path_1660" data-name="Path 1660" d="M568.138,250.413c0,.311-6.993.22-15.616-.2s-15.561-1.007-15.543-1.318,6.993-.22,15.6.2a112.114,112.114,0,0,1,15.561,1.318Z" transform="translate(-252.244 80.611)" fill="#263238"/>
      <path id="Path_1661" data-name="Path 1661" d="M540.109,251.7v.806a.5.5,0,0,0,.86.311c.385-.311.256-.659-.11-.915s-.659-.146-.769-.256.2-.6.989-.494a1.373,1.373,0,0,1,1.08.842,1.447,1.447,0,0,1-.495,1.684,1.464,1.464,0,0,1-1.831.128,1.428,1.428,0,0,1-.6-1.227C539.469,251.77,540.054,251.568,540.109,251.7Z" transform="translate(-250.376 82.623)" fill="#263238"/>
      <g id="Group_274" data-name="Group 274" transform="translate(243.281 195.515)" opacity="0.2">
        <path id="Path_1662" data-name="Path 1662" d="M525.767,192.957l-9.593-17.337a238.375,238.375,0,0,0,6.334,91.426l2.966-73.7" transform="translate(-514.336 -175.62)"/>
      </g>
      <path id="Path_1663" data-name="Path 1663" d="M494.914,167.906a9.743,9.743,0,0,1,1.831-.11l5.108-.128c4.449-.092,10.875-.2,18.6-.238h.513v.513c-.494,6.774-1.062,14.646-1.684,22.957v.311l-.274.146-1.153.6L505.422,198.5l-.311.165-.275-.22L493.083,189l-.183-.146v-.238c.549-6.206.989-11.387,1.318-15.213.165-1.648.311-3.021.421-4.119a6.815,6.815,0,0,1,.2-1.373,10.591,10.591,0,0,1,0,1.574c0,1.117-.11,2.526-.183,4.229-.2,3.661-.494,8.861-.842,14.957l-.165-.384,11.662,9.318h-.586l12.412-6.572,1.135-.6-.293.439c.677-8.348,1.3-16.165,1.831-22.939l.494.531c-7.524,0-13.822-.146-18.307-.238l-5.236-.128A16.464,16.464,0,0,1,494.914,167.906Z" transform="translate(-288.862 13.091)" fill="#263238"/>
      <path id="Path_1664" data-name="Path 1664" d="M466.64,243.282c0,.293-2.307-.11-3.79-2.325s-1.025-4.485-.732-4.375.384,1.831,1.666,3.661S466.731,242.971,466.64,243.282Z" transform="translate(-314.685 70.533)" fill="#263238"/>
      <path id="Path_1665" data-name="Path 1665" d="M467.535,244.574a10.124,10.124,0,0,1-2.783-10.984c.329,0,0,2.636.787,5.657S467.791,244.373,467.535,244.574Z" transform="translate(-312.743 68.051)" fill="#263238"/>
      <path id="Path_1666" data-name="Path 1666" d="M514.5,232.86c.275,0,.531,4.3-1.721,9.025s-5.712,7.323-5.858,7.067,2.783-3.057,4.851-7.543S514.154,232.823,514.5,232.86Z" transform="translate(-277.218 67.445)" fill="#263238"/>
      <path id="Path_1667" data-name="Path 1667" d="M432.4,178.725s-33.282-25.209-37.932-26.893c-7.744-2.8-9.611-2.05-9.611-2.05l18.307,19.662s-19.3,6.5-20.687,7.323-2.069,5.016,2.618,5.016c3.863,0,22.371.439,22.371.439l15.25,11.131Z" transform="translate(-381.447 -1.645)" fill="#ffbe9d"/>
    </g>
    <g id="freepik--speech-bubble--inject-175" transform="translate(945.233 46.892)">
      <path id="Path_1668" data-name="Path 1668" d="M599.194,46.925a4.522,4.522,0,0,1,1.1,0l3.222.092h2.38l2.838.4,3.332.476,3.661.934a60.119,60.119,0,0,1,18,7.909,63.416,63.416,0,0,1,29.291,47.727,65.276,65.276,0,0,1,.183,8.7,36.559,36.559,0,0,1-.293,4.449c-.293,1.483-.458,2.966-.677,4.485a63.648,63.648,0,0,1-6.041,17.685,68.414,68.414,0,0,1-11.57,15.927,66.9,66.9,0,0,1-16.659,11.955,60.576,60.576,0,0,1-20.3,6.243,40.831,40.831,0,0,1-5.492.458,49.594,49.594,0,0,1-5.492,0,65.794,65.794,0,0,1-10.984-1.373,64.076,64.076,0,0,1-21.822-9.154h.659l-22.243,8.934-1.318.531.385-1.373c2.233-8.165,4.43-16.092,6.536-23.8l.11.586a63.84,63.84,0,0,1-11.863-27.168,57.953,57.953,0,0,1-.86-13.913,44.917,44.917,0,0,1,.623-6.7c.165-1.08.348-2.16.513-3.24s.513-2.105.769-3.149a63.673,63.673,0,0,1,24.806-36.175,61.243,61.243,0,0,1,14.792-7.616c1.153-.421,2.252-.824,3.332-1.19l3.149-.806,2.893-.714c.915-.183,1.831-.275,2.654-.4,1.684-.22,3.167-.513,4.449-.568l3.277-.11h2a2.8,2.8,0,0,1,.677,0,5.289,5.289,0,0,1-.677.092l-2,.146-3.24.22c-1.282.11-2.746.421-4.412.677A63.214,63.214,0,0,0,538.3,95c-.238,1.025-.567,2.05-.751,3.094s-.311,2.124-.476,3.2a40.562,40.562,0,0,0-.586,6.554,56.577,56.577,0,0,0,.9,13.639,62.648,62.648,0,0,0,11.7,26.582l.2.275v.311q-3.131,11.533-6.481,23.8l-.934-.824,22.225-8.952.348-.146.311.2a62.611,62.611,0,0,0,21.346,8.989,64.675,64.675,0,0,0,10.71,1.355,47.587,47.587,0,0,0,5.364-.11,36.4,36.4,0,0,0,5.291-.439,58.9,58.9,0,0,0,19.863-6.078,65.505,65.505,0,0,0,16.311-11.68,66.98,66.98,0,0,0,11.351-15.543,62.408,62.408,0,0,0,5.986-17.318c.22-1.483.458-2.947.677-4.394s.183-2.911.293-4.357a62.165,62.165,0,0,0-28.541-55.69,60.263,60.263,0,0,0-17.685-7.982l-3.661-.97-3.277-.549-2.819-.458c-.86-.092-1.666-.11-2.362-.183l-3.332-.238a10.089,10.089,0,0,1-1.08-.165Z" transform="translate(-535.165 -46.892)" fill="#263238"/>
      <path id="Path_1669" data-name="Path 1669" d="M605.482,106.614a4.229,4.229,0,0,1-.75,0h-2.16l-8.019.128-26.856.238h-.22v-.22c-.22-1.41-.439-2.929-.659-4.449-1.831-13.016-3.515-24.641-4.6-32.22l.146.128h-9.63a3.024,3.024,0,0,1,.659,0h1.831l7.14-.22h.146v.128c1.135,7.6,2.856,19.2,4.8,32.2l.641,4.449-.256-.22h26.856l8.092.055h2.179a3.531,3.531,0,0,1,.659,0Z" transform="translate(-520.566 -27.695)" fill="#e83225"/>
      <path id="Path_1670" data-name="Path 1670" d="M568.414,107.438h-.9l-.146-.915h0v-.22l-.531-3.661-4.668-32h-8.714c-.769,0-.9,0-.9-.256v-.092h0l.824-.128h1.831l6.719-.092V69.89l.183.165h.623v.33a1.586,1.586,0,0,0,0,.293l.183.165h-.165c1.135,7.6,2.819,19,4.723,31.744l.586,4.046H604.68c.86,0,.97,0,.97.275s0,.256-.97.275h-2.16l-8,.11-26.307.238Zm0-.549Zm-2.453-13,1.831,12.522h0l-.586-3.973C566.785,99.529,566.363,96.673,565.961,93.891Z" transform="translate(-520.715 -27.787)" fill="#e83225"/>
      <path id="Path_1671" data-name="Path 1671" d="M561.669,96.324h2.911l8.073-.128,27.882-.256-.238.2c.805-4.687,1.666-9.776,2.563-15.03.458-2.691.915-5.346,1.336-7.89l.256.293-32.861.11h-9.666l9.721-.128,32.861-.275h.293v.293c-.421,2.526-.879,5.181-1.336,7.89-.9,5.254-1.831,10.325-2.581,15.03v.2H561.816Z" transform="translate(-515.673 -25.021)" fill="#e83225"/>
      <path id="Path_1672" data-name="Path 1672" d="M572.9,96.741H562.1c-.2,0-.421,0-.421-.256s.22-.238.421-.256h2.709l8.092-.11,27.461-.256,2.49-14.646c.439-2.508.86-4.961,1.263-7.323L571.822,74H558.787c-.238,0-.458,0-.458-.256s.22-.238.458-.256h3.3l9.739-.146,32.458-.275h1.044l-.146.879h0l-3.661,21.969h0l-.146.879h-.9Zm27.461-.549h0Zm4.284-22.426c-.4,2.38-.824,4.87-1.263,7.323l-2.471,14.646h0l3.661-21.969Zm-.385-.494h0Z" transform="translate(-515.922 -25.145)" fill="#e83225"/>
      <path id="Path_1673" data-name="Path 1673" d="M569.65,97.484a2.78,2.78,0,0,0-.22-.9,3.642,3.642,0,0,0-4.778-2.4,3.552,3.552,0,0,0-2.288,3.332,3.567,3.567,0,0,0,5.712,2.838,3.825,3.825,0,0,0,1.373-1.977c.165-.549.165-.9.2-.9a1.831,1.831,0,0,1,0,.952,3.772,3.772,0,0,1-1.336,2.2,3.991,3.991,0,1,1-3.808-6.883,3.894,3.894,0,0,1,5.144,2.783C569.741,97.154,569.686,97.484,569.65,97.484Z" transform="translate(-513.017 -8.167)" fill="#e83225"/>
      <path id="Path_1674" data-name="Path 1674" d="M565.911,101.832a3.989,3.989,0,0,1-1.354-.238,4.215,4.215,0,1,1,3.936-7.323,3.936,3.936,0,0,1,1.446,2.325,2.637,2.637,0,0,1,0,.989,2.979,2.979,0,0,1,0,.989,3.973,3.973,0,0,1-1.428,2.343,4.229,4.229,0,0,1-2.6.915Zm-.787-7.909-.476.146a3.771,3.771,0,0,0,0,7.1l.476.128-.458-.146a3.771,3.771,0,0,1,0-7.085Zm.879.366a3.167,3.167,0,0,0-1.19.22,3.329,3.329,0,1,0,3.2,5.767,3.661,3.661,0,0,0,1.3-1.831,3.829,3.829,0,0,0,.146-.677s0-.11,0-.165a.347.347,0,0,1,0-.146,3.9,3.9,0,0,0-.165-.677,3.5,3.5,0,0,0-1.3-1.831,3.369,3.369,0,0,0-1.977-.659Z" transform="translate(-513.123 -8.268)" fill="#e83225"/>
      <path id="Path_1675" data-name="Path 1675" d="M582.91,97.4a2.781,2.781,0,0,0-.22-.9,3.614,3.614,0,1,0-1.355,3.771,3.79,3.79,0,0,0,1.373-1.959c.165-.567.165-.915.2-.915a2.029,2.029,0,0,1,0,.952,3.661,3.661,0,0,1-1.336,2.215,3.991,3.991,0,1,1,0-6.3,3.845,3.845,0,0,1,1.373,2.2,1.828,1.828,0,0,1-.037.934Z" transform="translate(-501.966 -8.232)" fill="#e83225"/>
      <path id="Path_1676" data-name="Path 1676" d="M579.236,101.763a4.137,4.137,0,0,1-1.373-.22,4.229,4.229,0,1,1,3.954-7.323,4.045,4.045,0,0,1,1.446,2.325,2.637,2.637,0,0,1,0,.989,2.986,2.986,0,0,1,0,.989,4.1,4.1,0,0,1-4.046,3.259Zm-.824-7.89-.439.128a3.771,3.771,0,0,0,0,7.1l.531.146-.513-.146a3.79,3.79,0,0,1,0-7.1Zm.915.348a3.093,3.093,0,0,0-1.19.22,3.332,3.332,0,1,0,3.2,5.767,3.662,3.662,0,0,0,1.3-1.831,6.9,6.9,0,0,0,.146-.677.525.525,0,0,1,0-.165.345.345,0,0,1,0-.146,1.266,1.266,0,0,0-.165-.677,3.5,3.5,0,0,0-1.3-1.831,3.405,3.405,0,0,0-1.995-.659Z" transform="translate(-502.118 -8.345)" fill="#e83225"/>
    </g>
  </g>
</svg>
